<?xml version="1.0" encoding="UTF-8" standalone="no"?>
<svg
   width="432.33975pt"
   height="281.88062pt"
   viewBox="0 0 432.33976 281.88061"
   version="1.1"
   id="svg95"
   sodipodi:docname="combined.svg"
   inkscape:version="1.3.2 (091e20ef0f, 2023-11-25, custom)"
   xml:space="preserve"
   xmlns:inkscape="http://www.inkscape.org/namespaces/inkscape"
   xmlns:sodipodi="http://sodipodi.sourceforge.net/DTD/sodipodi-0.dtd"
   xmlns:xlink="http://www.w3.org/1999/xlink"
   xmlns="http://www.w3.org/2000/svg"
   xmlns:svg="http://www.w3.org/2000/svg"
   xmlns:rdf="http://www.w3.org/1999/02/22-rdf-syntax-ns#"
   xmlns:cc="http://creativecommons.org/ns#"
   xmlns:dc="http://purl.org/dc/elements/1.1/"><sodipodi:namedview
     id="namedview95"
     pagecolor="#ffffff"
     bordercolor="#000000"
     borderopacity="0.25"
     inkscape:showpageshadow="2"
     inkscape:pageopacity="0.0"
     inkscape:pagecheckerboard="0"
     inkscape:deskcolor="#d1d1d1"
     inkscape:document-units="pt"
     inkscape:zoom="11.313709"
     inkscape:cx="524.36386"
     inkscape:cy="372.73365"
     inkscape:window-width="1876"
     inkscape:window-height="1052"
     inkscape:window-x="0"
     inkscape:window-y="0"
     inkscape:window-maximized="1"
     inkscape:current-layer="figure_1" /><metadata
     id="metadata1"><rdf:RDF><cc:Work><dc:type
           rdf:resource="http://purl.org/dc/dcmitype/StillImage" /><dc:date>2024-10-07T18:55:57.169266</dc:date><dc:format>image/svg+xml</dc:format><dc:creator><cc:Agent><dc:title>Matplotlib v3.9.2, https://matplotlib.org/</dc:title></cc:Agent></dc:creator></cc:Work></rdf:RDF></metadata><defs
     id="defs1"><style
       type="text/css"
       id="style1">*{stroke-linejoin: round; stroke-linecap: butt}</style><style
       type="text/css"
       id="style1-7">*{stroke-linejoin: round; stroke-linecap: butt}</style><clipPath
       id="p47e690d9c2"><rect
         x="7.1999998"
         y="7.1999998"
         width="334.79999"
         height="55.439999"
         id="rect7" /></clipPath></defs><g
     id="figure_1"
     inkscape:label="figure_1 BAND"
     transform="translate(-21.976562,-6.8)"><g
       id="axes_1"><g
         id="patch_2"><path
           d="M 40.603125,273.312 H 397.72312 V 7.2 H 40.603125 Z"
           style="fill:#ffffff"
           id="path2" /></g><g
         id="matplotlib.axis_1"><g
           id="xtick_1"><g
             id="line2d_1"><path
               d="M 56.835852,273.312 V 7.2"
               clip-path="url(#p771fe4705c)"
               style="fill:none;stroke:#b0b0b0;stroke-width:0.8;stroke-linecap:square"
               id="path3" /></g><g
             id="line2d_2"><defs
               id="defs3"><path
                 id="m2f06e651be"
                 d="M 0,0 V 3.5"
                 style="stroke:#000000;stroke-width:0.8" /></defs><g
               id="g3"><use
                 xlink:href="#m2f06e651be"
                 x="56.835854"
                 y="273.31201"
                 style="stroke:#000000;stroke-width:0.8"
                 id="use3" /></g></g><g
             id="text_1"><!-- G --><g
               transform="matrix(0.1,0,0,-0.1,52.961634,287.91044)"
               id="g4"><defs
                 id="defs4"><path
                   id="DejaVuSans-47"
                   d="M 3809,666 V 1919 H 2778 v 519 H 4434 V 434 Q 4069,175 3628,42 3188,-91 2688,-91 1594,-91 976,548 359,1188 359,2328 q 0,1144 617,1783 618,639 1712,639 456,0 867,-113 411,-112 758,-331 v -672 q -350,297 -744,447 -394,150 -828,150 -857,0 -1287,-478 -429,-478 -429,-1425 0,-944 429,-1422 430,-478 1287,-478 334,0 596,58 263,58 472,180 z"
                   transform="scale(0.015625)" /></defs><use
                 xlink:href="#DejaVuSans-47"
                 id="use4" /></g></g></g><g
           id="xtick_2"><g
             id="line2d_3"><path
               d="M 101.96406,273.312 V 7.2"
               clip-path="url(#p771fe4705c)"
               style="fill:none;stroke:#b0b0b0;stroke-width:0.8;stroke-linecap:square"
               id="path4" /></g><g
             id="line2d_4"><g
               id="g5"><use
                 xlink:href="#m2f06e651be"
                 x="101.96406"
                 y="273.31201"
                 style="stroke:#000000;stroke-width:0.8"
                 id="use5" /></g></g><g
             id="text_2"><!-- A --><g
               transform="matrix(0.1,0,0,-0.1,98.543745,287.91044)"
               id="g6"><defs
                 id="defs5"><path
                   id="DejaVuSans-41"
                   d="M 2188,4044 1331,1722 h 1716 z m -357,622 h 716 L 4325,0 H 3669 L 3244,1197 H 1141 L 716,0 H 50 Z"
                   transform="scale(0.015625)" /></defs><use
                 xlink:href="#DejaVuSans-41"
                 id="use6" /></g></g></g><g
           id="xtick_3"><g
             id="line2d_5"><path
               d="M 174.43299,273.312 V 7.2"
               clip-path="url(#p771fe4705c)"
               style="fill:none;stroke:#b0b0b0;stroke-width:0.8;stroke-linecap:square"
               id="path6" /></g><g
             id="line2d_6"><g
               id="g7"><use
                 xlink:href="#m2f06e651be"
                 x="174.433"
                 y="273.31201"
                 style="stroke:#000000;stroke-width:0.8"
                 id="use7" /></g></g><g
             id="text_3"><!-- K --><g
               transform="matrix(0.1,0,0,-0.1,171.15409,287.91044)"
               id="g8"><defs
                 id="defs7"><path
                   id="DejaVuSans-4b"
                   d="m 628,4666 h 631 V 2694 l 2094,1972 h 813 L 1850,2491 4331,0 H 3500 L 1259,2247 V 0 H 628 Z"
                   transform="scale(0.015625)" /></defs><use
                 xlink:href="#DejaVuSans-4b"
                 id="use8" /></g></g></g><g
           id="xtick_4"><g
             id="line2d_7"><path
               d="M 219.5612,273.312 V 7.2"
               clip-path="url(#p771fe4705c)"
               style="fill:none;stroke:#b0b0b0;stroke-width:0.8;stroke-linecap:square"
               id="path8" /></g><g
             id="line2d_8"><g
               id="g9"><use
                 xlink:href="#m2f06e651be"
                 x="219.5612"
                 y="273.31201"
                 style="stroke:#000000;stroke-width:0.8"
                 id="use9" /></g></g><g
             id="text_4"><!-- H --><g
               transform="matrix(0.1,0,0,-0.1,215.80104,287.91044)"
               id="g10"><defs
                 id="defs9"><path
                   id="DejaVuSans-48"
                   d="m 628,4666 h 631 V 2753 h 2294 v 1913 h 631 V 0 H 3553 V 2222 H 1259 V 0 H 628 Z"
                   transform="scale(0.015625)" /></defs><use
                 xlink:href="#DejaVuSans-48"
                 id="use10" /></g></g></g><g
           id="xtick_5"><g
             id="line2d_9"><path
               d="M 272.85832,273.312 V 7.2"
               clip-path="url(#p771fe4705c)"
               style="fill:none;stroke:#b0b0b0;stroke-width:0.8;stroke-linecap:square"
               id="path10" /></g><g
             id="line2d_10"><g
               id="g11"><use
                 xlink:href="#m2f06e651be"
                 x="272.85831"
                 y="273.31201"
                 style="stroke:#000000;stroke-width:0.8"
                 id="use11" /></g></g><g
             id="text_5"><!-- M --><g
               transform="matrix(0.1,0,0,-0.1,268.54426,287.91044)"
               id="g12"><defs
                 id="defs11"><path
                   id="DejaVuSans-4d"
                   d="m 628,4666 h 941 L 2759,1491 3956,4666 h 941 V 0 H 4281 V 4097 L 3078,897 H 2444 L 1241,4097 V 0 H 628 Z"
                   transform="scale(0.015625)" /></defs><use
                 xlink:href="#DejaVuSans-4d"
                 id="use12" /></g></g></g><g
           id="xtick_6"><g
             id="line2d_11"><path
               d="M 317.98652,273.312 V 7.2"
               clip-path="url(#p771fe4705c)"
               style="fill:none;stroke:#b0b0b0;stroke-width:0.8;stroke-linecap:square"
               id="path12" /></g><g
             id="line2d_12"><g
               id="g13"><use
                 xlink:href="#m2f06e651be"
                 x="317.98651"
                 y="273.31201"
                 style="stroke:#000000;stroke-width:0.8"
                 id="use13" /></g></g><g
             id="text_6"><!-- L --><g
               transform="matrix(0.1,0,0,-0.1,315.20059,287.91044)"
               id="g14"><defs
                 id="defs13"><path
                   id="DejaVuSans-4c"
                   d="m 628,4666 h 631 V 531 H 3531 V 0 H 628 Z"
                   transform="scale(0.015625)" /></defs><use
                 xlink:href="#DejaVuSans-4c"
                 id="use14" /></g></g></g><g
           id="xtick_7"><g
             id="line2d_13"><path
               d="M 384.67649,273.312 V 7.2"
               clip-path="url(#p771fe4705c)"
               style="fill:none;stroke:#b0b0b0;stroke-width:0.8;stroke-linecap:square"
               id="path14" /></g><g
             id="line2d_14"><g
               id="g15"><use
                 xlink:href="#m2f06e651be"
                 x="384.67648"
                 y="273.31201"
                 style="stroke:#000000;stroke-width:0.8"
                 id="use15" /></g></g><g
             id="text_7"><!-- G --><g
               transform="matrix(0.1,0,0,-0.1,380.80227,287.91044)"
               id="g16"><use
                 xlink:href="#DejaVuSans-47"
                 id="use16" /></g></g></g></g><g
         id="matplotlib.axis_2"><g
           id="ytick_1"><g
             id="line2d_15"><defs
               id="defs16"><path
                 id="m4122864324"
                 d="M 0,0 H -3.5"
                 style="stroke:#000000;stroke-width:0.8" /></defs><g
               id="g17"><use
                 xlink:href="#m4122864324"
                 x="40.603127"
                 y="261.74191"
                 style="stroke:#000000;stroke-width:0.8"
                 id="use17" /></g></g><g
             id="text_8"><!-- 0 --><g
               transform="matrix(0.1,0,0,-0.1,27.240625,265.54113)"
               id="g18"><defs
                 id="defs17"><path
                   id="DejaVuSans-30"
                   d="m 2034,4250 q -487,0 -733,-480 -245,-479 -245,-1442 0,-959 245,-1439 246,-480 733,-480 491,0 736,480 246,480 246,1439 0,963 -246,1442 -245,480 -736,480 z m 0,500 q 785,0 1199,-621 414,-620 414,-1801 0,-1178 -414,-1799 -414,-620 -1199,-620 -784,0 -1198,620 -414,621 -414,1799 0,1181 414,1801 414,621 1198,621 z"
                   transform="scale(0.015625)" /></defs><use
                 xlink:href="#DejaVuSans-30"
                 id="use18" /></g></g></g><g
           id="ytick_2"><g
             id="line2d_16"><g
               id="g19"><use
                 xlink:href="#m4122864324"
                 x="40.603127"
                 y="215.46156"
                 style="stroke:#000000;stroke-width:0.8"
                 id="use19" /></g></g><g
             id="text_9"><!-- 2 --><g
               transform="matrix(0.1,0,0,-0.1,27.240625,219.26078)"
               id="g20"><defs
                 id="defs19"><path
                   id="DejaVuSans-32"
                   d="M 1228,531 H 3431 V 0 H 469 v 531 q 359,372 979,998 621,627 780,809 303,340 423,576 121,236 121,464 0,372 -261,606 -261,235 -680,235 -297,0 -627,-103 -329,-103 -704,-313 v 638 q 381,153 712,231 332,78 607,78 725,0 1156,-363 431,-362 431,-968 0,-288 -108,-546 -107,-257 -392,-607 -78,-91 -497,-524 Q 1991,1309 1228,531 Z"
                   transform="scale(0.015625)" /></defs><use
                 xlink:href="#DejaVuSans-32"
                 id="use20" /></g></g></g><g
           id="ytick_3"><g
             id="line2d_17"><g
               id="g21"><use
                 xlink:href="#m4122864324"
                 x="40.603127"
                 y="169.18121"
                 style="stroke:#000000;stroke-width:0.8"
                 id="use21" /></g></g><g
             id="text_10"><!-- 4 --><g
               transform="matrix(0.1,0,0,-0.1,27.240625,172.98044)"
               id="g22"><defs
                 id="defs21"><path
                   id="DejaVuSans-34"
                   d="M 2419,4116 825,1625 h 1594 z m -166,550 h 794 V 1625 h 666 V 1100 H 3047 V 0 H 2419 V 1100 H 313 v 609 z"
                   transform="scale(0.015625)" /></defs><use
                 xlink:href="#DejaVuSans-34"
                 id="use22" /></g></g></g><g
           id="ytick_4"><g
             id="line2d_18"><g
               id="g23"><use
                 xlink:href="#m4122864324"
                 x="40.603127"
                 y="122.90087"
                 style="stroke:#000000;stroke-width:0.8"
                 id="use23" /></g></g><g
             id="text_11"><!-- 6 --><g
               transform="matrix(0.1,0,0,-0.1,27.240625,126.70009)"
               id="g24"><defs
                 id="defs23"><path
                   id="DejaVuSans-36"
                   d="m 2113,2584 q -425,0 -674,-291 -248,-290 -248,-796 0,-503 248,-796 249,-292 674,-292 425,0 673,292 248,293 248,796 0,506 -248,796 -248,291 -673,291 z m 1253,1979 v -575 q -238,112 -480,171 -242,60 -480,60 -625,0 -955,-422 -329,-422 -376,-1275 184,272 462,417 279,145 613,145 703,0 1111,-427 408,-426 408,-1160 0,-719 -425,-1154 -425,-434 -1131,-434 -810,0 -1238,620 -428,621 -428,1799 0,1106 525,1764 525,658 1409,658 238,0 480,-47 242,-47 505,-140 z"
                   transform="scale(0.015625)" /></defs><use
                 xlink:href="#DejaVuSans-36"
                 id="use24" /></g></g></g><g
           id="ytick_5"><g
             id="line2d_19"><g
               id="g25"><use
                 xlink:href="#m4122864324"
                 x="40.603127"
                 y="76.620522"
                 style="stroke:#000000;stroke-width:0.8"
                 id="use25" /></g></g><g
             id="text_12"><!-- 8 --><g
               transform="matrix(0.1,0,0,-0.1,27.240625,80.41974)"
               id="g26"><defs
                 id="defs25"><path
                   id="DejaVuSans-38"
                   d="m 2034,2216 q -450,0 -708,-241 -257,-241 -257,-662 0,-422 257,-663 258,-241 708,-241 450,0 709,242 260,243 260,662 0,421 -258,662 -257,241 -711,241 z m -631,268 q -406,100 -633,378 -226,279 -226,679 0,559 398,884 399,325 1092,325 697,0 1094,-325 397,-325 397,-884 0,-400 -227,-679 -226,-278 -629,-378 456,-106 710,-416 255,-309 255,-755 Q 3634,634 3220,271 2806,-91 2034,-91 1263,-91 848,271 434,634 434,1313 q 0,446 256,755 257,310 713,416 z m -231,997 q 0,-362 226,-565 227,-203 636,-203 407,0 636,203 230,203 230,565 0,363 -230,566 -229,203 -636,203 -409,0 -636,-203 -226,-203 -226,-566 z"
                   transform="scale(0.015625)" /></defs><use
                 xlink:href="#DejaVuSans-38"
                 id="use26" /></g></g></g><g
           id="ytick_6"><g
             id="line2d_20"><g
               id="g27"><use
                 xlink:href="#m4122864324"
                 x="40.603127"
                 y="30.340174"
                 style="stroke:#000000;stroke-width:0.8"
                 id="use27" /></g></g><g
             id="text_13"><!-- 10 --><g
               transform="matrix(0.1,0,0,-0.1,20.878125,34.139393)"
               id="g29"><defs
                 id="defs27"><path
                   id="DejaVuSans-31"
                   d="M 794,531 H 1825 V 4091 L 703,3866 v 575 l 1116,225 h 631 V 531 H 3481 V 0 H 794 Z"
                   transform="scale(0.015625)" /></defs><use
                 xlink:href="#DejaVuSans-31"
                 id="use28" /><use
                 xlink:href="#DejaVuSans-30"
                 x="63.623047"
                 id="use29" /></g></g></g></g><g
         id="line2d_21"><path
           d="m 56.835852,268.43104 0.911719,-0.21682 0.911719,-0.6986 0.911719,-1.40484 0.911713,-0.46234 0.911719,0.16545 0.911719,0.047 0.911719,-0.0694 0.911719,-0.19299 0.911719,-0.33761 0.911713,-0.53199 0.911719,-0.86845 0.911719,-3.07557 0.911719,-1.74245 1.823438,-2.08632 2.73515,-2.51695 3.646876,-3.00059 4.558589,-3.44928 4.558589,-3.1496 3.646869,-2.2726 3.646876,-2.0169 3.64687,-1.74245 3.646866,-1.48676 0.91172,-0.33808 v 0 l 2.93027,0.47692 2.93027,0.16083 4.3954,-0.10946 7.32567,-0.4989 5.86053,-0.59378 2.93027,-0.47391 2.93027,-0.69467 2.93026,-0.97397 2.93027,-1.23684 4.3954,-1.93822 1.46514,-0.479 1.46513,-0.32535 2.93027,-0.27444 4.3954,-0.24622 2.93027,-0.4628 2.93026,-0.79324 4.3954,-1.49694 1.46514,-0.18165 2.93027,0.23071 4.3954,0.3987 3.84198,0.1356 4.55859,-0.18581 8.20546,-0.52991 2.73516,0.26472 3.64687,0.37395 1.82344,-0.002 1.82343,-0.17702 1.82344,-0.36631 1.82344,-0.56022 1.82343,-0.75021 1.82344,-0.93046 2.73515,-1.69687 2.73515,-1.98011 3.64687,-2.65255 1.82344,-0.92445 1.82344,-0.68287 0.91172,-0.27953 v 0 l 2.15413,0.44892 1.07706,0.3154 1.07707,0.43434 2.15414,1.26854 4.30826,2.69815 2.15413,1.10517 2.15414,0.8784 2.15413,0.63983 2.15414,0.41606 3.2312,0.30429 8.61653,0.48062 2.15413,0.4311 4.30827,1.22296 4.30826,1.18871 3.23121,0.71596 3.23119,0.49636 3.2312,0.23487 2.9005,-0.0303 2.73516,-0.24066 2.73515,-0.43874 2.73516,-0.62293 3.64687,-1.08296 3.64687,-1.3176 6.38202,-2.6116 4.5586,-1.98404 2.73515,-1.28937 2.73516,-0.44476 2.73515,-0.66111 2.73515,-0.92283 2.73515,-1.18061 2.73516,-1.35255 v 0 l 2.6965,1.08019 13.48248,6.21313 2.6965,1.06052 1.34825,0.64607 2.6965,1.7767 2.6965,2.20804 2.6965,2.72059 2.69649,3.34931 2.6965,4.00996 2.69649,4.63891 2.6965,5.32594 1.34825,3.08135 1.34825,3.80031 1.34825,9.83897 1.34825,3.78133 1.34825,1.91786 1.34825,1.15747 1.34825,0.66783 1.34824,0.30175 1.34825,0.008 1.34825,-0.23695 1.34825,-0.44406 1.34825,-0.61854 2.69649,-1.6374 2.6965,-1.88083 1.34825,-0.7155 1.34825,0.0579 1.34825,0.49335 1.34825,0.20294 v 0"
           clip-path="url(#p771fe4705c)"
           style="fill:none;stroke:#008000;stroke-width:1.5;stroke-linecap:square"
           id="path44" /></g><g
         id="line2d_22"><path
           d="m 56.835852,263.3166 0.911719,0.86521 0.911719,0.70508 0.911719,0.4635 1.823432,-8.74513 0.911719,-1.6661 3.64687,-2.79186 4.558595,-3.14521 4.558588,-2.85989 4.558589,-2.60582 4.558589,-2.37117 5.470307,-2.57921 7.293746,-3.14035 4.558586,1.5372 v 0 l 2.93027,-0.85086 2.93027,-0.92515 2.93027,-0.23603 4.3954,-0.32488 4.3954,-0.61252 4.3954,-0.83768 4.3954,-1.0538 5.86053,-1.68646 11.72107,-3.49278 2.93027,-0.72313 2.93027,-0.56045 2.93027,-0.35914 1.46513,-0.0509 2.93027,0.22446 2.93026,0.25131 1.46514,-0.26658 2.93027,-1.2815 4.3954,-2.07267 1.46513,-0.53176 1.46513,-0.3596 v 0 l 1.82344,0.11432 1.82344,0.3626 2.73515,0.89715 5.47031,1.972 1.82343,0.37557 1.82344,0.0745 1.82343,-0.17124 2.73516,-0.48733 4.55859,-1.06237 4.55859,-1.30047 3.64687,-1.26901 3.64687,-1.47403 2.73516,-1.29307 1.82343,-1.15308 0.91172,-0.64052 0.91172,-0.0761 1.82344,0.42509 v 0 l 2.15413,-0.55236 1.07706,0.22585 2.15414,0.99248 3.2312,0.9027 11.84773,2.9624 3.2312,0.93186 6.4624,2.01574 2.15414,0.42856 2.15413,0.18975 3.2312,0.0435 6.4624,-0.18327 8.61653,-0.25315 v 0 l 4.55859,0.1268 7.29374,0.24668 3.64688,-0.13607 2.73515,-0.31054 2.73515,-0.54333 2.73515,-0.82749 2.73516,-1.10587 2.73515,-1.26762 1.82344,-0.31054 7.29375,-3.8621 2.73515,-1.19125 0.91171,-0.25686 0.91172,0.0588 1.82344,0.77496 v 0 l 1.34825,-0.39847 1.34825,-0.28092 1.34825,-0.12241 1.34825,0.25824 2.6965,1.56358 8.08948,5.16628 2.6965,1.61078 1.34825,0.68125 2.6965,0.9749 4.04475,1.381 2.69649,1.14683 2.6965,1.42659 2.6965,1.70289 2.69649,1.9447 2.6965,2.15273 4.04475,3.56867 4.04475,3.93036 4.04474,4.26937 2.6965,3.07255 2.69649,3.4502 1.34825,2.04327 1.34825,2.504 1.34825,5.74224 1.34825,1.33727 1.34825,-0.57249 1.34825,-0.86313 v 0"
           clip-path="url(#p771fe4705c)"
           style="fill:none;stroke:#008000;stroke-width:1.5;stroke-linecap:square"
           id="path45" /></g><g
         id="line2d_23"><path
           d="m 56.835852,260.72004 1.823438,-2.42601 1.823432,-1.79938 0.911719,-0.79718 0.911719,-1.54044 1.823438,-4.09096 2.735151,-5.46964 2.735157,-5.05219 1.823431,-3.0869 1.823438,-2.63937 0.911719,-1.0177 0.911719,-0.73563 0.911719,-0.45147 0.911719,-0.22931 1.823432,-0.0775 2.735157,0.29226 3.64687,0.67985 4.558588,1.08065 5.470308,1.52656 1.823438,0.55953 4.558586,-1.86487 v 0 l 2.93027,0.56231 1.46513,0.0963 1.46514,-0.19507 1.46513,-0.61484 1.46514,-0.87886 2.93026,-2.12149 2.93027,-2.18837 1.46513,-0.89598 2.93027,-1.43608 2.93027,-1.18709 2.93027,-0.99596 4.3954,-1.18709 4.3954,-0.88511 2.93027,-0.36261 1.46513,0.028 1.46513,0.15134 1.46514,0.0183 1.46513,-0.21659 1.46513,-0.38505 1.46514,-0.16337 1.46513,0.1039 1.46514,0.22862 5.86053,1.37661 1.46513,0.0655 1.46514,-0.10992 2.93026,-0.56092 4.39541,-1.04593 1.46513,-0.24621 1.46513,-0.13144 1.46514,-0.006 17.51775,1.21162 3.64687,0.0164 2.73516,-0.19438 2.73515,-0.41397 2.73516,-0.64376 2.73515,-0.86568 2.73515,-1.07764 4.55859,-1.97802 1.82344,-0.47622 1.82343,-0.16962 1.82344,0.0754 0.91172,-0.46859 1.82344,-1.24703 v 0 l 2.15413,1.25536 1.07706,0.22492 2.15414,-0.21057 1.07707,0.0264 1.07706,0.19993 2.15414,0.96494 3.23119,1.52702 2.15414,0.83351 3.2312,0.98994 3.2312,0.7745 2.15413,0.28069 7.53947,0.66065 11.84773,1.46917 4.30827,0.28208 5.38533,0.0995 v 0 l 3.64687,-0.1437 5.47031,-0.46835 6.38203,-0.81454 10.02889,-1.33357 3.64687,-0.37764 4.5586,-2.2888 2.73515,-1.57654 2.73515,-1.6691 0.91172,-0.4554 0.91172,-0.27259 1.82343,-0.18489 1.82344,-0.55953 v 0 l 5.393,1.09916 2.6965,0.0708 1.34824,-0.005 1.34825,0.24459 8.08949,2.6359 6.74125,2.11547 4.04474,1.11929 1.34825,0.50469 1.34825,0.74743 1.34825,1.03621 2.69649,2.55491 5.393,5.62237 4.04475,4.5195 4.04474,4.86939 4.04475,5.24495 5.39299,7.20794 2.6965,3.25998 4.04475,4.47346 v 0"
           clip-path="url(#p771fe4705c)"
           style="fill:none;stroke:#008000;stroke-width:1.5;stroke-linecap:square"
           id="path46" /></g><g
         id="line2d_24"><path
           d="m 56.835852,228.20717 5.470308,0.11709 10.028896,0.41722 1.823438,-0.24158 3.64687,-0.8872 1.823438,-0.0766 2.735157,0.23117 2.735151,0.46859 3.646869,0.87377 3.646876,1.09592 4.558589,1.60315 4.558586,1.77161 v 0 l 2.93027,-0.86706 2.93027,-1.10171 4.3954,-1.9875 2.93027,-1.54993 1.46513,-0.94505 1.46513,-1.15145 2.93027,-2.69792 4.3954,-4.23095 1.46514,-1.22781 1.46513,-0.64214 1.46513,-0.0743 1.46514,0.14161 1.46513,0.36493 1.46513,0.58938 4.39541,2.04073 1.46513,0.31632 2.93027,-0.0356 2.93026,-0.12079 1.46514,-0.34572 1.46513,-0.22284 4.3954,0.70462 2.93027,0.13306 4.3954,-0.10159 4.3954,-0.35127 5.86054,-0.76085 2.93026,-0.32164 v 0 l 4.5586,0.10135 5.4703,0.35057 7.29374,0.56208 2.73516,-0.0153 2.73515,-0.22446 2.73516,-0.45309 2.73515,-0.67129 3.64687,-1.16257 3.64687,-1.4053 1.82344,-0.92561 2.73515,-1.5733 0.91172,-0.33275 0.91172,-0.10946 0.91172,0.1046 0.91172,0.30915 0.91172,0.47622 1.07706,-0.43318 1.07707,-0.23857 1.07706,-0.0127 1.07707,0.22885 2.15414,0.97513 1.07706,0.50492 6.4624,2.14324 3.2312,0.98878 3.2312,0.73424 3.2312,0.43619 3.2312,0.11594 3.2312,-7e-4 2.15414,0.18582 3.23119,0.5991 10.77067,2.43226 3.2312,0.39917 3.2312,0.11848 v 0 l 2.73515,-0.0785 2.73516,-0.29018 2.73515,-0.51973 3.64687,-0.93532 10.94062,-3.02026 10.94062,-2.45679 3.64687,-1.17621 4.55858,-1.61264 0.91172,-0.14509 0.91172,0.0669 0.91172,0.22423 v 0 l 1.34825,-0.1997 1.34825,0.097 1.34825,0.29365 4.04475,0.4783 1.34824,0.3323 1.34825,0.1349 2.6965,0.0384 2.69649,0.3154 5.393,1.00451 2.6965,0.25524 4.04475,0.009 1.34824,0.59863 1.34825,1.09268 1.34825,0.92815 1.34825,0.62641 2.69649,0.75205 5.393,1.31668 5.393,1.5895 6.74124,2.22747 5.39299,1.82576 2.6965,0.67778 2.6965,0.36677 1.34825,0.047 v 0"
           clip-path="url(#p771fe4705c)"
           style="fill:none;stroke:#008000;stroke-width:1.5;stroke-linecap:square"
           id="path47" /></g><g
         id="line2d_25"><path
           d="m 56.835852,225.03859 13.675773,-0.0757 1.823431,-0.1842 0.911719,-0.18789 0.911719,-0.30522 0.911719,-0.4797 0.911719,-0.70392 0.911719,-0.93602 1.823432,-2.38182 3.646876,-5.31021 0.911712,-1.12253 0.91172,-0.81777 0.911719,-0.36261 0.911719,0.068 0.911719,0.33322 1.823431,1.09777 2.735157,1.56937 1.823438,0.84901 1.823432,0.68009 1.823438,0.50561 1.823438,0.32975 1.823428,0.15388 9.70253,0.0215 5.86053,-0.18674 7.32567,-0.49658 2.93027,-0.2962 2.93026,-1.19565 1.46514,-0.19415 4.3954,0.47576 2.93027,0.39663 2.93026,0.63242 5.86054,1.71029 1.46513,-0.0433 2.93027,-1.24865 1.46513,-0.31609 2.93027,-0.1363 5.86053,-0.002 4.39541,0.20317 1.46513,0.14046 2.93027,0.61414 2.93026,0.66389 v 0 l 11.85234,-0.0599 3.64687,-0.3235 4.55859,-0.62409 5.47031,-0.97166 8.20546,-1.72903 5.47031,-1.30534 0.91171,-0.31054 1.82344,-1.00058 0.91172,-0.52366 1.82344,-0.53199 v 0 l 2.15413,0.57387 2.15413,1.06538 2.15414,0.69466 2.15413,0.31564 5.38533,0.48432 4.30827,0.75344 14.00187,2.94505 4.30826,1.08412 9.6936,2.64469 3.2312,0.58753 2.15413,0.2078 2.9005,-0.0243 2.73516,-0.25801 3.64687,-0.61391 3.64687,-0.86081 3.64688,-1.06607 4.55858,-1.56127 6.38203,-2.46234 10.0289,-3.91255 1.82344,-0.45169 0.91171,0.13884 0.91172,0.29804 0.91172,0.13838 0.91171,-0.15735 0.91172,0.0896 0.91172,-0.11778 0.91172,-0.25709 v 0 l 5.393,0.98994 1.34825,0.15967 4.04474,0.0261 4.04475,0.54449 2.69649,0.006 5.393,-0.29735 1.34825,0.0328 1.34825,0.23372 1.34825,0.66435 1.34825,1.01632 1.34824,0.5114 1.34825,-0.16407 5.39299,-1.35485 1.34825,0.12866 1.34825,0.37116 2.6965,1.17344 2.6965,1.50897 8.08949,4.83237 2.6965,1.25119 2.69649,0.92306 2.6965,0.61576 2.6965,0.35242 2.6965,0.11501 v 0"
           clip-path="url(#p771fe4705c)"
           style="fill:none;stroke:#008000;stroke-width:1.5;stroke-linecap:square"
           id="path48" /></g><g
         id="line2d_26"><path
           d="m 56.835852,194.46579 3.64687,-0.10297 2.735157,-0.0831 0.911719,0.32466 1.823432,0.98832 2.735157,1.78549 2.73515,2.05184 4.558595,3.76884 9.117178,7.89936 2.735157,1.93452 4.558588,2.45402 2.735151,1.12577 1.823438,0.54865 1.823438,0.3758 1.823428,0.199 2.37686,-0.0139 2.93026,-0.34271 2.93027,-0.28717 5.86054,-0.42601 4.3954,-0.55467 4.3954,-0.87123 4.3954,-1.16973 1.46513,-0.53454 2.93027,-1.31598 1.46513,-0.52899 1.46514,-0.40657 1.46513,-0.22052 1.46514,0.16776 1.46513,0.65996 4.3954,2.62687 1.46513,0.72198 1.46514,0.55837 1.46513,0.37718 1.46514,0.19831 1.46513,-0.008 5.86053,-1.06491 2.93027,0.0426 2.93027,0.35335 5.86053,1.00498 2.93027,-0.0972 2.37685,-0.17401 3.64688,-0.22192 13.67576,-1.28752 7.29375,-0.91056 16.41092,-2.26473 1.82344,-0.6197 1.98878,-0.001 2.15413,0.67916 2.15414,0.3198 21.54133,2.14741 2.15413,-0.0771 2.15414,-0.4237 2.15413,-0.818 2.15413,-1.12369 8.61654,-5.05428 2.15413,-0.93162 2.15413,-0.66597 2.15413,-0.36122 2.15414,-0.0974 v 0 l 1.82343,0.0729 1.82344,0.22585 2.73515,0.62085 2.73516,0.89575 3.64687,1.45552 5.47031,2.18952 2.73515,0.82055 1.82344,0.36307 1.82343,0.19068 1.82344,0.0176 2.73515,-0.2557 2.73516,-0.49867 3.64687,-0.79302 0.91172,0.0384 2.73515,0.82633 2.73515,0.79394 0.91172,-0.36492 0.91172,-0.16406 0.91172,0.24528 v 0 l 1.34825,-0.24737 4.04475,-0.2756 2.6965,0.52991 1.34824,0.29944 1.34825,0.17008 9.43774,0.12495 9.43774,0.64515 4.04475,-0.0734 1.34825,-0.09 1.34824,-0.26796 1.34825,-0.54495 2.6965,-1.59181 2.6965,-1.92133 4.04475,-3.18872 6.74124,-5.39027 2.69649,-1.90004 2.6965,-1.55965 1.34825,-0.60303 1.34825,-0.46697 1.34825,-0.32743 1.34825,-0.19137 1.34825,-0.0623 v 0"
           clip-path="url(#p771fe4705c)"
           style="fill:none;stroke:#008000;stroke-width:1.5;stroke-linecap:square"
           id="path49" /></g><g
         id="line2d_27"><path
           d="m 56.835852,194.26123 3.64687,-0.11015 1.823438,-0.12264 0.911719,0.0891 1.823438,0.63196 1.823432,0.98577 2.735157,1.78897 1.823431,1.48999 10.028903,8.81178 3.64687,2.83282 2.735157,1.81072 2.73515,1.55641 2.735157,1.32107 2.735151,1.06075 1.823438,0.4908 1.823438,0.28902 1.823429,0.084 v 0 l 4.3954,-0.0949 1.46514,-0.17216 2.93027,-0.84577 2.93026,-1.17645 2.93027,-1.43353 7.32567,-3.95373 1.46513,-0.41213 1.46514,0.13977 2.93026,0.95823 1.46514,0.0766 2.93026,-0.6116 1.46514,-0.0819 1.46513,0.24482 2.93027,0.71087 2.93027,0.4945 2.93026,0.17934 2.93027,-0.20803 1.46514,-0.28416 1.46513,-0.43666 4.3954,-1.87968 1.46513,-0.16105 1.46514,0.27004 1.46513,0.45864 2.93027,1.29076 2.93027,1.47843 1.46513,0.62455 1.46513,0.48479 1.46514,0.32882 1.46513,0.17957 3.28857,0.0125 3.64687,-0.27652 4.55859,-0.6153 7.29374,-0.99595 4.5586,-0.34086 4.55859,-0.0588 10.94061,0.14115 2.73515,-0.28069 4.5586,-0.73979 v 0 l 1.07706,0.19785 1.07707,-0.0303 2.15413,0.26265 4.30827,0.71364 2.15413,0.17494 2.15413,-0.0146 3.2312,-0.32142 4.30827,-0.74673 5.38533,-1.20838 16.156,-3.89843 4.30827,-0.57919 5.38533,-0.40334 2.9005,0.009 4.55859,0.24528 6.38203,0.59702 6.38203,0.8025 5.4703,0.88997 4.55859,0.95546 4.5586,1.1827 1.82343,0.4783 0.91172,0.0197 1.82344,0.89136 0.91171,0.10182 1.82344,-0.16638 2.73515,0.14671 0.91172,-0.46697 v 0 l 1.34825,0.42439 1.34825,0.0551 1.34825,-0.22145 4.04475,-1.30071 2.69649,-0.18975 8.08949,-0.28138 4.04475,-0.48039 1.34825,0.731 1.34825,1.21555 1.34825,0.86753 1.34825,0.37602 1.34824,0.10575 2.6965,-0.1032 1.34825,-0.17725 1.34825,-0.29134 1.34824,-0.42416 2.6965,-1.23221 2.6965,-1.64064 2.6965,-1.91624 10.78599,-8.14719 1.34824,-0.82703 1.34825,-0.66736 2.6965,-0.98092 2.6965,-0.56693 2.6965,-0.18466 v 0"
           clip-path="url(#p771fe4705c)"
           style="fill:none;stroke:#008000;stroke-width:1.5;stroke-linecap:square"
           id="path50" /></g><g
         id="line2d_28"><path
           d="m 56.835852,192.66664 1.823438,0.12588 1.823432,0.37164 2.735157,0.80574 0.911719,-0.006 0.911719,0.21405 1.823432,1.12299 2.735157,2.14486 7.293745,5.73067 3.64687,3.0066 4.558589,3.82021 2.735157,2.05138 2.73515,1.79243 2.735157,1.47056 1.823432,0.74627 1.823438,0.56439 1.823438,0.39616 1.823428,0.21335 2.37686,-0.0194 2.93026,-0.40773 2.93027,-0.7958 2.93027,-1.15029 2.93027,-1.45968 2.93026,-1.70844 5.86054,-3.68068 1.46513,-0.71781 4.3954,-1.62351 1.46514,-0.28972 1.46513,0.12565 1.46513,0.67616 2.93027,1.6175 1.46514,0.43318 1.46513,0.0518 2.93027,-0.46605 4.3954,-0.78931 2.93027,-0.22631 2.93026,0.13074 4.3954,0.42763 1.46514,0.14463 1.46513,0.42485 4.3954,1.60732 2.93027,0.81546 2.93027,0.61715 2.93026,0.3073 v 0 l 2.73516,-0.13514 2.73515,-0.36168 11.85233,-1.89402 3.64688,-0.25455 4.55859,-0.0609 4.55859,0.18073 5.4703,0.46674 9.11719,1.0619 v 0 l 1.07706,-0.19901 2.15413,-0.13328 5.38534,-0.62872 7.53946,-0.90062 5.38534,-0.8784 5.38533,-1.14613 7.53947,-1.90259 7.53946,-1.86509 4.30827,-0.88488 3.2312,-0.45702 3.2312,-0.168 v 0 l 5.47031,0.11084 4.55859,0.29087 4.55859,0.51117 4.55859,0.76062 3.64687,0.8187 3.64687,1.06398 2.73515,1.01886 2.73516,1.26369 2.73516,1.51244 1.82343,1.08666 1.82344,-0.31632 1.82343,-0.30731 0.91172,-0.0474 0.91171,0.0858 0.91172,0.25384 1.82344,0.89067 v 0 l 2.6965,-0.95014 1.34825,-0.20108 2.6965,-0.004 1.34825,-0.13213 6.74124,-1.42775 2.69649,-0.66782 1.34825,-0.23997 1.34825,-0.0361 1.34825,0.34247 1.34825,0.8069 1.34825,0.19576 2.6965,-0.63705 8.08949,-2.17864 4.04474,-0.72707 2.6965,-0.73308 2.6965,-1.01446 2.6965,-1.23245 5.39299,-2.78376 9.43774,-4.88767 1.34825,-0.48941 1.34825,-0.33299 1.34825,-0.12172 v 0"
           clip-path="url(#p771fe4705c)"
           style="fill:none;stroke:#008000;stroke-width:1.5;stroke-linecap:square"
           id="path51" /></g><g
         id="line2d_29"><path
           d="m 56.835852,192.39151 1.823438,0.11269 1.823432,0.33252 3.646876,0.94204 0.911719,-0.0317 0.911713,0.32859 1.823438,1.21092 2.735157,2.10761 3.646869,3.10911 5.470308,4.8009 1.823438,1.25905 0.911719,0.50631 0.911712,0.33114 0.91172,0.0132 0.911719,-0.45008 0.911719,-0.88372 1.823438,-2.43296 8.205458,-11.99517 1.823438,-2.30291 1.823438,-1.97386 1.823429,-1.48421 v 0 l 1.46514,0.68032 1.46513,0.83837 2.93027,2.06711 2.93027,2.45795 4.3954,4.14764 5.86053,5.76306 1.46514,1.30765 1.46513,1.08852 1.46513,0.60373 1.46514,-0.0965 1.46513,-0.43966 1.46513,-0.29134 1.46514,0.11131 1.46513,0.25755 1.46513,-0.11431 1.46514,-0.52112 1.46513,-0.86776 2.93027,-2.28069 1.46513,-1.17252 1.46514,-1.00706 1.46513,-0.49728 1.46513,0.25639 4.39541,1.4023 5.86053,1.61125 1.46513,0.12079 1.46514,-0.37001 1.46513,-0.6713 1.46513,-0.42902 2.93027,-0.35867 4.3954,-0.26819 4.3954,-0.005 v 0 l 3.64688,0.0909 4.55859,0.36283 4.55858,0.62016 4.55859,0.85619 4.5586,1.07625 4.55859,1.28543 5.4703,1.79082 10.0289,3.45066 1.82344,0.25061 0.91172,-0.0912 v 0 l 1.07706,0.12125 2.15413,-0.17702 2.15414,-0.45794 3.2312,-1.02164 7.53946,-2.49983 4.30827,-1.19589 4.30827,-0.95569 4.30826,-0.72683 5.38534,-0.67592 8.61653,-0.83467 5.38533,-0.35983 4.30827,-0.10436 v 0 l 6.38202,0.12704 5.47031,0.3508 5.47031,0.61206 5.47031,0.88118 5.47031,1.15006 5.47031,1.41641 2.73515,0.80783 3.64687,2.13098 0.91172,0.33831 0.91171,0.17632 0.91172,0.0113 1.82344,-0.283 v 0 l 2.6965,0.55791 1.34825,0.0743 2.6965,-0.60165 4.04474,-1.29076 8.08949,-2.90663 2.6965,-0.68541 2.6965,-0.42509 2.6965,-0.14879 2.69649,0.18373 2.6965,0.24876 1.34825,0.0199 1.34825,-0.11547 1.34824,-0.2638 2.6965,-0.85341 4.04475,-1.62698 6.74124,-2.76109 4.04475,-1.45204 5.39299,-1.64666 5.393,-1.52378 1.34825,-0.12958 v 0"
           clip-path="url(#p771fe4705c)"
           style="fill:none;stroke:#008000;stroke-width:1.5;stroke-linecap:square"
           id="path52" /></g><g
         id="line2d_30"><path
           d="m 56.835852,190.97116 1.823438,0.16661 1.823432,0.47252 1.823438,0.73262 2.735157,1.2734 0.911713,0.0273 3.646876,-0.64098 4.558588,-1.09592 4.558589,-1.33889 5.470308,-1.83363 10.940615,-3.79753 1.823438,-0.22608 1.823438,0.0886 0.911719,0.2166 0.911709,0.35983 0.91172,0.51533 v 0 l 1.46514,-0.50284 1.46513,-0.31285 1.46513,-0.11756 1.46514,0.0808 1.46513,0.30407 1.46514,0.5785 2.93026,1.63856 2.93027,1.95789 2.93027,2.18836 7.32567,5.83179 1.46513,0.94921 1.46513,0.61206 1.46514,0.10158 1.46513,-0.34386 2.93027,-1.2623 2.93027,-1.33102 1.46513,-0.28856 1.46513,0.21451 1.46514,0.40958 1.46513,0.2402 1.46513,-0.0861 1.46514,0.10112 1.46513,0.3832 2.93027,1.23638 1.46513,0.62131 1.46514,0.42463 1.46513,0.18234 1.46513,0.0123 1.46514,-0.12449 1.46513,-0.39454 1.46513,-1.00544 1.46514,-1.42729 2.93027,-3.27433 4.3954,-5.10218 1.46513,-1.37059 2.37685,-0.19415 1.82344,-0.19275 1.82344,-0.36932 2.73515,-0.80065 3.64687,-1.10842 1.82343,-0.25593 0.91172,0.022 0.91172,0.14161 0.91172,0.26704 0.91172,0.39223 1.82343,1.13873 1.82344,1.49462 2.73515,2.56578 6.38203,6.43852 4.55859,4.49221 3.64687,3.32848 2.73515,2.27005 1.82344,1.26831 0.91172,0.45679 1.82344,0.53662 v 0 l 3.23119,-0.97397 2.15414,-1.30025 4.30827,-3.02974 7.53946,-5.68323 5.38534,-4.0051 3.23119,-2.13306 2.15413,-1.14521 1.07707,-0.42994 1.07707,-0.28995 1.07707,-0.11477 1.07707,0.0692 2.15413,0.54055 7.53946,2.48988 3.23121,0.73008 3.23119,0.47206 3.2312,0.21428 2.9005,-0.0375 2.73516,-0.27028 2.73515,-0.50006 2.73516,-0.72591 2.73515,-0.94597 2.73516,-1.14983 1.82343,-0.84601 0.91172,0.0699 2.73515,2.18142 4.55859,3.99492 6.38203,5.60224 3.64687,2.90293 0.91172,0.66875 1.82344,0.67847 4.55858,1.38957 1.82344,0.4075 v 0 l 2.6965,-0.17864 2.6965,-0.16893 1.34825,-0.23163 1.34825,-0.41051 1.34824,-0.60234 2.6965,-1.57931 5.39299,-3.49556 1.34825,-0.62524 1.34825,-0.0632 1.34825,0.34225 1.34825,0.1717 1.34825,-0.10969 1.34825,-0.30545 2.6965,-0.94967 5.39299,-2.3721 5.39299,-2.32651 4.04475,-1.5261 4.04475,-1.25605 2.69649,-0.65741 2.6965,-0.49335 2.6965,-0.31216 2.69649,-0.11755 2.6965,0.0796 5.393,0.42092 v 0"
           clip-path="url(#p771fe4705c)"
           style="fill:none;stroke:#008000;stroke-width:1.5;stroke-linecap:square"
           id="path53" /></g><g
         id="line2d_31"><path
           d="m 56.835852,190.83718 1.823438,0.12588 1.823432,0.38853 1.823438,0.64214 2.735157,1.21023 0.911713,0.0833 1.823438,-0.22562 3.646869,-0.76431 4.558595,-1.23708 5.470308,-1.76143 10.940615,-3.69965 2.735151,-0.85526 6.382024,-2.28602 v 0 l 2.93027,0.78746 2.93027,1.0707 5.86053,2.35382 2.93027,1.59435 2.93027,1.90282 7.32567,5.15609 1.46513,0.82565 1.46513,0.59747 1.46514,0.26889 1.46513,-0.11176 1.46513,-0.42601 2.93027,-1.06029 4.3954,-0.94388 2.93027,-1.11883 1.46513,-0.79649 1.46514,-1.02395 2.93027,-2.4193 4.3954,-3.72511 2.93026,-2.24228 1.46514,-0.98045 1.46513,-0.82981 1.46513,-0.5873 1.46514,-0.19299 1.46513,0.30152 1.46514,0.68842 4.3954,2.71573 1.46513,0.55328 1.46513,-0.69744 v 0 l 2.73516,-0.11894 2.73515,-0.34294 6.38203,-0.98947 0.91171,0.0706 0.91172,0.1997 1.82344,0.78099 1.82343,1.13433 2.73516,1.99375 2.73515,2.29458 3.64688,3.42753 5.4703,5.55711 5.47031,5.57794 2.73515,2.45656 1.82344,1.32755 0.91172,0.54773 0.91172,0.41398 0.91172,-0.0595 v 0 l 1.07706,0.0717 2.15413,-1.14289 3.23121,-2.13491 4.30826,-3.16327 14.00187,-10.49453 5.38533,-3.74408 1.07707,-0.64792 1.07707,-0.44661 1.07706,0.12797 2.15413,1.05195 3.2312,1.64064 2.15413,0.92584 2.15414,0.75784 2.15414,0.58498 2.15413,0.41791 3.23119,0.34363 3.06585,0.0442 2.73516,-0.27236 2.73515,-0.58984 2.73516,-0.88442 2.73515,-1.12947 2.73516,-1.1702 0.91172,-0.13329 0.91171,0.30175 0.91172,0.55768 0.91172,0.16614 0.91172,-0.34409 0.91171,0.60211 9.11718,8.17612 2.73516,2.10575 2.73516,1.77948 2.73515,1.44603 5.4703,2.41977 0.91172,0.0907 2.25997,-0.10089 1.34825,-0.31263 1.34825,-0.50654 2.6965,-1.35046 5.39299,-2.86753 2.6965,-1.15677 2.69649,-0.86822 8.0895,-1.74824 4.04474,-1.13526 10.78599,-3.41132 4.04475,-0.99665 4.04475,-0.73817 4.04474,-0.44268 2.6965,-0.11176 2.69649,0.05 2.6965,0.22122 5.393,0.60905 v 0"
           clip-path="url(#p771fe4705c)"
           style="fill:none;stroke:#008000;stroke-width:1.5;stroke-linecap:square"
           id="path54" /></g><g
         id="line2d_32"><path
           d="m 56.835852,174.25308 5.470308,0.12542 5.470308,0.3758 5.470307,0.62686 5.470308,0.87864 5.470308,1.12808 5.470307,1.36944 5.470308,1.59273 6.382024,2.10784 v 0 l 2.93027,-0.48039 2.93027,-0.17494 2.93027,0.11732 2.93026,0.38691 2.93027,0.63172 2.93027,0.85017 2.93027,1.04085 4.3954,1.84751 7.32566,3.3028 1.46514,0.47761 1.46513,0.23395 1.46514,-0.14393 1.46513,-0.53825 1.46513,-0.80805 2.93027,-1.96321 5.86054,-4.0854 2.93026,-1.85723 2.93027,-1.59366 1.46513,-0.65441 1.46514,-0.52806 1.46513,-0.3707 1.46513,-0.18536 1.46514,0.0224 1.46513,0.32743 1.46514,0.65094 4.3954,2.56138 2.93026,1.67327 v 0 l 2.73516,-0.11293 2.73515,-0.32743 3.64688,-0.69698 3.64686,-0.79116 0.91172,-0.0956 0.91172,0.0359 0.91172,0.20433 0.91172,0.3714 1.82343,1.13295 1.82344,1.4687 2.73515,2.55468 3.64688,3.76421 12.76405,13.59531 2.73515,2.48086 0.91172,0.69837 0.91172,0.55676 0.91172,0.35173 v 0 l 1.07706,-0.29157 1.07707,-0.49497 2.15413,-1.45783 2.15414,-1.81257 4.30826,-4.06642 6.4624,-6.18005 3.2312,-2.84369 3.2312,-2.54195 2.15413,-1.46408 2.15413,-1.17783 1.07707,-0.37788 1.07707,-0.0854 2.15414,0.27213 1.07706,-0.18744 5.38533,-1.61403 3.2312,-0.75228 3.23121,-0.53593 3.23119,-0.33206 3.2312,-0.1481 2.9005,0.0659 1.82344,0.2277 1.82344,0.37973 2.73515,0.85272 2.73516,1.182 4.55859,2.24853 0.91171,0.0567 0.91172,0.23719 0.91172,0.59308 0.91172,0.74465 0.91171,0.0754 0.91172,0.2388 1.82344,1.06677 2.73515,2.01851 3.64687,2.98532 10.0289,8.49568 0.91172,0.59632 2.73515,0.91126 1.82344,0.37765 v 0 l 1.34825,-0.2749 1.34825,-0.53732 2.6965,-1.45135 8.08949,-4.86638 1.34825,-0.57503 1.34824,-0.31378 1.34825,0.0477 1.34825,0.22793 1.34825,-0.15875 1.34825,-0.49149 2.6965,-1.71886 18.87548,-13.09803 4.04475,-2.41329 4.04474,-2.09441 2.6965,-1.1739 2.69649,-0.96842 2.6965,-0.74442 2.6965,-0.50561 2.6965,-0.25616 1.34825,-0.0322 v 0"
           clip-path="url(#p771fe4705c)"
           style="fill:none;stroke:#008000;stroke-width:1.5;stroke-linecap:square"
           id="path55" /></g><g
         id="line2d_33"><path
           d="m 56.835852,169.19857 4.558589,0.12334 4.558589,0.36955 4.558595,0.60905 4.558588,0.82842 5.470308,1.24008 6.382027,1.69247 7.293739,1.93845 2.735157,0.49242 1.823438,0.0981 1.823428,-0.24297 0.91172,-0.30152 2.93027,0.63312 16.11647,2.94991 5.86054,1.39095 11.72107,2.98601 1.46513,0.21034 1.46513,0.0833 1.46514,-0.0815 1.46513,-0.26796 1.46513,-0.45007 2.93027,-1.32015 5.86054,-3.2822 2.93026,-1.53119 1.46514,-0.63242 1.46513,-0.44013 1.46513,-0.10945 1.46514,0.17725 1.46513,0.0606 1.46514,-0.23557 4.3954,-1.06329 2.93026,-0.37047 v 0 l 1.82344,0.0842 1.82344,0.25385 1.82343,0.42485 2.73516,0.93024 3.64687,1.40877 1.82343,0.367 0.91172,-0.01 0.91172,-0.14786 1.82343,-0.61021 1.82344,-0.86961 2.73516,-1.58903 3.64687,-2.45633 4.55859,-3.38171 10.02889,-7.58257 3.64688,-2.44522 0.91172,-0.54009 v 0 l 1.07706,0.71781 3.2312,2.99341 6.4624,6.36146 8.61654,8.50703 3.2312,2.927 3.23119,2.58568 2.15413,1.38008 1.07707,0.48155 1.07707,0.23209 2.15414,0.13306 1.07706,-0.20178 2.15413,-0.98763 3.2312,-1.63832 1.07707,-0.39269 2.15413,-0.40912 3.23121,-0.15527 8.45117,0.11015 2.73516,0.20872 2.73515,0.46165 2.73516,0.71781 2.73515,0.97281 2.73516,1.2144 4.55859,2.26565 0.91171,0.17679 0.91172,-0.18512 1.82344,-0.96078 2.73515,-1.86602 3.64687,-2.79649 6.38203,-5.26462 6.38202,-5.20214 2.73516,-2.08609 v 0 l 1.34825,0.95129 1.34825,1.39512 2.6965,3.42243 4.04474,5.69526 4.04475,5.63695 1.34825,1.62999 1.34824,1.30187 1.34825,0.79 1.34825,0.19461 1.34825,-0.28717 1.34825,-0.58614 2.6965,-1.59065 12.13423,-7.87807 4.04475,-2.26936 4.04475,-2.03425 4.04475,-1.80887 4.04474,-1.57862 4.04474,-1.29655 2.6965,-0.6588 2.6965,-0.45771 2.6965,-0.23395 1.34825,-0.0296 v 0"
           clip-path="url(#p771fe4705c)"
           style="fill:none;stroke:#008000;stroke-width:1.5;stroke-linecap:square"
           id="path56" /></g><g
         id="line2d_34"><path
           d="m 56.835852,156.00358 1.823438,-0.11709 1.823432,-0.34664 1.823438,-0.563 1.823438,-0.75714 2.735151,-1.43493 2.735157,-1.69987 4.558588,-2.98161 0.911719,-0.2918 0.911719,0.23487 0.911719,0.69004 1.823432,1.89102 3.646876,4.29481 14.587485,17.65503 1.823438,1.73227 1.823428,1.29493 0.91172,0.44151 v 0 l 2.93027,-0.88071 2.93027,-1.1709 4.3954,-2.14902 8.7908,-4.76757 8.7908,-4.69607 4.3954,-2.09372 2.93027,-1.08875 1.46514,-0.33669 1.46513,-0.0909 1.46513,0.25176 1.46514,0.61715 1.46513,0.8784 2.93027,2.10159 5.86053,4.61115 5.86054,4.59494 1.46513,0.87493 1.46513,0.48733 4.39541,0.5674 9.1491,0.34664 2.73516,0.40796 3.64687,0.87424 2.73515,0.61738 1.82343,0.2078 1.82344,-0.0238 1.82344,-0.30499 1.82343,-0.66597 2.73516,-1.41433 3.64687,-2.2513 6.38203,-4.31588 8.20546,-5.52518 4.55859,-2.92075 0.91172,-0.19831 v 0 l 1.07706,0.0842 2.15413,0.6905 2.15414,1.06584 2.15413,1.47588 2.15414,1.80933 3.23119,3.09222 11.84774,11.81699 2.15413,1.86255 2.15413,1.56497 1.07707,0.5313 1.07707,0.21937 1.07707,-0.0791 3.23119,-0.78445 4.30827,-1.10263 7.53947,-2.66876 2.15413,-0.43179 2.15413,-0.22029 1.98878,0.005 1.82344,0.25663 1.82344,0.50422 1.82343,0.73563 1.82344,0.94389 2.73516,1.74592 3.64687,2.74026 0.91172,0.67546 0.91171,0.53292 0.91172,0.12102 0.91172,-0.30591 1.82343,-1.0501 2.73516,-1.885 4.55859,-3.47079 6.38203,-5.20006 7.29374,-6.05463 0.91171,-0.59123 0.91172,0.37418 1.82344,1.29793 v 0 l 1.34825,-0.42138 1.34825,-0.0768 4.04475,0.30267 2.69649,0.13422 2.6965,-0.0926 2.6965,-0.40056 2.69649,-0.75946 2.6965,-1.13387 2.6965,-1.48699 2.6965,-1.78642 4.04474,-3.07533 1.34825,-1.08319 1.34825,-0.72267 4.04474,-0.43781 5.393,-0.3036 13.48249,-0.48247 4.04474,-0.45841 4.04475,-0.48687 2.6965,-0.1157 v 0"
           clip-path="url(#p771fe4705c)"
           style="fill:none;stroke:#008000;stroke-width:1.5;stroke-linecap:square"
           id="path57" /></g><g
         id="line2d_35"><path
           d="m 56.835852,155.54008 1.823438,-0.13398 1.823432,-0.39199 1.823438,-0.62363 1.823438,-0.82078 2.735151,-1.51962 3.646876,-2.3721 3.646869,-2.4156 2.735157,-1.69872 11.852328,-8.41816 2.735157,-1.53697 3.64687,-1.19496 2.735157,-0.66204 2.735147,-0.39408 0.91172,-0.062 1.46514,0.0817 1.46513,0.21081 1.46513,0.4112 2.93027,1.26739 2.93027,1.63369 4.3954,2.81362 7.32567,5.08297 19.04674,13.40371 2.93026,2.00834 2.93027,2.32165 10.25594,8.53548 1.46513,0.95014 1.46513,0.75553 1.46514,0.33877 2.93027,-0.5549 2.93026,-0.57851 2.93027,-0.29388 2.37685,0.009 1.82344,0.19414 1.82344,0.38135 1.82343,0.55305 2.73516,1.0825 2.73515,1.16326 1.82343,0.49982 0.91172,0.0278 0.91172,-0.15319 0.91172,-0.30521 1.82343,-0.94829 1.82344,-1.27016 2.73515,-2.277 3.64688,-3.41965 5.4703,-5.51037 5.47031,-5.62353 0.91172,-0.74349 0.91172,0.21636 2.73515,1.41896 1.82344,1.02441 0.91172,0.1599 v 0 l 1.07706,-0.0935 4.30827,-0.90385 6.4624,-1.1142 5.38533,-0.71897 3.2312,-0.17679 6.4624,0.0234 6.4624,0.25523 15.07893,0.81407 5.21998,0.028 1.82344,-0.16244 1.82344,-0.3198 2.73515,-0.75275 2.73516,-1.0346 3.64687,-1.69571 0.91172,-0.45655 0.91172,-0.0893 4.55858,2.65557 6.38203,3.38657 7.29375,3.90397 4.55859,2.73564 3.64686,2.23996 0.91172,-0.48455 1.82344,-1.46824 v 0 l 1.34825,0.47784 1.34825,0.0629 2.6965,-0.42439 4.04474,-1.06051 12.13424,-3.41827 5.393,-1.21046 4.04474,-0.69953 1.34825,-0.56046 4.04474,-3.14798 1.34825,-0.91474 1.34825,-0.77658 1.34825,-0.58568 1.34825,-0.35798 1.34825,-0.13189 1.34825,0.0546 2.6965,0.46164 10.78598,2.55213 2.6965,0.32767 2.6965,0.14046 2.6965,0.0176 v 0"
           clip-path="url(#p771fe4705c)"
           style="fill:none;stroke:#008000;stroke-width:1.5;stroke-linecap:square"
           id="path58" /></g><g
         id="line2d_36"><path
           d="m 56.835852,148.96758 1.823438,-0.0787 2.735151,-0.40171 2.735157,-0.70392 2.735151,-0.94921 3.646876,-1.53998 2.73515,-1.28567 0.911719,0.28948 0.911719,0.47831 0.911719,-0.0109 0.911719,-0.39107 1.823432,-1.16581 8.205465,-5.67258 1.823431,-0.86313 6.382027,-2.51394 2.735157,-0.65163 1.823438,-0.21659 3.288569,0.003 1.46513,0.15875 2.93027,0.68008 2.93027,1.04617 2.93026,1.31992 4.3954,2.30152 5.86054,3.40762 7.32567,4.5718 5.86053,3.61033 1.46514,0.74813 1.46513,0.57619 1.46513,0.3265 1.46514,0.0421 1.46513,-0.20525 2.93027,-0.87123 4.3954,-1.78874 17.5816,-7.61936 2.93027,-0.97281 1.46513,-0.29296 v 0 l 1.82344,0.13768 1.82344,0.3876 2.73515,0.9108 4.55859,1.88616 7.29374,3.014 15.49921,6.21245 4.55859,1.94099 0.91172,0.087 3.64687,2.13445 1.82344,1.11929 v 0 l 1.07706,-0.57318 2.15413,-1.38749 2.15414,-1.07069 1.07707,-0.34965 1.07706,-0.18674 2.15414,-0.007 5.38533,0.25941 3.2312,-0.0706 3.2312,-0.38714 4.30826,-0.80851 3.2312,-0.80621 3.23121,-1.01377 3.23119,-1.23383 4.30827,-1.92619 5.38534,-2.48317 2.15413,-0.82935 2.15413,-0.619 2.15413,-0.33298 1.98878,10e-4 1.82344,0.34456 1.82344,0.64422 1.82343,0.87193 2.73516,1.57399 5.47031,3.43238 0.91172,0.19045 2.73515,-1.30025 1.82343,-0.63427 0.91172,-0.16499 0.91172,-0.0236 0.91172,0.12865 1.82343,0.64631 1.82344,0.98091 2.73515,1.773 4.5586,3.30002 6.38202,4.95223 4.55859,3.68045 v 0 l 1.34825,-0.98624 2.6965,-2.7752 6.74124,-7.32687 4.04475,-3.99978 4.04474,-3.60709 2.6965,-2.09812 1.34825,-0.85781 1.34825,-0.55953 1.34825,-0.10436 1.34825,0.23441 4.04474,1.24193 4.04475,1.20653 2.69649,0.53153 1.34825,0.093 1.34825,-0.0794 1.34825,-0.27953 1.34825,-0.46604 5.393,-2.33924 1.34824,-0.21937 1.34825,0.13699 1.34825,0.48988 8.08949,4.64238 1.34825,0.56832 1.34825,0.42902 1.34825,0.2675 1.34825,0.0909 v 0"
           clip-path="url(#p771fe4705c)"
           style="fill:none;stroke:#008000;stroke-width:1.5;stroke-linecap:square"
           id="path59" /></g><g
         id="line2d_37"><path
           d="m 56.835852,148.81648 1.823438,-0.0812 1.823432,-0.24065 2.735157,-0.6396 2.735151,-0.92584 3.646876,-1.55918 3.646869,-1.7774 0.911719,-0.0275 11.852335,-5.72117 1.823438,-0.87701 1.823431,-1.04525 3.646876,-1.23892 3.64687,-1.06121 3.646866,-0.56231 0.91172,-0.0893 v 0 l 2.93027,0.14972 7.32567,0.0379 8.7908,0.26264 7.32567,0.43619 7.32567,0.69027 7.32567,0.94343 34.41468,5.05543 2.73515,0.85596 4.55859,1.77277 7.29374,2.80852 10.94062,4.0766 4.55859,1.99561 4.55859,2.28718 0.91172,-0.27977 5.47031,-5.54299 v 0 l 2.15413,1.66563 2.15413,1.28266 1.07707,0.42462 1.07707,0.22862 1.07706,0.006 1.07707,-0.18929 2.15413,-0.6905 14.00187,-5.35741 6.4624,-2.67894 10.77066,-4.61994 3.23121,-1.08064 2.15413,-0.54889 2.15413,-0.38065 2.15413,-0.14648 3.81222,0.11917 1.82344,0.34757 2.73515,0.81476 2.73516,1.11258 3.64687,1.80748 4.55859,2.34294 1.82343,0.67824 0.91172,0.18582 0.91172,0.0437 0.91172,-0.10899 1.82343,-0.6065 1.82344,-0.93857 2.73515,-1.69733 5.47032,-3.7413 8.20545,-5.59622 1.82344,-1.15817 v 0 l 5.393,2.37812 13.48248,6.07059 2.6965,0.99572 1.34825,0.34734 1.34825,0.0754 1.34825,-0.35288 2.6965,-1.44534 4.04474,-2.32929 2.6965,-1.30372 1.34824,-0.51116 1.34825,-0.2638 1.34825,0.55629 4.04475,2.45355 14.83073,9.4007 2.6965,1.38818 1.34825,0.54287 1.34825,0.41721 1.34825,0.26565 1.34825,0.0914 v 0"
           clip-path="url(#p771fe4705c)"
           style="fill:none;stroke:#008000;stroke-width:1.5;stroke-linecap:square"
           id="path60" /></g><g
         id="line2d_38"><path
           d="m 56.835852,133.26998 1.823438,0.15874 1.823432,0.46998 1.823438,0.76478 1.823438,1.03344 1.823432,1.2704 2.735157,2.26912 4.558588,4.30639 2.735157,-1.34097 7.293739,-3.59645 4.558596,-1.97779 1.823431,-0.72591 2.735157,-1.36226 1.823432,-0.70531 1.823438,-0.51256 1.823438,-0.30753 1.823438,-0.10992 6.218829,-0.0211 2.93027,-0.23117 4.3954,-0.62687 4.3954,-0.8592 5.86054,-1.39905 7.32567,-2.00648 11.72107,-3.26231 1.46513,-0.0264 4.3954,0.846 14.65134,3.1223 2.93027,0.36145 2.93026,0.13352 6.21884,-0.21034 1.82344,-0.48525 1.82343,-0.72545 2.73516,-1.38308 3.64687,-2.13885 3.64687,-2.12033 0.91172,0.15041 1.82343,1.50017 7.29375,6.59935 9.11718,8.52299 7.29374,7.12555 2.73516,2.74929 v 0 l 3.23119,-3.04271 4.30827,-4.4355 8.61653,-8.92957 3.23121,-3.03506 2.15413,-1.72325 1.07707,-0.69235 1.07706,-0.52529 1.07707,-0.31956 1.07706,-0.0981 1.07707,0.1083 1.07706,0.27537 2.15414,0.88511 3.2312,1.73713 7.53946,4.26427 3.23121,1.52309 2.15413,0.81639 2.15413,0.61506 2.15413,0.38043 3.06585,0.0534 1.82344,-0.1076 1.82344,-0.33438 2.73515,-0.77172 2.73516,-1.03367 3.64687,-1.65198 10.94061,-5.22528 2.73516,-0.98739 1.82343,-0.48479 1.82344,-0.29851 1.82344,-0.0731 1.82344,0.17633 1.82343,0.42323 1.82344,0.6426 2.73515,1.28359 2.73515,1.54877 0.91172,0.55698 v 0 l 4.04475,-1.59181 4.04475,-1.30441 2.69649,-0.64052 2.6965,-0.40472 2.69649,-0.13167 2.6965,0.15828 2.6965,0.43943 2.6965,0.69282 2.6965,0.91079 2.69649,1.09453 4.04475,1.92457 4.04474,2.03426 2.6965,-0.0743 1.34825,0.15689 1.34825,0.37302 2.6965,1.22596 2.6965,1.322 1.34824,0.41629 1.34825,0.1083 1.34825,-0.19045 2.6965,-0.85827 4.04474,-1.39072 2.6965,-0.6551 2.6965,-0.34155 1.34825,-0.0433 v 0"
           clip-path="url(#p771fe4705c)"
           style="fill:none;stroke:#008000;stroke-width:1.5;stroke-linecap:square"
           id="path61" /></g><g
         id="line2d_39"><path
           d="m 56.835852,122.94414 4.558589,0.10459 8.205465,0.45008 15.499204,0.91358 3.646869,-0.0134 2.735157,-0.20617 2.735151,-0.4716 1.823438,-0.50122 2.735157,-1.04848 2.735148,-1.36018 v 0 l 2.93027,0.79255 2.93027,0.41051 4.3954,0.21682 10.25594,0.0773 5.86053,0.1599 5.86053,0.41837 4.39541,0.51996 4.3954,0.63867 1.46513,-0.0662 4.3954,-0.79139 2.93027,-0.2277 2.93027,0.15457 2.93026,0.56162 2.93027,0.88557 10.25594,3.54577 1.46513,0.29087 2.37685,-0.0345 1.82344,-0.34247 1.82344,-0.64376 1.82343,-0.87863 2.73516,-1.6094 4.55858,-3.03923 0.91172,-0.62317 0.91172,-0.39431 0.91172,0.0699 1.82343,-1.02696 11.85234,-7.25931 8.20546,-4.70231 6.38203,-3.45437 v 0 l 3.23119,1.90629 15.07894,9.29171 2.15413,1.04153 1.07707,0.40334 1.07707,0.28022 1.07706,0.11362 1.07707,-0.0916 1.07706,-0.31401 1.07707,-0.52089 3.2312,-2.06271 1.07707,0.38898 4.30826,2.20179 8.61654,4.58013 2.15413,0.96078 2.15413,0.7671 2.15413,0.50006 2.15414,0.17448 v 0 l 1.82343,-0.18605 1.82344,-0.53523 1.82344,-0.82495 1.82343,-1.042 2.73516,-1.8216 12.76405,-8.98347 0.91171,-0.51557 0.91172,-0.22006 0.91172,0.34826 3.64687,1.76768 1.82344,0.67106 1.82344,0.46188 1.82344,0.2277 1.82343,-0.004 1.82344,-0.20942 2.73515,-0.60928 2.73515,-0.84947 0.91172,-0.31957 v 0 l 5.393,1.22875 4.04474,0.74742 4.04475,0.48942 2.69649,0.14138 4.04475,-0.0618 4.04475,-0.25963 1.34825,0.35034 4.04474,3.04941 6.74124,5.11074 2.6965,1.6698 1.34825,0.62478 1.34825,0.4355 1.34825,0.23533 1.34825,0.0579 2.6965,-0.24459 12.13423,-1.95326 2.6965,-0.20548 2.6965,0.0528 1.34825,0.0391 v 0"
           clip-path="url(#p771fe4705c)"
           style="fill:none;stroke:#008000;stroke-width:1.5;stroke-linecap:square"
           id="path62" /></g><g
         id="line2d_40"><path
           d="m 56.835852,122.67039 14.587485,0.0796 7.293746,0.34918 9.117184,0.48317 2.73515,-0.0201 2.735157,-0.23326 1.823432,-0.3235 1.823438,-0.4834 1.823438,-0.64699 2.735148,-1.06376 v 0 l 5.86054,0.89113 2.93027,-0.068 2.93026,-0.45285 2.93027,-0.74142 4.3954,-1.45436 10.25594,-3.6448 2.93026,-0.80783 2.93027,-0.60974 2.93027,-0.38436 2.93027,-0.15782 4.3954,0.0979 5.86053,0.20363 2.93027,-0.15203 2.93027,-0.37626 10.25593,-1.75727 2.93027,-0.20502 2.37685,0.0389 1.82344,0.43295 1.82344,0.80759 1.82343,1.09477 2.73516,1.99884 3.64686,3.01702 1.82344,1.54761 0.91172,0.4561 8.20546,-5.375 5.47031,-3.23222 5.47031,-2.95338 7.29374,-3.64319 1.82344,-0.88025 1.98878,-0.10506 12.9248,3.66193 5.38534,1.77786 4.30826,1.62352 5.38533,2.30106 1.07707,0.17424 1.07707,-0.84554 3.2312,-3.16234 6.46239,-6.79534 4.30828,-4.451939 2.15413,-2.040038 1.07706,-0.919128 1.07707,-0.631263 6.87807,0.0016 1.82344,1.11096 4.55859,3.275723 9.11718,6.597265 3.64687,2.40033 0.91171,0.5107 0.91172,0.20896 0.91172,-0.36793 5.47031,-2.9837 0.91172,0.23627 7.29374,3.20954 4.55859,1.81372 0.91172,0.33299 v 0 l 12.13424,-2.93116 1.34825,-0.22261 1.34825,-0.0942 1.34824,0.1511 1.34825,0.45702 2.6965,1.48005 4.04475,2.73517 1.34825,0.52759 6.74124,-0.29828 2.6965,0.0951 2.69649,0.29295 2.6965,0.51881 2.6965,0.75321 2.6965,0.97143 4.04474,1.76536 6.74124,3.09685 2.6965,1.00405 2.6965,0.71526 1.34825,0.18998 2.6965,0.0264 v 0"
           clip-path="url(#p771fe4705c)"
           style="fill:none;stroke:#008000;stroke-width:1.5;stroke-linecap:square"
           id="path63" /></g><g
         id="line2d_41"><path
           d="m 56.835852,95.523961 8.205465,-0.02522 5.470308,3.908607 17.322642,12.596122 6.38202,4.35544 4.558595,2.87725 1.823428,1.06838 0.91172,0.32304 v 0 l 1.46514,-0.36076 2.93026,-1.31713 2.93027,-1.5416 4.3954,-2.61831 5.86054,-3.85215 8.7908,-6.16709 4.3954,-3.00428 2.93027,-1.798225 2.93027,-1.574226 2.93026,-1.333106 2.93027,-1.014234 2.93027,-0.614603 4.3954,-0.508852 8.7908,-0.727296 7.32567,-0.39292 6.77225,-0.102974 9.11718,-0.14532 8.20546,-0.290872 0.91172,0.156428 3.64687,1.276412 5.47031,2.176102 7.29374,3.172746 6.38203,3.00822 1.82344,0.92052 1.98878,0.10506 7.53947,-2.24668 12.9248,-3.564051 12.9248,-3.39073 1.07706,-0.239269 1.07707,-0.1039 6.4624,0.344558 5.38533,0.189518 1.07707,-0.159436 1.07706,-0.655793 1.07707,-0.437349 1.07707,-0.155271 v 0 l 0.91171,0.107139 0.91172,0.296195 1.82344,0.952218 1.82344,0.04397 4.55859,-0.0516 1.82343,0.886037 9.11718,4.875404 7.29375,3.60524 2.73515,1.28428 0.91172,-0.28393 4.55859,-2.19971 5.4703,-2.38621 2.73516,-1.111656 v 0 l 2.6965,0.808986 2.6965,0.97489 4.04474,1.74315 4.04475,1.89703 1.34825,0.52274 1.34824,0.30823 1.34825,0.0315 2.6965,-0.42301 4.04475,-0.99641 8.08949,-2.28741 8.08949,-2.525749 9.43774,-3.041545 4.04475,-0.586834 4.04474,-0.359136 5.393,-0.198543 2.6965,-0.02198 v 0"
           clip-path="url(#p771fe4705c)"
           style="fill:none;stroke:#008000;stroke-width:1.5;stroke-linecap:square"
           id="path64" /></g><g
         id="line2d_42"><path
           d="m 56.835852,91.754195 0.911719,0.06965 1.823438,0.513481 1.823432,0.873079 5.470308,3.248186 6.382026,4.574349 20.057799,14.50797 4.558589,3.01261 2.735147,1.59483 0.91172,0.47923 v 0 l 2.93027,-1.13919 2.93027,-1.53049 2.93027,-1.80794 4.3954,-2.99527 14.65133,-10.23143 8.79081,-5.694333 2.93026,-1.657299 1.46514,-0.651396 2.93026,-0.808286 11.72107,-3.106337 4.3954,-0.771262 1.46514,-0.154345 1.46513,0.273285 2.93027,0.771262 2.93027,0.536852 2.93026,0.192064 v 0 l 1.82344,-0.165452 1.82344,-0.436656 2.73515,-0.755063 0.91172,-0.05878 1.82344,0.220294 3.64686,0.795559 4.55859,1.297701 0.91172,0.261021 2.73516,0.291104 2.73515,0.965176 4.55859,1.886619 5.47031,2.518113 10.94062,5.374999 v 0 l 11.84773,-5.716779 5.38533,-2.258712 4.30827,-1.578854 2.15413,-0.684255 1.07707,-0.258939 1.07706,-0.04142 10.77067,0.728222 5.38533,-1.250495 6.4624,-1.398361 3.2312,-0.45887 1.98878,0.0023 1.82344,0.350342 1.82344,0.640058 2.73515,1.288213 2.73516,1.381469 1.82343,0.04026 7.29375,-0.417217 7.29374,-0.416986 1.82344,0.195072 2.73515,0.675924 4.55859,1.442096 5.47031,1.957196 3.64687,1.409699 v 0 l 2.6965,-0.643528 4.04475,-0.679164 4.04474,-0.390375 4.04475,-0.174245 5.39299,-0.01458 17.52723,0.196229 4.04475,-0.240195 4.04475,-0.45239 2.6965,-0.441746 2.69649,-0.937177 6.74124,-2.455404 2.6965,-0.826799 2.6965,-0.619693 1.34825,-0.181188 1.34825,-0.06364 v 0"
           clip-path="url(#p771fe4705c)"
           style="fill:none;stroke:#008000;stroke-width:1.5;stroke-linecap:square"
           id="path65" /></g><g
         id="line2d_43"><path
           d="m 56.835852,91.623685 0.911719,0.06271 1.823438,0.47553 1.823432,0.832352 2.735157,1.624441 0.911719,0.59771 0.911713,0.113156 7.293745,-0.43249 7.293746,-0.669908 7.293746,-0.890203 8.205458,-1.224346 5.470305,-0.912649 v 0 l 11.72107,1.37337 13.18621,1.518458 5.86053,0.452622 4.3954,0.144163 2.93027,-0.05901 1.46513,-0.119866 1.46514,-0.260558 2.93026,-1.056349 2.93027,-1.042928 2.93027,-0.803658 2.93027,-0.582438 4.3954,-0.570405 4.3954,-0.314938 2.93027,-0.08955 5.86053,-0.201551 4.20029,0.09302 3.64687,0.235104 1.82344,0.01296 2.73515,0.45725 3.64687,0.838137 6.38203,1.685993 2.73515,-0.144395 6.38203,-0.613446 6.38202,-0.826567 6.38203,-1.029738 1.82344,-0.328359 v 0 l 12.92479,1.884305 9.69361,1.198892 2.15413,0.151105 2.15413,-0.42763 4.30827,-1.035291 4.30826,-0.808981 4.30827,-0.585678 5.38534,-0.471134 5.38532,-0.236724 4.88929,0.02916 4.55859,0.278376 4.55859,0.477613 4.55859,0.681016 5.47031,1.074167 4.55859,0.933706 1.82344,0.120097 2.73515,-0.175402 5.47031,-0.668751 8.20546,-1.250495 v 0 l 10.78599,1.308576 16.17899,2.015972 5.39299,0.447531 5.39299,0.234179 5.393,0.0099 5.393,-0.241583 2.69649,-0.271897 2.6965,-0.440589 2.69649,-0.628024 5.393,-1.456906 2.6965,-0.431101 1.34825,-0.05808 v 0"
           clip-path="url(#p771fe4705c)"
           style="fill:none;stroke:#008000;stroke-width:1.5;stroke-linecap:square"
           id="path66" /></g><g
         id="line2d_44"><path
           d="m 56.835852,85.745387 5.470308,0.09187 5.470308,0.322343 6.382026,0.632421 6.382027,0.854798 9.117177,1.478888 11.852332,2.074285 v 0 l 8.79081,-0.842996 11.72107,-0.869839 8.7908,-0.695363 5.86053,-0.64052 5.86054,-0.836054 8.7908,-1.508277 1.46513,0.332525 4.3954,1.750554 4.3954,1.51383 1.46514,0.380193 10.25593,-0.545182 v 0 l 3.64688,0.150411 3.64687,0.281153 1.82344,-0.44082 3.64686,-1.272247 3.64688,-1.488839 2.73515,-1.246561 0.91172,-0.127271 4.55859,0.819856 10.94061,2.24668 9.11719,1.80609 v 0 l 16.15599,-2.440362 6.46241,-0.756916 6.46239,-0.540323 6.4624,-0.32697 2.15414,0.03911 5.38533,1.057506 4.30827,0.726138 4.30826,1.274098 1.07707,0.09163 v 0 l 0.91171,-0.105519 0.91172,-0.290641 2.73516,-1.339353 2.73515,-0.410275 3.64688,-0.85341 5.4703,0.545877 6.38203,0.84855 9.11718,1.468938 12.76405,2.180268 v 0 l 9.43774,-0.946665 12.13424,-0.976052 14.83073,-1.222033 21.57198,-2.015741 5.393,-0.207567 2.6965,-0.02221 v 0"
           clip-path="url(#p771fe4705c)"
           style="fill:none;stroke:#008000;stroke-width:1.5;stroke-linecap:square"
           id="path67" /></g><g
         id="line2d_45"><path
           d="m 56.835852,84.434958 1.823438,-0.084 1.823432,-0.258013 1.823438,-0.431565 1.823438,-0.596322 2.735151,-1.175752 2.735157,-1.468707 2.73515,-1.705662 3.646876,-2.538014 13.675766,-9.928986 3.646876,-2.187209 2.735151,-1.38494 2.735157,-1.126695 2.735148,-0.839757 v 0 l 2.93027,0.571331 2.93027,0.770336 4.3954,1.44927 4.3954,1.712604 5.86054,2.574807 4.3954,2.185821 2.93026,1.703348 4.3954,2.946438 7.32567,5.060988 4.3954,2.730077 2.93027,1.615416 2.93027,1.429831 1.46513,0.06248 4.3954,-0.732849 1.46514,0.247368 2.93026,1.277106 2.93027,1.034366 2.93027,0.740486 2.93027,0.454935 2.93026,0.162676 v 0 l 1.82344,-0.145552 1.82344,-0.427862 1.82343,-0.74118 1.82344,-1.077406 1.82344,-1.365039 0.91171,-0.754601 0.91172,-0.401019 3.64687,0.424853 4.55859,0.672685 0.91172,-0.167766 3.64687,-1.906287 4.55859,-2.636361 9.11718,-5.627921 4.55859,-2.697913 2.73516,-1.463153 v 0 l 4.30826,1.93475 18.31014,8.689829 4.30826,1.679051 4.30827,1.460377 4.30826,1.232214 2.15414,0.421151 5.38533,-0.08469 1.07707,0.156196 2.15413,0.96078 1.07707,0.351037 2.15413,0.257087 5.05463,0.02337 1.82344,-0.04767 0.91172,-0.216592 1.82343,-1.156546 0.91172,-0.188593 3.64688,0.145552 3.64687,-1.254429 4.55859,-1.869726 5.4703,-2.513717 11.85234,-5.571922 3.64687,-1.464542 2.73515,-0.918665 1.82344,-0.50029 v 0 l 6.74125,1.025803 5.39299,0.598405 8.08949,0.613678 8.0895,0.624322 4.04474,0.48872 1.34825,0.28393 2.69649,0.970268 9.43775,3.987977 4.04474,1.411088 4.04475,1.111885 4.04474,0.789774 4.04475,0.465349 4.04475,0.148097 v 0"
           clip-path="url(#p771fe4705c)"
           style="fill:none;stroke:#008000;stroke-width:1.5;stroke-linecap:square"
           id="path68" /></g><g
         id="line2d_46"><path
           d="m 56.835852,83.612557 0.911719,-0.0634 1.823438,-0.482473 1.823432,-0.853641 2.735157,-1.687382 3.64687,-2.612988 6.382026,-4.941815 15.499204,-12.17636 2.735157,-0.571099 2.735151,-0.241815 2.735157,0.09302 2.735147,0.422771 0.91172,0.211964 v 0 l 2.93027,-0.330673 2.93027,-0.03911 2.93027,0.31193 2.93026,0.715494 2.93027,1.12091 2.93027,1.45598 4.3954,2.576427 5.86053,3.484678 4.3954,2.211738 10.25594,4.930708 5.86054,3.141742 7.32566,3.952804 1.46514,0.240658 7.32567,-0.943193 4.3954,-0.309384 4.7537,-0.0442 4.55859,0.190444 3.64687,0.283467 0.91172,-0.310541 3.64687,-3.424515 5.47031,-5.17044 2.73515,-2.32096 2.73516,-1.995377 1.82344,-1.093836 1.82343,-0.868913 1.82344,-0.620389 1.82343,-0.360292 1.82344,-0.10228 1.82343,0.139998 1.82344,0.356128 1.82343,0.541248 2.73516,1.090828 1.82344,0.871228 v 0 l 3.23119,-1.29747 2.15414,-0.68842 2.15413,-0.498439 2.15414,-0.267964 2.15413,-0.0074 2.15413,0.269351 2.15413,0.542406 2.15414,0.79579 2.15413,1.017011 3.2312,1.856768 3.2312,2.136763 6.4624,4.633357 5.38533,3.736444 3.2312,2.000005 1.07707,0.598637 1.07707,0.405878 4.30826,0.0095 8.86686,0.06317 1.82343,0.03263 0.91172,-0.384589 10.94062,-7.256296 3.64687,-2.104599 3.64687,-1.826917 2.73516,-1.141967 2.73515,-0.906632 2.73516,-0.637744 2.73515,-0.341549 2.73515,-0.03263 2.73515,0.27074 2.73516,0.548191 v 0 l 6.74125,-1.060977 4.04474,-0.410738 2.6965,-0.09788 2.69649,0.07497 2.6965,0.262872 2.6965,0.45401 2.6965,0.637512 4.04475,1.259288 5.39299,1.930817 2.69649,0.563231 6.74125,1.185009 4.04475,0.958466 2.69649,0.819393 4.04475,1.500872 6.74124,2.601187 2.6965,0.726833 1.34825,0.214972 1.34825,0.07706 v 0"
           clip-path="url(#p771fe4705c)"
           style="fill:none;stroke:#008000;stroke-width:1.5;stroke-linecap:square"
           id="path69" /></g><g
         id="line2d_47"><path
           d="m 56.835852,83.448261 0.911719,-0.07312 0.911719,-0.210807 1.823432,-0.747659 1.823438,-1.041077 2.735157,-1.860007 4.558589,-3.45344 19.146073,-14.968453 0.911719,-0.33854 7.293746,-5.452519 4.558586,-3.227129 v 0 l 10.25594,4.347113 5.86053,2.153193 14.65134,4.853652 2.93027,0.808517 2.93027,0.578967 2.93026,0.255005 2.93027,-0.142775 2.93027,-0.566471 2.93027,-0.955921 2.93026,-1.257205 2.93027,-1.426361 1.46513,-0.525282 8.79081,-1.927808 7.32566,-1.676274 v 0 l 4.5586,-0.104825 4.55859,-0.311467 5.4703,-0.628024 5.47031,-0.871459 6.38203,-1.271552 6.38202,-1.502029 11.85234,-3.055197 v 0 l 2.15413,0.573645 4.30827,1.477268 4.30826,1.724869 3.2312,1.534194 3.2312,1.776008 3.2312,1.999542 4.30827,2.966802 4.30826,3.276417 4.30827,3.566364 5.38533,4.811073 8.61654,7.8429 2.15413,1.575383 1.07706,0.590305 1.07707,0.388755 1.07707,0.136759 v 0 l 0.91171,-0.07497 0.91172,-0.216824 1.82344,-0.776353 1.82344,-1.087356 2.73515,-1.960899 3.64687,-2.939959 7.29375,-6.280012 6.38202,-5.390272 4.55859,-3.54276 3.64688,-2.54056 2.73515,-1.68715 2.73515,-1.470558 2.73515,-1.239157 2.73516,-1.014465 v 0 l 4.04475,1.007523 4.04475,1.241471 4.04474,1.50388 4.04474,1.741529 5.393,2.591931 9.43774,4.884197 9.43774,4.852957 4.04475,1.904899 4.04475,1.826917 6.74124,4.70486 2.69649,1.647812 2.6965,1.382394 1.34825,0.544025 1.34825,0.410275 1.34825,0.251534 1.34825,0.08377 v 0"
           clip-path="url(#p771fe4705c)"
           style="fill:none;stroke:#008000;stroke-width:1.5;stroke-linecap:square"
           id="path70" /></g><g
         id="line2d_48"><path
           d="m 56.835852,76.693182 1.823438,-0.117552 1.823432,-0.34664 1.823438,-0.559529 1.823438,-0.747891 2.735151,-1.408774 3.646876,-2.241357 10.028896,-6.489199 2.73515,-1.487913 2.735158,-1.256049 2.73515,-0.982763 5.470308,-4.002556 6.382023,-4.53154 0.91172,-0.445911 v 0 l 1.46514,0.445217 8.7908,3.707981 4.3954,1.664242 5.86054,1.992369 2.93026,0.838137 2.93027,0.653247 2.93027,0.492423 2.93026,0.331136 2.93027,0.171005 4.3954,-0.02661 4.3954,-0.323731 4.39541,-0.559066 5.86053,-1.015623 1.46513,-0.502604 4.3954,-2.099045 2.93027,-1.123224 1.46514,-0.418838 1.46513,-0.299433 1.46513,-0.165221 1.46514,-0.02152 3.84198,0.271897 4.55859,-0.146014 4.55859,-0.344789 5.47031,-0.648619 5.47031,-0.872153 6.38203,-1.258131 7.29374,-1.687844 9.11718,-2.323042 4.14291,0.284392 6.46241,0.68842 6.46239,0.489415 6.46241,0.266343 6.46239,0.02569 7.53947,-0.223071 14.00186,-0.488026 16.74163,-0.246212 5.4703,-0.33345 6.38203,-0.535695 6.38203,1.237305 7.29374,1.601069 3.64687,1.001275 0.91172,0.293186 v 0 l 5.393,-1.082497 4.04474,-0.577579 1.34825,-0.07821 1.34825,0.03494 1.34825,0.182113 1.34825,0.336227 2.69649,1.038531 2.6965,1.354163 4.04475,2.387834 4.04475,2.681715 5.39299,3.889401 8.08949,6.187219 5.393,4.114092 1.34825,0.815922 2.69649,0.868451 2.6965,0.625248 2.69649,0.446142 4.04475,0.414209 4.04475,0.175403 1.34825,0.01157 v 0"
           clip-path="url(#p771fe4705c)"
           style="fill:none;stroke:#008000;stroke-width:1.5;stroke-linecap:square"
           id="path71" /></g><g
         id="line2d_49"><path
           d="m 56.835852,43.213284 5.470308,-0.112461 4.558589,-0.287401 4.558588,-0.483861 4.558595,-0.682404 5.470308,-1.067919 0.911719,0.276525 3.64687,1.769992 4.558588,2.483866 4.558589,2.748822 6.382024,4.034952 v 0 l 1.46514,-0.443135 5.86053,-2.37071 4.3954,-1.563351 4.3954,-1.296775 2.93027,-0.670139 2.93027,-0.481547 2.93027,-0.284625 4.3954,-0.123799 5.86053,0.135832 10.25594,0.295269 7.32567,-0.04003 7.32566,-0.317714 8.79081,-0.670834 1.46513,-0.12056 2.37685,0.09649 10.0289,0.130742 6.38202,0.259865 3.64688,0.302904 7.29374,0.887658 2.73516,0.297582 4.55858,0.821476 5.47031,1.212083 2.73516,0.662503 0.91172,-0.0479 v 0 l 1.07706,0.06225 3.2312,-0.436655 3.2312,-0.246675 3.2312,-0.0398 6.4624,0.0014 5.38534,-0.328822 6.46239,-0.40935 5.38534,-0.09788 6.46239,0.151106 10.77067,0.29226 18.39971,0.136296 4.55859,0.409118 4.55859,0.556058 5.47031,-0.792782 7.29374,-1.303949 5.47031,-1.05658 v 0 l 2.6965,0.426242 4.04475,0.895062 4.04474,0.949441 1.34825,0.203865 1.34825,0.08678 2.69649,-0.176097 4.04475,-0.73632 8.0895,-1.662159 5.39299,-0.844848 5.39299,-0.596091 5.393,-0.388755 6.74124,-0.240889 14.83074,-0.163601 v 0"
           clip-path="url(#p771fe4705c)"
           style="fill:none;stroke:#008000;stroke-width:1.5;stroke-linecap:square"
           id="path72" /></g><g
         id="line2d_50"><path
           d="m 56.835852,42.962676 4.558589,-0.118246 4.558589,-0.333913 5.470307,-0.646074 5.470314,-0.88326 3.64687,-0.706932 1.823438,0.315863 3.64687,1.800074 4.558588,2.518114 4.558589,2.770341 5.470304,3.592744 0.91172,0.622008 v 0 l 7.32567,-3.023495 4.3954,-1.637168 4.3954,-1.384939 2.93027,-0.733544 2.93027,-0.569479 4.3954,-0.583133 4.3954,-0.329516 5.86054,-0.181187 10.25593,-0.01874 19.04674,0.182113 6.77225,0.172857 11.85233,0.119635 5.47031,0.264492 4.55859,0.572488 10.94062,1.278958 5.47031,1.186396 5.47031,1.355552 v 0 l 3.23119,-0.78237 7.53947,-1.894948 6.4624,-1.367585 5.38534,-0.918665 5.38532,-0.720353 6.46241,-0.629182 6.46239,-0.409581 7.53947,-0.244128 7.95514,-0.01898 9.11718,0.205947 7.29374,0.368854 6.38203,0.521117 6.38203,0.759229 6.38202,1.012614 5.47031,1.014003 v 0 l 4.04475,-0.379731 17.52723,-1.100778 9.43774,-0.822864 5.39299,-0.243203 6.74125,-0.01365 13.48248,0.0752 9.43775,-0.01296 v 0"
           clip-path="url(#p771fe4705c)"
           style="fill:none;stroke:#008000;stroke-width:1.5;stroke-linecap:square"
           id="path73" /></g><g
         id="line2d_51"><path
           d="m 56.835852,34.799285 3.64687,0.1518 3.646876,0.401251 3.64687,0.635892 3.646869,0.87007 3.646876,1.103786 3.64687,1.334957 1.823438,0.752056 1.823438,0.327896 5.470308,-1.339585 7.293739,-2.043046 6.382024,-1.898651 v 0 l 7.32567,1.26785 4.3954,0.55629 4.3954,0.301054 4.39541,0.01897 4.3954,-0.231865 14.65133,-1.123918 4.3954,0.05345 2.93027,0.223534 2.93027,0.388292 2.93027,0.552819 4.3954,1.100083 8.7908,2.503999 2.93027,0.530835 2.93026,0.171932 v 0 l 3.64688,0.117089 3.64687,0.344094 3.64687,0.546108 5.47031,1.078795 3.64687,0.637975 10.94062,1.163488 1.82343,-0.224691 1.82344,-0.413746 2.73515,-0.889972 2.73515,-1.127852 4.5586,-2.152499 v 0 l 4.30826,1.613796 2.15414,0.62062 2.15413,0.405184 2.15413,0.149717 2.15413,-0.08932 3.2312,-0.45563 4.30827,-0.920053 9.6936,-2.179342 5.38533,-0.911954 5.38533,-0.649776 5.38534,-0.407499 5.38533,-0.169155 5.63566,0.06757 15.4992,0.458638 4.55859,-0.225385 8.20547,-0.542406 1.82344,0.084 3.64687,0.659726 2.73515,0.273749 2.73515,0.05669 7.65297,-0.340161 5.39299,-0.730766 9.43774,-1.38656 4.04475,-0.365383 17.52723,-0.494274 14.83073,-0.168692 8.0895,-0.04188 v 0"
           clip-path="url(#p771fe4705c)"
           style="fill:none;stroke:#008000;stroke-width:1.5;stroke-linecap:square"
           id="path74" /></g><g
         id="line2d_52"><path
           d="m 56.835852,34.758096 3.64687,0.08724 3.646876,0.318872 3.64687,0.572025 3.646869,0.831889 3.646876,1.092679 3.64687,1.345833 2.735157,1.077406 6.382027,-1.466855 7.293739,-1.910684 5.470304,-1.547847 0.91172,-0.06294 v 0 l 1.46514,0.06109 5.86053,0.957772 4.3954,0.544951 2.93027,0.220063 2.93027,0.05345 2.93027,-0.152957 2.93026,-0.370474 2.93027,-0.56138 4.3954,-1.083192 11.72107,-3.087131 4.3954,-0.893442 2.93027,-0.452853 2.93027,-0.257087 11.72107,-0.435267 8.23738,-0.18813 4.55859,0.137916 4.55859,0.337615 4.55859,0.545645 4.55859,0.770799 4.55859,1.021176 3.64688,1.015623 3.64687,1.204446 4.55858,1.77138 4.55859,2.034484 4.5586,2.197622 v 0 l 8.61653,-3.548314 4.30826,-1.534193 4.30827,-1.311585 3.2312,-0.810138 3.2312,-0.585215 3.2312,-0.326508 7.53947,-0.672685 14.00186,-1.569366 4.30827,-0.147635 v 0 l 3.64687,0.121255 3.64687,0.357053 3.64688,0.575033 4.55859,0.982532 5.4703,1.468938 12.76406,3.642264 1.82343,0.224922 3.64687,0.406573 4.55859,0.486869 0.91172,0.05068 v 0 l 2.6965,-0.169617 4.04475,-0.553745 5.39299,-1.071853 4.04474,-0.755526 2.6965,-0.264955 28.31323,-1.015391 8.08949,0.08816 10.78599,0.202708 v 0"
           clip-path="url(#p771fe4705c)"
           style="fill:none;stroke:#008000;stroke-width:1.5;stroke-linecap:square"
           id="path75" /></g><g
         id="line2d_53"><path
           d="m 56.835852,27.04455 10.940616,0.104825 1.823438,0.128197 3.646869,0.606735 6.382027,1.338197 7.293746,1.781562 8.205458,2.233026 5.470304,1.587879 0.91172,0.06826 v 0 l 1.46514,-0.06919 8.7908,-1.542755 7.32567,-1.072547 7.32567,-0.821939 7.32566,-0.576422 8.79081,-0.432721 10.25593,-0.422077 14.65134,-1.243553 2.93027,-0.149485 11.13573,0.332524 10.94061,0.661115 6.38203,0.266343 5.47031,-0.01249 4.55858,-0.220989 5.47031,-0.500059 3.64688,-0.438507 v 0 l 2.15413,0.27074 9.6936,1.670027 5.38533,0.68009 3.2312,0.215435 3.2312,-0.0523 3.2312,-0.38297 11.84773,-1.832933 4.30827,-0.408656 5.38533,-0.249914 6.1317,-0.02545 4.55859,0.235799 4.5586,0.491265 4.55859,0.728453 5.4703,1.136877 10.0289,2.209655 2.73516,0.279071 1.82343,0.006 2.73516,-0.248757 3.64686,-0.649545 2.73516,-0.606504 v 0 l 9.43774,1.423121 4.04475,0.40611 2.69649,0.05623 2.6965,-0.254773 2.6965,-0.537315 5.393,-1.393964 8.08949,-2.071509 5.39299,-1.095224 5.393,-0.851559 6.74124,-0.845542 2.6965,-0.190212 4.04474,0.11709 5.393,0.158047 1.34825,0.0072 v 0"
           clip-path="url(#p771fe4705c)"
           style="fill:none;stroke:#008000;stroke-width:1.5;stroke-linecap:square"
           id="path76" /></g><g
         id="line2d_54"><path
           d="m 56.835852,26.04744 3.64687,0.111999 4.558595,0.406804 5.470308,0.563 1.823431,0.123569 3.646876,0.6669 5.470308,1.256048 6.382027,1.698026 10.028896,2.941811 3.646867,1.077638 v 0 l 21.97701,-3.963449 10.25593,-1.533037 19.04674,-2.619005 1.46514,-0.04397 4.3954,0.36978 11.72107,1.180149 11.13573,0.137452 9.11717,0.557447 8.20547,0.431796 5.47031,0.05137 5.4703,-0.207336 5.47031,-0.448688 1.82344,-0.188592 5.21998,0.08863 6.4624,-0.04998 6.4624,-0.261253 7.53947,-0.550273 20.46427,-1.712142 5.38532,-0.193452 5.80101,0.01689 7.29375,0.261715 4.55859,0.328359 5.4703,0.655099 5.47031,0.871921 6.38203,1.268313 8.20546,1.90837 3.64687,0.867525 v 0 l 8.0895,-1.146595 5.39299,-0.552819 6.74124,-0.458407 9.43774,-0.610438 5.393,-0.552587 6.74124,-0.937871 6.74125,-0.933012 4.04474,-0.399399 13.48249,-0.478308 v 0"
           clip-path="url(#p771fe4705c)"
           style="fill:none;stroke:#008000;stroke-width:1.5;stroke-linecap:square"
           id="path77" /></g><g
         id="line2d_55"><path
           d="m 56.835852,25.851674 4.558589,0.1039 4.558589,0.344788 4.558595,0.582901 1.823431,0.212427 4.558595,0.06502 6.38202,-0.107139 5.470308,-0.325582 4.558595,-0.487795 5.470308,-0.840914 2.735148,-0.50191 v 0 l 7.32567,0.763625 5.86054,0.386441 5.86053,0.152031 7.32567,-0.06734 11.72107,-0.170311 5.86053,0.136758 8.79081,0.363995 11.72107,-1.375915 5.86053,-0.411663 3.28857,-0.06017 6.38203,0.16499 7.29374,0.41444 7.29374,0.646536 8.20547,0.964252 13.67577,1.696637 v 0 l 3.23119,-0.0435 6.46241,-0.275369 8.61653,-0.602801 16.156,-1.188017 9.6936,-0.440126 7.53946,-0.144163 6.54738,0.08492 5.47031,0.271666 10.02889,0.611132 7.29375,0.253848 5.47031,-0.03818 5.4703,-0.262179 6.81856,-0.359829 5.393,0.185584 5.39299,-0.01689 6.74124,-0.260096 14.83074,-0.690734 5.39299,0.0037 5.393,0.202014 9.43774,0.493811 9.43774,-0.412589 2.6965,-0.02221 v 0"
           clip-path="url(#p771fe4705c)"
           style="fill:none;stroke:#008000;stroke-width:1.5;stroke-linecap:square"
           id="path78" /></g><g
         id="line2d_56"><path
           d="m 56.835852,18.931837 5.470308,0.112692 5.470308,0.331831 5.470307,0.535 6.382027,0.854104 6.382027,1.067919 9.117177,1.787116 6.382024,1.276875 v 0 l 14.65134,-1.66401 5.86054,-0.384359 5.86053,-0.130973 5.86053,0.09603 8.79081,0.393383 17.5816,0.825873 15.92136,0.47553 7.29374,0.160593 6.38203,0.349185 6.38202,0.569943 7.29375,0.897144 14.58749,2.015972 v 0 l 2.15413,-0.294806 9.6936,-1.783182 6.4624,-0.93278 5.38533,-0.552124 5.38533,-0.335996 6.4624,-0.149948 8.61654,0.07474 11.35168,0.08955 19.14608,-0.01412 6.38203,0.276062 7.29374,0.55467 9.11718,0.8585 v 0 l 6.74125,-0.535926 9.43773,-1.017936 16.17899,-1.988667 9.43774,-1.403451 9.43774,-1.391882 5.39299,-0.591926 5.393,-0.349879 4.04475,-0.08076 v 0"
           clip-path="url(#p771fe4705c)"
           style="fill:none;stroke:#008000;stroke-width:1.5;stroke-linecap:square"
           id="path79" /></g><g
         id="line2d_57"><path
           d="M 0,0"
           clip-path="url(#p771fe4705c)"
           style="fill:none;stroke:#008000;stroke-width:1.5;stroke-linecap:square"
           id="path80" /></g><g
         id="line2d_58"><path
           d="M 0,0"
           clip-path="url(#p771fe4705c)"
           style="fill:none;stroke:#008000;stroke-width:1.5;stroke-linecap:square"
           id="path81" /></g><g
         id="line2d_59"><path
           d="M 0,0"
           clip-path="url(#p771fe4705c)"
           style="fill:none;stroke:#008000;stroke-width:1.5;stroke-linecap:square"
           id="path82" /></g><g
         id="line2d_60"><path
           d="M 0,0"
           clip-path="url(#p771fe4705c)"
           style="fill:none;stroke:#008000;stroke-width:1.5;stroke-linecap:square"
           id="path83" /></g><g
         id="line2d_61"><path
           d="M 0,0"
           clip-path="url(#p771fe4705c)"
           style="fill:none;stroke:#008000;stroke-width:1.5;stroke-linecap:square"
           id="path84" /></g><g
         id="line2d_62"><path
           d="M 0,0"
           clip-path="url(#p771fe4705c)"
           style="fill:none;stroke:#008000;stroke-width:1.5;stroke-linecap:square"
           id="path85" /></g><g
         id="line2d_63"><path
           d="M 0,0"
           clip-path="url(#p771fe4705c)"
           style="fill:none;stroke:#008000;stroke-width:1.5;stroke-linecap:square"
           id="path86" /></g><g
         id="line2d_64"><path
           d="M 0,0"
           clip-path="url(#p771fe4705c)"
           style="fill:none;stroke:#008000;stroke-width:1.5;stroke-linecap:square"
           id="path87" /></g><g
         id="line2d_65"><path
           d="M 0,0"
           clip-path="url(#p771fe4705c)"
           style="fill:none;stroke:#008000;stroke-width:1.5;stroke-linecap:square"
           id="path88" /></g><g
         id="line2d_66"><path
           d="M 0,0"
           clip-path="url(#p771fe4705c)"
           style="fill:none;stroke:#008000;stroke-width:1.5;stroke-linecap:square"
           id="path89" /></g><g
         id="line2d_67"><path
           d="M 0,0"
           clip-path="url(#p771fe4705c)"
           style="fill:none;stroke:#008000;stroke-width:1.5;stroke-linecap:square"
           id="path90" /></g><g
         id="line2d_68"><path
           d="M 0,0"
           clip-path="url(#p771fe4705c)"
           style="fill:none;stroke:#008000;stroke-width:1.5;stroke-linecap:square"
           id="path91" /></g><g
         id="patch_3"><path
           d="M 40.603125,273.312 V 7.2"
           style="fill:none;stroke:#000000;stroke-width:0.8;stroke-linecap:square;stroke-linejoin:miter"
           id="path92" /></g><g
         id="patch_4"><path
           d="M 397.72312,273.312 V 7.2"
           style="fill:none;stroke:#000000;stroke-width:0.8;stroke-linecap:square;stroke-linejoin:miter"
           id="path93" /></g><g
         id="patch_5"><path
           d="M 40.603125,273.312 H 397.72312"
           style="fill:none;stroke:#000000;stroke-width:0.8;stroke-linecap:square;stroke-linejoin:miter"
           id="path94" /></g><g
         id="patch_6"><path
           d="M 40.603125,7.2 H 397.72312"
           style="fill:none;stroke:#000000;stroke-width:0.8;stroke-linecap:square;stroke-linejoin:miter"
           id="path95" /></g></g><text
       xml:space="preserve"
       style="font-style:normal;font-variant:normal;font-weight:normal;font-stretch:normal;font-size:12px;font-family:'DejaVu Sans';-inkscape-font-specification:'DejaVu Sans, Normal';font-variant-ligatures:normal;font-variant-caps:normal;font-variant-numeric:normal;font-variant-east-asian:normal;fill:#000000;stroke-width:0.75;stroke-linecap:butt;stroke-linejoin:round"
       x="412.79007"
       y="288.63876"
       id="text1"><tspan
         sodipodi:role="line"
         id="tspan1"
         style="font-style:normal;font-variant:normal;font-weight:normal;font-stretch:normal;font-size:12px;font-family:'DejaVu Sans';-inkscape-font-specification:'DejaVu Sans, Normal';font-variant-ligatures:normal;font-variant-caps:normal;font-variant-numeric:normal;font-variant-east-asian:normal;stroke-width:0.75"
         x="412.79007"
         y="288.63876">DOS</tspan></text></g><defs
     id="defs95"><clipPath
       id="p771fe4705c"><rect
         x="40.603127"
         y="7.1999998"
         width="357.12"
         height="266.112"
         id="rect95" /></clipPath></defs><g
     id="figure_1-5"
     transform="matrix(0,-0.79530403,-1,0,439.13975,272.31219)"
     inkscape:label="figure_1-5 DOS"><g
       id="axes_1-6"><g
         id="patch_2-2"><path
           d="M 7.2,62.64 H 342 V 7.2 H 7.2 Z"
           style="fill:#ffffff"
           id="path2-9" /></g><g
         id="PolyCollection_1"><path
           d="m 21.756522,62.64 v -0.742839 l 2.911304,-0.214409 2.911304,-0.394043 2.911305,-0.318227 2.911304,-0.159034 2.911304,-0.09149 2.911305,-0.176569 2.911304,-0.274194 2.911305,-0.222792 2.911304,-0.515365 2.911304,-1.390086 2.911305,-1.876566 2.911304,-1.493281 2.911304,-1.964237 2.911305,-3.652908 2.911304,-5.162062 2.911304,-6.999136 2.911305,-6.927224 2.911304,-4.396643 2.911304,-1.698124 2.911305,0.597576 2.911304,0.792649 2.911304,-0.01576 2.911305,2.117963 2.911304,4.117864 2.911304,3.094083 2.911305,2.218049 2.911305,3.23475 2.9113,2.391504 2.91131,-0.85269 2.9113,-1.02762 2.91131,1.710964 2.9113,2.130103 2.91131,-0.737554 2.9113,-0.678716 2.9113,2.368378 2.91131,1.862616 2.9113,-0.155263 2.91131,0.824115 2.9113,2.341695 2.91131,2.331791 2.9113,1.937986 2.9113,0.665644 2.91131,-0.457882 2.9113,-1.757838 2.91131,-3.508728 2.9113,-2.539638 2.91131,1.240616 2.9113,1.281074 2.9113,-0.405664 2.91131,-0.256257 2.9113,0.12232 2.91131,0.44682 2.9113,-0.486113 2.91131,-1.815073 2.9113,-0.263324 2.9113,2.759117 2.91131,2.342812 2.9113,-1.203322 2.91131,-3.945841 2.9113,-1.881944 2.91131,3.996867 2.9113,3.59597 2.91131,-0.933406 2.9113,-2.126899 2.9113,0.467382 2.91131,1.851193 2.9113,0.889665 2.91131,-0.284319 2.9113,-0.897235 2.91131,-2.690491 2.9113,-6.891294 2.9113,-9.353469 2.91131,-5.289404 2.9113,1.058784 2.91131,4.682491 2.9113,4.970549 2.91131,5.790658 2.9113,5.32243 2.9113,1.799593 2.91131,-1.068958 2.9113,-1.050951 2.91131,0.448435 2.9113,1.922593 2.91131,1.869732 2.9113,0.547653 2.91131,-0.880897 2.9113,-0.519393 2.9113,-0.01301 2.91131,-1.140258 2.9113,-1.933821 2.91131,-3.941624 2.9113,-5.43895 2.91131,-6.283401 2.9113,-4.285276 2.91131,4.280847 2.9113,5.026055 2.9113,-2.568154 2.91131,-2.479206 2.9113,-3.165508 2.91131,-10.224748 2.9113,-10.132256 2.9113,3.827072 2.91131,19.978673 2.9113,17.358419 2.91131,7.108512 2.9113,2.928692 2.91131,1.296298 2.9113,0.278825 2.91131,0.02282 L 342,62.64 h 2.9113 2.91131 2.9113 2.91131 2.9113 2.91131 2.9113 2.9113 2.91131 2.9113 2.91131 2.9113 2.91131 2.9113 2.9113 2.91131 2.9113 2.91131 2.9113 2.91131 2.9113 2.91131 2.9113 2.9113 2.91131 2.9113 2.91131 2.9113 2.91131 2.9113 2.9113 2.91131 2.9113 2.91131 2.9113 2.91131 2.9113 2.91131 2.9113 2.9113 2.91131 2.9113 2.91131 2.9113 2.91131 2.9113 2.9113 2.91131 2.9113 2.91131 2.9113 2.91131 2.9113 2.91131 2.9113 2.9113 2.91131 2.9113 2.91131 2.9113 2.9113 2.91131 l 2.9113,-9.9e-4 2.91131,-0.03408 2.9113,-0.441437 2.91131,-2.277356 2.9113,-4.833509 2.91131,-3.690789 2.9113,-0.383047 2.9113,-1.015079 2.91131,-1.302639 2.9113,0.72193 2.91131,1.150699 2.9113,0.21853 2.91131,-0.490168 2.9113,-1.188519 2.9113,-2.737437 2.91131,-2.625569 2.9113,-1.781618 2.91131,-1.037906 2.9113,2.394905 2.91131,5.735548 2.9113,5.166483 2.91131,1.293975 2.9113,-2.078099 2.9113,-3.03381 2.91131,-1.764127 2.9113,0.113463 2.91131,1.673816 2.9113,3.11516 2.91131,0.795604 2.9113,-1.294935 2.9113,-0.536923 2.91131,0.816794 2.9113,-0.781664 2.91131,-2.193732 2.9113,-0.996504 2.91131,-2.344117 2.9113,-3.061537 2.91131,-0.182527 2.9113,0.704516 2.9113,0.209499 2.91131,0.465089 2.9113,1.796106 2.91131,1.498886 2.9113,-1.52919 2.9113,-4.482123 2.91131,-5.264233 2.9113,-1.984594 2.91131,3.393581 2.9113,4.272694 2.91131,3.102197 2.9113,2.410567 2.91131,0.737786 2.9113,-1.718569 2.9113,-2.708203 2.91131,-1.679646 2.9113,-3.744494 2.91131,-3.462032 2.9113,7.255355 2.91131,9.444374 2.9113,3.650066 2.9113,0.647603 2.91131,0.100718 2.9113,0.09689 2.91131,0.13711 2.9113,0.07179 2.91131,-0.155305 2.9113,-0.134908 2.9113,0.311457 2.91131,0.497761 2.9113,-0.173818 2.91131,-0.349669 2.9113,0.499091 2.91131,0.532878 2.9113,-0.02506 2.91131,0.221767 2.9113,0.821461 2.9113,1.024157 v 2.41967 0 h -2.9113 -2.9113 -2.91131 -2.9113 -2.91131 -2.9113 -2.91131 -2.9113 -2.91131 -2.9113 -2.9113 -2.91131 -2.9113 -2.91131 -2.9113 -2.91131 -2.9113 -2.9113 -2.91131 -2.9113 -2.91131 -2.9113 -2.91131 -2.9113 -2.9113 -2.91131 -2.9113 -2.91131 -2.9113 -2.91131 -2.9113 -2.91131 -2.9113 -2.9113 -2.91131 -2.9113 -2.91131 -2.9113 -2.9113 -2.91131 -2.9113 -2.91131 -2.9113 -2.91131 -2.9113 -2.91131 -2.9113 -2.9113 -2.91131 -2.9113 -2.91131 -2.9113 -2.91131 -2.9113 -2.9113 -2.91131 -2.9113 -2.91131 -2.9113 -2.91131 -2.9113 -2.91131 -2.9113 -2.9113 -2.91131 -2.9113 -2.91131 -2.9113 -2.91131 -2.9113 -2.9113 -2.91131 -2.9113 -2.91131 -2.9113 -2.91131 -2.9113 -2.91131 -2.9113 -2.9113 -2.91131 -2.9113 -2.91131 -2.9113 -2.9113 -2.91131 -2.9113 -2.91131 -2.9113 -2.91131 -2.9113 -2.91131 -2.9113 -2.9113 -2.91131 -2.9113 -2.91131 -2.9113 -2.91131 -2.9113 -2.9113 -2.91131 -2.9113 -2.91131 -2.9113 -2.91131 -2.9113 -2.91131 -2.9113 -2.9113 -2.91131 -2.9113 -2.91131 -2.9113 -2.91131 -2.9113 -2.9113 -2.91131 -2.9113 -2.91131 -2.9113 -2.91131 -2.9113 -2.91131 -2.9113 -2.9113 -2.91131 -2.9113 -2.91131 -2.9113 -2.91131 -2.9113 -2.9113 -2.91131 -2.9113 -2.91131 -2.9113 -2.91131 -2.9113 -2.9113 -2.91131 -2.9113 -2.91131 -2.9113 -2.91131 -2.9113 -2.91131 -2.9113 -2.9113 -2.91131 -2.9113 -2.91131 -2.9113 -2.9113 -2.91131 -2.9113 -2.91131 -2.9113 -2.91131 -2.9113 -2.91131 -2.9113 -2.9113 -2.91131 -2.9113 -2.91131 -2.9113 -2.91131 -2.9113 -2.91131 -2.9113 -2.9113 -2.91131 -2.9113 -2.91131 -2.9113 -2.91131 -2.9113 -2.9113 -2.91131 -2.9113 -2.91131 -2.9113 -2.91131 -2.9113 -2.9113 -2.91131 -2.9113 -2.91131 -2.9113 -2.91131 -2.9113 -2.91131 -2.9113 -2.9113 -2.91131 -2.9113 -2.91131 -2.9113 -2.91131 -2.9113 -2.9113 -2.91131 -2.9113 -2.91131 -2.9113 -2.91131 -2.9113 -2.9113 -2.91131 -2.9113 -2.91131 -2.9113 -2.91131 -2.9113 -2.9113 -2.91131 -2.9113 -2.91131 -2.9113 -2.91131 -2.9113 H 97.450435 94.53913 91.627826 88.716522 85.805217 82.893913 79.982609 77.071304 74.16 71.248696 68.337391 65.426087 62.514783 59.603478 56.692174 53.78087 50.869565 47.958261 45.046957 42.135652 39.224348 36.313043 33.401739 30.490435 27.57913 24.667826 Z"
           clip-path="url(#p47e690d9c2)"
           style="fill:#808080;stroke:#000000"
           id="path3-1" /></g><g
         id="matplotlib.axis_1-2" /><g
         id="matplotlib.axis_2-7" /><g
         id="patch_3-0"><path
           d="M 7.2,62.64 V 7.2"
           style="fill:none;stroke:#000000;stroke-width:0.8;stroke-linecap:square;stroke-linejoin:miter"
           id="path4-9" /></g><g
         id="patch_4-3"><path
           d="M 342,62.64 V 7.2"
           style="fill:none;stroke:#000000;stroke-width:0.8;stroke-linecap:square;stroke-linejoin:miter"
           id="path5" /></g><g
         id="patch_5-6"><path
           d="M 7.2,62.64 H 342"
           style="fill:none;stroke:#000000;stroke-width:0.8;stroke-linecap:square;stroke-linejoin:miter"
           id="path6-0" /></g><g
         id="patch_6-6"><path
           d="M 7.2,7.2 H 342"
           style="fill:none;stroke:#000000;stroke-width:0.8;stroke-linecap:square;stroke-linejoin:miter"
           id="path7" /></g></g></g></svg>
