<?xml version="1.0" encoding="UTF-8" standalone="no"?>
<svg
   width="69.839996pt"
   height="349.20001pt"
   viewBox="0 0 69.839994 349.20003"
   version="1.1"
   id="svg7"
   sodipodi:docname="dos_small_0-11.svg"
   inkscape:version="1.3.2 (091e20ef0f, 2023-11-25, custom)"
   inkscape:export-filename="dos_small_rotated.svg"
   inkscape:export-xdpi="96"
   inkscape:export-ydpi="96"
   xmlns:inkscape="http://www.inkscape.org/namespaces/inkscape"
   xmlns:sodipodi="http://sodipodi.sourceforge.net/DTD/sodipodi-0.dtd"
   xmlns="http://www.w3.org/2000/svg"
   xmlns:svg="http://www.w3.org/2000/svg"
   xmlns:rdf="http://www.w3.org/1999/02/22-rdf-syntax-ns#"
   xmlns:cc="http://creativecommons.org/ns#"
   xmlns:dc="http://purl.org/dc/elements/1.1/">
  <sodipodi:namedview
     id="namedview7"
     pagecolor="#ffffff"
     bordercolor="#000000"
     borderopacity="0.25"
     inkscape:showpageshadow="2"
     inkscape:pageopacity="0.0"
     inkscape:pagecheckerboard="0"
     inkscape:deskcolor="#d1d1d1"
     inkscape:document-units="pt"
     inkscape:zoom="1.4432989"
     inkscape:cx="-42.957145"
     inkscape:cy="186.37858"
     inkscape:window-width="1876"
     inkscape:window-height="1052"
     inkscape:window-x="0"
     inkscape:window-y="0"
     inkscape:window-maximized="1"
     inkscape:current-layer="svg7" />
  <metadata
     id="metadata1">
    <rdf:RDF>
      <cc:Work>
        <dc:type
           rdf:resource="http://purl.org/dc/dcmitype/StillImage" />
        <dc:date>2024-10-07T18:56:20.761079</dc:date>
        <dc:format>image/svg+xml</dc:format>
        <dc:creator>
          <cc:Agent>
            <dc:title>Matplotlib v3.9.2, https://matplotlib.org/</dc:title>
          </cc:Agent>
        </dc:creator>
      </cc:Work>
    </rdf:RDF>
  </metadata>
  <defs
     id="defs1">
    <style
       type="text/css"
       id="style1">*{stroke-linejoin: round; stroke-linecap: butt}</style>
  </defs>
  <g
     id="figure_1"
     transform="matrix(0,-1,-1,0,69.84,349.2)">
    <g
       id="patch_1">
      <path
         d="M 0,69.84 H 349.2 V 0 H 0 Z"
         style="fill:#ffffff"
         id="path1" />
    </g>
    <g
       id="axes_1">
      <g
         id="patch_2">
        <path
           d="M 7.2,62.64 H 342 V 7.2 H 7.2 Z"
           style="fill:#ffffff"
           id="path2" />
      </g>
      <g
         id="PolyCollection_1">
        <path
           d="m 21.756522,62.64 v -0.742839 l 2.911304,-0.214409 2.911304,-0.394043 2.911305,-0.318227 2.911304,-0.159034 2.911304,-0.09149 2.911305,-0.176569 2.911304,-0.274194 2.911305,-0.222792 2.911304,-0.515365 2.911304,-1.390086 2.911305,-1.876566 2.911304,-1.493281 2.911304,-1.964237 2.911305,-3.652908 2.911304,-5.162062 2.911304,-6.999136 2.911305,-6.927224 2.911304,-4.396643 2.911304,-1.698124 2.911305,0.597576 2.911304,0.792649 2.911304,-0.01576 2.911305,2.117963 2.911304,4.117864 2.911304,3.094083 2.911305,2.218049 2.911305,3.23475 2.9113,2.391504 2.91131,-0.85269 2.9113,-1.02762 2.91131,1.710964 2.9113,2.130103 2.91131,-0.737554 2.9113,-0.678716 2.9113,2.368378 2.91131,1.862616 2.9113,-0.155263 2.91131,0.824115 2.9113,2.341695 2.91131,2.331791 2.9113,1.937986 2.9113,0.665644 2.91131,-0.457882 2.9113,-1.757838 2.91131,-3.508728 2.9113,-2.539638 2.91131,1.240616 2.9113,1.281074 2.9113,-0.405664 2.91131,-0.256257 2.9113,0.12232 2.91131,0.44682 2.9113,-0.486113 2.91131,-1.815073 2.9113,-0.263324 2.9113,2.759117 2.91131,2.342812 2.9113,-1.203322 2.91131,-3.945841 2.9113,-1.881944 2.91131,3.996867 2.9113,3.59597 2.91131,-0.933406 2.9113,-2.126899 2.9113,0.467382 2.91131,1.851193 2.9113,0.889665 2.91131,-0.284319 2.9113,-0.897235 2.91131,-2.690491 2.9113,-6.891294 2.9113,-9.353469 2.91131,-5.289404 2.9113,1.058784 2.91131,4.682491 2.9113,4.970549 2.91131,5.790658 2.9113,5.32243 2.9113,1.799593 2.91131,-1.068958 2.9113,-1.050951 2.91131,0.448435 2.9113,1.922593 2.91131,1.869732 2.9113,0.547653 2.91131,-0.880897 2.9113,-0.519393 2.9113,-0.01301 2.91131,-1.140258 2.9113,-1.933821 2.91131,-3.941624 2.9113,-5.43895 2.91131,-6.283401 2.9113,-4.285276 2.91131,4.280847 2.9113,5.026055 2.9113,-2.568154 2.91131,-2.479206 2.9113,-3.165508 2.91131,-10.224748 2.9113,-10.132256 2.9113,3.827072 2.91131,19.978673 2.9113,17.358419 2.91131,7.108512 2.9113,2.928692 2.91131,1.296298 2.9113,0.278825 2.91131,0.02282 L 342,62.64 h 2.9113 2.91131 2.9113 2.91131 2.9113 2.91131 2.9113 2.9113 2.91131 2.9113 2.91131 2.9113 2.91131 2.9113 2.9113 2.91131 2.9113 2.91131 2.9113 2.91131 2.9113 2.91131 2.9113 2.9113 2.91131 2.9113 2.91131 2.9113 2.91131 2.9113 2.9113 2.91131 2.9113 2.91131 2.9113 2.91131 2.9113 2.91131 2.9113 2.9113 2.91131 2.9113 2.91131 2.9113 2.91131 2.9113 2.9113 2.91131 2.9113 2.91131 2.9113 2.91131 2.9113 2.91131 2.9113 2.9113 2.91131 2.9113 2.91131 2.9113 2.9113 2.91131 l 2.9113,-9.9e-4 2.91131,-0.03408 2.9113,-0.441437 2.91131,-2.277356 2.9113,-4.833509 2.91131,-3.690789 2.9113,-0.383047 2.9113,-1.015079 2.91131,-1.302639 2.9113,0.72193 2.91131,1.150699 2.9113,0.21853 2.91131,-0.490168 2.9113,-1.188519 2.9113,-2.737437 2.91131,-2.625569 2.9113,-1.781618 2.91131,-1.037906 2.9113,2.394905 2.91131,5.735548 2.9113,5.166483 2.91131,1.293975 2.9113,-2.078099 2.9113,-3.03381 2.91131,-1.764127 2.9113,0.113463 2.91131,1.673816 2.9113,3.11516 2.91131,0.795604 2.9113,-1.294935 2.9113,-0.536923 2.91131,0.816794 2.9113,-0.781664 2.91131,-2.193732 2.9113,-0.996504 2.91131,-2.344117 2.9113,-3.061537 2.91131,-0.182527 2.9113,0.704516 2.9113,0.209499 2.91131,0.465089 2.9113,1.796106 2.91131,1.498886 2.9113,-1.52919 2.9113,-4.482123 2.91131,-5.264233 2.9113,-1.984594 2.91131,3.393581 2.9113,4.272694 2.91131,3.102197 2.9113,2.410567 2.91131,0.737786 2.9113,-1.718569 2.9113,-2.708203 2.91131,-1.679646 2.9113,-3.744494 2.91131,-3.462032 2.9113,7.255355 2.91131,9.444374 2.9113,3.650066 2.9113,0.647603 2.91131,0.100718 2.9113,0.09689 2.91131,0.13711 2.9113,0.07179 2.91131,-0.155305 2.9113,-0.134908 2.9113,0.311457 2.91131,0.497761 2.9113,-0.173818 2.91131,-0.349669 2.9113,0.499091 2.91131,0.532878 2.9113,-0.02506 2.91131,0.221767 2.9113,0.821461 2.9113,1.024157 v 2.41967 0 h -2.9113 -2.9113 -2.91131 -2.9113 -2.91131 -2.9113 -2.91131 -2.9113 -2.91131 -2.9113 -2.9113 -2.91131 -2.9113 -2.91131 -2.9113 -2.91131 -2.9113 -2.9113 -2.91131 -2.9113 -2.91131 -2.9113 -2.91131 -2.9113 -2.9113 -2.91131 -2.9113 -2.91131 -2.9113 -2.91131 -2.9113 -2.91131 -2.9113 -2.9113 -2.91131 -2.9113 -2.91131 -2.9113 -2.9113 -2.91131 -2.9113 -2.91131 -2.9113 -2.91131 -2.9113 -2.91131 -2.9113 -2.9113 -2.91131 -2.9113 -2.91131 -2.9113 -2.91131 -2.9113 -2.9113 -2.91131 -2.9113 -2.91131 -2.9113 -2.91131 -2.9113 -2.91131 -2.9113 -2.9113 -2.91131 -2.9113 -2.91131 -2.9113 -2.91131 -2.9113 -2.9113 -2.91131 -2.9113 -2.91131 -2.9113 -2.91131 -2.9113 -2.91131 -2.9113 -2.9113 -2.91131 -2.9113 -2.91131 -2.9113 -2.9113 -2.91131 -2.9113 -2.91131 -2.9113 -2.91131 -2.9113 -2.91131 -2.9113 -2.9113 -2.91131 -2.9113 -2.91131 -2.9113 -2.91131 -2.9113 -2.9113 -2.91131 -2.9113 -2.91131 -2.9113 -2.91131 -2.9113 -2.91131 -2.9113 -2.9113 -2.91131 -2.9113 -2.91131 -2.9113 -2.91131 -2.9113 -2.9113 -2.91131 -2.9113 -2.91131 -2.9113 -2.91131 -2.9113 -2.91131 -2.9113 -2.9113 -2.91131 -2.9113 -2.91131 -2.9113 -2.91131 -2.9113 -2.9113 -2.91131 -2.9113 -2.91131 -2.9113 -2.91131 -2.9113 -2.9113 -2.91131 -2.9113 -2.91131 -2.9113 -2.91131 -2.9113 -2.91131 -2.9113 -2.9113 -2.91131 -2.9113 -2.91131 -2.9113 -2.9113 -2.91131 -2.9113 -2.91131 -2.9113 -2.91131 -2.9113 -2.91131 -2.9113 -2.9113 -2.91131 -2.9113 -2.91131 -2.9113 -2.91131 -2.9113 -2.91131 -2.9113 -2.9113 -2.91131 -2.9113 -2.91131 -2.9113 -2.91131 -2.9113 -2.9113 -2.91131 -2.9113 -2.91131 -2.9113 -2.91131 -2.9113 -2.9113 -2.91131 -2.9113 -2.91131 -2.9113 -2.91131 -2.9113 -2.91131 -2.9113 -2.9113 -2.91131 -2.9113 -2.91131 -2.9113 -2.91131 -2.9113 -2.9113 -2.91131 -2.9113 -2.91131 -2.9113 -2.91131 -2.9113 -2.9113 -2.91131 -2.9113 -2.91131 -2.9113 -2.91131 -2.9113 -2.9113 -2.91131 -2.9113 -2.91131 -2.9113 -2.91131 -2.9113 H 97.450435 94.53913 91.627826 88.716522 85.805217 82.893913 79.982609 77.071304 74.16 71.248696 68.337391 65.426087 62.514783 59.603478 56.692174 53.78087 50.869565 47.958261 45.046957 42.135652 39.224348 36.313043 33.401739 30.490435 27.57913 24.667826 Z"
           clip-path="url(#p47e690d9c2)"
           style="fill:#808080;stroke:#000000"
           id="path3" />
      </g>
      <g
         id="matplotlib.axis_1" />
      <g
         id="matplotlib.axis_2" />
      <g
         id="patch_3">
        <path
           d="M 7.2,62.64 V 7.2"
           style="fill:none;stroke:#000000;stroke-width:0.8;stroke-linecap:square;stroke-linejoin:miter"
           id="path4" />
      </g>
      <g
         id="patch_4">
        <path
           d="M 342,62.64 V 7.2"
           style="fill:none;stroke:#000000;stroke-width:0.8;stroke-linecap:square;stroke-linejoin:miter"
           id="path5" />
      </g>
      <g
         id="patch_5">
        <path
           d="M 7.2,62.64 H 342"
           style="fill:none;stroke:#000000;stroke-width:0.8;stroke-linecap:square;stroke-linejoin:miter"
           id="path6" />
      </g>
      <g
         id="patch_6">
        <path
           d="M 7.2,7.2 H 342"
           style="fill:none;stroke:#000000;stroke-width:0.8;stroke-linecap:square;stroke-linejoin:miter"
           id="path7" />
      </g>
    </g>
  </g>
  <defs
     id="defs7">
    <clipPath
       id="p47e690d9c2">
      <rect
         x="7.1999998"
         y="7.1999998"
         width="334.79999"
         height="55.439999"
         id="rect7" />
    </clipPath>
  </defs>
</svg>
