<?xml version="1.0" encoding="UTF-8" standalone="no"?>
<!DOCTYPE svg PUBLIC "-//W3C//DTD SVG 1.1//EN" "http://www.w3.org/Graphics/SVG/1.1/DTD/svg11.dtd">
<svg xmlns:xlink="http://www.w3.org/1999/xlink" width="398.560625pt" height="300.989344pt" viewBox="0 0 398.560625 300.989344" xmlns="http://www.w3.org/2000/svg" version="1.1">
 <metadata>
  <rdf:RDF xmlns:dc="http://purl.org/dc/elements/1.1/" xmlns:cc="http://creativecommons.org/ns#" xmlns:rdf="http://www.w3.org/1999/02/22-rdf-syntax-ns#">
   <cc:Work>
    <dc:type rdf:resource="http://purl.org/dc/dcmitype/StillImage"/>
    <dc:date>2024-10-01T00:37:48.812793</dc:date>
    <dc:format>image/svg+xml</dc:format>
    <dc:creator>
     <cc:Agent>
      <dc:title>Matplotlib v3.9.2, https://matplotlib.org/</dc:title>
     </cc:Agent>
    </dc:creator>
   </cc:Work>
  </rdf:RDF>
 </metadata>
 <defs>
  <style type="text/css">*{stroke-linejoin: round; stroke-linecap: butt}</style>
 </defs>
 <g id="figure_1">
  <g id="patch_1">
   <path d="M 0 300.989344  L 398.560625 300.989344  L 398.560625 0  L 0 0  z " style="fill: #ffffff"/>
  </g>
  <g id="axes_1">
   <g id="patch_2">
    <path d="M 34.240625 277.111219  L 391.360625 277.111219  L 391.360625 10.999219  L 34.240625 10.999219  z " style="fill: #ffffff"/>
   </g>
   <g id="matplotlib.axis_1">
    <g id="xtick_1">
     <g id="line2d_1">
      <path d="M 50.473352 277.111219  L 50.473352 10.999219  " clip-path="url(#p87fb032468)" style="fill: none; stroke: #b0b0b0; stroke-width: 0.8; stroke-linecap: square"/>
     </g>
     <g id="line2d_2">
      <defs>
       <path id="m0305ddb487" d="M 0 0  L 0 3.5  " style="stroke: #000000; stroke-width: 0.8"/>
      </defs>
      <g>
       <use xlink:href="#m0305ddb487" x="50.473352" y="277.111219" style="stroke: #000000; stroke-width: 0.8"/>
      </g>
     </g>
     <g id="text_1">
      <!-- G -->
      <g transform="translate(46.599134 291.709656) scale(0.1 -0.1)">
       <defs>
        <path id="DejaVuSans-47" d="M 3809 666  L 3809 1919  L 2778 1919  L 2778 2438  L 4434 2438  L 4434 434  Q 4069 175 3628 42  Q 3188 -91 2688 -91  Q 1594 -91 976 548  Q 359 1188 359 2328  Q 359 3472 976 4111  Q 1594 4750 2688 4750  Q 3144 4750 3555 4637  Q 3966 4525 4313 4306  L 4313 3634  Q 3963 3931 3569 4081  Q 3175 4231 2741 4231  Q 1884 4231 1454 3753  Q 1025 3275 1025 2328  Q 1025 1384 1454 906  Q 1884 428 2741 428  Q 3075 428 3337 486  Q 3600 544 3809 666  z " transform="scale(0.015625)"/>
       </defs>
       <use xlink:href="#DejaVuSans-47"/>
      </g>
     </g>
    </g>
    <g id="xtick_2">
     <g id="line2d_3">
      <path d="M 95.601557 277.111219  L 95.601557 10.999219  " clip-path="url(#p87fb032468)" style="fill: none; stroke: #b0b0b0; stroke-width: 0.8; stroke-linecap: square"/>
     </g>
     <g id="line2d_4">
      <g>
       <use xlink:href="#m0305ddb487" x="95.601557" y="277.111219" style="stroke: #000000; stroke-width: 0.8"/>
      </g>
     </g>
     <g id="text_2">
      <!-- A -->
      <g transform="translate(92.181245 291.709656) scale(0.1 -0.1)">
       <defs>
        <path id="DejaVuSans-41" d="M 2188 4044  L 1331 1722  L 3047 1722  L 2188 4044  z M 1831 4666  L 2547 4666  L 4325 0  L 3669 0  L 3244 1197  L 1141 1197  L 716 0  L 50 0  L 1831 4666  z " transform="scale(0.015625)"/>
       </defs>
       <use xlink:href="#DejaVuSans-41"/>
      </g>
     </g>
    </g>
    <g id="xtick_3">
     <g id="line2d_5">
      <path d="M 168.070493 277.111219  L 168.070493 10.999219  " clip-path="url(#p87fb032468)" style="fill: none; stroke: #b0b0b0; stroke-width: 0.8; stroke-linecap: square"/>
     </g>
     <g id="line2d_6">
      <g>
       <use xlink:href="#m0305ddb487" x="168.070493" y="277.111219" style="stroke: #000000; stroke-width: 0.8"/>
      </g>
     </g>
     <g id="text_3">
      <!-- K -->
      <g transform="translate(164.791587 291.709656) scale(0.1 -0.1)">
       <defs>
        <path id="DejaVuSans-4b" d="M 628 4666  L 1259 4666  L 1259 2694  L 3353 4666  L 4166 4666  L 1850 2491  L 4331 0  L 3500 0  L 1259 2247  L 1259 0  L 628 0  L 628 4666  z " transform="scale(0.015625)"/>
       </defs>
       <use xlink:href="#DejaVuSans-4b"/>
      </g>
     </g>
    </g>
    <g id="xtick_4">
     <g id="line2d_7">
      <path d="M 213.198698 277.111219  L 213.198698 10.999219  " clip-path="url(#p87fb032468)" style="fill: none; stroke: #b0b0b0; stroke-width: 0.8; stroke-linecap: square"/>
     </g>
     <g id="line2d_8">
      <g>
       <use xlink:href="#m0305ddb487" x="213.198698" y="277.111219" style="stroke: #000000; stroke-width: 0.8"/>
      </g>
     </g>
     <g id="text_4">
      <!-- H -->
      <g transform="translate(209.438542 291.709656) scale(0.1 -0.1)">
       <defs>
        <path id="DejaVuSans-48" d="M 628 4666  L 1259 4666  L 1259 2753  L 3553 2753  L 3553 4666  L 4184 4666  L 4184 0  L 3553 0  L 3553 2222  L 1259 2222  L 1259 0  L 628 0  L 628 4666  z " transform="scale(0.015625)"/>
       </defs>
       <use xlink:href="#DejaVuSans-48"/>
      </g>
     </g>
    </g>
    <g id="xtick_5">
     <g id="line2d_9">
      <path d="M 266.49582 277.111219  L 266.49582 10.999219  " clip-path="url(#p87fb032468)" style="fill: none; stroke: #b0b0b0; stroke-width: 0.8; stroke-linecap: square"/>
     </g>
     <g id="line2d_10">
      <g>
       <use xlink:href="#m0305ddb487" x="266.49582" y="277.111219" style="stroke: #000000; stroke-width: 0.8"/>
      </g>
     </g>
     <g id="text_5">
      <!-- M -->
      <g transform="translate(262.181757 291.709656) scale(0.1 -0.1)">
       <defs>
        <path id="DejaVuSans-4d" d="M 628 4666  L 1569 4666  L 2759 1491  L 3956 4666  L 4897 4666  L 4897 0  L 4281 0  L 4281 4097  L 3078 897  L 2444 897  L 1241 4097  L 1241 0  L 628 0  L 628 4666  z " transform="scale(0.015625)"/>
       </defs>
       <use xlink:href="#DejaVuSans-4d"/>
      </g>
     </g>
    </g>
    <g id="xtick_6">
     <g id="line2d_11">
      <path d="M 311.624025 277.111219  L 311.624025 10.999219  " clip-path="url(#p87fb032468)" style="fill: none; stroke: #b0b0b0; stroke-width: 0.8; stroke-linecap: square"/>
     </g>
     <g id="line2d_12">
      <g>
       <use xlink:href="#m0305ddb487" x="311.624025" y="277.111219" style="stroke: #000000; stroke-width: 0.8"/>
      </g>
     </g>
     <g id="text_6">
      <!-- L -->
      <g transform="translate(308.838087 291.709656) scale(0.1 -0.1)">
       <defs>
        <path id="DejaVuSans-4c" d="M 628 4666  L 1259 4666  L 1259 531  L 3531 531  L 3531 0  L 628 0  L 628 4666  z " transform="scale(0.015625)"/>
       </defs>
       <use xlink:href="#DejaVuSans-4c"/>
      </g>
     </g>
    </g>
    <g id="xtick_7">
     <g id="line2d_13">
      <path d="M 378.313991 277.111219  L 378.313991 10.999219  " clip-path="url(#p87fb032468)" style="fill: none; stroke: #b0b0b0; stroke-width: 0.8; stroke-linecap: square"/>
     </g>
     <g id="line2d_14">
      <g>
       <use xlink:href="#m0305ddb487" x="378.313991" y="277.111219" style="stroke: #000000; stroke-width: 0.8"/>
      </g>
     </g>
     <g id="text_7">
      <!-- G -->
      <g transform="translate(374.439772 291.709656) scale(0.1 -0.1)">
       <use xlink:href="#DejaVuSans-47"/>
      </g>
     </g>
    </g>
   </g>
   <g id="matplotlib.axis_2">
    <g id="ytick_1">
     <g id="line2d_15">
      <defs>
       <path id="m5d9a370709" d="M 0 0  L -3.5 0  " style="stroke: #000000; stroke-width: 0.8"/>
      </defs>
      <g>
       <use xlink:href="#m5d9a370709" x="34.240625" y="252.919219" style="stroke: #000000; stroke-width: 0.8"/>
      </g>
     </g>
     <g id="text_8">
      <!-- 0 -->
      <g transform="translate(20.878125 256.718437) scale(0.1 -0.1)">
       <defs>
        <path id="DejaVuSans-30" d="M 2034 4250  Q 1547 4250 1301 3770  Q 1056 3291 1056 2328  Q 1056 1369 1301 889  Q 1547 409 2034 409  Q 2525 409 2770 889  Q 3016 1369 3016 2328  Q 3016 3291 2770 3770  Q 2525 4250 2034 4250  z M 2034 4750  Q 2819 4750 3233 4129  Q 3647 3509 3647 2328  Q 3647 1150 3233 529  Q 2819 -91 2034 -91  Q 1250 -91 836 529  Q 422 1150 422 2328  Q 422 3509 836 4129  Q 1250 4750 2034 4750  z " transform="scale(0.015625)"/>
       </defs>
       <use xlink:href="#DejaVuSans-30"/>
      </g>
     </g>
    </g>
    <g id="ytick_2">
     <g id="line2d_16">
      <g>
       <use xlink:href="#m5d9a370709" x="34.240625" y="204.535219" style="stroke: #000000; stroke-width: 0.8"/>
      </g>
     </g>
     <g id="text_9">
      <!-- 1 -->
      <g transform="translate(20.878125 208.334437) scale(0.1 -0.1)">
       <defs>
        <path id="DejaVuSans-31" d="M 794 531  L 1825 531  L 1825 4091  L 703 3866  L 703 4441  L 1819 4666  L 2450 4666  L 2450 531  L 3481 531  L 3481 0  L 794 0  L 794 531  z " transform="scale(0.015625)"/>
       </defs>
       <use xlink:href="#DejaVuSans-31"/>
      </g>
     </g>
    </g>
    <g id="ytick_3">
     <g id="line2d_17">
      <g>
       <use xlink:href="#m5d9a370709" x="34.240625" y="156.151219" style="stroke: #000000; stroke-width: 0.8"/>
      </g>
     </g>
     <g id="text_10">
      <!-- 2 -->
      <g transform="translate(20.878125 159.950437) scale(0.1 -0.1)">
       <defs>
        <path id="DejaVuSans-32" d="M 1228 531  L 3431 531  L 3431 0  L 469 0  L 469 531  Q 828 903 1448 1529  Q 2069 2156 2228 2338  Q 2531 2678 2651 2914  Q 2772 3150 2772 3378  Q 2772 3750 2511 3984  Q 2250 4219 1831 4219  Q 1534 4219 1204 4116  Q 875 4013 500 3803  L 500 4441  Q 881 4594 1212 4672  Q 1544 4750 1819 4750  Q 2544 4750 2975 4387  Q 3406 4025 3406 3419  Q 3406 3131 3298 2873  Q 3191 2616 2906 2266  Q 2828 2175 2409 1742  Q 1991 1309 1228 531  z " transform="scale(0.015625)"/>
       </defs>
       <use xlink:href="#DejaVuSans-32"/>
      </g>
     </g>
    </g>
    <g id="ytick_4">
     <g id="line2d_18">
      <g>
       <use xlink:href="#m5d9a370709" x="34.240625" y="107.767219" style="stroke: #000000; stroke-width: 0.8"/>
      </g>
     </g>
     <g id="text_11">
      <!-- 3 -->
      <g transform="translate(20.878125 111.566437) scale(0.1 -0.1)">
       <defs>
        <path id="DejaVuSans-33" d="M 2597 2516  Q 3050 2419 3304 2112  Q 3559 1806 3559 1356  Q 3559 666 3084 287  Q 2609 -91 1734 -91  Q 1441 -91 1130 -33  Q 819 25 488 141  L 488 750  Q 750 597 1062 519  Q 1375 441 1716 441  Q 2309 441 2620 675  Q 2931 909 2931 1356  Q 2931 1769 2642 2001  Q 2353 2234 1838 2234  L 1294 2234  L 1294 2753  L 1863 2753  Q 2328 2753 2575 2939  Q 2822 3125 2822 3475  Q 2822 3834 2567 4026  Q 2313 4219 1838 4219  Q 1578 4219 1281 4162  Q 984 4106 628 3988  L 628 4550  Q 988 4650 1302 4700  Q 1616 4750 1894 4750  Q 2613 4750 3031 4423  Q 3450 4097 3450 3541  Q 3450 3153 3228 2886  Q 3006 2619 2597 2516  z " transform="scale(0.015625)"/>
       </defs>
       <use xlink:href="#DejaVuSans-33"/>
      </g>
     </g>
    </g>
    <g id="ytick_5">
     <g id="line2d_19">
      <g>
       <use xlink:href="#m5d9a370709" x="34.240625" y="59.383219" style="stroke: #000000; stroke-width: 0.8"/>
      </g>
     </g>
     <g id="text_12">
      <!-- 4 -->
      <g transform="translate(20.878125 63.182437) scale(0.1 -0.1)">
       <defs>
        <path id="DejaVuSans-34" d="M 2419 4116  L 825 1625  L 2419 1625  L 2419 4116  z M 2253 4666  L 3047 4666  L 3047 1625  L 3713 1625  L 3713 1100  L 3047 1100  L 3047 0  L 2419 0  L 2419 1100  L 313 1100  L 313 1709  L 2253 4666  z " transform="scale(0.015625)"/>
       </defs>
       <use xlink:href="#DejaVuSans-34"/>
      </g>
     </g>
    </g>
    <g id="ytick_6">
     <g id="line2d_20">
      <g>
       <use xlink:href="#m5d9a370709" x="34.240625" y="10.999219" style="stroke: #000000; stroke-width: 0.8"/>
      </g>
     </g>
     <g id="text_13">
      <!-- 5 -->
      <g transform="translate(20.878125 14.798437) scale(0.1 -0.1)">
       <defs>
        <path id="DejaVuSans-35" d="M 691 4666  L 3169 4666  L 3169 4134  L 1269 4134  L 1269 2991  Q 1406 3038 1543 3061  Q 1681 3084 1819 3084  Q 2600 3084 3056 2656  Q 3513 2228 3513 1497  Q 3513 744 3044 326  Q 2575 -91 1722 -91  Q 1428 -91 1123 -41  Q 819 9 494 109  L 494 744  Q 775 591 1075 516  Q 1375 441 1709 441  Q 2250 441 2565 725  Q 2881 1009 2881 1497  Q 2881 1984 2565 2268  Q 2250 2553 1709 2553  Q 1456 2553 1204 2497  Q 953 2441 691 2322  L 691 4666  z " transform="scale(0.015625)"/>
       </defs>
       <use xlink:href="#DejaVuSans-35"/>
      </g>
     </g>
    </g>
    <g id="text_14">
     <!-- Frequency (THz) -->
     <g transform="translate(14.798438 184.813812) rotate(-90) scale(0.1 -0.1)">
      <defs>
       <path id="DejaVuSans-46" d="M 628 4666  L 3309 4666  L 3309 4134  L 1259 4134  L 1259 2759  L 3109 2759  L 3109 2228  L 1259 2228  L 1259 0  L 628 0  L 628 4666  z " transform="scale(0.015625)"/>
       <path id="DejaVuSans-72" d="M 2631 2963  Q 2534 3019 2420 3045  Q 2306 3072 2169 3072  Q 1681 3072 1420 2755  Q 1159 2438 1159 1844  L 1159 0  L 581 0  L 581 3500  L 1159 3500  L 1159 2956  Q 1341 3275 1631 3429  Q 1922 3584 2338 3584  Q 2397 3584 2469 3576  Q 2541 3569 2628 3553  L 2631 2963  z " transform="scale(0.015625)"/>
       <path id="DejaVuSans-65" d="M 3597 1894  L 3597 1613  L 953 1613  Q 991 1019 1311 708  Q 1631 397 2203 397  Q 2534 397 2845 478  Q 3156 559 3463 722  L 3463 178  Q 3153 47 2828 -22  Q 2503 -91 2169 -91  Q 1331 -91 842 396  Q 353 884 353 1716  Q 353 2575 817 3079  Q 1281 3584 2069 3584  Q 2775 3584 3186 3129  Q 3597 2675 3597 1894  z M 3022 2063  Q 3016 2534 2758 2815  Q 2500 3097 2075 3097  Q 1594 3097 1305 2825  Q 1016 2553 972 2059  L 3022 2063  z " transform="scale(0.015625)"/>
       <path id="DejaVuSans-71" d="M 947 1747  Q 947 1113 1208 752  Q 1469 391 1925 391  Q 2381 391 2643 752  Q 2906 1113 2906 1747  Q 2906 2381 2643 2742  Q 2381 3103 1925 3103  Q 1469 3103 1208 2742  Q 947 2381 947 1747  z M 2906 525  Q 2725 213 2448 61  Q 2172 -91 1784 -91  Q 1150 -91 751 415  Q 353 922 353 1747  Q 353 2572 751 3078  Q 1150 3584 1784 3584  Q 2172 3584 2448 3432  Q 2725 3281 2906 2969  L 2906 3500  L 3481 3500  L 3481 -1331  L 2906 -1331  L 2906 525  z " transform="scale(0.015625)"/>
       <path id="DejaVuSans-75" d="M 544 1381  L 544 3500  L 1119 3500  L 1119 1403  Q 1119 906 1312 657  Q 1506 409 1894 409  Q 2359 409 2629 706  Q 2900 1003 2900 1516  L 2900 3500  L 3475 3500  L 3475 0  L 2900 0  L 2900 538  Q 2691 219 2414 64  Q 2138 -91 1772 -91  Q 1169 -91 856 284  Q 544 659 544 1381  z M 1991 3584  L 1991 3584  z " transform="scale(0.015625)"/>
       <path id="DejaVuSans-6e" d="M 3513 2113  L 3513 0  L 2938 0  L 2938 2094  Q 2938 2591 2744 2837  Q 2550 3084 2163 3084  Q 1697 3084 1428 2787  Q 1159 2491 1159 1978  L 1159 0  L 581 0  L 581 3500  L 1159 3500  L 1159 2956  Q 1366 3272 1645 3428  Q 1925 3584 2291 3584  Q 2894 3584 3203 3211  Q 3513 2838 3513 2113  z " transform="scale(0.015625)"/>
       <path id="DejaVuSans-63" d="M 3122 3366  L 3122 2828  Q 2878 2963 2633 3030  Q 2388 3097 2138 3097  Q 1578 3097 1268 2742  Q 959 2388 959 1747  Q 959 1106 1268 751  Q 1578 397 2138 397  Q 2388 397 2633 464  Q 2878 531 3122 666  L 3122 134  Q 2881 22 2623 -34  Q 2366 -91 2075 -91  Q 1284 -91 818 406  Q 353 903 353 1747  Q 353 2603 823 3093  Q 1294 3584 2113 3584  Q 2378 3584 2631 3529  Q 2884 3475 3122 3366  z " transform="scale(0.015625)"/>
       <path id="DejaVuSans-79" d="M 2059 -325  Q 1816 -950 1584 -1140  Q 1353 -1331 966 -1331  L 506 -1331  L 506 -850  L 844 -850  Q 1081 -850 1212 -737  Q 1344 -625 1503 -206  L 1606 56  L 191 3500  L 800 3500  L 1894 763  L 2988 3500  L 3597 3500  L 2059 -325  z " transform="scale(0.015625)"/>
       <path id="DejaVuSans-20" transform="scale(0.015625)"/>
       <path id="DejaVuSans-28" d="M 1984 4856  Q 1566 4138 1362 3434  Q 1159 2731 1159 2009  Q 1159 1288 1364 580  Q 1569 -128 1984 -844  L 1484 -844  Q 1016 -109 783 600  Q 550 1309 550 2009  Q 550 2706 781 3412  Q 1013 4119 1484 4856  L 1984 4856  z " transform="scale(0.015625)"/>
       <path id="DejaVuSans-54" d="M -19 4666  L 3928 4666  L 3928 4134  L 2272 4134  L 2272 0  L 1638 0  L 1638 4134  L -19 4134  L -19 4666  z " transform="scale(0.015625)"/>
       <path id="DejaVuSans-7a" d="M 353 3500  L 3084 3500  L 3084 2975  L 922 459  L 3084 459  L 3084 0  L 275 0  L 275 525  L 2438 3041  L 353 3041  L 353 3500  z " transform="scale(0.015625)"/>
       <path id="DejaVuSans-29" d="M 513 4856  L 1013 4856  Q 1481 4119 1714 3412  Q 1947 2706 1947 2009  Q 1947 1309 1714 600  Q 1481 -109 1013 -844  L 513 -844  Q 928 -128 1133 580  Q 1338 1288 1338 2009  Q 1338 2731 1133 3434  Q 928 4138 513 4856  z " transform="scale(0.015625)"/>
      </defs>
      <use xlink:href="#DejaVuSans-46"/>
      <use xlink:href="#DejaVuSans-72" x="50.269531"/>
      <use xlink:href="#DejaVuSans-65" x="89.132812"/>
      <use xlink:href="#DejaVuSans-71" x="150.65625"/>
      <use xlink:href="#DejaVuSans-75" x="214.132812"/>
      <use xlink:href="#DejaVuSans-65" x="277.511719"/>
      <use xlink:href="#DejaVuSans-6e" x="339.035156"/>
      <use xlink:href="#DejaVuSans-63" x="402.414062"/>
      <use xlink:href="#DejaVuSans-79" x="457.394531"/>
      <use xlink:href="#DejaVuSans-20" x="516.574219"/>
      <use xlink:href="#DejaVuSans-28" x="548.361328"/>
      <use xlink:href="#DejaVuSans-54" x="587.375"/>
      <use xlink:href="#DejaVuSans-48" x="648.458984"/>
      <use xlink:href="#DejaVuSans-7a" x="723.654297"/>
      <use xlink:href="#DejaVuSans-29" x="776.144531"/>
     </g>
    </g>
   </g>
   <g id="line2d_21">
    <path d="M 50.473352 266.905582  L 51.385071 266.452224  L 52.29679 264.991511  L 53.208509 262.054118  L 54.120222 261.087406  L 55.031941 261.433351  L 55.94366 261.531571  L 56.855379 261.386419  L 57.767098 260.982896  L 58.678817 260.276974  L 59.59053 259.164625  L 60.502249 257.348774  L 61.413968 250.918057  L 62.325687 247.274741  L 63.237406 244.92473  L 65.060837 241.067558  L 67.795994 236.025945  L 71.442864 229.883596  L 75.08974 224.16364  L 78.73661 218.8414  L 82.383479 213.966712  L 85.118636 210.647086  L 87.853787 207.644375  L 90.588944 204.965836  L 93.324101 202.589698  L 95.147533 201.150274  L 95.147533 201.150274  L 96.612668 201.743946  L 98.077803 202.147468  L 99.542932 202.384066  L 102.473203 202.47648  L 105.403467 202.254881  L 109.798873 201.676692  L 115.659408 200.668853  L 118.589673 199.970188  L 121.519943 198.979284  L 122.985072 198.320778  L 124.450208 197.526796  L 125.915343 196.58476  L 127.380472 195.490314  L 130.310743 192.904189  L 133.241007 190.105175  L 134.706142 188.851545  L 136.171278 187.849996  L 137.636413 187.169717  L 139.101542 186.785548  L 142.031813 186.478794  L 144.962077 186.081077  L 146.427213 185.682877  L 147.892348 185.113397  L 149.357483 184.367316  L 150.822612 183.454794  L 155.218012 180.324833  L 156.683147 179.945018  L 158.148283 180.10904  L 162.543682 181.031239  L 165.473953 181.435729  L 167.850801 181.544593  L 170.585958 181.374766  L 174.232828 180.86625  L 178.791416 180.092106  L 180.614854 180.048076  L 182.438292 180.35725  L 186.085162 181.266385  L 187.9086 181.424117  L 189.732032 181.242677  L 191.55547 180.677068  L 193.378908 179.708421  L 195.202339 178.336734  L 197.025777 176.576041  L 198.849215 174.453918  L 200.672653 172.010042  L 203.407804 167.869824  L 206.142961 163.572357  L 207.054674 162.323566  L 207.966393 161.271214  L 209.789831 159.630512  L 211.613269 158.378334  L 211.613269 158.378334  L 213.767401 159.316984  L 214.844464 159.976458  L 215.921533 160.884625  L 216.998596 162.111644  L 222.38393 169.178611  L 224.538062 171.489431  L 226.692201 173.326087  L 228.846333 174.663905  L 231.000466 175.533849  L 233.154598 176.024947  L 236.3858 176.351055  L 240.694064 176.712483  L 242.848196 177.175034  L 245.002329 178.076428  L 248.23353 179.968727  L 252.541795 182.538885  L 255.772997 184.162168  L 257.927129 185.018081  L 260.081261 185.653847  L 262.235393 186.045757  L 264.389532 186.178329  L 264.389532 186.178329  L 266.212964 186.081561  L 268.036402 185.793193  L 269.85984 185.317578  L 271.683271 184.661007  L 273.506709 183.833157  L 276.24186 182.295997  L 278.977017 180.445793  L 281.712174 178.339153  L 286.270763 174.46553  L 291.74107 169.612615  L 295.38794 166.034135  L 297.211378 165.457397  L 299.034816 164.700672  L 300.858248 163.721863  L 302.681686 162.498232  L 304.505124 161.025423  L 307.240274 158.402526  L 309.063712 156.495713  L 309.063712 156.495713  L 310.411962 157.540807  L 313.108456 160.07758  L 321.197949 168.20706  L 323.894449 170.615132  L 327.939193 173.962821  L 329.287443 175.313702  L 330.635693 177.045365  L 331.983936 179.028625  L 333.332187 181.221388  L 334.680437 183.645427  L 336.028687 186.337513  L 337.376937 189.333934  L 338.72518 192.662269  L 340.07343 196.337034  L 342.76993 204.721497  L 345.466424 214.421038  L 348.162924 225.557099  L 349.511174 231.999913  L 350.859424 239.946017  L 352.207667 260.51841  L 353.555917 268.424839  L 354.904167 272.434905  L 356.252417 274.855073  L 357.600667 276.251435  L 358.948911 276.882362  L 360.297161 276.898329  L 361.645411 276.402877  L 362.993661 275.474388  L 364.341911 274.181084  L 365.690154 272.585863  L 368.386654 268.784332  L 369.734904 266.82478  L 371.083154 265.328747  L 372.431398 265.449707  L 373.779648 266.481254  L 375.127898 266.905582  L 375.127898 266.905582  " clip-path="url(#p87fb032468)" style="fill: none; stroke: #008000; stroke-width: 1.5; stroke-linecap: square"/>
   </g>
   <g id="line2d_22">
    <path d="M 50.473352 256.21175  L 51.385071 258.020828  L 52.29679 259.495088  L 53.208509 260.46422  L 55.031941 242.178938  L 55.94366 238.69529  L 58.678817 234.258478  L 62.325687 228.834147  L 65.972556 223.823017  L 69.619432 219.170895  L 73.266302 214.853107  L 76.913171 210.849815  L 80.560048 207.131504  L 85.118636 202.810813  L 90.588944 197.936125  L 94.235813 200.467576  L 95.147533 201.150274  L 95.147533 201.150274  L 96.612668 200.354841  L 101.008068 197.436802  L 102.473203 197.086986  L 106.868603 196.562987  L 109.798873 195.895772  L 112.729138 194.983249  L 115.659408 193.865579  L 118.589673 192.547599  L 121.519943 191.028341  L 125.915343 188.427217  L 139.101542 180.199034  L 142.031813 178.687034  L 144.962077 177.515174  L 146.427213 177.071009  L 147.892348 176.764254  L 149.357483 176.657809  L 150.822612 176.794736  L 153.752883 177.505497  L 155.218012 177.652585  L 156.683147 177.095201  L 158.148283 175.878343  L 164.008818 170.08194  L 165.473953 168.970076  L 166.939082 168.218188  L 166.939082 168.218188  L 167.850801 168.276249  L 168.76252 168.457205  L 169.674239 168.771701  L 171.497677 169.767444  L 173.321109 171.09123  L 177.879697 174.639229  L 179.703135 175.679001  L 180.614854 175.999787  L 181.526573 176.156551  L 182.438292 176.155584  L 184.261724 175.797542  L 186.085162 175.157905  L 188.820319 173.945402  L 192.467189 172.05891  L 195.202339 170.431273  L 197.937496 168.567521  L 200.672653 166.452656  L 203.407804 164.102645  L 205.231242 162.373401  L 207.054674 160.278858  L 208.878112 157.648704  L 209.789831 157.48952  L 211.613269 158.378334  L 211.613269 158.378334  L 212.690332 157.723215  L 213.767401 157.223408  L 214.844464 157.695636  L 215.921533 158.857336  L 216.998596 159.770826  L 219.152735 161.090257  L 223.460999 163.26657  L 227.769264 165.525135  L 235.30873 169.800829  L 240.694064 173.400599  L 242.848196 174.529397  L 243.925266 174.911631  L 246.079398 175.30838  L 248.23353 175.407083  L 251.464732 175.319508  L 256.850066 174.925178  L 262.235393 174.532784  L 265.301245 174.499399  L 268.948121 174.751964  L 274.418428 175.226611  L 277.153579 175.2479  L 279.888736 174.983239  L 281.712174 174.59907  L 283.535606 174.014592  L 285.359044 173.19787  L 287.182482 172.11552  L 289.005913 170.752058  L 291.74107 168.297054  L 293.564502 166.504911  L 294.476221 166.273152  L 295.38794 165.855598  L 302.681686 157.780308  L 304.505124 156.054451  L 305.416836 155.2895  L 306.328555 154.752437  L 307.240274 154.875333  L 308.151993 155.588029  L 309.063712 156.495713  L 309.063712 156.495713  L 310.411962 155.66254  L 311.760206 155.075159  L 313.108456 154.819207  L 314.456706 155.359173  L 315.804956 156.863915  L 319.849699 162.29889  L 325.242693 169.430691  L 327.939193 172.798702  L 329.287443 174.223127  L 330.635693 175.314186  L 336.028687 179.149102  L 338.72518 181.547013  L 341.42168 184.529886  L 344.11818 188.090465  L 346.814674 192.156656  L 349.511174 196.65782  L 352.207667 201.543636  L 354.904167 206.778785  L 358.948911 215.233405  L 362.993661 224.415721  L 365.690154 231.144967  L 367.038404 234.902953  L 368.386654 239.17526  L 369.734904 244.410892  L 371.083154 256.417382  L 372.431398 259.213493  L 373.779648 258.016473  L 375.127898 256.21175  L 375.127898 256.21175  " clip-path="url(#p87fb032468)" style="fill: none; stroke: #008000; stroke-width: 1.5; stroke-linecap: square"/>
   </g>
   <g id="line2d_23">
    <path d="M 50.473352 250.782581  L 51.385071 248.071142  L 52.29679 245.710003  L 54.120222 241.947663  L 55.031941 240.280834  L 55.94366 237.059911  L 57.767098 228.506104  L 60.502249 217.069578  L 63.237406 206.505899  L 65.060837 200.051473  L 66.884275 194.532794  L 67.795994 192.404866  L 68.707713 190.866739  L 69.619432 189.922767  L 70.531151 189.443281  L 71.442864 189.268131  L 72.354583 189.281195  L 74.178021 189.624238  L 76.001459 190.202426  L 78.73661 191.313807  L 82.383479 193.089016  L 86.030355 195.110499  L 89.677225 197.342937  L 90.588944 197.935157  L 95.147533 194.035891  L 95.147533 194.035891  L 96.612668 194.719073  L 98.077803 195.211622  L 99.542932 195.412899  L 101.008068 195.005022  L 102.473203 193.719459  L 103.938338 191.881835  L 106.868603 187.44599  L 109.798873 182.870315  L 111.264002 180.996887  L 112.729138 179.409891  L 115.659408 176.699904  L 118.589673 174.42392  L 121.519943 172.523881  L 124.450208 170.94753  L 127.380472 169.646  L 130.310743 168.637194  L 131.775878 168.338665  L 133.241007 168.397209  L 134.706142 168.713641  L 136.171278 168.751864  L 137.636413 168.29899  L 139.101542 167.49388  L 140.566677 167.152289  L 142.031813 167.369533  L 143.496948 167.847567  L 144.962077 168.578649  L 147.892348 170.215964  L 149.357483 170.725931  L 150.822612 170.862858  L 152.287748 170.633034  L 153.752883 170.130324  L 156.683147 168.709286  L 159.613418 167.273249  L 161.078547 166.758443  L 162.543682 166.483622  L 164.008818 166.471042  L 165.473953 166.696512  L 166.939082 167.093744  L 166.939082 167.093744  L 168.76252 167.214704  L 175.144547 168.107389  L 180.614854 168.919273  L 183.350011 169.091036  L 185.173443 169.038781  L 186.996881 168.816215  L 188.820319 168.397209  L 190.643751 167.766766  L 192.467189 166.921981  L 194.290627 165.867694  L 196.114058 164.610677  L 197.937496 163.155287  L 200.672653 160.649479  L 202.496085 158.945879  L 203.407804 158.22157  L 204.319523 157.644349  L 205.231242 157.225827  L 206.142961 156.968908  L 207.054674 156.871173  L 208.878112 157.028905  L 209.789831 156.049129  L 211.613269 153.441715  L 211.613269 153.441715  L 213.767401 156.066547  L 214.844464 156.536839  L 216.998596 156.096545  L 218.075666 156.151703  L 219.152735 156.56974  L 220.229798 157.47307  L 224.538062 161.780213  L 226.692201 163.523005  L 228.846333 164.950333  L 232.077529 166.752153  L 234.231667 167.556779  L 236.3858 167.973365  L 240.694064 168.659934  L 243.925266 169.472785  L 252.541795 171.807797  L 255.772997 172.439692  L 259.004198 172.842247  L 262.235393 173.015946  L 265.301245 173.028526  L 268.036402 172.749834  L 272.59499 171.966497  L 276.24186 171.102359  L 281.712174 169.517299  L 287.182482 167.938045  L 291.74107 166.885209  L 293.564502 166.489428  L 297.211378 162.709186  L 299.946529 159.556969  L 304.505124 153.96523  L 305.416836 153.395266  L 306.328555 153.266565  L 307.240274 153.008678  L 309.063712 151.838753  L 309.063712 151.838753  L 314.456706 154.136993  L 317.153206 154.285048  L 318.501449 154.274403  L 319.849699 154.785822  L 325.242693 158.443169  L 333.332187 163.897013  L 340.07343 168.116098  L 341.42168 169.678901  L 342.76993 171.845537  L 345.466424 177.187614  L 349.511174 185.926249  L 353.555917 195.169044  L 357.600667 205.093086  L 361.645411 215.803369  L 369.734904 238.101135  L 372.431398 244.623298  L 375.127898 250.782581  L 375.127898 250.782581  " clip-path="url(#p87fb032468)" style="fill: none; stroke: #008000; stroke-width: 1.5; stroke-linecap: square"/>
   </g>
   <g id="line2d_24">
    <path d="M 50.473352 182.801126  L 54.120222 182.911925  L 57.767098 183.22497  L 65.060837 183.968148  L 65.972556 183.918313  L 66.884275 183.748969  L 67.795994 183.413184  L 70.531151 181.86925  L 71.442864 181.558141  L 72.354583 181.412021  L 74.178021 181.485565  L 76.001459 181.881346  L 77.824891 182.491952  L 80.560048 183.709294  L 83.295198 185.221777  L 86.030355 186.979568  L 89.677225 189.627141  L 94.235813 193.275294  L 95.147533 194.035891  L 96.612668 193.19788  L 99.542932 191.126077  L 102.473203 188.616399  L 105.403467 185.763678  L 108.333738 182.522918  L 109.798873 180.546915  L 111.264002 178.139328  L 114.194273 172.498237  L 118.589673 163.651706  L 120.054808 161.084451  L 121.519943 159.741795  L 122.985072 159.586483  L 124.450208 159.882593  L 125.915343 160.645609  L 127.380472 161.877949  L 130.310743 164.888885  L 131.775878 166.144934  L 133.241007 166.806343  L 134.706142 166.853276  L 139.101542 166.479267  L 140.566677 165.75641  L 142.031813 165.290473  L 144.962077 166.403788  L 146.427213 166.763765  L 149.357483 167.041973  L 152.287748 166.96601  L 155.218012 166.635064  L 158.148283 166.095098  L 161.078547 165.363049  L 165.473953 164.119096  L 166.939082 163.831695  L 166.939082 163.831695  L 170.585958 163.970557  L 174.232828 164.339243  L 177.879697 164.950817  L 182.438292 165.773829  L 185.173443 165.985267  L 186.996881 165.919948  L 188.820319 165.659159  L 190.643751 165.188382  L 192.467189 164.503265  L 194.290627 163.613967  L 197.025777 161.950041  L 199.760934 159.989038  L 201.584366 158.539453  L 203.407804 156.818434  L 205.231242 154.690022  L 207.054674 152.505484  L 207.966393 151.809722  L 208.878112 151.580866  L 209.789831 151.799562  L 210.70155 152.445972  L 211.613269 153.441715  L 211.613269 153.441715  L 212.690332 152.535966  L 213.767401 152.037127  L 214.844464 152.010516  L 215.921533 152.489034  L 216.998596 153.404943  L 219.152735 155.583674  L 221.306867 157.058419  L 228.846333 162.132449  L 231.000466 163.22496  L 233.154598 164.041681  L 235.30873 164.579712  L 237.462862 164.812922  L 242.848196 164.961461  L 245.002329 165.555133  L 247.156461 166.461849  L 251.464732 168.647354  L 254.695927 170.240156  L 256.850066 171.155097  L 259.004198 171.887147  L 261.15833 172.382115  L 263.312463 172.606133  L 266.212964 172.560169  L 268.036402 172.321635  L 269.85984 171.859084  L 271.683271 171.179289  L 274.418428 169.849697  L 278.065298 167.714027  L 284.447325 163.883466  L 287.182482 162.501619  L 291.74107 160.545937  L 295.38794 158.881528  L 298.123097 157.364689  L 300.858248 155.566256  L 304.505124 152.800143  L 306.328555 151.53345  L 307.240274 151.230082  L 308.151993 151.369912  L 309.063712 151.838753  L 309.063712 151.838753  L 310.411962 151.421199  L 311.760206 151.623928  L 313.108456 152.237921  L 317.153206 153.238018  L 318.501449 153.932812  L 319.849699 154.214891  L 322.546199 154.295209  L 323.894449 154.537129  L 325.242693 154.954682  L 330.635693 157.055032  L 331.983936 157.391785  L 333.332187 157.588707  L 334.680437 157.639994  L 337.376937 157.608061  L 338.72518 158.859755  L 340.07343 161.144448  L 341.42168 163.08513  L 342.76993 164.394885  L 344.11818 165.273538  L 352.207667 169.505203  L 356.252417 172.043911  L 361.645411 175.726417  L 368.386654 180.518853  L 369.734904 181.296867  L 371.083154 181.93602  L 372.431398 182.410667  L 373.779648 182.702906  L 375.127898 182.801126  L 375.127898 182.801126  " clip-path="url(#p87fb032468)" style="fill: none; stroke: #008000; stroke-width: 1.5; stroke-linecap: square"/>
   </g>
   <g id="line2d_25">
    <path d="M 50.473352 176.175905  L 63.237406 176.10478  L 65.060837 175.872053  L 65.972556 175.632553  L 66.884275 175.239674  L 67.795994 174.601489  L 68.707713 173.598489  L 69.619432 172.126648  L 70.531151 170.169515  L 72.354583 165.18935  L 76.001459 154.08619  L 76.913171 151.739082  L 77.824891 150.029191  L 78.73661 149.271014  L 79.648329 149.413263  L 80.560048 150.109993  L 81.471767 151.160409  L 83.295198 153.57719  L 85.118636 155.686732  L 86.942074 157.461941  L 88.765506 158.883947  L 90.588944 159.941137  L 92.412382 160.630609  L 94.235813 160.952363  L 101.008068 161.02881  L 105.403467 160.945589  L 109.798873 160.606901  L 114.194273 160.025809  L 118.589673 159.319887  L 120.054808 158.949265  L 121.519943 157.81079  L 122.985072 156.449264  L 124.450208 156.043322  L 125.915343 156.301693  L 131.775878 157.867399  L 133.241007 158.457684  L 136.171278 160.042744  L 140.566677 162.765795  L 142.031813 162.675317  L 144.962077 160.064517  L 146.427213 159.403591  L 147.892348 159.203281  L 152.287748 159.048453  L 155.218012 159.114739  L 158.148283 159.349885  L 161.078547 159.833241  L 162.543682 160.36353  L 166.939082 162.505489  L 166.939082 162.505489  L 174.232828 162.604193  L 176.967985 162.554841  L 179.703135 162.249054  L 182.438292 161.703767  L 186.085162 160.692541  L 189.732032 159.435525  L 194.290627 157.606609  L 200.672653 154.751953  L 205.231242 152.553868  L 207.054674 151.373299  L 207.966393 150.441423  L 209.789831 148.186245  L 210.70155 147.542737  L 211.613269 147.073897  L 211.613269 147.073897  L 212.690332 147.560156  L 213.767401 148.27382  L 215.921533 150.501419  L 216.998596 151.349591  L 218.075666 151.953907  L 219.152735 152.361784  L 221.306867 152.77837  L 223.460999 153.104962  L 225.615132 153.626542  L 228.846333 154.762598  L 233.154598 156.614737  L 241.771134 160.419655  L 245.002329 161.873111  L 248.23353 163.626547  L 256.850066 168.638645  L 259.004198 169.626163  L 261.15833 170.384824  L 263.312463 170.819312  L 265.301245 170.850278  L 267.124683 170.635453  L 268.948121 170.229027  L 271.683271 169.318924  L 274.418428 168.104002  L 277.153579 166.625387  L 279.888736 164.916464  L 283.535606 162.340016  L 288.094194 158.76589  L 300.858248 148.322688  L 301.769967 147.737241  L 302.681686 147.378232  L 303.593405 147.668536  L 304.505124 148.291722  L 305.416836 148.581058  L 306.328555 148.252047  L 307.240274 148.439293  L 308.151993 148.193018  L 309.063712 147.655472  L 309.063712 147.655472  L 310.411962 148.209953  L 311.760206 148.625088  L 314.456706 149.72534  L 315.804956 150.059189  L 317.153206 150.091123  L 318.501449 150.005483  L 319.849699 150.113863  L 323.894449 151.252339  L 325.242693 151.338462  L 327.939193 151.101381  L 331.983936 150.642217  L 333.332187 150.710922  L 334.680437 151.1996  L 336.028687 152.588705  L 337.376937 154.71373  L 338.72518 155.783017  L 340.07343 155.439974  L 341.42168 154.709376  L 344.11818 153.010129  L 345.466424 152.607091  L 346.814674 152.876106  L 348.162924 153.652185  L 349.511174 154.761146  L 350.859424 156.105738  L 353.555917 159.260858  L 360.297161 167.834019  L 362.993661 170.754961  L 364.341911 171.981012  L 365.690154 173.031913  L 367.038404 173.91105  L 368.386654 174.628585  L 369.734904 175.198548  L 371.083154 175.631101  L 372.431398 175.935436  L 373.779648 176.116393  L 375.127898 176.175905  L 375.127898 176.175905  " clip-path="url(#p87fb032468)" style="fill: none; stroke: #008000; stroke-width: 1.5; stroke-linecap: square"/>
   </g>
   <g id="line2d_26">
    <path d="M 50.473352 112.250964  L 53.208509 112.127101  L 56.855379 111.861957  L 57.767098 112.540784  L 59.59053 114.607265  L 61.413968 117.024529  L 64.149125 121.150717  L 66.884275 125.706554  L 70.531151 132.192913  L 75.08974 140.766074  L 77.824891 145.532866  L 80.560048 149.845816  L 82.383479 152.137282  L 85.118636 155.267243  L 86.942074 157.068096  L 88.765506 158.557839  L 90.588944 159.705024  L 92.412382 160.49078  L 94.235813 160.906882  L 95.147533 160.975587  L 95.147533 160.975587  L 96.612668 160.877852  L 98.077803 160.601579  L 101.008068 159.75244  L 106.868603 158.944427  L 109.798873 158.346401  L 112.729138 157.510325  L 115.659408 156.373301  L 118.589673 154.938716  L 121.519943 153.242857  L 122.985072 152.125186  L 125.915343 149.373588  L 127.380472 148.26753  L 128.845607 147.417423  L 130.310743 146.956323  L 131.775878 147.307107  L 133.241007 148.687019  L 137.636413 154.179571  L 139.101542 155.689152  L 140.566677 156.856657  L 142.031813 157.645317  L 143.496948 158.059968  L 144.962077 158.042549  L 146.427213 157.447426  L 147.892348 156.668444  L 149.357483 156.105254  L 150.822612 155.815918  L 152.287748 155.763179  L 153.752883 155.904944  L 155.218012 156.206377  L 158.148283 157.19341  L 161.078547 158.40301  L 162.543682 158.745085  L 164.008818 158.757665  L 165.473953 158.541872  L 166.939082 158.201249  L 166.939082 158.201249  L 168.76252 158.109319  L 171.497677 157.714022  L 182.438292 155.624317  L 187.9086 154.357624  L 193.378908 152.853849  L 202.496085 150.260951  L 207.054674 149.01603  L 208.878112 148.382684  L 209.789831 147.853363  L 210.70155 147.08696  L 212.690332 147.084057  L 213.767401 147.905617  L 214.844464 148.504128  L 216.998596 149.172794  L 232.077529 152.408233  L 236.3858 153.390912  L 238.539932 153.66283  L 239.616995 153.655572  L 240.694064 153.501711  L 241.771134 153.163507  L 242.848196 152.6158  L 243.925266 151.857139  L 245.002329 150.905425  L 247.156461 148.555898  L 250.387663 144.452935  L 253.618864 140.375616  L 255.772997 137.987865  L 257.927129 136.039925  L 259.004198 135.268201  L 260.081261 134.647434  L 261.15833 134.18827  L 262.235393 133.89216  L 264.389532 133.688463  L 264.389532 133.688463  L 266.212964 133.840873  L 268.036402 134.3131  L 269.85984 135.106114  L 271.683271 136.180723  L 273.506709 137.484188  L 276.24186 139.733076  L 281.712174 144.414712  L 283.535606 145.743337  L 285.359044 146.821332  L 287.182482 147.580477  L 289.005913 147.979161  L 290.829351 148.015933  L 292.652789 147.727564  L 294.476221 147.178406  L 297.211378 146.020093  L 299.946529 144.780495  L 300.858248 144.860812  L 302.681686 145.969774  L 305.416836 147.784174  L 306.328555 148.24866  L 307.240274 147.485644  L 308.151993 147.142602  L 309.063712 147.655472  L 309.063712 147.655472  L 310.411962 147.138247  L 311.760206 146.923906  L 313.108456 146.581347  L 314.456706 146.561994  L 315.804956 147.016803  L 318.501449 148.296076  L 319.849699 148.651699  L 322.546199 148.572349  L 325.242693 148.517675  L 327.939193 148.729597  L 331.983936 149.37262  L 336.028687 150.061125  L 338.72518 150.261918  L 341.42168 150.203857  L 344.11818 149.920327  L 345.466424 149.360041  L 346.814674 148.220597  L 348.162924 146.676664  L 350.859424 142.944322  L 353.555917 138.713141  L 358.948911 129.607756  L 362.993661 122.937054  L 365.690154 118.964244  L 367.038404 117.223872  L 368.386654 115.703162  L 369.734904 114.442275  L 371.083154 113.465886  L 372.431398 112.781253  L 373.779648 112.381117  L 375.127898 112.250964  L 375.127898 112.250964  " clip-path="url(#p87fb032468)" style="fill: none; stroke: #008000; stroke-width: 1.5; stroke-linecap: square"/>
   </g>
   <g id="line2d_27">
    <path d="M 50.473352 111.823249  L 53.208509 111.692129  L 55.94366 111.336506  L 56.855379 111.522785  L 57.767098 112.068556  L 58.678817 112.844152  L 60.502249 114.90531  L 62.325687 117.332252  L 64.149125 120.099817  L 67.795994 126.920993  L 71.442864 133.767813  L 76.001459 141.732787  L 78.73661 146.10912  L 80.560048 148.705405  L 83.295198 152.113574  L 86.030355 155.054353  L 87.853787 156.703764  L 89.677225 158.129641  L 91.500663 159.155865  L 93.324101 159.760181  L 95.147533 159.935815  L 95.147533 159.935815  L 98.077803 159.855498  L 99.542932 159.737441  L 101.008068 159.377464  L 102.473203 158.59703  L 103.938338 157.609029  L 105.403467 156.454586  L 108.333738 153.708794  L 111.264002 150.500935  L 115.659408 145.359168  L 117.124537 143.884907  L 118.589673 143.023188  L 120.054808 143.315427  L 121.519943 144.39681  L 122.985072 145.319009  L 124.450208 145.47916  L 125.915343 144.900003  L 127.380472 144.200371  L 128.845607 144.029091  L 130.310743 144.540994  L 131.775878 145.355297  L 134.706142 146.606023  L 136.171278 147.061317  L 137.636413 147.343879  L 139.101542 147.436293  L 140.566677 147.329848  L 142.031813 147.001321  L 143.496948 146.407165  L 144.962077 145.494159  L 146.427213 144.252142  L 147.892348 142.807879  L 149.357483 141.563927  L 150.822612 141.227174  L 152.287748 141.791815  L 153.752883 142.750786  L 155.218012 143.980707  L 161.078547 149.846784  L 162.543682 150.860428  L 164.008818 151.547965  L 165.473953 151.923425  L 167.850801 152.006161  L 170.585958 151.726986  L 173.321109 151.150732  L 176.967985 150.084833  L 182.438292 148.44268  L 185.173443 147.813204  L 187.9086 147.384038  L 190.643751 147.173084  L 193.378908 147.166794  L 197.025777 147.392263  L 200.672653 147.640957  L 202.496085 147.632248  L 204.319523 147.461936  L 206.142961 147.117442  L 207.966393 146.576025  L 209.789831 145.93155  L 210.70155 145.786882  L 211.613269 145.328202  L 211.613269 145.328202  L 212.690332 145.741885  L 213.767401 145.678502  L 214.844464 145.848814  L 220.229798 147.719823  L 222.38393 148.085606  L 224.538062 148.055124  L 226.692201 147.671923  L 228.846333 147.046318  L 232.077529 145.821719  L 235.30873 144.364876  L 239.616995 142.163404  L 249.3106 136.953899  L 252.541795 135.542538  L 255.772997 134.463091  L 259.004198 133.717493  L 262.235393 133.203171  L 264.389532 133.047375  L 264.389532 133.047375  L 267.124683 133.178012  L 270.771552 133.621693  L 275.330147 134.464542  L 279.888736 135.538183  L 284.447325 136.825681  L 288.094194 138.06286  L 291.74107 139.551152  L 295.38794 141.340393  L 299.946529 143.879585  L 300.858248 143.920711  L 302.681686 145.784463  L 303.593405 145.997353  L 305.416836 145.649472  L 306.328555 145.761722  L 307.240274 146.086379  L 308.151993 145.956226  L 309.063712 144.979837  L 309.063712 144.979837  L 310.411962 145.8672  L 311.760206 145.982353  L 313.108456 145.519319  L 314.456706 144.626634  L 315.804956 143.575249  L 317.153206 142.799654  L 318.501449 142.521446  L 322.546199 142.274204  L 326.590943 142.002286  L 329.287443 141.550863  L 331.983936 140.810104  L 333.332187 142.338554  L 334.680437 144.880166  L 336.028687 146.694082  L 337.376937 147.480322  L 338.72518 147.701437  L 340.07343 147.674342  L 341.42168 147.485644  L 342.76993 147.115023  L 344.11818 146.505868  L 345.466424 145.61899  L 346.814674 144.455354  L 348.162924 143.042542  L 349.511174 141.416355  L 352.207667 137.664176  L 354.904167 133.466864  L 362.993661 120.503339  L 364.341911 118.570398  L 365.690154 116.841154  L 367.038404 115.44576  L 368.386654 114.31309  L 369.734904 113.394762  L 371.083154 112.695613  L 372.431398 112.209354  L 373.779648 111.920501  L 375.127898 111.823249  L 375.127898 111.823249  " clip-path="url(#p87fb032468)" style="fill: none; stroke: #008000; stroke-width: 1.5; stroke-linecap: square"/>
   </g>
   <g id="line2d_28">
    <path d="M 50.473352 108.489108  L 51.385071 108.555394  L 52.29679 108.752317  L 53.208509 109.078425  L 55.031941 110.099811  L 55.94366 110.780574  L 56.855379 111.214095  L 57.767098 111.201031  L 58.678817 111.648583  L 59.59053 112.697065  L 61.413968 115.415278  L 73.266302 135.071761  L 76.913171 141.643276  L 79.648329 146.219435  L 82.383479 150.343203  L 84.206917 152.774983  L 86.030355 154.907266  L 87.853787 156.698442  L 89.677225 158.042065  L 91.500663 159.050388  L 93.324101 159.691476  L 95.147533 159.935815  L 95.147533 159.935815  L 96.612668 159.824048  L 98.077803 159.502295  L 99.542932 158.971522  L 101.008068 158.237053  L 102.473203 157.307596  L 103.938338 156.192345  L 105.403467 154.902428  L 108.333738 151.850365  L 111.264002 148.278174  L 117.124537 140.582215  L 118.589673 139.081344  L 121.519943 136.710044  L 122.985072 135.686722  L 124.450208 135.080954  L 125.915343 135.34368  L 127.380472 136.75746  L 128.845607 138.560732  L 130.310743 140.139502  L 131.775878 141.04525  L 133.241007 141.15363  L 134.706142 140.763171  L 140.566677 138.528798  L 142.031813 138.205593  L 143.496948 138.055603  L 144.962077 138.098181  L 146.427213 138.328972  L 149.357483 139.085214  L 150.822612 139.223109  L 152.287748 139.525509  L 153.752883 140.413839  L 156.683147 142.753689  L 159.613418 144.676469  L 162.543682 146.183631  L 164.008818 146.770045  L 165.473953 147.198727  L 166.939082 147.412585  L 166.939082 147.412585  L 168.76252 147.284851  L 170.585958 146.921487  L 173.321109 146.052026  L 181.526573 143.082217  L 184.261724 142.41355  L 186.996881 141.976642  L 189.732032 141.763269  L 192.467189 141.754076  L 195.202339 141.926807  L 198.849215 142.402421  L 202.496085 143.10786  L 208.878112 144.632924  L 209.789831 144.871941  L 210.70155 144.98274  L 211.613269 145.328202  L 211.613269 145.328202  L 212.690332 144.912099  L 213.767401 144.841943  L 215.921533 144.327621  L 220.229798 143.318814  L 225.615132 142.034703  L 229.923396 140.764623  L 233.154598 139.599052  L 236.3858 138.225431  L 240.694064 136.110566  L 254.695927 128.821516  L 257.927129 127.474506  L 260.081261 126.780195  L 262.235393 126.32587  L 264.389532 126.167654  L 264.389532 126.167654  L 268.036402 126.268293  L 271.683271 126.591982  L 275.330147 127.18275  L 278.065298 127.822871  L 280.800455 128.646366  L 283.535606 129.666785  L 286.270763 130.908802  L 289.005913 132.415964  L 291.74107 134.262781  L 293.564502 135.733655  L 295.38794 137.433868  L 297.211378 139.378421  L 299.946529 142.67192  L 300.858248 143.810396  L 301.769967 143.557347  L 303.593405 142.779817  L 304.505124 142.506447  L 305.416836 142.40726  L 306.328555 142.586764  L 307.240274 143.117537  L 308.151993 143.958451  L 309.063712 144.979837  L 309.063712 144.979837  L 310.411962 143.910067  L 311.760206 142.99319  L 313.108456 142.572733  L 315.804956 142.564508  L 317.153206 142.288235  L 322.546199 139.98806  L 326.590943 137.90658  L 327.939193 137.404838  L 329.287443 137.329359  L 330.635693 138.045442  L 331.983936 139.732592  L 333.332187 140.141921  L 336.028687 138.809909  L 342.76993 134.845808  L 345.466424 133.76491  L 348.162924 132.73433  L 349.511174 132.044858  L 350.859424 131.201525  L 353.555917 129.080371  L 356.252417 126.503439  L 360.297161 122.166781  L 369.734904 111.722127  L 371.083154 110.463175  L 372.431398 109.439854  L 373.779648 108.743608  L 375.127898 108.489108  L 375.127898 108.489108  " clip-path="url(#p87fb032468)" style="fill: none; stroke: #008000; stroke-width: 1.5; stroke-linecap: square"/>
   </g>
   <g id="line2d_29">
    <path d="M 50.473352 107.913822  L 51.385071 107.972851  L 52.29679 108.149452  L 54.120222 108.84473  L 55.94366 109.93337  L 56.855379 110.511559  L 57.767098 110.814443  L 58.678817 110.748157  L 59.59053 111.43521  L 61.413968 113.967145  L 64.149125 118.373959  L 67.795994 124.874833  L 73.266302 134.913062  L 75.08974 137.545635  L 76.001459 138.604277  L 76.913171 139.296652  L 77.824891 139.324231  L 78.73661 138.383162  L 79.648329 136.535377  L 81.471767 131.448284  L 89.677225 106.36747  L 91.500663 101.552294  L 93.324101 97.425139  L 94.235813 95.724441  L 95.147533 94.321789  L 95.147533 94.321789  L 96.612668 95.744279  L 98.077803 97.497231  L 99.542932 99.5371  L 102.473203 104.30486  L 105.403467 109.749995  L 109.798873 118.663779  L 114.194273 127.681105  L 115.659408 130.415285  L 117.124537 132.691269  L 118.589673 133.953607  L 120.054808 133.751846  L 121.519943 132.83255  L 122.985072 132.223395  L 124.450208 132.456122  L 125.915343 132.994636  L 127.380472 132.755619  L 128.845607 131.666012  L 130.310743 129.851612  L 133.241007 125.082885  L 134.706142 122.631267  L 136.171278 120.525596  L 137.636413 119.485824  L 139.101542 120.021918  L 143.496948 122.953989  L 147.892348 125.461248  L 149.357483 126.322967  L 150.822612 126.575531  L 152.287748 125.801871  L 153.752883 124.398251  L 155.218012 123.501212  L 156.683147 123.059466  L 159.613418 122.508372  L 162.543682 122.190489  L 165.473953 122.116945  L 171.497677 122.476439  L 174.232828 122.932216  L 176.967985 123.5854  L 179.703135 124.425346  L 183.350011 125.819773  L 186.996881 127.511761  L 190.643751 129.490183  L 194.290627 131.741007  L 197.937496 134.239557  L 203.407804 138.326069  L 207.054674 141.047185  L 208.878112 142.113085  L 210.70155 142.637084  L 211.613269 142.446451  L 211.613269 142.446451  L 212.690332 142.699983  L 214.844464 142.329845  L 215.921533 141.928742  L 218.075666 140.711884  L 221.306867 138.465899  L 226.692201 134.705495  L 229.923396 132.69901  L 233.154598 130.961057  L 236.3858 129.510505  L 239.616995 128.331386  L 242.848196 127.375802  L 247.156461 126.334579  L 253.618864 125.02434  L 257.927129 124.33003  L 261.15833 123.986503  L 264.389532 123.861673  L 264.389532 123.861673  L 268.948121 123.993761  L 272.59499 124.314063  L 276.24186 124.860802  L 279.888736 125.651881  L 283.535606 126.692137  L 287.182482 127.983022  L 290.829351 129.524052  L 294.476221 131.313292  L 298.123097 133.349291  L 300.858248 135.038377  L 304.505124 139.494059  L 305.416836 140.201433  L 306.328555 140.570119  L 307.240274 140.593827  L 308.151993 140.365939  L 309.063712 140.002091  L 309.063712 140.002091  L 311.760206 141.168629  L 313.108456 141.323942  L 314.456706 140.794621  L 317.153206 139.244398  L 319.849699 137.367098  L 327.939193 131.289584  L 329.287443 130.493184  L 330.635693 129.85645  L 333.332187 128.967636  L 334.680437 128.714104  L 336.028687 128.656527  L 337.376937 128.785228  L 341.42168 129.560824  L 342.76993 129.602434  L 344.11818 129.360998  L 345.466424 128.80942  L 346.814674 128.003343  L 349.511174 125.941701  L 361.645411 115.776222  L 364.341911 113.90231  L 371.083154 109.665323  L 372.431398 108.843763  L 373.779648 108.184773  L 375.127898 107.913822  L 375.127898 107.913822  " clip-path="url(#p87fb032468)" style="fill: none; stroke: #008000; stroke-width: 1.5; stroke-linecap: square"/>
   </g>
   <g id="line2d_30">
    <path d="M 50.473352 104.944012  L 51.385071 105.032555  L 52.29679 105.292377  L 53.208509 105.71235  L 54.120222 106.280378  L 55.94366 107.812216  L 58.678817 110.474787  L 59.59053 110.531881  L 62.325687 109.575329  L 65.060837 108.345408  L 67.795994 106.900177  L 71.442864 104.694351  L 75.08974 102.235476  L 80.560048 98.224442  L 87.853787 92.720762  L 89.677225 92.02742  L 90.588944 91.853721  L 91.500663 91.842593  L 92.412382 92.039032  L 93.324101 92.491906  L 94.235813 93.244277  L 95.147533 94.321789  L 95.147533 94.321789  L 96.612668 93.270405  L 98.077803 92.616253  L 99.542932 92.370462  L 101.008068 92.539322  L 102.473203 93.175088  L 103.938338 94.384688  L 105.403467 95.991521  L 108.333738 99.789181  L 111.264002 104.140354  L 114.194273 108.903275  L 120.054808 118.67394  L 121.519943 120.658652  L 122.985072 121.938409  L 124.450208 122.150814  L 125.915343 121.431828  L 127.380472 120.220293  L 131.775878 116.009433  L 133.241007 115.406085  L 134.706142 115.854604  L 136.171278 116.711001  L 137.636413 117.213227  L 139.101542 117.033239  L 140.566677 117.244677  L 142.031813 118.045916  L 143.496948 119.246807  L 146.427213 121.930183  L 147.892348 122.81803  L 149.357483 123.199296  L 150.822612 123.224939  L 152.287748 122.964633  L 153.752883 122.139686  L 155.218012 120.037401  L 156.683147 117.053076  L 159.613418 110.20674  L 164.008818 99.538552  L 165.473953 96.672768  L 166.939082 96.317629  L 166.939082 96.317629  L 168.76252 96.114416  L 170.585958 95.520261  L 172.40939 94.588869  L 175.144547 92.789468  L 176.967985 91.59148  L 177.879697 91.099898  L 178.791416 90.741857  L 179.703135 90.564771  L 180.614854 90.610736  L 181.526573 90.906846  L 182.438292 91.465198  L 183.350011 92.285306  L 184.261724 93.359431  L 186.085162 96.160865  L 187.9086 99.517263  L 190.643751 105.037393  L 201.584366 127.807872  L 205.231242 134.608727  L 207.054674 137.717399  L 208.878112 140.369326  L 209.789831 141.324426  L 211.613269 142.446451  L 211.613269 142.446451  L 212.690332 141.839715  L 213.767401 141.406195  L 214.844464 140.409968  L 216.998596 137.691271  L 220.229798 132.993669  L 225.615132 124.620334  L 234.231667 111.098941  L 236.3858 108.039621  L 238.539932 105.361082  L 239.616995 104.24438  L 240.694064 103.345405  L 241.771134 102.739153  L 242.848196 102.499169  L 243.925266 102.643837  L 245.002329 103.106388  L 247.156461 104.546296  L 251.464732 107.670935  L 253.618864 108.980206  L 255.772997 110.057717  L 257.927129 110.895728  L 260.081261 111.493754  L 262.235393 111.85228  L 264.389532 111.971305  L 264.389532 111.971305  L 266.212964 111.863408  L 268.036402 111.540203  L 269.85984 111.003141  L 271.683271 110.252705  L 273.506709 109.292766  L 275.330147 108.125744  L 277.153579 106.756961  L 279.888736 104.35276  L 281.712174 102.583841  L 282.623887 102.729961  L 285.359044 107.29112  L 289.005913 113.937146  L 296.299659 127.3579  L 299.034816 131.974702  L 300.858248 134.825971  L 301.769967 135.6335  L 306.328555 138.67008  L 309.063712 140.002091  L 309.063712 140.002091  L 310.411962 139.738882  L 313.108456 139.512929  L 314.456706 139.275363  L 315.804956 138.79104  L 317.153206 137.932707  L 318.501449 136.673272  L 319.849699 135.11192  L 322.546199 131.534891  L 326.590943 126.062177  L 327.939193 124.754841  L 329.287443 124.622753  L 330.635693 125.338352  L 331.983936 125.697361  L 333.332187 125.468021  L 334.680437 124.829353  L 336.028687 123.92312  L 338.72518 121.660684  L 348.162924 113.019302  L 350.859424 110.835732  L 353.555917 108.883921  L 356.252417 107.202094  L 358.948911 105.827504  L 361.645411 104.795957  L 364.341911 104.143257  L 367.038404 103.897466  L 369.734904 104.063907  L 375.127898 104.944012  L 375.127898 104.944012  " clip-path="url(#p87fb032468)" style="fill: none; stroke: #008000; stroke-width: 1.5; stroke-linecap: square"/>
   </g>
   <g id="line2d_31">
    <path d="M 50.473352 104.663869  L 51.385071 104.728704  L 52.29679 104.927078  L 53.208509 105.263831  L 54.120222 105.739445  L 55.94366 107.082101  L 58.678817 109.612585  L 59.59053 109.786767  L 61.413968 109.315023  L 64.149125 108.163484  L 66.884275 106.747768  L 70.531151 104.553553  L 74.178021 102.092743  L 81.471767 96.793244  L 85.118636 94.277276  L 88.765506 91.923394  L 95.147533 87.143539  L 95.147533 87.143539  L 96.612668 87.887685  L 98.077803 88.790046  L 101.008068 91.028774  L 103.938338 93.400074  L 105.403467 94.581127  L 106.868603 95.950394  L 108.333738 97.523842  L 111.264002 101.206832  L 114.194273 105.418176  L 118.589673 112.027914  L 120.054808 114.043591  L 121.519943 115.769932  L 122.985072 117.019207  L 124.450208 117.581429  L 125.915343 117.347735  L 127.380472 116.456985  L 128.845607 115.27448  L 130.310743 114.24003  L 133.241007 113.180905  L 134.706142 112.266447  L 136.171278 111.182645  L 137.636413 109.927081  L 139.101542 108.261703  L 140.566677 106.120711  L 143.496948 101.062164  L 147.892348 93.273308  L 150.822612 88.584898  L 152.287748 86.534868  L 153.752883 84.799818  L 155.218012 83.571832  L 156.683147 83.168309  L 158.148283 83.798753  L 159.613418 85.238177  L 164.008818 90.916523  L 165.473953 92.073385  L 166.939082 90.615091  L 166.939082 90.615091  L 168.76252 90.503808  L 170.585958 90.175764  L 172.40939 89.649346  L 175.144547 88.589737  L 176.967985 87.892039  L 177.879697 87.656893  L 178.791416 87.580446  L 179.703135 87.728017  L 180.614854 88.145571  L 181.526573 88.839882  L 182.438292 89.778531  L 184.261724 92.150315  L 186.085162 94.861754  L 187.9086 97.84995  L 190.643751 102.839792  L 194.290627 110.169001  L 199.760934 121.878896  L 204.319523 131.565857  L 206.142961 135.09934  L 207.966393 138.166886  L 209.789831 140.623342  L 210.70155 141.488931  L 211.613269 141.364585  L 211.613269 141.364585  L 212.690332 141.514575  L 213.767401 140.429322  L 215.921533 137.714012  L 219.152735 133.054149  L 223.460999 126.340385  L 234.231667 109.367761  L 239.616995 101.306987  L 241.771134 98.275246  L 242.848196 96.920494  L 243.925266 95.986682  L 245.002329 96.254246  L 246.079398 97.273213  L 250.387663 101.884208  L 252.541795 103.820052  L 254.695927 105.404628  L 256.850066 106.627776  L 259.004198 107.501591  L 261.15833 108.054136  L 263.312463 108.318313  L 265.301245 108.312506  L 267.124683 108.008171  L 268.948121 107.404339  L 270.771552 106.509719  L 272.59499 105.340761  L 274.418428 103.922142  L 277.153579 101.439559  L 278.977017 99.85208  L 279.888736 99.573388  L 280.800455 100.204316  L 281.712174 101.37037  L 282.623887 101.717767  L 283.535606 100.998297  L 284.447325 102.257249  L 293.564502 119.352768  L 296.299659 123.755712  L 298.123097 126.317161  L 299.946529 128.556856  L 301.769967 130.499957  L 304.505124 133.018345  L 305.416836 134.15053  L 306.328555 135.019991  L 307.240274 135.559472  L 308.151993 135.749137  L 310.411962 135.538183  L 311.760206 134.884515  L 313.108456 133.82539  L 315.804956 131.001699  L 319.849699 126.406187  L 322.546199 123.726681  L 323.894449 122.587238  L 325.242693 121.598753  L 326.590943 120.77187  L 327.939193 120.195133  L 329.287443 119.786772  L 330.635693 118.956019  L 336.028687 116.399892  L 338.72518 114.74274  L 349.511174 107.609971  L 352.207667 106.164741  L 354.904167 104.947399  L 357.600667 103.982622  L 360.297161 103.292183  L 362.993661 102.899788  L 365.690154 102.831567  L 368.386654 103.114613  L 371.083154 103.744573  L 373.779648 104.507105  L 375.127898 104.663869  L 375.127898 104.663869  " clip-path="url(#p87fb032468)" style="fill: none; stroke: #008000; stroke-width: 1.5; stroke-linecap: square"/>
   </g>
   <g id="line2d_32">
    <path d="M 50.473352 69.988024  L 54.120222 70.104629  L 57.767098 70.453962  L 61.413968 71.036021  L 65.060837 71.851292  L 68.707713 72.900741  L 72.354583 74.183884  L 76.001459 75.699271  L 79.648329 77.442547  L 83.295198 79.405969  L 87.853787 82.150794  L 92.412382 85.191244  L 95.147533 87.143539  L 95.147533 87.143539  L 96.612668 86.560512  L 98.077803 86.139087  L 99.542932 85.877329  L 101.008068 85.773304  L 102.473203 85.822172  L 103.938338 86.018611  L 105.403467 86.355847  L 106.868603 86.827591  L 108.333738 87.427553  L 111.264002 88.983582  L 114.194273 90.968294  L 117.124537 93.32024  L 120.054808 95.965393  L 127.380472 102.871242  L 128.845607 103.869888  L 130.310743 104.35905  L 131.775878 104.058101  L 133.241007 102.932689  L 134.706142 101.24312  L 137.636413 97.138222  L 143.496948 88.596026  L 146.427213 84.712727  L 149.357483 81.380521  L 150.822612 80.012221  L 152.287748 78.908098  L 153.752883 78.132986  L 155.218012 77.745431  L 156.683147 77.792363  L 158.148283 78.476997  L 159.613418 79.838039  L 162.543682 83.360394  L 166.939082 88.692311  L 166.939082 88.692311  L 168.76252 88.586833  L 170.585958 88.274757  L 172.40939 87.771563  L 175.144547 86.722598  L 179.703135 84.659988  L 180.614854 84.460162  L 181.526573 84.535157  L 182.438292 84.962388  L 183.350011 85.738951  L 184.261724 86.809689  L 186.085162 89.577738  L 187.9086 92.882365  L 190.643751 98.427171  L 194.290627 106.436659  L 205.231242 130.943639  L 207.966393 136.372323  L 209.789831 139.465029  L 210.70155 140.629148  L 211.613269 141.364585  L 211.613269 141.364585  L 212.690332 140.754946  L 213.767401 139.720012  L 214.844464 138.325102  L 216.998596 134.840486  L 219.152735 130.831388  L 223.460999 122.18807  L 228.846333 111.457466  L 232.077529 105.511557  L 234.231667 101.883724  L 236.3858 98.608128  L 238.539932 95.804275  L 239.616995 94.672573  L 240.694064 93.882462  L 241.771134 93.703925  L 243.925266 94.272921  L 245.002329 93.881011  L 249.3106 91.122639  L 251.464732 89.932876  L 253.618864 88.933263  L 255.772997 88.136862  L 257.927129 87.536417  L 260.081261 87.118379  L 262.235393 86.870653  L 264.389532 86.787916  L 264.389532 86.787916  L 266.212964 86.946616  L 268.036402 87.422714  L 269.85984 88.216696  L 271.683271 89.327109  L 273.506709 90.749598  L 275.330147 92.471101  L 278.065298 95.502359  L 278.977017 96.50294  L 279.888736 97.172574  L 280.800455 97.291115  L 281.712174 97.787051  L 282.623887 99.027133  L 283.535606 100.58413  L 284.447325 100.741862  L 285.359044 101.241185  L 286.270763 102.245153  L 288.094194 104.812408  L 290.829351 109.203256  L 294.476221 115.560913  L 302.681686 130.249328  L 304.505124 132.944801  L 306.328555 134.284554  L 308.151993 135.316585  L 309.063712 135.63979  L 309.063712 135.63979  L 310.411962 135.064988  L 311.760206 133.941511  L 313.108456 132.508861  L 315.804956 129.206653  L 321.197949 122.247098  L 322.546199 120.731712  L 323.894449 119.529369  L 325.242693 118.873282  L 326.590943 118.972953  L 327.939193 119.449536  L 329.287443 119.117621  L 330.635693 118.089945  L 331.983936 116.399408  L 336.028687 110.51543  L 346.814674 94.544355  L 350.859424 88.905684  L 354.904167 83.68118  L 357.600667 80.519769  L 360.297161 77.683983  L 362.993661 75.229463  L 365.690154 73.204592  L 368.386654 71.648079  L 369.734904 71.055375  L 371.083154 70.590889  L 372.431398 70.256555  L 373.779648 70.055278  L 375.127898 69.988024  L 375.127898 69.988024  " clip-path="url(#p87fb032468)" style="fill: none; stroke: #008000; stroke-width: 1.5; stroke-linecap: square"/>
   </g>
   <g id="line2d_33">
    <path d="M 50.473352 59.419507  L 53.208509 59.512404  L 55.94366 59.790612  L 58.678817 60.254615  L 61.413968 60.901025  L 65.060837 62.035146  L 68.707713 63.4557  L 72.354583 65.129303  L 76.913171 67.51415  L 84.206917 71.701301  L 87.853787 73.640532  L 89.677225 74.396774  L 91.500663 74.840939  L 92.412382 74.875292  L 93.324101 74.732559  L 94.235813 74.36726  L 95.147533 73.736816  L 98.077803 75.060602  L 102.473203 76.607923  L 108.333738 78.718917  L 112.729138 80.562347  L 117.124537 82.634634  L 121.519943 84.923681  L 130.310743 89.756275  L 131.775878 90.380428  L 133.241007 90.820239  L 134.706142 90.994421  L 136.171278 90.82411  L 137.636413 90.263823  L 139.101542 89.322754  L 140.566677 88.060899  L 143.496948 84.912553  L 149.357483 78.037186  L 150.822612 76.498091  L 152.287748 75.175756  L 153.752883 74.255493  L 155.218012 74.026636  L 156.683147 74.397258  L 158.148283 74.524024  L 159.613418 74.031475  L 164.008818 71.80823  L 165.473953 71.310359  L 166.939082 71.033602  L 166.939082 71.033602  L 168.76252 71.20972  L 170.585958 71.740492  L 172.40939 72.628823  L 174.232828 73.855841  L 178.791416 77.519477  L 179.703135 78.020252  L 180.614854 78.286848  L 181.526573 78.266526  L 182.438292 77.957353  L 183.350011 77.408678  L 185.173443 75.823134  L 186.996881 73.821488  L 189.732032 70.31897  L 192.467189 66.404705  L 196.114058 60.783452  L 207.966393 42.139645  L 210.70155 38.366661  L 211.613269 37.237378  L 211.613269 37.237378  L 212.690332 38.73825  L 215.921533 44.997204  L 221.306867 56.042787  L 229.923396 73.943416  L 233.154598 80.227046  L 235.30873 84.10841  L 237.462862 87.61238  L 238.539932 89.158732  L 239.616995 90.498001  L 240.694064 91.504873  L 241.771134 91.990164  L 242.848196 92.192409  L 243.925266 92.268372  L 245.002329 91.846464  L 246.079398 90.93249  L 250.387663 86.355847  L 251.464732 85.534771  L 252.541795 84.998192  L 253.618864 84.679342  L 255.772997 84.394844  L 259.004198 84.385167  L 267.124683 84.817236  L 268.948121 85.284142  L 270.771552 85.986677  L 272.59499 86.927746  L 274.418428 88.107348  L 276.24186 89.521612  L 278.065298 91.16183  L 280.800455 93.988423  L 282.623887 95.966361  L 283.535606 96.798082  L 284.447325 97.167736  L 285.359044 96.780664  L 286.270763 95.888463  L 288.094194 93.539904  L 290.829351 89.461132  L 294.476221 83.489095  L 300.858248 72.426094  L 306.328555 63.137817  L 309.063712 58.776  L 309.063712 58.776  L 310.411962 60.765066  L 311.760206 63.682137  L 314.456706 70.838131  L 318.501449 82.746401  L 322.546199 94.532743  L 323.894449 97.940912  L 325.242693 100.662996  L 326.590943 102.314826  L 327.939193 102.721735  L 329.287443 102.12129  L 330.635693 100.895723  L 331.983936 99.325178  L 334.680437 95.718635  L 342.76993 84.530803  L 346.814674 79.460643  L 350.859424 74.881098  L 354.904167 70.786844  L 357.600667 68.316841  L 360.297161 66.058759  L 362.993661 64.038243  L 365.690154 62.305129  L 368.386654 60.927636  L 371.083154 59.970601  L 372.431398 59.665781  L 373.779648 59.481438  L 375.127898 59.419507  L 375.127898 59.419507  " clip-path="url(#p87fb032468)" style="fill: none; stroke: #008000; stroke-width: 1.5; stroke-linecap: square"/>
   </g>
   <g id="line2d_34">
    <path d="M 50.473352 31.829982  L 51.385071 31.768535  L 52.29679 31.585159  L 53.208509 31.281792  L 55.031941 30.325724  L 56.855379 28.938554  L 58.678817 27.175441  L 60.502249 25.099768  L 63.237406 21.545479  L 67.795994 15.311201  L 68.707713 14.701079  L 69.619432 15.192176  L 70.531151 16.634987  L 72.354583 20.588928  L 75.08974 27.267371  L 80.560048 41.32002  L 87.853787 60.079948  L 90.588944 66.484055  L 92.412382 70.106081  L 93.324101 71.595824  L 94.235813 72.813649  L 95.147533 73.736816  L 95.147533 73.736816  L 96.612668 72.892515  L 98.077803 71.895321  L 99.542932 70.742814  L 102.473203 68.032826  L 105.403467 64.953669  L 111.264002 58.344898  L 121.519943 46.743866  L 125.915343 42.165772  L 128.845607 39.545779  L 130.310743 38.511813  L 131.775878 37.807825  L 133.241007 37.617676  L 134.706142 38.144094  L 136.171278 39.434496  L 137.636413 41.271152  L 140.566677 45.665387  L 144.962077 52.847992  L 150.822612 62.667525  L 152.287748 64.914478  L 153.752883 66.743877  L 155.218012 67.762844  L 156.683147 68.169753  L 158.148283 68.701977  L 159.613418 68.949219  L 165.473953 69.307745  L 169.674239 69.88545  L 171.497677 70.527022  L 174.232828 71.867258  L 176.967985 73.271362  L 178.791416 73.923578  L 179.703135 74.080343  L 180.614854 74.11276  L 181.526573 74.030507  L 182.438292 73.808425  L 183.350011 73.392806  L 184.261724 72.778329  L 186.085162 71.099404  L 187.9086 69.043084  L 190.643751 65.563791  L 194.290627 60.529436  L 207.054674 42.522362  L 210.70155 37.652029  L 211.613269 37.237378  L 211.613269 37.237378  L 212.690332 37.413496  L 213.767401 38.0541  L 214.844464 38.857274  L 215.921533 39.86221  L 216.998596 41.085841  L 218.075666 42.527685  L 220.229798 45.991495  L 222.38393 50.032043  L 225.615132 56.690165  L 234.231667 74.91158  L 237.462862 81.126988  L 239.616995 84.774658  L 240.694064 86.295367  L 241.771134 87.406264  L 242.848196 87.864944  L 243.925266 87.699471  L 246.079398 86.640345  L 251.464732 83.753756  L 253.618864 82.029834  L 255.772997 80.267689  L 257.927129 78.780364  L 260.081261 77.668984  L 262.235393 76.983866  L 263.312463 76.810168  L 264.389532 76.752591  L 264.389532 76.752591  L 265.301245 76.819845  L 266.212964 77.021606  L 267.124683 77.356423  L 268.036402 77.82091  L 269.85984 79.121955  L 271.683271 80.884585  L 273.506709 83.055091  L 275.330147 85.572994  L 278.065298 89.827883  L 279.888736 92.714956  L 280.800455 93.82924  L 281.712174 94.082288  L 282.623887 93.442652  L 284.447325 91.246986  L 287.182482 87.305625  L 290.829351 81.546961  L 295.38794 73.898903  L 306.328555 55.279772  L 307.240274 56.062141  L 309.063712 58.776  L 309.063712 58.776  L 310.411962 57.894927  L 311.760206 57.734292  L 314.456706 58.124267  L 317.153206 58.553433  L 318.501449 58.647782  L 319.849699 58.622622  L 321.197949 58.454246  L 322.546199 58.124267  L 323.894449 57.616719  L 325.242693 56.920473  L 326.590943 56.028756  L 327.939193 54.940116  L 329.287443 53.65794  L 330.635693 52.189969  L 333.332187 48.750835  L 336.028687 44.758671  L 340.07343 38.118451  L 341.42168 36.607418  L 344.11818 35.947945  L 346.814674 35.47862  L 350.859424 35.057195  L 357.600667 34.748021  L 361.645411 34.446105  L 364.341911 34.048389  L 367.038404 33.450362  L 372.431398 32.071902  L 373.779648 31.889978  L 375.127898 31.829982  L 375.127898 31.829982  " clip-path="url(#p87fb032468)" style="fill: none; stroke: #008000; stroke-width: 1.5; stroke-linecap: square"/>
   </g>
   <g id="line2d_35">
    <path d="M 50.473352 30.860851  L 51.385071 30.79021  L 52.29679 30.580707  L 53.208509 30.235729  L 55.031941 29.165475  L 56.855379 27.645734  L 58.678817 25.752468  L 60.502249 23.563576  L 63.237406 19.892198  L 67.795994 13.552926  L 69.619432 11.293877  L 72.354583 7.229137  L 77.69005 -1  M 110.668183 -1  L 115.659408 6.232911  L 125.915343 21.557091  L 133.241007 32.45849  L 139.101542 40.622807  L 142.031813 45.477173  L 150.822612 61.065047  L 152.287748 63.324096  L 153.752883 65.310743  L 155.218012 66.89048  L 156.683147 67.598822  L 158.148283 67.126594  L 161.078547 65.777648  L 162.543682 65.228974  L 164.008818 64.833676  L 165.473953 64.614497  L 167.850801 64.632883  L 169.674239 65.038825  L 171.497677 65.836193  L 173.321109 66.99257  L 175.144547 68.447961  L 178.791416 71.688238  L 179.703135 72.328358  L 180.614854 72.733332  L 181.526573 72.791393  L 182.438292 72.471091  L 183.350011 71.832906  L 184.261724 70.943608  L 186.085162 68.589726  L 187.9086 65.689589  L 190.643751 60.710876  L 194.290627 53.410214  L 199.760934 41.798054  L 204.319523 32.003197  L 205.231242 30.448619  L 206.142961 30.901009  L 208.878112 33.867916  L 210.70155 36.009876  L 211.613269 36.344209  L 211.613269 36.344209  L 212.690332 36.148738  L 215.921533 34.69867  L 220.229798 33.029422  L 224.538062 31.589514  L 227.769264 30.671669  L 229.923396 30.238633  L 232.077529 30.056225  L 236.3858 30.034936  L 240.694064 30.227988  L 245.002329 30.638768  L 259.004198 32.282373  L 263.312463 32.436234  L 265.301245 32.399462  L 267.124683 32.059806  L 268.948121 31.391139  L 270.771552 30.413299  L 272.59499 29.155315  L 274.418428 27.653959  L 277.153579 25.04461  L 278.977017 23.153763  L 279.888736 22.967001  L 283.535606 27.450746  L 288.094194 32.625415  L 297.211378 42.691223  L 300.858248 47.118359  L 304.505124 51.949017  L 305.416836 53.195873  L 306.328555 54.16694  L 307.240274 53.153779  L 309.063712 50.083814  L 309.063712 50.083814  L 310.411962 51.082944  L 311.760206 51.214548  L 313.108456 50.884569  L 314.456706 50.327185  L 317.153206 48.899374  L 322.546199 45.64313  L 327.939193 42.435271  L 331.983936 40.273474  L 336.028687 38.431495  L 338.72518 37.414947  L 340.07343 36.968847  L 341.42168 35.796986  L 345.466424 29.214827  L 346.814674 27.302208  L 348.162924 25.678441  L 349.511174 24.453841  L 350.859424 23.705341  L 352.207667 23.429552  L 353.555917 23.543738  L 354.904167 23.936133  L 357.600667 25.189278  L 364.341911 28.778887  L 367.038404 29.845271  L 369.734904 30.530388  L 372.431398 30.824079  L 375.127898 30.860851  L 375.127898 30.860851  " clip-path="url(#p87fb032468)" style="fill: none; stroke: #008000; stroke-width: 1.5; stroke-linecap: square"/>
   </g>
   <g id="line2d_36">
    <path d="M 50.473352 17.118343  L 52.29679 16.953838  L 54.120222 16.469514  L 55.94366 15.688112  L 57.767098 14.64205  L 59.59053 13.368099  L 62.325687 11.113889  L 65.060837 8.560181  L 66.884275 6.749168  L 67.795994 7.354452  L 68.707713 8.354549  L 69.619432 8.331809  L 70.531151 7.514119  L 72.354583 5.076533  L 76.458294 -1  M 113.907121 -1  L 117.124537 2.983441  L 122.985072 10.592309  L 128.845607 18.316815  L 130.310743 20.09154  L 131.775878 21.655795  L 133.241007 22.860556  L 134.706142 23.543255  L 136.171278 23.631313  L 137.636413 23.202147  L 139.101542 22.407682  L 140.566677 21.38049  L 143.496948 18.952581  L 147.892348 14.928  L 158.148283 5.381353  L 161.078547 2.871674  L 164.008818 0.633431  L 165.473953 -0.325056  L 166.939082 -0.937598  L 166.939082 -0.937598  L 167.850801 -0.864538  L 168.76252 -0.649713  L 170.585958 0.160719  L 172.40939 1.363545  L 175.144547 3.589693  L 186.085162 13.061829  L 197.937496 22.830074  L 201.584366 26.155991  L 204.319523 28.78808  L 205.231242 29.359011  L 206.142961 29.540935  L 208.878112 32.841208  L 211.613269 36.344209  L 211.613269 36.344209  L 212.690332 35.145738  L 214.844464 32.244633  L 215.921533 31.019066  L 216.998596 30.005905  L 218.075666 29.274823  L 219.152735 28.884364  L 220.229798 28.792435  L 222.38393 29.006292  L 225.615132 29.356592  L 227.769264 29.425297  L 229.923396 29.264179  L 232.077529 28.783242  L 235.30873 27.681538  L 238.539932 26.246469  L 240.694064 25.078479  L 242.848196 23.716469  L 245.002329 22.148828  L 247.156461 20.378941  L 250.387663 17.403325  L 256.850066 11.15937  L 259.004198 9.425287  L 261.15833 8.131015  L 262.235393 7.699914  L 263.312463 7.434769  L 264.389532 7.345259  L 264.389532 7.345259  L 265.301245 7.437673  L 266.212964 7.71201  L 267.124683 8.15811  L 268.036402 8.761943  L 269.85984 10.367324  L 271.683271 12.36897  L 274.418428 15.797944  L 278.977017 21.796108  L 279.888736 22.194309  L 282.623887 19.475612  L 283.535606 18.72953  L 284.447325 18.149406  L 285.359044 17.804428  L 286.270763 17.755077  L 287.182482 18.024092  L 288.094194 18.583895  L 289.005913 19.375457  L 290.829351 21.426455  L 293.564502 25.133637  L 297.211378 30.610222  L 301.769967 37.877982  L 308.151993 48.532139  L 309.063712 50.083814  L 309.063712 50.083814  L 310.411962 48.021688  L 311.760206 45.264284  L 321.197949 24.027578  L 323.894449 18.535994  L 326.590943 13.405355  L 329.287443 8.710656  L 330.635693 6.606919  L 331.983936 4.813324  L 333.332187 3.643399  L 334.680437 3.425187  L 336.028687 3.915317  L 338.72518 5.596177  L 342.76993 8.26262  L 345.466424 9.683174  L 346.814674 10.146209  L 348.162924 10.340713  L 349.511174 10.174755  L 350.859424 9.590277  L 352.207667 8.615823  L 357.600667 3.724684  L 358.948911 3.266004  L 360.297161 3.552437  L 361.645411 4.576727  L 368.386654 12.866357  L 369.734904 14.283525  L 371.083154 15.471836  L 372.431398 16.368875  L 373.779648 16.928194  L 375.127898 17.118343  L 375.127898 17.118343  " clip-path="url(#p87fb032468)" style="fill: none; stroke: #008000; stroke-width: 1.5; stroke-linecap: square"/>
   </g>
   <g id="line2d_37">
    <path d="M 50.473352 16.802396  L 52.29679 16.632568  L 54.120222 16.129374  L 55.94366 15.310717  L 57.767098 14.20611  L 59.59053 12.856197  L 62.325687 10.466995  L 65.972556 6.834324  L 66.884275 5.879708  L 67.795994 5.822131  L 74.402248 -1  M 169.477184 -1  L 170.585958 -0.491497  L 172.40939 0.639237  L 175.144547 2.729909  L 185.173443 10.877291  L 195.202339 18.633246  L 198.849215 21.832396  L 201.584366 24.484807  L 205.231242 28.356011  L 206.142961 27.771049  L 210.70155 18.114086  L 211.613269 16.181145  L 213.767401 19.663825  L 214.844464 21.132764  L 215.921533 22.345751  L 216.998596 23.233597  L 218.075666 23.711631  L 219.152735 23.724695  L 220.229798 23.328913  L 221.306867 22.672826  L 223.460999 21.039383  L 240.694064 7.014313  L 246.079398 2.095595  L 249.428944 -1  M 277.425554 -1  L 282.623887 4.596564  L 283.535606 5.389578  L 284.447325 6.014699  L 285.359044 6.403223  L 286.270763 6.494668  L 287.182482 6.26678  L 288.094194 5.748587  L 289.005913 4.998635  L 290.829351 3.03618  L 293.564502 -0.512786  L 293.915717 -1  M 357.72828 -1  L 361.645411 4.336742  L 364.341911 7.665561  L 367.038404 11.145822  L 368.386654 12.697013  L 369.734904 14.048378  L 371.083154 15.183467  L 372.431398 16.055831  L 373.779648 16.611279  L 375.127898 16.802396  L 375.127898 16.802396  " clip-path="url(#p87fb032468)" style="fill: none; stroke: #008000; stroke-width: 1.5; stroke-linecap: square"/>
   </g>
   <g id="line2d_38">
    <path d="M 63.484658 -1  L 66.884275 5.775682  L 68.707713 3.944348  L 73.38178 -1  M 203.309149 -1  L 208.878112 10.432642  L 211.613269 16.181145  L 211.613269 16.181145  L 213.767401 12.022057  L 216.998596 5.246845  L 219.854149 -1  L 219.854149 -1  " clip-path="url(#p87fb032468)" style="fill: none; stroke: #008000; stroke-width: 1.5; stroke-linecap: square"/>
   </g>
   <g id="line2d_39">
    <path d="M 0 0  " clip-path="url(#p87fb032468)" style="fill: none; stroke: #008000; stroke-width: 1.5; stroke-linecap: square"/>
   </g>
   <g id="line2d_40">
    <path d="M 0 0  " clip-path="url(#p87fb032468)" style="fill: none; stroke: #008000; stroke-width: 1.5; stroke-linecap: square"/>
   </g>
   <g id="line2d_41">
    <path d="M 0 0  " clip-path="url(#p87fb032468)" style="fill: none; stroke: #008000; stroke-width: 1.5; stroke-linecap: square"/>
   </g>
   <g id="line2d_42">
    <path d="M 0 0  " clip-path="url(#p87fb032468)" style="fill: none; stroke: #008000; stroke-width: 1.5; stroke-linecap: square"/>
   </g>
   <g id="line2d_43">
    <path d="M 0 0  " clip-path="url(#p87fb032468)" style="fill: none; stroke: #008000; stroke-width: 1.5; stroke-linecap: square"/>
   </g>
   <g id="line2d_44">
    <path d="M 0 0  " clip-path="url(#p87fb032468)" style="fill: none; stroke: #008000; stroke-width: 1.5; stroke-linecap: square"/>
   </g>
   <g id="line2d_45">
    <path d="M 0 0  " clip-path="url(#p87fb032468)" style="fill: none; stroke: #008000; stroke-width: 1.5; stroke-linecap: square"/>
   </g>
   <g id="line2d_46">
    <path d="M 0 0  " clip-path="url(#p87fb032468)" style="fill: none; stroke: #008000; stroke-width: 1.5; stroke-linecap: square"/>
   </g>
   <g id="line2d_47">
    <path d="M 0 0  " clip-path="url(#p87fb032468)" style="fill: none; stroke: #008000; stroke-width: 1.5; stroke-linecap: square"/>
   </g>
   <g id="line2d_48">
    <path d="M 0 0  " clip-path="url(#p87fb032468)" style="fill: none; stroke: #008000; stroke-width: 1.5; stroke-linecap: square"/>
   </g>
   <g id="line2d_49">
    <path d="M 0 0  " clip-path="url(#p87fb032468)" style="fill: none; stroke: #008000; stroke-width: 1.5; stroke-linecap: square"/>
   </g>
   <g id="line2d_50">
    <path d="M 0 0  " clip-path="url(#p87fb032468)" style="fill: none; stroke: #008000; stroke-width: 1.5; stroke-linecap: square"/>
   </g>
   <g id="line2d_51">
    <path d="M 0 0  " clip-path="url(#p87fb032468)" style="fill: none; stroke: #008000; stroke-width: 1.5; stroke-linecap: square"/>
   </g>
   <g id="line2d_52">
    <path d="M 0 0  " clip-path="url(#p87fb032468)" style="fill: none; stroke: #008000; stroke-width: 1.5; stroke-linecap: square"/>
   </g>
   <g id="line2d_53">
    <path d="M 0 0  " clip-path="url(#p87fb032468)" style="fill: none; stroke: #008000; stroke-width: 1.5; stroke-linecap: square"/>
   </g>
   <g id="line2d_54">
    <path d="M 0 0  " clip-path="url(#p87fb032468)" style="fill: none; stroke: #008000; stroke-width: 1.5; stroke-linecap: square"/>
   </g>
   <g id="line2d_55">
    <path d="M 0 0  " clip-path="url(#p87fb032468)" style="fill: none; stroke: #008000; stroke-width: 1.5; stroke-linecap: square"/>
   </g>
   <g id="line2d_56">
    <path d="M 0 0  " clip-path="url(#p87fb032468)" style="fill: none; stroke: #008000; stroke-width: 1.5; stroke-linecap: square"/>
   </g>
   <g id="line2d_57">
    <path d="M 0 0  " clip-path="url(#p87fb032468)" style="fill: none; stroke: #008000; stroke-width: 1.5; stroke-linecap: square"/>
   </g>
   <g id="line2d_58">
    <path d="M 0 0  " clip-path="url(#p87fb032468)" style="fill: none; stroke: #008000; stroke-width: 1.5; stroke-linecap: square"/>
   </g>
   <g id="line2d_59">
    <path d="M 0 0  " clip-path="url(#p87fb032468)" style="fill: none; stroke: #008000; stroke-width: 1.5; stroke-linecap: square"/>
   </g>
   <g id="line2d_60">
    <path d="M 0 0  " clip-path="url(#p87fb032468)" style="fill: none; stroke: #008000; stroke-width: 1.5; stroke-linecap: square"/>
   </g>
   <g id="line2d_61">
    <path d="M 0 0  " clip-path="url(#p87fb032468)" style="fill: none; stroke: #008000; stroke-width: 1.5; stroke-linecap: square"/>
   </g>
   <g id="line2d_62">
    <path d="M 0 0  " clip-path="url(#p87fb032468)" style="fill: none; stroke: #008000; stroke-width: 1.5; stroke-linecap: square"/>
   </g>
   <g id="line2d_63">
    <path d="M 0 0  " clip-path="url(#p87fb032468)" style="fill: none; stroke: #008000; stroke-width: 1.5; stroke-linecap: square"/>
   </g>
   <g id="line2d_64">
    <path d="M 0 0  " clip-path="url(#p87fb032468)" style="fill: none; stroke: #008000; stroke-width: 1.5; stroke-linecap: square"/>
   </g>
   <g id="line2d_65">
    <path d="M 0 0  " clip-path="url(#p87fb032468)" style="fill: none; stroke: #008000; stroke-width: 1.5; stroke-linecap: square"/>
   </g>
   <g id="line2d_66">
    <path d="M 0 0  " clip-path="url(#p87fb032468)" style="fill: none; stroke: #008000; stroke-width: 1.5; stroke-linecap: square"/>
   </g>
   <g id="line2d_67">
    <path d="M 0 0  " clip-path="url(#p87fb032468)" style="fill: none; stroke: #008000; stroke-width: 1.5; stroke-linecap: square"/>
   </g>
   <g id="line2d_68">
    <path d="M 0 0  " clip-path="url(#p87fb032468)" style="fill: none; stroke: #008000; stroke-width: 1.5; stroke-linecap: square"/>
   </g>
   <g id="patch_3">
    <path d="M 34.240625 277.111219  L 34.240625 10.999219  " style="fill: none; stroke: #000000; stroke-width: 0.8; stroke-linejoin: miter; stroke-linecap: square"/>
   </g>
   <g id="patch_4">
    <path d="M 391.360625 277.111219  L 391.360625 10.999219  " style="fill: none; stroke: #000000; stroke-width: 0.8; stroke-linejoin: miter; stroke-linecap: square"/>
   </g>
   <g id="patch_5">
    <path d="M 34.240625 277.111219  L 391.360625 277.111219  " style="fill: none; stroke: #000000; stroke-width: 0.8; stroke-linejoin: miter; stroke-linecap: square"/>
   </g>
   <g id="patch_6">
    <path d="M 34.240625 10.999219  L 391.360625 10.999219  " style="fill: none; stroke: #000000; stroke-width: 0.8; stroke-linejoin: miter; stroke-linecap: square"/>
   </g>
  </g>
 </g>
 <defs>
  <clipPath id="p87fb032468">
   <rect x="34.240625" y="10.999219" width="357.12" height="266.112"/>
  </clipPath>
 </defs>
</svg>