<?xml version="1.0" encoding="utf-8" standalone="no"?>
<!DOCTYPE svg PUBLIC "-//W3C//DTD SVG 1.1//EN"
  "http://www.w3.org/Graphics/SVG/1.1/DTD/svg11.dtd">
<svg xmlns:xlink="http://www.w3.org/1999/xlink" width="460.8pt" height="345.6pt" viewBox="0 0 460.8 345.6" xmlns="http://www.w3.org/2000/svg" version="1.1">
 <metadata>
  <rdf:RDF xmlns:dc="http://purl.org/dc/elements/1.1/" xmlns:cc="http://creativecommons.org/ns#" xmlns:rdf="http://www.w3.org/1999/02/22-rdf-syntax-ns#">
   <cc:Work>
    <dc:type rdf:resource="http://purl.org/dc/dcmitype/StillImage"/>
    <dc:date>2024-08-26T12:55:07.935701</dc:date>
    <dc:format>image/svg+xml</dc:format>
    <dc:creator>
     <cc:Agent>
      <dc:title>Matplotlib v3.9.2, https://matplotlib.org/</dc:title>
     </cc:Agent>
    </dc:creator>
   </cc:Work>
  </rdf:RDF>
 </metadata>
 <defs>
  <style type="text/css">*{stroke-linejoin: round; stroke-linecap: butt}</style>
 </defs>
 <g id="figure_1">
  <g id="patch_1">
   <path d="M 0 345.6 
L 460.8 345.6 
L 460.8 0 
L 0 0 
z
" style="fill: #ffffff"/>
  </g>
  <g id="axes_1">
   <g id="patch_2">
    <path d="M 57.6 307.584 
L 414.72 307.584 
L 414.72 41.472 
L 57.6 41.472 
z
" style="fill: #ffffff"/>
   </g>
   <g id="matplotlib.axis_1">
    <g id="xtick_1">
     <g id="line2d_1">
      <path d="M 73.832727 307.584 
L 73.832727 41.472 
" clip-path="url(#p69974d7cf2)" style="fill: none; stroke: #b0b0b0; stroke-width: 0.8; stroke-linecap: square"/>
     </g>
     <g id="line2d_2">
      <defs>
       <path id="m94600be2f8" d="M 0 0 
L 0 3.5 
" style="stroke: #000000; stroke-width: 0.8"/>
      </defs>
      <g>
       <use xlink:href="#m94600be2f8" x="73.832727" y="307.584" style="stroke: #000000; stroke-width: 0.8"/>
      </g>
     </g>
     <g id="text_1">
      <!-- G -->
      <g transform="translate(69.958509 322.182437) scale(0.1 -0.1)">
       <defs>
        <path id="DejaVuSans-47" d="M 3809 666 
L 3809 1919 
L 2778 1919 
L 2778 2438 
L 4434 2438 
L 4434 434 
Q 4069 175 3628 42 
Q 3188 -91 2688 -91 
Q 1594 -91 976 548 
Q 359 1188 359 2328 
Q 359 3472 976 4111 
Q 1594 4750 2688 4750 
Q 3144 4750 3555 4637 
Q 3966 4525 4313 4306 
L 4313 3634 
Q 3963 3931 3569 4081 
Q 3175 4231 2741 4231 
Q 1884 4231 1454 3753 
Q 1025 3275 1025 2328 
Q 1025 1384 1454 906 
Q 1884 428 2741 428 
Q 3075 428 3337 486 
Q 3600 544 3809 666 
z
" transform="scale(0.015625)"/>
       </defs>
       <use xlink:href="#DejaVuSans-47"/>
      </g>
     </g>
    </g>
    <g id="xtick_2">
     <g id="line2d_3">
      <path d="M 118.522266 307.584 
L 118.522266 41.472 
" clip-path="url(#p69974d7cf2)" style="fill: none; stroke: #b0b0b0; stroke-width: 0.8; stroke-linecap: square"/>
     </g>
     <g id="line2d_4">
      <g>
       <use xlink:href="#m94600be2f8" x="118.522266" y="307.584" style="stroke: #000000; stroke-width: 0.8"/>
      </g>
     </g>
     <g id="text_2">
      <!-- A -->
      <g transform="translate(115.101953 322.182437) scale(0.1 -0.1)">
       <defs>
        <path id="DejaVuSans-41" d="M 2188 4044 
L 1331 1722 
L 3047 1722 
L 2188 4044 
z
M 1831 4666 
L 2547 4666 
L 4325 0 
L 3669 0 
L 3244 1197 
L 1141 1197 
L 716 0 
L 50 0 
L 1831 4666 
z
" transform="scale(0.015625)"/>
       </defs>
       <use xlink:href="#DejaVuSans-41"/>
      </g>
     </g>
    </g>
    <g id="xtick_3">
     <g id="line2d_5">
      <path d="M 190.286771 307.584 
L 190.286771 41.472 
" clip-path="url(#p69974d7cf2)" style="fill: none; stroke: #b0b0b0; stroke-width: 0.8; stroke-linecap: square"/>
     </g>
     <g id="line2d_6">
      <g>
       <use xlink:href="#m94600be2f8" x="190.286771" y="307.584" style="stroke: #000000; stroke-width: 0.8"/>
      </g>
     </g>
     <g id="text_3">
      <!-- K -->
      <g transform="translate(187.007865 322.182437) scale(0.1 -0.1)">
       <defs>
        <path id="DejaVuSans-4b" d="M 628 4666 
L 1259 4666 
L 1259 2694 
L 3353 4666 
L 4166 4666 
L 1850 2491 
L 4331 0 
L 3500 0 
L 1259 2247 
L 1259 0 
L 628 0 
L 628 4666 
z
" transform="scale(0.015625)"/>
       </defs>
       <use xlink:href="#DejaVuSans-4b"/>
      </g>
     </g>
    </g>
    <g id="xtick_4">
     <g id="line2d_7">
      <path d="M 234.976309 307.584 
L 234.976309 41.472 
" clip-path="url(#p69974d7cf2)" style="fill: none; stroke: #b0b0b0; stroke-width: 0.8; stroke-linecap: square"/>
     </g>
     <g id="line2d_8">
      <g>
       <use xlink:href="#m94600be2f8" x="234.976309" y="307.584" style="stroke: #000000; stroke-width: 0.8"/>
      </g>
     </g>
     <g id="text_4">
      <!-- H -->
      <g transform="translate(231.216153 322.182437) scale(0.1 -0.1)">
       <defs>
        <path id="DejaVuSans-48" d="M 628 4666 
L 1259 4666 
L 1259 2753 
L 3553 2753 
L 3553 4666 
L 4184 4666 
L 4184 0 
L 3553 0 
L 3553 2222 
L 1259 2222 
L 1259 0 
L 628 0 
L 628 4666 
z
" transform="scale(0.015625)"/>
       </defs>
       <use xlink:href="#DejaVuSans-48"/>
      </g>
     </g>
    </g>
    <g id="xtick_5">
     <g id="line2d_9">
      <path d="M 287.755359 307.584 
L 287.755359 41.472 
" clip-path="url(#p69974d7cf2)" style="fill: none; stroke: #b0b0b0; stroke-width: 0.8; stroke-linecap: square"/>
     </g>
     <g id="line2d_10">
      <g>
       <use xlink:href="#m94600be2f8" x="287.755359" y="307.584" style="stroke: #000000; stroke-width: 0.8"/>
      </g>
     </g>
     <g id="text_5">
      <!-- M -->
      <g transform="translate(283.441296 322.182437) scale(0.1 -0.1)">
       <defs>
        <path id="DejaVuSans-4d" d="M 628 4666 
L 1569 4666 
L 2759 1491 
L 3956 4666 
L 4897 4666 
L 4897 0 
L 4281 0 
L 4281 4097 
L 3078 897 
L 2444 897 
L 1241 4097 
L 1241 0 
L 628 0 
L 628 4666 
z
" transform="scale(0.015625)"/>
       </defs>
       <use xlink:href="#DejaVuSans-4d"/>
      </g>
     </g>
    </g>
    <g id="xtick_6">
     <g id="line2d_11">
      <path d="M 332.444897 307.584 
L 332.444897 41.472 
" clip-path="url(#p69974d7cf2)" style="fill: none; stroke: #b0b0b0; stroke-width: 0.8; stroke-linecap: square"/>
     </g>
     <g id="line2d_12">
      <g>
       <use xlink:href="#m94600be2f8" x="332.444897" y="307.584" style="stroke: #000000; stroke-width: 0.8"/>
      </g>
     </g>
     <g id="text_6">
      <!-- L -->
      <g transform="translate(329.65896 322.182437) scale(0.1 -0.1)">
       <defs>
        <path id="DejaVuSans-4c" d="M 628 4666 
L 1259 4666 
L 1259 531 
L 3531 531 
L 3531 0 
L 628 0 
L 628 4666 
z
" transform="scale(0.015625)"/>
       </defs>
       <use xlink:href="#DejaVuSans-4c"/>
      </g>
     </g>
    </g>
    <g id="xtick_7">
     <g id="line2d_13">
      <path d="M 398.486607 307.584 
L 398.486607 41.472 
" clip-path="url(#p69974d7cf2)" style="fill: none; stroke: #b0b0b0; stroke-width: 0.8; stroke-linecap: square"/>
     </g>
     <g id="line2d_14">
      <g>
       <use xlink:href="#m94600be2f8" x="398.486607" y="307.584" style="stroke: #000000; stroke-width: 0.8"/>
      </g>
     </g>
     <g id="text_7">
      <!-- G -->
      <g transform="translate(394.612388 322.182437) scale(0.1 -0.1)">
       <use xlink:href="#DejaVuSans-47"/>
      </g>
     </g>
    </g>
   </g>
   <g id="matplotlib.axis_2">
    <g id="ytick_1">
     <g id="line2d_15">
      <defs>
       <path id="mffa7707479" d="M 0 0 
L -3.5 0 
" style="stroke: #000000; stroke-width: 0.8"/>
      </defs>
      <g>
       <use xlink:href="#mffa7707479" x="57.6" y="297.348923" style="stroke: #000000; stroke-width: 0.8"/>
      </g>
     </g>
     <g id="text_8">
      <!-- 0 -->
      <g transform="translate(44.2375 301.148142) scale(0.1 -0.1)">
       <defs>
        <path id="DejaVuSans-30" d="M 2034 4250 
Q 1547 4250 1301 3770 
Q 1056 3291 1056 2328 
Q 1056 1369 1301 889 
Q 1547 409 2034 409 
Q 2525 409 2770 889 
Q 3016 1369 3016 2328 
Q 3016 3291 2770 3770 
Q 2525 4250 2034 4250 
z
M 2034 4750 
Q 2819 4750 3233 4129 
Q 3647 3509 3647 2328 
Q 3647 1150 3233 529 
Q 2819 -91 2034 -91 
Q 1250 -91 836 529 
Q 422 1150 422 2328 
Q 422 3509 836 4129 
Q 1250 4750 2034 4750 
z
" transform="scale(0.015625)"/>
       </defs>
       <use xlink:href="#DejaVuSans-30"/>
      </g>
     </g>
    </g>
    <g id="ytick_2">
     <g id="line2d_16">
      <g>
       <use xlink:href="#mffa7707479" x="57.6" y="246.173538" style="stroke: #000000; stroke-width: 0.8"/>
      </g>
     </g>
     <g id="text_9">
      <!-- 1 -->
      <g transform="translate(44.2375 249.972757) scale(0.1 -0.1)">
       <defs>
        <path id="DejaVuSans-31" d="M 794 531 
L 1825 531 
L 1825 4091 
L 703 3866 
L 703 4441 
L 1819 4666 
L 2450 4666 
L 2450 531 
L 3481 531 
L 3481 0 
L 794 0 
L 794 531 
z
" transform="scale(0.015625)"/>
       </defs>
       <use xlink:href="#DejaVuSans-31"/>
      </g>
     </g>
    </g>
    <g id="ytick_3">
     <g id="line2d_17">
      <g>
       <use xlink:href="#mffa7707479" x="57.6" y="194.998154" style="stroke: #000000; stroke-width: 0.8"/>
      </g>
     </g>
     <g id="text_10">
      <!-- 2 -->
      <g transform="translate(44.2375 198.797373) scale(0.1 -0.1)">
       <defs>
        <path id="DejaVuSans-32" d="M 1228 531 
L 3431 531 
L 3431 0 
L 469 0 
L 469 531 
Q 828 903 1448 1529 
Q 2069 2156 2228 2338 
Q 2531 2678 2651 2914 
Q 2772 3150 2772 3378 
Q 2772 3750 2511 3984 
Q 2250 4219 1831 4219 
Q 1534 4219 1204 4116 
Q 875 4013 500 3803 
L 500 4441 
Q 881 4594 1212 4672 
Q 1544 4750 1819 4750 
Q 2544 4750 2975 4387 
Q 3406 4025 3406 3419 
Q 3406 3131 3298 2873 
Q 3191 2616 2906 2266 
Q 2828 2175 2409 1742 
Q 1991 1309 1228 531 
z
" transform="scale(0.015625)"/>
       </defs>
       <use xlink:href="#DejaVuSans-32"/>
      </g>
     </g>
    </g>
    <g id="ytick_4">
     <g id="line2d_18">
      <g>
       <use xlink:href="#mffa7707479" x="57.6" y="143.822769" style="stroke: #000000; stroke-width: 0.8"/>
      </g>
     </g>
     <g id="text_11">
      <!-- 3 -->
      <g transform="translate(44.2375 147.621988) scale(0.1 -0.1)">
       <defs>
        <path id="DejaVuSans-33" d="M 2597 2516 
Q 3050 2419 3304 2112 
Q 3559 1806 3559 1356 
Q 3559 666 3084 287 
Q 2609 -91 1734 -91 
Q 1441 -91 1130 -33 
Q 819 25 488 141 
L 488 750 
Q 750 597 1062 519 
Q 1375 441 1716 441 
Q 2309 441 2620 675 
Q 2931 909 2931 1356 
Q 2931 1769 2642 2001 
Q 2353 2234 1838 2234 
L 1294 2234 
L 1294 2753 
L 1863 2753 
Q 2328 2753 2575 2939 
Q 2822 3125 2822 3475 
Q 2822 3834 2567 4026 
Q 2313 4219 1838 4219 
Q 1578 4219 1281 4162 
Q 984 4106 628 3988 
L 628 4550 
Q 988 4650 1302 4700 
Q 1616 4750 1894 4750 
Q 2613 4750 3031 4423 
Q 3450 4097 3450 3541 
Q 3450 3153 3228 2886 
Q 3006 2619 2597 2516 
z
" transform="scale(0.015625)"/>
       </defs>
       <use xlink:href="#DejaVuSans-33"/>
      </g>
     </g>
    </g>
    <g id="ytick_5">
     <g id="line2d_19">
      <g>
       <use xlink:href="#mffa7707479" x="57.6" y="92.647385" style="stroke: #000000; stroke-width: 0.8"/>
      </g>
     </g>
     <g id="text_12">
      <!-- 4 -->
      <g transform="translate(44.2375 96.446603) scale(0.1 -0.1)">
       <defs>
        <path id="DejaVuSans-34" d="M 2419 4116 
L 825 1625 
L 2419 1625 
L 2419 4116 
z
M 2253 4666 
L 3047 4666 
L 3047 1625 
L 3713 1625 
L 3713 1100 
L 3047 1100 
L 3047 0 
L 2419 0 
L 2419 1100 
L 313 1100 
L 313 1709 
L 2253 4666 
z
" transform="scale(0.015625)"/>
       </defs>
       <use xlink:href="#DejaVuSans-34"/>
      </g>
     </g>
    </g>
    <g id="ytick_6">
     <g id="line2d_20">
      <g>
       <use xlink:href="#mffa7707479" x="57.6" y="41.472" style="stroke: #000000; stroke-width: 0.8"/>
      </g>
     </g>
     <g id="text_13">
      <!-- 5 -->
      <g transform="translate(44.2375 45.271219) scale(0.1 -0.1)">
       <defs>
        <path id="DejaVuSans-35" d="M 691 4666 
L 3169 4666 
L 3169 4134 
L 1269 4134 
L 1269 2991 
Q 1406 3038 1543 3061 
Q 1681 3084 1819 3084 
Q 2600 3084 3056 2656 
Q 3513 2228 3513 1497 
Q 3513 744 3044 326 
Q 2575 -91 1722 -91 
Q 1428 -91 1123 -41 
Q 819 9 494 109 
L 494 744 
Q 775 591 1075 516 
Q 1375 441 1709 441 
Q 2250 441 2565 725 
Q 2881 1009 2881 1497 
Q 2881 1984 2565 2268 
Q 2250 2553 1709 2553 
Q 1456 2553 1204 2497 
Q 953 2441 691 2322 
L 691 4666 
z
" transform="scale(0.015625)"/>
       </defs>
       <use xlink:href="#DejaVuSans-35"/>
      </g>
     </g>
    </g>
    <g id="text_14">
     <!-- Frequency (THz) -->
     <g transform="translate(38.157812 215.286594) rotate(-90) scale(0.1 -0.1)">
      <defs>
       <path id="DejaVuSans-46" d="M 628 4666 
L 3309 4666 
L 3309 4134 
L 1259 4134 
L 1259 2759 
L 3109 2759 
L 3109 2228 
L 1259 2228 
L 1259 0 
L 628 0 
L 628 4666 
z
" transform="scale(0.015625)"/>
       <path id="DejaVuSans-72" d="M 2631 2963 
Q 2534 3019 2420 3045 
Q 2306 3072 2169 3072 
Q 1681 3072 1420 2755 
Q 1159 2438 1159 1844 
L 1159 0 
L 581 0 
L 581 3500 
L 1159 3500 
L 1159 2956 
Q 1341 3275 1631 3429 
Q 1922 3584 2338 3584 
Q 2397 3584 2469 3576 
Q 2541 3569 2628 3553 
L 2631 2963 
z
" transform="scale(0.015625)"/>
       <path id="DejaVuSans-65" d="M 3597 1894 
L 3597 1613 
L 953 1613 
Q 991 1019 1311 708 
Q 1631 397 2203 397 
Q 2534 397 2845 478 
Q 3156 559 3463 722 
L 3463 178 
Q 3153 47 2828 -22 
Q 2503 -91 2169 -91 
Q 1331 -91 842 396 
Q 353 884 353 1716 
Q 353 2575 817 3079 
Q 1281 3584 2069 3584 
Q 2775 3584 3186 3129 
Q 3597 2675 3597 1894 
z
M 3022 2063 
Q 3016 2534 2758 2815 
Q 2500 3097 2075 3097 
Q 1594 3097 1305 2825 
Q 1016 2553 972 2059 
L 3022 2063 
z
" transform="scale(0.015625)"/>
       <path id="DejaVuSans-71" d="M 947 1747 
Q 947 1113 1208 752 
Q 1469 391 1925 391 
Q 2381 391 2643 752 
Q 2906 1113 2906 1747 
Q 2906 2381 2643 2742 
Q 2381 3103 1925 3103 
Q 1469 3103 1208 2742 
Q 947 2381 947 1747 
z
M 2906 525 
Q 2725 213 2448 61 
Q 2172 -91 1784 -91 
Q 1150 -91 751 415 
Q 353 922 353 1747 
Q 353 2572 751 3078 
Q 1150 3584 1784 3584 
Q 2172 3584 2448 3432 
Q 2725 3281 2906 2969 
L 2906 3500 
L 3481 3500 
L 3481 -1331 
L 2906 -1331 
L 2906 525 
z
" transform="scale(0.015625)"/>
       <path id="DejaVuSans-75" d="M 544 1381 
L 544 3500 
L 1119 3500 
L 1119 1403 
Q 1119 906 1312 657 
Q 1506 409 1894 409 
Q 2359 409 2629 706 
Q 2900 1003 2900 1516 
L 2900 3500 
L 3475 3500 
L 3475 0 
L 2900 0 
L 2900 538 
Q 2691 219 2414 64 
Q 2138 -91 1772 -91 
Q 1169 -91 856 284 
Q 544 659 544 1381 
z
M 1991 3584 
L 1991 3584 
z
" transform="scale(0.015625)"/>
       <path id="DejaVuSans-6e" d="M 3513 2113 
L 3513 0 
L 2938 0 
L 2938 2094 
Q 2938 2591 2744 2837 
Q 2550 3084 2163 3084 
Q 1697 3084 1428 2787 
Q 1159 2491 1159 1978 
L 1159 0 
L 581 0 
L 581 3500 
L 1159 3500 
L 1159 2956 
Q 1366 3272 1645 3428 
Q 1925 3584 2291 3584 
Q 2894 3584 3203 3211 
Q 3513 2838 3513 2113 
z
" transform="scale(0.015625)"/>
       <path id="DejaVuSans-63" d="M 3122 3366 
L 3122 2828 
Q 2878 2963 2633 3030 
Q 2388 3097 2138 3097 
Q 1578 3097 1268 2742 
Q 959 2388 959 1747 
Q 959 1106 1268 751 
Q 1578 397 2138 397 
Q 2388 397 2633 464 
Q 2878 531 3122 666 
L 3122 134 
Q 2881 22 2623 -34 
Q 2366 -91 2075 -91 
Q 1284 -91 818 406 
Q 353 903 353 1747 
Q 353 2603 823 3093 
Q 1294 3584 2113 3584 
Q 2378 3584 2631 3529 
Q 2884 3475 3122 3366 
z
" transform="scale(0.015625)"/>
       <path id="DejaVuSans-79" d="M 2059 -325 
Q 1816 -950 1584 -1140 
Q 1353 -1331 966 -1331 
L 506 -1331 
L 506 -850 
L 844 -850 
Q 1081 -850 1212 -737 
Q 1344 -625 1503 -206 
L 1606 56 
L 191 3500 
L 800 3500 
L 1894 763 
L 2988 3500 
L 3597 3500 
L 2059 -325 
z
" transform="scale(0.015625)"/>
       <path id="DejaVuSans-20" transform="scale(0.015625)"/>
       <path id="DejaVuSans-28" d="M 1984 4856 
Q 1566 4138 1362 3434 
Q 1159 2731 1159 2009 
Q 1159 1288 1364 580 
Q 1569 -128 1984 -844 
L 1484 -844 
Q 1016 -109 783 600 
Q 550 1309 550 2009 
Q 550 2706 781 3412 
Q 1013 4119 1484 4856 
L 1984 4856 
z
" transform="scale(0.015625)"/>
       <path id="DejaVuSans-54" d="M -19 4666 
L 3928 4666 
L 3928 4134 
L 2272 4134 
L 2272 0 
L 1638 0 
L 1638 4134 
L -19 4134 
L -19 4666 
z
" transform="scale(0.015625)"/>
       <path id="DejaVuSans-7a" d="M 353 3500 
L 3084 3500 
L 3084 2975 
L 922 459 
L 3084 459 
L 3084 0 
L 275 0 
L 275 525 
L 2438 3041 
L 353 3041 
L 353 3500 
z
" transform="scale(0.015625)"/>
       <path id="DejaVuSans-29" d="M 513 4856 
L 1013 4856 
Q 1481 4119 1714 3412 
Q 1947 2706 1947 2009 
Q 1947 1309 1714 600 
Q 1481 -109 1013 -844 
L 513 -844 
Q 928 -128 1133 580 
Q 1338 1288 1338 2009 
Q 1338 2731 1133 3434 
Q 928 4138 513 4856 
z
" transform="scale(0.015625)"/>
      </defs>
      <use xlink:href="#DejaVuSans-46"/>
      <use xlink:href="#DejaVuSans-72" x="50.269531"/>
      <use xlink:href="#DejaVuSans-65" x="89.132812"/>
      <use xlink:href="#DejaVuSans-71" x="150.65625"/>
      <use xlink:href="#DejaVuSans-75" x="214.132812"/>
      <use xlink:href="#DejaVuSans-65" x="277.511719"/>
      <use xlink:href="#DejaVuSans-6e" x="339.035156"/>
      <use xlink:href="#DejaVuSans-63" x="402.414062"/>
      <use xlink:href="#DejaVuSans-79" x="457.394531"/>
      <use xlink:href="#DejaVuSans-20" x="516.574219"/>
      <use xlink:href="#DejaVuSans-28" x="548.361328"/>
      <use xlink:href="#DejaVuSans-54" x="587.375"/>
      <use xlink:href="#DejaVuSans-48" x="648.458984"/>
      <use xlink:href="#DejaVuSans-7a" x="723.654297"/>
      <use xlink:href="#DejaVuSans-29" x="776.144531"/>
     </g>
    </g>
   </g>
   <g id="line2d_21">
    <path d="M 73.832727 298.551033 
L 74.72655 298.90312 
L 75.62038 295.26762 
L 77.408026 291.33428 
L 80.983325 284.507484 
L 86.346277 274.816401 
L 90.815398 267.128323 
L 95.284527 259.866024 
L 98.859826 254.428128 
L 102.435125 249.381723 
L 106.010423 244.761098 
L 109.585722 240.581092 
L 112.267198 237.738812 
L 114.948674 235.145755 
L 116.73632 233.622264 
L 117.630143 233.162197 
L 118.523973 232.990248 
L 118.523973 232.990248 
L 119.959198 233.108975 
L 122.829656 233.941598 
L 128.57057 235.785447 
L 132.876259 236.883671 
L 137.181942 237.672284 
L 141.487625 238.13235 
L 145.793314 238.264895 
L 150.098997 238.097551 
L 154.404686 237.694801 
L 158.710369 237.13136 
L 161.580827 236.602718 
L 164.451284 235.817688 
L 174.497888 232.53274 
L 178.803571 231.389993 
L 181.674028 230.76463 
L 184.544485 230.333733 
L 187.414943 230.191466 
L 192.073053 230.172531 
L 193.860699 229.895672 
L 195.648352 229.436117 
L 197.435998 228.804613 
L 200.117473 227.56668 
L 202.798949 226.031419 
L 206.374248 223.643575 
L 210.84337 220.338669 
L 215.312499 216.808591 
L 218.887797 213.714016 
L 222.463096 210.301129 
L 227.826048 205.064864 
L 229.613694 203.531137 
L 231.401347 202.2364 
L 233.188993 201.271744 
L 234.976645 200.726215 
L 234.976645 200.726215 
L 236.032181 200.850059 
L 237.087723 201.097236 
L 239.198801 201.926277 
L 241.309879 203.132481 
L 243.420957 204.627826 
L 246.587571 207.228047 
L 252.920805 212.672596 
L 256.087425 215.014894 
L 258.198503 216.301955 
L 260.309581 217.321368 
L 262.420658 218.044988 
L 264.531736 218.460021 
L 266.642814 218.568001 
L 268.753892 218.387863 
L 270.86497 217.960549 
L 277.198204 216.287626 
L 278.25374 216.263061 
L 280.364818 216.509727 
L 284.586973 217.148907 
L 286.698051 217.30141 
L 288.647417 217.298339 
L 290.435069 217.121273 
L 292.222715 216.775327 
L 294.904191 216.007696 
L 296.691837 215.511807 
L 297.585667 215.462678 
L 298.47949 215.732884 
L 302.054789 217.201618 
L 303.842442 217.665779 
L 305.630088 217.848475 
L 307.41774 217.701601 
L 309.205387 217.191383 
L 310.993039 216.299908 
L 312.780685 215.025129 
L 314.568338 213.377281 
L 316.355984 211.382977 
L 318.143637 209.089808 
L 320.825113 205.50446 
L 321.718936 204.66416 
L 323.506589 203.618136 
L 327.081887 201.797315 
L 329.763363 200.37464 
L 330.657186 200.006177 
L 331.551009 199.759512 
L 332.444832 199.672513 
L 332.444832 199.672513 
L 333.765686 199.781517 
L 335.086533 200.099828 
L 336.40738 200.604417 
L 339.049081 202.020952 
L 344.332476 205.458402 
L 346.97417 207.220371 
L 348.295017 208.264861 
L 349.615871 209.634826 
L 350.936718 211.369159 
L 353.578419 215.490313 
L 357.54096 222.415366 
L 362.824355 232.237969 
L 374.711999 255.057585 
L 386.599636 277.764615 
L 391.883031 287.133805 
L 394.524725 291.801 
L 395.845578 294.39815 
L 397.166426 299.145179 
L 398.487273 298.551033 
L 398.487273 298.551033 
" clip-path="url(#p69974d7cf2)" style="fill: none; stroke: #008000; stroke-width: 1.5; stroke-linecap: square"/>
   </g>
   <g id="line2d_22">
    <path d="M 73.832727 298.273151 
L 74.72655 296.030133 
L 76.514203 292.485726 
L 82.770978 280.965635 
L 88.133923 271.493072 
L 92.603051 264.002019 
L 97.072173 256.97308 
L 100.647472 251.726068 
L 104.222771 246.84496 
L 107.79807 242.376325 
L 110.479545 239.326784 
L 113.161021 236.572525 
L 114.948674 234.943612 
L 117.630143 232.885338 
L 118.523973 232.525063 
L 121.39443 233.028117 
L 122.829656 233.107951 
L 124.264887 233.009694 
L 125.700113 232.730788 
L 127.135345 232.279933 
L 128.57057 231.675552 
L 131.441028 230.104979 
L 138.617174 225.653744 
L 140.0524 225.010982 
L 141.487625 224.560127 
L 142.922857 224.341608 
L 144.358082 224.383571 
L 145.793314 224.694206 
L 147.22854 225.259694 
L 148.663772 226.042677 
L 151.534229 228.027771 
L 154.404686 230.101397 
L 155.839912 230.998502 
L 157.275144 231.725704 
L 158.710369 232.242575 
L 160.145601 232.528134 
L 161.580827 232.578286 
L 163.016058 232.398148 
L 164.451284 231.989257 
L 165.886516 231.344447 
L 167.321741 230.452972 
L 168.756973 229.312784 
L 170.192199 227.939237 
L 173.062656 224.626655 
L 177.368345 219.179547 
L 178.803571 218.424198 
L 180.238803 219.236863 
L 183.10926 221.714263 
L 184.544485 222.77257 
L 185.979717 223.619523 
L 187.414943 224.227487 
L 188.850175 224.594926 
L 191.179223 224.730541 
L 192.966876 224.562685 
L 194.754522 224.202411 
L 196.542175 223.65381 
L 198.329827 222.925585 
L 201.011297 221.523891 
L 203.692772 219.805933 
L 207.268071 217.163236 
L 219.78162 207.294575 
L 222.463096 204.613497 
L 225.144572 201.524551 
L 230.507517 195.111251 
L 232.29517 193.408646 
L 233.188993 192.809383 
L 234.082816 192.515636 
L 234.976645 192.632828 
L 234.976645 192.632828 
L 236.032181 192.469066 
L 237.087723 192.70652 
L 238.143259 193.28992 
L 240.254337 195.048817 
L 243.420957 198.295896 
L 246.587571 201.558326 
L 249.754191 204.470206 
L 253.976347 207.96702 
L 257.14296 210.380451 
L 259.254038 211.790845 
L 261.365116 212.974019 
L 263.476194 213.894153 
L 265.587272 214.532822 
L 267.69835 214.891561 
L 269.809428 214.991353 
L 271.920506 214.873138 
L 276.142662 214.279504 
L 278.25374 213.894665 
L 284.586973 212.309763 
L 286.698051 212.160843 
L 288.647417 212.164425 
L 290.435069 212.338933 
L 292.222715 212.709954 
L 294.010368 213.392122 
L 297.585667 215.026664 
L 301.160966 215.603411 
L 302.948612 215.78406 
L 304.736265 215.758472 
L 306.523911 215.465749 
L 308.311564 214.868532 
L 310.099216 213.947375 
L 311.886862 212.705349 
L 313.674515 211.167528 
L 316.355984 208.458304 
L 319.03746 205.733726 
L 320.825113 204.064385 
L 321.718936 202.964114 
L 323.506589 200.127974 
L 328.869534 190.978327 
L 329.763363 189.947143 
L 330.657186 189.398032 
L 331.551009 189.247576 
L 332.444832 189.234782 
L 333.765686 189.385749 
L 335.086533 189.863216 
L 336.40738 190.732686 
L 337.728227 192.026399 
L 340.369928 195.426492 
L 344.332476 200.835218 
L 346.97417 204.166736 
L 348.295017 205.623699 
L 349.615871 206.786404 
L 350.936718 207.750548 
L 352.257565 208.964428 
L 353.578419 210.722814 
L 356.220113 215.141809 
L 358.861814 220.088421 
L 362.824355 228.059499 
L 368.10775 239.288914 
L 377.353693 259.033401 
L 381.316241 266.897522 
L 386.599636 276.706308 
L 393.203878 288.377878 
L 397.166426 295.347966 
L 398.487273 298.273151 
L 398.487273 298.273151 
" clip-path="url(#p69974d7cf2)" style="fill: none; stroke: #008000; stroke-width: 1.5; stroke-linecap: square"/>
   </g>
   <g id="line2d_23">
    <path d="M 73.832727 298.100689 
L 74.72655 293.781487 
L 78.301849 281.691302 
L 82.770978 265.667778 
L 86.346277 252.096577 
L 90.815398 234.258885 
L 94.390697 220.049528 
L 95.284527 217.89658 
L 96.17835 217.525558 
L 97.072173 217.707231 
L 98.859826 218.394516 
L 101.541295 219.691812 
L 104.222771 221.200463 
L 107.79807 223.501308 
L 111.373369 226.081571 
L 117.630143 230.880798 
L 118.523973 231.227767 
L 118.523973 231.227767 
L 119.959198 230.77333 
L 121.39443 229.83375 
L 131.441028 222.044856 
L 135.746717 218.169344 
L 142.922857 211.276532 
L 150.098997 204.399584 
L 152.969454 201.844909 
L 155.839912 199.577839 
L 157.275144 198.636724 
L 158.710369 197.897751 
L 160.145601 197.423867 
L 161.580827 197.261641 
L 163.016058 197.45099 
L 164.451284 198.045136 
L 165.886516 199.097302 
L 167.321741 200.596741 
L 168.756973 202.439055 
L 175.933113 212.728378 
L 177.368345 214.317373 
L 178.803571 214.947854 
L 180.238803 215.982109 
L 181.674028 217.48513 
L 183.10926 218.826948 
L 184.544485 219.954854 
L 185.979717 220.848376 
L 187.414943 221.497792 
L 188.850175 221.903612 
L 190.2854 222.072491 
L 190.2854 222.072491 
L 192.073053 221.909753 
L 193.860699 221.559714 
L 195.648352 221.030048 
L 197.435998 220.330993 
L 200.117473 218.995827 
L 202.798949 217.364356 
L 206.374248 214.83578 
L 211.7372 210.644516 
L 217.993974 205.554612 
L 221.569273 202.321863 
L 226.038395 197.905427 
L 231.401347 192.625663 
L 233.188993 191.064814 
L 234.976645 189.827393 
L 234.976645 189.827393 
L 237.087723 190.625217 
L 239.198801 191.693759 
L 242.365415 193.588272 
L 243.420957 194.289375 
L 244.476493 195.21309 
L 248.698649 199.451948 
L 250.809727 201.295285 
L 252.920805 202.811612 
L 255.031882 203.994275 
L 257.14296 204.921573 
L 260.309581 206.006491 
L 264.531736 207.185572 
L 266.642814 208.502826 
L 269.809428 210.493549 
L 271.920506 211.658812 
L 274.031584 212.611186 
L 275.087126 212.959179 
L 276.142662 213.177697 
L 277.198204 213.240643 
L 279.309282 213.026218 
L 286.698051 211.82462 
L 288.647417 211.825132 
L 290.435069 212.096362 
L 295.798014 213.425898 
L 296.691837 213.536437 
L 297.585667 213.506243 
L 298.47949 213.290283 
L 300.267143 212.435143 
L 302.054789 211.277044 
L 304.736265 209.229517 
L 308.311564 206.113447 
L 312.780685 201.824438 
L 313.674515 200.963157 
L 314.568338 200.490296 
L 317.249814 200.372593 
L 318.143637 200.15868 
L 319.03746 199.77077 
L 319.93129 199.168436 
L 320.825113 198.34093 
L 322.612759 196.126059 
L 325.294235 192.068363 
L 327.081887 189.367326 
L 327.97571 188.209739 
L 328.869534 187.360228 
L 331.551009 185.920152 
L 332.444832 185.70061 
L 332.444832 185.70061 
L 333.765686 185.849019 
L 335.086533 186.282474 
L 336.40738 187.020935 
L 337.728227 187.99122 
L 339.049081 189.132943 
L 340.369928 190.494208 
L 343.011622 193.796044 
L 350.936718 204.726083 
L 352.257565 205.887252 
L 353.578419 206.325825 
L 354.899266 206.261856 
L 356.220113 205.875994 
L 357.54096 205.248583 
L 358.861814 204.430289 
L 362.824355 201.650954 
L 364.145209 201.296308 
L 365.466056 201.529156 
L 366.786903 202.120232 
L 369.428604 203.752215 
L 370.749451 204.760882 
L 372.070298 206.110889 
L 373.391145 208.388193 
L 374.711999 211.893195 
L 377.353693 220.453814 
L 382.637088 239.024337 
L 391.883031 272.713605 
L 397.166426 291.883904 
L 398.487273 298.100689 
L 398.487273 298.100689 
" clip-path="url(#p69974d7cf2)" style="fill: none; stroke: #008000; stroke-width: 1.5; stroke-linecap: square"/>
   </g>
   <g id="line2d_24">
    <path d="M 73.832727 213.097352 
L 77.408026 213.203797 
L 80.983325 213.507267 
L 84.558624 213.997527 
L 88.133923 214.682254 
L 91.709222 215.581405 
L 96.17835 216.962629 
L 98.859826 217.965666 
L 101.541295 219.186199 
L 104.222771 220.601199 
L 107.79807 222.775641 
L 111.373369 225.219777 
L 115.842497 228.353758 
L 116.73632 228.882911 
L 117.630143 229.277473 
L 118.523973 229.430488 
L 118.523973 229.430488 
L 119.959198 229.229369 
L 121.39443 228.665416 
L 122.829656 227.758588 
L 124.264887 226.443892 
L 125.700113 224.770969 
L 127.135345 222.840634 
L 130.005802 218.410381 
L 132.876259 213.440227 
L 137.181942 205.786948 
L 138.617174 203.582825 
L 140.0524 201.801409 
L 141.487625 200.458056 
L 142.922857 199.441712 
L 144.358082 198.636724 
L 147.22854 197.394697 
L 150.098997 196.423388 
L 158.710369 193.823167 
L 161.580827 192.758207 
L 163.016058 193.191663 
L 164.451284 194.404519 
L 165.886516 195.937222 
L 168.756973 199.614174 
L 173.062656 205.972715 
L 175.933113 210.203384 
L 177.368345 212.179777 
L 178.803571 213.85526 
L 180.238803 213.236037 
L 183.10926 209.307303 
L 187.414943 203.268608 
L 188.850175 201.528645 
L 190.2854 200.612094 
L 190.2854 200.612094 
L 192.073053 200.743103 
L 193.860699 201.102865 
L 195.648352 201.66733 
L 198.329827 202.814682 
L 206.374248 206.75314 
L 208.161901 207.339098 
L 209.949547 207.682996 
L 211.7372 207.725984 
L 213.524846 207.417908 
L 215.312499 206.736764 
L 217.100145 205.699439 
L 218.887797 204.349944 
L 220.675444 202.730754 
L 222.463096 200.877182 
L 225.144572 197.722731 
L 227.826048 194.210053 
L 231.401347 189.502429 
L 232.29517 188.758851 
L 233.188993 188.756292 
L 234.976645 189.4968 
L 234.976645 189.4968 
L 236.032181 188.969182 
L 237.087723 188.683111 
L 238.143259 188.967135 
L 239.198801 189.688708 
L 241.309879 191.804298 
L 243.420957 194.032474 
L 244.476493 194.914226 
L 247.643113 196.9725 
L 250.809727 198.767733 
L 253.976347 200.222137 
L 256.087425 201.147388 
L 258.198503 202.423702 
L 264.531736 206.876984 
L 265.587272 207.187619 
L 268.753892 207.64615 
L 271.920506 207.848293 
L 275.087126 207.827823 
L 278.25374 207.612886 
L 287.753593 206.702988 
L 287.753593 206.702988 
L 290.435069 206.571979 
L 293.116539 206.170252 
L 295.798014 205.498831 
L 298.47949 204.593027 
L 302.948612 202.771695 
L 306.523911 201.36693 
L 308.311564 200.82703 
L 310.099216 200.471361 
L 311.886862 200.323976 
L 313.674515 200.311694 
L 314.568338 199.924808 
L 318.143637 196.306708 
L 331.551009 182.332758 
L 332.444832 182.263671 
L 332.444832 182.263671 
L 333.765686 182.729367 
L 335.086533 183.855226 
L 336.40738 184.783547 
L 337.728227 185.365411 
L 339.049081 185.796308 
L 340.369928 186.857174 
L 345.653323 192.887169 
L 346.97417 194.214147 
L 348.295017 195.352799 
L 349.615871 196.248368 
L 350.936718 196.86452 
L 352.257565 197.192043 
L 353.578419 197.243218 
L 354.899266 197.045169 
L 358.861814 195.855853 
L 360.182661 196.179793 
L 361.503508 196.702806 
L 362.824355 197.017535 
L 364.145209 196.792363 
L 365.466056 195.984304 
L 366.786903 195.000201 
L 368.10775 194.483841 
L 369.428604 195.361499 
L 370.749451 197.849646 
L 372.070298 200.977998 
L 373.391145 203.602271 
L 374.711999 205.194337 
L 376.032846 206.241386 
L 378.67454 207.814517 
L 381.316241 209.095949 
L 383.957935 210.182914 
L 386.599636 211.093324 
L 389.24133 211.828203 
L 391.883031 212.384991 
L 394.524725 212.761642 
L 398.487273 213.097352 
L 398.487273 213.097352 
" clip-path="url(#p69974d7cf2)" style="fill: none; stroke: #008000; stroke-width: 1.5; stroke-linecap: square"/>
   </g>
   <g id="line2d_25">
    <path d="M 73.832727 212.939732 
L 78.301849 213.0559 
L 81.877148 213.342994 
L 85.452453 213.828648 
L 89.027752 214.522075 
L 93.496874 215.507201 
L 94.390697 215.423273 
L 95.284527 214.174594 
L 96.17835 211.173669 
L 100.647472 193.766362 
L 101.541295 191.384148 
L 102.435125 190.615494 
L 103.328948 191.292032 
L 104.222771 192.58984 
L 110.479545 203.052136 
L 112.267198 205.387269 
L 114.054844 207.224465 
L 114.948674 207.933244 
L 115.842497 208.492591 
L 116.73632 208.896365 
L 117.630143 209.140471 
L 118.523973 209.222352 
L 118.523973 209.222352 
L 119.959198 209.089808 
L 121.39443 208.701387 
L 122.829656 208.080117 
L 125.700113 206.339643 
L 130.005802 203.508109 
L 134.311485 200.805025 
L 135.746717 199.783052 
L 137.181942 198.587084 
L 138.617174 197.089692 
L 141.487625 193.288896 
L 142.922857 192.560159 
L 150.098997 191.510551 
L 154.404686 190.929711 
L 157.275144 190.870347 
L 158.710369 191.036156 
L 160.145601 191.385172 
L 161.580827 191.872873 
L 163.016058 191.751587 
L 164.451284 191.285891 
L 165.886516 191.000845 
L 167.321741 190.991121 
L 170.192199 191.478311 
L 174.497888 192.486466 
L 177.368345 193.308343 
L 180.238803 194.329803 
L 183.10926 195.584112 
L 187.414943 197.84197 
L 188.850175 198.564055 
L 192.073053 198.841425 
L 193.860699 199.255946 
L 195.648352 199.881309 
L 198.329827 201.107983 
L 204.586595 204.176971 
L 206.374248 204.78084 
L 208.161901 205.131904 
L 209.949547 205.168238 
L 211.7372 204.845833 
L 213.524846 204.147289 
L 215.312499 203.0941 
L 217.100145 201.745117 
L 219.78162 199.317356 
L 222.463096 196.55798 
L 226.038395 192.488513 
L 228.719871 189.407243 
L 229.613694 188.619142 
L 230.507517 188.181593 
L 231.401347 188.126835 
L 232.29517 188.237886 
L 234.976645 188.012202 
L 234.976645 188.012202 
L 236.032181 188.375547 
L 237.087723 188.465104 
L 239.198801 187.821318 
L 240.254337 187.610475 
L 241.309879 187.793171 
L 242.365415 188.584343 
L 248.698649 194.343621 
L 252.920805 197.849646 
L 255.031882 199.457065 
L 256.087425 200.160727 
L 257.14296 200.726215 
L 259.254038 201.489751 
L 262.420658 202.309069 
L 267.69835 203.41804 
L 272.976048 204.321797 
L 279.309282 205.162609 
L 284.586973 205.665663 
L 287.753593 205.800254 
L 287.753593 205.800254 
L 289.54124 205.719909 
L 291.328892 205.479384 
L 293.116539 205.083287 
L 295.798014 204.2087 
L 298.47949 203.01836 
L 301.160966 201.544509 
L 303.842442 199.822457 
L 307.41774 197.211489 
L 311.886862 193.58469 
L 325.294235 182.345552 
L 326.188058 181.838915 
L 327.081887 181.856827 
L 327.97571 182.182302 
L 328.869534 182.209425 
L 329.763363 181.930008 
L 330.657186 181.844033 
L 331.551009 182.006259 
L 332.444832 181.703812 
L 332.444832 181.703812 
L 335.086533 182.007282 
L 336.40738 182.69815 
L 337.728227 183.823497 
L 339.049081 185.096229 
L 340.369928 185.662228 
L 344.332476 185.714427 
L 345.653323 186.076749 
L 346.97417 186.700065 
L 349.615871 188.341772 
L 356.220113 192.87284 
L 357.54096 193.601066 
L 358.861814 193.86206 
L 360.182661 193.27252 
L 361.503508 192.188113 
L 364.145209 189.442554 
L 365.466056 187.978426 
L 366.786903 186.695971 
L 368.10775 186.122295 
L 369.428604 186.235904 
L 370.749451 186.106943 
L 372.070298 186.632002 
L 373.391145 188.022437 
L 376.032846 191.584756 
L 382.637088 200.902258 
L 385.278789 204.27011 
L 387.920483 207.240329 
L 390.562184 209.69726 
L 391.883031 210.700297 
L 393.203878 211.537526 
L 394.524725 212.197689 
L 395.845578 212.666455 
L 397.166426 212.897256 
L 398.487273 212.939732 
L 398.487273 212.939732 
" clip-path="url(#p69974d7cf2)" style="fill: none; stroke: #008000; stroke-width: 1.5; stroke-linecap: square"/>
   </g>
   <g id="line2d_26">
    <path d="M 73.832727 149.425962 
L 75.62038 149.551342 
L 77.408026 149.949486 
L 79.195679 150.679759 
L 80.983325 151.805617 
L 82.770978 153.361861 
L 84.558624 155.338766 
L 86.346277 157.692322 
L 88.133923 160.362654 
L 90.815398 164.818494 
L 94.390697 171.293204 
L 99.753649 181.156748 
L 100.647472 182.413615 
L 102.435125 183.729334 
L 105.1166 188.775227 
L 107.79807 193.696764 
L 109.585722 196.649584 
L 111.373369 199.220635 
L 113.161021 201.321384 
L 114.948674 202.878651 
L 115.842497 203.434928 
L 116.73632 203.836143 
L 117.630143 204.078714 
L 118.523973 204.159571 
L 118.523973 204.159571 
L 119.959198 204.08639 
L 121.39443 203.863777 
L 122.829656 203.477915 
L 124.264887 202.901168 
L 125.700113 202.09055 
L 127.135345 200.994885 
L 128.57057 199.587562 
L 131.441028 196.05339 
L 132.876259 194.350273 
L 134.311485 193.318578 
L 135.746717 192.880005 
L 140.0524 192.281764 
L 141.487625 191.67943 
L 142.922857 189.580728 
L 150.098997 175.880565 
L 151.534229 174.007546 
L 152.969454 172.984039 
L 154.404686 173.036238 
L 155.839912 174.059233 
L 157.275144 175.696334 
L 163.016058 183.327607 
L 164.451284 184.753865 
L 165.886516 185.768161 
L 167.321741 186.370496 
L 173.062656 187.872493 
L 175.933113 188.893954 
L 178.803571 190.095552 
L 183.10926 192.208072 
L 187.414943 194.655279 
L 190.2854 196.331273 
L 190.2854 196.331273 
L 192.073053 196.30415 
L 193.860699 196.518575 
L 195.648352 196.954589 
L 198.329827 197.938691 
L 206.374248 201.417594 
L 208.161901 201.877149 
L 209.949547 202.088503 
L 211.7372 202.004064 
L 213.524846 201.59159 
L 215.312499 200.839824 
L 217.100145 199.760535 
L 218.887797 198.38187 
L 220.675444 196.735558 
L 222.463096 194.850769 
L 225.144572 191.624672 
L 228.719871 186.945707 
L 229.613694 186.189847 
L 230.507517 186.09466 
L 231.401347 186.158118 
L 232.29517 186.381754 
L 234.976645 187.429826 
L 234.976645 187.429826 
L 237.087723 186.52044 
L 238.143259 186.812139 
L 240.254337 187.02247 
L 241.309879 187.419591 
L 242.365415 187.990708 
L 244.476493 189.710713 
L 246.587571 191.416389 
L 248.698649 192.74439 
L 250.809727 193.647124 
L 252.920805 194.110261 
L 253.976347 194.162972 
L 255.031882 194.084673 
L 256.087425 193.868201 
L 257.14296 193.509462 
L 258.198503 193.00692 
L 259.254038 192.364157 
L 261.365116 190.69021 
L 263.476194 188.576155 
L 265.587272 186.13253 
L 268.753892 182.101445 
L 274.031584 175.295119 
L 276.142662 172.821813 
L 278.25374 170.616665 
L 280.364818 168.753881 
L 282.475895 167.297942 
L 284.586973 166.29951 
L 285.642516 165.983246 
L 286.698051 165.792362 
L 288.647417 165.777009 
L 290.435069 166.160825 
L 292.222715 166.91515 
L 294.010368 168.012862 
L 295.798014 169.410462 
L 297.585667 171.05268 
L 300.267143 173.834574 
L 305.630088 179.586687 
L 307.41774 181.224811 
L 309.205387 182.549742 
L 310.993039 183.467828 
L 312.780685 183.925848 
L 314.568338 183.936083 
L 316.355984 183.571202 
L 318.143637 182.933557 
L 323.506589 180.627594 
L 324.400412 180.482768 
L 325.294235 180.574372 
L 326.188058 180.867607 
L 327.081887 180.850719 
L 327.97571 180.526267 
L 328.869534 180.361482 
L 329.763363 180.374276 
L 330.657186 180.120958 
L 331.551009 179.587199 
L 332.444832 179.277587 
L 332.444832 179.277587 
L 333.765686 179.597945 
L 337.728227 181.30925 
L 339.049081 181.681295 
L 344.332476 182.64851 
L 345.653323 182.486284 
L 346.97417 182.017006 
L 348.295017 181.343538 
L 350.936718 179.672661 
L 356.220113 176.164077 
L 357.54096 175.483956 
L 358.861814 174.990625 
L 360.182661 174.749589 
L 361.503508 174.816629 
L 362.824355 175.225009 
L 364.145209 175.98394 
L 365.466056 177.191679 
L 366.786903 179.375332 
L 368.10775 181.310274 
L 369.428604 182.023147 
L 370.749451 182.516478 
L 372.070298 182.004212 
L 373.391145 180.431081 
L 376.032846 176.241864 
L 385.278789 160.497757 
L 387.920483 156.640156 
L 389.24133 154.946763 
L 390.562184 153.451418 
L 391.883031 152.18278 
L 393.203878 151.158249 
L 394.524725 150.381918 
L 395.845578 149.843553 
L 397.166426 149.529336 
L 398.487273 149.425962 
L 398.487273 149.425962 
" clip-path="url(#p69974d7cf2)" style="fill: none; stroke: #008000; stroke-width: 1.5; stroke-linecap: square"/>
   </g>
   <g id="line2d_27">
    <path d="M 73.832727 143.386755 
L 76.514203 143.507017 
L 78.301849 143.898509 
L 79.195679 144.297677 
L 80.089502 144.875959 
L 80.983325 145.633866 
L 82.770978 147.606677 
L 84.558624 150.034949 
L 87.2401 154.251801 
L 89.921575 158.930255 
L 93.496874 165.636277 
L 101.541295 181.368614 
L 102.435125 181.306691 
L 103.328948 179.998137 
L 107.79807 186.018409 
L 109.585722 187.990708 
L 111.373369 189.632415 
L 113.161021 190.928176 
L 114.948674 191.864685 
L 116.73632 192.431197 
L 118.523973 192.620545 
L 118.523973 192.620545 
L 124.264887 192.461902 
L 128.57057 192.254641 
L 130.005802 192.115444 
L 131.441028 191.847797 
L 132.876259 191.194288 
L 134.311485 189.67489 
L 135.746717 187.407821 
L 138.617174 182.06204 
L 141.487625 176.497741 
L 142.922857 173.940507 
L 144.358082 171.964625 
L 145.793314 170.893012 
L 148.663772 169.541982 
L 150.098997 168.613149 
L 152.969454 166.461736 
L 154.404686 166.485788 
L 155.839912 168.556344 
L 160.145601 175.821714 
L 161.580827 177.966986 
L 163.016058 179.81237 
L 164.451284 181.263192 
L 165.886516 182.265206 
L 167.321741 182.804595 
L 168.756973 182.900293 
L 170.192199 182.621387 
L 171.62743 182.084557 
L 174.497888 180.631176 
L 181.674028 176.752082 
L 184.544485 175.551508 
L 185.979717 175.130846 
L 187.414943 174.873946 
L 188.850175 174.782342 
L 194.754522 175.004443 
L 198.329827 175.356529 
L 201.905126 175.893359 
L 205.480425 176.619538 
L 209.055724 177.538648 
L 212.631023 178.656318 
L 216.206322 179.977155 
L 220.675444 181.904932 
L 228.719871 185.629988 
L 229.613694 185.772767 
L 230.507517 185.661205 
L 232.29517 185.899682 
L 233.188993 185.770208 
L 234.082816 185.479021 
L 234.976645 185.372064 
L 236.032181 185.747691 
L 237.087723 186.315226 
L 239.198801 185.895076 
L 240.254337 185.985145 
L 241.309879 185.948299 
L 242.365415 185.651993 
L 244.476493 184.634115 
L 247.643113 182.689962 
L 251.865269 179.756077 
L 258.198503 175.032078 
L 264.531736 170.330595 
L 267.69835 168.192999 
L 270.86497 166.370644 
L 272.976048 165.382959 
L 275.087126 164.575411 
L 278.25374 163.650672 
L 281.42036 163.010468 
L 284.586973 162.621023 
L 287.753593 162.486944 
L 287.753593 162.486944 
L 291.328892 162.619488 
L 294.904191 162.995627 
L 298.47949 163.600008 
L 302.054789 164.436726 
L 305.630088 165.519085 
L 309.205387 166.858857 
L 312.780685 168.466787 
L 316.355984 170.347483 
L 319.93129 172.50299 
L 321.718936 173.712264 
L 322.612759 174.404156 
L 326.188058 177.645604 
L 327.97571 178.51968 
L 328.869534 178.718752 
L 330.657186 178.58672 
L 331.551009 178.72387 
L 332.444832 178.982817 
L 332.444832 178.982817 
L 336.40738 177.95368 
L 337.728227 177.911205 
L 340.369928 178.448034 
L 341.690775 178.436776 
L 343.011622 178.083666 
L 344.332476 177.438856 
L 345.653323 176.578086 
L 348.295017 174.415414 
L 350.936718 171.856645 
L 354.899266 167.601923 
L 357.54096 164.723308 
L 358.861814 163.40503 
L 360.182661 162.431674 
L 361.503508 163.965401 
L 365.466056 175.103723 
L 366.786903 177.366699 
L 368.10775 178.535033 
L 369.428604 178.719264 
L 370.749451 177.587264 
L 372.070298 175.791008 
L 374.711999 171.556245 
L 382.637088 158.184117 
L 385.278789 154.150474 
L 387.920483 150.595831 
L 390.562184 147.660923 
L 391.883031 146.442949 
L 393.203878 145.392318 
L 394.524725 144.529501 
L 395.845578 143.892368 
L 397.166426 143.511623 
L 398.487273 143.386755 
L 398.487273 143.386755 
" clip-path="url(#p69974d7cf2)" style="fill: none; stroke: #008000; stroke-width: 1.5; stroke-linecap: square"/>
   </g>
   <g id="line2d_28">
    <path d="M 73.832727 140.701583 
L 76.514203 140.800351 
L 79.195679 141.006588 
L 80.089502 141.184678 
L 80.983325 141.624786 
L 81.877148 142.317701 
L 82.770978 143.25984 
L 84.558624 145.669689 
L 86.346277 148.521693 
L 89.027752 153.320409 
L 93.496874 162.027901 
L 97.965996 170.655047 
L 100.647472 175.423057 
L 102.435125 178.33596 
L 103.328948 179.135832 
L 106.010423 183.021579 
L 107.79807 185.197044 
L 109.585722 187.027588 
L 111.373369 188.522421 
L 113.161021 189.684614 
L 114.948674 190.514678 
L 116.73632 191.013127 
L 118.523973 191.178935 
L 118.523973 191.178935 
L 119.959198 191.096031 
L 121.39443 190.83913 
L 122.829656 190.394416 
L 124.264887 189.752165 
L 125.700113 188.912889 
L 127.135345 187.881193 
L 128.57057 186.664242 
L 130.005802 185.270225 
L 132.876259 181.987324 
L 135.746717 178.123583 
L 138.617174 173.79568 
L 141.487625 169.224183 
L 142.922857 167.489849 
L 144.358082 166.904915 
L 145.793314 165.39217 
L 148.663772 161.191183 
L 150.098997 160.111894 
L 151.534229 160.924559 
L 152.969454 162.850289 
L 154.404686 164.02067 
L 155.839912 163.090302 
L 157.275144 161.585233 
L 160.145601 158.088419 
L 163.016058 154.661716 
L 164.451284 153.61262 
L 165.886516 153.852121 
L 167.321741 155.057301 
L 175.933113 163.810339 
L 178.803571 166.185901 
L 181.674028 168.101395 
L 183.10926 168.85265 
L 184.544485 169.43912 
L 185.979717 169.835729 
L 187.414943 170.02866 
L 194.754522 170.384329 
L 199.22365 170.847466 
L 202.798949 171.425236 
L 206.374248 172.19952 
L 209.949547 173.182087 
L 213.524846 174.385221 
L 217.100145 175.82069 
L 219.78162 177.06937 
L 222.463096 178.594908 
L 228.719871 182.441761 
L 229.613694 182.505219 
L 231.401347 181.557451 
L 232.29517 180.794938 
L 233.188993 179.853311 
L 234.082816 179.078003 
L 236.032181 178.954159 
L 237.087723 179.636839 
L 238.143259 180.475603 
L 239.198801 181.16903 
L 240.254337 182.124474 
L 241.309879 182.713503 
L 242.365415 182.752396 
L 243.420957 182.400309 
L 245.532035 181.178753 
L 248.698649 178.917824 
L 262.420658 168.694006 
L 265.587272 166.7606 
L 270.86497 163.890685 
L 277.198204 160.646165 
L 280.364818 159.310999 
L 282.475895 158.604779 
L 284.586973 158.072043 
L 286.698051 157.746568 
L 288.647417 157.702557 
L 292.222715 157.865295 
L 295.798014 158.248087 
L 299.373313 158.853491 
L 302.948612 159.68458 
L 306.523911 160.742887 
L 310.099216 162.031995 
L 313.674515 163.581073 
L 314.568338 164.111762 
L 316.355984 165.535461 
L 318.143637 167.337858 
L 319.93129 169.534818 
L 322.612759 173.155476 
L 323.506589 174.123203 
L 324.400412 174.823282 
L 325.294235 175.322754 
L 326.188058 175.637994 
L 327.081887 175.765933 
L 329.763363 175.710663 
L 330.657186 175.87596 
L 331.551009 176.548916 
L 332.444832 176.825263 
L 333.765686 176.683507 
L 336.40738 175.928159 
L 337.728227 175.128799 
L 339.049081 173.781863 
L 341.690775 170.508174 
L 343.011622 169.28457 
L 345.653323 167.53079 
L 349.615871 165.193098 
L 353.578419 163.114866 
L 356.220113 161.985425 
L 358.861814 161.224447 
L 361.503508 161.180948 
L 364.145209 159.987026 
L 366.786903 158.424642 
L 370.749451 155.621254 
L 376.032846 151.892104 
L 379.995394 149.421356 
L 391.883031 142.550549 
L 395.845578 141.230224 
L 397.166426 140.863808 
L 398.487273 140.701583 
L 398.487273 140.701583 
" clip-path="url(#p69974d7cf2)" style="fill: none; stroke: #008000; stroke-width: 1.5; stroke-linecap: square"/>
   </g>
   <g id="line2d_29">
    <path d="M 73.832727 139.390981 
L 75.62038 139.589541 
L 77.408026 140.10846 
L 80.089502 140.962577 
L 80.983325 141.079769 
L 81.877148 141.311081 
L 82.770978 141.844841 
L 83.664801 142.695887 
L 85.452453 144.962957 
L 87.2401 147.683952 
L 89.921575 152.359847 
L 92.603051 157.568478 
L 97.072173 166.891097 
L 100.647472 174.195872 
L 102.435125 177.496172 
L 103.328948 178.456734 
L 104.222771 175.460416 
L 107.79807 161.235194 
L 112.267198 143.53414 
L 114.948674 133.59281 
L 116.73632 127.639066 
L 117.630143 125.088996 
L 118.523973 123.508189 
L 118.523973 123.508189 
L 119.959198 125.117143 
L 121.39443 127.693312 
L 124.264887 133.623003 
L 134.311485 155.427299 
L 137.181942 160.648212 
L 138.617174 162.85336 
L 140.0524 164.689021 
L 141.487625 166.017534 
L 142.922857 166.140354 
L 144.358082 164.147585 
L 145.793314 161.922479 
L 147.22854 159.92101 
L 148.663772 158.512663 
L 150.098997 158.19947 
L 151.534229 158.489634 
L 152.969454 158.241946 
L 154.404686 157.067471 
L 155.839912 155.103871 
L 158.710369 150.398294 
L 160.145601 148.723324 
L 161.580827 148.667543 
L 163.016058 149.650622 
L 164.451284 150.800533 
L 167.321741 152.788697 
L 170.192199 155.428835 
L 177.368345 162.43628 
L 180.238803 164.905492 
L 183.10926 167.015454 
L 184.544485 167.899764 
L 185.979717 168.647437 
L 187.414943 169.235442 
L 188.850175 169.595716 
L 194.754522 169.516906 
L 198.329827 169.739008 
L 201.905126 170.214427 
L 205.480425 170.966193 
L 209.055724 172.007612 
L 212.631023 173.348407 
L 216.206322 174.988067 
L 219.78162 176.902538 
L 226.932218 180.808755 
L 228.719871 181.659802 
L 229.613694 181.92182 
L 230.507517 181.876273 
L 231.401347 180.777538 
L 233.188993 177.811924 
L 234.082816 176.293039 
L 234.976645 175.510567 
L 234.976645 175.510567 
L 236.032181 176.399484 
L 238.143259 179.573893 
L 239.198801 180.844578 
L 240.254337 181.064632 
L 241.309879 180.746833 
L 243.420957 179.522206 
L 256.087425 170.990246 
L 269.809428 162.578548 
L 272.976048 160.852914 
L 276.142662 159.41028 
L 278.25374 158.644696 
L 280.364818 158.056691 
L 282.475895 157.656499 
L 284.586973 157.445657 
L 287.753593 157.402158 
L 287.753593 157.402158 
L 292.222715 157.506044 
L 295.798014 157.771132 
L 299.373313 158.254228 
L 302.948612 159.000365 
L 305.630088 159.758272 
L 308.311564 160.713717 
L 310.993039 161.912756 
L 313.674515 163.421918 
L 316.355984 164.82003 
L 319.93129 166.743712 
L 323.506589 168.912525 
L 326.188058 170.794756 
L 327.97571 172.369934 
L 329.763363 174.486548 
L 330.657186 175.581701 
L 331.551009 175.971658 
L 332.444832 176.096014 
L 333.765686 175.784356 
L 335.086533 174.90158 
L 337.728227 172.629905 
L 341.690775 169.667362 
L 343.011622 168.173041 
L 345.653323 164.75606 
L 346.97417 163.265321 
L 348.295017 161.970584 
L 349.615871 160.859055 
L 350.936718 159.928686 
L 352.257565 159.18562 
L 353.578419 158.632414 
L 356.220113 157.963552 
L 358.861814 157.371452 
L 360.182661 157.944105 
L 361.503508 158.795152 
L 362.824355 158.09149 
L 366.786903 155.463634 
L 374.711999 150.809744 
L 382.637088 146.220848 
L 386.599636 144.280789 
L 390.562184 142.597631 
L 393.203878 141.025011 
L 394.524725 140.249192 
L 395.845578 139.687286 
L 397.166426 139.432945 
L 398.487273 139.390981 
L 398.487273 139.390981 
" clip-path="url(#p69974d7cf2)" style="fill: none; stroke: #008000; stroke-width: 1.5; stroke-linecap: square"/>
   </g>
   <g id="line2d_30">
    <path d="M 73.832727 135.893655 
L 74.72655 135.955577 
L 75.62038 136.141344 
L 77.408026 136.874687 
L 79.195679 138.011804 
L 80.983325 139.206238 
L 81.877148 139.596706 
L 82.770978 139.754326 
L 83.664801 139.70571 
L 85.452453 139.274301 
L 87.2401 138.596739 
L 89.921575 137.259526 
L 92.603051 135.618843 
L 95.284527 133.742754 
L 98.859826 130.968536 
L 112.267198 120.113214 
L 113.161021 119.592248 
L 114.054844 119.236067 
L 114.948674 119.077936 
L 115.842497 119.212527 
L 116.73632 119.762662 
L 118.523973 121.87467 
L 118.523973 121.87467 
L 121.39443 119.861942 
L 122.829656 119.55489 
L 124.264887 119.844031 
L 125.700113 120.635714 
L 127.135345 121.824007 
L 130.005802 124.834655 
L 132.876259 128.368315 
L 135.746717 132.309843 
L 138.617174 136.57787 
L 142.922857 143.420531 
L 147.22854 150.503716 
L 148.663772 152.513885 
L 150.098997 153.378749 
L 151.534229 152.394134 
L 154.404686 148.601527 
L 155.839912 147.005878 
L 157.275144 146.062716 
L 158.710369 145.915842 
L 164.451284 147.304742 
L 165.886516 146.804247 
L 167.321741 145.364172 
L 168.756973 143.441001 
L 171.62743 139.044524 
L 175.933113 131.875876 
L 180.238803 124.292195 
L 185.979717 113.989567 
L 187.414943 112.19024 
L 188.850175 111.948181 
L 190.2854 112.337114 
L 190.2854 112.337114 
L 196.542175 112.258304 
L 198.329827 112.659519 
L 199.22365 113.023376 
L 200.117473 113.510054 
L 201.905126 114.86569 
L 203.692772 116.704933 
L 205.480425 118.973026 
L 207.268071 121.60907 
L 209.055724 124.560866 
L 211.7372 129.478821 
L 214.418669 134.870147 
L 217.993974 142.589954 
L 229.613694 168.426871 
L 231.401347 171.725636 
L 232.29517 173.118118 
L 233.188993 174.234253 
L 234.082816 174.956338 
L 236.032181 175.001884 
L 237.087723 174.464031 
L 238.143259 173.625778 
L 240.254337 171.357173 
L 242.365415 168.621849 
L 245.532035 164.05854 
L 249.754191 157.540331 
L 261.365116 139.291701 
L 265.587272 133.182383 
L 268.753892 129.029501 
L 270.86497 126.54903 
L 271.920506 125.434942 
L 272.976048 125.358179 
L 277.198204 131.458796 
L 279.309282 134.064647 
L 281.42036 136.213501 
L 282.475895 137.089112 
L 283.531438 137.819385 
L 284.586973 138.397155 
L 285.642516 138.814746 
L 286.698051 139.067041 
L 287.753593 139.15148 
L 287.753593 139.15148 
L 288.647417 139.092117 
L 289.54124 138.91505 
L 291.328892 138.216506 
L 293.116539 137.085018 
L 294.904191 135.565621 
L 296.691837 133.713584 
L 299.373313 130.449618 
L 301.160966 128.086338 
L 302.054789 127.819203 
L 303.842442 130.428124 
L 306.523911 135.030326 
L 309.205387 140.125348 
L 316.355984 154.082922 
L 318.143637 157.057747 
L 319.93129 159.577111 
L 321.718936 161.636921 
L 323.506589 163.336967 
L 327.081887 166.230423 
L 328.869534 168.889496 
L 329.763363 169.896628 
L 330.657186 170.59466 
L 331.551009 171.003551 
L 333.765686 171.403743 
L 335.086533 171.711307 
L 336.40738 171.494835 
L 337.728227 170.653 
L 339.049081 169.420185 
L 341.690775 166.578416 
L 344.332476 163.468999 
L 346.97417 159.785395 
L 350.936718 153.429412 
L 352.257565 151.722713 
L 353.578419 150.669012 
L 356.220113 149.090763 
L 357.54096 150.534421 
L 358.861814 154.332658 
L 360.182661 156.67035 
L 361.503508 156.07518 
L 362.824355 155.203151 
L 364.145209 154.137168 
L 366.786903 151.609616 
L 372.070298 146.267929 
L 374.711999 143.833516 
L 377.353693 141.671356 
L 379.995394 139.830577 
L 382.637088 138.34905 
L 385.278789 137.255432 
L 387.920483 136.571217 
L 390.562184 136.297941 
L 393.203878 136.362422 
L 395.845578 136.395686 
L 398.487273 135.893655 
L 398.487273 135.893655 
" clip-path="url(#p69974d7cf2)" style="fill: none; stroke: #008000; stroke-width: 1.5; stroke-linecap: square"/>
   </g>
   <g id="line2d_31">
    <path d="M 73.832727 135.356825 
L 74.72655 135.414654 
L 76.514203 135.868067 
L 78.301849 136.728326 
L 81.877148 138.984137 
L 82.770978 139.222614 
L 83.664801 139.232337 
L 85.452453 138.853128 
L 87.2401 138.181707 
L 89.921575 136.860358 
L 92.603051 135.278015 
L 96.17835 132.86919 
L 99.753649 130.201929 
L 103.328948 127.216357 
L 109.585722 121.966274 
L 111.373369 120.647996 
L 113.161021 119.399317 
L 115.842497 117.441858 
L 116.73632 116.898888 
L 117.630143 116.495626 
L 118.523973 116.338517 
L 119.959198 116.556013 
L 121.39443 117.138388 
L 122.829656 117.972547 
L 125.700113 120.073808 
L 127.135345 121.248795 
L 128.57057 122.567585 
L 131.441028 125.696448 
L 134.311485 129.378517 
L 137.181942 133.500182 
L 141.487625 140.261986 
L 144.358082 144.829901 
L 145.793314 146.919392 
L 147.22854 148.654237 
L 148.663772 149.673651 
L 150.098997 149.550318 
L 151.534229 148.42753 
L 154.404686 145.48341 
L 155.839912 144.394398 
L 157.275144 143.712742 
L 158.710369 143.291569 
L 160.145601 142.733757 
L 161.580827 141.298799 
L 163.016058 138.987719 
L 171.62743 123.121303 
L 174.497888 118.697702 
L 175.933113 116.781696 
L 177.368345 115.099049 
L 178.803571 113.672791 
L 180.238803 112.521345 
L 181.674028 111.654434 
L 183.10926 111.068476 
L 184.544485 110.732766 
L 185.979717 110.538811 
L 187.414943 109.914983 
L 190.2854 105.964243 
L 190.2854 105.964243 
L 192.073053 105.904368 
L 193.860699 105.609598 
L 196.542175 105.055368 
L 197.435998 105.02364 
L 198.329827 105.169489 
L 199.22365 105.498547 
L 200.117473 105.997507 
L 201.011297 106.651529 
L 202.798949 108.366928 
L 204.586595 110.546487 
L 206.374248 113.137497 
L 208.161901 116.122557 
L 210.84337 121.219114 
L 213.524846 126.870923 
L 217.100145 135.026232 
L 222.463096 148.030921 
L 228.719871 163.197258 
L 231.401347 169.124391 
L 233.188993 172.397569 
L 234.082816 173.441035 
L 234.976645 173.575626 
L 234.976645 173.575626 
L 236.032181 173.366319 
L 237.087723 172.193891 
L 238.143259 170.530691 
L 240.254337 166.599909 
L 244.476493 157.954852 
L 249.754191 147.108741 
L 252.920805 140.976906 
L 256.087425 135.319979 
L 258.198503 131.878434 
L 260.309581 128.742407 
L 262.420658 125.944649 
L 264.531736 123.5261 
L 266.642814 121.576318 
L 267.69835 120.875215 
L 268.753892 120.555881 
L 269.809428 120.960678 
L 270.86497 122.115195 
L 271.920506 123.599792 
L 272.976048 124.224644 
L 275.087126 122.467281 
L 277.198204 124.982551 
L 279.309282 127.185652 
L 281.42036 128.971673 
L 283.531438 130.286368 
L 284.586973 130.754623 
L 285.642516 131.091357 
L 286.698051 131.294012 
L 288.647417 131.316017 
L 290.435069 130.950113 
L 292.222715 130.230075 
L 294.010368 129.180468 
L 295.798014 127.841208 
L 298.47949 125.566463 
L 299.373313 125.17753 
L 300.267143 125.606379 
L 301.160966 126.530607 
L 302.054789 126.741449 
L 302.948612 125.630944 
L 303.842442 124.747145 
L 304.736265 124.725139 
L 305.630088 125.524499 
L 307.41774 127.836603 
L 309.205387 130.519216 
L 311.886862 135.015486 
L 314.568338 139.98308 
L 318.143637 147.178339 
L 327.081887 165.793897 
L 327.97571 166.557946 
L 329.763363 167.570195 
L 331.551009 168.248269 
L 332.444832 168.355225 
L 333.765686 168.040496 
L 335.086533 167.17205 
L 336.40738 165.913136 
L 339.049081 162.774038 
L 343.011622 157.850966 
L 345.653323 155.122294 
L 346.97417 154.006159 
L 349.615871 152.175104 
L 350.936718 151.283629 
L 352.257565 149.978144 
L 354.899266 145.826797 
L 356.220113 146.193725 
L 357.54096 147.746386 
L 358.861814 146.928603 
L 364.145209 142.957393 
L 368.10775 140.056261 
L 372.070298 137.454504 
L 374.711999 135.953019 
L 377.353693 134.678752 
L 379.995394 133.664967 
L 382.637088 132.945441 
L 385.278789 132.548832 
L 387.920483 132.500215 
L 390.562184 132.812897 
L 393.203878 133.480224 
L 395.845578 134.451533 
L 397.166426 134.993992 
L 398.487273 135.356825 
L 398.487273 135.356825 
" clip-path="url(#p69974d7cf2)" style="fill: none; stroke: #008000; stroke-width: 1.5; stroke-linecap: square"/>
   </g>
   <g id="line2d_32">
    <path d="M 73.832727 96.734763 
L 77.408026 96.848884 
L 80.983325 97.191759 
L 84.558624 97.764923 
L 88.133923 98.569912 
L 91.709222 99.609284 
L 95.284527 100.885086 
L 98.859826 102.397831 
L 102.435125 104.144447 
L 106.010423 106.116746 
L 110.479545 108.868446 
L 116.73632 112.845797 
L 117.630143 113.21733 
L 118.523973 113.362669 
L 118.523973 113.362669 
L 121.39443 113.08581 
L 124.264887 112.748564 
L 127.135345 112.75317 
L 128.57057 112.921537 
L 130.005802 113.206584 
L 131.441028 113.608822 
L 134.311485 114.759245 
L 137.181942 116.350288 
L 140.0524 118.345616 
L 142.922857 120.693542 
L 145.793314 123.319863 
L 151.534229 128.825311 
L 152.969454 130.022815 
L 154.404686 130.979283 
L 155.839912 131.544771 
L 157.275144 131.551936 
L 158.710369 130.895867 
L 160.145601 129.628765 
L 161.580827 127.92923 
L 164.451284 123.910427 
L 170.192199 115.669655 
L 173.062656 111.938969 
L 175.933113 108.575211 
L 178.803571 105.629044 
L 180.238803 104.351195 
L 181.674028 103.259112 
L 183.10926 102.447471 
L 184.544485 102.073379 
L 185.979717 102.263751 
L 187.414943 102.945407 
L 190.2854 104.948924 
L 190.2854 104.948924 
L 192.073053 104.933059 
L 197.435998 104.583531 
L 198.329827 104.6649 
L 199.22365 104.892119 
L 200.117473 105.313804 
L 201.011297 105.938144 
L 201.905126 106.744668 
L 203.692772 108.800383 
L 205.480425 111.296207 
L 208.161901 115.573445 
L 210.84337 120.322009 
L 213.524846 125.506076 
L 217.100145 132.982288 
L 221.569273 142.975817 
L 233.188993 169.519465 
L 234.082816 171.202624 
L 234.976645 172.160627 
L 234.976645 172.160627 
L 236.032181 171.156566 
L 238.143259 167.362934 
L 242.365415 158.804363 
L 248.698649 145.944501 
L 251.865269 139.922181 
L 255.031882 134.362488 
L 258.198503 129.376982 
L 260.309581 126.411368 
L 262.420658 123.749736 
L 264.531736 121.402833 
L 266.642814 119.393176 
L 267.69835 118.542129 
L 268.753892 117.846656 
L 269.809428 117.428041 
L 270.86497 117.544209 
L 271.920506 118.434149 
L 275.087126 122.373119 
L 277.198204 120.860374 
L 279.309282 119.669523 
L 281.42036 118.809265 
L 283.531438 118.240194 
L 285.642516 117.919325 
L 287.753593 117.816462 
L 287.753593 117.816462 
L 289.54124 117.947471 
L 291.328892 118.345104 
L 293.116539 119.019084 
L 294.904191 119.983228 
L 296.691837 121.236513 
L 298.47949 122.641278 
L 299.373313 123.022534 
L 300.267143 122.625925 
L 302.054789 120.814828 
L 304.736265 122.699617 
L 306.523911 124.989716 
L 309.205387 128.937385 
L 311.886862 133.220765 
L 315.462161 139.403263 
L 319.03746 146.045828 
L 327.97571 163.080578 
L 329.763363 165.695129 
L 330.657186 166.609121 
L 331.551009 167.161815 
L 332.444832 167.342464 
L 332.444832 167.342464 
L 333.765686 166.750877 
L 335.086533 165.399847 
L 337.728227 161.921968 
L 343.011622 154.292741 
L 349.615871 144.367275 
L 353.578419 138.514347 
L 354.899266 141.756819 
L 356.220113 142.996287 
L 358.861814 138.425301 
L 365.466056 126.777784 
L 369.428604 120.259575 
L 372.070298 116.242819 
L 374.711999 112.566891 
L 377.353693 109.274267 
L 379.995394 106.37467 
L 382.637088 103.857353 
L 385.278789 101.712592 
L 387.920483 99.9409 
L 390.562184 98.547906 
L 393.203878 97.544357 
L 395.845578 96.937929 
L 398.487273 96.734763 
L 398.487273 96.734763 
" clip-path="url(#p69974d7cf2)" style="fill: none; stroke: #008000; stroke-width: 1.5; stroke-linecap: square"/>
   </g>
   <g id="line2d_33">
    <path d="M 73.832727 88.244766 
L 77.408026 88.378846 
L 80.983325 88.786714 
L 84.558624 89.48014 
L 87.2401 90.196084 
L 89.921575 91.085512 
L 93.496874 92.545546 
L 97.072173 94.314167 
L 100.647472 96.373464 
L 104.222771 98.683009 
L 110.479545 103.081534 
L 114.054844 105.451978 
L 115.842497 106.379787 
L 117.630143 106.933505 
L 118.523973 107.010268 
L 118.523973 107.010268 
L 122.829656 106.999009 
L 125.700113 107.234416 
L 128.57057 107.845962 
L 131.441028 108.907851 
L 134.311485 110.43646 
L 137.181942 112.407224 
L 140.0524 114.766921 
L 142.922857 117.436741 
L 151.534229 125.877097 
L 152.969454 126.945639 
L 154.404686 127.678982 
L 155.839912 127.90876 
L 157.275144 127.50038 
L 158.710369 126.454867 
L 160.145601 124.913465 
L 163.016058 121.017483 
L 168.756973 112.643654 
L 171.62743 108.849511 
L 174.497888 105.538464 
L 175.933113 104.100436 
L 177.368345 102.824633 
L 178.803571 101.725386 
L 180.238803 100.814976 
L 181.674028 100.102615 
L 184.544485 99.141029 
L 187.414943 98.382098 
L 188.850175 98.263371 
L 191.179223 98.49929 
L 196.542175 98.857518 
L 198.329827 98.608293 
L 199.22365 98.311988 
L 200.117473 97.884162 
L 201.905126 96.651858 
L 203.692772 94.997358 
L 205.480425 93.023524 
L 208.161901 89.644413 
L 211.7372 84.680401 
L 224.250742 66.85755 
L 227.826048 62.211848 
L 230.507517 58.983705 
L 232.29517 57.042623 
L 233.188993 56.201811 
L 234.082816 55.544719 
L 234.976645 55.238178 
L 234.976645 55.238178 
L 236.032181 55.149133 
L 238.143259 58.547691 
L 242.365415 66.018785 
L 247.643113 75.878235 
L 253.976347 88.206896 
L 264.531736 108.949815 
L 266.642814 112.797181 
L 267.69835 114.532026 
L 268.753892 115.928602 
L 269.809428 116.647105 
L 270.86497 116.703398 
L 272.976048 115.978242 
L 276.142662 114.81042 
L 278.25374 114.217297 
L 281.42036 113.606263 
L 284.586973 113.274135 
L 287.753593 113.169737 
L 287.753593 113.169737 
L 289.54124 113.285905 
L 291.328892 113.635433 
L 293.116539 114.218833 
L 294.904191 115.038151 
L 296.691837 116.093387 
L 298.47949 117.382495 
L 300.267143 118.894216 
L 302.054789 120.552298 
L 302.948612 120.302051 
L 303.842442 121.136721 
L 304.736265 121.466291 
L 305.630088 120.567651 
L 307.41774 117.964359 
L 312.780685 109.403741 
L 319.03746 99.498745 
L 324.400412 91.450392 
L 328.869534 85.190619 
L 330.657186 82.927644 
L 331.551009 82.005463 
L 332.444832 81.582243 
L 332.444832 81.582243 
L 333.765686 82.489583 
L 335.086533 84.810898 
L 336.40738 87.847134 
L 339.049081 94.767069 
L 343.011622 105.975502 
L 348.295017 121.637216 
L 353.578419 137.573743 
L 354.899266 136.28617 
L 362.824355 124.628929 
L 368.10775 117.231016 
L 374.711999 108.346457 
L 379.995394 101.551902 
L 382.637088 98.410756 
L 385.278789 95.554146 
L 387.920483 93.065488 
L 390.562184 91.024101 
L 391.883031 90.194548 
L 393.203878 89.503169 
L 394.524725 88.957128 
L 395.845578 88.563077 
L 397.166426 88.3246 
L 398.487273 88.244766 
L 398.487273 88.244766 
" clip-path="url(#p69974d7cf2)" style="fill: none; stroke: #008000; stroke-width: 1.5; stroke-linecap: square"/>
   </g>
   <g id="line2d_34">
    <path d="M 73.832727 53.505892 
L 74.72655 53.446528 
L 75.62038 53.267926 
L 77.408026 52.563753 
L 79.195679 51.423565 
L 80.983325 49.891374 
L 82.770978 48.021426 
L 84.558624 45.871036 
L 87.2401 42.256007 
L 90.815398 37.193738 
L 91.709222 36.121614 
L 92.603051 35.484992 
L 93.496874 35.837078 
L 94.390697 37.252078 
L 96.17835 41.423383 
L 98.859826 48.745046 
L 102.435125 59.426884 
L 106.904247 73.734498 
L 114.054844 97.126254 
L 115.842497 101.992522 
L 116.73632 103.821018 
L 117.630143 105.009311 
L 118.523973 105.420761 
L 118.523973 105.420761 
L 119.959198 105.057415 
L 121.39443 103.975056 
L 122.829656 102.262728 
L 124.264887 100.090333 
L 127.135345 94.998894 
L 137.181942 76.25028 
L 140.0524 71.349213 
L 142.922857 66.772598 
L 145.793314 62.586964 
L 148.663772 58.940206 
L 150.098997 57.434626 
L 151.534229 56.288297 
L 152.969454 55.714621 
L 154.404686 55.959751 
L 155.839912 57.05644 
L 157.275144 58.75188 
L 160.145601 62.945703 
L 170.192199 78.625329 
L 173.062656 82.745971 
L 175.933113 86.536532 
L 178.803571 89.882379 
L 180.238803 91.342924 
L 181.674028 92.63152 
L 183.10926 93.727185 
L 184.544485 94.629407 
L 185.979717 95.370939 
L 187.414943 95.93438 
L 188.850175 96.198445 
L 191.179223 96.164669 
L 192.966876 96.397517 
L 195.648352 97.076614 
L 197.435998 97.477317 
L 198.329827 97.529516 
L 199.22365 97.414883 
L 200.117473 97.109366 
L 201.011297 96.617571 
L 202.798949 95.18159 
L 204.586595 93.320341 
L 207.268071 90.045628 
L 210.84337 85.181408 
L 226.038395 63.83769 
L 229.613694 59.315321 
L 232.29517 56.163941 
L 234.082816 54.321116 
L 234.976645 53.720828 
L 234.976645 53.720828 
L 236.032181 54.864598 
L 237.087723 55.052412 
L 238.143259 55.583101 
L 239.198801 56.4495 
L 240.254337 57.627557 
L 241.309879 59.074797 
L 243.420957 62.554211 
L 246.587571 68.57039 
L 251.865269 79.320291 
L 260.309581 96.484003 
L 264.531736 104.554873 
L 267.69835 110.099214 
L 268.753892 111.737338 
L 269.809428 113.100651 
L 270.86497 113.86777 
L 271.920506 113.886193 
L 272.976048 113.512612 
L 280.364818 110.05418 
L 282.475895 109.32186 
L 284.586973 108.799871 
L 286.698051 108.52813 
L 288.647417 108.542459 
L 290.435069 108.932416 
L 292.222715 109.697999 
L 294.010368 110.81004 
L 295.798014 112.226575 
L 297.585667 113.898475 
L 300.267143 116.767367 
L 302.054789 118.794424 
L 302.948612 119.227368 
L 303.842442 118.258106 
L 306.523911 114.526909 
L 310.099216 109.097712 
L 314.568338 101.900406 
L 320.825113 91.390005 
L 328.869534 77.694449 
L 329.763363 76.562961 
L 331.551009 78.155027 
L 332.444832 78.563919 
L 332.444832 78.563919 
L 333.765686 78.76862 
L 337.728227 79.761935 
L 340.369928 80.12835 
L 341.690775 80.119139 
L 343.011622 79.944631 
L 344.332476 79.582821 
L 345.653323 79.017844 
L 346.97417 78.239979 
L 348.295017 77.245129 
L 349.615871 76.035855 
L 350.936718 74.621879 
L 353.578419 71.240209 
L 356.220113 67.26337 
L 361.503508 58.74881 
L 362.824355 57.735025 
L 365.466056 56.793398 
L 369.428604 55.784732 
L 374.711999 54.754571 
L 385.278789 52.980832 
L 387.920483 53.294026 
L 390.562184 53.551438 
L 394.524725 53.576002 
L 398.487273 53.505892 
L 398.487273 53.505892 
" clip-path="url(#p69974d7cf2)" style="fill: none; stroke: #008000; stroke-width: 1.5; stroke-linecap: square"/>
   </g>
   <g id="line2d_35">
    <path d="M 73.832727 49.959438 
L 74.72655 49.898539 
L 75.62038 49.715843 
L 77.408026 48.995805 
L 79.195679 47.829006 
L 80.983325 46.258945 
L 82.770978 44.337822 
L 84.558624 42.121927 
L 87.2401 38.361048 
L 90.815398 32.783443 
L 92.603051 29.935021 
L 93.496874 30.109018 
L 94.390697 29.502589 
L 95.284527 28.419718 
L 97.965996 24.463861 
L 102.435125 17.819249 
L 105.1166 14.248742 
L 106.904247 12.13827 
L 108.691899 10.284697 
L 110.479545 8.713613 
L 112.267198 7.441393 
L 114.054844 6.479807 
L 115.842497 5.834486 
L 117.630143 5.511057 
L 118.523973 5.470629 
L 118.523973 5.470629 
L 119.959198 5.572979 
L 121.39443 5.886173 
L 122.829656 6.423003 
L 124.264887 7.196263 
L 125.700113 8.213118 
L 127.135345 9.465379 
L 128.57057 10.932577 
L 131.441028 14.397663 
L 134.311485 18.380643 
L 138.617174 24.951562 
L 144.358082 34.275206 
L 150.098997 43.653095 
L 152.969454 48.038314 
L 157.275144 54.370756 
L 161.580827 61.243098 
L 170.192199 75.098833 
L 174.497888 81.607831 
L 177.368345 85.649663 
L 180.238803 89.316891 
L 181.674028 90.937615 
L 183.10926 92.349032 
L 184.544485 93.474379 
L 185.979717 94.250198 
L 187.414943 94.719476 
L 188.850175 95.004011 
L 194.754522 95.410344 
L 196.542175 95.364798 
L 198.329827 94.960512 
L 199.22365 94.582838 
L 201.011297 93.464144 
L 202.798949 91.913018 
L 204.586595 90.011852 
L 206.374248 87.836898 
L 209.055724 84.181952 
L 211.7372 80.170826 
L 215.312499 74.416666 
L 219.78162 66.760316 
L 225.144572 57.122968 
L 229.613694 48.922624 
L 230.507517 48.185187 
L 234.082816 51.165641 
L 234.976645 51.515681 
L 234.976645 51.515681 
L 243.420957 50.297707 
L 248.698649 49.293134 
L 251.865269 48.514756 
L 252.920805 48.208728 
L 253.976347 48.193375 
L 257.14296 48.863773 
L 260.309581 49.728637 
L 264.531736 51.135448 
L 278.25374 56.034979 
L 281.42036 56.784699 
L 284.586973 57.254489 
L 287.753593 57.414668 
L 287.753593 57.414668 
L 289.54124 57.224807 
L 291.328892 56.661366 
L 293.116539 55.738162 
L 294.904191 54.478736 
L 296.691837 52.915328 
L 298.47949 51.085808 
L 301.160966 47.94108 
L 304.736265 43.307661 
L 305.630088 43.988805 
L 311.886862 52.91891 
L 317.249814 60.170462 
L 324.400412 69.400966 
L 328.869534 75.020535 
L 329.763363 75.79226 
L 331.551009 73.631635 
L 332.444832 73.129605 
L 332.444832 73.129605 
L 333.765686 72.927462 
L 335.086533 72.462278 
L 337.728227 71.121994 
L 341.690775 68.615936 
L 348.295017 64.329997 
L 352.257565 62.028128 
L 356.220113 60.021542 
L 360.182661 58.245756 
L 361.503508 57.437185 
L 362.824355 55.744815 
L 365.466056 51.674325 
L 366.786903 49.89291 
L 368.10775 48.458975 
L 369.428604 47.492272 
L 370.749451 47.041417 
L 372.070298 47.045511 
L 373.391145 47.376616 
L 376.032846 48.546485 
L 381.316241 51.170759 
L 383.957935 52.158956 
L 385.278789 52.43172 
L 386.599636 52.340628 
L 389.24133 51.73727 
L 394.524725 50.410293 
L 397.166426 50.014195 
L 398.487273 49.959438 
L 398.487273 49.959438 
" clip-path="url(#p69974d7cf2)" style="fill: none; stroke: #008000; stroke-width: 1.5; stroke-linecap: square"/>
   </g>
   <g id="line2d_36">
    <path d="M 73.832727 32.788561 
L 75.62038 32.636058 
L 77.408026 32.183668 
L 79.195679 31.445719 
L 80.983325 30.444728 
L 82.770978 29.211401 
L 85.452453 27.007278 
L 88.133923 24.620458 
L 89.027752 24.20389 
L 89.921575 25.121465 
L 91.709222 28.392083 
L 92.603051 29.612616 
L 93.496874 28.339885 
L 101.541295 15.077272 
L 104.222771 11.092756 
L 106.904247 7.592872 
L 108.691899 5.607779 
L 110.479545 3.936902 
L 112.267198 2.593549 
L 114.054844 1.581811 
L 115.842497 0.903226 
L 117.630143 0.562909 
L 118.523973 0.519922 
L 118.523973 0.519922 
L 119.959198 0.576215 
L 121.39443 0.772217 
L 122.829656 1.186225 
L 124.264887 1.911381 
L 125.700113 2.982993 
L 127.135345 4.364729 
L 128.57057 5.993641 
L 131.441028 9.77192 
L 134.311485 13.995424 
L 138.617174 20.787933 
L 150.098997 39.307281 
L 151.534229 41.241711 
L 152.969454 42.757526 
L 154.404686 43.583496 
L 155.839912 43.594755 
L 157.275144 42.969392 
L 158.710369 41.971984 
L 161.580827 39.497142 
L 181.674028 20.943506 
L 185.979717 17.374023 
L 188.850175 15.316261 
L 190.2854 14.456514 
L 190.2854 14.456514 
L 191.179223 14.457026 
L 192.073053 14.646375 
L 193.860699 15.504586 
L 195.648352 16.721537 
L 198.329827 18.936408 
L 203.692772 23.862038 
L 209.949547 29.5379 
L 226.932218 44.602398 
L 229.613694 47.111016 
L 230.507517 47.129951 
L 231.401347 47.903211 
L 234.082816 50.574054 
L 234.976645 51.160524 
L 234.976645 51.160524 
L 236.032181 50.24909 
L 238.143259 47.678039 
L 239.198801 46.685748 
L 240.254337 46.257922 
L 241.309879 46.392001 
L 243.420957 46.86128 
L 246.587571 47.269659 
L 251.865269 47.852547 
L 252.920805 48.011702 
L 253.976347 47.871482 
L 257.14296 46.662208 
L 259.254038 45.659682 
L 261.365116 44.479577 
L 263.476194 43.114218 
L 266.642814 40.722792 
L 269.809428 37.976721 
L 279.309282 29.238524 
L 281.42036 27.687398 
L 283.531438 26.484265 
L 285.642516 25.719193 
L 286.698051 25.52268 
L 287.753593 25.456663 
L 287.753593 25.456663 
L 288.647417 25.527285 
L 289.54124 25.73864 
L 290.435069 26.086121 
L 292.222715 27.161315 
L 294.010368 28.681224 
L 295.798014 30.559873 
L 298.47949 33.865803 
L 302.054789 38.809856 
L 304.736265 42.684345 
L 305.630088 42.134209 
L 307.41774 39.920362 
L 308.311564 38.949565 
L 309.205387 38.150206 
L 310.099216 37.609794 
L 310.993039 37.420957 
L 311.886862 37.633846 
L 312.780685 38.224922 
L 313.674515 39.11435 
L 315.462161 41.461253 
L 318.143637 45.676058 
L 322.612759 53.328825 
L 329.763363 65.676422 
L 330.657186 67.058157 
L 331.551009 68.203462 
L 332.444832 68.712657 
L 332.444832 68.712657 
L 333.765686 67.787918 
L 335.086533 65.539783 
L 337.728227 59.620327 
L 345.653323 40.814908 
L 348.295017 34.965562 
L 350.936718 29.59317 
L 352.257565 27.271854 
L 353.578419 25.524215 
L 354.899266 24.830788 
L 356.220113 25.212557 
L 357.54096 26.152649 
L 364.145209 31.924208 
L 365.466056 32.795214 
L 366.786903 33.407783 
L 368.10775 33.649331 
L 369.428604 33.411365 
L 370.749451 32.652434 
L 372.070298 31.440089 
L 373.391145 29.90841 
L 377.353693 24.57747 
L 379.995394 21.168678 
L 381.316241 19.75419 
L 382.637088 19.461979 
L 390.562184 28.454006 
L 391.883031 29.657139 
L 393.203878 30.709305 
L 394.524725 31.58031 
L 395.845578 32.237402 
L 397.166426 32.64834 
L 398.487273 32.788561 
L 398.487273 32.788561 
" clip-path="url(#p69974d7cf2)" style="fill: none; stroke: #008000; stroke-width: 1.5; stroke-linecap: square"/>
   </g>
   <g id="line2d_37">
    <path d="M 73.832727 30.337772 
L 75.62038 30.179128 
L 77.408026 29.708314 
L 79.195679 28.941195 
L 80.983325 27.901823 
L 82.770978 26.621415 
L 85.452453 24.326199 
L 88.133923 21.696296 
L 89.027752 22.132822 
L 89.921575 22.082159 
L 91.709222 20.401047 
L 96.17835 15.482069 
L 102.435125 8.61075 
L 106.010423 4.95734 
L 108.691899 2.474822 
L 110.479545 1.011717 
L 112.267198 -0.239009 
L 113.611454 -1 
M 132.058221 -1 
L 138.617174 0.191376 
L 145.793314 1.640663 
L 152.969454 3.306933 
L 183.10926 10.830227 
L 185.979717 11.918727 
L 188.850175 13.33475 
L 190.2854 14.158162 
L 190.2854 14.158162 
L 192.073053 14.46675 
L 193.860699 14.979015 
L 195.648352 15.834668 
L 197.435998 16.972808 
L 200.117473 19.037735 
L 203.692772 22.136916 
L 223.356919 39.889145 
L 228.719871 45.135134 
L 230.507517 46.878679 
L 231.401347 45.461121 
L 234.082816 40.699763 
L 234.976645 39.709008 
L 234.976645 39.709008 
L 236.032181 40.691064 
L 238.143259 43.163858 
L 239.198801 43.939165 
L 240.254337 44.001088 
L 241.309879 43.364466 
L 252.920805 33.796204 
L 257.14296 30.048631 
L 261.365116 25.943853 
L 265.587272 21.514624 
L 274.031584 12.525667 
L 277.198204 9.606623 
L 279.309282 7.982317 
L 281.42036 6.723914 
L 282.475895 6.266918 
L 283.531438 5.939395 
L 285.642516 5.639507 
L 288.647417 5.625178 
L 290.435069 5.894361 
L 292.222715 6.520236 
L 294.010368 7.547326 
L 295.798014 8.949531 
L 297.585667 10.674654 
L 299.373313 12.668958 
L 302.054789 16.043975 
L 308.311564 24.2653 
L 309.205387 25.132211 
L 310.099216 25.744781 
L 310.993039 26.012428 
L 311.886862 25.883978 
L 312.780685 25.385018 
L 313.674515 24.595382 
L 315.462161 22.474162 
L 318.143637 18.681042 
L 325.294235 8.247917 
L 327.081887 5.92916 
L 328.869534 3.914385 
L 329.763363 3.087903 
L 330.657186 2.437464 
L 331.551009 2.015267 
L 332.444832 1.867882 
L 332.444832 1.867882 
L 333.765686 2.02192 
L 335.086533 2.465098 
L 336.40738 3.149313 
L 337.728227 4.021854 
L 340.369928 6.159961 
L 343.011622 8.630709 
L 350.936718 16.565964 
L 352.257565 17.601242 
L 353.578419 18.138072 
L 354.899266 17.694381 
L 356.220113 16.247141 
L 358.861814 12.230385 
L 361.503508 8.140448 
L 364.145209 4.525419 
L 365.466056 3.053615 
L 366.786903 2.023967 
L 368.10775 1.87914 
L 369.428604 2.743492 
L 370.749451 4.080705 
L 373.391145 7.206498 
L 378.67454 14.016918 
L 381.316241 17.414452 
L 382.637088 18.317185 
L 383.957935 18.124254 
L 385.278789 18.846339 
L 386.599636 20.265432 
L 390.562184 25.221768 
L 391.883031 26.677708 
L 393.203878 27.937646 
L 394.524725 28.961665 
L 395.845578 29.718038 
L 397.166426 30.181687 
L 398.487273 30.337772 
L 398.487273 30.337772 
" clip-path="url(#p69974d7cf2)" style="fill: none; stroke: #008000; stroke-width: 1.5; stroke-linecap: square"/>
   </g>
   <g id="line2d_38">
    <path d="M 73.832727 5.957307 
L 74.72655 6.021788 
L 75.62038 6.214207 
L 76.514203 6.534053 
L 78.301849 7.549373 
L 80.089502 9.050859 
L 81.877148 11.014458 
L 83.664801 13.408443 
L 85.452453 16.190848 
L 88.133923 20.86009 
L 89.027752 20.752622 
L 93.496874 15.848485 
L 102.435125 5.942977 
L 106.904247 1.334634 
L 109.377687 -1 
M 215.451907 -1 
L 223.356919 15.257409 
L 229.613694 27.643899 
L 233.188993 34.358622 
L 234.082816 35.843219 
L 234.976645 36.777682 
L 234.976645 36.777682 
L 236.032181 35.87853 
L 237.087723 34.296188 
L 239.198801 30.43347 
L 241.309879 26.051321 
L 245.532035 16.566987 
L 251.865269 2.167258 
L 253.334502 -1 
M 277.974267 -1 
L 279.309282 0.089025 
L 281.42036 1.465131 
L 282.475895 1.968697 
L 283.531438 2.333578 
L 285.642516 2.683617 
L 288.647417 2.730187 
L 290.435069 2.587408 
L 292.222715 2.21178 
L 294.010368 1.5552 
L 295.798014 0.640184 
L 298.309015 -1 
M 373.102153 -1 
L 373.391145 -0.85209 
L 374.711999 0.270698 
L 376.032846 1.759902 
L 378.67454 5.416383 
L 381.316241 9.285242 
L 382.637088 10.924901 
L 383.957935 11.904398 
L 385.278789 11.892628 
L 386.599636 11.213019 
L 390.562184 8.522217 
L 393.203878 7.123594 
L 394.524725 6.617981 
L 395.845578 6.252589 
L 397.166426 6.031511 
L 398.487273 5.957307 
L 398.487273 5.957307 
" clip-path="url(#p69974d7cf2)" style="fill: none; stroke: #008000; stroke-width: 1.5; stroke-linecap: square"/>
   </g>
   <g id="line2d_39">
    <path d="M 0 0 
" clip-path="url(#p69974d7cf2)" style="fill: none; stroke: #008000; stroke-width: 1.5; stroke-linecap: square"/>
   </g>
   <g id="line2d_40">
    <path d="M 0 0 
" clip-path="url(#p69974d7cf2)" style="fill: none; stroke: #008000; stroke-width: 1.5; stroke-linecap: square"/>
   </g>
   <g id="line2d_41">
    <path d="M 0 0 
" clip-path="url(#p69974d7cf2)" style="fill: none; stroke: #008000; stroke-width: 1.5; stroke-linecap: square"/>
   </g>
   <g id="line2d_42">
    <path d="M 0 0 
" clip-path="url(#p69974d7cf2)" style="fill: none; stroke: #008000; stroke-width: 1.5; stroke-linecap: square"/>
   </g>
   <g id="line2d_43">
    <path d="M 0 0 
" clip-path="url(#p69974d7cf2)" style="fill: none; stroke: #008000; stroke-width: 1.5; stroke-linecap: square"/>
   </g>
   <g id="line2d_44">
    <path d="M 0 0 
" clip-path="url(#p69974d7cf2)" style="fill: none; stroke: #008000; stroke-width: 1.5; stroke-linecap: square"/>
   </g>
   <g id="line2d_45">
    <path d="M 0 0 
" clip-path="url(#p69974d7cf2)" style="fill: none; stroke: #008000; stroke-width: 1.5; stroke-linecap: square"/>
   </g>
   <g id="line2d_46">
    <path d="M 0 0 
" clip-path="url(#p69974d7cf2)" style="fill: none; stroke: #008000; stroke-width: 1.5; stroke-linecap: square"/>
   </g>
   <g id="line2d_47">
    <path d="M 0 0 
" clip-path="url(#p69974d7cf2)" style="fill: none; stroke: #008000; stroke-width: 1.5; stroke-linecap: square"/>
   </g>
   <g id="line2d_48">
    <path d="M 0 0 
" clip-path="url(#p69974d7cf2)" style="fill: none; stroke: #008000; stroke-width: 1.5; stroke-linecap: square"/>
   </g>
   <g id="line2d_49">
    <path d="M 0 0 
" clip-path="url(#p69974d7cf2)" style="fill: none; stroke: #008000; stroke-width: 1.5; stroke-linecap: square"/>
   </g>
   <g id="line2d_50">
    <path d="M 0 0 
" clip-path="url(#p69974d7cf2)" style="fill: none; stroke: #008000; stroke-width: 1.5; stroke-linecap: square"/>
   </g>
   <g id="line2d_51">
    <path d="M 0 0 
" clip-path="url(#p69974d7cf2)" style="fill: none; stroke: #008000; stroke-width: 1.5; stroke-linecap: square"/>
   </g>
   <g id="line2d_52">
    <path d="M 0 0 
" clip-path="url(#p69974d7cf2)" style="fill: none; stroke: #008000; stroke-width: 1.5; stroke-linecap: square"/>
   </g>
   <g id="line2d_53">
    <path d="M 0 0 
" clip-path="url(#p69974d7cf2)" style="fill: none; stroke: #008000; stroke-width: 1.5; stroke-linecap: square"/>
   </g>
   <g id="line2d_54">
    <path d="M 0 0 
" clip-path="url(#p69974d7cf2)" style="fill: none; stroke: #008000; stroke-width: 1.5; stroke-linecap: square"/>
   </g>
   <g id="line2d_55">
    <path d="M 0 0 
" clip-path="url(#p69974d7cf2)" style="fill: none; stroke: #008000; stroke-width: 1.5; stroke-linecap: square"/>
   </g>
   <g id="line2d_56">
    <path d="M 0 0 
" clip-path="url(#p69974d7cf2)" style="fill: none; stroke: #008000; stroke-width: 1.5; stroke-linecap: square"/>
   </g>
   <g id="line2d_57">
    <path d="M 0 0 
" clip-path="url(#p69974d7cf2)" style="fill: none; stroke: #008000; stroke-width: 1.5; stroke-linecap: square"/>
   </g>
   <g id="line2d_58">
    <path d="M 0 0 
" clip-path="url(#p69974d7cf2)" style="fill: none; stroke: #008000; stroke-width: 1.5; stroke-linecap: square"/>
   </g>
   <g id="line2d_59">
    <path d="M 0 0 
" clip-path="url(#p69974d7cf2)" style="fill: none; stroke: #008000; stroke-width: 1.5; stroke-linecap: square"/>
   </g>
   <g id="line2d_60">
    <path d="M 0 0 
" clip-path="url(#p69974d7cf2)" style="fill: none; stroke: #008000; stroke-width: 1.5; stroke-linecap: square"/>
   </g>
   <g id="line2d_61">
    <path d="M 0 0 
" clip-path="url(#p69974d7cf2)" style="fill: none; stroke: #008000; stroke-width: 1.5; stroke-linecap: square"/>
   </g>
   <g id="line2d_62">
    <path d="M 0 0 
" clip-path="url(#p69974d7cf2)" style="fill: none; stroke: #008000; stroke-width: 1.5; stroke-linecap: square"/>
   </g>
   <g id="line2d_63">
    <path d="M 0 0 
" clip-path="url(#p69974d7cf2)" style="fill: none; stroke: #008000; stroke-width: 1.5; stroke-linecap: square"/>
   </g>
   <g id="line2d_64">
    <path d="M 0 0 
" clip-path="url(#p69974d7cf2)" style="fill: none; stroke: #008000; stroke-width: 1.5; stroke-linecap: square"/>
   </g>
   <g id="line2d_65">
    <path d="M 0 0 
" clip-path="url(#p69974d7cf2)" style="fill: none; stroke: #008000; stroke-width: 1.5; stroke-linecap: square"/>
   </g>
   <g id="line2d_66">
    <path d="M 0 0 
" clip-path="url(#p69974d7cf2)" style="fill: none; stroke: #008000; stroke-width: 1.5; stroke-linecap: square"/>
   </g>
   <g id="line2d_67">
    <path d="M 0 0 
" clip-path="url(#p69974d7cf2)" style="fill: none; stroke: #008000; stroke-width: 1.5; stroke-linecap: square"/>
   </g>
   <g id="line2d_68">
    <path d="M 0 0 
" clip-path="url(#p69974d7cf2)" style="fill: none; stroke: #008000; stroke-width: 1.5; stroke-linecap: square"/>
   </g>
   <g id="patch_3">
    <path d="M 57.6 307.584 
L 57.6 41.472 
" style="fill: none; stroke: #000000; stroke-width: 0.8; stroke-linejoin: miter; stroke-linecap: square"/>
   </g>
   <g id="patch_4">
    <path d="M 414.72 307.584 
L 414.72 41.472 
" style="fill: none; stroke: #000000; stroke-width: 0.8; stroke-linejoin: miter; stroke-linecap: square"/>
   </g>
   <g id="patch_5">
    <path d="M 57.6 307.584 
L 414.72 307.584 
" style="fill: none; stroke: #000000; stroke-width: 0.8; stroke-linejoin: miter; stroke-linecap: square"/>
   </g>
   <g id="patch_6">
    <path d="M 57.6 41.472 
L 414.72 41.472 
" style="fill: none; stroke: #000000; stroke-width: 0.8; stroke-linejoin: miter; stroke-linecap: square"/>
   </g>
  </g>
 </g>
 <defs>
  <clipPath id="p69974d7cf2">
   <rect x="57.6" y="41.472" width="357.12" height="266.112"/>
  </clipPath>
 </defs>
</svg>
