<?xml version="1.0" encoding="utf-8" standalone="no"?>
<!DOCTYPE svg PUBLIC "-//W3C//DTD SVG 1.1//EN"
  "http://www.w3.org/Graphics/SVG/1.1/DTD/svg11.dtd">
<svg xmlns:xlink="http://www.w3.org/1999/xlink" width="460.8pt" height="345.6pt" viewBox="0 0 460.8 345.6" xmlns="http://www.w3.org/2000/svg" version="1.1">
 <metadata>
  <rdf:RDF xmlns:dc="http://purl.org/dc/elements/1.1/" xmlns:cc="http://creativecommons.org/ns#" xmlns:rdf="http://www.w3.org/1999/02/22-rdf-syntax-ns#">
   <cc:Work>
    <dc:type rdf:resource="http://purl.org/dc/dcmitype/StillImage"/>
    <dc:date>2024-08-07T18:45:00.418797</dc:date>
    <dc:format>image/svg+xml</dc:format>
    <dc:creator>
     <cc:Agent>
      <dc:title>Matplotlib v3.9.1.post1, https://matplotlib.org/</dc:title>
     </cc:Agent>
    </dc:creator>
   </cc:Work>
  </rdf:RDF>
 </metadata>
 <defs>
  <style type="text/css">*{stroke-linejoin: round; stroke-linecap: butt}</style>
 </defs>
 <g id="figure_1">
  <g id="patch_1">
   <path d="M 0 345.6 
L 460.8 345.6 
L 460.8 0 
L 0 0 
z
" style="fill: #ffffff"/>
  </g>
  <g id="axes_1">
   <g id="patch_2">
    <path d="M 57.6 307.584 
L 414.72 307.584 
L 414.72 41.472 
L 57.6 41.472 
z
" style="fill: #ffffff"/>
   </g>
   <g id="matplotlib.axis_1">
    <g id="xtick_1">
     <g id="line2d_1">
      <defs>
       <path id="mee85a66437" d="M 0 0 
L 0 3.5 
" style="stroke: #000000; stroke-width: 0.8"/>
      </defs>
      <g>
       <use xlink:href="#mee85a66437" x="73.832727" y="307.584" style="stroke: #000000; stroke-width: 0.8"/>
      </g>
     </g>
     <g id="text_1">
      <!-- 0.0 -->
      <g transform="translate(65.881165 322.182437) scale(0.1 -0.1)">
       <defs>
        <path id="DejaVuSans-30" d="M 2034 4250 
Q 1547 4250 1301 3770 
Q 1056 3291 1056 2328 
Q 1056 1369 1301 889 
Q 1547 409 2034 409 
Q 2525 409 2770 889 
Q 3016 1369 3016 2328 
Q 3016 3291 2770 3770 
Q 2525 4250 2034 4250 
z
M 2034 4750 
Q 2819 4750 3233 4129 
Q 3647 3509 3647 2328 
Q 3647 1150 3233 529 
Q 2819 -91 2034 -91 
Q 1250 -91 836 529 
Q 422 1150 422 2328 
Q 422 3509 836 4129 
Q 1250 4750 2034 4750 
z
" transform="scale(0.015625)"/>
        <path id="DejaVuSans-2e" d="M 684 794 
L 1344 794 
L 1344 0 
L 684 0 
L 684 794 
z
" transform="scale(0.015625)"/>
       </defs>
       <use xlink:href="#DejaVuSans-30"/>
       <use xlink:href="#DejaVuSans-2e" x="63.623047"/>
       <use xlink:href="#DejaVuSans-30" x="95.410156"/>
      </g>
     </g>
    </g>
    <g id="xtick_2">
     <g id="line2d_2">
      <g>
       <use xlink:href="#mee85a66437" x="140.008494" y="307.584" style="stroke: #000000; stroke-width: 0.8"/>
      </g>
     </g>
     <g id="text_2">
      <!-- 0.1 -->
      <g transform="translate(132.056931 322.182437) scale(0.1 -0.1)">
       <defs>
        <path id="DejaVuSans-31" d="M 794 531 
L 1825 531 
L 1825 4091 
L 703 3866 
L 703 4441 
L 1819 4666 
L 2450 4666 
L 2450 531 
L 3481 531 
L 3481 0 
L 794 0 
L 794 531 
z
" transform="scale(0.015625)"/>
       </defs>
       <use xlink:href="#DejaVuSans-30"/>
       <use xlink:href="#DejaVuSans-2e" x="63.623047"/>
       <use xlink:href="#DejaVuSans-31" x="95.410156"/>
      </g>
     </g>
    </g>
    <g id="xtick_3">
     <g id="line2d_3">
      <g>
       <use xlink:href="#mee85a66437" x="206.18426" y="307.584" style="stroke: #000000; stroke-width: 0.8"/>
      </g>
     </g>
     <g id="text_3">
      <!-- 0.2 -->
      <g transform="translate(198.232698 322.182437) scale(0.1 -0.1)">
       <defs>
        <path id="DejaVuSans-32" d="M 1228 531 
L 3431 531 
L 3431 0 
L 469 0 
L 469 531 
Q 828 903 1448 1529 
Q 2069 2156 2228 2338 
Q 2531 2678 2651 2914 
Q 2772 3150 2772 3378 
Q 2772 3750 2511 3984 
Q 2250 4219 1831 4219 
Q 1534 4219 1204 4116 
Q 875 4013 500 3803 
L 500 4441 
Q 881 4594 1212 4672 
Q 1544 4750 1819 4750 
Q 2544 4750 2975 4387 
Q 3406 4025 3406 3419 
Q 3406 3131 3298 2873 
Q 3191 2616 2906 2266 
Q 2828 2175 2409 1742 
Q 1991 1309 1228 531 
z
" transform="scale(0.015625)"/>
       </defs>
       <use xlink:href="#DejaVuSans-30"/>
       <use xlink:href="#DejaVuSans-2e" x="63.623047"/>
       <use xlink:href="#DejaVuSans-32" x="95.410156"/>
      </g>
     </g>
    </g>
    <g id="xtick_4">
     <g id="line2d_4">
      <g>
       <use xlink:href="#mee85a66437" x="272.360027" y="307.584" style="stroke: #000000; stroke-width: 0.8"/>
      </g>
     </g>
     <g id="text_4">
      <!-- 0.3 -->
      <g transform="translate(264.408465 322.182437) scale(0.1 -0.1)">
       <defs>
        <path id="DejaVuSans-33" d="M 2597 2516 
Q 3050 2419 3304 2112 
Q 3559 1806 3559 1356 
Q 3559 666 3084 287 
Q 2609 -91 1734 -91 
Q 1441 -91 1130 -33 
Q 819 25 488 141 
L 488 750 
Q 750 597 1062 519 
Q 1375 441 1716 441 
Q 2309 441 2620 675 
Q 2931 909 2931 1356 
Q 2931 1769 2642 2001 
Q 2353 2234 1838 2234 
L 1294 2234 
L 1294 2753 
L 1863 2753 
Q 2328 2753 2575 2939 
Q 2822 3125 2822 3475 
Q 2822 3834 2567 4026 
Q 2313 4219 1838 4219 
Q 1578 4219 1281 4162 
Q 984 4106 628 3988 
L 628 4550 
Q 988 4650 1302 4700 
Q 1616 4750 1894 4750 
Q 2613 4750 3031 4423 
Q 3450 4097 3450 3541 
Q 3450 3153 3228 2886 
Q 3006 2619 2597 2516 
z
" transform="scale(0.015625)"/>
       </defs>
       <use xlink:href="#DejaVuSans-30"/>
       <use xlink:href="#DejaVuSans-2e" x="63.623047"/>
       <use xlink:href="#DejaVuSans-33" x="95.410156"/>
      </g>
     </g>
    </g>
    <g id="xtick_5">
     <g id="line2d_5">
      <g>
       <use xlink:href="#mee85a66437" x="338.535794" y="307.584" style="stroke: #000000; stroke-width: 0.8"/>
      </g>
     </g>
     <g id="text_5">
      <!-- 0.4 -->
      <g transform="translate(330.584231 322.182437) scale(0.1 -0.1)">
       <defs>
        <path id="DejaVuSans-34" d="M 2419 4116 
L 825 1625 
L 2419 1625 
L 2419 4116 
z
M 2253 4666 
L 3047 4666 
L 3047 1625 
L 3713 1625 
L 3713 1100 
L 3047 1100 
L 3047 0 
L 2419 0 
L 2419 1100 
L 313 1100 
L 313 1709 
L 2253 4666 
z
" transform="scale(0.015625)"/>
       </defs>
       <use xlink:href="#DejaVuSans-30"/>
       <use xlink:href="#DejaVuSans-2e" x="63.623047"/>
       <use xlink:href="#DejaVuSans-34" x="95.410156"/>
      </g>
     </g>
    </g>
    <g id="xtick_6">
     <g id="line2d_6">
      <g>
       <use xlink:href="#mee85a66437" x="404.71156" y="307.584" style="stroke: #000000; stroke-width: 0.8"/>
      </g>
     </g>
     <g id="text_6">
      <!-- 0.5 -->
      <g transform="translate(396.759998 322.182437) scale(0.1 -0.1)">
       <defs>
        <path id="DejaVuSans-35" d="M 691 4666 
L 3169 4666 
L 3169 4134 
L 1269 4134 
L 1269 2991 
Q 1406 3038 1543 3061 
Q 1681 3084 1819 3084 
Q 2600 3084 3056 2656 
Q 3513 2228 3513 1497 
Q 3513 744 3044 326 
Q 2575 -91 1722 -91 
Q 1428 -91 1123 -41 
Q 819 9 494 109 
L 494 744 
Q 775 591 1075 516 
Q 1375 441 1709 441 
Q 2250 441 2565 725 
Q 2881 1009 2881 1497 
Q 2881 1984 2565 2268 
Q 2250 2553 1709 2553 
Q 1456 2553 1204 2497 
Q 953 2441 691 2322 
L 691 4666 
z
" transform="scale(0.015625)"/>
       </defs>
       <use xlink:href="#DejaVuSans-30"/>
       <use xlink:href="#DejaVuSans-2e" x="63.623047"/>
       <use xlink:href="#DejaVuSans-35" x="95.410156"/>
      </g>
     </g>
    </g>
   </g>
   <g id="matplotlib.axis_2">
    <g id="ytick_1">
     <g id="line2d_7">
      <defs>
       <path id="mb31d74a6ef" d="M 0 0 
L -3.5 0 
" style="stroke: #000000; stroke-width: 0.8"/>
      </defs>
      <g>
       <use xlink:href="#mb31d74a6ef" x="57.6" y="297.348923" style="stroke: #000000; stroke-width: 0.8"/>
      </g>
     </g>
     <g id="text_7">
      <!-- 0 -->
      <g transform="translate(44.2375 301.148142) scale(0.1 -0.1)">
       <use xlink:href="#DejaVuSans-30"/>
      </g>
     </g>
    </g>
    <g id="ytick_2">
     <g id="line2d_8">
      <g>
       <use xlink:href="#mb31d74a6ef" x="57.6" y="246.173538" style="stroke: #000000; stroke-width: 0.8"/>
      </g>
     </g>
     <g id="text_8">
      <!-- 1 -->
      <g transform="translate(44.2375 249.972757) scale(0.1 -0.1)">
       <use xlink:href="#DejaVuSans-31"/>
      </g>
     </g>
    </g>
    <g id="ytick_3">
     <g id="line2d_9">
      <g>
       <use xlink:href="#mb31d74a6ef" x="57.6" y="194.998154" style="stroke: #000000; stroke-width: 0.8"/>
      </g>
     </g>
     <g id="text_9">
      <!-- 2 -->
      <g transform="translate(44.2375 198.797373) scale(0.1 -0.1)">
       <use xlink:href="#DejaVuSans-32"/>
      </g>
     </g>
    </g>
    <g id="ytick_4">
     <g id="line2d_10">
      <g>
       <use xlink:href="#mb31d74a6ef" x="57.6" y="143.822769" style="stroke: #000000; stroke-width: 0.8"/>
      </g>
     </g>
     <g id="text_10">
      <!-- 3 -->
      <g transform="translate(44.2375 147.621988) scale(0.1 -0.1)">
       <use xlink:href="#DejaVuSans-33"/>
      </g>
     </g>
    </g>
    <g id="ytick_5">
     <g id="line2d_11">
      <g>
       <use xlink:href="#mb31d74a6ef" x="57.6" y="92.647385" style="stroke: #000000; stroke-width: 0.8"/>
      </g>
     </g>
     <g id="text_11">
      <!-- 4 -->
      <g transform="translate(44.2375 96.446603) scale(0.1 -0.1)">
       <use xlink:href="#DejaVuSans-34"/>
      </g>
     </g>
    </g>
    <g id="ytick_6">
     <g id="line2d_12">
      <g>
       <use xlink:href="#mb31d74a6ef" x="57.6" y="41.472" style="stroke: #000000; stroke-width: 0.8"/>
      </g>
     </g>
     <g id="text_12">
      <!-- 5 -->
      <g transform="translate(44.2375 45.271219) scale(0.1 -0.1)">
       <use xlink:href="#DejaVuSans-35"/>
      </g>
     </g>
    </g>
   </g>
   <g id="line2d_13">
    <path d="M 73.832727 300.287925 
L 74.747442 299.685079 
L 75.662163 295.42524 
L 76.576877 292.997992 
L 78.406307 289.13425 
L 82.979892 280.278862 
L 88.468186 270.179911 
L 93.041772 262.194504 
L 97.615351 254.683493 
L 101.274216 249.070577 
L 104.933081 243.850176 
L 108.591946 239.052995 
L 112.25081 234.698994 
L 114.994961 231.734915 
L 117.739111 229.106548 
L 118.653825 228.428474 
L 119.568547 228.137798 
L 119.568547 228.137798 
L 120.698154 228.402374 
L 122.957381 229.705811 
L 135.383112 237.769517 
L 138.771947 239.650724 
L 142.160788 241.270937 
L 144.420009 242.170088 
L 146.679236 242.898826 
L 148.938457 243.43412 
L 151.197684 243.754478 
L 153.456905 243.839941 
L 155.716133 243.674644 
L 157.975353 243.245795 
L 161.364188 242.215634 
L 164.753029 242.755535 
L 165.882643 242.717153 
L 167.01225 242.529851 
L 168.141864 242.196699 
L 169.271477 241.722815 
L 171.530698 240.394302 
L 173.789926 238.64001 
L 176.049146 236.571501 
L 176.049146 236.571501 
L 177.878582 236.227602 
L 179.708011 235.668767 
L 181.537447 234.893972 
L 183.366876 233.900146 
L 185.196312 232.684219 
L 187.025747 231.243632 
L 188.855176 229.578385 
L 190.684612 227.696154 
L 193.428756 224.501275 
L 198.917056 217.653497 
L 201.661206 214.885932 
L 206.234786 210.723838 
L 211.723086 206.106283 
L 217.211387 201.711853 
L 219.040816 200.443215 
L 219.95553 199.963701 
L 220.870251 199.684796 
L 221.784966 199.678143 
L 221.784966 199.678143 
L 223.052576 199.980589 
L 224.320186 200.559383 
L 225.587789 201.35209 
L 228.123009 203.302384 
L 233.193443 207.720866 
L 238.263877 212.08408 
L 242.066707 215.010288 
L 244.60192 216.702146 
L 247.13714 218.141198 
L 249.672354 219.299297 
L 252.207574 220.165184 
L 254.742794 220.754213 
L 258.545617 221.269549 
L 262.348441 221.586837 
L 264.883661 221.525938 
L 266.151271 221.34273 
L 267.418881 221.041307 
L 268.686484 220.618087 
L 271.221705 219.42263 
L 273.756925 217.820328 
L 276.292138 215.92121 
L 281.362572 211.911618 
L 282.630182 211.087695 
L 283.897792 210.497643 
L 285.165402 210.277077 
L 285.165402 210.277077 
L 286.994831 210.356399 
L 289.738981 210.73919 
L 298.886146 212.466871 
L 300.715575 212.493483 
L 302.545011 212.302087 
L 304.374447 211.858396 
L 306.203876 211.136311 
L 308.033311 210.117409 
L 309.862741 208.794014 
L 311.692176 207.165613 
L 313.521605 205.239884 
L 315.351041 203.032177 
L 318.095191 199.249805 
L 320.839335 195.152704 
L 321.754056 194.11282 
L 322.66877 193.439863 
L 324.498206 192.437338 
L 326.327635 191.635931 
L 328.157071 191.029503 
L 329.9865 190.691233 
L 330.901215 190.647223 
L 330.901215 190.647223 
L 332.252941 190.712215 
L 333.60466 190.906682 
L 334.956379 191.224993 
L 337.659825 192.199884 
L 340.363264 193.561149 
L 341.714983 194.383537 
L 343.066709 195.355358 
L 344.418429 196.621949 
L 345.770148 198.295896 
L 348.473594 202.415002 
L 352.528759 209.353873 
L 357.935643 219.154982 
L 366.045966 234.36226 
L 376.859735 255.120019 
L 389.025223 278.928855 
L 394.432108 289.785713 
L 395.783834 292.675075 
L 397.135553 296.654985 
L 398.487273 300.287925 
L 398.487273 300.287925 
" clip-path="url(#p240ae1fde3)" style="fill: none; stroke: #008000; stroke-width: 1.5; stroke-linecap: square"/>
   </g>
   <g id="line2d_14">
    <path d="M 73.832727 300.118535 
L 74.747442 299.04334 
L 75.662163 294.842864 
L 77.491592 290.808709 
L 81.150457 283.666672 
L 86.638757 273.430572 
L 92.127051 263.690361 
L 96.700637 256.043735 
L 100.359502 250.29418 
L 104.018366 244.914624 
L 107.677231 239.9414 
L 111.336096 235.408796 
L 114.080246 232.329062 
L 116.824396 229.604996 
L 117.739111 228.83583 
L 118.653825 228.217631 
L 119.568547 227.926955 
L 119.568547 227.926955 
L 120.698154 228.200743 
L 122.957381 229.38443 
L 126.346216 231.140257 
L 128.605443 232.067555 
L 130.864664 232.795269 
L 133.123891 233.337217 
L 136.512726 233.853065 
L 139.90156 234.11713 
L 145.549622 234.520392 
L 147.808843 234.920071 
L 150.068071 235.606333 
L 152.327291 236.63547 
L 154.586519 237.966542 
L 159.104967 240.849251 
L 160.234581 241.440839 
L 161.364188 241.834378 
L 162.493802 241.501738 
L 164.753029 240.263805 
L 167.01225 238.732126 
L 169.271477 236.935358 
L 171.530698 234.887319 
L 173.789926 232.604897 
L 176.049146 230.107026 
L 176.049146 230.107026 
L 177.878582 229.999046 
L 179.708011 229.685853 
L 181.537447 229.172564 
L 183.366876 228.467879 
L 185.196312 227.583056 
L 187.940462 225.948515 
L 190.684612 223.992592 
L 193.428756 221.760833 
L 196.172906 219.240445 
L 198.002342 217.256376 
L 199.831771 214.84755 
L 207.149507 204.236846 
L 208.978936 202.093109 
L 211.723086 199.385931 
L 214.467236 197.000135 
L 216.296665 195.714609 
L 217.211387 195.325676 
L 218.126101 195.191597 
L 221.784966 195.391693 
L 221.784966 195.391693 
L 223.052576 195.720239 
L 224.320186 195.846642 
L 230.658229 195.873765 
L 233.193443 196.508851 
L 236.996266 197.93818 
L 238.263877 198.519532 
L 239.531487 199.246223 
L 240.799097 200.200132 
L 242.066707 201.385354 
L 244.60192 204.177994 
L 250.939964 211.468951 
L 253.475184 213.981663 
L 256.010397 216.014349 
L 257.278007 216.791191 
L 258.545617 217.373567 
L 259.813227 217.74203 
L 261.080837 217.892997 
L 262.348441 217.841822 
L 263.616051 217.61665 
L 264.883661 217.246652 
L 267.418881 216.159175 
L 269.954095 214.707841 
L 272.489315 212.974019 
L 276.292138 209.994589 
L 281.362572 205.911305 
L 282.630182 205.196384 
L 283.897792 204.885238 
L 286.994831 204.881656 
L 289.738981 205.091987 
L 293.397846 205.63854 
L 297.971432 206.31252 
L 300.715575 206.44097 
L 302.545011 206.322755 
L 304.374447 206.001885 
L 306.203876 205.450726 
L 308.033311 204.653925 
L 309.862741 203.604318 
L 311.692176 202.311628 
L 314.436326 199.985195 
L 321.754056 193.1149 
L 323.583485 190.18255 
L 327.24235 184.086538 
L 328.157071 182.748814 
L 329.071785 181.621932 
L 329.9865 180.838437 
L 330.901215 180.551855 
L 330.901215 180.551855 
L 332.252941 180.863513 
L 333.60466 181.722747 
L 334.956379 182.971938 
L 337.659825 186.09466 
L 343.066709 192.931692 
L 344.418429 194.379955 
L 345.770148 195.491996 
L 347.121874 196.426971 
L 348.473594 197.694073 
L 351.177033 201.469281 
L 355.232198 207.854946 
L 359.287363 214.7191 
L 363.342527 221.989075 
L 367.397686 229.632631 
L 372.80457 240.369738 
L 378.211455 251.678986 
L 383.618339 263.489242 
L 390.376949 278.832645 
L 394.432108 288.37839 
L 395.783834 291.73703 
L 398.487273 300.118535 
L 398.487273 300.118535 
" clip-path="url(#p240ae1fde3)" style="fill: none; stroke: #008000; stroke-width: 1.5; stroke-linecap: square"/>
   </g>
   <g id="line2d_15">
    <path d="M 73.832727 299.774125 
L 75.662163 291.004711 
L 79.321028 276.728825 
L 95.785922 213.807666 
L 96.700637 211.571814 
L 97.615351 211.624525 
L 99.444787 212.40239 
L 102.188931 213.853213 
L 105.847802 216.126935 
L 109.506667 218.69338 
L 114.080246 222.225505 
L 118.653825 225.844629 
L 119.568547 226.16601 
L 119.568547 226.16601 
L 120.698154 225.819553 
L 122.957381 224.253074 
L 127.475829 220.565888 
L 134.253498 214.703747 
L 142.160788 207.515653 
L 147.808843 202.268129 
L 148.938457 201.45137 
L 151.197684 204.130913 
L 152.327291 205.21839 
L 153.456905 206.055619 
L 154.586519 206.645671 
L 155.716133 207.000317 
L 156.84574 207.133885 
L 157.975353 207.065821 
L 159.104967 206.81455 
L 160.234581 206.398494 
L 161.364188 205.83403 
L 163.623415 204.315656 
L 165.882643 202.349498 
L 168.141864 200.000548 
L 170.401091 197.32254 
L 174.919539 191.634396 
L 176.049146 191.179958 
L 176.049146 191.179958 
L 177.878582 191.309944 
L 180.622732 191.244439 
L 185.196312 190.950693 
L 187.025747 191.068396 
L 188.855176 191.497758 
L 190.684612 192.265388 
L 193.428756 193.830332 
L 197.087627 195.966904 
L 198.917056 196.808227 
L 200.746492 197.383439 
L 202.575921 197.613728 
L 203.490635 197.572787 
L 204.405357 197.411585 
L 205.320071 197.116815 
L 206.234786 196.676195 
L 207.149507 196.081025 
L 208.978936 194.446995 
L 211.723086 191.537674 
L 212.637801 190.896447 
L 213.552515 190.64364 
L 214.467236 190.694304 
L 216.296665 191.054579 
L 217.211387 191.080678 
L 218.126101 190.866253 
L 219.040816 190.423586 
L 221.784966 188.717911 
L 221.784966 188.717911 
L 224.320186 189.678984 
L 229.390619 191.967548 
L 231.925833 192.646133 
L 234.461053 193.213668 
L 235.728663 193.712116 
L 236.996266 194.426525 
L 239.531487 196.085119 
L 240.799097 196.717135 
L 242.066707 197.116815 
L 243.33431 197.323563 
L 245.86953 197.35171 
L 248.40475 197.065639 
L 256.010397 195.84613 
L 258.545617 195.655758 
L 261.080837 195.640405 
L 263.616051 195.806213 
L 266.151271 196.16137 
L 268.686484 196.730952 
L 269.954095 197.131144 
L 271.221705 197.761113 
L 275.024528 200.5732 
L 277.559748 202.106415 
L 280.094968 203.238926 
L 282.630182 203.974828 
L 283.897792 204.198976 
L 286.080116 204.254246 
L 287.909552 204.089973 
L 289.738981 203.728163 
L 291.568417 203.171886 
L 293.397846 202.436496 
L 296.141996 201.028661 
L 298.886146 199.296886 
L 301.630297 197.291323 
L 305.289161 194.295516 
L 308.948026 191.085284 
L 309.862741 190.618053 
L 312.606891 190.096576 
L 315.351041 189.633438 
L 317.18047 189.086885 
L 318.095191 188.669806 
L 319.009906 188.127347 
L 319.92462 187.444155 
L 321.754056 185.656087 
L 323.583485 183.425352 
L 326.327635 179.856893 
L 327.24235 178.815474 
L 328.157071 177.96238 
L 329.071785 177.352881 
L 329.9865 177.001306 
L 330.901215 176.888209 
L 330.901215 176.888209 
L 332.252941 177.262301 
L 333.60466 178.197787 
L 334.956379 179.462842 
L 337.659825 182.555371 
L 341.714983 187.893475 
L 347.121874 195.092828 
L 348.473594 196.317967 
L 349.825313 196.89062 
L 351.177033 197.164408 
L 352.528759 197.235542 
L 353.880478 197.125515 
L 355.232198 196.84712 
L 357.935643 195.884512 
L 360.639082 194.759165 
L 361.990801 194.421407 
L 363.342527 194.401961 
L 364.694247 194.698266 
L 366.045966 195.228443 
L 367.397686 195.947457 
L 368.749412 197.286205 
L 370.101131 200.930916 
L 374.156296 214.254939 
L 383.618339 246.470867 
L 395.783834 288.537545 
L 397.135553 293.677089 
L 398.487273 299.774125 
L 398.487273 299.774125 
" clip-path="url(#p240ae1fde3)" style="fill: none; stroke: #008000; stroke-width: 1.5; stroke-linecap: square"/>
   </g>
   <g id="line2d_16">
    <path d="M 73.832727 206.503916 
L 77.491592 206.611384 
L 81.150457 206.937371 
L 84.809322 207.489553 
L 88.468186 208.280725 
L 92.127051 209.321632 
L 96.700637 210.91984 
L 100.359502 212.709443 
L 104.018366 214.734453 
L 107.677231 217.010222 
L 111.336096 219.53931 
L 118.653825 224.831868 
L 119.568547 225.04834 
L 119.568547 225.04834 
L 120.698154 224.786833 
L 121.827767 224.147653 
L 124.086995 222.357538 
L 126.346216 220.19026 
L 128.605443 217.746124 
L 131.994278 213.663352 
L 135.383112 209.176806 
L 139.90156 202.717961 
L 144.420009 195.913681 
L 145.549622 195.25096 
L 147.808843 199.372626 
L 148.938457 200.928869 
L 150.068071 200.094199 
L 162.493802 188.357636 
L 167.01225 184.167395 
L 168.141864 183.218092 
L 169.271477 182.649022 
L 170.401091 183.246239 
L 174.919539 187.844347 
L 176.963868 187.886311 
L 178.793297 187.614569 
L 180.622732 187.095651 
L 183.366876 185.980028 
L 185.196312 185.225191 
L 187.025747 184.73186 
L 188.855176 184.532788 
L 194.343477 184.27947 
L 196.172906 184.456025 
L 198.002342 184.897668 
L 200.746492 185.924246 
L 204.405357 187.345387 
L 206.234786 187.850488 
L 208.064221 188.133488 
L 209.89365 188.151911 
L 210.808372 188.033184 
L 211.723086 187.771678 
L 212.637801 187.269647 
L 213.552515 186.563939 
L 215.381951 185.657623 
L 218.126101 184.190936 
L 219.95553 183.274385 
L 220.870251 182.999061 
L 221.784966 182.927928 
L 221.784966 182.927928 
L 223.052576 183.178175 
L 224.320186 183.64643 
L 226.855399 184.970849 
L 233.193443 188.567967 
L 234.461053 189.156995 
L 235.728663 189.581751 
L 236.996266 189.793617 
L 239.531487 189.754212 
L 248.40475 188.963552 
L 250.939964 188.440028 
L 256.010397 187.097698 
L 257.278007 186.93189 
L 258.545617 186.997906 
L 259.813227 187.378139 
L 261.080837 188.082824 
L 262.348441 189.049015 
L 264.883661 191.410759 
L 269.954095 196.313361 
L 271.221705 197.234006 
L 277.559748 200.292247 
L 281.362572 202.315722 
L 282.630182 202.692885 
L 285.165402 202.568528 
L 285.165402 202.568528 
L 286.994831 202.482042 
L 288.824267 202.225142 
L 290.653696 201.802945 
L 293.397846 200.877182 
L 296.141996 199.624409 
L 298.886146 198.073283 
L 301.630297 196.252974 
L 304.374447 194.19163 
L 308.033311 191.165118 
L 308.948026 190.846807 
L 309.862741 190.246008 
L 323.583485 178.029932 
L 325.412921 176.644614 
L 327.24235 175.527455 
L 328.157071 175.144663 
L 329.071785 174.917445 
L 330.901215 174.815606 
L 330.901215 174.815606 
L 333.60466 174.797183 
L 334.956379 175.266461 
L 336.308099 176.271545 
L 339.011544 179.125085 
L 341.714983 182.081487 
L 343.066709 183.411535 
L 344.418429 184.580381 
L 345.770148 185.552713 
L 347.121874 186.30755 
L 348.473594 186.837215 
L 349.825313 187.145803 
L 351.177033 187.245595 
L 352.528759 187.155014 
L 355.232198 186.601808 
L 356.583917 186.626884 
L 360.639082 187.964097 
L 361.990801 187.971262 
L 363.342527 187.581305 
L 364.694247 187.061875 
L 366.045966 188.259379 
L 368.749412 195.461803 
L 370.101131 196.919278 
L 372.80457 198.522091 
L 376.859735 200.658663 
L 380.9149 202.544476 
L 384.970065 204.117096 
L 387.673504 204.96456 
L 390.376949 205.636493 
L 393.080388 206.121635 
L 395.783834 206.411288 
L 398.487273 206.503916 
L 398.487273 206.503916 
" clip-path="url(#p240ae1fde3)" style="fill: none; stroke: #008000; stroke-width: 1.5; stroke-linecap: square"/>
   </g>
   <g id="line2d_17">
    <path d="M 73.832727 206.005467 
L 77.491592 206.122147 
L 81.150457 206.474746 
L 84.809322 207.073498 
L 88.468186 207.932732 
L 92.127051 209.069849 
L 95.785922 210.428556 
L 96.700637 209.584674 
L 98.530066 203.087447 
L 101.274216 193.101082 
L 103.103652 187.321334 
L 104.018366 185.49335 
L 104.933081 184.953961 
L 105.847802 185.322936 
L 107.677231 186.933425 
L 110.421381 189.533646 
L 112.25081 191.023362 
L 114.080246 192.230077 
L 115.909682 193.116435 
L 117.739111 193.657359 
L 119.568547 193.839031 
L 119.568547 193.839031 
L 121.827767 193.748963 
L 124.086995 193.47978 
L 126.346216 193.038137 
L 128.605443 192.431708 
L 131.994278 191.236251 
L 135.383112 189.744489 
L 139.90156 187.5506 
L 141.031174 187.304958 
L 142.160788 188.309019 
L 144.420009 192.877958 
L 145.549622 194.118961 
L 151.197684 185.707775 
L 153.456905 182.760584 
L 154.586519 181.508322 
L 155.716133 180.440292 
L 156.84574 179.557005 
L 157.975353 178.842597 
L 159.104967 178.280691 
L 160.234581 177.865147 
L 161.364188 177.601594 
L 162.493802 177.508966 
L 163.623415 177.614387 
L 164.753029 177.946004 
L 165.882643 178.516609 
L 169.271477 180.894218 
L 170.401091 180.503238 
L 172.660312 178.606678 
L 174.919539 176.711654 
L 176.963868 176.812981 
L 178.793297 177.219313 
L 180.622732 177.867194 
L 184.281597 179.256606 
L 185.196312 179.437766 
L 186.111026 179.47666 
L 187.025747 179.361515 
L 189.769891 178.663995 
L 190.684612 178.581602 
L 192.514041 178.724893 
L 195.258191 179.328763 
L 198.917056 180.406516 
L 201.661206 181.430024 
L 204.405357 182.664886 
L 210.808372 185.759462 
L 211.723086 186.006639 
L 212.637801 186.078284 
L 213.552515 185.836736 
L 214.467236 184.964196 
L 216.296665 182.359881 
L 219.040816 178.356942 
L 219.95553 177.432203 
L 220.870251 177.137945 
L 221.784966 177.590335 
L 221.784966 177.590335 
L 223.052576 177.268442 
L 224.320186 177.687568 
L 225.587789 178.625613 
L 231.925833 184.684267 
L 233.193443 185.665811 
L 234.461053 186.484105 
L 235.728663 187.12738 
L 236.996266 187.602799 
L 238.263877 187.922133 
L 239.531487 188.088965 
L 240.799097 188.091524 
L 242.066707 187.923669 
L 243.33431 187.603311 
L 245.86953 186.627908 
L 248.40475 185.344941 
L 252.207574 183.040002 
L 254.742794 181.429001 
L 256.010397 180.734039 
L 257.278007 180.274996 
L 258.545617 180.184415 
L 259.813227 180.39884 
L 261.080837 180.768838 
L 262.348441 181.263704 
L 263.616051 181.901861 
L 266.151271 183.56762 
L 268.686484 185.571136 
L 272.489315 188.885766 
L 281.362572 196.853262 
L 282.630182 197.838899 
L 283.897792 198.613695 
L 285.165402 198.933541 
L 285.165402 198.933541 
L 287.909552 198.787691 
L 290.653696 198.345536 
L 293.397846 197.606563 
L 296.141996 196.596873 
L 299.800861 194.930091 
L 306.203876 191.836027 
L 308.033311 191.079143 
L 310.777455 188.578202 
L 316.265756 183.218604 
L 322.66877 177.016147 
L 325.412921 174.602204 
L 327.24235 173.190787 
L 329.071785 172.062882 
L 329.9865 171.691348 
L 330.901215 171.550104 
L 330.901215 171.550104 
L 332.252941 171.792676 
L 337.659825 174.001917 
L 340.363264 175.352947 
L 343.066709 177.058111 
L 353.880478 184.30301 
L 355.232198 184.969314 
L 356.583917 185.08497 
L 357.935643 184.501571 
L 359.287363 183.604466 
L 363.342527 180.512449 
L 364.694247 182.311264 
L 366.045966 183.85369 
L 367.397686 182.917181 
L 368.749412 181.453053 
L 370.101131 180.249408 
L 371.452851 180.600471 
L 372.80457 182.136244 
L 376.859735 187.734832 
L 380.9149 193.212133 
L 383.618339 196.536486 
L 386.321785 199.481629 
L 389.025223 201.9621 
L 390.376949 203.003008 
L 391.728669 203.900112 
L 393.080388 204.645737 
L 394.432108 205.233743 
L 395.783834 205.659522 
L 397.135553 205.918469 
L 398.487273 206.005467 
L 398.487273 206.005467 
" clip-path="url(#p240ae1fde3)" style="fill: none; stroke: #008000; stroke-width: 1.5; stroke-linecap: square"/>
   </g>
   <g id="line2d_18">
    <path d="M 73.832727 143.12269 
L 75.662163 143.30641 
L 77.491592 143.868827 
L 79.321028 144.837065 
L 81.150457 146.230571 
L 82.979892 148.040644 
L 84.809322 150.228392 
L 86.638757 152.734451 
L 89.382907 156.938509 
L 93.041772 163.024285 
L 98.530066 172.183144 
L 100.359502 174.946103 
L 101.274216 176.177894 
L 102.188931 177.20959 
L 103.103652 177.831371 
L 104.018366 177.592382 
L 104.933081 177.177861 
L 108.591946 181.659802 
L 110.421381 183.562502 
L 112.25081 185.164292 
L 114.080246 186.440094 
L 115.909682 187.368416 
L 117.739111 187.932368 
L 119.568547 188.121717 
L 119.568547 188.121717 
L 121.827767 187.919063 
L 124.086995 187.328499 
L 126.346216 186.402736 
L 128.605443 185.226726 
L 133.123891 182.505219 
L 136.512726 180.420846 
L 137.64234 179.82107 
L 138.771947 179.820047 
L 139.90156 181.778017 
L 141.031174 184.050716 
L 142.160788 185.059382 
L 143.290395 184.772288 
L 145.549622 183.495974 
L 148.938457 181.235046 
L 151.197684 179.559052 
L 153.456905 177.617458 
L 155.716133 175.232173 
L 159.104967 171.178059 
L 160.234581 170.133058 
L 161.364188 169.665827 
L 162.493802 169.781483 
L 163.623415 170.213915 
L 168.141864 172.32797 
L 171.530698 173.778792 
L 174.919539 175.567884 
L 176.049146 175.323777 
L 176.049146 175.323777 
L 181.537447 175.585795 
L 186.111026 175.851395 
L 187.940462 175.732669 
L 188.855176 175.481397 
L 189.769891 175.020819 
L 190.684612 174.330463 
L 192.514041 172.431344 
L 193.428756 171.925732 
L 196.172906 172.593059 
L 198.002342 172.658051 
L 199.831771 172.362769 
L 201.661206 171.782441 
L 208.064221 169.251818 
L 208.978936 169.074751 
L 209.89365 169.017946 
L 210.808372 169.108015 
L 211.723086 169.369009 
L 212.637801 169.808606 
L 213.552515 170.41657 
L 215.381951 171.985095 
L 218.126101 174.427184 
L 219.040816 175.014166 
L 219.95553 175.411287 
L 220.870251 176.026927 
L 221.784966 176.417907 
L 221.784966 176.417907 
L 223.052576 176.020274 
L 224.320186 175.47935 
L 225.587789 175.33913 
L 226.855399 174.885716 
L 228.123009 174.184613 
L 230.658229 172.321317 
L 236.996266 166.85988 
L 238.263877 166.092761 
L 239.531487 165.601478 
L 240.799097 165.398823 
L 242.066707 165.449999 
L 243.33431 165.702805 
L 244.60192 166.111184 
L 247.13714 167.275936 
L 248.40475 168.013374 
L 249.672354 168.885914 
L 250.939964 169.957526 
L 256.010397 174.882134 
L 257.278007 175.527455 
L 258.545617 175.580166 
L 259.813227 175.116517 
L 261.080837 174.480919 
L 263.616051 173.522404 
L 264.883661 172.800831 
L 267.418881 170.908877 
L 275.024528 164.590252 
L 277.559748 162.922446 
L 280.094968 161.665067 
L 281.362572 161.212165 
L 282.630182 160.884131 
L 283.897792 160.686082 
L 286.080116 160.666124 
L 287.909552 161.03561 
L 289.738981 161.756159 
L 291.568417 162.794508 
L 293.397846 164.099992 
L 296.141996 166.428984 
L 304.374447 173.865791 
L 306.203876 175.103723 
L 308.033311 176.000828 
L 309.862741 176.482388 
L 311.692176 176.516675 
L 313.521605 176.131837 
L 315.351041 175.404123 
L 317.18047 174.426673 
L 319.92462 172.683639 
L 323.583485 170.323942 
L 324.498206 169.868481 
L 325.412921 169.559894 
L 328.157071 169.130532 
L 329.071785 168.781004 
L 329.9865 168.716012 
L 332.252941 168.984171 
L 334.956379 170.197027 
L 339.011544 171.281434 
L 340.363264 171.391461 
L 341.714983 171.289622 
L 343.066709 171.00611 
L 344.418429 170.576749 
L 347.121874 169.391015 
L 351.177033 167.156698 
L 353.880478 165.723787 
L 355.232198 165.190028 
L 356.583917 164.921357 
L 357.935643 165.127082 
L 359.287363 166.545664 
L 360.639082 169.875646 
L 363.342527 177.290447 
L 364.694247 177.829324 
L 366.045966 176.60265 
L 367.397686 175.569931 
L 368.749412 175.856001 
L 370.101131 176.719842 
L 371.452851 176.161007 
L 372.80457 174.398015 
L 375.508016 170.085977 
L 383.618339 156.467183 
L 386.321785 152.37827 
L 389.025223 148.836933 
L 390.376949 147.338006 
L 391.728669 146.050434 
L 393.080388 144.991615 
L 394.432108 144.169738 
L 395.783834 143.585827 
L 397.135553 143.238346 
L 398.487273 143.12269 
L 398.487273 143.12269 
" clip-path="url(#p240ae1fde3)" style="fill: none; stroke: #008000; stroke-width: 1.5; stroke-linecap: square"/>
   </g>
   <g id="line2d_19">
    <path d="M 73.832727 136.422297 
L 75.662163 136.526183 
L 77.491592 136.908463 
L 78.406307 137.259014 
L 79.321028 137.747228 
L 80.235742 138.384361 
L 82.065171 140.098225 
L 83.894607 142.310537 
L 85.724043 144.90257 
L 88.468186 149.284206 
L 92.127051 155.647354 
L 99.444787 168.52001 
L 102.188931 172.95538 
L 104.018366 175.646182 
L 104.933081 175.761327 
L 105.847802 173.396 
L 106.762517 172.852518 
L 109.506667 176.035115 
L 111.336096 177.835977 
L 113.165532 179.315969 
L 114.994961 180.450016 
L 116.824396 181.217135 
L 118.653825 181.604532 
L 119.568547 181.653149 
L 119.568547 181.653149 
L 120.698154 181.572803 
L 121.827767 181.333814 
L 122.957381 180.942323 
L 125.216602 179.796506 
L 127.475829 178.452128 
L 129.73505 176.782787 
L 131.994278 174.639051 
L 135.383112 171.015833 
L 136.512726 172.769614 
L 137.64234 175.511591 
L 138.771947 177.664028 
L 139.90156 177.741302 
L 142.160788 176.440936 
L 151.197684 170.755862 
L 153.456905 169.547612 
L 155.716133 168.54918 
L 157.975353 167.839889 
L 160.234581 167.21862 
L 161.364188 166.543105 
L 163.623415 164.686462 
L 164.753029 164.054446 
L 165.882643 163.780657 
L 167.01225 163.821598 
L 168.141864 164.098457 
L 169.271477 164.553918 
L 171.530698 165.842002 
L 174.919539 168.278974 
L 176.049146 169.12695 
L 176.049146 169.12695 
L 180.622732 169.015899 
L 184.281597 168.979565 
L 186.111026 169.166355 
L 187.940462 169.591111 
L 189.769891 170.250761 
L 192.514041 171.389414 
L 193.428756 171.09362 
L 195.258191 168.570162 
L 198.002342 164.256077 
L 201.661206 158.197935 
L 202.575921 157.253749 
L 203.490635 157.056724 
L 204.405357 157.11404 
L 205.320071 157.345865 
L 206.234786 157.766015 
L 207.149507 158.419012 
L 208.064221 159.333005 
L 209.89365 161.668138 
L 213.552515 166.485788 
L 219.040816 173.312073 
L 219.95553 174.14572 
L 220.870251 173.919525 
L 221.784966 173.160082 
L 221.784966 173.160082 
L 223.052576 174.08738 
L 224.320186 174.274682 
L 225.587789 173.196416 
L 229.390619 169.05684 
L 233.193443 164.941827 
L 235.728663 162.568313 
L 236.996266 161.608262 
L 238.263877 160.862125 
L 239.531487 160.391312 
L 240.799097 160.273608 
L 242.066707 160.552514 
L 243.33431 161.203977 
L 244.60192 162.154304 
L 247.13714 164.61891 
L 249.672354 167.320971 
L 250.939964 168.518986 
L 253.475184 170.429363 
L 256.010397 172.046506 
L 258.545617 173.337149 
L 259.813227 173.709194 
L 261.080837 173.66723 
L 262.348441 172.951286 
L 264.883661 170.759445 
L 269.954095 165.828185 
L 276.292138 159.608328 
L 278.827358 157.312089 
L 281.362572 155.349001 
L 282.630182 154.619752 
L 283.897792 154.160709 
L 286.080116 153.995924 
L 289.738981 153.753353 
L 292.483131 153.594197 
L 295.227282 153.689383 
L 297.971432 154.052217 
L 300.715575 154.618728 
L 304.374447 155.631489 
L 308.033311 156.910874 
L 311.692176 158.446647 
L 315.351041 160.234203 
L 319.009906 162.264843 
L 321.754056 163.978706 
L 324.498206 166.117837 
L 328.157071 167.845007 
L 329.071785 168.208864 
L 329.9865 168.022073 
L 330.901215 167.674081 
L 330.901215 167.674081 
L 333.60466 167.822489 
L 336.308099 168.860326 
L 337.659825 168.860326 
L 339.011544 168.474464 
L 340.363264 167.864453 
L 343.066709 166.261128 
L 345.770148 164.331305 
L 351.177033 160.017731 
L 353.880478 157.978392 
L 355.232198 157.26296 
L 356.583917 157.986069 
L 359.287363 163.886079 
L 360.639082 165.361465 
L 363.342527 168.026167 
L 366.045966 171.035792 
L 367.397686 172.111498 
L 368.749412 171.682649 
L 370.101131 170.120264 
L 372.80457 166.187948 
L 376.859735 159.689697 
L 382.26662 150.888043 
L 384.970065 146.782753 
L 387.673504 143.145719 
L 389.025223 141.578217 
L 390.376949 140.209787 
L 391.728669 139.051688 
L 393.080388 138.104432 
L 394.432108 137.367506 
L 395.783834 136.841423 
L 397.135553 136.526695 
L 398.487273 136.422297 
L 398.487273 136.422297 
" clip-path="url(#p240ae1fde3)" style="fill: none; stroke: #008000; stroke-width: 1.5; stroke-linecap: square"/>
   </g>
   <g id="line2d_20">
    <path d="M 73.832727 131.820095 
L 75.662163 131.939845 
L 80.235742 132.519662 
L 81.150457 132.582096 
L 82.065171 133.099991 
L 83.894607 135.445359 
L 86.638757 139.566512 
L 90.297622 145.665595 
L 102.188931 166.155707 
L 104.933081 170.251273 
L 105.847802 171.451848 
L 106.762517 171.949784 
L 109.506667 175.114982 
L 111.336096 176.877974 
L 113.165532 178.317537 
L 114.994961 179.413202 
L 116.824396 180.151663 
L 118.653825 180.523196 
L 120.698154 180.523196 
L 122.957381 180.138869 
L 124.086995 179.777059 
L 125.216602 179.252 
L 126.346216 178.503304 
L 127.475829 177.538136 
L 129.73505 175.120099 
L 131.994278 172.178026 
L 134.253498 168.865955 
L 135.383112 168.995941 
L 136.512726 168.554297 
L 138.771947 165.198216 
L 142.160788 159.455314 
L 146.679236 151.521082 
L 147.808843 149.770884 
L 148.938457 148.409107 
L 150.068071 147.782209 
L 151.197684 148.046785 
L 152.327291 148.941843 
L 154.586519 151.514941 
L 157.975353 155.576732 
L 159.104967 156.728178 
L 160.234581 157.681063 
L 161.364188 158.378584 
L 162.493802 158.76854 
L 163.623415 158.805898 
L 164.753029 158.477352 
L 167.01225 157.283431 
L 168.141864 156.950279 
L 169.271477 156.950279 
L 171.530698 157.45845 
L 174.919539 158.572539 
L 176.049146 158.998318 
L 176.049146 158.998318 
L 177.878582 159.076104 
L 179.708011 159.373433 
L 182.452161 160.122129 
L 185.196312 160.938888 
L 187.025747 161.294046 
L 188.855176 161.363132 
L 190.684612 161.121073 
L 192.514041 160.619554 
L 195.258191 159.551012 
L 200.746492 157.249655 
L 201.661206 156.908827 
L 202.575921 156.15706 
L 203.490635 154.877676 
L 204.405357 153.939631 
L 205.320071 154.161732 
L 208.978936 157.727121 
L 211.723086 159.925616 
L 213.552515 161.840599 
L 215.381951 164.240724 
L 219.95553 170.669888 
L 220.870251 171.745594 
L 221.784966 172.37761 
L 223.052576 171.864321 
L 224.320186 170.892501 
L 226.855399 168.589608 
L 233.193443 162.457262 
L 236.996266 159.259824 
L 239.531487 157.022948 
L 242.066707 154.314235 
L 244.60192 151.403379 
L 245.86953 150.232998 
L 247.13714 149.682351 
L 248.40475 149.753485 
L 250.939964 150.496551 
L 254.742794 151.599892 
L 257.278007 152.119323 
L 259.813227 152.442239 
L 262.348441 152.568642 
L 264.883661 152.505185 
L 268.686484 152.10397 
L 272.489315 151.614222 
L 275.024528 151.559976 
L 282.630182 151.993431 
L 286.080116 151.854234 
L 294.31256 151.790777 
L 297.971432 151.799988 
L 300.715575 152.053818 
L 303.459726 152.558407 
L 306.203876 153.30045 
L 308.948026 154.259989 
L 311.692176 155.419111 
L 314.436326 156.76963 
L 316.265756 157.85506 
L 318.095191 159.596046 
L 322.66877 164.319534 
L 324.498206 165.543649 
L 325.412921 166.073315 
L 326.327635 166.396231 
L 329.071785 166.306674 
L 330.901215 166.791305 
L 330.901215 166.791305 
L 332.252941 166.548734 
L 333.60466 166.177712 
L 336.308099 164.498648 
L 340.363264 162.135881 
L 347.121874 158.258833 
L 352.528759 155.045531 
L 353.880478 154.479531 
L 355.232198 154.384345 
L 356.583917 154.878188 
L 357.935643 154.790166 
L 359.287363 154.48209 
L 360.639082 154.004624 
L 361.990801 153.333714 
L 364.694247 151.606033 
L 371.452851 146.931162 
L 376.859735 143.586851 
L 386.321785 137.815291 
L 391.728669 134.193609 
L 393.080388 133.452078 
L 395.783834 132.336454 
L 397.135553 131.966968 
L 398.487273 131.820095 
L 398.487273 131.820095 
" clip-path="url(#p240ae1fde3)" style="fill: none; stroke: #008000; stroke-width: 1.5; stroke-linecap: square"/>
   </g>
   <g id="line2d_21">
    <path d="M 73.832727 130.61082 
L 78.406307 130.751552 
L 80.235742 130.970583 
L 82.979892 133.35075 
L 84.809322 135.773905 
L 87.553472 140.04142 
L 91.212336 146.305287 
L 100.359502 162.363611 
L 103.103652 166.741665 
L 105.847802 170.665794 
L 106.762517 170.168369 
L 109.506667 160.719858 
L 114.080246 144.876982 
L 116.824396 136.021082 
L 118.653825 130.944995 
L 119.568547 129.713204 
L 119.568547 129.713204 
L 120.698154 130.914802 
L 121.827767 133.247888 
L 124.086995 138.726724 
L 127.475829 147.676276 
L 134.253498 166.133702 
L 135.383112 166.773394 
L 137.64234 162.937287 
L 141.031174 156.58284 
L 145.549622 147.888654 
L 146.679236 145.905607 
L 147.808843 144.173832 
L 148.938457 142.800797 
L 150.068071 141.61711 
L 151.197684 140.251239 
L 152.327291 139.604894 
L 153.456905 140.592579 
L 156.84574 144.128286 
L 160.234581 147.670646 
L 162.493802 149.798007 
L 163.623415 150.722746 
L 164.753029 151.495495 
L 165.882643 152.029766 
L 167.01225 152.177151 
L 168.141864 151.782589 
L 169.271477 150.86962 
L 170.401091 149.626058 
L 172.660312 146.714178 
L 176.049146 142.151893 
L 176.049146 142.151893 
L 179.708011 142.32896 
L 183.366876 142.753715 
L 187.025747 143.437419 
L 190.684612 144.388769 
L 194.343477 145.590367 
L 199.831771 147.65427 
L 200.746492 148.033992 
L 201.661206 148.543698 
L 202.575921 149.350734 
L 203.490635 150.307202 
L 204.405357 150.900837 
L 205.320071 150.365542 
L 206.234786 149.322076 
L 207.149507 149.003253 
L 208.064221 149.287789 
L 208.978936 149.885517 
L 212.637801 153.185306 
L 213.552515 153.694501 
L 214.467236 153.982107 
L 215.381951 154.076269 
L 217.211387 153.867474 
L 219.95553 153.273328 
L 220.870251 153.1894 
L 221.784966 153.23034 
L 221.784966 153.23034 
L 223.052576 152.863413 
L 224.320186 152.665876 
L 226.855399 152.645917 
L 231.925833 152.966275 
L 233.193443 152.899235 
L 234.461053 152.691975 
L 235.728663 152.310207 
L 236.996266 151.743184 
L 239.531487 150.171076 
L 243.33431 147.413746 
L 244.60192 146.745907 
L 245.86953 146.554 
L 247.13714 146.018193 
L 248.40475 144.933787 
L 250.939964 142.545943 
L 252.207574 142.073595 
L 253.475184 142.081271 
L 256.010397 142.54799 
L 258.545617 143.307945 
L 263.616051 145.190687 
L 267.418881 146.578052 
L 269.954095 147.295019 
L 271.221705 147.521214 
L 272.489315 147.609236 
L 273.756925 147.523773 
L 275.024528 147.246402 
L 276.292138 146.788895 
L 278.827358 145.559662 
L 280.094968 145.390271 
L 283.897792 147.087247 
L 285.165402 147.28069 
L 288.824267 147.375876 
L 292.483131 147.682928 
L 296.141996 148.24074 
L 299.800861 149.076946 
L 302.545011 149.902917 
L 305.289161 150.917213 
L 308.033311 152.147469 
L 310.777455 153.640767 
L 313.521605 155.475404 
L 317.18047 158.251669 
L 320.839335 160.541256 
L 325.412921 163.718224 
L 328.157071 165.57896 
L 329.071785 165.972499 
L 330.901215 166.383438 
L 330.901215 166.383438 
L 332.252941 166.240146 
L 333.60466 165.609154 
L 334.956379 164.555965 
L 337.659825 161.874374 
L 341.714983 157.573083 
L 344.418429 155.157605 
L 345.770148 154.180155 
L 347.121874 153.399219 
L 348.473594 152.844478 
L 349.825313 152.526167 
L 351.177033 152.421769 
L 355.232198 152.407952 
L 356.583917 153.792758 
L 357.935643 153.711389 
L 359.287363 153.098308 
L 363.342527 150.59839 
L 367.397686 147.877907 
L 371.452851 144.899499 
L 376.859735 140.863808 
L 380.9149 138.143837 
L 383.618339 136.556888 
L 387.673504 134.512943 
L 391.728669 132.573908 
L 394.432108 131.203431 
L 395.783834 130.77714 
L 397.135553 130.625149 
L 398.487273 130.61082 
L 398.487273 130.61082 
" clip-path="url(#p240ae1fde3)" style="fill: none; stroke: #008000; stroke-width: 1.5; stroke-linecap: square"/>
   </g>
   <g id="line2d_22">
    <path d="M 73.832727 127.309496 
L 74.747442 127.386771 
L 75.662163 127.617572 
L 76.576877 127.997293 
L 77.491592 128.519282 
L 79.321028 129.953216 
L 80.235742 130.835992 
L 82.065171 131.840565 
L 82.979892 131.941892 
L 84.809322 131.534536 
L 86.638757 130.887167 
L 89.382907 129.643605 
L 92.127051 128.146725 
L 95.785922 125.841786 
L 99.444787 123.264594 
L 104.933081 119.064118 
L 110.421381 114.78688 
L 111.336096 114.814002 
L 112.25081 115.060668 
L 113.165532 115.557581 
L 114.080246 116.340564 
L 114.994961 117.430088 
L 115.909682 118.825129 
L 117.739111 122.368513 
L 118.653825 124.257396 
L 119.568547 125.329009 
L 119.568547 125.329009 
L 120.698154 124.29066 
L 122.957381 120.639808 
L 124.086995 119.04416 
L 125.216602 117.747376 
L 126.346216 116.793978 
L 127.475829 116.204949 
L 128.605443 116.004854 
L 129.73505 116.315488 
L 130.864664 117.192634 
L 133.123891 119.515997 
L 136.512726 123.454454 
L 141.031174 129.206056 
L 145.549622 135.017533 
L 146.679236 136.268259 
L 147.808843 137.256456 
L 148.938457 137.847531 
L 150.068071 138.175566 
L 151.197684 138.658149 
L 152.327291 138.476989 
L 157.975353 129.967034 
L 159.104967 128.636474 
L 160.234581 127.560256 
L 161.364188 126.788019 
L 162.493802 126.347399 
L 163.623415 126.234301 
L 164.753029 126.41188 
L 165.882643 126.826912 
L 167.01225 127.425152 
L 169.271477 128.998796 
L 172.660312 131.873317 
L 176.049146 134.933605 
L 176.049146 134.933605 
L 178.793297 135.078431 
L 181.537447 135.402883 
L 184.281597 135.919755 
L 187.025747 136.661286 
L 189.769891 137.676606 
L 191.599327 138.543517 
L 193.428756 139.598753 
L 195.258191 140.884279 
L 197.087627 142.440522 
L 198.917056 144.284371 
L 201.661206 147.211603 
L 202.575921 147.773509 
L 203.490635 148.044227 
L 205.320071 148.190077 
L 206.234786 147.965417 
L 207.149507 146.91018 
L 208.978936 143.867804 
L 209.89365 142.737339 
L 210.808372 142.247079 
L 211.723086 142.376553 
L 217.211387 146.094445 
L 219.040816 147.084688 
L 219.95553 147.447522 
L 220.870251 147.677299 
L 221.784966 147.745362 
L 221.784966 147.745362 
L 223.052576 147.387135 
L 224.320186 146.874357 
L 226.855399 145.511045 
L 231.925833 142.334589 
L 233.193443 142.115047 
L 236.996266 144.792543 
L 238.263877 145.46294 
L 239.531487 145.886161 
L 240.799097 146.020752 
L 243.33431 145.855967 
L 244.60192 145.666618 
L 245.86953 144.855488 
L 248.40475 142.766509 
L 249.672354 141.995296 
L 250.939964 141.527041 
L 252.207574 140.778857 
L 254.742794 139.132033 
L 256.010397 138.54147 
L 257.278007 138.099314 
L 258.545617 137.788168 
L 261.080837 137.502097 
L 263.616051 137.597284 
L 266.151271 138.020504 
L 268.686484 138.739518 
L 271.221705 139.72925 
L 273.756925 140.963089 
L 278.827358 143.79974 
L 280.094968 143.88418 
L 281.362572 143.127808 
L 283.897792 141.152949 
L 285.165402 140.652966 
L 285.165402 140.652966 
L 286.994831 140.55215 
L 288.824267 140.240492 
L 290.653696 139.695986 
L 292.483131 138.890486 
L 294.31256 137.801985 
L 296.141996 136.426391 
L 297.971432 134.780591 
L 300.715575 131.890205 
L 303.459726 128.66462 
L 304.374447 128.042328 
L 306.203876 130.851856 
L 309.862741 137.167922 
L 313.521605 143.4671 
L 316.265756 147.761227 
L 318.095191 150.275985 
L 319.92462 152.481644 
L 321.754056 154.418633 
L 324.498206 157.052118 
L 325.412921 158.224546 
L 327.24235 161.090879 
L 328.157071 162.283266 
L 329.071785 163.199305 
L 329.9865 163.776052 
L 330.901215 163.973589 
L 330.901215 163.973589 
L 332.252941 164.060075 
L 333.60466 163.714129 
L 334.956379 162.866153 
L 336.308099 161.685025 
L 337.659825 160.262862 
L 340.363264 156.953861 
L 343.066709 153.210894 
L 347.121874 147.468504 
L 348.473594 145.968041 
L 349.825313 144.776167 
L 351.177033 143.815093 
L 352.528759 144.894894 
L 353.880478 148.411666 
L 355.232198 151.393656 
L 356.583917 150.936659 
L 359.287363 148.79497 
L 364.694247 143.923585 
L 370.101131 139.17758 
L 374.156296 135.996006 
L 376.859735 134.124522 
L 379.563181 132.486398 
L 382.26662 131.108245 
L 384.970065 130.014115 
L 387.673504 129.225503 
L 390.376949 128.744966 
L 394.432108 128.31151 
L 395.783834 127.999852 
L 397.135553 127.566397 
L 398.487273 127.309496 
L 398.487273 127.309496 
" clip-path="url(#p240ae1fde3)" style="fill: none; stroke: #008000; stroke-width: 1.5; stroke-linecap: square"/>
   </g>
   <g id="line2d_23">
    <path d="M 73.832727 125.864303 
L 74.747442 125.940043 
L 75.662163 126.163679 
L 76.576877 126.530095 
L 78.406307 127.63753 
L 80.235742 129.013636 
L 81.150457 129.532555 
L 82.065171 129.742886 
L 82.979892 129.72651 
L 84.809322 129.368282 
L 86.638757 128.759807 
L 89.382907 127.513686 
L 92.127051 125.958978 
L 95.785922 123.545035 
L 105.847802 116.490508 
L 107.677231 115.53097 
L 109.506667 114.899977 
L 110.421381 114.686064 
L 115.909682 110.54444 
L 117.739111 109.431887 
L 118.653825 109.058819 
L 119.568547 108.917575 
L 119.568547 108.917575 
L 120.698154 109.081848 
L 121.827767 109.523491 
L 124.086995 110.901133 
L 126.346216 112.641607 
L 128.605443 114.539191 
L 129.73505 115.327803 
L 131.994278 116.402486 
L 134.253498 117.87429 
L 136.512726 119.768803 
L 138.771947 121.949386 
L 143.290395 126.752708 
L 146.679236 130.272551 
L 147.808843 131.227484 
L 148.938457 131.84517 
L 150.068071 131.824189 
L 151.197684 130.97263 
L 152.327291 129.476774 
L 154.586519 125.630944 
L 159.104967 117.485358 
L 161.364188 113.918945 
L 162.493802 112.601179 
L 163.623415 111.798237 
L 164.753029 111.304395 
L 165.882643 111.107369 
L 167.01225 111.324353 
L 168.141864 111.92464 
L 170.401091 113.753137 
L 173.789926 117.03092 
L 176.049146 119.274449 
L 176.049146 119.274449 
L 182.452161 118.920827 
L 184.281597 119.012943 
L 186.111026 119.270867 
L 187.940462 119.740657 
L 189.769891 120.517499 
L 190.684612 121.071217 
L 191.599327 121.766178 
L 193.428756 123.602863 
L 195.258191 125.873515 
L 199.831771 131.738214 
L 202.575921 134.783149 
L 204.405357 136.820441 
L 207.149507 140.503534 
L 208.064221 141.324387 
L 208.978936 141.728672 
L 209.89365 141.649351 
L 210.808372 141.804924 
L 211.723086 141.840235 
L 213.552515 140.86125 
L 216.296665 139.058341 
L 219.95553 136.520042 
L 220.870251 135.994471 
L 221.784966 135.798981 
L 221.784966 135.798981 
L 223.052576 135.796422 
L 224.320186 136.205825 
L 226.855399 137.478557 
L 229.390619 139.112075 
L 231.925833 140.958483 
L 233.193443 141.359698 
L 236.996266 139.310124 
L 240.799097 142.479927 
L 242.066707 143.226064 
L 243.33431 143.534652 
L 244.60192 143.327392 
L 248.40475 141.805947 
L 249.672354 141.107915 
L 252.207574 138.924261 
L 254.742794 136.352698 
L 263.616051 126.979415 
L 267.418881 123.245147 
L 271.221705 119.79695 
L 272.489315 119.288778 
L 278.827358 130.124142 
L 281.362572 133.815935 
L 282.630182 135.4254 
L 283.897792 136.750331 
L 285.165402 137.364436 
L 285.165402 137.364436 
L 286.994831 137.185322 
L 288.824267 136.65361 
L 290.653696 135.782605 
L 292.483131 134.594824 
L 294.31256 133.12302 
L 296.141996 131.406086 
L 298.886146 128.4983 
L 300.715575 126.558241 
L 301.630297 125.860209 
L 302.545011 125.858674 
L 304.374447 127.428223 
L 306.203876 125.38479 
L 307.11859 124.782456 
L 308.033311 125.332591 
L 308.948026 126.54903 
L 310.777455 129.466027 
L 313.521605 134.361976 
L 317.18047 141.492242 
L 324.498206 156.184183 
L 325.412921 157.469709 
L 327.24235 159.029023 
L 329.9865 160.909718 
L 330.901215 161.102138 
L 330.901215 161.102138 
L 332.252941 160.589872 
L 333.60466 159.708632 
L 334.956379 158.50294 
L 337.659825 155.518392 
L 341.714983 150.863479 
L 344.418429 148.140436 
L 347.121874 145.494157 
L 348.473594 143.819699 
L 349.825313 141.846888 
L 351.177033 140.747129 
L 352.528759 142.212792 
L 353.880478 141.333599 
L 364.694247 133.172148 
L 368.749412 130.476741 
L 372.80457 128.109879 
L 375.508016 126.749126 
L 378.211455 125.590515 
L 380.9149 124.662705 
L 383.618339 123.998449 
L 386.321785 123.63408 
L 389.025223 123.605422 
L 391.728669 123.944715 
L 394.432108 124.656564 
L 397.135553 125.607403 
L 398.487273 125.864303 
L 398.487273 125.864303 
" clip-path="url(#p240ae1fde3)" style="fill: none; stroke: #008000; stroke-width: 1.5; stroke-linecap: square"/>
   </g>
   <g id="line2d_24">
    <path d="M 73.832727 88.725815 
L 77.491592 88.836354 
L 81.150457 89.174111 
L 84.809322 89.748811 
L 88.468186 90.566082 
L 92.127051 91.627459 
L 95.785922 92.933455 
L 99.444787 94.482534 
L 103.103652 96.268555 
L 106.762517 98.278724 
L 111.336096 101.0642 
L 116.824396 104.52775 
L 117.739111 105.003169 
L 118.653825 105.352186 
L 119.568547 105.485242 
L 119.568547 105.485242 
L 120.698154 105.372144 
L 122.957381 104.713005 
L 126.346216 103.584076 
L 128.605443 102.996583 
L 130.864664 102.595879 
L 133.123891 102.395272 
L 135.383112 102.400389 
L 137.64234 102.612256 
L 139.90156 103.026776 
L 142.160788 103.63781 
L 144.420009 104.434611 
L 147.808843 105.937632 
L 151.197684 107.722118 
L 155.716133 110.189795 
L 157.975353 111.162639 
L 159.104967 111.469691 
L 160.234581 111.582277 
L 161.364188 111.410839 
L 162.493802 110.772682 
L 163.623415 109.60179 
L 165.882643 107.037903 
L 167.01225 106.481626 
L 169.271477 105.849099 
L 170.401091 106.209885 
L 171.530698 107.165841 
L 176.049146 111.774696 
L 176.049146 111.774696 
L 177.878582 111.489138 
L 179.708011 110.930814 
L 181.537447 110.099214 
L 183.366876 109.132511 
L 184.281597 108.830576 
L 185.196312 109.043466 
L 186.111026 109.80035 
L 187.940462 111.909799 
L 190.684612 115.215729 
L 192.514041 117.023244 
L 194.343477 118.374786 
L 195.258191 119.014478 
L 197.087627 122.219592 
L 203.490635 134.314895 
L 204.405357 135.755993 
L 205.320071 136.870081 
L 207.149507 138.543005 
L 208.978936 139.909388 
L 209.89365 140.229234 
L 210.808372 139.363858 
L 212.637801 136.071234 
L 214.467236 132.738693 
L 215.381951 131.648657 
L 216.296665 131.540165 
L 217.211387 131.93831 
L 220.870251 134.193097 
L 221.784966 134.407522 
L 221.784966 134.407522 
L 223.052576 133.997095 
L 225.587789 132.754557 
L 226.855399 132.240756 
L 228.123009 131.878946 
L 229.390619 131.785295 
L 230.658229 132.22438 
L 231.925833 133.31288 
L 236.996266 138.798882 
L 238.263877 138.287128 
L 243.33431 135.202276 
L 245.86953 133.410625 
L 248.40475 131.310388 
L 256.010397 124.3316 
L 263.616051 117.281168 
L 266.151271 115.275604 
L 267.418881 114.482898 
L 268.686484 114.107782 
L 269.954095 114.883089 
L 271.221705 116.791931 
L 272.489315 118.488907 
L 275.024528 116.613841 
L 277.559748 114.802232 
L 280.094968 113.29307 
L 281.362572 112.694318 
L 282.630182 112.231693 
L 283.897792 111.935899 
L 286.080116 111.861183 
L 287.909552 112.086866 
L 289.738981 112.552562 
L 291.568417 113.282323 
L 293.397846 114.305319 
L 295.227282 115.645091 
L 297.056711 117.308802 
L 298.886146 119.265749 
L 300.715575 121.349611 
L 301.630297 122.182234 
L 302.545011 122.366466 
L 303.459726 121.786649 
L 304.374447 121.013389 
L 305.289161 121.034882 
L 306.203876 121.902817 
L 307.11859 122.597778 
L 308.033311 122.374654 
L 308.948026 122.745164 
L 310.777455 125.615079 
L 313.521605 130.495676 
L 317.18047 137.536385 
L 327.24235 157.54596 
L 328.157071 158.943048 
L 329.071785 159.958368 
L 329.9865 160.489568 
L 330.901215 160.668171 
L 330.901215 160.668171 
L 332.252941 160.171769 
L 333.60466 158.697918 
L 336.308099 154.893028 
L 341.714983 146.593916 
L 347.121874 138.284057 
L 348.473594 136.537441 
L 349.825313 137.343454 
L 351.177033 139.568048 
L 353.880478 135.194088 
L 363.342527 119.462263 
L 367.397686 113.19379 
L 370.101131 109.32186 
L 372.80457 105.746748 
L 375.508016 102.488411 
L 378.211455 99.556573 
L 380.9149 96.954305 
L 383.618339 94.688771 
L 386.321785 92.767647 
L 389.025223 91.20168 
L 391.728669 90.004688 
L 394.432108 89.190999 
L 397.135553 88.778014 
L 398.487273 88.725815 
L 398.487273 88.725815 
" clip-path="url(#p240ae1fde3)" style="fill: none; stroke: #008000; stroke-width: 1.5; stroke-linecap: square"/>
   </g>
   <g id="line2d_25">
    <path d="M 73.832727 78.798302 
L 74.747442 78.734333 
L 76.576877 78.244073 
L 78.406307 77.392514 
L 80.235742 76.47801 
L 81.150457 76.129506 
L 82.065171 75.905358 
L 83.894607 75.814265 
L 85.724043 76.058884 
L 87.553472 76.508204 
L 90.297622 77.42936 
L 93.041772 78.565966 
L 96.700637 80.336122 
L 100.359502 82.341686 
L 104.933081 85.106692 
L 110.421381 88.711486 
L 112.25081 90.096803 
L 114.080246 91.890501 
L 114.994961 92.798864 
L 115.909682 93.548071 
L 116.824396 94.09923 
L 117.739111 94.462576 
L 118.653825 94.663695 
L 119.568547 94.727664 
L 119.568547 94.727664 
L 121.827767 94.558785 
L 122.957381 94.314167 
L 124.086995 93.923699 
L 126.346216 92.701119 
L 127.475829 92.075756 
L 128.605443 91.669423 
L 130.864664 91.320407 
L 133.123891 91.26309 
L 135.383112 91.408429 
L 137.64234 91.73851 
L 139.90156 92.245146 
L 142.160788 92.918102 
L 145.549622 94.216934 
L 148.938457 95.832541 
L 152.327291 97.731659 
L 155.716133 99.885631 
L 160.234581 103.075393 
L 163.623415 105.446348 
L 164.753029 106.038448 
L 165.882643 106.27539 
L 167.01225 105.62188 
L 168.141864 104.76981 
L 169.271477 104.30309 
L 170.401091 104.011391 
L 173.789926 102.700277 
L 174.919539 102.418301 
L 176.049146 102.267333 
L 176.049146 102.267333 
L 176.963868 102.28678 
L 177.878582 102.437747 
L 178.793297 102.720747 
L 180.622732 103.663398 
L 182.452161 105.015452 
L 184.281597 106.366482 
L 185.196312 106.560436 
L 186.111026 106.49135 
L 187.025747 106.816825 
L 187.940462 107.64689 
L 189.769891 109.950294 
L 191.599327 112.662078 
L 194.343477 117.212081 
L 195.258191 118.739666 
L 196.172906 119.382429 
L 200.746492 121.629028 
L 205.320071 123.964161 
L 209.89365 126.566941 
L 213.552515 128.692767 
L 214.467236 129.0469 
L 215.381951 128.869322 
L 216.296665 127.700476 
L 218.126101 124.181657 
L 219.95553 120.429989 
L 220.870251 118.87221 
L 221.784966 119.379359 
L 221.784966 119.379359 
L 223.052576 118.991449 
L 224.320186 120.66949 
L 228.123009 126.346887 
L 229.390619 127.906713 
L 230.658229 128.941991 
L 231.925833 129.323248 
L 234.461053 129.311477 
L 243.33431 128.720401 
L 245.86953 128.159519 
L 247.13714 127.693823 
L 248.40475 127.060272 
L 249.672354 126.223554 
L 250.939964 125.159618 
L 252.207574 123.868975 
L 254.742794 120.755465 
L 262.348441 110.523458 
L 263.616051 109.120741 
L 264.883661 108.013817 
L 266.151271 107.603391 
L 267.418881 108.52813 
L 268.686484 110.124802 
L 269.954095 110.941561 
L 271.221705 110.743001 
L 276.292138 108.896081 
L 278.827358 108.363345 
L 281.362572 108.141244 
L 286.080116 108.142268 
L 287.909552 108.329569 
L 289.738981 108.706732 
L 291.568417 109.279385 
L 293.397846 110.053668 
L 295.227282 111.038794 
L 297.056711 112.243975 
L 298.886146 113.676885 
L 300.715575 115.340597 
L 304.374447 119.049789 
L 305.289161 119.042624 
L 306.203876 118.540594 
L 307.11859 119.523161 
L 308.033311 120.714013 
L 308.948026 120.78617 
L 310.777455 118.646527 
L 319.92462 107.006174 
L 323.583485 102.761176 
L 326.327635 99.83292 
L 328.157071 98.085281 
L 329.071785 97.340167 
L 329.9865 96.779797 
L 330.901215 96.558208 
L 330.901215 96.558208 
L 332.252941 97.06075 
L 333.60466 98.467049 
L 334.956379 100.540164 
L 336.308099 103.054923 
L 339.011544 108.871517 
L 341.714983 115.30631 
L 345.770148 125.628385 
L 348.473594 132.436758 
L 349.825313 133.205924 
L 351.177033 131.466473 
L 372.80457 99.577043 
L 378.211455 92.043003 
L 382.26662 86.825673 
L 384.970065 83.713698 
L 386.321785 82.325821 
L 387.673504 81.099659 
L 389.025223 80.100716 
L 390.376949 79.404219 
L 391.728669 79.020915 
L 394.432108 78.80649 
L 398.487273 78.798302 
L 398.487273 78.798302 
" clip-path="url(#p240ae1fde3)" style="fill: none; stroke: #008000; stroke-width: 1.5; stroke-linecap: square"/>
   </g>
   <g id="line2d_26">
    <path d="M 73.832727 72.718666 
L 76.576877 72.634227 
L 78.406307 72.423896 
L 79.321028 72.214077 
L 80.235742 71.882972 
L 81.150457 71.38913 
L 82.065171 70.710032 
L 83.894607 68.855437 
L 85.724043 66.540774 
L 88.468186 62.608457 
L 93.956487 54.389179 
L 94.871201 53.228521 
L 95.785922 52.429162 
L 96.700637 52.46089 
L 97.615351 53.517662 
L 98.530066 55.173186 
L 100.359502 59.179195 
L 103.103652 65.855024 
L 109.506667 81.943029 
L 111.336096 85.936756 
L 112.25081 87.603027 
L 113.165532 88.922328 
L 114.080246 89.867538 
L 114.994961 90.54817 
L 116.824396 91.478539 
L 118.653825 91.964705 
L 120.698154 91.995922 
L 122.957381 91.756421 
L 125.216602 91.310172 
L 126.346216 90.942733 
L 127.475829 90.29997 
L 128.605443 89.232963 
L 129.73505 87.820011 
L 131.994278 84.415312 
L 141.031174 69.549375 
L 143.290395 66.385712 
L 144.420009 65.038265 
L 145.549622 64.09152 
L 146.679236 64.289569 
L 147.808843 65.751649 
L 150.068071 69.645073 
L 155.716133 80.159056 
L 161.364188 90.512859 
L 164.753029 96.198445 
L 167.01225 99.476228 
L 168.141864 100.742819 
L 169.271477 101.388652 
L 170.401091 101.247408 
L 173.789926 99.782257 
L 176.049146 99.188622 
L 176.049146 99.188622 
L 177.878582 99.367736 
L 179.708011 99.927595 
L 181.537447 100.84824 
L 183.366876 102.096408 
L 185.196312 103.513454 
L 186.111026 104.014973 
L 187.025747 103.937186 
L 187.940462 103.306194 
L 189.769891 101.411681 
L 192.514041 98.033082 
L 197.087627 91.906877 
L 202.575921 84.568327 
L 203.490635 83.511555 
L 204.405357 82.947602 
L 205.320071 83.849824 
L 207.149507 87.399861 
L 211.723086 97.240375 
L 219.040816 113.089904 
L 219.95553 114.950129 
L 220.870251 116.457756 
L 221.784966 115.861051 
L 221.784966 115.861051 
L 223.052576 116.56113 
L 224.320186 115.08165 
L 226.855399 111.239402 
L 231.925833 102.946431 
L 238.263877 92.533775 
L 242.066707 86.716158 
L 244.60192 83.195803 
L 247.13714 80.101739 
L 248.40475 78.76862 
L 249.672354 77.625362 
L 250.939964 76.754357 
L 252.207574 76.391524 
L 253.475184 77.118726 
L 254.742794 79.074649 
L 257.278007 84.333943 
L 263.616051 98.342693 
L 264.883661 100.818047 
L 266.151271 102.64552 
L 267.418881 103.124521 
L 268.686484 102.66906 
L 272.489315 100.777618 
L 275.024528 99.947553 
L 277.559748 99.484416 
L 280.094968 99.280738 
L 285.165402 99.209604 
L 285.165402 99.209604 
L 286.994831 99.404071 
L 288.824267 99.979282 
L 290.653696 100.912209 
L 292.483131 102.167541 
L 294.31256 103.699221 
L 297.056711 106.412028 
L 299.800861 109.513768 
L 302.545011 112.94303 
L 305.289161 116.62817 
L 306.203876 117.448 
L 307.11859 116.589788 
L 309.862741 112.726047 
L 323.583485 92.688837 
L 324.498206 91.63923 
L 325.412921 90.914074 
L 326.327635 90.786648 
L 327.24235 91.161763 
L 329.9865 92.805517 
L 330.901215 93.00203 
L 330.901215 93.00203 
L 332.252941 93.088516 
L 334.956379 93.570077 
L 337.659825 94.072619 
L 339.011544 94.216934 
L 340.363264 94.234845 
L 341.714983 94.09053 
L 343.066709 93.753796 
L 344.418429 93.201102 
L 345.770148 92.419142 
L 347.121874 91.402799 
L 348.473594 90.159237 
L 349.825313 88.703809 
L 352.528759 85.257659 
L 355.232198 81.31869 
L 359.287363 75.278459 
L 360.639082 73.578925 
L 361.990801 72.35788 
L 363.342527 71.640401 
L 364.694247 71.198246 
L 367.397686 70.655275 
L 370.101131 70.36204 
L 372.80457 70.296024 
L 374.156296 70.385069 
L 375.508016 70.605123 
L 376.859735 70.995591 
L 379.563181 72.203842 
L 383.618339 74.208894 
L 386.321785 75.221654 
L 387.673504 75.52973 
L 389.025223 75.630546 
L 390.376949 75.456549 
L 391.728669 75.009277 
L 395.783834 73.222744 
L 397.135553 72.851211 
L 398.487273 72.718666 
L 398.487273 72.718666 
" clip-path="url(#p240ae1fde3)" style="fill: none; stroke: #008000; stroke-width: 1.5; stroke-linecap: square"/>
   </g>
   <g id="line2d_27">
    <path d="M 73.832727 68.23775 
L 74.747442 68.174292 
L 75.662163 67.984432 
L 76.576877 67.669191 
L 78.406307 66.6769 
L 80.235742 65.244501 
L 82.065171 63.449269 
L 84.809322 60.275883 
L 93.041772 50.138551 
L 94.871201 48.277303 
L 95.785922 47.694415 
L 96.700637 47.449285 
L 97.615351 46.785028 
L 99.444787 44.501583 
L 102.188931 40.659335 
L 104.933081 38.323179 
L 107.677231 36.229594 
L 110.421381 34.379603 
L 113.165532 32.815684 
L 114.994961 31.97436 
L 116.824396 31.347974 
L 118.653825 31.00561 
L 119.568547 30.961088 
L 119.568547 30.961088 
L 120.698154 31.030686 
L 121.827767 31.242041 
L 122.957381 31.602315 
L 124.086995 32.117651 
L 125.216602 32.788561 
L 126.346216 33.610437 
L 128.605443 35.661547 
L 130.864664 38.169141 
L 133.123891 41.039568 
L 135.383112 44.201183 
L 138.771947 49.369897 
L 145.549622 60.121845 
L 146.679236 60.657652 
L 147.808843 60.078346 
L 150.068071 58.452504 
L 151.197684 57.807183 
L 152.327291 57.350187 
L 153.456905 57.108127 
L 154.586519 57.087657 
L 155.716133 57.273424 
L 156.84574 57.630116 
L 159.104967 58.683305 
L 165.882643 62.298335 
L 168.141864 63.18981 
L 170.401091 63.800844 
L 172.660312 64.090496 
L 174.919539 64.036762 
L 178.793297 63.484068 
L 180.622732 62.830047 
L 182.452161 61.928336 
L 187.025747 59.470895 
L 187.940462 59.208877 
L 188.855176 59.142349 
L 189.769891 59.313786 
L 190.684612 59.73803 
L 191.599327 60.398192 
L 192.514041 61.262545 
L 194.343477 63.463598 
L 196.172906 66.125742 
L 198.917056 70.711568 
L 204.405357 80.393951 
L 205.320071 80.190272 
L 207.149507 78.153492 
L 212.637801 71.593831 
L 216.296665 67.569911 
L 219.040816 64.833563 
L 220.870251 63.280902 
L 221.784966 62.73179 
L 224.320186 63.437499 
L 228.123009 64.553122 
L 230.658229 65.066923 
L 233.193443 65.38421 
L 235.728663 65.528013 
L 239.531487 65.49219 
L 244.60192 65.286465 
L 245.86953 65.358111 
L 247.13714 65.643669 
L 248.40475 66.347331 
L 249.672354 67.648209 
L 252.207574 71.264774 
L 253.475184 72.373232 
L 254.742794 72.518059 
L 261.080837 71.407553 
L 263.616051 71.242256 
L 267.418881 71.258121 
L 271.221705 71.521162 
L 277.559748 72.272929 
L 281.362572 72.655209 
L 285.165402 72.800547 
L 285.165402 72.800547 
L 286.994831 72.643439 
L 288.824267 72.173137 
L 290.653696 71.395783 
L 292.483131 70.323658 
L 294.31256 68.979793 
L 296.141996 67.398473 
L 298.886146 64.681572 
L 299.800861 63.715381 
L 300.715575 63.158593 
L 308.033311 71.907025 
L 311.692176 75.868 
L 315.351041 79.523969 
L 319.92462 83.760779 
L 322.66877 86.116894 
L 324.498206 87.40856 
L 325.412921 87.692072 
L 326.327635 87.40856 
L 328.157071 85.777601 
L 329.071785 84.951119 
L 329.9865 84.340596 
L 330.901215 84.108772 
L 330.901215 84.108772 
L 332.252941 84.004374 
L 333.60466 83.706533 
L 334.956379 83.250049 
L 337.659825 82.015698 
L 341.714983 79.797757 
L 347.121874 76.826514 
L 351.177033 74.836304 
L 355.232198 73.11374 
L 359.287363 71.515021 
L 360.639082 70.827224 
L 361.990801 69.833398 
L 364.694247 67.37698 
L 366.045966 66.447635 
L 367.397686 65.892382 
L 368.749412 65.722991 
L 370.101131 65.883682 
L 371.452851 66.283873 
L 376.859735 68.392811 
L 378.211455 68.664041 
L 380.9149 68.902518 
L 384.970065 68.933735 
L 390.376949 68.683487 
L 397.135553 68.257708 
L 398.487273 68.23775 
L 398.487273 68.23775 
" clip-path="url(#p240ae1fde3)" style="fill: none; stroke: #008000; stroke-width: 1.5; stroke-linecap: square"/>
   </g>
   <g id="line2d_28">
    <path d="M 73.832727 61.912984 
L 75.662163 61.725682 
L 77.491592 61.171453 
L 79.321028 60.27486 
L 81.150457 59.070703 
L 82.979892 57.59634 
L 84.809322 55.886571 
L 87.553472 52.928122 
L 90.297622 49.538264 
L 93.041772 45.935005 
L 93.956487 45.071165 
L 94.871201 45.312713 
L 95.785922 45.8869 
L 96.700637 45.587524 
L 98.530066 43.985223 
L 102.188931 40.586154 
L 105.847802 35.627259 
L 108.591946 32.310071 
L 110.421381 30.401229 
L 112.25081 28.809675 
L 114.080246 27.612171 
L 114.994961 27.187415 
L 116.824396 26.69869 
L 118.653825 26.557446 
L 120.698154 26.620392 
L 122.957381 27.091717 
L 129.73505 29.019494 
L 131.994278 29.822435 
L 134.253498 30.910424 
L 136.512726 32.446197 
L 138.771947 34.385744 
L 143.290395 38.757146 
L 146.679236 41.98836 
L 148.938457 43.92893 
L 151.197684 45.531232 
L 152.327291 46.145848 
L 153.456905 46.608985 
L 154.586519 46.91399 
L 156.84574 47.125345 
L 160.234581 46.961584 
L 164.753029 46.760976 
L 170.401091 46.572651 
L 173.789926 46.183718 
L 176.049146 45.798879 
L 176.049146 45.798879 
L 182.452161 46.78554 
L 184.281597 47.404251 
L 187.025747 48.463069 
L 187.940462 48.684659 
L 188.855176 48.746069 
L 189.769891 48.605337 
L 190.684612 48.248133 
L 191.599327 47.693392 
L 193.428756 46.139195 
L 196.172906 43.384424 
L 197.087627 42.719656 
L 198.002342 42.527748 
L 198.917056 42.747802 
L 200.746492 43.649001 
L 203.490635 45.316807 
L 208.064221 48.4078 
L 212.637801 51.824269 
L 217.211387 55.58003 
L 220.870251 58.622407 
L 221.784966 59.191989 
L 221.784966 59.191989 
L 223.052576 58.376765 
L 225.587789 56.205393 
L 229.390619 52.427115 
L 233.193443 48.560303 
L 235.728663 46.334173 
L 236.996266 45.538396 
L 238.263877 45.167375 
L 239.531487 45.460098 
L 240.799097 46.54041 
L 242.066707 48.259391 
L 244.60192 52.611858 
L 247.13714 56.944878 
L 248.40475 58.584025 
L 249.672354 59.558404 
L 250.939964 59.89258 
L 252.207574 59.794835 
L 253.475184 59.444283 
L 256.010397 58.3696 
L 261.080837 56.036003 
L 263.616051 55.132245 
L 267.418881 54.103108 
L 272.489315 52.779201 
L 280.094968 50.508549 
L 282.630182 50.028524 
L 285.165402 49.857087 
L 285.165402 49.857087 
L 286.080116 49.923103 
L 286.994831 50.118593 
L 287.909552 50.439974 
L 289.738981 51.432777 
L 291.568417 52.831912 
L 293.397846 54.55294 
L 296.141996 57.55847 
L 299.800861 61.983606 
L 300.715575 62.688291 
L 305.289161 57.977085 
L 307.11859 56.577438 
L 308.033311 56.11993 
L 308.948026 55.877359 
L 309.862741 55.874288 
L 310.777455 56.112254 
L 311.692176 56.56925 
L 312.606891 57.208943 
L 314.436326 58.88596 
L 316.265756 60.898176 
L 319.92462 65.397004 
L 327.24235 74.691477 
L 329.071785 76.587014 
L 329.9865 77.218006 
L 330.901215 77.454948 
L 330.901215 77.454948 
L 332.252941 76.981064 
L 333.60466 75.690421 
L 334.956379 73.849642 
L 337.659825 69.344161 
L 347.121874 52.401015 
L 349.825313 48.106377 
L 351.177033 46.244105 
L 352.528759 44.771277 
L 353.880478 43.969871 
L 355.232198 43.974476 
L 356.583917 44.538941 
L 361.990801 47.863294 
L 363.342527 48.428782 
L 364.694247 48.726111 
L 366.045966 48.680565 
L 367.397686 48.248644 
L 368.749412 47.444167 
L 370.101131 46.33622 
L 372.80457 43.60192 
L 375.508016 40.83896 
L 376.859735 39.772465 
L 378.211455 39.395815 
L 379.563181 40.352283 
L 380.9149 42.067681 
L 384.970065 47.96718 
L 389.025223 53.800662 
L 391.728669 57.259606 
L 393.080388 58.756998 
L 394.432108 60.037406 
L 395.783834 61.038908 
L 397.135553 61.6873 
L 398.487273 61.912984 
L 398.487273 61.912984 
" clip-path="url(#p240ae1fde3)" style="fill: none; stroke: #008000; stroke-width: 1.5; stroke-linecap: square"/>
   </g>
   <g id="line2d_29">
    <path d="M 73.832727 50.451745 
L 75.662163 50.28696 
L 77.491592 49.800794 
L 79.321028 49.015252 
L 81.150457 47.963598 
L 82.979892 46.687795 
L 85.724043 44.457572 
L 90.297622 40.522185 
L 91.212336 40.115852 
L 92.127051 40.487386 
L 93.956487 42.517001 
L 94.871201 42.298482 
L 95.785922 41.201282 
L 98.530066 37.193738 
L 103.103652 30.545544 
L 104.933081 28.225763 
L 106.762517 26.409037 
L 107.677231 25.763204 
L 108.591946 25.297508 
L 109.506667 24.989944 
L 111.336096 24.722297 
L 114.080246 24.731508 
L 116.824396 24.689033 
L 124.086995 24.340528 
L 126.346216 24.478702 
L 127.475829 24.696197 
L 128.605443 25.027814 
L 130.864664 26.029316 
L 137.64234 29.786613 
L 141.031174 31.18063 
L 148.938457 34.119121 
L 153.456905 35.601672 
L 156.84574 36.468583 
L 159.104967 36.865704 
L 161.364188 37.08627 
L 163.623415 37.124651 
L 167.01225 36.904085 
L 170.401091 36.606756 
L 172.660312 36.628762 
L 174.919539 37.012065 
L 176.049146 37.332423 
L 176.049146 37.332423 
L 178.793297 37.241331 
L 181.537447 37.18555 
L 183.366876 36.880544 
L 186.111026 36.153342 
L 187.025747 36.127755 
L 187.940462 36.296633 
L 189.769891 36.958843 
L 193.428756 38.7203 
L 195.258191 39.587722 
L 196.172906 39.905521 
L 197.087627 39.958744 
L 198.002342 39.513518 
L 198.917056 38.639442 
L 200.746492 36.403078 
L 207.149507 27.800496 
L 211.723086 21.905603 
L 214.467236 18.666713 
L 217.211387 15.81215 
L 219.040816 14.26256 
L 219.95553 13.657155 
L 220.870251 13.214488 
L 221.784966 12.986246 
L 221.784966 12.986246 
L 223.052576 13.177642 
L 224.320186 13.784582 
L 225.587789 14.805019 
L 226.855399 16.198013 
L 228.123009 17.888848 
L 230.658229 21.863128 
L 236.996266 32.717427 
L 238.263877 34.429244 
L 239.531487 35.590413 
L 240.799097 36.084767 
L 242.066707 36.066856 
L 248.40475 34.755743 
L 250.939964 34.721455 
L 254.742794 35.051024 
L 258.545617 35.308437 
L 261.080837 35.178963 
L 263.616051 34.709173 
L 266.151271 33.912884 
L 269.954095 32.317235 
L 275.024528 30.128464 
L 277.559748 29.278441 
L 280.094968 28.699648 
L 282.630182 28.395666 
L 286.080116 28.30048 
L 288.824267 28.289221 
L 290.653696 28.525139 
L 292.483131 29.158691 
L 294.31256 30.183734 
L 296.141996 31.517876 
L 298.886146 33.924654 
L 305.289161 40.03653 
L 307.11859 41.306704 
L 308.033311 41.707407 
L 308.948026 41.899314 
L 309.862741 41.857862 
L 310.777455 41.582027 
L 311.692176 41.094837 
L 313.521605 39.637362 
L 315.351041 37.776625 
L 319.009906 33.589967 
L 322.66877 29.435038 
L 325.412921 26.688455 
L 327.24235 25.216139 
L 328.157071 24.642975 
L 329.071785 24.210031 
L 329.9865 23.938801 
L 330.901215 23.846174 
L 330.901215 23.846174 
L 332.252941 23.946478 
L 333.60466 24.241248 
L 334.956379 24.713597 
L 336.308099 25.339984 
L 339.011544 26.960196 
L 341.714983 28.931472 
L 345.770148 32.253266 
L 349.825313 35.563802 
L 351.177033 36.463465 
L 352.528759 37.034071 
L 353.880478 36.991083 
L 355.232198 36.191724 
L 356.583917 34.875493 
L 361.990801 28.698624 
L 363.342527 27.363458 
L 364.694247 26.258582 
L 366.045966 25.547756 
L 367.397686 25.477134 
L 368.749412 26.140367 
L 370.101131 27.31433 
L 372.80457 30.356195 
L 376.859735 35.449169 
L 378.211455 36.82374 
L 380.9149 38.030967 
L 382.26662 39.034005 
L 384.970065 41.744765 
L 387.673504 44.549688 
L 390.376949 46.996895 
L 391.728669 48.016308 
L 393.080388 48.874008 
L 394.432108 49.556176 
L 395.783834 50.051041 
L 397.135553 50.350929 
L 398.487273 50.451745 
L 398.487273 50.451745 
" clip-path="url(#p240ae1fde3)" style="fill: none; stroke: #008000; stroke-width: 1.5; stroke-linecap: square"/>
   </g>
   <g id="line2d_30">
    <path d="M 73.832727 21.891786 
L 75.662163 22.055036 
L 77.491592 22.556043 
L 79.321028 23.416813 
L 81.150457 24.654233 
L 82.979892 26.269328 
L 84.809322 28.248281 
L 86.638757 30.559873 
L 91.212336 36.850351 
L 92.127051 37.133863 
L 93.041772 36.673796 
L 94.871201 35.111411 
L 104.018366 26.666961 
L 109.506667 21.964455 
L 112.25081 19.965033 
L 114.080246 18.807446 
L 115.909682 17.860189 
L 117.739111 17.226126 
L 119.568547 17.000955 
L 119.568547 17.000955 
L 121.827767 17.15704 
L 124.086995 17.608406 
L 126.346216 18.302345 
L 134.253498 21.097544 
L 146.679236 24.771425 
L 154.586519 26.988343 
L 168.141864 30.619748 
L 172.660312 31.921138 
L 176.049146 32.64834 
L 176.049146 32.64834 
L 178.793297 32.974839 
L 182.452161 33.632955 
L 185.196312 34.154944 
L 186.111026 34.163643 
L 187.025747 33.938472 
L 187.940462 33.472264 
L 189.769891 32.107928 
L 192.514041 29.564512 
L 197.087627 24.839488 
L 204.405357 17.257855 
L 208.064221 13.801981 
L 210.808372 11.506254 
L 212.637801 10.196164 
L 214.467236 9.145533 
L 216.296665 8.455689 
L 217.211387 8.27811 
L 218.126101 8.221306 
L 219.95553 8.43573 
L 221.784966 8.864068 
L 221.784966 8.864068 
L 223.052576 8.888633 
L 225.587789 9.415227 
L 229.390619 10.32922 
L 233.193443 11.074845 
L 235.728663 11.444331 
L 238.263877 11.616281 
L 240.799097 11.476572 
L 243.33431 10.928995 
L 245.86953 10.006303 
L 248.40475 9.098963 
L 249.672354 8.924455 
L 250.939964 9.054953 
L 252.207574 9.455656 
L 254.742794 10.744764 
L 258.545617 13.183271 
L 266.151271 18.278292 
L 269.954095 20.539732 
L 272.489315 21.834981 
L 275.024528 22.906594 
L 277.559748 23.710048 
L 280.094968 24.221801 
L 282.630182 24.471025 
L 286.994831 24.557512 
L 288.824267 24.541648 
L 290.653696 24.299076 
L 292.483131 23.678831 
L 294.31256 22.699845 
L 296.141996 21.456795 
L 298.886146 19.272118 
L 303.459726 15.242057 
L 308.033311 11.290805 
L 310.777455 9.221784 
L 312.606891 8.072385 
L 314.436326 7.18091 
L 316.265756 6.61491 
L 318.095191 6.427097 
L 319.92462 6.630775 
L 321.754056 7.183981 
L 323.583485 7.993063 
L 328.157071 10.216634 
L 329.9865 10.705871 
L 330.901215 10.771887 
L 330.901215 10.771887 
L 333.60466 10.560532 
L 336.308099 10.018585 
L 341.714983 8.732548 
L 344.418429 8.350268 
L 347.121874 8.330821 
L 348.473594 8.489976 
L 349.825313 8.772464 
L 351.177033 9.182891 
L 352.528759 9.721256 
L 355.232198 11.16389 
L 357.935643 13.036909 
L 360.639082 15.244104 
L 364.694247 18.765482 
L 366.045966 19.717856 
L 367.397686 20.28232 
L 370.101131 20.579137 
L 371.452851 21.067862 
L 372.80457 22.066806 
L 374.156296 23.4598 
L 376.859735 26.577404 
L 378.211455 27.886982 
L 379.563181 28.716535 
L 380.9149 28.895137 
L 382.26662 28.503646 
L 383.618339 27.779514 
L 389.025223 24.38198 
L 391.728669 23.105666 
L 393.080388 22.638947 
L 394.432108 22.292489 
L 397.135553 21.932215 
L 398.487273 21.891786 
L 398.487273 21.891786 
" clip-path="url(#p240ae1fde3)" style="fill: none; stroke: #008000; stroke-width: 1.5; stroke-linecap: square"/>
   </g>
   <g id="line2d_31">
    <path d="M 73.832727 17.267067 
L 77.491592 17.414963 
L 86.638757 18.232234 
L 98.530066 19.446626 
L 102.188931 19.726556 
L 104.018366 19.709156 
L 105.847802 19.41848 
L 106.762517 19.098634 
L 107.677231 18.619632 
L 108.591946 17.966634 
L 110.421381 16.205177 
L 113.165532 12.927394 
L 116.824396 8.476159 
L 117.739111 7.633812 
L 118.653825 7.159928 
L 119.568547 7.03199 
L 119.568547 7.03199 
L 120.698154 7.196774 
L 121.827767 7.710575 
L 127.475829 11.524677 
L 129.73505 12.505197 
L 131.994278 13.106508 
L 134.253498 13.431472 
L 137.64234 13.618262 
L 152.327291 13.934014 
L 156.84574 14.344952 
L 162.493802 15.107465 
L 168.141864 15.916036 
L 170.401091 16.106409 
L 172.660312 16.101803 
L 174.919539 15.793727 
L 176.049146 15.493328 
L 176.049146 15.493328 
L 177.878582 15.198558 
L 179.708011 14.518948 
L 181.537447 13.514887 
L 183.366876 12.247273 
L 186.111026 9.977645 
L 189.769891 6.518189 
L 197.330595 -1 
M 235.546466 -1 
L 236.996266 -0.559367 
L 240.799097 0.829533 
L 245.86953 2.89753 
L 247.13714 3.298234 
L 248.40475 3.522382 
L 249.672354 3.468136 
L 250.939964 3.099161 
L 253.475184 1.804936 
L 254.742794 1.145285 
L 256.010397 0.611526 
L 257.278007 0.257392 
L 258.545617 0.098749 
L 259.813227 0.123824 
L 261.080837 0.304985 
L 263.616051 1.014788 
L 266.151271 2.021408 
L 271.221705 4.405157 
L 275.024528 6.167637 
L 277.559748 7.186028 
L 280.094968 7.988458 
L 282.630182 8.504305 
L 285.165402 8.682908 
L 285.165402 8.682908 
L 286.080116 8.624056 
L 287.909552 8.160407 
L 289.738981 7.272002 
L 291.568417 6.022299 
L 293.397846 4.486526 
L 296.141996 1.803401 
L 298.745648 -1 
M 361.047562 -1 
L 367.397686 8.31598 
L 368.749412 10.036496 
L 370.101131 11.422326 
L 371.452851 12.301007 
L 372.80457 12.6229 
L 374.156296 12.530785 
L 376.859735 11.84964 
L 379.563181 11.225812 
L 380.9149 11.084568 
L 382.26662 11.109133 
L 383.618339 11.325093 
L 384.970065 11.736543 
L 386.321785 12.321989 
L 389.025223 13.822451 
L 391.728669 15.373577 
L 393.080388 16.03681 
L 394.432108 16.572617 
L 395.783834 16.960014 
L 397.135553 17.190815 
L 398.487273 17.267067 
L 398.487273 17.267067 
" clip-path="url(#p240ae1fde3)" style="fill: none; stroke: #008000; stroke-width: 1.5; stroke-linecap: square"/>
   </g>
   <g id="line2d_32">
    <path d="M 73.832727 1.809542 
L 79.321028 1.926222 
L 85.724043 2.322831 
L 92.127051 2.953823 
L 98.530066 3.801799 
L 114.080246 6.056075 
L 115.909682 6.111344 
L 116.824396 6.049934 
L 117.739111 5.834486 
L 118.653825 5.384142 
L 119.568547 5.061226 
L 119.568547 5.061226 
L 122.957381 5.792522 
L 125.216602 5.744417 
L 127.475829 5.423547 
L 129.73505 4.859595 
L 131.994278 4.052047 
L 134.253498 3.000905 
L 136.512726 1.710261 
L 138.771947 0.186258 
L 140.328391 -1 
M 380.764776 -1 
L 382.26662 -0.111071 
L 383.618339 0.553186 
L 384.970065 1.067499 
L 386.321785 1.430332 
L 389.025223 1.793166 
L 391.728669 1.870952 
L 398.487273 1.809542 
L 398.487273 1.809542 
" clip-path="url(#p240ae1fde3)" style="fill: none; stroke: #008000; stroke-width: 1.5; stroke-linecap: square"/>
   </g>
   <g id="line2d_33">
    <path d="M 115.629298 -1 
L 117.739111 1.469737 
L 118.653825 2.384753 
L 119.568547 2.831514 
L 119.568547 2.831514 
L 120.698154 2.363259 
L 121.827767 1.374039 
L 124.056728 -1 
L 124.056728 -1 
" clip-path="url(#p240ae1fde3)" style="fill: none; stroke: #008000; stroke-width: 1.5; stroke-linecap: square"/>
   </g>
   <g id="line2d_34">
    <path d="M 0 0 
" clip-path="url(#p240ae1fde3)" style="fill: none; stroke: #008000; stroke-width: 1.5; stroke-linecap: square"/>
   </g>
   <g id="line2d_35">
    <path d="M 0 0 
" clip-path="url(#p240ae1fde3)" style="fill: none; stroke: #008000; stroke-width: 1.5; stroke-linecap: square"/>
   </g>
   <g id="line2d_36">
    <path d="M 0 0 
" clip-path="url(#p240ae1fde3)" style="fill: none; stroke: #008000; stroke-width: 1.5; stroke-linecap: square"/>
   </g>
   <g id="line2d_37">
    <path d="M 0 0 
" clip-path="url(#p240ae1fde3)" style="fill: none; stroke: #008000; stroke-width: 1.5; stroke-linecap: square"/>
   </g>
   <g id="line2d_38">
    <path d="M 0 0 
" clip-path="url(#p240ae1fde3)" style="fill: none; stroke: #008000; stroke-width: 1.5; stroke-linecap: square"/>
   </g>
   <g id="line2d_39">
    <path d="M 0 0 
" clip-path="url(#p240ae1fde3)" style="fill: none; stroke: #008000; stroke-width: 1.5; stroke-linecap: square"/>
   </g>
   <g id="line2d_40">
    <path d="M 0 0 
" clip-path="url(#p240ae1fde3)" style="fill: none; stroke: #008000; stroke-width: 1.5; stroke-linecap: square"/>
   </g>
   <g id="line2d_41">
    <path d="M 0 0 
" clip-path="url(#p240ae1fde3)" style="fill: none; stroke: #008000; stroke-width: 1.5; stroke-linecap: square"/>
   </g>
   <g id="line2d_42">
    <path d="M 0 0 
" clip-path="url(#p240ae1fde3)" style="fill: none; stroke: #008000; stroke-width: 1.5; stroke-linecap: square"/>
   </g>
   <g id="line2d_43">
    <path d="M 0 0 
" clip-path="url(#p240ae1fde3)" style="fill: none; stroke: #008000; stroke-width: 1.5; stroke-linecap: square"/>
   </g>
   <g id="line2d_44">
    <path d="M 0 0 
" clip-path="url(#p240ae1fde3)" style="fill: none; stroke: #008000; stroke-width: 1.5; stroke-linecap: square"/>
   </g>
   <g id="line2d_45">
    <path d="M 0 0 
" clip-path="url(#p240ae1fde3)" style="fill: none; stroke: #008000; stroke-width: 1.5; stroke-linecap: square"/>
   </g>
   <g id="line2d_46">
    <path d="M 0 0 
" clip-path="url(#p240ae1fde3)" style="fill: none; stroke: #008000; stroke-width: 1.5; stroke-linecap: square"/>
   </g>
   <g id="line2d_47">
    <path d="M 0 0 
" clip-path="url(#p240ae1fde3)" style="fill: none; stroke: #008000; stroke-width: 1.5; stroke-linecap: square"/>
   </g>
   <g id="line2d_48">
    <path d="M 0 0 
" clip-path="url(#p240ae1fde3)" style="fill: none; stroke: #008000; stroke-width: 1.5; stroke-linecap: square"/>
   </g>
   <g id="line2d_49">
    <path d="M 0 0 
" clip-path="url(#p240ae1fde3)" style="fill: none; stroke: #008000; stroke-width: 1.5; stroke-linecap: square"/>
   </g>
   <g id="line2d_50">
    <path d="M 0 0 
" clip-path="url(#p240ae1fde3)" style="fill: none; stroke: #008000; stroke-width: 1.5; stroke-linecap: square"/>
   </g>
   <g id="line2d_51">
    <path d="M 0 0 
" clip-path="url(#p240ae1fde3)" style="fill: none; stroke: #008000; stroke-width: 1.5; stroke-linecap: square"/>
   </g>
   <g id="line2d_52">
    <path d="M 0 0 
" clip-path="url(#p240ae1fde3)" style="fill: none; stroke: #008000; stroke-width: 1.5; stroke-linecap: square"/>
   </g>
   <g id="line2d_53">
    <path d="M 0 0 
" clip-path="url(#p240ae1fde3)" style="fill: none; stroke: #008000; stroke-width: 1.5; stroke-linecap: square"/>
   </g>
   <g id="line2d_54">
    <path d="M 0 0 
" clip-path="url(#p240ae1fde3)" style="fill: none; stroke: #008000; stroke-width: 1.5; stroke-linecap: square"/>
   </g>
   <g id="line2d_55">
    <path d="M 0 0 
" clip-path="url(#p240ae1fde3)" style="fill: none; stroke: #008000; stroke-width: 1.5; stroke-linecap: square"/>
   </g>
   <g id="line2d_56">
    <path d="M 0 0 
" clip-path="url(#p240ae1fde3)" style="fill: none; stroke: #008000; stroke-width: 1.5; stroke-linecap: square"/>
   </g>
   <g id="line2d_57">
    <path d="M 0 0 
" clip-path="url(#p240ae1fde3)" style="fill: none; stroke: #008000; stroke-width: 1.5; stroke-linecap: square"/>
   </g>
   <g id="line2d_58">
    <path d="M 0 0 
" clip-path="url(#p240ae1fde3)" style="fill: none; stroke: #008000; stroke-width: 1.5; stroke-linecap: square"/>
   </g>
   <g id="line2d_59">
    <path d="M 0 0 
" clip-path="url(#p240ae1fde3)" style="fill: none; stroke: #008000; stroke-width: 1.5; stroke-linecap: square"/>
   </g>
   <g id="line2d_60">
    <path d="M 0 0 
" clip-path="url(#p240ae1fde3)" style="fill: none; stroke: #008000; stroke-width: 1.5; stroke-linecap: square"/>
   </g>
   <g id="patch_3">
    <path d="M 57.6 307.584 
L 57.6 41.472 
" style="fill: none; stroke: #000000; stroke-width: 0.8; stroke-linejoin: miter; stroke-linecap: square"/>
   </g>
   <g id="patch_4">
    <path d="M 414.72 307.584 
L 414.72 41.472 
" style="fill: none; stroke: #000000; stroke-width: 0.8; stroke-linejoin: miter; stroke-linecap: square"/>
   </g>
   <g id="patch_5">
    <path d="M 57.6 307.584 
L 414.72 307.584 
" style="fill: none; stroke: #000000; stroke-width: 0.8; stroke-linejoin: miter; stroke-linecap: square"/>
   </g>
   <g id="patch_6">
    <path d="M 57.6 41.472 
L 414.72 41.472 
" style="fill: none; stroke: #000000; stroke-width: 0.8; stroke-linejoin: miter; stroke-linecap: square"/>
   </g>
  </g>
 </g>
 <defs>
  <clipPath id="p240ae1fde3">
   <rect x="57.6" y="41.472" width="357.12" height="266.112"/>
  </clipPath>
 </defs>
</svg>
