<?xml version="1.0" encoding="utf-8" standalone="no"?>
<!DOCTYPE svg PUBLIC "-//W3C//DTD SVG 1.1//EN"
  "http://www.w3.org/Graphics/SVG/1.1/DTD/svg11.dtd">
<svg xmlns:xlink="http://www.w3.org/1999/xlink" width="460.8pt" height="345.6pt" viewBox="0 0 460.8 345.6" xmlns="http://www.w3.org/2000/svg" version="1.1">
 <metadata>
  <rdf:RDF xmlns:dc="http://purl.org/dc/elements/1.1/" xmlns:cc="http://creativecommons.org/ns#" xmlns:rdf="http://www.w3.org/1999/02/22-rdf-syntax-ns#">
   <cc:Work>
    <dc:type rdf:resource="http://purl.org/dc/dcmitype/StillImage"/>
    <dc:date>2024-08-07T16:39:30.105508</dc:date>
    <dc:format>image/svg+xml</dc:format>
    <dc:creator>
     <cc:Agent>
      <dc:title>Matplotlib v3.9.1.post1, https://matplotlib.org/</dc:title>
     </cc:Agent>
    </dc:creator>
   </cc:Work>
  </rdf:RDF>
 </metadata>
 <defs>
  <style type="text/css">*{stroke-linejoin: round; stroke-linecap: butt}</style>
 </defs>
 <g id="figure_1">
  <g id="patch_1">
   <path d="M 0 345.6 
L 460.8 345.6 
L 460.8 0 
L 0 0 
z
" style="fill: #ffffff"/>
  </g>
  <g id="axes_1">
   <g id="patch_2">
    <path d="M 57.6 307.584 
L 414.72 307.584 
L 414.72 41.472 
L 57.6 41.472 
z
" style="fill: #ffffff"/>
   </g>
   <g id="matplotlib.axis_1">
    <g id="xtick_1">
     <g id="line2d_1">
      <defs>
       <path id="m5fc617fa36" d="M 0 0 
L 0 3.5 
" style="stroke: #000000; stroke-width: 0.8"/>
      </defs>
      <g>
       <use xlink:href="#m5fc617fa36" x="73.832727" y="307.584" style="stroke: #000000; stroke-width: 0.8"/>
      </g>
     </g>
     <g id="text_1">
      <!-- 0.0 -->
      <g transform="translate(65.881165 322.182437) scale(0.1 -0.1)">
       <defs>
        <path id="DejaVuSans-30" d="M 2034 4250 
Q 1547 4250 1301 3770 
Q 1056 3291 1056 2328 
Q 1056 1369 1301 889 
Q 1547 409 2034 409 
Q 2525 409 2770 889 
Q 3016 1369 3016 2328 
Q 3016 3291 2770 3770 
Q 2525 4250 2034 4250 
z
M 2034 4750 
Q 2819 4750 3233 4129 
Q 3647 3509 3647 2328 
Q 3647 1150 3233 529 
Q 2819 -91 2034 -91 
Q 1250 -91 836 529 
Q 422 1150 422 2328 
Q 422 3509 836 4129 
Q 1250 4750 2034 4750 
z
" transform="scale(0.015625)"/>
        <path id="DejaVuSans-2e" d="M 684 794 
L 1344 794 
L 1344 0 
L 684 0 
L 684 794 
z
" transform="scale(0.015625)"/>
       </defs>
       <use xlink:href="#DejaVuSans-30"/>
       <use xlink:href="#DejaVuSans-2e" x="63.623047"/>
       <use xlink:href="#DejaVuSans-30" x="95.410156"/>
      </g>
     </g>
    </g>
    <g id="xtick_2">
     <g id="line2d_2">
      <g>
       <use xlink:href="#m5fc617fa36" x="140.008494" y="307.584" style="stroke: #000000; stroke-width: 0.8"/>
      </g>
     </g>
     <g id="text_2">
      <!-- 0.1 -->
      <g transform="translate(132.056931 322.182437) scale(0.1 -0.1)">
       <defs>
        <path id="DejaVuSans-31" d="M 794 531 
L 1825 531 
L 1825 4091 
L 703 3866 
L 703 4441 
L 1819 4666 
L 2450 4666 
L 2450 531 
L 3481 531 
L 3481 0 
L 794 0 
L 794 531 
z
" transform="scale(0.015625)"/>
       </defs>
       <use xlink:href="#DejaVuSans-30"/>
       <use xlink:href="#DejaVuSans-2e" x="63.623047"/>
       <use xlink:href="#DejaVuSans-31" x="95.410156"/>
      </g>
     </g>
    </g>
    <g id="xtick_3">
     <g id="line2d_3">
      <g>
       <use xlink:href="#m5fc617fa36" x="206.18426" y="307.584" style="stroke: #000000; stroke-width: 0.8"/>
      </g>
     </g>
     <g id="text_3">
      <!-- 0.2 -->
      <g transform="translate(198.232698 322.182437) scale(0.1 -0.1)">
       <defs>
        <path id="DejaVuSans-32" d="M 1228 531 
L 3431 531 
L 3431 0 
L 469 0 
L 469 531 
Q 828 903 1448 1529 
Q 2069 2156 2228 2338 
Q 2531 2678 2651 2914 
Q 2772 3150 2772 3378 
Q 2772 3750 2511 3984 
Q 2250 4219 1831 4219 
Q 1534 4219 1204 4116 
Q 875 4013 500 3803 
L 500 4441 
Q 881 4594 1212 4672 
Q 1544 4750 1819 4750 
Q 2544 4750 2975 4387 
Q 3406 4025 3406 3419 
Q 3406 3131 3298 2873 
Q 3191 2616 2906 2266 
Q 2828 2175 2409 1742 
Q 1991 1309 1228 531 
z
" transform="scale(0.015625)"/>
       </defs>
       <use xlink:href="#DejaVuSans-30"/>
       <use xlink:href="#DejaVuSans-2e" x="63.623047"/>
       <use xlink:href="#DejaVuSans-32" x="95.410156"/>
      </g>
     </g>
    </g>
    <g id="xtick_4">
     <g id="line2d_4">
      <g>
       <use xlink:href="#m5fc617fa36" x="272.360027" y="307.584" style="stroke: #000000; stroke-width: 0.8"/>
      </g>
     </g>
     <g id="text_4">
      <!-- 0.3 -->
      <g transform="translate(264.408465 322.182437) scale(0.1 -0.1)">
       <defs>
        <path id="DejaVuSans-33" d="M 2597 2516 
Q 3050 2419 3304 2112 
Q 3559 1806 3559 1356 
Q 3559 666 3084 287 
Q 2609 -91 1734 -91 
Q 1441 -91 1130 -33 
Q 819 25 488 141 
L 488 750 
Q 750 597 1062 519 
Q 1375 441 1716 441 
Q 2309 441 2620 675 
Q 2931 909 2931 1356 
Q 2931 1769 2642 2001 
Q 2353 2234 1838 2234 
L 1294 2234 
L 1294 2753 
L 1863 2753 
Q 2328 2753 2575 2939 
Q 2822 3125 2822 3475 
Q 2822 3834 2567 4026 
Q 2313 4219 1838 4219 
Q 1578 4219 1281 4162 
Q 984 4106 628 3988 
L 628 4550 
Q 988 4650 1302 4700 
Q 1616 4750 1894 4750 
Q 2613 4750 3031 4423 
Q 3450 4097 3450 3541 
Q 3450 3153 3228 2886 
Q 3006 2619 2597 2516 
z
" transform="scale(0.015625)"/>
       </defs>
       <use xlink:href="#DejaVuSans-30"/>
       <use xlink:href="#DejaVuSans-2e" x="63.623047"/>
       <use xlink:href="#DejaVuSans-33" x="95.410156"/>
      </g>
     </g>
    </g>
    <g id="xtick_5">
     <g id="line2d_5">
      <g>
       <use xlink:href="#m5fc617fa36" x="338.535794" y="307.584" style="stroke: #000000; stroke-width: 0.8"/>
      </g>
     </g>
     <g id="text_5">
      <!-- 0.4 -->
      <g transform="translate(330.584231 322.182437) scale(0.1 -0.1)">
       <defs>
        <path id="DejaVuSans-34" d="M 2419 4116 
L 825 1625 
L 2419 1625 
L 2419 4116 
z
M 2253 4666 
L 3047 4666 
L 3047 1625 
L 3713 1625 
L 3713 1100 
L 3047 1100 
L 3047 0 
L 2419 0 
L 2419 1100 
L 313 1100 
L 313 1709 
L 2253 4666 
z
" transform="scale(0.015625)"/>
       </defs>
       <use xlink:href="#DejaVuSans-30"/>
       <use xlink:href="#DejaVuSans-2e" x="63.623047"/>
       <use xlink:href="#DejaVuSans-34" x="95.410156"/>
      </g>
     </g>
    </g>
    <g id="xtick_6">
     <g id="line2d_6">
      <g>
       <use xlink:href="#m5fc617fa36" x="404.71156" y="307.584" style="stroke: #000000; stroke-width: 0.8"/>
      </g>
     </g>
     <g id="text_6">
      <!-- 0.5 -->
      <g transform="translate(396.759998 322.182437) scale(0.1 -0.1)">
       <defs>
        <path id="DejaVuSans-35" d="M 691 4666 
L 3169 4666 
L 3169 4134 
L 1269 4134 
L 1269 2991 
Q 1406 3038 1543 3061 
Q 1681 3084 1819 3084 
Q 2600 3084 3056 2656 
Q 3513 2228 3513 1497 
Q 3513 744 3044 326 
Q 2575 -91 1722 -91 
Q 1428 -91 1123 -41 
Q 819 9 494 109 
L 494 744 
Q 775 591 1075 516 
Q 1375 441 1709 441 
Q 2250 441 2565 725 
Q 2881 1009 2881 1497 
Q 2881 1984 2565 2268 
Q 2250 2553 1709 2553 
Q 1456 2553 1204 2497 
Q 953 2441 691 2322 
L 691 4666 
z
" transform="scale(0.015625)"/>
       </defs>
       <use xlink:href="#DejaVuSans-30"/>
       <use xlink:href="#DejaVuSans-2e" x="63.623047"/>
       <use xlink:href="#DejaVuSans-35" x="95.410156"/>
      </g>
     </g>
    </g>
   </g>
   <g id="matplotlib.axis_2">
    <g id="ytick_1">
     <g id="line2d_7">
      <defs>
       <path id="maf8fc7f64b" d="M 0 0 
L -3.5 0 
" style="stroke: #000000; stroke-width: 0.8"/>
      </defs>
      <g>
       <use xlink:href="#maf8fc7f64b" x="57.6" y="307.584" style="stroke: #000000; stroke-width: 0.8"/>
      </g>
     </g>
     <g id="text_7">
      <!-- 0 -->
      <g transform="translate(44.2375 311.383219) scale(0.1 -0.1)">
       <use xlink:href="#DejaVuSans-30"/>
      </g>
     </g>
    </g>
    <g id="ytick_2">
     <g id="line2d_8">
      <g>
       <use xlink:href="#maf8fc7f64b" x="57.6" y="254.3616" style="stroke: #000000; stroke-width: 0.8"/>
      </g>
     </g>
     <g id="text_8">
      <!-- 1 -->
      <g transform="translate(44.2375 258.160819) scale(0.1 -0.1)">
       <use xlink:href="#DejaVuSans-31"/>
      </g>
     </g>
    </g>
    <g id="ytick_3">
     <g id="line2d_9">
      <g>
       <use xlink:href="#maf8fc7f64b" x="57.6" y="201.1392" style="stroke: #000000; stroke-width: 0.8"/>
      </g>
     </g>
     <g id="text_9">
      <!-- 2 -->
      <g transform="translate(44.2375 204.938419) scale(0.1 -0.1)">
       <use xlink:href="#DejaVuSans-32"/>
      </g>
     </g>
    </g>
    <g id="ytick_4">
     <g id="line2d_10">
      <g>
       <use xlink:href="#maf8fc7f64b" x="57.6" y="147.9168" style="stroke: #000000; stroke-width: 0.8"/>
      </g>
     </g>
     <g id="text_10">
      <!-- 3 -->
      <g transform="translate(44.2375 151.716019) scale(0.1 -0.1)">
       <use xlink:href="#DejaVuSans-33"/>
      </g>
     </g>
    </g>
    <g id="ytick_5">
     <g id="line2d_11">
      <g>
       <use xlink:href="#maf8fc7f64b" x="57.6" y="94.6944" style="stroke: #000000; stroke-width: 0.8"/>
      </g>
     </g>
     <g id="text_11">
      <!-- 4 -->
      <g transform="translate(44.2375 98.493619) scale(0.1 -0.1)">
       <use xlink:href="#DejaVuSans-34"/>
      </g>
     </g>
    </g>
    <g id="ytick_6">
     <g id="line2d_12">
      <g>
       <use xlink:href="#maf8fc7f64b" x="57.6" y="41.472" style="stroke: #000000; stroke-width: 0.8"/>
      </g>
     </g>
     <g id="text_12">
      <!-- 5 -->
      <g transform="translate(44.2375 45.271219) scale(0.1 -0.1)">
       <use xlink:href="#DejaVuSans-35"/>
      </g>
     </g>
    </g>
   </g>
   <g id="line2d_13">
    <path d="M 0 0 
" clip-path="url(#p8168de0c3e)" style="fill: none; stroke: #1f77b4; stroke-width: 1.5; stroke-linecap: square"/>
   </g>
   <g id="line2d_14">
    <path d="M 0 0 
" clip-path="url(#p8168de0c3e)" style="fill: none; stroke: #ff7f0e; stroke-width: 1.5; stroke-linecap: square"/>
   </g>
   <g id="line2d_15">
    <path d="M 0 0 
" clip-path="url(#p8168de0c3e)" style="fill: none; stroke: #2ca02c; stroke-width: 1.5; stroke-linecap: square"/>
   </g>
   <g id="line2d_16">
    <path d="M 73.832727 310.102484 
L 74.747442 310.556471 
L 75.662163 311.622516 
L 77.491592 314.385823 
L 81.150457 320.514382 
L 85.724043 328.623347 
L 88.468186 333.875333 
L 90.297622 337.685525 
L 92.127051 341.873063 
L 93.979418 346.6 
M 144.554274 346.6 
L 145.549622 343.031183 
L 146.679236 338.307163 
L 147.808843 332.588948 
L 148.938457 325.018062 
L 150.068071 303.57795 
L 151.197684 289.412276 
L 152.327291 282.417256 
L 153.456905 277.25628 
L 154.586519 273.185831 
L 155.716133 269.932345 
L 156.84574 267.364365 
L 157.975353 265.403119 
L 159.104967 263.989532 
L 160.234581 263.07251 
L 161.364188 262.605218 
L 162.493802 262.54827 
L 163.623415 262.87133 
L 164.753029 263.552576 
L 165.882643 264.580301 
L 167.01225 265.95131 
L 168.141864 267.673587 
L 169.271477 269.766291 
L 170.401091 272.265615 
L 171.530698 275.232764 
L 172.660312 278.777376 
L 173.789926 283.107018 
L 174.919539 288.705482 
L 176.049146 297.407345 
L 176.049146 297.407345 
L 176.963868 290.898778 
L 177.878582 286.604794 
L 178.793297 283.347051 
L 179.708011 280.774813 
L 180.622732 278.736395 
L 181.537447 277.159947 
L 182.452161 276.01673 
L 183.366876 275.306211 
L 184.281597 275.049147 
L 185.196312 275.287051 
L 186.111026 276.084855 
L 187.025747 277.535697 
L 187.940462 279.779554 
L 188.855176 283.051135 
L 189.769891 287.84328 
L 190.684612 295.818124 
L 191.599327 319.7863 
L 192.514041 329.228486 
L 193.428756 336.15272 
L 195.133405 346.6 
M 261.002848 346.6 
L 268.686484 321.924243 
L 269.954095 316.967109 
L 271.221705 303.30279 
L 272.489315 296.737807 
L 273.756925 293.017561 
L 275.024528 290.184533 
L 276.292138 287.861375 
L 277.559748 285.908645 
L 278.827358 284.270992 
L 280.094968 282.926594 
L 281.362572 281.872259 
L 282.630182 281.11171 
L 283.897792 280.651337 
L 285.165402 280.497524 
L 285.165402 280.497524 
L 286.080116 280.564052 
L 286.994831 280.765765 
L 287.909552 281.110114 
L 288.824267 281.609872 
L 289.738981 282.287393 
L 290.653696 283.175143 
L 291.568417 284.326343 
L 292.483131 285.827215 
L 293.397846 287.825184 
L 294.31256 290.600732 
L 295.227282 294.828187 
L 296.141996 304.769599 
L 297.056711 321.037558 
L 297.971432 327.766999 
L 299.800861 338.747312 
L 301.295173 346.6 
M 370.457218 346.6 
L 371.452851 343.148272 
L 372.80457 337.874465 
L 374.156296 331.626155 
L 375.508016 323.28514 
L 376.859735 298.83477 
L 378.211455 287.824652 
L 379.563181 281.23838 
L 380.9149 276.182784 
L 382.26662 272.025582 
L 383.618339 268.510775 
L 384.970065 265.518612 
L 386.321785 263.003853 
L 387.673504 260.991514 
L 389.025223 259.615715 
L 390.376949 259.191533 
L 391.728669 260.113345 
L 393.080388 262.689309 
L 394.432108 267.563949 
L 395.783834 276.118917 
L 397.135553 289.842845 
L 398.487273 310.102484 
L 398.487273 310.102484 
" clip-path="url(#p8168de0c3e)" style="fill: none; stroke: #d62728; stroke-width: 1.5; stroke-linecap: square"/>
   </g>
   <g id="line2d_17">
    <path d="M 73.832727 250.324681 
L 75.662163 250.475833 
L 77.491592 250.939932 
L 79.321028 251.750509 
L 81.150457 252.967173 
L 82.979892 254.680402 
L 83.894607 255.761349 
L 84.809322 257.016333 
L 85.724043 258.466644 
L 86.638757 260.134634 
L 87.553472 262.042657 
L 88.468186 264.214663 
L 90.297622 269.444828 
L 92.127051 276.034826 
L 93.041772 279.948801 
L 93.956487 284.416822 
L 94.871201 289.740126 
L 95.785922 297.020418 
L 96.700637 316.657355 
L 97.615351 323.813106 
L 98.530066 328.385443 
L 99.444787 331.913556 
L 100.359502 334.840788 
L 102.188931 339.62282 
L 104.018366 343.537328 
L 105.681114 346.6 
M 127.856012 346.6 
L 128.605443 343.770974 
L 129.73505 338.889416 
L 130.864664 333.166943 
L 131.994278 325.906876 
L 133.123891 312.590631 
L 134.253498 290.948807 
L 135.383112 283.728656 
L 136.512726 278.404819 
L 137.64234 274.068258 
L 138.771947 270.377285 
L 139.90156 267.158926 
L 142.160788 261.757385 
L 144.420009 257.364408 
L 146.679236 253.69153 
L 148.938457 250.523201 
L 153.456905 244.865127 
L 155.716133 241.909155 
L 157.975353 238.607237 
L 161.364188 233.057206 
L 165.882643 225.588506 
L 168.141864 222.286588 
L 169.271477 220.836278 
L 170.401091 219.571182 
L 171.530698 218.539199 
L 172.660312 217.777587 
L 173.789926 217.289537 
L 174.919539 217.037795 
L 176.049146 216.965945 
L 176.049146 216.965945 
L 176.963868 217.418868 
L 177.878582 218.049553 
L 178.793297 218.846292 
L 180.622732 220.858631 
L 182.452161 223.263752 
L 187.025747 229.514723 
L 188.855176 231.491935 
L 190.684612 232.942245 
L 192.514041 233.889604 
L 194.343477 234.447907 
L 196.172906 234.752339 
L 198.917056 234.95831 
L 206.234786 235.143524 
L 211.723086 235.102542 
L 217.211387 234.800771 
L 221.784966 234.498468 
L 221.784966 234.498468 
L 223.052576 234.69273 
L 224.320186 235.177054 
L 225.587789 235.936005 
L 226.855399 236.938715 
L 228.123009 238.144735 
L 230.658229 241.019809 
L 233.193443 244.324388 
L 236.996266 249.774894 
L 242.066707 257.541106 
L 248.40475 267.326577 
L 250.939964 270.971247 
L 253.475184 274.211959 
L 254.742794 275.594144 
L 256.010397 276.75386 
L 257.278007 277.630433 
L 258.545617 278.152545 
L 259.813227 278.241959 
L 261.080837 277.820969 
L 262.348441 276.826775 
L 263.616051 275.24128 
L 264.883661 273.117706 
L 267.418881 267.848688 
L 269.954095 262.401376 
L 271.221705 259.928663 
L 272.489315 257.703967 
L 273.756925 255.751237 
L 275.024528 254.075796 
L 276.292138 252.670724 
L 277.559748 251.521121 
L 278.827358 250.60676 
L 280.094968 249.90316 
L 281.362572 249.387967 
L 282.630182 249.037763 
L 283.897792 248.835518 
L 285.165402 248.769522 
L 285.165402 248.769522 
L 286.080116 248.89087 
L 286.994831 249.254911 
L 287.909552 249.861114 
L 288.824267 250.708947 
L 289.738981 251.796813 
L 290.653696 253.121518 
L 292.483131 256.450579 
L 294.31256 260.559881 
L 297.971432 269.536371 
L 299.800861 273.310371 
L 301.630297 276.316904 
L 303.459726 278.669867 
L 305.289161 280.461865 
L 306.203876 281.153224 
L 307.11859 281.703011 
L 308.033311 282.105373 
L 308.948026 282.352857 
L 309.862741 282.440674 
L 310.777455 282.364566 
L 311.692176 282.124533 
L 312.606891 281.7243 
L 313.521605 281.171852 
L 315.351041 279.653949 
L 317.18047 277.68951 
L 319.92462 274.228457 
L 323.583485 269.500179 
L 325.412921 267.460697 
L 327.24235 265.85551 
L 328.157071 265.261015 
L 329.071785 264.825124 
L 329.9865 264.559012 
L 330.901215 264.469598 
L 330.901215 264.469598 
L 332.252941 264.616492 
L 333.60466 265.051319 
L 334.956379 265.758113 
L 336.308099 266.710261 
L 337.659825 267.871042 
L 340.363264 270.631688 
L 344.418429 274.98049 
L 345.770148 276.206734 
L 347.121874 277.192945 
L 348.473594 277.864612 
L 349.825313 278.159464 
L 351.177033 278.032795 
L 352.528759 277.467041 
L 353.880478 276.473911 
L 355.232198 275.089596 
L 356.583917 273.368916 
L 357.935643 271.378398 
L 360.639082 266.868332 
L 364.694247 259.795607 
L 367.397686 255.563894 
L 368.749412 253.734108 
L 370.101131 252.139033 
L 371.452851 250.799957 
L 372.80457 249.726993 
L 374.156296 248.921738 
L 375.508016 248.375677 
L 376.859735 248.072841 
L 378.211455 247.990879 
L 379.563181 248.105307 
L 380.9149 248.388982 
L 383.618339 249.356566 
L 386.321785 250.679674 
L 389.025223 251.988945 
L 390.376949 252.288588 
L 391.728669 252.116147 
L 395.783834 250.677013 
L 397.135553 250.41303 
L 398.487273 250.324681 
L 398.487273 250.324681 
" clip-path="url(#p8168de0c3e)" style="fill: none; stroke: #9467bd; stroke-width: 1.5; stroke-linecap: square"/>
   </g>
   <g id="line2d_18">
    <path d="M 73.832727 209.833611 
L 74.747442 209.949636 
L 75.662163 210.291324 
L 76.576877 210.844305 
L 77.491592 211.587822 
L 79.321028 213.556518 
L 81.150457 216.019119 
L 83.894607 220.292877 
L 89.382907 229.104378 
L 91.212336 231.679278 
L 93.041772 233.982743 
L 94.871201 236.031273 
L 97.615351 238.700909 
L 100.359502 240.980424 
L 103.103652 242.914526 
L 105.847802 244.496296 
L 107.677231 245.345193 
L 109.506667 246.028037 
L 112.25081 246.762506 
L 114.994961 247.201591 
L 117.739111 247.411287 
L 119.568547 247.448542 
L 119.568547 247.448542 
L 120.698154 246.075937 
L 121.827767 242.395076 
L 124.086995 232.881039 
L 125.216602 229.219338 
L 126.346216 226.624746 
L 127.475829 224.773139 
L 128.605443 223.355826 
L 130.864664 221.120486 
L 134.253498 218.236364 
L 138.771947 214.66727 
L 141.031174 213.123288 
L 143.290395 211.871497 
L 145.549622 210.973635 
L 147.808843 210.42917 
L 150.068071 210.186476 
L 152.327291 210.17317 
L 155.716133 210.441943 
L 160.234581 211.082741 
L 165.882643 211.890657 
L 168.141864 212.024245 
L 169.271477 211.984328 
L 170.401091 211.827322 
L 171.530698 211.510117 
L 172.660312 210.997585 
L 173.789926 210.289727 
L 176.049146 208.467392 
L 176.049146 208.467392 
L 177.878582 208.851126 
L 179.708011 209.011325 
L 183.366876 209.003342 
L 190.684612 208.918186 
L 195.258191 209.106061 
L 198.002342 209.41688 
L 200.746492 209.967732 
L 203.490635 210.805452 
L 206.234786 211.891721 
L 211.723086 214.202106 
L 214.467236 215.05739 
L 216.296665 215.411319 
L 218.126101 215.559277 
L 219.95553 215.487427 
L 221.784966 215.198429 
L 221.784966 215.198429 
L 223.052576 215.536391 
L 224.320186 215.627934 
L 225.587789 215.496475 
L 226.855399 215.184591 
L 229.390619 214.232975 
L 233.193443 212.682606 
L 235.728663 211.858191 
L 244.60192 209.389736 
L 249.672354 207.496616 
L 253.475184 206.117091 
L 256.010397 205.422007 
L 258.545617 204.994631 
L 261.080837 204.824319 
L 269.954095 204.658265 
L 272.489315 204.250049 
L 275.024528 203.600204 
L 282.630182 201.309512 
L 283.897792 201.127491 
L 286.080116 201.121637 
L 287.909552 201.54369 
L 289.738981 202.257935 
L 294.31256 204.47039 
L 303.459726 209.050178 
L 314.436326 214.986604 
L 317.18047 216.087243 
L 319.92462 216.905804 
L 322.66877 217.431109 
L 325.412921 217.688173 
L 329.071785 217.753637 
L 332.252941 217.782909 
L 337.659825 218.030393 
L 340.363264 217.737138 
L 343.066709 217.001072 
L 345.770148 215.862645 
L 348.473594 214.42564 
L 357.935643 208.989504 
L 360.639082 207.81595 
L 363.342527 206.886155 
L 368.749412 205.406572 
L 372.80457 204.213858 
L 378.211455 202.313286 
L 382.26662 200.94547 
L 384.970065 200.223775 
L 387.673504 199.738919 
L 389.025223 199.616507 
L 390.376949 199.612249 
L 391.728669 199.802253 
L 393.080388 200.385571 
L 394.432108 201.868879 
L 395.783834 204.85093 
L 397.135553 208.306128 
L 398.487273 209.833611 
L 398.487273 209.833611 
" clip-path="url(#p8168de0c3e)" style="fill: none; stroke: #8c564b; stroke-width: 1.5; stroke-linecap: square"/>
   </g>
   <g id="line2d_19">
    <path d="M 73.832727 195.815363 
L 75.662163 195.660486 
L 77.491592 195.261318 
L 82.065171 194.085635 
L 83.894607 193.822184 
L 85.724043 193.784929 
L 87.553472 194.031881 
L 89.382907 194.613069 
L 91.212336 195.563089 
L 93.041772 196.882472 
L 94.871201 198.529174 
L 97.615351 201.422343 
L 103.103652 207.430088 
L 105.847802 209.990617 
L 107.677231 211.433477 
L 109.506667 212.651205 
L 111.336096 213.644335 
L 113.165532 214.421382 
L 114.994961 214.991926 
L 116.824396 215.365548 
L 118.653825 215.550761 
L 119.568547 215.573647 
L 120.698154 215.297423 
L 121.827767 214.421914 
L 122.957381 212.827371 
L 124.086995 210.435557 
L 127.475829 201.43831 
L 128.605443 199.074703 
L 129.73505 197.211387 
L 130.864664 195.779704 
L 131.994278 194.692903 
L 133.123891 193.866891 
L 135.383112 192.71303 
L 141.031174 190.429789 
L 143.290395 189.100825 
L 145.549622 187.404627 
L 151.197684 182.763634 
L 152.327291 182.168608 
L 153.456905 181.818404 
L 154.586519 181.728458 
L 155.716133 181.871095 
L 156.84574 182.197348 
L 159.104967 183.185156 
L 164.753029 186.019248 
L 167.01225 186.944254 
L 169.271477 187.678723 
L 171.530698 188.221059 
L 173.789926 188.589358 
L 177.878582 189.144468 
L 180.622732 189.435594 
L 183.366876 189.488284 
L 186.111026 189.341923 
L 189.769891 188.931046 
L 195.258191 188.242348 
L 198.002342 188.159853 
L 199.831771 188.315263 
L 202.575921 188.840036 
L 205.320071 189.403129 
L 207.149507 189.611228 
L 208.978936 189.621873 
L 210.808372 189.430272 
L 212.637801 189.056651 
L 215.381951 188.219995 
L 218.126101 187.143305 
L 221.784966 185.507781 
L 221.784966 185.507781 
L 225.587789 188.704318 
L 226.855399 189.596858 
L 228.123009 190.332392 
L 229.390619 190.876325 
L 230.658229 191.200981 
L 231.925833 191.286669 
L 233.193443 191.128067 
L 234.461053 190.734753 
L 235.728663 190.133872 
L 238.263877 188.4893 
L 242.066707 185.843082 
L 243.33431 185.167158 
L 244.60192 184.670593 
L 245.86953 184.366161 
L 247.13714 184.24162 
L 249.672354 184.399159 
L 256.010397 185.27307 
L 258.545617 185.227831 
L 261.080837 184.881353 
L 266.151271 183.888223 
L 267.418881 183.767409 
L 268.686484 183.780182 
L 269.954095 183.962203 
L 271.221705 184.326776 
L 272.489315 184.859 
L 275.024528 186.265668 
L 278.827358 188.547312 
L 281.362572 189.749074 
L 282.630182 190.165273 
L 283.897792 190.426063 
L 285.165402 190.514945 
L 286.080116 190.447352 
L 287.909552 189.942271 
L 289.738981 189.082198 
L 294.31256 186.682399 
L 295.227282 186.38329 
L 296.141996 186.230009 
L 297.056711 186.252895 
L 297.971432 186.454075 
L 299.800861 187.246557 
L 304.374447 189.68574 
L 306.203876 190.440433 
L 308.033311 191.008316 
L 310.777455 191.5597 
L 316.265756 192.410194 
L 318.095191 193.037686 
L 319.92462 194.049976 
L 321.754056 195.455048 
L 327.24235 200.206211 
L 328.157071 200.759192 
L 329.071785 201.172198 
L 329.9865 201.428198 
L 330.901215 201.514418 
L 330.901215 201.514418 
L 332.252941 201.344106 
L 333.60466 200.855525 
L 334.956379 200.110943 
L 337.659825 198.19813 
L 340.363264 196.308203 
L 341.714983 195.540736 
L 343.066709 194.931339 
L 344.418429 194.473627 
L 347.121874 193.900421 
L 353.880478 192.864713 
L 356.583917 192.069571 
L 359.287363 190.889098 
L 361.990801 189.323827 
L 364.694247 187.464237 
L 370.101131 183.571018 
L 372.80457 182.010537 
L 374.156296 181.440525 
L 375.508016 181.040293 
L 376.859735 180.811437 
L 378.211455 180.741183 
L 379.563181 180.811969 
L 380.9149 181.007295 
L 383.618339 181.734313 
L 384.970065 182.270263 
L 386.321785 182.941397 
L 387.673504 183.781246 
L 389.025223 184.848356 
L 390.376949 186.228945 
L 391.728669 188.036377 
L 395.783834 194.704612 
L 397.135553 195.580653 
L 398.487273 195.815363 
L 398.487273 195.815363 
" clip-path="url(#p8168de0c3e)" style="fill: none; stroke: #e377c2; stroke-width: 1.5; stroke-linecap: square"/>
   </g>
   <g id="line2d_20">
    <path d="M 73.832727 163.163953 
L 77.491592 163.274124 
L 80.235742 163.561524 
L 82.065171 163.920243 
L 83.894607 164.47695 
L 85.724043 165.292317 
L 87.553472 166.393488 
L 90.297622 168.431906 
L 93.041772 170.493742 
L 94.871201 171.681666 
L 96.700637 172.676393 
L 99.444787 173.861123 
L 103.103652 175.101737 
L 109.506667 176.973569 
L 113.165532 177.866109 
L 115.909682 178.337659 
L 118.653825 178.567048 
L 129.73505 178.669235 
L 131.994278 178.364271 
L 134.253498 177.826724 
L 136.512726 177.082675 
L 139.90156 175.685587 
L 145.549622 172.996259 
L 148.938457 171.503371 
L 150.068071 171.189891 
L 152.327291 170.980195 
L 154.586519 170.680553 
L 160.234581 169.527223 
L 162.493802 169.357976 
L 164.753029 169.378201 
L 168.141864 169.671988 
L 176.049146 170.709825 
L 176.049146 170.709825 
L 179.708011 169.683697 
L 188.855176 166.960839 
L 189.769891 166.89644 
L 190.684612 167.06622 
L 191.599327 167.634635 
L 192.514041 168.605944 
L 198.002342 175.587658 
L 199.831771 177.167831 
L 200.746492 177.740504 
L 201.661206 178.169477 
L 202.575921 178.464861 
L 204.405357 178.717667 
L 206.234786 178.638898 
L 208.978936 178.160961 
L 216.296665 176.55258 
L 219.040816 176.313612 
L 220.870251 176.346077 
L 225.587789 176.697877 
L 228.123009 176.545129 
L 230.658229 176.199183 
L 233.193443 175.683991 
L 236.996266 174.617414 
L 240.799097 173.467278 
L 242.066707 173.258114 
L 244.60192 173.220858 
L 248.40475 173.288983 
L 252.207574 173.048417 
L 256.010397 172.792418 
L 258.545617 172.815835 
L 261.080837 173.133573 
L 263.616051 173.798321 
L 268.686484 175.572756 
L 269.954095 175.867608 
L 271.221705 176.028872 
L 272.489315 176.056547 
L 275.024528 175.809595 
L 282.630182 174.567917 
L 285.165402 174.443909 
L 285.165402 174.443909 
L 286.080116 174.514162 
L 286.994831 174.720665 
L 288.824267 175.491325 
L 290.653696 176.609528 
L 294.31256 179.11311 
L 295.227282 179.60861 
L 296.141996 179.966797 
L 297.056711 180.150947 
L 297.971432 180.15414 
L 299.800861 179.737941 
L 302.545011 178.638366 
L 305.289161 177.517502 
L 307.11859 176.926201 
L 308.948026 176.565353 
L 310.777455 176.541936 
L 311.692176 176.686701 
L 313.521605 177.311532 
L 315.351041 178.312113 
L 319.009906 180.553308 
L 320.839335 181.314388 
L 322.66877 181.710363 
L 324.498206 181.820001 
L 328.157071 181.668317 
L 332.252941 181.578904 
L 334.956379 181.462879 
L 337.659825 181.05626 
L 339.011544 180.657624 
L 340.363264 180.084419 
L 341.714983 179.321742 
L 343.066709 178.377576 
L 345.770148 176.092206 
L 349.825313 172.540143 
L 351.177033 171.600236 
L 352.528759 170.918457 
L 353.880478 170.559738 
L 355.232198 170.516095 
L 356.583917 170.714615 
L 359.287363 171.506564 
L 364.694247 173.385847 
L 367.397686 174.104882 
L 370.101131 174.522146 
L 371.452851 174.581755 
L 372.80457 174.521613 
L 374.156296 174.328948 
L 375.508016 174.002163 
L 378.211455 173.0085 
L 382.26662 171.069076 
L 395.783834 164.159744 
L 397.135553 163.464127 
L 398.487273 163.163953 
L 398.487273 163.163953 
" clip-path="url(#p8168de0c3e)" style="fill: none; stroke: #7f7f7f; stroke-width: 1.5; stroke-linecap: square"/>
   </g>
   <g id="line2d_21">
    <path d="M 73.832727 143.486567 
L 74.747442 143.60685 
L 75.662163 143.959182 
L 76.576877 144.523872 
L 77.491592 145.270582 
L 79.321028 147.176476 
L 82.065171 150.593354 
L 84.809322 154.043763 
L 86.638757 156.069407 
L 88.468186 157.750703 
L 90.297622 159.095633 
L 92.127051 160.187224 
L 94.871201 161.547057 
L 99.444787 163.480094 
L 104.018366 165.143294 
L 107.677231 166.222112 
L 111.336096 167.024706 
L 114.994961 167.534044 
L 118.653825 167.751192 
L 120.698154 167.672955 
L 121.827767 167.418552 
L 124.086995 166.510045 
L 128.605443 164.328459 
L 130.864664 163.643487 
L 133.123891 163.366198 
L 135.383112 163.482223 
L 137.64234 163.948984 
L 139.90156 164.711661 
L 142.160788 165.705855 
L 147.808843 168.489386 
L 148.938457 168.855024 
L 150.068071 168.9785 
L 151.197684 168.769869 
L 152.327291 168.266385 
L 153.456905 167.550543 
L 154.586519 166.662262 
L 156.84574 164.422131 
L 159.104967 161.717368 
L 165.882643 153.098001 
L 168.141864 150.59229 
L 169.271477 149.500699 
L 170.401091 148.631045 
L 171.530698 148.302662 
L 172.660312 148.727377 
L 174.919539 150.434752 
L 176.049146 151.401271 
L 176.049146 151.401271 
L 177.878582 151.162302 
L 179.708011 151.177736 
L 180.622732 151.381046 
L 181.537447 151.791923 
L 182.452161 152.443365 
L 183.366876 153.321535 
L 185.196312 155.576568 
L 187.940462 159.593795 
L 189.769891 162.235222 
L 190.684612 163.294348 
L 191.599327 163.954838 
L 192.514041 164.200726 
L 194.343477 164.089491 
L 203.490635 162.620552 
L 208.064221 162.276736 
L 214.467236 161.845102 
L 218.126101 161.349602 
L 221.784966 160.606617 
L 221.784966 160.606617 
L 224.320186 161.252737 
L 226.855399 162.209143 
L 229.390619 163.390148 
L 238.263877 167.900747 
L 239.531487 168.267981 
L 240.799097 168.384538 
L 242.066707 168.152489 
L 243.33431 167.527126 
L 244.60192 166.552091 
L 245.86953 165.315203 
L 250.939964 159.817861 
L 252.207574 158.919467 
L 253.475184 158.429821 
L 254.742794 158.323376 
L 256.010397 158.494752 
L 262.348441 160.110584 
L 264.883661 160.220754 
L 267.418881 159.931757 
L 273.756925 158.757138 
L 275.024528 158.740639 
L 276.292138 158.868373 
L 278.827358 159.454884 
L 281.362572 160.139324 
L 283.897792 160.569361 
L 286.080116 160.593311 
L 287.909552 160.34423 
L 293.397846 159.257961 
L 295.227282 159.112132 
L 297.056711 159.124373 
L 299.800861 159.417096 
L 302.545011 160.01638 
L 305.289161 160.915307 
L 308.948026 162.45237 
L 311.692176 163.491803 
L 313.521605 163.890439 
L 315.351041 163.977191 
L 317.18047 163.789316 
L 319.92462 163.188435 
L 325.412921 161.801992 
L 328.157071 161.359714 
L 330.901215 161.205369 
L 330.901215 161.205369 
L 333.60466 161.300105 
L 336.308099 161.567281 
L 340.363264 162.241077 
L 344.418429 163.182581 
L 349.825313 164.497706 
L 351.177033 164.666422 
L 352.528759 164.654713 
L 353.880478 164.4051 
L 355.232198 163.922905 
L 357.935643 162.533268 
L 370.101131 155.414772 
L 374.156296 152.763764 
L 378.211455 149.741796 
L 384.970065 144.182716 
L 387.673504 142.053288 
L 390.376949 140.177199 
L 391.728669 139.401216 
L 393.080388 138.821092 
L 394.432108 138.719969 
L 395.783834 139.997307 
L 397.135553 142.333238 
L 398.487273 143.486567 
L 398.487273 143.486567 
" clip-path="url(#p8168de0c3e)" style="fill: none; stroke: #bcbd22; stroke-width: 1.5; stroke-linecap: square"/>
   </g>
   <g id="line2d_22">
    <path d="M 73.832727 136.520287 
L 81.150457 136.527206 
L 84.809322 136.19776 
L 89.382907 135.513852 
L 93.956487 134.579799 
L 98.530066 133.431792 
L 104.018366 131.802654 
L 115.909682 128.06378 
L 117.739111 127.734334 
L 119.568547 127.611922 
L 119.568547 127.611922 
L 121.827767 127.770525 
L 124.086995 128.231431 
L 126.346216 128.916403 
L 130.864664 130.613666 
L 142.160788 135.00132 
L 150.068071 137.859363 
L 155.716133 139.646571 
L 161.364188 141.34543 
L 163.623415 142.187409 
L 165.882643 143.236422 
L 170.401091 145.773534 
L 171.530698 145.945975 
L 172.660312 145.486133 
L 176.049146 143.346593 
L 176.049146 143.346593 
L 178.793297 145.297193 
L 180.622732 146.555371 
L 181.537447 147.023728 
L 182.452161 147.329225 
L 183.366876 147.481441 
L 185.196312 147.486763 
L 188.855176 147.087595 
L 192.514041 146.729408 
L 195.258191 146.632011 
L 198.002342 146.724086 
L 200.746492 147.017341 
L 203.490635 147.510713 
L 206.234786 148.195685 
L 209.89365 149.370836 
L 215.381951 151.471524 
L 219.040816 152.79623 
L 221.784966 153.532828 
L 221.784966 153.532828 
L 225.587789 151.291632 
L 230.658229 148.252101 
L 233.193443 146.967845 
L 235.728663 145.972586 
L 238.263877 145.369576 
L 239.531487 145.244503 
L 240.799097 145.247697 
L 242.066707 145.379688 
L 244.60192 145.992278 
L 249.672354 147.621416 
L 250.939964 147.690073 
L 252.207574 147.398946 
L 253.475184 146.678847 
L 254.742794 145.570757 
L 258.545617 141.515742 
L 259.813227 140.814803 
L 261.080837 140.992566 
L 262.348441 141.841463 
L 264.883661 144.25776 
L 268.686484 147.999295 
L 271.221705 150.135642 
L 272.489315 151.016473 
L 273.756925 151.731249 
L 275.024528 152.2507 
L 276.292138 152.565777 
L 277.559748 152.700962 
L 280.094968 152.634966 
L 283.897792 152.383224 
L 287.909552 152.217702 
L 290.653696 151.763183 
L 293.397846 150.994119 
L 298.886146 149.227135 
L 300.715575 148.892899 
L 302.545011 148.814662 
L 304.374447 149.0201 
L 306.203876 149.487393 
L 308.948026 150.533213 
L 320.839335 155.650547 
L 324.498206 156.893822 
L 327.24235 157.556973 
L 329.071785 157.816166 
L 330.901215 157.905048 
L 330.901215 157.905048 
L 332.252941 157.830536 
L 333.60466 157.612857 
L 336.308099 156.799086 
L 339.011544 155.610098 
L 348.473594 150.943026 
L 352.528759 149.401705 
L 359.287363 147.183928 
L 370.101131 143.690941 
L 374.156296 142.135251 
L 379.563181 139.748226 
L 386.321785 136.695921 
L 389.025223 135.745369 
L 390.376949 135.428164 
L 391.728669 135.299366 
L 393.080388 135.480854 
L 395.783834 136.533061 
L 398.487273 136.520287 
L 398.487273 136.520287 
" clip-path="url(#p8168de0c3e)" style="fill: none; stroke: #17becf; stroke-width: 1.5; stroke-linecap: square"/>
   </g>
   <g id="line2d_23">
    <path d="M 73.832727 130.14797 
L 75.662163 129.91592 
L 78.406307 129.040944 
L 81.150457 128.153726 
L 83.894607 127.495365 
L 87.553472 126.921628 
L 92.127051 126.481478 
L 110.421381 125.094503 
L 114.080246 125.148257 
L 119.568547 125.385629 
L 119.568547 125.385629 
L 120.698154 125.153047 
L 121.827767 124.491493 
L 122.957381 123.505814 
L 127.475829 118.901012 
L 129.73505 117.176074 
L 131.994278 115.947701 
L 134.253498 115.131802 
L 136.512726 114.632043 
L 138.771947 114.361673 
L 142.160788 114.25789 
L 144.420009 114.362738 
L 146.679236 114.630979 
L 148.938457 115.10998 
L 151.197684 115.841788 
L 153.456905 116.833322 
L 155.716133 118.047857 
L 164.753029 123.309423 
L 167.01225 124.240815 
L 169.271477 124.95985 
L 176.049146 126.709802 
L 176.049146 126.709802 
L 177.878582 126.692771 
L 180.622732 126.916838 
L 189.769891 128.015348 
L 192.514041 128.077618 
L 195.258191 127.954674 
L 198.917056 127.528895 
L 203.490635 126.697029 
L 215.381951 124.346728 
L 219.040816 123.903918 
L 221.784966 123.775652 
L 221.784966 123.775652 
L 226.855399 122.0092 
L 229.390619 121.313051 
L 231.925833 120.855338 
L 234.461053 120.728669 
L 236.996266 120.987862 
L 239.531487 121.588211 
L 243.33431 122.857033 
L 245.86953 123.919884 
L 248.40475 125.334003 
L 250.939964 127.229785 
L 253.475184 129.551879 
L 257.278007 133.262012 
L 258.545617 134.204581 
L 259.813227 134.566493 
L 261.080837 134.059284 
L 262.348441 132.912873 
L 267.418881 127.375615 
L 268.686484 126.246768 
L 269.954095 125.305263 
L 271.221705 124.576116 
L 272.489315 124.069439 
L 273.756925 123.778313 
L 275.024528 123.670803 
L 277.559748 123.805988 
L 282.630182 124.343002 
L 289.738981 124.787942 
L 292.483131 125.351567 
L 295.227282 126.16587 
L 299.800861 127.873776 
L 303.459726 129.156436 
L 306.203876 129.897824 
L 323.583485 133.885246 
L 327.24235 134.381811 
L 329.9865 134.545204 
L 333.60466 134.527109 
L 337.659825 134.283882 
L 340.363264 133.832024 
L 341.714983 133.46479 
L 343.066709 132.979401 
L 344.418429 132.362554 
L 345.770148 131.609989 
L 348.473594 129.742947 
L 351.177033 127.674192 
L 352.528759 126.792829 
L 353.880478 126.187159 
L 355.232198 125.883259 
L 357.935643 125.734768 
L 361.990801 125.580423 
L 366.045966 125.147725 
L 372.80457 124.354711 
L 375.508016 124.224849 
L 378.211455 124.251992 
L 380.9149 124.445722 
L 383.618339 124.814553 
L 386.321785 125.368598 
L 389.025223 126.130743 
L 391.728669 127.184546 
L 394.432108 128.710433 
L 395.783834 129.495463 
L 397.135553 129.992028 
L 398.487273 130.14797 
L 398.487273 130.14797 
" clip-path="url(#p8168de0c3e)" style="fill: none; stroke: #1f77b4; stroke-width: 1.5; stroke-linecap: square"/>
   </g>
   <g id="line2d_24">
    <path d="M 73.832727 122.139595 
L 75.662163 121.958639 
L 77.491592 121.42535 
L 79.321028 120.575389 
L 81.150457 119.476346 
L 83.894607 117.538519 
L 90.297622 112.578723 
L 95.785922 108.449729 
L 98.530066 106.636974 
L 100.359502 105.639587 
L 102.188931 104.913633 
L 104.018366 104.532028 
L 105.847802 104.483064 
L 107.677231 104.670407 
L 117.739111 106.172875 
L 127.475829 106.643893 
L 131.994278 107.305448 
L 136.512726 108.155409 
L 142.160788 109.466277 
L 146.679236 110.498792 
L 150.068071 111.069868 
L 153.456905 111.398782 
L 163.623415 112.084819 
L 165.882643 112.515921 
L 168.141864 113.134897 
L 170.401091 113.932701 
L 173.789926 115.396317 
L 176.049146 116.490569 
L 176.049146 116.490569 
L 179.708011 115.489988 
L 183.366876 114.517083 
L 186.111026 114.08332 
L 188.855176 113.97315 
L 192.514041 114.139204 
L 198.917056 114.474505 
L 202.575921 114.415428 
L 207.149507 114.05458 
L 212.637801 113.604851 
L 214.467236 113.622414 
L 216.296665 113.807628 
L 218.126101 114.189765 
L 220.870251 115.089224 
L 221.784966 115.444217 
L 221.784966 115.444217 
L 224.320186 114.665573 
L 226.855399 114.169008 
L 229.390619 113.926846 
L 231.925833 113.913009 
L 234.461053 114.095029 
L 238.263877 114.64322 
L 242.066707 115.436766 
L 245.86953 116.273422 
L 248.40475 116.599143 
L 250.939964 116.636399 
L 258.545617 116.371884 
L 261.080837 116.645979 
L 263.616051 117.169155 
L 267.418881 118.257553 
L 271.221705 119.335307 
L 273.756925 119.800471 
L 276.292138 120.019215 
L 282.630182 120.22146 
L 291.568417 120.419979 
L 296.141996 120.801052 
L 301.630297 121.559471 
L 305.289161 121.959703 
L 308.033311 121.965026 
L 310.777455 121.635579 
L 313.521605 121.03044 
L 323.583485 118.493861 
L 326.327635 118.069678 
L 329.071785 117.829645 
L 332.252941 117.816872 
L 334.956379 118.090967 
L 337.659825 118.6349 
L 340.363264 119.409286 
L 349.825313 122.472767 
L 351.177033 122.663836 
L 352.528759 122.637757 
L 353.880478 122.305117 
L 355.232198 121.687205 
L 359.287363 119.49391 
L 361.990801 118.390077 
L 371.452851 115.108384 
L 375.508016 113.158847 
L 379.563181 111.238051 
L 380.9149 110.739357 
L 382.26662 110.364671 
L 383.618339 110.141137 
L 384.970065 110.09164 
L 386.321785 110.236405 
L 387.673504 110.604172 
L 389.025223 111.241244 
L 390.376949 112.225326 
L 391.728669 113.667121 
L 393.080388 115.658171 
L 395.783834 120.294907 
L 397.135553 121.693591 
L 398.487273 122.139595 
L 398.487273 122.139595 
" clip-path="url(#p8168de0c3e)" style="fill: none; stroke: #ff7f0e; stroke-width: 1.5; stroke-linecap: square"/>
   </g>
   <g id="line2d_25">
    <path d="M 73.832727 91.361613 
L 77.491592 91.47338 
L 81.150457 91.834228 
L 83.894607 92.302053 
L 86.638757 92.955092 
L 90.297622 94.090326 
L 99.444787 97.212352 
L 101.274216 97.506672 
L 103.103652 97.500817 
L 104.933081 97.160726 
L 106.762517 96.560377 
L 111.336096 94.827988 
L 113.165532 94.336213 
L 114.994961 94.023798 
L 117.739111 93.814102 
L 120.698154 93.625162 
L 124.086995 92.414885 
L 125.216602 92.324939 
L 126.346216 92.443092 
L 128.605443 93.013104 
L 134.253498 94.678433 
L 138.771947 95.689659 
L 144.420009 96.963803 
L 147.808843 97.956401 
L 152.327291 99.551476 
L 162.493802 103.286624 
L 167.01225 104.602282 
L 176.049146 106.904151 
L 176.049146 106.904151 
L 180.622732 106.975469 
L 182.452161 106.848267 
L 184.281597 106.5449 
L 186.111026 106.030771 
L 187.940462 105.313333 
L 190.684612 103.959355 
L 196.172906 101.089071 
L 198.002342 100.369505 
L 199.831771 99.922969 
L 201.661206 99.815992 
L 203.490635 100.032607 
L 205.320071 100.487658 
L 208.064221 101.428098 
L 215.381951 104.107314 
L 217.211387 104.541076 
L 219.040816 104.796012 
L 220.870251 104.869991 
L 223.052576 104.840718 
L 225.587789 105.057866 
L 228.123009 105.578381 
L 230.658229 106.358089 
L 236.996266 108.595026 
L 239.531487 109.193778 
L 242.066707 109.528015 
L 244.60192 109.649894 
L 250.939964 109.587624 
L 256.010397 109.640314 
L 267.418881 110.049062 
L 269.954095 109.819142 
L 272.489315 109.299691 
L 276.292138 108.149555 
L 278.827358 107.40178 
L 281.362572 106.849864 
L 283.897792 106.56406 
L 286.080116 106.551818 
L 287.909552 106.744484 
L 289.738981 107.128749 
L 291.568417 107.693971 
L 294.31256 108.805787 
L 299.800861 111.175248 
L 302.545011 112.037983 
L 305.289161 112.605866 
L 308.033311 112.924136 
L 310.777455 113.047612 
L 314.436326 112.974698 
L 319.009906 112.603205 
L 327.24235 111.846915 
L 330.901215 111.751115 
L 330.901215 111.751115 
L 336.308099 111.65904 
L 340.363264 111.367913 
L 344.418429 110.836754 
L 348.473594 110.033628 
L 351.177033 109.230502 
L 352.528759 108.692423 
L 353.880478 108.031401 
L 355.232198 107.226679 
L 356.583917 106.270804 
L 359.287363 103.986499 
L 361.990801 101.580314 
L 363.342527 100.522253 
L 364.694247 99.649938 
L 366.045966 98.993173 
L 367.397686 98.545041 
L 368.749412 98.273606 
L 371.452851 98.093715 
L 379.563181 98.088925 
L 382.26662 97.58757 
L 384.970065 96.640211 
L 387.673504 95.342649 
L 391.728669 93.237171 
L 394.432108 92.099276 
L 395.783834 91.699576 
L 397.135553 91.447834 
L 398.487273 91.361613 
L 398.487273 91.361613 
" clip-path="url(#p8168de0c3e)" style="fill: none; stroke: #2ca02c; stroke-width: 1.5; stroke-linecap: square"/>
   </g>
   <g id="line2d_26">
    <path d="M 73.832727 82.986536 
L 82.979892 82.98494 
L 88.468186 82.698071 
L 90.297622 82.81516 
L 92.127051 83.116931 
L 94.871201 83.876415 
L 98.530066 85.220281 
L 104.018366 87.272536 
L 106.762517 88.07513 
L 108.591946 88.449284 
L 110.421381 88.652061 
L 112.25081 88.659512 
L 114.994961 88.369982 
L 118.653825 87.951654 
L 121.827767 87.784004 
L 122.957381 87.501393 
L 124.086995 86.988861 
L 128.605443 84.250568 
L 130.864664 83.419235 
L 133.123891 82.953539 
L 135.383112 82.755551 
L 137.64234 82.772582 
L 139.90156 82.978553 
L 143.290395 83.594868 
L 146.679236 84.481021 
L 151.197684 85.881303 
L 154.586519 87.09158 
L 157.975353 88.585533 
L 162.493802 90.980009 
L 165.882643 92.685254 
L 168.141864 93.580455 
L 170.401091 94.195706 
L 172.660312 94.513444 
L 174.919539 94.578907 
L 176.049146 94.544313 
L 176.049146 94.544313 
L 185.196312 93.039183 
L 187.940462 92.934867 
L 190.684612 93.092406 
L 193.428756 93.475075 
L 198.917056 94.341535 
L 200.746492 94.397951 
L 202.575921 94.263299 
L 209.89365 93.329778 
L 212.637801 93.33989 
L 215.381951 93.623565 
L 218.126101 94.14408 
L 221.784966 95.110067 
L 221.784966 95.110067 
L 228.123009 94.355373 
L 236.996266 93.31115 
L 243.33431 92.446286 
L 247.13714 92.184432 
L 249.672354 92.193479 
L 252.207574 92.384548 
L 254.742794 92.795425 
L 264.883661 94.938159 
L 268.686484 95.256429 
L 272.489315 95.308054 
L 277.559748 95.107406 
L 283.897792 94.813086 
L 286.994831 94.867905 
L 290.653696 95.291023 
L 294.31256 95.74022 
L 297.056711 95.903081 
L 300.715575 95.861567 
L 305.289161 95.540104 
L 312.606891 94.966366 
L 315.351041 94.948271 
L 318.095191 95.169144 
L 320.839335 95.655064 
L 327.24235 97.000527 
L 329.9865 97.255994 
L 333.60466 97.251204 
L 337.659825 97.05162 
L 340.363264 96.722173 
L 343.066709 96.205916 
L 347.121874 95.131356 
L 353.880478 93.187674 
L 357.935643 92.38029 
L 361.990801 91.589937 
L 364.694247 90.733589 
L 367.397686 89.52065 
L 374.156296 86.159124 
L 378.211455 84.443766 
L 382.26662 83.017405 
L 384.970065 82.253132 
L 387.673504 81.686845 
L 390.376949 81.374962 
L 393.080388 81.357931 
L 394.432108 81.486729 
L 395.783834 81.815111 
L 397.135553 82.522437 
L 398.487273 82.986536 
L 398.487273 82.986536 
" clip-path="url(#p8168de0c3e)" style="fill: none; stroke: #d62728; stroke-width: 1.5; stroke-linecap: square"/>
   </g>
   <g id="line2d_27">
    <path d="M 73.832727 80.361075 
L 75.662163 80.215778 
L 77.491592 79.817675 
L 80.235742 78.907039 
L 85.724043 76.812738 
L 87.553472 76.387491 
L 90.297622 76.13841 
L 93.956487 75.817479 
L 100.359502 75.112282 
L 103.103652 75.021804 
L 105.847802 75.110153 
L 109.506667 75.475791 
L 118.653825 76.672231 
L 120.698154 76.623799 
L 121.827767 76.424215 
L 122.957381 76.089446 
L 124.086995 75.618427 
L 126.346216 74.300109 
L 131.994278 70.279156 
L 133.123891 69.703822 
L 134.253498 69.311573 
L 135.383112 69.125827 
L 136.512726 69.142858 
L 137.64234 69.335523 
L 139.90156 70.120553 
L 142.160788 71.285592 
L 144.420009 72.711952 
L 147.808843 75.15007 
L 153.456905 79.271613 
L 155.716133 80.640493 
L 157.975353 81.71186 
L 160.234581 82.468682 
L 162.493802 82.964183 
L 165.882643 83.394752 
L 173.789926 84.176057 
L 176.963868 84.60503 
L 185.196312 84.666235 
L 187.940462 84.48315 
L 190.684612 84.089305 
L 193.428756 83.4517 
L 196.172906 82.592691 
L 201.661206 80.716601 
L 203.490635 80.30945 
L 205.320071 80.135945 
L 207.149507 80.207795 
L 208.978936 80.481358 
L 212.637801 81.358995 
L 217.211387 82.460167 
L 219.95553 82.879027 
L 221.784966 83.025921 
L 221.784966 83.025921 
L 224.320186 82.337755 
L 226.855399 81.833207 
L 229.390619 81.57774 
L 231.925833 81.645864 
L 234.461053 82.091336 
L 236.996266 82.904574 
L 239.531487 84.00202 
L 247.13714 87.572711 
L 249.672354 88.432785 
L 252.207574 88.973524 
L 253.475184 89.091678 
L 256.010397 88.995345 
L 258.545617 88.516876 
L 261.080837 87.781875 
L 267.418881 85.550259 
L 273.756925 83.439991 
L 278.827358 81.914105 
L 281.362572 81.310563 
L 283.897792 80.959295 
L 286.080116 80.952909 
L 287.909552 81.250422 
L 290.653696 82.029065 
L 297.971432 84.293146 
L 309.862741 87.691929 
L 319.009906 90.677173 
L 321.754056 91.203543 
L 324.498206 91.50691 
L 328.157071 91.697979 
L 332.252941 91.693189 
L 334.956379 91.373322 
L 352.528759 88.1853 
L 355.232198 87.263489 
L 357.935643 85.915365 
L 360.639082 84.079192 
L 363.342527 81.700683 
L 366.045966 78.791547 
L 368.749412 75.647167 
L 370.101131 74.26445 
L 371.452851 73.253224 
L 372.80457 72.675761 
L 374.156296 72.420826 
L 375.508016 72.362813 
L 378.211455 72.574106 
L 382.26662 73.291544 
L 390.376949 75.134636 
L 391.728669 75.548706 
L 393.080388 76.16715 
L 394.432108 77.234792 
L 395.783834 78.829335 
L 397.135553 80.044934 
L 398.487273 80.361075 
L 398.487273 80.361075 
" clip-path="url(#p8168de0c3e)" style="fill: none; stroke: #9467bd; stroke-width: 1.5; stroke-linecap: square"/>
   </g>
   <g id="line2d_28">
    <path d="M 73.832727 71.346265 
L 75.662163 71.434082 
L 78.406307 71.865716 
L 82.065171 72.781141 
L 84.809322 73.388941 
L 86.638757 73.500708 
L 88.468186 73.203727 
L 90.297622 72.552285 
L 93.041772 71.256852 
L 100.359502 67.625487 
L 103.103652 66.498769 
L 105.847802 65.619535 
L 107.677231 65.203868 
L 109.506667 64.948401 
L 111.336096 64.869099 
L 114.080246 65.058571 
L 118.653825 65.555136 
L 121.827767 65.530654 
L 128.605443 65.410371 
L 133.123891 65.363535 
L 135.383112 65.142662 
L 141.031174 64.393291 
L 144.420009 64.245865 
L 151.197684 64.209142 
L 155.716133 64.362954 
L 159.104967 64.747752 
L 162.493802 65.430596 
L 169.271477 67.015559 
L 171.530698 67.339151 
L 173.789926 67.458901 
L 176.049146 67.358311 
L 176.049146 67.358311 
L 178.793297 68.423291 
L 181.537447 69.255157 
L 184.281597 69.876263 
L 187.940462 70.477144 
L 198.002342 71.786947 
L 200.746492 71.992385 
L 202.575921 71.95513 
L 204.405357 71.709242 
L 206.234786 71.241949 
L 208.978936 70.245626 
L 214.467236 68.122052 
L 218.126101 66.975642 
L 220.870251 66.315684 
L 221.784966 66.14005 
L 221.784966 66.14005 
L 224.320186 67.305621 
L 228.123009 69.159357 
L 230.658229 70.113635 
L 233.193443 70.762948 
L 235.728663 71.173825 
L 239.531487 71.693275 
L 240.799097 72.048801 
L 242.066707 72.618813 
L 247.13714 75.335816 
L 249.672354 76.383233 
L 252.207574 77.119299 
L 254.742794 77.545078 
L 257.278007 77.692504 
L 259.813227 77.605752 
L 262.348441 77.323141 
L 266.151271 76.608896 
L 277.559748 74.058479 
L 280.094968 73.784383 
L 283.897792 73.624716 
L 286.080116 73.575752 
L 287.909552 73.279303 
L 295.227282 71.605991 
L 297.971432 71.435147 
L 300.715575 71.549575 
L 303.459726 71.887537 
L 307.11859 72.575171 
L 317.18047 74.691825 
L 321.754056 75.344332 
L 326.327635 75.811625 
L 329.9865 75.995242 
L 341.714983 76.019724 
L 345.770148 75.905296 
L 348.473594 75.675375 
L 351.177033 75.28632 
L 353.880478 74.732274 
L 357.935643 73.635893 
L 368.749412 70.260528 
L 370.101131 69.578749 
L 371.452851 68.549428 
L 372.80457 67.146486 
L 378.211455 60.667191 
L 379.563181 59.398369 
L 380.9149 58.465912 
L 382.26662 57.920915 
L 383.618339 57.720799 
L 384.970065 57.772957 
L 386.321785 58.006071 
L 387.673504 58.394062 
L 389.025223 58.964606 
L 390.376949 59.844372 
L 391.728669 61.342051 
L 393.080388 63.852551 
L 394.432108 67.066652 
L 395.783834 69.675082 
L 397.135553 70.985417 
L 398.487273 71.346265 
L 398.487273 71.346265 
" clip-path="url(#p8168de0c3e)" style="fill: none; stroke: #8c564b; stroke-width: 1.5; stroke-linecap: square"/>
   </g>
   <g id="line2d_29">
    <path d="M 73.832727 57.383369 
L 76.576877 57.232217 
L 79.321028 56.814421 
L 82.979892 55.986281 
L 91.212336 53.985651 
L 95.785922 53.17188 
L 99.444787 52.707781 
L 101.274216 52.67159 
L 102.188931 52.780163 
L 103.103652 53.013277 
L 104.018366 53.384238 
L 105.847802 54.458798 
L 111.336096 58.18543 
L 113.165532 59.070519 
L 114.994961 59.670335 
L 116.824396 60.018942 
L 118.653825 60.174351 
L 119.568547 60.192447 
L 119.568547 60.192447 
L 120.698154 59.967316 
L 121.827767 59.334502 
L 126.346216 55.785632 
L 127.475829 55.285342 
L 128.605443 54.961217 
L 130.864664 54.623787 
L 136.512726 54.014923 
L 138.771947 53.787663 
L 141.031174 53.824387 
L 143.290395 54.212378 
L 145.549622 54.875529 
L 148.938457 56.155528 
L 155.716133 58.816648 
L 157.975353 59.476606 
L 160.234581 59.916223 
L 162.493802 60.116339 
L 164.753029 60.101969 
L 168.141864 59.778377 
L 172.660312 59.034328 
L 176.049146 58.443559 
L 176.049146 58.443559 
L 187.025747 61.41124 
L 190.684612 62.106857 
L 194.343477 62.588519 
L 198.002342 62.872195 
L 201.661206 62.96906 
L 205.320071 62.857293 
L 208.064221 62.596503 
L 211.723086 62.00467 
L 216.296665 61.245186 
L 221.784966 60.697528 
L 221.784966 60.697528 
L 225.587789 61.038683 
L 226.855399 61.329277 
L 228.123009 61.787522 
L 229.390619 62.422998 
L 231.925833 64.108019 
L 239.531487 69.874134 
L 240.799097 70.495239 
L 242.066707 70.83054 
L 244.60192 70.993401 
L 247.13714 70.874715 
L 249.672354 70.570283 
L 252.207574 70.076379 
L 254.742794 69.38023 
L 257.278007 68.47332 
L 259.813227 67.360972 
L 263.616051 65.375244 
L 269.954095 61.883855 
L 272.489315 60.808762 
L 275.024528 60.124322 
L 277.559748 59.854485 
L 280.094968 59.881628 
L 285.165402 60.07589 
L 285.165402 60.07589 
L 287.909552 59.934318 
L 290.653696 59.550053 
L 295.227282 58.828889 
L 297.056711 58.769812 
L 298.886146 58.976315 
L 300.715575 59.480863 
L 302.545011 60.258975 
L 305.289161 61.792312 
L 314.436326 67.39876 
L 317.18047 68.696854 
L 319.92462 69.70808 
L 322.66877 70.413809 
L 325.412921 70.83054 
L 328.157071 71.022673 
L 332.252941 71.071638 
L 336.308099 70.939114 
L 339.011544 70.546333 
L 341.714983 69.776205 
L 344.418429 68.631391 
L 347.121874 67.19066 
L 351.177033 64.710497 
L 356.583917 61.343647 
L 359.287363 59.824148 
L 361.990801 58.499442 
L 364.694247 57.4004 
L 367.397686 56.519569 
L 371.452851 55.524842 
L 375.508016 54.810598 
L 378.211455 54.377368 
L 379.563181 54.079322 
L 380.9149 53.647688 
L 384.970065 51.906252 
L 386.321785 51.623641 
L 387.673504 51.695491 
L 389.025223 52.188862 
L 390.376949 53.131963 
L 393.080388 55.65098 
L 394.432108 56.518505 
L 395.783834 57.032101 
L 397.135553 57.29981 
L 398.487273 57.383369 
L 398.487273 57.383369 
" clip-path="url(#p8168de0c3e)" style="fill: none; stroke: #e377c2; stroke-width: 1.5; stroke-linecap: square"/>
   </g>
   <g id="line2d_30">
    <path d="M 73.832727 45.57864 
L 75.662163 45.655281 
L 78.406307 46.02837 
L 82.065171 46.824045 
L 87.553472 48.022613 
L 90.297622 48.377074 
L 93.041772 48.475003 
L 99.444787 48.319594 
L 101.274216 48.639461 
L 103.103652 48.98381 
L 104.933081 48.99339 
L 106.762517 48.659153 
L 109.506667 47.817175 
L 114.994961 45.94481 
L 116.824396 45.508919 
L 118.653825 45.272612 
L 120.698154 45.152861 
L 121.827767 44.879298 
L 122.957381 44.415199 
L 125.216602 43.075059 
L 126.346216 42.670036 
L 127.475829 42.93668 
L 129.73505 44.038384 
L 134.253498 46.351962 
L 136.512726 47.305175 
L 138.771947 47.965665 
L 141.031174 48.241889 
L 143.290395 48.174829 
L 146.679236 47.753308 
L 157.975353 46.17686 
L 167.01225 44.955406 
L 173.789926 43.815382 
L 176.049146 43.389603 
L 176.049146 43.389603 
L 185.196312 45.357767 
L 188.855176 46.392411 
L 192.514041 47.631961 
L 196.172906 49.080142 
L 200.746492 51.159009 
L 209.89365 55.507279 
L 212.637801 56.4887 
L 214.467236 56.96717 
L 216.296665 57.290762 
L 219.040816 57.504716 
L 223.052576 57.621273 
L 228.123009 58.515409 
L 230.658229 58.560116 
L 233.193443 58.20938 
L 235.728663 57.471186 
L 238.263877 56.358305 
L 240.799097 54.925558 
L 244.60192 52.395365 
L 249.672354 48.91941 
L 252.207574 47.385009 
L 254.742794 46.109268 
L 257.278007 45.160312 
L 259.813227 44.578059 
L 262.348441 44.362509 
L 264.883661 44.465228 
L 268.686484 44.999581 
L 272.489315 45.568528 
L 275.024528 45.744162 
L 277.559748 45.705842 
L 285.165402 45.293901 
L 285.165402 45.293901 
L 286.994831 45.375863 
L 289.738981 45.775031 
L 297.971432 47.451004 
L 300.715575 47.534564 
L 307.11859 47.31103 
L 308.948026 47.519129 
L 310.777455 47.986954 
L 312.606891 48.752292 
L 314.436326 49.808225 
L 317.18047 51.800339 
L 322.66877 56.075162 
L 324.498206 57.258296 
L 326.327635 58.205123 
L 328.157071 58.867209 
L 329.9865 59.207833 
L 330.901215 59.250943 
L 330.901215 59.250943 
L 332.252941 59.138643 
L 333.60466 58.807068 
L 334.956379 58.270586 
L 336.308099 57.54889 
L 337.659825 56.664866 
L 340.363264 54.501908 
L 343.066709 51.965861 
L 348.473594 46.723454 
L 349.825313 45.661667 
L 351.177033 44.840978 
L 352.528759 44.315673 
L 353.880478 44.087349 
L 355.232198 44.105977 
L 357.935643 44.603606 
L 364.694247 46.315771 
L 367.397686 46.737824 
L 371.452851 47.067803 
L 376.859735 47.246098 
L 380.9149 47.253017 
L 383.618339 47.108252 
L 386.321785 46.657991 
L 390.376949 45.589285 
L 391.728669 45.388636 
L 394.432108 45.38704 
L 398.487273 45.57864 
L 398.487273 45.57864 
" clip-path="url(#p8168de0c3e)" style="fill: none; stroke: #7f7f7f; stroke-width: 1.5; stroke-linecap: square"/>
   </g>
   <g id="line2d_31">
    <path d="M 73.832727 39.862555 
L 78.406307 39.747594 
L 82.979892 39.694904 
L 85.724043 39.892359 
L 88.468186 40.35912 
L 91.212336 41.144682 
L 93.956487 42.254369 
L 99.444787 44.717502 
L 100.359502 44.912296 
L 101.274216 44.980421 
L 103.103652 44.797336 
L 104.933081 44.344413 
L 107.677231 43.425262 
L 113.165532 41.297431 
L 118.653825 39.209516 
L 119.568547 39.09562 
L 119.568547 39.09562 
L 120.698154 39.295736 
L 122.957381 40.242563 
L 125.216602 41.212275 
L 126.346216 41.305414 
L 127.475829 40.741789 
L 131.994278 37.833185 
L 136.512726 35.051782 
L 138.771947 33.385921 
L 143.290395 29.633209 
L 144.420009 29.037651 
L 145.549622 28.734283 
L 146.679236 28.62837 
L 148.938457 28.71193 
L 152.327291 29.165917 
L 157.975353 30.248993 
L 164.753029 31.518347 
L 168.141864 31.957964 
L 171.530698 32.159677 
L 173.789926 32.11497 
L 176.049146 31.889307 
L 176.049146 31.889307 
L 178.793297 32.145307 
L 181.537447 32.139984 
L 184.281597 31.8925 
L 187.940462 31.284168 
L 193.428756 30.253783 
L 195.258191 30.052602 
L 197.087627 30.040361 
L 198.917056 30.333084 
L 199.831771 30.639113 
L 200.746492 31.073407 
L 202.575921 32.335311 
L 204.405357 34.007558 
L 208.978936 38.467596 
L 210.808372 39.901407 
L 212.637801 40.977564 
L 214.467236 41.636457 
L 216.296665 41.853605 
L 218.126101 41.644441 
L 219.95553 41.065381 
L 221.784966 40.205307 
L 221.784966 40.205307 
L 223.052576 41.090928 
L 224.320186 41.806237 
L 225.587789 42.321962 
L 226.855399 42.623201 
L 228.123009 42.709421 
L 229.390619 42.59446 
L 230.658229 42.302269 
L 233.193443 41.310204 
L 235.728663 39.979112 
L 242.066707 36.449934 
L 244.60192 35.296605 
L 247.13714 34.391824 
L 249.672354 33.748365 
L 252.207574 33.347068 
L 254.742794 33.143227 
L 258.545617 33.083618 
L 272.489315 33.155468 
L 278.827358 32.8042 
L 283.897792 32.547668 
L 286.994831 32.435369 
L 288.824267 32.144774 
L 291.568417 31.400193 
L 294.31256 30.383113 
L 300.715575 27.861436 
L 302.545011 27.48675 
L 303.459726 27.444704 
L 304.374447 27.521877 
L 305.289161 27.725186 
L 307.11859 28.464445 
L 309.862741 30.023862 
L 312.606891 31.513025 
L 314.436326 32.267718 
L 316.265756 32.798878 
L 318.095191 33.134179 
L 320.839335 33.374212 
L 324.498206 33.430628 
L 333.60466 33.453513 
L 337.659825 33.812764 
L 341.714983 34.420032 
L 347.121874 35.258817 
L 348.473594 35.326409 
L 349.825313 35.243383 
L 351.177033 34.946402 
L 352.528759 34.399275 
L 353.880478 33.619567 
L 357.935643 30.782813 
L 359.287363 30.029716 
L 360.639082 29.505476 
L 361.990801 29.216478 
L 363.342527 29.120145 
L 366.045966 29.28407 
L 370.101131 29.896128 
L 375.508016 30.948867 
L 378.211455 31.625856 
L 380.9149 32.489656 
L 383.618339 33.620099 
L 386.321785 35.099682 
L 389.025223 36.933726 
L 391.728669 38.71987 
L 393.080388 39.319686 
L 394.432108 39.659245 
L 397.135553 39.854039 
L 398.487273 39.862555 
L 398.487273 39.862555 
" clip-path="url(#p8168de0c3e)" style="fill: none; stroke: #bcbd22; stroke-width: 1.5; stroke-linecap: square"/>
   </g>
   <g id="line2d_32">
    <path d="M 73.832727 12.689326 
L 77.491592 12.805351 
L 80.235742 13.095413 
L 82.979892 13.667554 
L 84.809322 14.265774 
L 86.638757 15.067835 
L 88.468186 16.077464 
L 91.212336 17.926942 
L 94.871201 20.768486 
L 101.274216 25.800132 
L 106.762517 29.775313 
L 113.165532 34.143276 
L 115.909682 35.840538 
L 117.739111 36.793751 
L 118.653825 37.132246 
L 119.568547 37.267963 
L 119.568547 37.267963 
L 120.698154 37.024204 
L 121.827767 36.454724 
L 124.086995 34.887325 
L 128.605443 31.356018 
L 130.864664 29.988203 
L 133.123891 28.989751 
L 135.383112 28.289344 
L 137.64234 27.801294 
L 142.160788 26.981669 
L 143.290395 26.544181 
L 144.420009 25.79481 
L 145.549622 24.719717 
L 147.808843 22.03997 
L 152.327291 16.483551 
L 154.586519 14.124202 
L 156.84574 12.190632 
L 159.104967 10.698276 
L 161.364188 9.639683 
L 163.623415 9.020706 
L 164.753029 8.886586 
L 165.882643 8.877006 
L 167.01225 9.000482 
L 168.141864 9.262868 
L 169.271477 9.668955 
L 170.401091 10.219807 
L 172.660312 11.730258 
L 174.919539 13.692036 
L 176.049146 14.79374 
L 176.049146 14.79374 
L 178.793297 12.308786 
L 180.622732 10.876039 
L 182.452161 9.741337 
L 183.366876 9.326735 
L 184.281597 9.035608 
L 185.196312 8.884457 
L 186.111026 8.882328 
L 187.025747 9.035076 
L 187.940462 9.341105 
L 188.855176 9.792963 
L 190.684612 11.090525 
L 192.514041 12.818657 
L 195.258191 15.941747 
L 198.917056 20.286291 
L 200.746492 22.091595 
L 202.575921 23.430671 
L 204.405357 24.338645 
L 206.234786 24.975185 
L 209.89365 25.931591 
L 214.467236 26.918867 
L 217.211387 27.344646 
L 219.95553 27.542101 
L 221.784966 27.50591 
L 221.784966 27.50591 
L 224.320186 27.200413 
L 226.855399 26.573986 
L 230.658229 25.314212 
L 245.86953 19.935024 
L 263.616051 13.936859 
L 267.418881 12.915521 
L 271.221705 12.116121 
L 275.024528 11.554625 
L 278.827358 11.209743 
L 283.897792 11.01761 
L 286.994831 11.102234 
L 288.824267 11.377394 
L 290.653696 11.834574 
L 292.483131 12.47005 
L 295.227282 13.735678 
L 297.971432 15.297224 
L 301.630297 17.447409 
L 303.459726 18.23989 
L 304.374447 18.484713 
L 305.289161 18.609254 
L 307.11859 18.506534 
L 308.948026 18.040306 
L 311.692176 16.968407 
L 320.839335 12.976195 
L 323.583485 12.025643 
L 326.327635 11.294899 
L 329.071785 10.857943 
L 330.901215 10.769594 
L 330.901215 10.769594 
L 334.956379 10.775449 
L 336.308099 10.881893 
L 337.659825 11.141619 
L 339.011544 11.590816 
L 340.363264 12.216711 
L 343.066709 13.825092 
L 351.177033 19.10848 
L 353.880478 20.417751 
L 355.232198 20.887705 
L 356.583917 21.187879 
L 357.935643 21.270906 
L 359.287363 21.08995 
L 360.639082 20.622125 
L 361.990801 19.891913 
L 364.694247 17.922152 
L 370.101131 13.619654 
L 372.80457 11.746757 
L 375.508016 10.147424 
L 378.211455 8.856249 
L 379.563181 8.357555 
L 380.9149 7.983934 
L 382.26662 7.75561 
L 383.618339 7.684824 
L 384.970065 7.767851 
L 386.321785 7.99032 
L 389.025223 8.770561 
L 391.728669 9.912181 
L 395.783834 12.009676 
L 397.135553 12.506241 
L 398.487273 12.689326 
L 398.487273 12.689326 
" clip-path="url(#p8168de0c3e)" style="fill: none; stroke: #17becf; stroke-width: 1.5; stroke-linecap: square"/>
   </g>
   <g id="line2d_33">
    <path d="M 73.832727 0.22464 
L 75.662163 0.314054 
L 77.491592 0.574843 
L 80.235742 1.243317 
L 83.894607 2.458384 
L 89.382907 4.317443 
L 97.615351 6.937049 
L 101.274216 8.385231 
L 110.421381 12.263547 
L 113.165532 13.108186 
L 115.909682 13.676069 
L 118.653825 13.93952 
L 120.698154 13.869267 
L 121.827767 13.619654 
L 124.086995 12.804819 
L 127.475829 11.52482 
L 130.864664 10.558301 
L 137.64234 8.717871 
L 141.031174 7.496949 
L 143.290395 6.473482 
L 145.549622 5.219562 
L 147.808843 3.670258 
L 150.068071 1.75372 
L 152.327291 -0.58434 
L 152.680742 -1 
M 197.995924 -1 
L 199.831771 1.168273 
L 202.575921 4.028977 
L 204.405357 5.656518 
L 206.234786 7.059993 
L 208.064221 8.250046 
L 209.89365 9.246369 
L 212.637801 10.433229 
L 215.381951 11.33109 
L 218.126101 12.019256 
L 221.784966 12.695181 
L 221.784966 12.695181 
L 224.320186 11.793593 
L 226.855399 10.601411 
L 229.390619 9.182502 
L 233.193443 6.783236 
L 245.161554 -1 
M 303.344703 -1 
L 306.203876 0.526943 
L 309.862741 2.2109 
L 313.521605 3.610117 
L 317.18047 4.754398 
L 320.839335 5.674614 
L 324.498206 6.388326 
L 328.157071 6.857748 
L 330.901215 6.97803 
L 330.901215 6.97803 
L 333.60466 7.149406 
L 336.308099 7.461822 
L 337.659825 7.505997 
L 339.011544 7.400616 
L 340.363264 7.146745 
L 343.066709 6.313815 
L 347.121874 4.639438 
L 355.232198 1.125163 
L 359.287363 -0.321422 
L 361.557628 -1 
M 395.340309 -1 
L 395.783834 -0.68706 
L 397.135553 -0.014861 
L 398.487273 0.22464 
L 398.487273 0.22464 
" clip-path="url(#p8168de0c3e)" style="fill: none; stroke: #1f77b4; stroke-width: 1.5; stroke-linecap: square"/>
   </g>
   <g id="line2d_34">
    <path d="M 104.139246 -1 
L 105.847802 0.390162 
L 107.677231 1.673886 
L 109.506667 2.759623 
L 111.336096 3.658549 
L 113.165532 4.375987 
L 114.994961 4.915662 
L 116.824396 5.27651 
L 118.653825 5.457999 
L 119.568547 5.480352 
L 119.568547 5.480352 
L 120.698154 5.393599 
L 121.827767 5.133342 
L 122.957381 4.704902 
L 125.216602 3.447789 
L 128.605443 1.331134 
L 130.864664 0.15758 
L 133.437383 -1 
L 133.437383 -1 
" clip-path="url(#p8168de0c3e)" style="fill: none; stroke: #ff7f0e; stroke-width: 1.5; stroke-linecap: square"/>
   </g>
   <g id="line2d_35">
    <path d="M 0 0 
" clip-path="url(#p8168de0c3e)" style="fill: none; stroke: #2ca02c; stroke-width: 1.5; stroke-linecap: square"/>
   </g>
   <g id="line2d_36">
    <path d="M 0 0 
" clip-path="url(#p8168de0c3e)" style="fill: none; stroke: #d62728; stroke-width: 1.5; stroke-linecap: square"/>
   </g>
   <g id="line2d_37">
    <path d="M 0 0 
" clip-path="url(#p8168de0c3e)" style="fill: none; stroke: #9467bd; stroke-width: 1.5; stroke-linecap: square"/>
   </g>
   <g id="line2d_38">
    <path d="M 0 0 
" clip-path="url(#p8168de0c3e)" style="fill: none; stroke: #8c564b; stroke-width: 1.5; stroke-linecap: square"/>
   </g>
   <g id="line2d_39">
    <path d="M 0 0 
" clip-path="url(#p8168de0c3e)" style="fill: none; stroke: #e377c2; stroke-width: 1.5; stroke-linecap: square"/>
   </g>
   <g id="line2d_40">
    <path d="M 0 0 
" clip-path="url(#p8168de0c3e)" style="fill: none; stroke: #7f7f7f; stroke-width: 1.5; stroke-linecap: square"/>
   </g>
   <g id="line2d_41">
    <path d="M 0 0 
" clip-path="url(#p8168de0c3e)" style="fill: none; stroke: #bcbd22; stroke-width: 1.5; stroke-linecap: square"/>
   </g>
   <g id="line2d_42">
    <path d="M 0 0 
" clip-path="url(#p8168de0c3e)" style="fill: none; stroke: #17becf; stroke-width: 1.5; stroke-linecap: square"/>
   </g>
   <g id="line2d_43">
    <path d="M 0 0 
" clip-path="url(#p8168de0c3e)" style="fill: none; stroke: #1f77b4; stroke-width: 1.5; stroke-linecap: square"/>
   </g>
   <g id="line2d_44">
    <path d="M 0 0 
" clip-path="url(#p8168de0c3e)" style="fill: none; stroke: #ff7f0e; stroke-width: 1.5; stroke-linecap: square"/>
   </g>
   <g id="line2d_45">
    <path d="M 0 0 
" clip-path="url(#p8168de0c3e)" style="fill: none; stroke: #2ca02c; stroke-width: 1.5; stroke-linecap: square"/>
   </g>
   <g id="line2d_46">
    <path d="M 0 0 
" clip-path="url(#p8168de0c3e)" style="fill: none; stroke: #d62728; stroke-width: 1.5; stroke-linecap: square"/>
   </g>
   <g id="line2d_47">
    <path d="M 0 0 
" clip-path="url(#p8168de0c3e)" style="fill: none; stroke: #9467bd; stroke-width: 1.5; stroke-linecap: square"/>
   </g>
   <g id="line2d_48">
    <path d="M 0 0 
" clip-path="url(#p8168de0c3e)" style="fill: none; stroke: #8c564b; stroke-width: 1.5; stroke-linecap: square"/>
   </g>
   <g id="line2d_49">
    <path d="M 0 0 
" clip-path="url(#p8168de0c3e)" style="fill: none; stroke: #e377c2; stroke-width: 1.5; stroke-linecap: square"/>
   </g>
   <g id="line2d_50">
    <path d="M 0 0 
" clip-path="url(#p8168de0c3e)" style="fill: none; stroke: #7f7f7f; stroke-width: 1.5; stroke-linecap: square"/>
   </g>
   <g id="line2d_51">
    <path d="M 0 0 
" clip-path="url(#p8168de0c3e)" style="fill: none; stroke: #bcbd22; stroke-width: 1.5; stroke-linecap: square"/>
   </g>
   <g id="line2d_52">
    <path d="M 0 0 
" clip-path="url(#p8168de0c3e)" style="fill: none; stroke: #17becf; stroke-width: 1.5; stroke-linecap: square"/>
   </g>
   <g id="line2d_53">
    <path d="M 0 0 
" clip-path="url(#p8168de0c3e)" style="fill: none; stroke: #1f77b4; stroke-width: 1.5; stroke-linecap: square"/>
   </g>
   <g id="line2d_54">
    <path d="M 0 0 
" clip-path="url(#p8168de0c3e)" style="fill: none; stroke: #ff7f0e; stroke-width: 1.5; stroke-linecap: square"/>
   </g>
   <g id="line2d_55">
    <path d="M 0 0 
" clip-path="url(#p8168de0c3e)" style="fill: none; stroke: #2ca02c; stroke-width: 1.5; stroke-linecap: square"/>
   </g>
   <g id="line2d_56">
    <path d="M 0 0 
" clip-path="url(#p8168de0c3e)" style="fill: none; stroke: #d62728; stroke-width: 1.5; stroke-linecap: square"/>
   </g>
   <g id="line2d_57">
    <path d="M 0 0 
" clip-path="url(#p8168de0c3e)" style="fill: none; stroke: #9467bd; stroke-width: 1.5; stroke-linecap: square"/>
   </g>
   <g id="line2d_58">
    <path d="M 0 0 
" clip-path="url(#p8168de0c3e)" style="fill: none; stroke: #8c564b; stroke-width: 1.5; stroke-linecap: square"/>
   </g>
   <g id="line2d_59">
    <path d="M 0 0 
" clip-path="url(#p8168de0c3e)" style="fill: none; stroke: #e377c2; stroke-width: 1.5; stroke-linecap: square"/>
   </g>
   <g id="line2d_60">
    <path d="M 0 0 
" clip-path="url(#p8168de0c3e)" style="fill: none; stroke: #7f7f7f; stroke-width: 1.5; stroke-linecap: square"/>
   </g>
   <g id="patch_3">
    <path d="M 57.6 307.584 
L 57.6 41.472 
" style="fill: none; stroke: #000000; stroke-width: 0.8; stroke-linejoin: miter; stroke-linecap: square"/>
   </g>
   <g id="patch_4">
    <path d="M 414.72 307.584 
L 414.72 41.472 
" style="fill: none; stroke: #000000; stroke-width: 0.8; stroke-linejoin: miter; stroke-linecap: square"/>
   </g>
   <g id="patch_5">
    <path d="M 57.6 307.584 
L 414.72 307.584 
" style="fill: none; stroke: #000000; stroke-width: 0.8; stroke-linejoin: miter; stroke-linecap: square"/>
   </g>
   <g id="patch_6">
    <path d="M 57.6 41.472 
L 414.72 41.472 
" style="fill: none; stroke: #000000; stroke-width: 0.8; stroke-linejoin: miter; stroke-linecap: square"/>
   </g>
  </g>
 </g>
 <defs>
  <clipPath id="p8168de0c3e">
   <rect x="57.6" y="41.472" width="357.12" height="266.112"/>
  </clipPath>
 </defs>
</svg>
