<?xml version="1.0" encoding="utf-8" standalone="no"?>
<!DOCTYPE svg PUBLIC "-//W3C//DTD SVG 1.1//EN"
  "http://www.w3.org/Graphics/SVG/1.1/DTD/svg11.dtd">
<svg xmlns:xlink="http://www.w3.org/1999/xlink" width="345.6pt" height="345.6pt" viewBox="0 0 345.6 345.6" xmlns="http://www.w3.org/2000/svg" version="1.1">
 <metadata>
  <rdf:RDF xmlns:dc="http://purl.org/dc/elements/1.1/" xmlns:cc="http://creativecommons.org/ns#" xmlns:rdf="http://www.w3.org/1999/02/22-rdf-syntax-ns#">
   <cc:Work>
    <dc:type rdf:resource="http://purl.org/dc/dcmitype/StillImage"/>
    <dc:date>2024-06-23T11:02:12.796860</dc:date>
    <dc:format>image/svg+xml</dc:format>
    <dc:creator>
     <cc:Agent>
      <dc:title>Matplotlib v3.9.0, https://matplotlib.org/</dc:title>
     </cc:Agent>
    </dc:creator>
   </cc:Work>
  </rdf:RDF>
 </metadata>
 <defs>
  <style type="text/css">*{stroke-linejoin: round; stroke-linecap: butt}</style>
 </defs>
 <g id="figure_1">
  <g id="patch_1">
   <path d="M 0 345.6 
L 345.6 345.6 
L 345.6 0 
L 0 0 
z
" style="fill: #ffffff"/>
  </g>
  <g id="patch_2">
   <path d="M 44.064 307.584 
L 310.176 307.584 
L 310.176 41.472 
L 44.064 41.472 
z
" style="fill: #ffffff"/>
  </g>
  <g id="axes_1">
   <g id="line2d_1">
    <path d="M 93.272796 105.726465 
L 129.035105 145.888195 
L 129.035105 267.108387 
L 93.272796 226.946656 
L 93.272796 105.726465 
" clip-path="url(#p5cadda6922)" style="fill: none; stroke: #000000; stroke-width: 1.5; stroke-linecap: square"/>
   </g>
   <g id="line2d_2">
    <path d="M 129.035105 145.888195 
L 216.478417 150.483527 
L 216.478417 271.703718 
L 129.035105 267.108387 
L 129.035105 145.888195 
" clip-path="url(#p5cadda6922)" style="fill: none; stroke: #000000; stroke-width: 1.5; stroke-linecap: square"/>
   </g>
   <g id="line2d_3">
    <path d="M 268.15942 236.137319 
L 216.478417 271.703718 
L 216.478417 150.483527 
L 268.15942 114.917127 
L 268.15942 236.137319 
" clip-path="url(#p5cadda6922)" style="fill: none; stroke: #000000; stroke-width: 1.5; stroke-linecap: square"/>
   </g>
   <g id="line2d_4">
    <path d="M 144.953799 70.160066 
L 93.272796 105.726465 
L 129.035105 145.888195 
L 216.478417 150.483527 
L 268.15942 114.917127 
L 232.397111 74.755397 
L 144.953799 70.160066 
" clip-path="url(#p5cadda6922)" style="fill: none; stroke: #000000; stroke-width: 1.5; stroke-linecap: square"/>
   </g>
   <g id="line2d_5">
    <path d="M 268.15942 236.137319 
L 216.478417 271.703718 
L 129.035105 267.108387 
L 93.272796 226.946656 
L 144.953799 191.380257 
L 232.397111 195.975588 
L 268.15942 236.137319 
" clip-path="url(#p5cadda6922)" style="fill: none; stroke-dasharray: 1.5,2.475; stroke-dashoffset: 0; stroke: #000000; stroke-width: 1.5"/>
   </g>
   <g id="line2d_6">
    <path d="M 144.953799 70.160066 
L 232.397111 74.755397 
L 232.397111 195.975588 
L 144.953799 191.380257 
L 144.953799 70.160066 
" clip-path="url(#p5cadda6922)" style="fill: none; stroke-dasharray: 1.5,2.475; stroke-dashoffset: 0; stroke: #000000; stroke-width: 1.5"/>
   </g>
   <g id="line2d_7">
    <path d="M 144.953799 70.160066 
L 93.272796 105.726465 
L 93.272796 226.946656 
L 144.953799 191.380257 
L 144.953799 70.160066 
" clip-path="url(#p5cadda6922)" style="fill: none; stroke-dasharray: 1.5,2.475; stroke-dashoffset: 0; stroke: #000000; stroke-width: 1.5"/>
   </g>
   <g id="line2d_8">
    <path d="M 268.15942 114.917127 
L 232.397111 74.755397 
L 232.397111 195.975588 
L 268.15942 236.137319 
L 268.15942 114.917127 
" clip-path="url(#p5cadda6922)" style="fill: none; stroke-dasharray: 1.5,2.475; stroke-dashoffset: 0; stroke: #000000; stroke-width: 1.5"/>
   </g>
   <g id="line2d_9">
    <path d="M 180.716108 170.931892 
L 180.716108 110.321796 
L 129.035105 206.498291 
L 129.035105 145.888195 
L 111.15395 186.417426 
L 111.15395 125.80733 
L 180.716108 170.931892 
" clip-path="url(#p5cadda6922)" style="fill: none; stroke: #ff0000; stroke-width: 1.5; stroke-linecap: square"/>
   </g>
   <g id="patch_3">
    <path d="M 178.767315 171.365721 
Q 111.157047 186.416737 44.638098 201.224809 
" clip-path="url(#p5cadda6922)" style="fill: none; stroke: #000000; stroke-linecap: round"/>
    <path d="M 53.316126 203.390871 
L 44.638098 201.224809 
L 51.577765 195.582023 
z
" clip-path="url(#p5cadda6922)" style="stroke: #000000; stroke-linecap: round"/>
   </g>
   <g id="Path3DCollection_1">
    <defs>
     <path id="C0_0_e1203dc29f" d="M 0 1.118034 
C 0.296506 1.118034 0.580908 1.000231 0.790569 0.790569 
C 1.000231 0.580908 1.118034 0.296506 1.118034 -0 
C 1.118034 -0.296506 1.000231 -0.580908 0.790569 -0.790569 
C 0.580908 -1.000231 0.296506 -1.118034 0 -1.118034 
C -0.296506 -1.118034 -0.580908 -1.000231 -0.790569 -0.790569 
C -1.000231 -0.580908 -1.118034 -0.296506 -1.118034 0 
C -1.118034 0.296506 -1.000231 0.580908 -0.790569 0.790569 
C -0.580908 1.000231 -0.296506 1.118034 0 1.118034 
z
"/>
    </defs>
    <g clip-path="url(#p5cadda6922)">
     <use xlink:href="#C0_0_e1203dc29f" x="180.716108" y="170.931892" style="fill: #0000ff; fill-opacity: 0.3; stroke: #0000ff; stroke-opacity: 0.3"/>
    </g>
    <g clip-path="url(#p5cadda6922)">
     <use xlink:href="#C0_0_e1203dc29f" x="180.716108" y="170.931892" style="fill: #0000ff; fill-opacity: 0.3; stroke: #0000ff; stroke-opacity: 0.3"/>
    </g>
    <g clip-path="url(#p5cadda6922)">
     <use xlink:href="#C0_0_e1203dc29f" x="111.15395" y="186.417426" style="fill: #0000ff; fill-opacity: 0.494368; stroke: #0000ff; stroke-opacity: 0.494368"/>
    </g>
    <g clip-path="url(#p5cadda6922)">
     <use xlink:href="#C0_0_e1203dc29f" x="180.716108" y="110.321796" style="fill: #0000ff; fill-opacity: 0.553585; stroke: #0000ff; stroke-opacity: 0.553585"/>
    </g>
    <g clip-path="url(#p5cadda6922)">
     <use xlink:href="#C0_0_e1203dc29f" x="129.035105" y="206.498291" style="fill: #0000ff; fill-opacity: 0.746415; stroke: #0000ff; stroke-opacity: 0.746415"/>
    </g>
    <g clip-path="url(#p5cadda6922)">
     <use xlink:href="#C0_0_e1203dc29f" x="111.15395" y="125.80733" style="fill: #0000ff; fill-opacity: 0.747953; stroke: #0000ff; stroke-opacity: 0.747953"/>
    </g>
    <g clip-path="url(#p5cadda6922)">
     <use xlink:href="#C0_0_e1203dc29f" x="129.035105" y="145.888195" style="fill: #0000ff; stroke: #0000ff"/>
    </g>
   </g>
   <g id="text_1">
    <!-- $\mathrm{\Gamma}$ -->
    <g style="fill: #008000" transform="translate(177.916108 168.852204) scale(0.1 -0.1)">
     <defs>
      <path id="DejaVuSans-393" d="M 628 0 
L 628 4666 
L 3531 4666 
L 3531 4134 
L 1259 4134 
L 1259 0 
L 628 0 
z
" transform="scale(0.015625)"/>
     </defs>
     <use xlink:href="#DejaVuSans-393" transform="translate(0 0.09375)"/>
    </g>
   </g>
   <g id="text_2">
    <!-- $\mathrm{A}$ -->
    <g style="fill: #008000" transform="translate(177.266108 108.242109) scale(0.1 -0.1)">
     <defs>
      <path id="DejaVuSans-41" d="M 2188 4044 
L 1331 1722 
L 3047 1722 
L 2188 4044 
z
M 1831 4666 
L 2547 4666 
L 4325 0 
L 3669 0 
L 3244 1197 
L 1141 1197 
L 716 0 
L 50 0 
L 1831 4666 
z
" transform="scale(0.015625)"/>
     </defs>
     <use xlink:href="#DejaVuSans-41" transform="translate(0 0.09375)"/>
    </g>
   </g>
   <g id="text_3">
    <!-- $\mathrm{K}$ -->
    <g style="fill: #008000" transform="translate(125.735105 204.418604) scale(0.1 -0.1)">
     <defs>
      <path id="DejaVuSans-4b" d="M 628 4666 
L 1259 4666 
L 1259 2694 
L 3353 4666 
L 4166 4666 
L 1850 2491 
L 4331 0 
L 3500 0 
L 1259 2247 
L 1259 0 
L 628 0 
L 628 4666 
z
" transform="scale(0.015625)"/>
     </defs>
     <use xlink:href="#DejaVuSans-4b" transform="translate(0 0.09375)"/>
    </g>
   </g>
   <g id="text_4">
    <!-- $\mathrm{H}$ -->
    <g style="fill: #008000" transform="translate(125.235105 143.808508) scale(0.1 -0.1)">
     <defs>
      <path id="DejaVuSans-48" d="M 628 4666 
L 1259 4666 
L 1259 2753 
L 3553 2753 
L 3553 4666 
L 4184 4666 
L 4184 0 
L 3553 0 
L 3553 2222 
L 1259 2222 
L 1259 0 
L 628 0 
L 628 4666 
z
" transform="scale(0.015625)"/>
     </defs>
     <use xlink:href="#DejaVuSans-48" transform="translate(0 0.09375)"/>
    </g>
   </g>
   <g id="text_5">
    <!-- $\mathrm{M}$ -->
    <g style="fill: #008000" transform="translate(106.80395 184.337738) scale(0.1 -0.1)">
     <defs>
      <path id="DejaVuSans-4d" d="M 628 4666 
L 1569 4666 
L 2759 1491 
L 3956 4666 
L 4897 4666 
L 4897 0 
L 4281 0 
L 4281 4097 
L 3078 897 
L 2444 897 
L 1241 4097 
L 1241 0 
L 628 0 
L 628 4666 
z
" transform="scale(0.015625)"/>
     </defs>
     <use xlink:href="#DejaVuSans-4d" transform="translate(0 0.09375)"/>
    </g>
   </g>
   <g id="text_6">
    <!-- $\mathrm{L}$ -->
    <g style="fill: #008000" transform="translate(108.35395 123.727643) scale(0.1 -0.1)">
     <defs>
      <path id="DejaVuSans-4c" d="M 628 4666 
L 1259 4666 
L 1259 531 
L 3531 531 
L 3531 0 
L 628 0 
L 628 4666 
z
" transform="scale(0.015625)"/>
     </defs>
     <use xlink:href="#DejaVuSans-4c" transform="translate(0 0.09375)"/>
    </g>
   </g>
   <g id="text_7">
    <!-- $\mathrm{\Gamma}$ -->
    <g style="fill: #008000" transform="translate(177.916108 168.852204) scale(0.1 -0.1)">
     <use xlink:href="#DejaVuSans-393" transform="translate(0 0.09375)"/>
    </g>
   </g>
   <g id="patch_4">
    <path d="M 181.127095 168.976753 
Q 188.675082 133.069605 195.993075 98.256579 
" clip-path="url(#p5cadda6922)" style="fill: none; stroke: #000000; stroke-linecap: round"/>
    <path d="M 190.432924 105.262628 
L 195.993075 98.256579 
L 198.261823 106.908329 
z
" clip-path="url(#p5cadda6922)" style="stroke: #000000; stroke-linecap: round"/>
   </g>
   <g id="patch_5">
    <path d="M 180.716108 172.933238 
Q 180.716108 231.543956 180.716108 289.036639 
" clip-path="url(#p5cadda6922)" style="fill: none; stroke: #000000; stroke-linecap: round"/>
    <path d="M 184.716108 281.036639 
L 180.716108 289.036639 
L 176.716108 281.036639 
z
" clip-path="url(#p5cadda6922)" style="stroke: #000000; stroke-linecap: round"/>
   </g>
  </g>
 </g>
 <defs>
  <clipPath id="p5cadda6922">
   <rect x="44.064" y="41.472" width="266.112" height="266.112"/>
  </clipPath>
 </defs>
</svg>
