<?xml version="1.0" encoding="UTF-8" standalone="no"?>
<!-- Created with Inkscape (http://www.inkscape.org/) -->

<svg
   width="157.74409mm"
   height="99.487068mm"
   viewBox="0 0 157.74409 99.487069"
   version="1.1"
   id="svg1"
   xml:space="preserve"
   inkscape:version="1.3.2 (091e20ef0f, 2023-11-25, custom)"
   sodipodi:docname="combined.svg"
   xmlns:inkscape="http://www.inkscape.org/namespaces/inkscape"
   xmlns:sodipodi="http://sodipodi.sourceforge.net/DTD/sodipodi-0.dtd"
   xmlns:xlink="http://www.w3.org/1999/xlink"
   xmlns="http://www.w3.org/2000/svg"
   xmlns:svg="http://www.w3.org/2000/svg"><sodipodi:namedview
     id="namedview1"
     pagecolor="#ffffff"
     bordercolor="#000000"
     borderopacity="0.25"
     inkscape:showpageshadow="2"
     inkscape:pageopacity="0.0"
     inkscape:pagecheckerboard="0"
     inkscape:deskcolor="#d1d1d1"
     inkscape:document-units="mm"
     inkscape:zoom="1.4142136"
     inkscape:cx="553.31104"
     inkscape:cy="129.40054"
     inkscape:window-width="1558"
     inkscape:window-height="1080"
     inkscape:window-x="0"
     inkscape:window-y="0"
     inkscape:window-maximized="0"
     inkscape:current-layer="layer1" /><defs
     id="defs1"><style
       type="text/css"
       id="style1">*{stroke-linejoin: round; stroke-linecap: butt}</style><path
       id="md52924219e"
       d="M 0,0 V 3.5"
       style="stroke:#000000;stroke-width:0.8" /><path
       id="DejaVuSans-47"
       d="M 3809,666 V 1919 H 2778 v 519 H 4434 V 434 Q 4069,175 3628,42 3188,-91 2688,-91 1594,-91 976,548 359,1188 359,2328 q 0,1144 617,1783 618,639 1712,639 456,0 867,-113 411,-112 758,-331 v -672 q -350,297 -744,447 -394,150 -828,150 -857,0 -1287,-478 -429,-478 -429,-1425 0,-944 429,-1422 430,-478 1287,-478 334,0 596,58 263,58 472,180 z"
       transform="scale(0.015625)" /><path
       id="DejaVuSans-41"
       d="M 2188,4044 1331,1722 h 1716 z m -357,622 h 716 L 4325,0 H 3669 L 3244,1197 H 1141 L 716,0 H 50 Z"
       transform="scale(0.015625)" /><path
       id="DejaVuSans-4b"
       d="m 628,4666 h 631 V 2694 l 2094,1972 h 813 L 1850,2491 4331,0 H 3500 L 1259,2247 V 0 H 628 Z"
       transform="scale(0.015625)" /><path
       id="DejaVuSans-48"
       d="m 628,4666 h 631 V 2753 h 2294 v 1913 h 631 V 0 H 3553 V 2222 H 1259 V 0 H 628 Z"
       transform="scale(0.015625)" /><path
       id="DejaVuSans-4d"
       d="m 628,4666 h 941 L 2759,1491 3956,4666 h 941 V 0 H 4281 V 4097 L 3078,897 H 2444 L 1241,4097 V 0 H 628 Z"
       transform="scale(0.015625)" /><path
       id="DejaVuSans-4c"
       d="m 628,4666 h 631 V 531 H 3531 V 0 H 628 Z"
       transform="scale(0.015625)" /><path
       id="m4b5b551710"
       d="M 0,0 H -3.5"
       style="stroke:#000000;stroke-width:0.8" /><path
       id="DejaVuSans-30"
       d="m 2034,4250 q -487,0 -733,-480 -245,-479 -245,-1442 0,-959 245,-1439 246,-480 733,-480 491,0 736,480 246,480 246,1439 0,963 -246,1442 -245,480 -736,480 z m 0,500 q 785,0 1199,-621 414,-620 414,-1801 0,-1178 -414,-1799 -414,-620 -1199,-620 -784,0 -1198,620 -414,621 -414,1799 0,1181 414,1801 414,621 1198,621 z"
       transform="scale(0.015625)" /><path
       id="DejaVuSans-32"
       d="M 1228,531 H 3431 V 0 H 469 v 531 q 359,372 979,998 621,627 780,809 303,340 423,576 121,236 121,464 0,372 -261,606 -261,235 -680,235 -297,0 -627,-103 -329,-103 -704,-313 v 638 q 381,153 712,231 332,78 607,78 725,0 1156,-363 431,-362 431,-968 0,-288 -108,-546 -107,-257 -392,-607 -78,-91 -497,-524 Q 1991,1309 1228,531 Z"
       transform="scale(0.015625)" /><path
       id="DejaVuSans-34"
       d="M 2419,4116 825,1625 h 1594 z m -166,550 h 794 V 1625 h 666 V 1100 H 3047 V 0 H 2419 V 1100 H 313 v 609 z"
       transform="scale(0.015625)" /><path
       id="DejaVuSans-36"
       d="m 2113,2584 q -425,0 -674,-291 -248,-290 -248,-796 0,-503 248,-796 249,-292 674,-292 425,0 673,292 248,293 248,796 0,506 -248,796 -248,291 -673,291 z m 1253,1979 v -575 q -238,112 -480,171 -242,60 -480,60 -625,0 -955,-422 -329,-422 -376,-1275 184,272 462,417 279,145 613,145 703,0 1111,-427 408,-426 408,-1160 0,-719 -425,-1154 -425,-434 -1131,-434 -810,0 -1238,620 -428,621 -428,1799 0,1106 525,1764 525,658 1409,658 238,0 480,-47 242,-47 505,-140 z"
       transform="scale(0.015625)" /><path
       id="DejaVuSans-38"
       d="m 2034,2216 q -450,0 -708,-241 -257,-241 -257,-662 0,-422 257,-663 258,-241 708,-241 450,0 709,242 260,243 260,662 0,421 -258,662 -257,241 -711,241 z m -631,268 q -406,100 -633,378 -226,279 -226,679 0,559 398,884 399,325 1092,325 697,0 1094,-325 397,-325 397,-884 0,-400 -227,-679 -226,-278 -629,-378 456,-106 710,-416 255,-309 255,-755 Q 3634,634 3220,271 2806,-91 2034,-91 1263,-91 848,271 434,634 434,1313 q 0,446 256,755 257,310 713,416 z m -231,997 q 0,-362 226,-565 227,-203 636,-203 407,0 636,203 230,203 230,565 0,363 -230,566 -229,203 -636,203 -409,0 -636,-203 -226,-203 -226,-566 z"
       transform="scale(0.015625)" /><path
       id="DejaVuSans-31"
       d="M 794,531 H 1825 V 4091 L 703,3866 v 575 l 1116,225 h 631 V 531 H 3481 V 0 H 794 Z"
       transform="scale(0.015625)" /><path
       id="DejaVuSans-46"
       d="M 628,4666 H 3309 V 4134 H 1259 V 2759 H 3109 V 2228 H 1259 V 0 H 628 Z"
       transform="scale(0.015625)" /><path
       id="DejaVuSans-72"
       d="m 2631,2963 q -97,56 -211,82 -114,27 -251,27 -488,0 -749,-317 -261,-317 -261,-911 V 0 H 581 v 3500 h 578 v -544 q 182,319 472,473 291,155 707,155 59,0 131,-8 72,-7 159,-23 z"
       transform="scale(0.015625)" /><path
       id="DejaVuSans-65"
       d="M 3597,1894 V 1613 H 953 q 38,-594 358,-905 320,-311 892,-311 331,0 642,81 311,81 618,244 V 178 Q 3153,47 2828,-22 2503,-91 2169,-91 1331,-91 842,396 353,884 353,1716 q 0,859 464,1363 464,505 1252,505 706,0 1117,-455 411,-454 411,-1235 z m -575,169 q -6,471 -264,752 -258,282 -683,282 -481,0 -770,-272 -289,-272 -333,-766 z"
       transform="scale(0.015625)" /><path
       id="DejaVuSans-71"
       d="m 947,1747 q 0,-634 261,-995 261,-361 717,-361 456,0 718,361 263,361 263,995 0,634 -263,995 -262,361 -718,361 -456,0 -717,-361 Q 947,2381 947,1747 Z M 2906,525 Q 2725,213 2448,61 2172,-91 1784,-91 1150,-91 751,415 353,922 353,1747 q 0,825 398,1331 399,506 1033,506 388,0 664,-152 277,-151 458,-463 v 531 h 575 v -4831 h -575 z"
       transform="scale(0.015625)" /><path
       id="DejaVuSans-75"
       d="m 544,1381 v 2119 h 575 V 1403 q 0,-497 193,-746 194,-248 582,-248 465,0 735,297 271,297 271,810 v 1984 h 575 V 0 H 2900 V 538 Q 2691,219 2414,64 2138,-91 1772,-91 1169,-91 856,284 544,659 544,1381 Z m 1447,2203 z"
       transform="scale(0.015625)" /><path
       id="DejaVuSans-6e"
       d="M 3513,2113 V 0 h -575 v 2094 q 0,497 -194,743 -194,247 -581,247 -466,0 -735,-297 -269,-296 -269,-809 V 0 H 581 v 3500 h 578 v -544 q 207,316 486,472 280,156 646,156 603,0 912,-373 310,-373 310,-1098 z"
       transform="scale(0.015625)" /><path
       id="DejaVuSans-7a"
       d="M 353,3500 H 3084 V 2975 L 922,459 H 3084 V 0 H 275 V 525 L 2438,3041 H 353 Z"
       transform="scale(0.015625)" /><path
       id="DejaVuSans-61"
       d="m 2194,1759 q -697,0 -966,-159 -269,-159 -269,-544 0,-306 202,-486 202,-179 548,-179 479,0 768,339 289,339 289,901 v 128 z m 1147,238 V 0 H 2766 V 531 Q 2569,213 2275,61 1981,-91 1556,-91 q -537,0 -855,302 -317,302 -317,808 0,590 395,890 396,300 1180,300 h 807 v 57 q 0,397 -261,614 -261,217 -733,217 -300,0 -585,-72 -284,-72 -546,-216 v 532 q 315,122 612,182 297,61 578,61 760,0 1135,-394 375,-393 375,-1193 z"
       transform="scale(0.015625)" /><path
       id="DejaVuSans-20"
       transform="scale(0.015625)"
       d="" /><path
       id="DejaVuSans-28"
       d="m 1984,4856 q -418,-718 -622,-1422 -203,-703 -203,-1425 0,-721 205,-1429 205,-708 620,-1424 h -500 q -468,735 -701,1444 -233,709 -233,1409 0,697 231,1403 232,707 703,1444 z"
       transform="scale(0.015625)" /><path
       id="DejaVuSans-54"
       d="M -19,4666 H 3928 V 4134 H 2272 V 0 H 1638 V 4134 H -19 Z"
       transform="scale(0.015625)" /><path
       id="DejaVuSans-29"
       d="m 513,4856 h 500 q 468,-737 701,-1444 233,-706 233,-1403 0,-700 -233,-1409 -233,-709 -701,-1444 H 513 q 415,716 620,1424 205,708 205,1429 0,722 -205,1425 -205,704 -620,1422 z"
       transform="scale(0.015625)" /><clipPath
       id="p4673ba2d22"><rect
         x="40.603127"
         y="7.1999998"
         width="357.12"
         height="266.112"
         id="rect95" /></clipPath><style
       type="text/css"
       id="style1-7">*{stroke-linejoin: round; stroke-linecap: butt}</style><clipPath
       id="p4ddf995f0f"><rect
         x="7.1999998"
         y="7.1999998"
         width="334.79999"
         height="55.439999"
         id="rect7" /></clipPath></defs><g
     inkscape:label="Livello 1"
     inkscape:groupmode="layer"
     id="layer1"
     transform="translate(-24.569289,-101.80794)"><g
       id="figure_1"
       transform="matrix(0.35277778,0,0,0.35277778,22.02543,99.409719)"
       inkscape:label="figure_1 band"><g
         id="axes_1"><g
           id="patch_2"><path
             d="M 40.603125,273.312 H 397.72312 V 7.2 H 40.603125 Z"
             style="fill:#ffffff"
             id="path2" /></g><g
           id="matplotlib.axis_1"><g
             id="xtick_1"><g
               id="line2d_1"><path
                 d="M 56.835852,273.312 V 7.2"
                 clip-path="url(#p4673ba2d22)"
                 style="fill:none;stroke:#b0b0b0;stroke-width:0.8;stroke-linecap:square"
                 id="path3" /></g><g
               id="line2d_2"><defs
                 id="defs3"><path
                   id="path4"
                   d="M 0,0 V 3.5"
                   style="stroke:#000000;stroke-width:0.8" /></defs><g
                 id="g3"><use
                   xlink:href="#md52924219e"
                   x="56.835854"
                   y="273.31201"
                   style="stroke:#000000;stroke-width:0.8"
                   id="use3" /></g></g><g
               id="text_1"><!-- G --><g
                 transform="matrix(0.1,0,0,-0.1,52.961634,287.91044)"
                 id="g4"><defs
                   id="defs4"><path
                     id="path5"
                     d="M 3809,666 V 1919 H 2778 v 519 H 4434 V 434 Q 4069,175 3628,42 3188,-91 2688,-91 1594,-91 976,548 359,1188 359,2328 q 0,1144 617,1783 618,639 1712,639 456,0 867,-113 411,-112 758,-331 v -672 q -350,297 -744,447 -394,150 -828,150 -857,0 -1287,-478 -429,-478 -429,-1425 0,-944 429,-1422 430,-478 1287,-478 334,0 596,58 263,58 472,180 z"
                     transform="scale(0.015625)" /></defs><use
                   xlink:href="#DejaVuSans-47"
                   id="use4" /></g></g></g><g
             id="xtick_2"><g
               id="line2d_3"><path
                 d="M 101.96406,273.312 V 7.2"
                 clip-path="url(#p4673ba2d22)"
                 style="fill:none;stroke:#b0b0b0;stroke-width:0.8;stroke-linecap:square"
                 id="path6" /></g><g
               id="line2d_4"><g
                 id="g5"><use
                   xlink:href="#md52924219e"
                   x="101.96406"
                   y="273.31201"
                   style="stroke:#000000;stroke-width:0.8"
                   id="use5" /></g></g><g
               id="text_2"><!-- A --><g
                 transform="matrix(0.1,0,0,-0.1,98.543745,287.91044)"
                 id="g6"><defs
                   id="defs5"><path
                     id="path7"
                     d="M 2188,4044 1331,1722 h 1716 z m -357,622 h 716 L 4325,0 H 3669 L 3244,1197 H 1141 L 716,0 H 50 Z"
                     transform="scale(0.015625)" /></defs><use
                   xlink:href="#DejaVuSans-41"
                   id="use6" /></g></g></g><g
             id="xtick_3"><g
               id="line2d_5"><path
                 d="M 174.43299,273.312 V 7.2"
                 clip-path="url(#p4673ba2d22)"
                 style="fill:none;stroke:#b0b0b0;stroke-width:0.8;stroke-linecap:square"
                 id="path8" /></g><g
               id="line2d_6"><g
                 id="g7"><use
                   xlink:href="#md52924219e"
                   x="174.433"
                   y="273.31201"
                   style="stroke:#000000;stroke-width:0.8"
                   id="use7" /></g></g><g
               id="text_3"><!-- K --><g
                 transform="matrix(0.1,0,0,-0.1,171.15409,287.91044)"
                 id="g8"><defs
                   id="defs7"><path
                     id="path9"
                     d="m 628,4666 h 631 V 2694 l 2094,1972 h 813 L 1850,2491 4331,0 H 3500 L 1259,2247 V 0 H 628 Z"
                     transform="scale(0.015625)" /></defs><use
                   xlink:href="#DejaVuSans-4b"
                   id="use8" /></g></g></g><g
             id="xtick_4"><g
               id="line2d_7"><path
                 d="M 219.5612,273.312 V 7.2"
                 clip-path="url(#p4673ba2d22)"
                 style="fill:none;stroke:#b0b0b0;stroke-width:0.8;stroke-linecap:square"
                 id="path10" /></g><g
               id="line2d_8"><g
                 id="g9"><use
                   xlink:href="#md52924219e"
                   x="219.5612"
                   y="273.31201"
                   style="stroke:#000000;stroke-width:0.8"
                   id="use9" /></g></g><g
               id="text_4"><!-- H --><g
                 transform="matrix(0.1,0,0,-0.1,215.80104,287.91044)"
                 id="g10"><defs
                   id="defs9"><path
                     id="path11"
                     d="m 628,4666 h 631 V 2753 h 2294 v 1913 h 631 V 0 H 3553 V 2222 H 1259 V 0 H 628 Z"
                     transform="scale(0.015625)" /></defs><use
                   xlink:href="#DejaVuSans-48"
                   id="use10" /></g></g></g><g
             id="xtick_5"><g
               id="line2d_9"><path
                 d="M 272.85832,273.312 V 7.2"
                 clip-path="url(#p4673ba2d22)"
                 style="fill:none;stroke:#b0b0b0;stroke-width:0.8;stroke-linecap:square"
                 id="path12" /></g><g
               id="line2d_10"><g
                 id="g11"><use
                   xlink:href="#md52924219e"
                   x="272.85831"
                   y="273.31201"
                   style="stroke:#000000;stroke-width:0.8"
                   id="use11" /></g></g><g
               id="text_5"><!-- M --><g
                 transform="matrix(0.1,0,0,-0.1,268.54426,287.91044)"
                 id="g12"><defs
                   id="defs11"><path
                     id="path13"
                     d="m 628,4666 h 941 L 2759,1491 3956,4666 h 941 V 0 H 4281 V 4097 L 3078,897 H 2444 L 1241,4097 V 0 H 628 Z"
                     transform="scale(0.015625)" /></defs><use
                   xlink:href="#DejaVuSans-4d"
                   id="use12" /></g></g></g><g
             id="xtick_6"><g
               id="line2d_11"><path
                 d="M 317.98652,273.312 V 7.2"
                 clip-path="url(#p4673ba2d22)"
                 style="fill:none;stroke:#b0b0b0;stroke-width:0.8;stroke-linecap:square"
                 id="path14" /></g><g
               id="line2d_12"><g
                 id="g13"><use
                   xlink:href="#md52924219e"
                   x="317.98651"
                   y="273.31201"
                   style="stroke:#000000;stroke-width:0.8"
                   id="use13" /></g></g><g
               id="text_6"><!-- L --><g
                 transform="matrix(0.1,0,0,-0.1,315.20059,287.91044)"
                 id="g14"><defs
                   id="defs13"><path
                     id="path15"
                     d="m 628,4666 h 631 V 531 H 3531 V 0 H 628 Z"
                     transform="scale(0.015625)" /></defs><use
                   xlink:href="#DejaVuSans-4c"
                   id="use14" /></g></g></g><g
             id="xtick_7"><g
               id="line2d_13"><path
                 d="M 384.67649,273.312 V 7.2"
                 clip-path="url(#p4673ba2d22)"
                 style="fill:none;stroke:#b0b0b0;stroke-width:0.8;stroke-linecap:square"
                 id="path16" /></g><g
               id="line2d_14"><g
                 id="g15"><use
                   xlink:href="#md52924219e"
                   x="384.67648"
                   y="273.31201"
                   style="stroke:#000000;stroke-width:0.8"
                   id="use15" /></g></g><g
               id="text_7"><!-- G --><g
                 transform="matrix(0.1,0,0,-0.1,380.80227,287.91044)"
                 id="g16"><use
                   xlink:href="#DejaVuSans-47"
                   id="use16" /></g></g></g></g><g
           id="matplotlib.axis_2"><g
             id="ytick_1"><g
               id="line2d_15"><defs
                 id="defs16"><path
                   id="path17"
                   d="M 0,0 H -3.5"
                   style="stroke:#000000;stroke-width:0.8" /></defs><g
                 id="g17"><use
                   xlink:href="#m4b5b551710"
                   x="40.603127"
                   y="261.74191"
                   style="stroke:#000000;stroke-width:0.8"
                   id="use17" /></g></g><g
               id="text_8"><!-- 0 --><g
                 transform="matrix(0.1,0,0,-0.1,27.240625,265.54113)"
                 id="g18"><defs
                   id="defs17"><path
                     id="path18"
                     d="m 2034,4250 q -487,0 -733,-480 -245,-479 -245,-1442 0,-959 245,-1439 246,-480 733,-480 491,0 736,480 246,480 246,1439 0,963 -246,1442 -245,480 -736,480 z m 0,500 q 785,0 1199,-621 414,-620 414,-1801 0,-1178 -414,-1799 -414,-620 -1199,-620 -784,0 -1198,620 -414,621 -414,1799 0,1181 414,1801 414,621 1198,621 z"
                     transform="scale(0.015625)" /></defs><use
                   xlink:href="#DejaVuSans-30"
                   id="use18" /></g></g></g><g
             id="ytick_2"><g
               id="line2d_16"><g
                 id="g19"><use
                   xlink:href="#m4b5b551710"
                   x="40.603127"
                   y="215.46156"
                   style="stroke:#000000;stroke-width:0.8"
                   id="use19" /></g></g><g
               id="text_9"><!-- 2 --><g
                 transform="matrix(0.1,0,0,-0.1,27.240625,219.26078)"
                 id="g20"><defs
                   id="defs19"><path
                     id="path19"
                     d="M 1228,531 H 3431 V 0 H 469 v 531 q 359,372 979,998 621,627 780,809 303,340 423,576 121,236 121,464 0,372 -261,606 -261,235 -680,235 -297,0 -627,-103 -329,-103 -704,-313 v 638 q 381,153 712,231 332,78 607,78 725,0 1156,-363 431,-362 431,-968 0,-288 -108,-546 -107,-257 -392,-607 -78,-91 -497,-524 Q 1991,1309 1228,531 Z"
                     transform="scale(0.015625)" /></defs><use
                   xlink:href="#DejaVuSans-32"
                   id="use20" /></g></g></g><g
             id="ytick_3"><g
               id="line2d_17"><g
                 id="g21"><use
                   xlink:href="#m4b5b551710"
                   x="40.603127"
                   y="169.18121"
                   style="stroke:#000000;stroke-width:0.8"
                   id="use21" /></g></g><g
               id="text_10"><!-- 4 --><g
                 transform="matrix(0.1,0,0,-0.1,27.240625,172.98044)"
                 id="g22"><defs
                   id="defs21"><path
                     id="path20"
                     d="M 2419,4116 825,1625 h 1594 z m -166,550 h 794 V 1625 h 666 V 1100 H 3047 V 0 H 2419 V 1100 H 313 v 609 z"
                     transform="scale(0.015625)" /></defs><use
                   xlink:href="#DejaVuSans-34"
                   id="use22" /></g></g></g><g
             id="ytick_4"><g
               id="line2d_18"><g
                 id="g23"><use
                   xlink:href="#m4b5b551710"
                   x="40.603127"
                   y="122.90087"
                   style="stroke:#000000;stroke-width:0.8"
                   id="use23" /></g></g><g
               id="text_11"><!-- 6 --><g
                 transform="matrix(0.1,0,0,-0.1,27.240625,126.70009)"
                 id="g24"><defs
                   id="defs23"><path
                     id="path21"
                     d="m 2113,2584 q -425,0 -674,-291 -248,-290 -248,-796 0,-503 248,-796 249,-292 674,-292 425,0 673,292 248,293 248,796 0,506 -248,796 -248,291 -673,291 z m 1253,1979 v -575 q -238,112 -480,171 -242,60 -480,60 -625,0 -955,-422 -329,-422 -376,-1275 184,272 462,417 279,145 613,145 703,0 1111,-427 408,-426 408,-1160 0,-719 -425,-1154 -425,-434 -1131,-434 -810,0 -1238,620 -428,621 -428,1799 0,1106 525,1764 525,658 1409,658 238,0 480,-47 242,-47 505,-140 z"
                     transform="scale(0.015625)" /></defs><use
                   xlink:href="#DejaVuSans-36"
                   id="use24" /></g></g></g><g
             id="ytick_5"><g
               id="line2d_19"><g
                 id="g25"><use
                   xlink:href="#m4b5b551710"
                   x="40.603127"
                   y="76.620522"
                   style="stroke:#000000;stroke-width:0.8"
                   id="use25" /></g></g><g
               id="text_12"><!-- 8 --><g
                 transform="matrix(0.1,0,0,-0.1,27.240625,80.41974)"
                 id="g26"><defs
                   id="defs25"><path
                     id="path22"
                     d="m 2034,2216 q -450,0 -708,-241 -257,-241 -257,-662 0,-422 257,-663 258,-241 708,-241 450,0 709,242 260,243 260,662 0,421 -258,662 -257,241 -711,241 z m -631,268 q -406,100 -633,378 -226,279 -226,679 0,559 398,884 399,325 1092,325 697,0 1094,-325 397,-325 397,-884 0,-400 -227,-679 -226,-278 -629,-378 456,-106 710,-416 255,-309 255,-755 Q 3634,634 3220,271 2806,-91 2034,-91 1263,-91 848,271 434,634 434,1313 q 0,446 256,755 257,310 713,416 z m -231,997 q 0,-362 226,-565 227,-203 636,-203 407,0 636,203 230,203 230,565 0,363 -230,566 -229,203 -636,203 -409,0 -636,-203 -226,-203 -226,-566 z"
                     transform="scale(0.015625)" /></defs><use
                   xlink:href="#DejaVuSans-38"
                   id="use26" /></g></g></g><g
             id="ytick_6"><g
               id="line2d_20"><g
                 id="g27"><use
                   xlink:href="#m4b5b551710"
                   x="40.603127"
                   y="30.340174"
                   style="stroke:#000000;stroke-width:0.8"
                   id="use27" /></g></g><g
               id="text_13"><!-- 10 --><g
                 transform="matrix(0.1,0,0,-0.1,20.878125,34.139393)"
                 id="g29"><defs
                   id="defs27"><path
                     id="path23"
                     d="M 794,531 H 1825 V 4091 L 703,3866 v 575 l 1116,225 h 631 V 531 H 3481 V 0 H 794 Z"
                     transform="scale(0.015625)" /></defs><use
                   xlink:href="#DejaVuSans-31"
                   id="use28" /><use
                   xlink:href="#DejaVuSans-30"
                   x="63.623047"
                   id="use29" /></g></g></g><g
             id="text_14"><!-- Frequenza (THz) --><g
               transform="matrix(0,-0.1,-0.1,0,14.798438,180.99428)"
               id="g44"><defs
                 id="defs29"><path
                   id="path24"
                   d="M 628,4666 H 3309 V 4134 H 1259 V 2759 H 3109 V 2228 H 1259 V 0 H 628 Z"
                   transform="scale(0.015625)" /><path
                   id="path25"
                   d="m 2631,2963 q -97,56 -211,82 -114,27 -251,27 -488,0 -749,-317 -261,-317 -261,-911 V 0 H 581 v 3500 h 578 v -544 q 182,319 472,473 291,155 707,155 59,0 131,-8 72,-7 159,-23 z"
                   transform="scale(0.015625)" /><path
                   id="path26"
                   d="M 3597,1894 V 1613 H 953 q 38,-594 358,-905 320,-311 892,-311 331,0 642,81 311,81 618,244 V 178 Q 3153,47 2828,-22 2503,-91 2169,-91 1331,-91 842,396 353,884 353,1716 q 0,859 464,1363 464,505 1252,505 706,0 1117,-455 411,-454 411,-1235 z m -575,169 q -6,471 -264,752 -258,282 -683,282 -481,0 -770,-272 -289,-272 -333,-766 z"
                   transform="scale(0.015625)" /><path
                   id="path27"
                   d="m 947,1747 q 0,-634 261,-995 261,-361 717,-361 456,0 718,361 263,361 263,995 0,634 -263,995 -262,361 -718,361 -456,0 -717,-361 Q 947,2381 947,1747 Z M 2906,525 Q 2725,213 2448,61 2172,-91 1784,-91 1150,-91 751,415 353,922 353,1747 q 0,825 398,1331 399,506 1033,506 388,0 664,-152 277,-151 458,-463 v 531 h 575 v -4831 h -575 z"
                   transform="scale(0.015625)" /><path
                   id="path28"
                   d="m 544,1381 v 2119 h 575 V 1403 q 0,-497 193,-746 194,-248 582,-248 465,0 735,297 271,297 271,810 v 1984 h 575 V 0 H 2900 V 538 Q 2691,219 2414,64 2138,-91 1772,-91 1169,-91 856,284 544,659 544,1381 Z m 1447,2203 z"
                   transform="scale(0.015625)" /><path
                   id="path29"
                   d="M 3513,2113 V 0 h -575 v 2094 q 0,497 -194,743 -194,247 -581,247 -466,0 -735,-297 -269,-296 -269,-809 V 0 H 581 v 3500 h 578 v -544 q 207,316 486,472 280,156 646,156 603,0 912,-373 310,-373 310,-1098 z"
                   transform="scale(0.015625)" /><path
                   id="path30"
                   d="M 353,3500 H 3084 V 2975 L 922,459 H 3084 V 0 H 275 V 525 L 2438,3041 H 353 Z"
                   transform="scale(0.015625)" /><path
                   id="path31"
                   d="m 2194,1759 q -697,0 -966,-159 -269,-159 -269,-544 0,-306 202,-486 202,-179 548,-179 479,0 768,339 289,339 289,901 v 128 z m 1147,238 V 0 H 2766 V 531 Q 2569,213 2275,61 1981,-91 1556,-91 q -537,0 -855,302 -317,302 -317,808 0,590 395,890 396,300 1180,300 h 807 v 57 q 0,397 -261,614 -261,217 -733,217 -300,0 -585,-72 -284,-72 -546,-216 v 532 q 315,122 612,182 297,61 578,61 760,0 1135,-394 375,-393 375,-1193 z"
                   transform="scale(0.015625)" /><path
                   id="path32"
                   transform="scale(0.015625)"
                   d="" /><path
                   id="path33"
                   d="m 1984,4856 q -418,-718 -622,-1422 -203,-703 -203,-1425 0,-721 205,-1429 205,-708 620,-1424 h -500 q -468,735 -701,1444 -233,709 -233,1409 0,697 231,1403 232,707 703,1444 z"
                   transform="scale(0.015625)" /><path
                   id="path34"
                   d="M -19,4666 H 3928 V 4134 H 2272 V 0 H 1638 V 4134 H -19 Z"
                   transform="scale(0.015625)" /><path
                   id="path35"
                   d="m 513,4856 h 500 q 468,-737 701,-1444 233,-706 233,-1403 0,-700 -233,-1409 -233,-709 -701,-1444 H 513 q 415,716 620,1424 205,708 205,1429 0,722 -205,1425 -205,704 -620,1422 z"
                   transform="scale(0.015625)" /></defs><use
                 xlink:href="#DejaVuSans-46"
                 id="use30" /><use
                 xlink:href="#DejaVuSans-72"
                 x="50.269531"
                 id="use31" /><use
                 xlink:href="#DejaVuSans-65"
                 x="89.132812"
                 id="use32" /><use
                 xlink:href="#DejaVuSans-71"
                 x="150.65625"
                 id="use33" /><use
                 xlink:href="#DejaVuSans-75"
                 x="214.13281"
                 id="use34" /><use
                 xlink:href="#DejaVuSans-65"
                 x="277.51172"
                 id="use35" /><use
                 xlink:href="#DejaVuSans-6e"
                 x="339.03516"
                 id="use36" /><use
                 xlink:href="#DejaVuSans-7a"
                 x="402.41406"
                 id="use37" /><use
                 xlink:href="#DejaVuSans-61"
                 x="454.9043"
                 id="use38" /><use
                 xlink:href="#DejaVuSans-20"
                 x="516.18359"
                 id="use39" /><use
                 xlink:href="#DejaVuSans-28"
                 x="547.9707"
                 id="use40" /><use
                 xlink:href="#DejaVuSans-54"
                 x="586.98438"
                 id="use41" /><use
                 xlink:href="#DejaVuSans-48"
                 x="648.06836"
                 id="use42" /><use
                 xlink:href="#DejaVuSans-7a"
                 x="723.26367"
                 id="use43" /><use
                 xlink:href="#DejaVuSans-29"
                 x="775.75391"
                 id="use44" /></g></g></g><g
           id="line2d_21"><path
             d="m 56.835852,262.2908 0.893481,0.82194 0.893488,0.19993 0.893481,-0.15527 0.893487,-0.71851 0.893481,-2.14116 1.786969,-1.77716 3.57393,-3.05126 6.254387,-5.01008 5.360905,-4.05069 5.360899,-3.77694 4.467418,-2.89738 4.467418,-2.64099 4.467418,-2.37117 4.467416,-2.08817 v 0 l 2.87167,0.67962 2.87166,0.51001 4.30749,0.48687 4.30749,0.20549 4.3075,-0.0155 5.74332,-0.25685 10.05082,-0.75553 31.58828,-2.53246 10.21074,-0.73354 2.68046,-0.46003 2.68044,-0.64862 3.57394,-1.11489 4.46741,-1.69433 6.25439,-2.67569 7.14787,-3.27295 5.3609,-2.69745 7.14787,-3.64597 0.89349,-0.34478 v 0 l 2.11105,0.91241 7.38867,3.43586 3.16658,1.25512 4.2221,1.40461 4.2221,1.15053 4.2221,0.89506 3.16657,0.46535 3.16659,0.27884 4.22209,0.33113 9.49974,1.66748 4.22209,0.37464 4.06006,0.0754 2.68045,-0.15504 2.68045,-0.33553 3.57394,-0.70508 6.25439,-1.44464 3.57393,-0.53732 2.68045,-0.6264 2.68045,-0.86568 2.68045,-1.11234 2.68045,-1.34908 3.57394,-2.1157 6.25438,-1.51059 3.57394,-1.35324 0.89348,-0.36168 v 0 l 2.64257,0.89483 3.96385,1.70682 5.28513,2.48062 2.64257,1.43423 2.64257,1.64504 3.96385,2.81199 5.28514,4.15644 6.60641,5.53698 27.74696,23.8485 2.64257,2.56115 1.32129,2.18906 1.32128,-0.41629 v 0"
             clip-path="url(#p4673ba2d22)"
             style="fill:none;stroke:#008000;stroke-width:1.5;stroke-linecap:square"
             id="path44" /></g><g
           id="line2d_22"><path
             d="m 56.835852,262.17001 0.893481,-1.93545 1.786969,-1.79128 3.573937,-3.00591 5.360899,-4.21151 5.360905,-3.9417 4.467418,-3.0501 4.467418,-2.80505 4.467418,-2.53571 4.467418,-2.25408 4.467418,-1.97848 4.467417,-1.73343 0.89348,-0.29342 v 0 l 2.87167,0.44151 2.87166,0.0947 2.87166,-0.28856 2.87166,-0.63358 2.87166,-0.91195 4.3075,-1.68947 4.30749,-1.71283 2.87166,-0.90155 2.87166,-0.52435 1.43583,-0.0914 2.87167,0.13746 2.87166,0.42971 5.74332,0.93209 2.87166,0.19044 2.87167,-0.11015 2.87166,-0.44267 2.87166,-0.77149 2.87166,-1.05126 1.43584,-0.56832 1.43583,-0.25038 1.43583,0.64052 2.87166,1.605 2.87166,1.35185 2.87166,0.97559 1.43583,0.32304 1.43583,0.19484 v 0 l 2.68046,-0.10714 2.68045,-0.31748 2.68045,-0.51557 3.57393,-0.9624 3.57393,-1.22365 4.46742,-1.79868 6.25439,-2.79557 12.50877,-5.86534 5.3609,-2.48687 0.89349,-0.26264 v 0 l 1.05552,0.16522 3.16657,0.93602 15.83289,5.1547 5.27762,1.29192 9.49973,2.06965 2.11105,0.11848 4.2221,-0.1437 7.38868,-0.26634 6.90255,0.003 10.72181,0.21497 1.78696,-0.25593 1.78697,-0.53014 4.46741,-1.52911 2.68045,-0.66852 2.68046,-0.84924 2.68045,-1.03367 3.57394,-1.59667 0.89348,-0.15227 1.78697,-1.08018 2.68045,-1.69363 1.78696,-0.86637 0.89349,-0.26009 0.89348,-0.044 0.89348,0.1636 1.78697,0.62641 v 0 l 2.64257,-0.49682 1.32128,-0.078 1.32128,0.0919 1.32129,0.41676 6.60642,3.0869 3.96385,1.43284 2.64257,1.41039 3.96385,2.54981 3.96385,2.82357 3.96385,3.06515 3.96385,3.29354 5.28513,4.71944 5.28514,5.04849 6.60642,6.67594 9.24899,9.73761 2.64257,2.92238 1.32128,2.0287 v 0"
             clip-path="url(#p4673ba2d22)"
             style="fill:none;stroke:#008000;stroke-width:1.5;stroke-linecap:square"
             id="path45" /></g><g
           id="line2d_23"><path
             d="m 56.835852,262.07976 0.893481,-1.89865 5.360906,-9.25653 13.402254,-23.20173 0.893481,-0.88465 0.893487,-9.3e-4 3.573931,0.56601 5.360905,1.09106 5.360899,1.33473 5.360906,1.58533 3.573928,1.1776 v 0 l 2.87167,-0.72313 4.30749,-1.45227 4.30749,-1.74454 5.74333,-2.6514 10.05082,-5.03114 7.17915,-3.50064 4.30749,-1.86487 1.43583,-0.48826 1.43583,-0.26889 1.43584,0.12727 1.43582,0.37256 1.43583,0.54079 1.43584,0.69721 2.87166,1.75888 7.17916,4.99898 1.43583,0.54541 1.43583,-0.20387 4.30749,1.41225 2.87166,0.60789 2.87166,0.28902 3.2228,-4.6e-4 2.68045,-0.21335 2.68046,-0.38806 3.57393,-0.76479 3.57393,-1.00497 4.46742,-1.51013 6.25439,-2.38737 14.29573,-5.57702 2.68045,-0.87747 0.89349,-0.18836 1.78697,0.36931 v 0 l 2.11105,-0.33993 2.11104,0.42694 6.33316,1.69965 5.27762,1.63138 8.44421,2.65256 4.22209,1.12114 3.16659,0.59401 3.16657,0.36561 4.2221,0.25107 7.38868,0.15111 17.05495,0.0322 4.46742,-0.2351 3.57393,-0.4274 1.78697,-0.31355 4.46742,-1.85121 5.3609,-2.30361 2.68046,-0.29989 1.78696,-0.89576 3.57394,-2.07151 1.78696,-0.98994 3.57394,-1.15376 0.89348,-0.21891 v 0 l 3.96385,0.54958 2.64257,0.97351 2.64257,0.81314 2.64256,1.11952 5.28514,2.48341 1.32129,0.33599 1.32128,0.16916 2.64257,0.0127 2.64256,-0.30545 2.64257,-0.37741 1.32128,-0.0264 1.32129,0.15457 2.64256,0.63381 3.96385,1.23106 1.32129,0.78839 2.64256,3.76629 10.57027,15.99773 11.89156,17.98038 1.32129,1.91045 1.32128,2.57365 v 0"
             clip-path="url(#p4673ba2d22)"
             style="fill:none;stroke:#008000;stroke-width:1.5;stroke-linecap:square"
             id="path46" /></g><g
           id="line2d_24"><path
             d="m 56.835852,224.5781 4.467418,0.24158 6.254387,0.53917 8.934836,1.01608 1.786968,-0.66343 1.786969,0.18952 3.57393,0.69189 4.467418,1.12901 4.467418,1.39165 4.467418,1.63347 4.467416,1.84496 v 0 l 2.87167,-0.94897 2.87166,-1.2984 2.87166,-1.61889 2.87166,-1.89564 2.87166,-2.12218 4.3075,-3.49024 5.74332,-4.73077 1.43583,-0.89831 1.43584,-0.53615 1.43582,-0.25246 4.3075,-0.30892 4.30749,-0.12751 2.87166,0.0953 2.87167,0.21937 1.43582,0.32373 1.43583,0.53847 2.87167,1.48306 8.61499,5.10472 1.43583,0.71827 1.43583,0.41652 1.43582,-0.6146 4.3075,-2.44221 2.87166,-1.60524 1.43583,-0.59794 2.32932,-0.10737 4.46742,0.1798 13.40225,0.81986 2.68045,-0.1643 2.68045,-0.39523 2.68046,-0.65233 2.68045,-0.90755 2.68045,-1.13896 4.46741,-2.23812 1.78697,-0.79949 0.89348,-0.24922 0.89349,-0.081 1.78696,0.28184 1.78697,0.59124 0.89349,0.32835 v 0 l 1.05552,-0.38875 2.11105,-0.3589 1.05552,-0.11547 1.05553,0.0171 1.05553,0.1879 2.11105,0.74766 7.38867,3.08366 4.22211,1.38054 4.2221,1.09476 4.22209,0.84346 4.22211,0.64307 4.2221,0.4422 4.2221,0.22585 5.27763,0.0266 9.90708,-0.19623 3.57394,-0.36839 4.46742,-0.73701 6.25438,-1.33172 4.46742,-0.89506 3.57393,-0.49335 4.46742,-0.39523 10.72181,-4.82334 0.89348,-0.45864 0.89348,-0.32072 0.89349,-0.0937 0.89348,0.10876 v 0 l 1.32128,-0.11246 1.32129,0.15758 1.32128,0.39663 2.64257,0.35473 1.32128,0.33369 2.64257,1.04339 2.64257,1.0582 2.64257,0.75043 2.64257,0.35543 2.64256,-0.0224 2.64257,-0.35451 1.32128,-0.28231 1.32129,-0.11709 1.32128,0.1518 1.32128,-0.0398 3.96385,-0.83767 1.32129,0.49728 1.32128,1.38309 1.32128,1.73528 1.32129,1.50897 2.64256,0.95037 5.28514,1.52979 5.28513,1.28081 3.96386,0.74535 3.96385,0.52505 3.96385,0.27236 2.64257,0.0185 v 0"
             clip-path="url(#p4673ba2d22)"
             style="fill:none;stroke:#008000;stroke-width:1.5;stroke-linecap:square"
             id="path47" /></g><g
           id="line2d_25"><path
             d="m 56.835852,224.55172 7.147868,-0.12033 5.360905,0.1673 5.360899,0.42694 1.786969,0.15643 0.893481,-0.093 0.893487,-0.96494 2.68045,-4.55052 5.360899,-9.31901 0.893487,-0.19114 2.68045,1.75102 2.680449,1.44997 1.786969,0.77542 1.786968,0.60905 1.786969,0.43411 1.786962,0.25431 1.786966,0.0724 v 0 l 7.17916,-0.0771 7.17915,-0.30568 8.61499,-0.5947 2.87166,-0.36793 2.87166,-0.48664 4.3075,-0.38135 4.30749,-0.12148 4.30749,0.0303 1.43584,-0.18119 4.30749,-0.95499 1.43583,0.0137 5.74332,1.10818 5.74333,1.24587 8.61498,2.14671 1.43583,0.1599 1.43583,-0.2557 v 0 l 3.57394,0.0951 4.46742,0.36145 8.04135,0.79764 3.57393,0.0625 2.68046,-0.1673 2.68045,-0.38089 2.68045,-0.6072 2.68045,-0.8305 3.57393,-1.40738 4.46742,-1.8938 0.89348,-0.2395 0.89349,-0.0646 0.89348,0.11709 1.78697,0.47206 0.89348,-0.0953 0.89349,-0.24227 v 0 l 1.05552,0.25755 1.05553,-0.0266 2.11104,-0.62478 1.05553,-0.13028 1.05553,0.0597 2.11105,0.55768 7.38867,2.53038 5.27763,1.45852 6.33315,1.49069 5.27763,1.03252 5.27763,0.79833 4.2221,0.42648 4.2221,0.22006 6.33315,0.0743 v 0 l 2.68045,-0.084 3.57393,-0.36584 3.57394,-0.63289 3.57394,-0.86822 4.46741,-1.35763 5.3609,-1.91855 8.93484,-3.51777 6.25439,-2.3522 0.89348,-0.24992 3.57393,0.40126 0.89349,-0.1717 0.89348,-0.32512 v 0 l 1.32128,0.33669 3.96385,0.7421 2.64257,0.60188 5.28514,0.8261 3.96385,0.91149 7.9277,2.08748 1.32129,0.043 2.64256,-0.84416 2.64257,-0.92653 1.32128,-0.36469 1.32129,-0.15758 1.32128,0.14694 1.32128,0.41652 2.64257,1.24772 5.28513,2.98393 5.28514,2.89738 3.96385,1.85329 2.64257,1.00845 2.64257,0.78954 2.64257,0.54889 2.64257,0.30175 1.32128,0.0548 v 0"
             clip-path="url(#p4673ba2d22)"
             style="fill:none;stroke:#008000;stroke-width:1.5;stroke-linecap:square"
             id="path48" /></g><g
           id="line2d_26"><path
             d="m 56.835852,192.68747 3.573937,-0.112 2.68045,-0.0817 1.786968,0.81083 2.68045,1.52216 2.680449,1.81372 3.573937,2.7361 12.508767,10.04561 2.680456,1.77277 2.680449,1.52771 2.68045,1.2188 1.786968,0.62038 1.786969,0.45587 1.786962,0.28439 1.786966,0.1076 v 0 l 2.87167,-0.13815 4.30749,-0.25546 7.17915,-0.52691 8.61499,-0.874 1.43583,-0.21821 1.43583,-0.34872 1.43584,-0.63937 2.87165,-1.99537 2.87167,-1.96808 1.43583,-0.73539 1.43583,-0.46928 1.43583,-0.10321 1.43583,0.27815 1.43583,0.55351 5.74332,2.77011 1.43584,0.46234 1.43583,0.23811 2.87166,0.28162 4.30749,0.70462 5.74332,1.19958 5.74333,1.45899 4.30749,1.16002 v 0 l 3.57394,0.11454 5.3609,0.46188 6.25438,0.51695 3.57394,0.0854 2.68045,-0.11917 2.68045,-0.31934 2.68046,-0.54356 2.68045,-0.77358 2.68045,-0.99873 2.68044,-1.2292 2.68045,-1.46848 0.89349,-0.51464 0.89348,-0.28485 1.78697,0.26912 2.68045,0.67037 0.89349,0.25339 v 0 l 6.33315,-1.42891 1.05552,0.21844 4.2221,1.64434 2.11106,0.63497 2.11104,0.46743 2.11105,0.27005 2.11106,0.0484 2.11104,-0.18188 2.11106,-0.40426 2.11105,-0.60419 3.16657,-1.21069 4.2221,-1.98289 7.38868,-3.59829 3.16658,-1.26022 2.11105,-0.65833 2.11105,-0.47484 2.11105,-0.26958 3.00453,-0.0676 2.68045,0.21913 2.68045,0.52135 2.68046,0.7826 3.57393,1.31182 7.14787,2.73517 2.68045,0.74928 1.78696,0.32998 1.78697,0.16892 1.78697,0.003 2.68045,-0.2756 2.68046,-0.52482 4.46741,-0.96934 1.78697,0.36075 1.78697,0.40796 0.89348,-0.15249 0.89348,-0.336 0.89349,-0.12634 0.89348,0.33484 v 0 l 1.32128,-0.29342 1.32129,0.0109 1.32128,0.37164 2.64257,0.98114 1.32128,0.2837 1.32129,0.12403 2.64256,-0.1481 2.64257,-0.44753 9.24899,-1.89333 2.64257,-0.0889 2.64256,0.33322 1.32129,0.30291 1.32128,0.53315 1.32128,1.31274 1.32129,0.67986 1.32128,-0.26079 1.32128,-0.68958 2.64257,-1.80216 3.96385,-3.09847 9.24899,-7.44998 2.64257,-1.90675 2.64257,-1.64295 1.32128,-0.68749 1.32128,-0.49011 2.64257,-0.31494 2.64257,-0.078 v 0"
             clip-path="url(#p4673ba2d22)"
             style="fill:none;stroke:#008000;stroke-width:1.5;stroke-linecap:square"
             id="path49" /></g><g
           id="line2d_27"><path
             d="m 56.835852,192.15686 3.573937,-0.12865 0.893481,-0.072 2.68045,0.52713 1.786968,0.88997 2.68045,1.64712 2.680449,1.90999 3.573937,2.81685 3.573937,3.03715 4.467418,3.84266 2.68045,2.12473 0.893481,0.63427 0.893487,0.3994 3.573931,2.25385 2.680456,1.36689 1.786962,0.71619 1.786968,0.54611 1.786969,0.36654 1.786967,0.18049 3.76515,-0.0222 1.43583,-0.11987 2.87166,-0.64005 2.87166,-0.98601 2.87166,-1.30186 2.87166,-1.57955 2.87167,-1.80493 2.87166,-1.9211 1.43583,-0.66875 1.43583,0.28439 1.43583,0.46165 1.43584,0.34131 1.43582,0.17518 1.43583,-9.3e-4 1.43583,-0.17494 1.43584,-0.33553 2.87166,-0.97675 1.43583,-0.57642 1.43583,0.43087 2.87166,1.81002 1.43584,0.75599 1.43582,0.62664 1.43583,0.47622 1.43584,0.29574 1.43583,0.0724 1.43583,-0.15133 2.87166,-0.6352 4.3075,-0.97721 2.87166,-0.42717 2.87166,-0.15666 4.30749,0.13699 5.20098,0.13838 9.82832,0.13421 7.14786,0.29504 6.25439,0.47785 5.36091,0.6382 4.46741,0.73193 4.46742,0.87585 0.89348,-0.078 2.68045,-1.51152 2.68046,-1.83131 v 0 l 3.16657,1.9123 2.11105,0.90224 1.05553,0.35104 1.05552,-0.028 8.4442,-1.92781 13.72183,-3.11721 5.27763,-0.98809 5.27763,-0.73933 5.27763,-0.46766 6.33314,-0.29596 3.73598,0.0412 8.04135,0.39061 5.36091,0.47923 5.36089,0.70994 5.36091,0.95754 5.3609,1.20885 5.3609,1.26021 1.78697,0.75807 1.78697,-0.31007 0.89348,-0.12334 0.89348,0.0264 0.89349,-0.0907 0.89348,-0.43157 v 0 l 2.64257,0.68912 1.32128,0.0155 6.60642,-0.93023 2.64257,-0.69328 2.64257,-0.94597 5.28513,-2.16777 5.28514,-0.8194 1.32128,0.31054 2.64257,3.64875 1.32128,1.53581 1.32128,0.42231 1.32129,0.0615 1.32128,-0.252 1.32128,-0.51903 2.64257,-1.47449 3.96385,-2.67269 11.89156,-8.42835 3.96385,-2.42439 1.32128,-0.53315 1.32129,-0.37441 2.64257,-0.24691 1.32128,-0.0197 v 0"
             clip-path="url(#p4673ba2d22)"
             style="fill:none;stroke:#008000;stroke-width:1.5;stroke-linecap:square"
             id="path50" /></g><g
           id="line2d_28"><path
             d="m 56.835852,191.17618 1.786969,0.11015 1.786968,0.32651 0.893481,0.24181 0.893481,0.0141 1.786969,0.3309 0.893487,-0.096 0.893481,0.45679 2.68045,1.85977 3.573937,2.87193 11.615285,9.78621 3.573937,2.67015 2.68045,1.72672 2.680449,1.45922 2.68045,1.13734 1.786968,0.55629 1.786969,0.38111 1.786967,0.19762 2.32931,-0.0331 2.87167,-0.44522 2.87166,-0.8143 2.87166,-1.14243 2.87166,-1.43191 2.87166,-1.67628 5.74333,-3.75565 1.43583,-0.58984 1.43583,-0.81916 4.30749,-2.96009 1.43583,-0.67061 1.43583,0.0673 1.43584,0.73563 4.30749,3.03298 1.43583,-0.13514 2.87166,-1.70149 4.30749,-2.96981 1.43584,-1.02488 1.43583,-0.0116 5.74332,2.52621 2.87167,1.02858 2.87166,0.73655 2.87166,0.36261 2.87166,0.0204 8.42378,-0.31933 5.3609,0.24783 5.3609,0.50677 4.46741,0.63103 4.46743,0.82958 4.46742,1.03436 4.46741,1.238 6.25438,1.87459 0.89349,0.16244 0.89348,0.0252 1.78697,-0.42369 1.78697,-0.85503 1.78697,-0.99017 v 0 l 2.11105,0.94805 2.11104,0.83259 2.11106,0.49288 1.05552,0.004 2.11105,-0.392 3.16658,-0.9138 14.77735,-4.58338 5.27763,-1.33727 5.27763,-1.07648 4.2221,-0.64584 4.2221,-0.43781 4.2221,-0.22099 4.7915,-0.004 5.3609,0.2004 5.36091,0.43827 4.46741,0.58082 4.46742,0.81893 3.57393,0.87979 2.68045,0.83976 2.68046,1.04501 2.68045,1.27572 3.57393,1.89309 1.78697,-0.30684 1.78697,-0.35103 0.89348,-0.0852 0.89348,0.0359 0.89349,0.19831 0.89348,0.34895 v 0 l 2.64257,-0.6588 11.89155,-2.62756 6.60642,-1.13271 3.96385,-1.857 1.32129,0.10228 1.32128,1.02742 2.64257,-0.73817 3.96385,-1.38749 11.89155,-4.42324 3.96385,-1.23661 3.96385,-1.02326 3.96386,-0.78376 1.32128,-0.24019 3.96385,-1.38934 1.32129,-0.30915 1.32128,-0.12126 v 0"
             clip-path="url(#p4673ba2d22)"
             style="fill:none;stroke:#008000;stroke-width:1.5;stroke-linecap:square"
             id="path51" /></g><g
           id="line2d_29"><path
             d="m 56.835852,190.71431 1.786969,0.11246 1.786968,0.33322 1.786962,0.54055 0.893488,0.0655 0.893481,-0.11594 1.786968,0.77196 2.68045,1.85769 3.573937,2.83236 5.360899,4.62271 5.360905,4.58361 2.68045,2.10853 0.893481,0.60998 0.893487,-0.49196 10.721805,-17.97228 2.680448,-3.85978 0.89348,-1.10726 v 0 l 2.87167,2.32559 4.30749,4.00093 7.17915,6.86083 2.87167,2.52043 2.87166,2.1886 1.43583,0.81985 1.43583,0.025 1.43583,-0.86568 2.87167,-1.97663 1.43582,-0.86568 1.43583,-0.61576 1.43583,-0.43248 1.43584,-0.29851 2.87166,-0.33623 1.43583,-0.45008 1.43583,-0.74025 2.87166,-1.88824 1.43584,0.37325 4.30749,1.86279 1.43583,-0.36863 1.43583,-0.52574 10.05082,3.53211 4.30749,1.07278 2.87166,0.52297 2.87166,0.34826 3.2228,0.0937 5.36091,0.20595 4.46741,0.37163 4.46742,0.56786 4.46742,0.77473 4.46742,0.986 4.46742,1.19265 8.93483,2.59818 0.89348,0.0768 0.89349,-0.12866 0.89348,-0.41999 1.78697,-1.24749 0.89348,-0.67361 0.89349,0.24829 v 0 l 1.05552,-0.25014 3.16657,1.87875 1.05553,0.41722 1.05553,0.0636 1.05552,-0.16082 2.11105,-0.60951 11.61078,-3.85307 6.33315,-1.76467 6.33315,-1.52587 5.27763,-1.07833 4.2221,-0.6861 4.2221,-0.46697 4.2221,-0.20549 5.52295,0.0405 5.3609,0.21821 5.3609,0.4429 5.3609,0.69143 5.3609,0.94366 5.36091,1.1901 5.3609,1.41756 4.46742,1.31737 0.89348,0.50122 0.89348,0.33021 0.89349,0.11292 0.89348,-0.0659 v 0 l 1.32128,0.1842 2.64257,-0.0447 1.32128,-0.17656 1.32129,-0.41976 5.28513,-2.44661 6.60643,-2.37928 3.96385,-1.24586 1.32128,-0.37025 1.32128,0.056 1.32129,1.02974 1.32128,-0.47067 5.28513,-2.80551 2.64257,-0.68033 9.24898,-2.01157 6.60642,-1.18617 5.28514,-0.7104 3.96385,-0.43504 1.32129,-0.31331 2.64257,-0.92376 1.32128,-0.17586 v 0"
             clip-path="url(#p4673ba2d22)"
             style="fill:none;stroke:#008000;stroke-width:1.5;stroke-linecap:square"
             id="path52" /></g><g
           id="line2d_30"><path
             d="m 56.835852,189.50731 1.786969,0.13237 1.786968,0.39083 1.786962,0.63358 2.680456,1.20977 0.893481,0.10367 3.573937,-0.64284 4.467418,-1.05773 4.467418,-1.2866 6.254387,-2.07081 12.508766,-4.28834 0.893488,0.2196 0.893481,0.39755 0.893481,0.59632 0.893486,0.79371 0.89348,0.96726 v 0 l 1.43583,-0.96124 1.43584,-0.76479 1.43583,-0.52574 1.43583,-0.26611 1.43583,0.0916 2.87166,1.32732 2.87166,1.54276 2.87166,1.73366 4.3075,2.89692 8.61498,6.08008 1.43583,0.51857 1.43583,-0.12912 4.3075,-1.67882 1.43583,-0.31378 1.43583,-0.0481 2.87166,0.43387 1.43584,-0.76131 1.43582,0.0884 2.87167,1.03622 1.43583,0.55976 1.43583,0.0324 2.87166,-2.1606 8.61498,-6.9638 7.17916,-5.826 1.43583,-1.09708 1.43583,-0.95337 v 0 l 8.93484,-0.0248 1.78697,0.25014 1.78696,0.44291 1.78697,0.65394 1.78697,0.86544 1.78696,1.10934 1.78697,1.48699 3.57394,3.38726 14.29573,14.01924 3.57394,3.05334 2.68045,2.0611 0.89349,0.53893 v 0 l 2.11105,-1.14243 4.2221,-2.72706 5.27762,-3.66124 7.38868,-5.44442 9.49972,-7.02652 2.11106,-1.40137 1.05553,-0.56647 1.05552,-0.17424 1.05552,0.17586 2.11105,0.97513 5.27763,2.81014 3.16658,1.33264 2.11105,0.67778 2.11105,0.49196 2.11105,0.29781 2.11105,0.0997 v 0 l 2.68045,-0.14879 2.68045,-0.44314 2.68045,-0.72637 2.68045,-0.98855 2.68046,-1.22133 3.57393,-1.92133 0.89348,0.0544 1.78697,1.27155 1.78696,1.59297 7.14787,6.69191 2.68046,2.19831 2.68045,1.87783 2.68045,1.66609 3.57393,2.7958 0.89349,0.58706 2.68045,0.72568 0.89348,0.16938 v 0 l 3.96385,-0.1238 2.64257,-0.87122 2.64257,-1.03182 1.32128,-0.7398 2.64257,-1.82113 5.28514,-3.97756 1.32128,-1.01238 1.32128,-0.63358 1.32129,-0.16522 1.32128,1.69316 1.32128,1.37384 7.9277,-1.9255 10.57027,-5.14036 3.96385,-1.47032 2.64257,-0.76641 2.64257,-0.56786 2.64257,-0.34663 2.64257,-0.10043 2.64256,0.199 5.28514,0.69536 v 0"
             clip-path="url(#p4673ba2d22)"
             style="fill:none;stroke:#008000;stroke-width:1.5;stroke-linecap:square"
             id="path53" /></g><g
           id="line2d_31"><path
             d="m 56.835852,189.30437 1.786969,0.13653 1.786968,0.40334 1.786962,0.6507 1.786969,0.86845 0.893487,0.14856 3.573931,-0.67292 3.573937,-0.88071 4.467418,-1.33982 5.360899,-1.85237 8.934836,-3.16396 2.680456,-0.72961 1.786962,-0.28462 1.786968,-0.15134 4.467416,-1.54298 v 0 l 2.87167,0.72729 4.30749,1.44395 1.43583,0.19414 1.43583,0.36307 2.87166,1.10032 2.87166,1.44441 4.3075,2.56416 8.61498,5.42475 1.43583,0.65649 1.43583,0.3788 1.43584,-0.0211 1.43583,-0.36724 2.87166,-0.92884 1.43583,-0.25663 1.43583,-0.0329 2.87167,0.1953 1.43582,-0.88673 4.3075,-3.86186 4.30749,-3.80239 2.87166,-2.30338 2.87167,-1.9845 1.43583,-0.82286 1.43582,-0.67685 1.43584,-0.50562 1.43583,-0.31887 1.43583,-0.13398 1.43583,0.0296 2.87166,0.41514 1.43583,0.25199 v 0 l 2.68046,-0.10228 3.57393,-0.41398 2.68045,-0.30545 1.78697,0.0764 0.89348,0.20502 1.78697,0.76872 1.78696,1.13039 4.46742,3.3706 2.68046,2.23974 3.57393,3.4465 12.50877,12.50471 3.57393,3.16581 1.78697,1.39836 0.89349,-0.3714 v 0 l 1.05552,0.36747 2.11105,-1.39142 4.2221,-3.1392 7.38868,-5.92943 5.27763,-4.13168 4.2221,-2.9918 3.16657,-1.94238 2.11105,-1.08481 3.16658,-1.28961 1.05552,-0.30082 1.05553,0.006 1.05552,0.30082 2.11106,1.03043 4.2221,2.23928 3.16658,1.3655 2.11104,0.68148 2.11105,0.46905 2.11105,0.23904 1.94901,0.0106 1.78697,-0.15457 2.68045,-0.51348 2.68045,-0.82889 2.68045,-1.10702 2.68046,-1.33635 1.78696,-0.96934 0.89349,-0.32535 0.89348,0.51973 0.89348,0.0319 2.68045,2.31772 5.3609,4.25479 6.25439,5.37361 3.57394,3.06561 0.89348,0.63589 1.78697,0.88187 2.68045,1.06399 2.68045,0.80875 0.89348,0.0384 v 0 l 1.32128,-0.19854 1.32129,-0.51742 2.64256,-1.40947 5.28514,-2.95708 2.64257,-1.21185 2.64257,-0.95337 2.64257,-0.72452 1.32128,-0.30916 1.32128,-0.65509 1.32129,-0.007 1.32128,-0.16614 3.96385,-0.94921 5.28513,-1.5254 7.9277,-2.30083 3.96385,-0.94713 3.96386,-0.71758 3.96385,-0.42809 2.64257,-0.0977 3.96385,0.13722 2.64257,0.25801 2.64257,0.35312 1.32128,0.0729 v 0"
             clip-path="url(#p4673ba2d22)"
             style="fill:none;stroke:#008000;stroke-width:1.5;stroke-linecap:square"
             id="path54" /></g><g
           id="line2d_32"><path
             d="m 56.835852,173.0322 5.360899,0.11293 5.360906,0.33947 5.360899,0.56901 5.360905,0.80111 5.360899,1.03414 5.360906,1.26276 5.360899,1.47912 6.254385,1.9646 0.89348,0.29828 v 0 l 2.87167,-0.47299 2.87166,-0.21937 2.87166,0.0278 2.87166,0.2638 2.87166,0.4834 2.87167,0.68194 4.30749,1.33866 4.30749,1.61333 5.74332,2.21104 1.43584,0.44568 1.43583,0.32605 1.43583,0.14254 1.43583,-0.10158 1.43583,-0.36724 1.43583,-0.59887 2.87167,-1.64063 8.61498,-5.60178 2.87166,-1.58209 2.87167,-1.34444 2.87166,-1.08158 1.43582,-0.10274 1.43584,0.14856 1.43583,0.36885 2.87166,1.11906 4.30749,1.90652 v 0 l 2.68046,-0.12287 2.68045,-0.34016 3.57393,-0.51834 1.78697,0.0245 0.89348,0.17679 1.78697,0.70855 1.78696,1.06954 2.68045,2.00232 5.36091,4.50007 4.46742,3.96669 5.3609,5.10541 8.04135,7.70614 3.57394,3.15632 v 0 l 3.16657,-2.41861 6.33315,-5.23222 6.33315,-5.16605 4.22211,-3.14729 3.16657,-2.12057 3.16658,-1.87551 3.16657,-1.6087 3.16658,-1.36944 1.05552,-0.3316 2.11105,-0.34525 5.27763,-1.17135 3.16658,-0.46512 4.2221,-0.35243 4.2221,-0.10783 v 0 l 2.68045,0.13907 2.68045,0.41699 2.68045,0.69467 2.68045,0.96887 2.68046,1.23569 2.68045,1.37036 0.89348,0.0405 0.89348,0.64908 0.89348,-0.43365 0.89349,0.30985 2.68045,1.76721 3.57393,2.672 4.46742,3.69896 10.72181,9.19636 0.89348,0.56509 0.89348,0.38806 1.78697,0.29897 v 0 l 1.32128,-0.29782 1.32129,-0.63936 2.64256,-1.61264 6.60642,-4.43666 6.60643,-4.50979 1.32128,-0.71202 1.32128,1.45968 1.32129,0.70485 14.53411,-10.85806 3.96385,-2.57342 3.96385,-2.27237 3.96386,-1.92573 2.64256,-1.0781 2.64257,-0.90802 2.64257,-0.73261 2.64257,-0.55375 2.64257,-0.37117 2.64257,-0.18604 1.32128,-0.0234 v 0"
             clip-path="url(#p4673ba2d22)"
             style="fill:none;stroke:#008000;stroke-width:1.5;stroke-linecap:square"
             id="path55" /></g><g
           id="line2d_33"><path
             d="m 56.835852,167.80415 4.467418,0.11084 4.467418,0.32905 4.467418,0.53824 5.360899,0.902 5.360906,1.15192 6.254386,1.60269 10.721805,2.83814 1.786962,0.24529 7.530296,0.30522 2.87166,0.31031 2.87166,0.50584 2.87166,0.71526 2.87167,0.91497 4.30749,1.69177 5.74333,2.64817 4.30748,2.01389 2.87167,1.12137 1.43583,0.38945 1.43583,0.19623 1.43583,-0.0597 1.43583,-0.33946 1.43583,-0.5836 2.87166,-1.61819 8.61499,-5.44072 2.87166,-1.48583 1.43584,-0.60558 1.43583,-0.47877 1.43583,-0.3346 4.30749,-1.32593 4.30749,-1.09222 2.87166,-0.49937 v 0 l 1.78697,0.0886 1.78697,0.2601 2.68045,0.66157 3.57393,0.99202 1.78697,0.14694 1.78697,-0.27236 1.78696,-0.58683 2.68045,-1.21093 3.57394,-1.93961 5.36091,-3.23777 12.50876,-7.70845 4.46742,-2.52228 0.89349,-0.46003 v 0 l 3.16657,2.4723 6.33315,5.2468 17.94393,15.15427 3.16658,2.27722 1.05553,0.60975 1.05552,0.41837 1.05552,0.01 3.16658,-1.30696 3.16658,-0.7222 4.2221,-0.69513 4.2221,-0.40403 4.2221,-0.1312 v 0 l 2.68045,0.11616 2.68045,0.34965 2.68045,0.58614 2.68045,0.82448 2.68046,1.06237 0.89348,0.40588 0.89348,0.56786 0.89349,0.70022 1.78696,0.58915 0.89348,0.42231 0.89349,-0.31147 3.57393,-2.30685 6.25439,-4.35174 10.7218,-7.48654 4.46742,-2.93972 v 0 l 1.32128,0.80666 1.32129,1.1901 2.64256,2.93834 3.96386,4.92192 5.28513,6.97329 5.28514,7.05127 1.32128,-0.535 17.17669,-11.38196 6.60641,-4.11108 5.28514,-3.01725 3.96385,-1.95627 2.64257,-1.08805 2.64257,-0.86752 2.64257,-0.60674 2.64257,-0.31286 1.32128,-0.0396 v 0"
             clip-path="url(#p4673ba2d22)"
             style="fill:none;stroke:#008000;stroke-width:1.5;stroke-linecap:square"
             id="path56" /></g><g
           id="line2d_34"><path
             d="m 56.835852,154.87596 1.786969,-0.11686 1.786968,-0.34409 1.786962,-0.55398 1.786969,-0.73886 2.680449,-1.39142 2.680456,-1.64596 3.573931,-2.44754 2.680449,-1.9366 0.893488,-0.35034 1.786968,2.03842 3.573931,4.49891 4.467418,6.09165 9.828323,13.76933 1.786969,1.91739 0.893481,0.72823 0.893481,0.54124 0.893486,0.35636 0.89348,0.19415 v 0 l 1.43583,-0.16476 1.43584,-0.27791 1.43583,-0.43319 1.43583,-0.60858 1.43583,-0.77196 2.87166,-1.89356 7.17916,-5.37315 4.30749,-3.09176 4.30749,-2.80759 2.87166,-1.65059 2.87166,-1.35579 1.43584,-0.47252 1.43583,-0.22307 1.43583,0.12426 1.43583,0.46929 1.43583,0.70554 2.87166,1.73227 14.35831,9.1369 2.87167,1.59852 1.43583,0.65094 1.43582,0.49427 1.43584,0.30869 2.87166,0.21173 4.30749,0.21035 2.32932,0.18373 1.78697,0.16453 2.68045,0.52343 4.46741,1.12646 1.78697,0.0889 1.78697,-0.32836 1.78696,-0.63473 2.68045,-1.26531 3.57394,-1.97663 7.14787,-4.29806 8.04135,-4.7678 5.3609,-2.9425 1.78697,-0.92307 0.89349,-0.27305 v 0 l 1.05552,-0.018 1.05553,0.19924 1.05552,0.32928 2.11105,1.03391 2.11105,1.43816 3.16658,2.5637 6.33315,5.59344 8.4442,7.42198 4.2221,3.41364 2.11106,1.49023 1.05552,0.61414 1.05552,0.44406 1.05553,0.19229 1.05552,-0.0891 1.05553,-0.35173 7.38868,-3.45275 2.11105,-0.71156 2.11105,-0.52643 2.11105,-0.32374 2.11105,-0.10922 v 0 l 1.78696,0.12612 1.78697,0.3744 1.78697,0.61067 1.78697,0.82888 1.78697,1.02488 2.68045,1.84844 3.57393,2.74003 1.78697,0.93301 0.89348,-0.26264 2.68045,-1.7288 4.46742,-3.18155 7.14787,-5.42706 9.82832,-7.55666 2.68045,1.67582 v 0 l 1.32128,-0.36354 1.32129,-0.0752 6.60642,0.1879 2.64256,-0.28949 2.64257,-0.65116 2.64257,-1.04663 2.64257,-1.42914 2.64257,-1.76004 3.96385,-3.06052 2.64256,-0.50816 6.60642,-0.97165 7.9277,-0.91705 19.81926,-2.0081 2.64257,-0.0701 v 0"
             clip-path="url(#p4673ba2d22)"
             style="fill:none;stroke:#008000;stroke-width:1.5;stroke-linecap:square"
             id="path57" /></g><g
           id="line2d_35"><path
             d="m 56.835852,154.44764 1.786969,-0.11432 1.786968,-0.33692 1.786962,-0.54402 1.786969,-0.72822 2.680449,-1.378 2.680456,-1.63856 3.573931,-2.44661 2.680449,-1.92619 0.893488,-0.3265 10.721804,-7.57471 2.68045,-1.59667 1.786968,-0.90501 3.573931,-1.08643 2.680456,-0.61137 2.680448,-0.37417 0.89348,-0.0595 v 0 l 1.43583,0.0921 1.43584,0.23534 1.43583,0.39223 2.87166,1.16418 2.87166,1.51406 4.30749,2.64862 5.74333,3.89126 10.05081,7.18733 8.61499,6.32375 10.05082,7.37524 2.87166,1.92873 2.87166,1.66632 2.87167,1.4178 2.87166,1.15493 2.87166,0.83119 2.87166,0.49312 2.87166,0.2439 4.65863,0.10922 7.14787,0.14833 1.78697,-0.14625 1.78696,-0.30568 1.78697,-0.47877 2.68045,-1.02025 2.68045,-1.31899 2.68046,-1.5453 3.57393,-2.31795 4.46742,-3.18872 5.3609,-4.11108 3.57393,-2.84555 0.89349,0.0474 4.46742,2.08146 v 0 l 1.05552,0.0127 9.49973,-1.07139 7.38867,-0.97374 4.2221,-0.75553 3.16658,-0.65093 5.27763,0.38806 8.4442,0.90455 6.33316,0.62293 5.27762,0.2793 3.00453,0.006 1.78697,-0.15944 1.78697,-0.31447 2.68045,-0.74511 2.68045,-1.03622 2.68045,-1.27364 1.78697,-0.94735 0.89348,-0.30592 8.04135,4.8127 18.76316,10.75925 2.68045,-2.08007 v 0 l 1.32128,0.46512 1.32129,0.0854 2.64256,-0.35752 3.96386,-0.92815 10.57027,-2.58106 6.60642,-1.35601 3.96385,-3.29771 2.64256,-2.17332 1.32129,-0.9867 1.32128,-0.84601 1.32128,-0.61738 1.32129,-0.31146 1.32128,-0.015 1.32128,0.19067 2.64257,0.66158 5.28514,1.44302 3.96385,0.8025 2.64257,0.33044 2.64257,0.15412 3.96385,-0.0481 3.96385,-0.10714 v 0"
             clip-path="url(#p4673ba2d22)"
             style="fill:none;stroke:#008000;stroke-width:1.5;stroke-linecap:square"
             id="path58" /></g><g
           id="line2d_36"><path
             d="m 56.835852,148.05609 2.68045,-0.16661 2.680449,-0.48456 2.680456,-0.76038 2.68045,-0.97929 3.57393,-1.5423 2.680456,-1.26299 0.893481,0.42972 0.893481,0.95569 0.893488,0.3663 11.615285,-8.0743 1.786969,-0.97003 5.360899,-1.84775 2.680456,-0.57595 2.680448,-0.36631 2.32931,0.0375 1.43584,0.22909 2.87166,0.80829 2.87166,1.21555 2.87166,1.5217 4.30749,2.66066 5.74333,3.94331 8.61498,6.1097 2.87167,1.69919 1.43583,0.55397 1.43583,0.22145 1.43583,-0.11153 1.43583,-0.33739 2.87166,-0.97235 17.22998,-6.3772 8.61498,-2.9786 2.87166,-0.85457 1.43583,-0.34548 v 0 l 1.78697,0.11732 1.78697,0.33183 2.68045,0.78839 4.46742,1.66794 11.61529,4.42648 9.82832,3.75889 5.36089,2.25687 6.25439,2.89553 0.89349,0.42462 v 0 l 2.11105,-1.42659 2.11104,-1.17275 2.11106,-0.9344 1.05552,-0.10691 3.16658,0.0884 12.6663,0.009 2.11105,0.0266 3.16657,-0.88211 3.16659,-1.06398 4.22209,-1.6691 9.49974,-4.00672 2.11104,-0.67894 2.11105,-0.49288 2.11105,-0.26033 1.94901,10e-4 1.78697,0.27097 1.78697,0.51533 1.78696,0.71573 2.68046,1.34259 3.57393,2.07151 1.78697,1.08666 0.89348,0.35937 3.57393,-1.93984 1.78697,-0.66135 0.89348,-0.0775 0.89349,0.15226 0.89348,0.3441 1.78697,1.01215 2.68045,1.84149 5.36091,4.00696 11.61528,9.00083 v 0 l 1.32128,-0.90964 2.64257,-2.54796 10.57027,-11.03116 3.96386,-3.7487 2.64256,-2.26497 1.32129,-0.9543 1.32128,-0.50491 1.32128,0.22446 2.64257,1.11836 3.96385,1.74731 2.64257,0.92098 1.32128,0.27283 1.32128,0.0449 1.32129,-0.25547 1.32128,-0.54171 2.64257,-1.55224 2.64256,-1.64434 1.32129,-0.71457 1.32128,-0.5438 1.32129,-0.24713 1.32128,0.68078 3.96385,2.37395 2.64257,1.42844 2.64257,1.22597 2.64257,0.93532 1.32128,0.32489 1.32129,0.20688 1.32128,0.0715 v 0"
             clip-path="url(#p4673ba2d22)"
             style="fill:none;stroke:#008000;stroke-width:1.5;stroke-linecap:square"
             id="path59" /></g><g
           id="line2d_37"><path
             d="m 56.835852,147.85685 1.786969,-0.0745 2.680449,-0.38343 2.68045,-0.6794 2.680449,-0.92422 3.573937,-1.50642 3.573937,-1.68993 0.893481,-0.17077 9.828324,-4.66876 7.147867,-3.00823 5.360899,-1.65706 1.786969,-0.2446 2.680447,-0.14347 v 0 l 2.87167,0.0243 4.30749,-0.0206 8.61498,0.1828 7.17916,0.37858 5.74332,0.50075 7.17916,0.87239 22.9733,3.12808 7.17915,0.74836 2.87166,0.44869 2.87166,0.58614 v 0 l 1.78697,0.11801 1.78697,0.33461 2.68045,0.80088 3.57393,1.35694 9.82832,3.84752 11.61529,4.36331 5.3609,2.2844 2.68045,1.2299 0.89349,-0.30476 4.46742,-3.6897 v 0 l 2.11105,1.3611 2.11104,0.92885 1.05553,0.28555 1.05553,0.16499 1.05552,-0.2041 6.33316,-2.23811 7.38867,-2.64007 5.27763,-2.16476 6.33315,-2.90247 6.33315,-2.91775 3.16658,-1.28358 3.16658,-1.04733 2.11104,-0.5225 2.11105,-0.35451 2.11105,-0.17309 1.94901,-2.3e-4 1.78697,0.16545 1.78697,0.32651 2.68045,0.77311 2.68045,1.07463 2.68045,1.32015 4.46742,2.52807 2.68045,1.39211 0.89348,0.29087 0.89348,0.0988 0.89349,-0.13005 0.89348,-0.32118 1.78697,-0.96264 3.57393,-2.37024 11.61529,-7.9873 4.46742,-2.72915 v 0 l 3.96385,1.63161 5.28514,2.42602 7.9277,3.94355 3.96385,1.92966 1.32129,0.50561 1.32128,0.09 1.32128,-0.60627 6.60642,-4.31633 2.64257,-1.37916 1.32128,-0.54888 1.32128,-0.009 5.28514,3.15933 6.60642,4.17124 1.32128,0.29227 1.32128,0.5026 2.64257,1.51499 3.96386,2.40264 2.64256,1.31112 1.32129,0.50238 1.32128,0.37232 1.32129,0.2277 1.32128,0.0761 v 0"
             clip-path="url(#p4673ba2d22)"
             style="fill:none;stroke:#008000;stroke-width:1.5;stroke-linecap:square"
             id="path60" /></g><g
           id="line2d_38"><path
             d="m 56.835852,132.78867 1.786969,0.11639 1.786968,0.34803 1.786962,0.57434 1.786969,0.79255 1.786968,1.00058 1.786969,1.19635 2.680449,2.13306 2.68045,2.49798 0.893487,0.90524 0.893481,-0.19067 8.934836,-4.2689 4.467418,-1.86626 8.041355,-2.94134 1.786969,-0.2962 1.786962,-0.11986 7.530296,-0.10413 4.30749,-0.4163 4.30749,-0.61391 5.74333,-1.06028 7.17916,-1.58348 18.66579,-4.34896 1.43584,-0.19137 1.43583,0.10066 4.30749,0.85503 7.17916,1.45852 2.87166,0.43157 2.87166,0.24112 2.87166,-0.0185 1.43583,-0.12102 2.32932,-0.0134 1.78697,-0.32419 1.78696,-0.6072 1.78697,-0.8275 2.68045,-1.52007 3.57393,-2.2851 0.89349,0.14602 3.57393,3.20908 17.86967,16.3638 8.04136,6.95108 1.78697,1.50527 v 0 l 2.11105,-1.61102 2.11104,-1.8644 3.16658,-3.10796 12.66631,-12.94184 2.11104,-1.85052 2.11106,-1.52841 1.05552,-0.57225 1.05553,-0.39986 1.05552,-0.20387 1.05552,-0.004 1.05553,0.17471 2.11106,0.74836 2.11104,1.06259 9.49973,5.19844 2.11106,0.87725 2.11104,0.68819 2.11105,0.46905 2.11105,0.23186 1.94901,0.008 1.78697,-0.15712 2.68045,-0.51232 2.68045,-0.79788 3.57394,-1.38887 5.3609,-2.43018 5.3609,-2.37071 2.68045,-0.99665 2.68045,-0.76501 1.78697,-0.33461 1.78697,-0.16175 1.78697,0.031 1.78696,0.23048 1.78697,0.42138 2.68045,0.94134 2.68045,1.23291 2.68045,1.44487 v 0 l 3.96385,-1.40646 3.96385,-1.10587 2.64257,-0.52435 2.64257,-0.31957 2.64257,-0.0882 2.64257,0.15897 2.64256,0.4075 2.64257,0.6426 2.64257,0.85526 2.64256,1.04177 3.96385,1.857 2.64257,1.39743 1.32128,0.32651 1.32129,-0.25315 1.32128,-0.0477 1.32128,0.19137 1.32129,0.42323 2.64256,1.31899 2.64257,1.38656 1.32129,0.42624 1.32128,0.0819 1.32128,-0.23094 2.64257,-0.87724 3.96386,-1.33635 2.64256,-0.65394 2.64257,-0.40426 2.64257,-0.13652 v 0"
             clip-path="url(#p4673ba2d22)"
             style="fill:none;stroke:#008000;stroke-width:1.5;stroke-linecap:square"
             id="path61" /></g><g
           id="line2d_39"><path
             d="m 56.835852,122.91105 7.147868,0.11709 9.828323,0.39223 11.615286,0.45354 3.573937,-0.0706 2.680449,-0.24297 2.68045,-0.49405 2.680449,-0.80574 2.68045,-1.1216 1.786966,-0.89576 v 0 l 2.87167,0.75599 2.87166,0.44429 2.87166,0.24182 4.30749,0.1393 17.22997,0.21891 5.74333,0.40425 5.74332,0.6838 5.74333,0.874 2.87166,-0.19808 2.87166,-0.17077 2.87166,0.1113 2.87167,0.41537 2.87165,0.65648 8.61499,2.24182 2.32932,-0.002 1.78697,-0.31656 1.78696,-0.59539 1.78697,-0.81778 2.68045,-1.521 8.04135,-5.18872 8.04136,-5.40578 5.3609,-3.33079 5.3609,-3.05242 4.46742,-2.31795 4.46742,-2.09813 v 0 l 2.11105,0.90756 4.2221,2.24668 5.27762,3.12763 9.49973,5.83502 2.11105,1.01169 1.05553,0.37256 1.05552,0.24066 1.05553,0.0741 1.05552,-0.11732 1.05552,-0.31286 2.11106,-0.99456 11.61078,6.09234 3.16658,1.36782 2.11104,0.72428 2.11105,0.5195 2.11105,0.27259 1.94901,-0.002 1.78697,-0.28532 1.78697,-0.54472 1.78696,-0.76061 2.68046,-1.43955 3.57393,-2.25594 11.61528,-7.76029 0.89349,0.12241 2.68045,1.02881 2.68045,0.75322 1.78697,0.30915 1.78697,0.13861 1.78697,-0.0296 2.68045,-0.32188 2.68045,-0.57804 3.57393,-1.03275 v 0 l 7.9277,1.62143 5.28514,0.82727 3.96385,0.38898 5.28514,0.22516 1.32128,0.0266 1.32128,0.3434 5.28514,4.1923 3.96385,3.14221 2.64256,1.86209 1.32129,0.76455 1.32128,0.59146 1.32128,0.38112 1.32129,0.16939 1.32128,-0.006 2.64257,-0.33067 10.57027,-1.86418 3.96385,-0.4031 3.96386,-0.15596 1.32128,0.0106 v 0"
             clip-path="url(#p4673ba2d22)"
             style="fill:none;stroke:#008000;stroke-width:1.5;stroke-linecap:square"
             id="path62" /></g><g
           id="line2d_40"><path
             d="m 56.835852,122.82844 10.721805,0.10274 8.934836,0.32674 9.828317,0.37464 3.573937,-0.0796 2.680449,-0.27282 2.68045,-0.54796 2.680456,-0.87377 2.680448,-1.1864 0.89348,-0.42879 v 0 l 2.87167,0.72845 2.87166,0.35428 2.87166,-0.0356 2.87166,-0.34432 2.87166,-0.57087 4.3075,-1.11975 10.05081,-2.80505 4.3075,-0.90803 2.87166,-0.42531 2.87166,-0.26241 2.87166,-0.0967 4.30749,0.1245 8.61499,0.48756 2.87167,-0.0666 4.30748,-0.37835 5.74333,-0.58567 4.30749,-0.15759 v 0 l 1.78697,0.18628 1.78697,0.54032 1.78697,0.84624 1.78697,1.09152 2.68044,1.969 2.68045,2.19693 0.89349,-0.17471 11.61529,-7.96994 5.3609,-3.30071 4.46741,-2.50886 5.36091,-2.75229 3.57393,-1.70914 0.89349,-0.18119 v 0 l 1.05552,0.17495 10.55525,3.55757 5.27763,2.08539 5.27762,2.33831 5.27763,2.5843 3.16658,1.52031 2.11105,-1.56035 3.16657,-2.71457 6.33316,-5.53999 2.11105,-1.64341 2.11105,-1.42428 2.11105,-1.11582 2.11105,-0.716883 1.05552,-0.185353 1.94901,-0.02569 1.78697,0.283476 1.78697,0.52343 2.68045,1.10077 3.57393,1.79337 12.50877,6.60629 0.89348,0.40657 0.89349,-0.29249 4.46742,-2.65835 1.78697,-0.99502 0.89348,-0.10089 6.25439,2.50191 5.3609,1.91531 0.89348,0.29041 v 0 l 9.24899,-1.89495 2.64256,-0.38412 1.32129,-0.0949 1.32128,0.0335 1.32129,0.22655 1.32128,0.4466 1.32129,0.6308 2.64256,1.6064 2.64257,1.86532 1.32128,0.67408 5.28514,0.19692 3.96385,0.39871 2.64256,0.44336 3.96385,0.94991 3.96385,1.24054 11.89156,4.05277 2.64257,0.64538 2.64257,0.45262 2.64257,0.20757 1.32128,0.007 v 0"
             clip-path="url(#p4673ba2d22)"
             style="fill:none;stroke:#008000;stroke-width:1.5;stroke-linecap:square"
             id="path63" /></g><g
           id="line2d_41"><path
             d="m 56.835852,95.164594 7.147868,-0.09626 0.893487,0.30545 4.467418,3.040851 25.01754,17.544415 4.467418,2.78422 2.680447,1.47311 v 0 l 2.87167,-1.08181 2.87166,-1.38563 4.30749,-2.42602 5.74332,-3.58418 10.05082,-6.62642 7.17916,-4.65418 2.87166,-1.615181 2.87166,-1.392113 2.87166,-1.207222 1.43584,-0.490572 1.43582,-0.2955 2.87167,-0.09511 27.98306,0.03841 7.14787,-0.21636 7.14786,-0.423928 4.46743,-0.354045 0.89348,0.108296 5.3609,1.675349 6.25438,2.205953 6.25439,2.465823 2.68045,1.14567 0.89349,0.1636 v 0 l 1.05552,-0.17217 3.16657,-0.95684 4.22211,-1.049643 5.27763,-1.085968 7.38867,-1.251421 11.61078,-1.914155 2.11105,-0.374639 2.11105,0.04235 8.44421,0.322574 8.28215,0.08816 8.04136,-0.141386 1.78696,0.0037 3.57394,2.004633 5.3609,2.903165 5.3609,2.64817 5.3609,2.41791 0.89349,0.38321 0.89348,-0.003 4.46742,-2.2652 4.46742,-2.03448 3.57393,-1.48028 v 0 l 3.96385,1.2144 3.96385,1.50365 6.60642,2.65765 1.32129,0.28485 1.32128,0.1002 2.64257,-0.19924 3.96385,-0.72729 5.28513,-1.26947 5.28514,-1.50481 5.28513,-1.7325 6.60642,-2.44014 6.60642,-2.573419 1.32128,-0.258939 2.64257,-0.111535 9.24899,-0.03425 v 0"
             clip-path="url(#p4673ba2d22)"
             style="fill:none;stroke:#008000;stroke-width:1.5;stroke-linecap:square"
             id="path64" /></g><g
           id="line2d_42"><path
             d="m 56.835852,92.040671 1.786969,0.222146 1.786968,0.608586 1.786962,0.880946 4.467418,2.677319 5.360906,3.681142 24.124058,16.9187 3.573931,2.19855 1.786966,0.98832 v 0 l 2.87167,-1.12485 2.87166,-1.45436 2.87166,-1.692 4.30749,-2.79812 12.92248,-8.63174 5.74332,-3.46802 10.05082,-5.668418 1.43584,-0.363763 1.43582,-0.205716 10.05082,-2.582444 4.3075,-0.725676 4.30749,-0.510009 1.43583,0.08215 2.87166,0.671065 2.87166,0.390143 2.32932,0.006 1.78697,-0.340854 2.68045,-0.880947 3.57393,0.388987 4.46742,0.750898 4.46741,0.993871 5.36091,1.258825 0.89348,-0.0012 3.57394,1.107952 5.3609,1.892403 5.3609,2.122185 6.25439,2.738408 v 0 l 3.16657,-1.25327 5.27763,-2.093724 5.27763,-1.86533 5.27762,-1.642952 3.16657,-0.873542 1.05553,-0.07567 10.55525,0.837443 1.05553,0.03402 2.11105,-0.36816 4.2221,-1.017011 4.22211,-1.222032 4.22209,-1.262528 2.11105,-0.386441 1.94901,-4.63e-4 1.78697,0.411664 1.78697,0.731229 2.68045,1.418493 3.57393,2.008567 2.68046,-0.06317 7.14786,-0.449382 7.14787,-0.46558 3.57394,1.02511 6.25438,2.0206 5.3609,1.939609 1.78697,0.69675 v 0 l 3.96385,-0.922135 3.96385,-0.65209 3.96385,-0.40935 3.96386,-0.195072 5.28513,0.01435 15.8554,0.385978 3.96385,-0.343863 3.96385,-0.648156 3.96386,-0.925144 5.28513,-1.515682 3.96386,-1.419418 2.64256,-0.799261 2.64257,-0.573183 2.64257,-0.211732 v 0"
             clip-path="url(#p4673ba2d22)"
             style="fill:none;stroke:#008000;stroke-width:1.5;stroke-linecap:square"
             id="path65" /></g><g
           id="line2d_43"><path
             d="m 56.835852,91.921036 0.893481,0.06016 1.786969,0.45077 1.786968,0.779824 3.573937,1.831082 8.041349,-0.36654 8.041355,-0.610901 8.041355,-0.844848 8.934836,-1.175058 3.573928,-0.522736 v 0 l 14.35831,1.453434 12.92249,1.275486 7.17915,0.514638 5.74332,0.24922 1.43583,0.01573 1.43584,-0.364921 2.87165,-1.21671 2.87167,-0.982763 2.87166,-0.737709 2.87166,-0.509315 2.87167,-0.314938 2.87166,-0.152494 2.87166,0.06317 1.43583,0.04211 4.30749,-0.258938 8.23257,0.125651 1.78697,0.09025 4.46741,0.583596 4.46742,0.832814 4.46742,1.061903 3.57393,0.918665 5.36091,-0.541249 8.93483,-1.112348 6.25439,-0.883029 v 0 l 18.99945,2.245985 3.16657,0.314013 1.05553,-0.09974 6.33315,-1.496243 5.27763,-1.031358 5.27763,-0.807592 5.27763,-0.552819 4.22209,-0.236955 4.95354,-0.03124 3.57394,0.179105 4.46742,0.469514 4.46742,0.71156 5.3609,1.115819 6.25438,1.576078 0.89349,0.230476 0.89348,0.0914 4.46742,-0.47877 8.04135,-1.091753 4.46742,-0.691891 v 0 l 15.85541,1.617961 9.24898,0.720585 7.9277,0.39292 9.24899,0.216823 9.24898,-0.0025 1.32129,-0.07914 1.32128,-0.217286 2.64257,-0.773807 3.96385,-1.224115 2.64257,-0.593083 2.64257,-0.227931 v 0"
             clip-path="url(#p4673ba2d22)"
             style="fill:none;stroke:#008000;stroke-width:1.5;stroke-linecap:square"
             id="path66" /></g><g
           id="line2d_44"><path
             d="m 56.835852,86.652713 6.254387,0.124494 6.254386,0.384821 6.25438,0.610901 8.041355,1.036448 12.508773,1.895412 5.360897,0.818005 v 0 l 20.10164,-1.746852 25.84495,-2.18397 8.61499,-0.441283 1.43583,-0.01111 5.74332,2.571568 1.43584,0.472059 1.43583,0.245286 2.87166,0.130048 2.87166,-0.05762 3.2228,-0.03055 3.57394,0.182344 1.78697,-0.911723 2.68044,-1.734818 0.89349,-0.606504 0.89348,-0.09071 6.25438,0.583595 8.04136,1.004515 12.50877,1.844735 6.25439,0.933243 v 0 l 32.72128,-3.957664 7.38868,-0.644454 1.05552,-0.05669 6.33315,1.687613 3.16658,0.506307 2.11105,0.117089 v 0 l 1.78696,-0.150642 1.78697,-0.4274 1.78697,-0.64723 1.78697,-0.670371 1.78697,-0.405416 0.89348,-0.04582 5.3609,0.500522 6.25438,0.798104 8.04136,1.255586 15.18922,2.556064 v 0 l 21.14054,-2.41005 14.53412,-1.616109 7.9277,-0.671065 7.9277,-0.451002 7.92771,-0.236493 6.60642,-0.05322 v 0"
             clip-path="url(#p4673ba2d22)"
             style="fill:none;stroke:#008000;stroke-width:1.5;stroke-linecap:square"
             id="path67" /></g><g
           id="line2d_45"><path
             d="m 56.835852,84.194763 2.68045,-0.09441 2.680449,-0.276526 2.680456,-0.450539 3.573931,-0.849707 3.573937,-1.095224 4.467418,-1.634159 6.254386,-2.569485 8.041349,-3.279657 4.467418,-1.573532 3.573937,-1.037837 2.680447,-0.619925 v 0 l 4.3075,0.681015 4.30749,0.898302 5.74332,1.418955 8.61499,2.378116 8.61498,2.586377 14.35831,4.597953 4.3075,1.181306 2.87166,1.187091 2.87166,1.376146 2.87167,-0.01388 10.05081,-0.149023 7.33908,0.06109 6.25439,0.313549 0.89348,-0.459795 2.68045,-1.749166 1.78697,-0.958929 2.68045,-1.144975 16.0827,-6.168245 4.46742,-1.520772 3.57394,-1.012383 1.78697,-0.410044 v 0 l 4.22209,0.886732 5.27763,1.415484 6.33315,1.974783 8.44421,2.89391 16.8884,5.96947 3.16658,-0.08978 3.16657,0.736321 2.11105,0.250608 3.16658,0.05854 v 0 l 4.46742,-0.07845 1.78696,-0.230013 1.78697,-0.685412 0.89349,0.01018 0.89348,-0.130974 3.57394,-1.145901 4.46741,-1.747546 6.25438,-2.749515 8.04136,-3.524249 4.46742,-1.706125 3.57393,-1.115356 2.68045,-0.639132 1.78697,-0.313318 v 0 l 3.96385,0.501216 6.60642,1.110266 9.24899,1.529565 6.60642,0.824947 1.32128,0.179105 7.9277,2.246217 5.28513,1.26785 5.28514,1.024184 5.28513,0.774271 5.28514,0.530372 5.28514,0.293186 3.96385,0.06687 v 0"
             clip-path="url(#p4673ba2d22)"
             style="fill:none;stroke:#008000;stroke-width:1.5;stroke-linecap:square"
             id="path68" /></g><g
           id="line2d_46"><path
             d="m 56.835852,83.91847 0.893481,-0.06063 1.786969,-0.456556 1.786968,-0.797642 2.68045,-1.567978 3.573937,-2.429024 5.360899,-3.948408 1.786968,-1.356246 0.893481,-0.489414 5.360906,-1.463616 3.573937,-0.763857 3.57393,-0.522737 3.573937,-0.241583 2.68045,0.01643 2.680449,0.189287 3.573936,0.513943 0.89348,0.17332 v 0 l 2.87167,-0.292029 2.87166,-0.129585 2.87166,0.06086 2.87166,0.273054 2.87166,0.493348 2.87167,0.70161 4.30749,1.37013 5.74333,2.159904 7.17915,2.657417 10.05081,3.494167 7.17916,2.80482 2.87166,0.568091 4.3075,0.5232 4.30749,0.304293 5.74332,0.184659 4.65863,-0.01226 3.57394,-0.29712 2.68045,-0.419068 2.68045,-0.602339 2.68045,-0.854798 1.78696,-0.805741 1.78697,-1.033208 8.04136,-5.081583 2.68045,-1.347221 2.68045,-1.062365 2.68045,-0.74789 2.68045,-0.426242 2.68045,-0.118478 2.68045,0.157585 2.68045,0.393382 0.89349,0.176097 3.16657,-0.459564 3.16658,-0.222608 3.16657,0.06202 3.16658,0.37811 3.16657,0.700684 3.16658,1.001044 3.16657,1.255818 4.22211,1.967146 13.72183,6.79488 3.16657,1.201207 1.05553,0.295731 11.12465,-0.155733 5.3609,0.16846 1.78697,-0.897376 6.25439,-3.587652 5.36089,-3.007529 3.57394,-1.806321 3.57393,-1.553169 2.68046,-0.95083 2.68045,-0.732618 2.68045,-0.489646 2.68045,-0.230707 2.68045,0.02985 2.68045,0.27907 v 0 l 3.96385,-0.262178 2.64257,-0.0039 2.64257,0.147172 3.96385,0.502141 3.96385,0.799493 5.28514,1.392113 5.28513,1.515219 5.28513,0.426242 6.60642,0.31702 6.60642,0.292261 2.64257,0.286012 2.64256,0.54148 2.64257,0.818931 6.60642,2.336232 2.64257,0.684023 1.32129,0.206874 1.32128,0.07266 v 0"
             clip-path="url(#p4673ba2d22)"
             style="fill:none;stroke:#008000;stroke-width:1.5;stroke-linecap:square"
             id="path69" /></g><g
           id="line2d_47"><path
             d="m 56.835852,83.693316 0.893481,-0.05808 1.786969,-0.439895 1.786968,-0.779592 2.68045,-1.559185 3.573937,-2.445685 5.360899,-3.980573 1.786968,-1.352543 0.893481,-0.458407 23.230578,-17.6902 2.680447,-1.908833 v 0 l 8.61499,3.647123 5.74332,2.198779 5.74333,1.967609 10.05081,3.211394 8.61499,3.17622 2.87166,0.807361 2.87166,0.519959 2.87167,0.157353 2.87166,-0.228162 2.87166,-0.57619 2.87166,-0.838368 7.17916,-2.328365 8.61498,-1.039919 v 0 l 3.57394,-0.130279 3.57394,-0.383896 3.57393,-0.615066 3.57393,-0.821244 4.46742,-1.288908 4.46742,-1.542524 5.3609,-2.107376 8.93483,-3.825996 7.14788,-2.968422 v 0 l 3.16657,1.132249 4.2221,1.816041 4.2221,2.074979 4.2221,2.354744 4.22211,2.633584 4.2221,2.895761 4.22209,3.137113 5.27763,4.213363 13.72183,11.260703 2.11105,1.304643 1.05553,0.483398 1.05552,0.317252 1.05553,0.111304 v 0 l 0.89348,-0.08284 0.89348,-0.237649 1.78697,-0.831427 1.78697,-1.133868 2.68045,-1.996071 4.46742,-3.688313 13.40225,-11.368999 4.46742,-3.409704 3.57394,-2.441289 2.68045,-1.616572 2.68045,-1.402758 2.68045,-1.173206 2.68045,-0.949442 v 0 l 3.96385,0.936946 3.96385,1.14891 3.96385,1.382625 3.96386,1.603383 5.28513,2.425553 5.28514,2.680326 7.9277,4.326056 9.24898,5.083433 3.96385,2.081921 6.60642,4.203182 3.96386,2.195076 2.64256,1.179918 1.32129,0.449382 1.32128,0.324425 1.32129,0.193452 1.32128,0.06433 v 0"
             clip-path="url(#p4673ba2d22)"
             style="fill:none;stroke:#008000;stroke-width:1.5;stroke-linecap:square"
             id="path70" /></g><g
           id="line2d_48"><path
             d="m 56.835852,76.706835 2.68045,-0.107834 2.680449,-0.314706 3.573937,-0.695825 4.467418,-1.181306 4.467418,-1.339122 20.550122,-15.619154 5.360904,-3.865798 0.89348,-0.562769 v 0 l 4.3075,1.795446 5.74332,2.317257 5.74332,2.028699 11.48666,3.722792 4.30748,1.038531 4.3075,0.819624 4.30749,0.596091 4.30749,0.355665 4.3075,0.11061 4.30749,-0.120329 4.3075,-0.316095 4.30748,-0.462109 1.43584,-0.286244 2.87166,-0.727527 1.43583,-0.231865 1.43583,-0.11894 5.55212,-0.05068 3.57393,-0.306376 3.57393,-0.549116 3.57394,-0.782601 3.57393,-0.989705 4.46742,-1.473798 5.36091,-2.027542 7.14786,-2.966339 9.82832,-4.146719 0.89349,-0.23765 v 0 l 2.11105,0.596785 14.77735,4.634052 7.38868,2.131441 6.33315,1.613333 5.27762,1.131092 5.27763,0.882103 4.22211,0.492886 4.22209,0.281384 4.06006,0.05646 3.57394,-0.179799 3.57393,-0.413052 3.57394,-0.631495 3.57393,-0.828881 4.46742,-1.274561 5.3609,-1.807016 6.25439,-2.365852 6.25438,-2.493816 0.89349,0.01504 4.46741,1.039457 1.78697,0.52343 v 0 l 3.96385,-0.757378 2.64257,-0.305913 1.32128,0.03864 1.32129,0.237187 2.64256,0.862666 3.96386,1.705431 3.96385,1.979873 3.96385,2.196465 5.28513,3.209774 6.60642,4.345724 10.57027,7.214644 1.32128,0.709709 2.64257,0.959854 2.64257,0.578273 2.64257,0.259633 3.96385,0.08631 6.60642,-0.02846 v 0"
             clip-path="url(#p4673ba2d22)"
             style="fill:none;stroke:#008000;stroke-width:1.5;stroke-linecap:square"
             id="path71" /></g><g
           id="line2d_49"><path
             d="m 56.835852,43.644386 5.360899,-0.121486 5.360906,-0.369318 5.360899,-0.621082 5.360905,-0.869608 2.68045,-0.524125 0.893481,0.06734 3.573937,1.785265 4.467418,2.492659 4.467418,2.740028 5.360899,3.555257 1.786966,1.173669 v 0 l 2.87167,-1.190099 5.74332,-2.419768 4.30749,-1.539747 2.87166,-0.854798 2.87167,-0.693742 4.30749,-0.743263 4.3075,-0.473679 4.30748,-0.304988 2.87167,0.03772 20.10163,1.101472 5.74333,-0.07682 1.43582,-0.03309 4.3075,1.33218 2.87166,0.607661 2.87166,0.213352 v 0 l 5.36091,0.118015 6.25438,0.385284 9.82832,0.660652 3.57394,0.02407 3.57393,-0.230245 2.68045,-0.385746 2.68045,-0.585215 2.68045,-0.630339 1.78697,0.49034 4.46742,1.559417 1.78697,0.564389 v 0 l 2.11105,-0.579893 3.16657,-0.826336 2.11105,-0.292723 2.11105,-0.0086 8.4442,0.453316 4.2221,-0.146709 10.55526,-0.541248 6.33315,-0.02522 28.01757,0.400325 4.46741,0.344326 4.46742,0.540091 6.25439,1.003127 8.04135,1.466624 0.89349,-0.194146 6.25438,-2.450313 v 0 l 6.60642,1.674423 1.32128,0.146015 1.32129,-0.03656 2.64256,-0.418837 3.96386,-0.930698 11.89155,-3.021644 3.96385,-0.779824 3.96385,-0.598404 5.28513,-0.55467 6.60642,-0.436424 9.24899,-0.350805 7.92771,-0.07937 1.32128,0.0025 v 0"
             clip-path="url(#p4673ba2d22)"
             style="fill:none;stroke:#008000;stroke-width:1.5;stroke-linecap:square"
             id="path72" /></g><g
           id="line2d_50"><path
             d="m 56.835852,43.563858 5.360899,-0.130742 5.360906,-0.387598 5.360899,-0.634967 5.360905,-0.872384 2.68045,-0.520885 0.893481,0.04582 3.573937,1.78781 4.467418,2.506312 4.467418,2.764325 5.360899,3.586033 1.786966,1.245404 v 0 l 10.05082,-4.279312 4.30749,-1.657762 2.87167,-0.937177 2.87166,-0.740023 2.87166,-0.503762 2.87166,-0.2675 4.30749,-0.06502 2.87167,0.0012 15.79414,-0.690503 4.30749,0.11547 2.87166,0.278608 2.87167,0.601181 2.87165,0.884418 2.87167,-0.131668 9.85961,-0.647693 19.65664,-0.1518 3.57393,0.276525 3.57394,0.488721 3.57393,0.721047 5.3609,1.345602 4.46742,1.596209 1.78697,0.696288 v 0 l 8.4442,-2.6116 5.27763,-1.379849 5.27762,-1.149372 6.33315,-1.118365 6.33316,-0.893442 6.33315,-0.698371 6.33315,-0.486637 5.27762,-0.21451 5.84703,-0.0206 7.14787,0.206411 5.3609,0.357747 4.46742,0.480158 4.46741,0.685644 4.46742,0.916582 4.46743,1.151918 4.46741,1.369204 5.3609,1.878057 1.78697,0.669676 v 0 l 6.60642,-1.557796 7.9277,-1.616573 6.60642,-1.16557 5.28514,-0.756221 5.28513,-0.559993 5.28513,-0.349416 5.28514,-0.137221 5.28513,0.06132 7.92771,0.339235 7.9277,0.270971 2.64257,0.0065 v 0"
             clip-path="url(#p4673ba2d22)"
             style="fill:none;stroke:#008000;stroke-width:1.5;stroke-linecap:square"
             id="path73" /></g><g
           id="line2d_51"><path
             d="m 56.835852,35.210486 3.573937,0.121718 3.573931,0.36654 3.573937,0.613215 3.57393,0.86174 3.573937,1.108414 3.573937,1.348147 2.68045,1.161405 0.893481,0.159667 5.360905,-1.247487 6.254387,-1.684836 8.041346,-2.4119 v 0 l 10.05082,1.865098 4.30749,0.569711 2.87167,0.21798 2.87166,0.06179 4.30749,-0.176791 8.61499,-0.615297 2.87166,-0.0058 2.87166,0.193451 2.87166,0.409119 2.87166,0.612983 4.3075,1.238462 10.05082,3.24379 2.87165,0.481547 8.61499,1.051026 2.32932,0.116395 7.14787,-0.133287 11.61528,-0.259401 4.46742,0.180262 3.57394,0.372325 3.57393,0.61252 3.57393,0.853179 1.78697,0.445911 0.89348,-0.179568 2.68046,-1.000581 3.57393,-1.560805 0.89349,-0.416523 v 0 l 3.16657,1.165571 2.11105,0.586603 2.11105,0.304756 2.11105,-0.06132 3.16658,-0.522274 10.55525,-2.036335 22.16604,-3.696875 4.22209,-0.335764 4.06006,-0.07659 17.86967,-0.03448 4.46742,-0.347797 9.82833,-0.926533 3.57393,0.694668 2.68045,0.316326 2.68045,0.104825 10.60815,-0.23117 5.28514,-0.565546 10.57027,-1.317833 5.28513,-0.02383 5.28514,-0.225617 21.14054,-1.236842 7.9277,-0.105982 2.64257,-0.0021 v 0"
             clip-path="url(#p4673ba2d22)"
             style="fill:none;stroke:#008000;stroke-width:1.5;stroke-linecap:square"
             id="path74" /></g><g
           id="line2d_52"><path
             d="m 56.835852,35.107513 3.573937,0.121023 3.573931,0.363532 3.573937,0.607429 3.57393,0.853179 3.573937,1.098695 3.573937,1.340047 2.68045,1.157935 0.893481,0.182344 5.360905,-1.23152 6.254387,-1.660307 8.041346,-2.332761 v 0 l 4.3075,0.736783 5.74332,0.886037 4.30749,0.439664 2.87167,0.120329 2.87166,-0.06896 2.87166,-0.288558 2.87166,-0.499828 4.30749,-1.037374 17.22998,-4.616927 2.87166,-0.432027 7.17916,-0.702073 5.74332,-0.341549 7.17915,-0.1717 4.11629,0.05206 3.57393,0.265186 3.57393,0.475762 3.57394,0.683098 3.57393,0.884649 3.57394,1.077638 4.46742,1.600143 4.46742,1.848206 5.36089,2.473684 9.82833,4.793256 v 0 l 4.22209,-1.78295 13.72183,-5.970397 4.2221,-1.583713 3.16658,-1.020019 3.16657,-0.782369 3.16659,-0.49682 6.33315,-0.644454 7.38868,-0.539629 5.27762,-0.188129 3.89801,0.01388 3.57394,0.245054 3.57394,0.474837 3.57393,0.678238 4.46742,1.079027 6.25438,1.787809 8.04136,2.312629 1.78697,0.353119 2.68045,0.02592 2.68045,0.269121 6.25438,0.792551 v 0 l 3.96385,-0.33831 5.28514,-0.734238 5.28513,-0.719196 2.64257,-0.194378 6.60642,-0.268888 6.60642,-0.882798 5.28513,-0.465349 5.28513,-0.203171 6.60642,0.0039 15.85541,0.106214 2.64257,-0.0046 v 0"
             clip-path="url(#p4673ba2d22)"
             style="fill:none;stroke:#008000;stroke-width:1.5;stroke-linecap:square"
             id="path75" /></g><g
           id="line2d_53"><path
             d="m 56.835852,27.461073 16.082704,0.0051 1.786968,0.323963 5.360906,1.336345 7.147867,2.04212 11.615286,3.602 2.680447,0.78098 v 0 l 4.3075,-0.752055 5.74332,-0.942731 5.74332,-0.715263 5.74333,-0.444291 5.74333,-0.199237 8.61498,-0.22284 4.30749,-0.307533 7.17916,-0.799261 2.87166,-0.540786 5.74332,-1.106795 5.74332,-0.883491 5.74333,-0.654636 4.30749,-0.34178 v 0 l 4.46742,0.114543 5.3609,0.405648 9.82832,1.092679 5.36091,0.451002 4.46742,0.128659 4.46741,-0.143469 4.46742,-0.388061 6.25439,-0.8106 v 0 l 7.38867,1.439319 6.33316,1.102861 4.22209,0.51186 3.16658,0.209187 3.16658,0.02661 3.16657,-0.205948 3.16658,-0.490803 10.55525,-1.996997 4.22211,-0.517414 4.22209,-0.298046 4.06006,-0.06317 4.46742,0.183271 4.46742,0.441977 4.46742,0.690966 4.46741,0.918202 5.3609,1.334725 7.14788,1.786653 2.68045,0.404259 1.78697,0.08747 2.68045,-0.160592 2.68045,-0.419763 3.57393,-0.771031 v 0 l 9.24899,1.393039 3.96385,0.380193 2.64257,0.05831 2.64257,-0.152494 3.96385,-0.548885 5.28513,-1.03182 6.60642,-1.529565 14.53412,-3.607554 5.28513,-0.136295 11.89156,-0.06873 v 0"
             clip-path="url(#p4673ba2d22)"
             style="fill:none;stroke:#008000;stroke-width:1.5;stroke-linecap:square"
             id="path76" /></g><g
           id="line2d_54"><path
             d="m 56.835852,25.517993 3.573937,0.09904 3.573931,0.29226 4.467418,0.614141 5.360905,0.985771 5.360899,1.310428 6.254387,1.755182 9.828317,3.02095 6.254384,1.955807 v 0 l 11.48665,-2.331372 17.22997,-3.478431 11.48665,-2.082616 2.87167,-0.09002 14.35831,-0.242509 7.17915,-0.03934 5.74332,0.179336 4.11629,0.123569 4.46742,0.245517 6.25438,0.616223 9.82832,1.042233 4.46742,0.235567 4.46742,-0.0236 4.46741,-0.286475 5.3609,-0.618768 2.68046,-0.309616 v 0 l 3.16657,0.09464 6.33315,0.130742 5.27763,-0.09534 6.33315,-0.344557 10.55526,-0.874468 9.49972,-0.691659 6.33315,-0.254542 7.06459,-0.05669 7.14788,0.186279 8.93483,0.469051 5.3609,0.802733 5.3609,1.018399 6.25439,1.410856 9.82832,2.418148 v 0 l 9.24899,-1.368741 7.9277,-0.92769 10.57027,-0.943656 9.24898,-0.867294 7.9277,-0.763394 3.96386,-0.242972 6.60642,-1.252115 3.96385,-0.506307 3.96385,-0.267963 2.64257,-0.04674 v 0"
             clip-path="url(#p4673ba2d22)"
             style="fill:none;stroke:#008000;stroke-width:1.5;stroke-linecap:square"
             id="path77" /></g><g
           id="line2d_55"><path
             d="m 56.835852,25.446027 3.573937,0.09927 3.573931,0.293186 4.467418,0.616918 5.360905,0.924912 5.360899,-0.137684 6.254387,-0.388986 5.360899,-0.559992 5.360905,-0.77913 5.360897,-0.966796 v 0 l 17.22998,1.997922 7.17915,0.57781 7.17915,0.335301 7.17916,0.117553 1.43583,9.25e-4 2.87167,-0.393151 7.17915,-1.049176 7.17916,-0.813146 7.17915,-0.540091 7.17915,-0.268426 v 0 l 8.04136,0.107833 7.14786,0.306607 6.25439,0.469283 7.14787,0.772419 8.04135,1.11258 8.04136,1.13248 v 0 l 2.11105,-0.05739 9.49972,-0.671759 15.83288,-1.147059 8.4442,-0.385515 8.44421,-0.16013 12.01813,0.02083 5.36091,0.21289 5.3609,0.421382 4.46741,0.400094 7.14787,0.225154 6.25439,-0.01481 7.14787,-0.267269 6.68218,-0.264492 11.89156,0.365615 15.8554,0.284161 9.24899,-0.05554 5.28513,-0.207105 5.28514,-0.46558 9.24899,-0.887657 5.28513,-0.273286 2.64257,-0.04096 v 0"
             clip-path="url(#p4673ba2d22)"
             style="fill:none;stroke:#008000;stroke-width:1.5;stroke-linecap:square"
             id="path78" /></g><g
           id="line2d_56"><path
             d="m 56.835852,18.091386 5.360899,0.119634 5.360906,0.354971 5.360899,0.578735 6.254386,0.928847 7.147868,1.32732 15.18922,3.146833 v 0 l 10.05082,-1.102167 7.17916,-0.554207 5.74332,-0.242972 5.74332,-0.04512 7.17916,0.202708 8.61498,0.499365 12.92249,0.763394 8.61498,0.281384 22.71951,0.570637 6.25439,0.505613 6.25439,0.714569 8.04134,1.163256 7.14788,1.110266 v 0 l 10.55525,-1.843809 5.27762,-0.675231 5.27763,-0.475993 6.33315,-0.327202 7.38868,-0.124957 20.62438,0.05739 12.50877,0.142774 9.82832,0.314938 9.82832,0.532918 9.82832,0.65533 v 0 l 7.9277,-0.472291 5.28514,-0.504918 5.28514,-0.699759 6.60641,-1.132943 11.89155,-2.385058 7.9277,-1.469864 6.60642,-0.973044 5.28514,-0.551893 5.28514,-0.317021 3.96385,-0.07243 v 0"
             clip-path="url(#p4673ba2d22)"
             style="fill:none;stroke:#008000;stroke-width:1.5;stroke-linecap:square"
             id="path79" /></g><g
           id="line2d_57"><path
             d="M 0,0"
             clip-path="url(#p4673ba2d22)"
             style="fill:none;stroke:#008000;stroke-width:1.5;stroke-linecap:square"
             id="path80" /></g><g
           id="line2d_58"><path
             d="M 0,0"
             clip-path="url(#p4673ba2d22)"
             style="fill:none;stroke:#008000;stroke-width:1.5;stroke-linecap:square"
             id="path81" /></g><g
           id="line2d_59"><path
             d="M 0,0"
             clip-path="url(#p4673ba2d22)"
             style="fill:none;stroke:#008000;stroke-width:1.5;stroke-linecap:square"
             id="path82" /></g><g
           id="line2d_60"><path
             d="M 0,0"
             clip-path="url(#p4673ba2d22)"
             style="fill:none;stroke:#008000;stroke-width:1.5;stroke-linecap:square"
             id="path83" /></g><g
           id="line2d_61"><path
             d="M 0,0"
             clip-path="url(#p4673ba2d22)"
             style="fill:none;stroke:#008000;stroke-width:1.5;stroke-linecap:square"
             id="path84" /></g><g
           id="line2d_62"><path
             d="M 0,0"
             clip-path="url(#p4673ba2d22)"
             style="fill:none;stroke:#008000;stroke-width:1.5;stroke-linecap:square"
             id="path85" /></g><g
           id="line2d_63"><path
             d="M 0,0"
             clip-path="url(#p4673ba2d22)"
             style="fill:none;stroke:#008000;stroke-width:1.5;stroke-linecap:square"
             id="path86" /></g><g
           id="line2d_64"><path
             d="M 0,0"
             clip-path="url(#p4673ba2d22)"
             style="fill:none;stroke:#008000;stroke-width:1.5;stroke-linecap:square"
             id="path87" /></g><g
           id="line2d_65"><path
             d="M 0,0"
             clip-path="url(#p4673ba2d22)"
             style="fill:none;stroke:#008000;stroke-width:1.5;stroke-linecap:square"
             id="path88" /></g><g
           id="line2d_66"><path
             d="M 0,0"
             clip-path="url(#p4673ba2d22)"
             style="fill:none;stroke:#008000;stroke-width:1.5;stroke-linecap:square"
             id="path89" /></g><g
           id="line2d_67"><path
             d="M 0,0"
             clip-path="url(#p4673ba2d22)"
             style="fill:none;stroke:#008000;stroke-width:1.5;stroke-linecap:square"
             id="path90" /></g><g
           id="line2d_68"><path
             d="M 0,0"
             clip-path="url(#p4673ba2d22)"
             style="fill:none;stroke:#008000;stroke-width:1.5;stroke-linecap:square"
             id="path91" /></g><g
           id="patch_3"><path
             d="M 40.603125,273.312 V 7.2"
             style="fill:none;stroke:#000000;stroke-width:0.8;stroke-linecap:square;stroke-linejoin:miter"
             id="path92" /></g><g
           id="patch_4"><path
             d="M 397.72312,273.312 V 7.2"
             style="fill:none;stroke:#000000;stroke-width:0.8;stroke-linecap:square;stroke-linejoin:miter"
             id="path93" /></g><g
           id="patch_5"><path
             d="M 40.603125,273.312 H 397.72312"
             style="fill:none;stroke:#000000;stroke-width:0.8;stroke-linecap:square;stroke-linejoin:miter"
             id="path94" /></g><g
           id="patch_6"><path
             d="M 40.603125,7.2 H 397.72312"
             style="fill:none;stroke:#000000;stroke-width:0.8;stroke-linecap:square;stroke-linejoin:miter"
             id="path95" /></g></g></g><g
       id="figure_1-5"
       transform="matrix(0,-0.35277778,-0.35277778,0,177.45128,216.01189)"
       inkscape:label="figure_1-5 DOS"><g
         id="axes_1-6"
         transform="matrix(0.79538436,0,0,1,51.388133,-20.582342)"><g
           id="patch_2-2"><path
             d="M 7.2,62.64 H 342 V 7.2 H 7.2 Z"
             style="fill:#ffffff"
             id="path2-9" /></g><g
           id="PolyCollection_1"><path
             d="m 21.756522,62.64 v -0.768809 l 2.911304,-0.702325 2.911304,-0.49191 2.911305,-0.173069 2.911304,-0.04471 2.911304,-0.02406 2.911305,-0.04547 2.911304,-0.107238 2.911305,-0.09846 2.911304,-0.161547 2.911304,-0.503698 2.911305,-1.645481 2.911304,-2.867127 2.911304,-2.520872 2.911305,-2.505945 2.911304,-4.275078 2.911304,-5.708773 2.911305,-4.784698 2.911304,-3.835796 2.911304,-4.908301 2.911305,-2.896965 2.911304,2.716757 2.911304,3.137612 2.911305,-1.057774 2.911304,-0.804423 2.911304,1.311555 2.911305,5.205177 2.911305,5.766839 2.9113,3.39943 2.91131,-0.402975 2.9113,-2.319551 2.91131,0.294346 2.9113,2.540485 2.91131,1.442617 2.9113,-0.589032 2.9113,-0.894199 2.91131,1.188688 2.9113,1.735103 2.91131,0.781013 2.9113,1.689687 2.91131,2.373787 2.9113,1.722152 2.9113,1.155918 2.91131,0.39932 2.9113,-0.992046 2.91131,-2.868516 2.9113,-3.196915 2.91131,-0.543778 2.9113,1.24253 2.9113,0.340543 2.91131,-0.125688 2.9113,0.373462 2.91131,0.619692 2.9113,-0.201416 2.91131,-1.34739 2.9113,-0.932837 2.9113,1.814535 2.91131,2.959529 2.9113,-0.381212 2.91131,-4.078265 2.9113,-2.745383 2.91131,3.675776 2.9113,3.523558 2.91131,-0.559473 2.9113,-0.678324 2.9113,0.973487 2.91131,1.056391 2.9113,0.203741 2.91131,-0.704158 2.9113,-1.384647 2.91131,-3.105708 2.9113,-8.227602 2.9113,-10.35956 2.91131,-3.009 2.9113,3.029342 2.91131,5.190344 2.9113,5.811277 2.91131,4.62029 2.9113,2.435066 2.9113,-0.366122 2.91131,-1.986527 2.9113,0.421147 2.91131,4.470287 2.9113,4.149232 2.91131,1.292476 2.9113,-1.706037 2.91131,-2.245417 2.9113,-0.176514 2.9113,0.900744 2.91131,-0.03083 2.9113,-1.624606 2.91131,-4.38959 2.9113,-5.929646 2.91131,-4.46212 2.9113,-2.703987 2.91131,3.083771 2.9113,3.011845 2.9113,-0.998091 2.91131,-1.377806 2.9113,-3.670845 2.91131,-11.184059 2.9113,-11.427142 2.9113,5.796455 2.91131,20.754509 2.9113,15.666759 2.91131,5.794273 2.9113,2.835471 2.91131,1.560391 2.9113,0.360979 2.91131,0.03024 L 342,62.64 h 2.9113 2.91131 2.9113 2.91131 2.9113 2.91131 2.9113 2.9113 2.91131 2.9113 2.91131 2.9113 2.91131 2.9113 2.9113 2.91131 2.9113 2.91131 2.9113 2.91131 2.9113 2.91131 2.9113 2.9113 2.91131 2.9113 2.91131 2.9113 2.91131 2.9113 2.9113 2.91131 2.9113 2.91131 2.9113 2.91131 2.9113 2.91131 2.9113 2.9113 2.91131 2.9113 2.91131 2.9113 2.91131 2.9113 2.9113 2.91131 2.9113 2.91131 2.9113 2.91131 2.9113 2.91131 2.9113 2.9113 2.91131 2.9113 2.91131 2.9113 2.9113 2.91131 l 2.9113,-0.0011 2.91131,-0.03632 2.9113,-0.465522 2.91131,-2.343539 2.9113,-4.711049 2.91131,-3.10671 2.9113,0.03196 2.9113,-1.110627 2.91131,-1.732665 2.9113,-0.34344 2.91131,0.776417 2.9113,0.508053 2.91131,-0.237226 2.9113,-0.96609 2.9113,-2.622987 2.91131,-2.514182 2.9113,-1.689056 2.91131,-1.102995 2.9113,2.318847 2.91131,5.47419 2.9113,4.994889 2.91131,1.433296 2.9113,-1.660709 2.9113,-3.225242 2.91131,-2.745272 2.9113,0.268696 2.91131,3.140404 2.9113,3.133992 2.91131,0.01249 2.9113,-1.399498 2.9113,-0.417681 2.91131,0.902726 2.9113,-0.509647 2.91131,-2.175593 2.9113,-1.425492 2.91131,-2.513019 2.9113,-3.144538 2.91131,-0.269394 2.9113,1.164708 2.9113,0.337124 2.91131,0.466709 2.9113,1.823169 2.91131,0.959276 2.9113,-2.824732 2.9113,-5.388731 2.91131,-4.074321 2.9113,0.526324 2.91131,4.472471 2.9113,2.893239 2.91131,2.279129 2.9113,2.183854 2.91131,-0.219428 2.9113,-1.836377 2.9113,-0.83679 2.91131,-0.148203 2.9113,-4.521519 2.91131,-3.472618 2.9113,7.61131 2.91131,8.646706 2.9113,2.915767 2.9113,0.536193 2.91131,0.256856 2.9113,0.157572 2.91131,0.0321 2.9113,0.103398 2.91131,-0.03589 2.9113,-0.272929 2.9113,0.0581 2.91131,0.435454 2.9113,-0.123428 2.91131,-0.05309 2.9113,0.589555 2.91131,0.210674 2.9113,0.184637 2.91131,0.533691 2.9113,0.784192 2.9113,0.934838 V 62.64 v 0 h -2.9113 -2.9113 -2.91131 -2.9113 -2.91131 -2.9113 -2.91131 -2.9113 -2.91131 -2.9113 -2.9113 -2.91131 -2.9113 -2.91131 -2.9113 -2.91131 -2.9113 -2.9113 -2.91131 -2.9113 -2.91131 -2.9113 -2.91131 -2.9113 -2.9113 -2.91131 -2.9113 -2.91131 -2.9113 -2.91131 -2.9113 -2.91131 -2.9113 -2.9113 -2.91131 -2.9113 -2.91131 -2.9113 -2.9113 -2.91131 -2.9113 -2.91131 -2.9113 -2.91131 -2.9113 -2.91131 -2.9113 -2.9113 -2.91131 -2.9113 -2.91131 -2.9113 -2.91131 -2.9113 -2.9113 -2.91131 -2.9113 -2.91131 -2.9113 -2.91131 -2.9113 -2.91131 -2.9113 -2.9113 -2.91131 -2.9113 -2.91131 -2.9113 -2.91131 -2.9113 -2.9113 -2.91131 -2.9113 -2.91131 -2.9113 -2.91131 -2.9113 -2.91131 -2.9113 -2.9113 -2.91131 -2.9113 -2.91131 -2.9113 -2.9113 -2.91131 -2.9113 -2.91131 -2.9113 -2.91131 -2.9113 -2.91131 -2.9113 -2.9113 -2.91131 -2.9113 -2.91131 -2.9113 -2.91131 -2.9113 -2.9113 -2.91131 -2.9113 -2.91131 -2.9113 -2.91131 -2.9113 -2.91131 -2.9113 -2.9113 -2.91131 -2.9113 -2.91131 -2.9113 -2.91131 -2.9113 -2.9113 -2.91131 -2.9113 -2.91131 -2.9113 -2.91131 -2.9113 -2.91131 -2.9113 -2.9113 -2.91131 -2.9113 -2.91131 -2.9113 -2.91131 -2.9113 -2.9113 -2.91131 -2.9113 -2.91131 -2.9113 -2.91131 -2.9113 -2.9113 -2.91131 -2.9113 -2.91131 -2.9113 -2.91131 -2.9113 -2.91131 -2.9113 -2.9113 -2.91131 -2.9113 -2.91131 -2.9113 -2.9113 -2.91131 -2.9113 -2.91131 -2.9113 -2.91131 -2.9113 -2.91131 -2.9113 -2.9113 -2.91131 -2.9113 -2.91131 -2.9113 -2.91131 -2.9113 -2.91131 -2.9113 -2.9113 -2.91131 -2.9113 -2.91131 -2.9113 -2.91131 -2.9113 -2.9113 -2.91131 -2.9113 -2.91131 -2.9113 -2.91131 -2.9113 -2.9113 -2.91131 -2.9113 -2.91131 -2.9113 -2.91131 -2.9113 -2.91131 -2.9113 -2.9113 -2.91131 -2.9113 -2.91131 -2.9113 -2.91131 -2.9113 -2.9113 -2.91131 -2.9113 -2.91131 -2.9113 -2.91131 -2.9113 -2.9113 -2.91131 -2.9113 -2.91131 -2.9113 -2.91131 -2.9113 -2.9113 -2.91131 -2.9113 -2.91131 -2.9113 -2.91131 -2.9113 H 97.450435 94.53913 91.627826 88.716522 85.805217 82.893913 79.982609 77.071304 74.16 71.248696 68.337391 65.426087 62.514783 59.603478 56.692174 53.78087 50.869565 47.958261 45.046957 42.135652 39.224348 36.313043 33.401739 30.490435 27.57913 24.667826 Z"
             clip-path="url(#p4ddf995f0f)"
             style="fill:#808080;stroke:#000000"
             id="path3-1" /></g><g
           id="matplotlib.axis_1-2" /><g
           id="matplotlib.axis_2-7" /><g
           id="patch_3-0"><path
             d="M 7.2,62.64 V 7.2"
             style="fill:none;stroke:#000000;stroke-width:0.8;stroke-linecap:square;stroke-linejoin:miter"
             id="path4-9" /></g><g
           id="patch_4-3"><path
             d="M 342,62.64 V 7.2"
             style="fill:none;stroke:#000000;stroke-width:0.8;stroke-linecap:square;stroke-linejoin:miter"
             id="path5-6" /></g><g
           id="patch_5-0"><path
             d="M 7.2,62.64 H 342"
             style="fill:none;stroke:#000000;stroke-width:0.8;stroke-linecap:square;stroke-linejoin:miter"
             id="path6-6" /></g><g
           id="patch_6-2"><path
             d="M 7.2,7.2 H 342"
             style="fill:none;stroke:#000000;stroke-width:0.8;stroke-linecap:square;stroke-linejoin:miter"
             id="path7-6" /></g></g></g><text
       xml:space="preserve"
       style="font-style:normal;font-variant:normal;font-weight:normal;font-stretch:normal;font-size:4.23333px;font-family:'DejaVu Sans';-inkscape-font-specification:'DejaVu Sans, Normal';font-variant-ligatures:normal;font-variant-caps:normal;font-variant-numeric:normal;font-variant-east-asian:normal;fill:#000000;stroke-width:0.264583;stroke-linecap:butt;stroke-linejoin:round"
       x="167.66385"
       y="201.23506"
       id="text1"><tspan
         sodipodi:role="line"
         id="tspan1"
         style="font-style:normal;font-variant:normal;font-weight:normal;font-stretch:normal;font-size:4.23333px;font-family:'DejaVu Sans';-inkscape-font-specification:'DejaVu Sans, Normal';font-variant-ligatures:normal;font-variant-caps:normal;font-variant-numeric:normal;font-variant-east-asian:normal;stroke-width:0.264583"
         x="167.66385"
         y="201.23506">DOS</tspan></text></g></svg>
