<?xml version="1.0" encoding="UTF-8" standalone="no"?>
<svg
   width="69.839996pt"
   height="349.20001pt"
   viewBox="0 0 69.839994 349.20003"
   version="1.1"
   id="svg7"
   sodipodi:docname="dos_small_0-11.svg"
   inkscape:version="1.3.2 (091e20ef0f, 2023-11-25, custom)"
   xmlns:inkscape="http://www.inkscape.org/namespaces/inkscape"
   xmlns:sodipodi="http://sodipodi.sourceforge.net/DTD/sodipodi-0.dtd"
   xmlns="http://www.w3.org/2000/svg"
   xmlns:svg="http://www.w3.org/2000/svg"
   xmlns:rdf="http://www.w3.org/1999/02/22-rdf-syntax-ns#"
   xmlns:cc="http://creativecommons.org/ns#"
   xmlns:dc="http://purl.org/dc/elements/1.1/">
  <sodipodi:namedview
     id="namedview7"
     pagecolor="#ffffff"
     bordercolor="#000000"
     borderopacity="0.25"
     inkscape:showpageshadow="2"
     inkscape:pageopacity="0.0"
     inkscape:pagecheckerboard="0"
     inkscape:deskcolor="#d1d1d1"
     inkscape:document-units="pt"
     inkscape:zoom="1.3445017"
     inkscape:cx="194.86774"
     inkscape:cy="219.41215"
     inkscape:window-width="1876"
     inkscape:window-height="1052"
     inkscape:window-x="0"
     inkscape:window-y="0"
     inkscape:window-maximized="1"
     inkscape:current-layer="svg7" />
  <metadata
     id="metadata1">
    <rdf:RDF>
      <cc:Work>
        <dc:type
           rdf:resource="http://purl.org/dc/dcmitype/StillImage" />
        <dc:date>2024-10-07T18:55:17.638310</dc:date>
        <dc:format>image/svg+xml</dc:format>
        <dc:creator>
          <cc:Agent>
            <dc:title>Matplotlib v3.9.2, https://matplotlib.org/</dc:title>
          </cc:Agent>
        </dc:creator>
      </cc:Work>
    </rdf:RDF>
  </metadata>
  <defs
     id="defs1">
    <style
       type="text/css"
       id="style1">*{stroke-linejoin: round; stroke-linecap: butt}</style>
  </defs>
  <g
     id="figure_1"
     transform="matrix(0,-1,-1,0,69.84,349.2)">
    <g
       id="patch_1">
      <path
         d="M 0,69.84 H 349.2 V 0 H 0 Z"
         style="fill:#ffffff"
         id="path1" />
    </g>
    <g
       id="axes_1">
      <g
         id="patch_2">
        <path
           d="M 7.2,62.64 H 342 V 7.2 H 7.2 Z"
           style="fill:#ffffff"
           id="path2" />
      </g>
      <g
         id="PolyCollection_1">
        <path
           d="m 21.756522,62.64 v -0.768809 l 2.911304,-0.702325 2.911304,-0.49191 2.911305,-0.173069 2.911304,-0.04471 2.911304,-0.02406 2.911305,-0.04547 2.911304,-0.107238 2.911305,-0.09846 2.911304,-0.161547 2.911304,-0.503698 2.911305,-1.645481 2.911304,-2.867127 2.911304,-2.520872 2.911305,-2.505945 2.911304,-4.275078 2.911304,-5.708773 2.911305,-4.784698 2.911304,-3.835796 2.911304,-4.908301 2.911305,-2.896965 2.911304,2.716757 2.911304,3.137612 2.911305,-1.057774 2.911304,-0.804423 2.911304,1.311555 2.911305,5.205177 2.911305,5.766839 2.9113,3.39943 2.91131,-0.402975 2.9113,-2.319551 2.91131,0.294346 2.9113,2.540485 2.91131,1.442617 2.9113,-0.589032 2.9113,-0.894199 2.91131,1.188688 2.9113,1.735103 2.91131,0.781013 2.9113,1.689687 2.91131,2.373787 2.9113,1.722152 2.9113,1.155918 2.91131,0.39932 2.9113,-0.992046 2.91131,-2.868516 2.9113,-3.196915 2.91131,-0.543778 2.9113,1.24253 2.9113,0.340543 2.91131,-0.125688 2.9113,0.373462 2.91131,0.619692 2.9113,-0.201416 2.91131,-1.34739 2.9113,-0.932837 2.9113,1.814535 2.91131,2.959529 2.9113,-0.381212 2.91131,-4.078265 2.9113,-2.745383 2.91131,3.675776 2.9113,3.523558 2.91131,-0.559473 2.9113,-0.678324 2.9113,0.973487 2.91131,1.056391 2.9113,0.203741 2.91131,-0.704158 2.9113,-1.384647 2.91131,-3.105708 2.9113,-8.227602 2.9113,-10.35956 2.91131,-3.009 2.9113,3.029342 2.91131,5.190344 2.9113,5.811277 2.91131,4.62029 2.9113,2.435066 2.9113,-0.366122 2.91131,-1.986527 2.9113,0.421147 2.91131,4.470287 2.9113,4.149232 2.91131,1.292476 2.9113,-1.706037 2.91131,-2.245417 2.9113,-0.176514 2.9113,0.900744 2.91131,-0.03083 2.9113,-1.624606 2.91131,-4.38959 2.9113,-5.929646 2.91131,-4.46212 2.9113,-2.703987 2.91131,3.083771 2.9113,3.011845 2.9113,-0.998091 2.91131,-1.377806 2.9113,-3.670845 2.91131,-11.184059 2.9113,-11.427142 2.9113,5.796455 2.91131,20.754509 2.9113,15.666759 2.91131,5.794273 2.9113,2.835471 2.91131,1.560391 2.9113,0.360979 2.91131,0.03024 L 342,62.64 h 2.9113 2.91131 2.9113 2.91131 2.9113 2.91131 2.9113 2.9113 2.91131 2.9113 2.91131 2.9113 2.91131 2.9113 2.9113 2.91131 2.9113 2.91131 2.9113 2.91131 2.9113 2.91131 2.9113 2.9113 2.91131 2.9113 2.91131 2.9113 2.91131 2.9113 2.9113 2.91131 2.9113 2.91131 2.9113 2.91131 2.9113 2.91131 2.9113 2.9113 2.91131 2.9113 2.91131 2.9113 2.91131 2.9113 2.9113 2.91131 2.9113 2.91131 2.9113 2.91131 2.9113 2.91131 2.9113 2.9113 2.91131 2.9113 2.91131 2.9113 2.9113 2.91131 l 2.9113,-0.0011 2.91131,-0.03632 2.9113,-0.465522 2.91131,-2.343539 2.9113,-4.711049 2.91131,-3.10671 2.9113,0.03196 2.9113,-1.110627 2.91131,-1.732665 2.9113,-0.34344 2.91131,0.776417 2.9113,0.508053 2.91131,-0.237226 2.9113,-0.96609 2.9113,-2.622987 2.91131,-2.514182 2.9113,-1.689056 2.91131,-1.102995 2.9113,2.318847 2.91131,5.47419 2.9113,4.994889 2.91131,1.433296 2.9113,-1.660709 2.9113,-3.225242 2.91131,-2.745272 2.9113,0.268696 2.91131,3.140404 2.9113,3.133992 2.91131,0.01249 2.9113,-1.399498 2.9113,-0.417681 2.91131,0.902726 2.9113,-0.509647 2.91131,-2.175593 2.9113,-1.425492 2.91131,-2.513019 2.9113,-3.144538 2.91131,-0.269394 2.9113,1.164708 2.9113,0.337124 2.91131,0.466709 2.9113,1.823169 2.91131,0.959276 2.9113,-2.824732 2.9113,-5.388731 2.91131,-4.074321 2.9113,0.526324 2.91131,4.472471 2.9113,2.893239 2.91131,2.279129 2.9113,2.183854 2.91131,-0.219428 2.9113,-1.836377 2.9113,-0.83679 2.91131,-0.148203 2.9113,-4.521519 2.91131,-3.472618 2.9113,7.61131 2.91131,8.646706 2.9113,2.915767 2.9113,0.536193 2.91131,0.256856 2.9113,0.157572 2.91131,0.0321 2.9113,0.103398 2.91131,-0.03589 2.9113,-0.272929 2.9113,0.0581 2.91131,0.435454 2.9113,-0.123428 2.91131,-0.05309 2.9113,0.589555 2.91131,0.210674 2.9113,0.184637 2.91131,0.533691 2.9113,0.784192 2.9113,0.934838 V 62.64 v 0 h -2.9113 -2.9113 -2.91131 -2.9113 -2.91131 -2.9113 -2.91131 -2.9113 -2.91131 -2.9113 -2.9113 -2.91131 -2.9113 -2.91131 -2.9113 -2.91131 -2.9113 -2.9113 -2.91131 -2.9113 -2.91131 -2.9113 -2.91131 -2.9113 -2.9113 -2.91131 -2.9113 -2.91131 -2.9113 -2.91131 -2.9113 -2.91131 -2.9113 -2.9113 -2.91131 -2.9113 -2.91131 -2.9113 -2.9113 -2.91131 -2.9113 -2.91131 -2.9113 -2.91131 -2.9113 -2.91131 -2.9113 -2.9113 -2.91131 -2.9113 -2.91131 -2.9113 -2.91131 -2.9113 -2.9113 -2.91131 -2.9113 -2.91131 -2.9113 -2.91131 -2.9113 -2.91131 -2.9113 -2.9113 -2.91131 -2.9113 -2.91131 -2.9113 -2.91131 -2.9113 -2.9113 -2.91131 -2.9113 -2.91131 -2.9113 -2.91131 -2.9113 -2.91131 -2.9113 -2.9113 -2.91131 -2.9113 -2.91131 -2.9113 -2.9113 -2.91131 -2.9113 -2.91131 -2.9113 -2.91131 -2.9113 -2.91131 -2.9113 -2.9113 -2.91131 -2.9113 -2.91131 -2.9113 -2.91131 -2.9113 -2.9113 -2.91131 -2.9113 -2.91131 -2.9113 -2.91131 -2.9113 -2.91131 -2.9113 -2.9113 -2.91131 -2.9113 -2.91131 -2.9113 -2.91131 -2.9113 -2.9113 -2.91131 -2.9113 -2.91131 -2.9113 -2.91131 -2.9113 -2.91131 -2.9113 -2.9113 -2.91131 -2.9113 -2.91131 -2.9113 -2.91131 -2.9113 -2.9113 -2.91131 -2.9113 -2.91131 -2.9113 -2.91131 -2.9113 -2.9113 -2.91131 -2.9113 -2.91131 -2.9113 -2.91131 -2.9113 -2.91131 -2.9113 -2.9113 -2.91131 -2.9113 -2.91131 -2.9113 -2.9113 -2.91131 -2.9113 -2.91131 -2.9113 -2.91131 -2.9113 -2.91131 -2.9113 -2.9113 -2.91131 -2.9113 -2.91131 -2.9113 -2.91131 -2.9113 -2.91131 -2.9113 -2.9113 -2.91131 -2.9113 -2.91131 -2.9113 -2.91131 -2.9113 -2.9113 -2.91131 -2.9113 -2.91131 -2.9113 -2.91131 -2.9113 -2.9113 -2.91131 -2.9113 -2.91131 -2.9113 -2.91131 -2.9113 -2.91131 -2.9113 -2.9113 -2.91131 -2.9113 -2.91131 -2.9113 -2.91131 -2.9113 -2.9113 -2.91131 -2.9113 -2.91131 -2.9113 -2.91131 -2.9113 -2.9113 -2.91131 -2.9113 -2.91131 -2.9113 -2.91131 -2.9113 -2.9113 -2.91131 -2.9113 -2.91131 -2.9113 -2.91131 -2.9113 H 97.450435 94.53913 91.627826 88.716522 85.805217 82.893913 79.982609 77.071304 74.16 71.248696 68.337391 65.426087 62.514783 59.603478 56.692174 53.78087 50.869565 47.958261 45.046957 42.135652 39.224348 36.313043 33.401739 30.490435 27.57913 24.667826 Z"
           clip-path="url(#p4ddf995f0f)"
           style="fill:#808080;stroke:#000000"
           id="path3" />
      </g>
      <g
         id="matplotlib.axis_1" />
      <g
         id="matplotlib.axis_2" />
      <g
         id="patch_3">
        <path
           d="M 7.2,62.64 V 7.2"
           style="fill:none;stroke:#000000;stroke-width:0.8;stroke-linecap:square;stroke-linejoin:miter"
           id="path4" />
      </g>
      <g
         id="patch_4">
        <path
           d="M 342,62.64 V 7.2"
           style="fill:none;stroke:#000000;stroke-width:0.8;stroke-linecap:square;stroke-linejoin:miter"
           id="path5" />
      </g>
      <g
         id="patch_5">
        <path
           d="M 7.2,62.64 H 342"
           style="fill:none;stroke:#000000;stroke-width:0.8;stroke-linecap:square;stroke-linejoin:miter"
           id="path6" />
      </g>
      <g
         id="patch_6">
        <path
           d="M 7.2,7.2 H 342"
           style="fill:none;stroke:#000000;stroke-width:0.8;stroke-linecap:square;stroke-linejoin:miter"
           id="path7" />
      </g>
    </g>
  </g>
  <defs
     id="defs7">
    <clipPath
       id="p4ddf995f0f">
      <rect
         x="7.1999998"
         y="7.1999998"
         width="334.79999"
         height="55.439999"
         id="rect7" />
    </clipPath>
  </defs>
</svg>
