<?xml version="1.0" encoding="UTF-8" standalone="no"?>
<!DOCTYPE svg PUBLIC "-//W3C//DTD SVG 1.1//EN" "http://www.w3.org/Graphics/SVG/1.1/DTD/svg11.dtd">
<svg xmlns:xlink="http://www.w3.org/1999/xlink" width="398.560625pt" height="300.989344pt" viewBox="0 0 398.560625 300.989344" xmlns="http://www.w3.org/2000/svg" version="1.1">
 <metadata>
  <rdf:RDF xmlns:dc="http://purl.org/dc/elements/1.1/" xmlns:cc="http://creativecommons.org/ns#" xmlns:rdf="http://www.w3.org/1999/02/22-rdf-syntax-ns#">
   <cc:Work>
    <dc:type rdf:resource="http://purl.org/dc/dcmitype/StillImage"/>
    <dc:date>2024-10-01T00:36:51.602225</dc:date>
    <dc:format>image/svg+xml</dc:format>
    <dc:creator>
     <cc:Agent>
      <dc:title>Matplotlib v3.9.2, https://matplotlib.org/</dc:title>
     </cc:Agent>
    </dc:creator>
   </cc:Work>
  </rdf:RDF>
 </metadata>
 <defs>
  <style type="text/css">*{stroke-linejoin: round; stroke-linecap: butt}</style>
 </defs>
 <g id="figure_1">
  <g id="patch_1">
   <path d="M 0 300.989344  L 398.560625 300.989344  L 398.560625 0  L 0 0  z " style="fill: #ffffff"/>
  </g>
  <g id="axes_1">
   <g id="patch_2">
    <path d="M 34.240625 277.111219  L 391.360625 277.111219  L 391.360625 10.999219  L 34.240625 10.999219  z " style="fill: #ffffff"/>
   </g>
   <g id="matplotlib.axis_1">
    <g id="xtick_1">
     <g id="line2d_1">
      <path d="M 50.473352 277.111219  L 50.473352 10.999219  " clip-path="url(#pf12cc8b486)" style="fill: none; stroke: #b0b0b0; stroke-width: 0.8; stroke-linecap: square"/>
     </g>
     <g id="line2d_2">
      <defs>
       <path id="m36f27ec9d1" d="M 0 0  L 0 3.5  " style="stroke: #000000; stroke-width: 0.8"/>
      </defs>
      <g>
       <use xlink:href="#m36f27ec9d1" x="50.473352" y="277.111219" style="stroke: #000000; stroke-width: 0.8"/>
      </g>
     </g>
     <g id="text_1">
      <!-- G -->
      <g transform="translate(46.599134 291.709656) scale(0.1 -0.1)">
       <defs>
        <path id="DejaVuSans-47" d="M 3809 666  L 3809 1919  L 2778 1919  L 2778 2438  L 4434 2438  L 4434 434  Q 4069 175 3628 42  Q 3188 -91 2688 -91  Q 1594 -91 976 548  Q 359 1188 359 2328  Q 359 3472 976 4111  Q 1594 4750 2688 4750  Q 3144 4750 3555 4637  Q 3966 4525 4313 4306  L 4313 3634  Q 3963 3931 3569 4081  Q 3175 4231 2741 4231  Q 1884 4231 1454 3753  Q 1025 3275 1025 2328  Q 1025 1384 1454 906  Q 1884 428 2741 428  Q 3075 428 3337 486  Q 3600 544 3809 666  z " transform="scale(0.015625)"/>
       </defs>
       <use xlink:href="#DejaVuSans-47"/>
      </g>
     </g>
    </g>
    <g id="xtick_2">
     <g id="line2d_3">
      <path d="M 95.601557 277.111219  L 95.601557 10.999219  " clip-path="url(#pf12cc8b486)" style="fill: none; stroke: #b0b0b0; stroke-width: 0.8; stroke-linecap: square"/>
     </g>
     <g id="line2d_4">
      <g>
       <use xlink:href="#m36f27ec9d1" x="95.601557" y="277.111219" style="stroke: #000000; stroke-width: 0.8"/>
      </g>
     </g>
     <g id="text_2">
      <!-- A -->
      <g transform="translate(92.181245 291.709656) scale(0.1 -0.1)">
       <defs>
        <path id="DejaVuSans-41" d="M 2188 4044  L 1331 1722  L 3047 1722  L 2188 4044  z M 1831 4666  L 2547 4666  L 4325 0  L 3669 0  L 3244 1197  L 1141 1197  L 716 0  L 50 0  L 1831 4666  z " transform="scale(0.015625)"/>
       </defs>
       <use xlink:href="#DejaVuSans-41"/>
      </g>
     </g>
    </g>
    <g id="xtick_3">
     <g id="line2d_5">
      <path d="M 168.070493 277.111219  L 168.070493 10.999219  " clip-path="url(#pf12cc8b486)" style="fill: none; stroke: #b0b0b0; stroke-width: 0.8; stroke-linecap: square"/>
     </g>
     <g id="line2d_6">
      <g>
       <use xlink:href="#m36f27ec9d1" x="168.070493" y="277.111219" style="stroke: #000000; stroke-width: 0.8"/>
      </g>
     </g>
     <g id="text_3">
      <!-- K -->
      <g transform="translate(164.791587 291.709656) scale(0.1 -0.1)">
       <defs>
        <path id="DejaVuSans-4b" d="M 628 4666  L 1259 4666  L 1259 2694  L 3353 4666  L 4166 4666  L 1850 2491  L 4331 0  L 3500 0  L 1259 2247  L 1259 0  L 628 0  L 628 4666  z " transform="scale(0.015625)"/>
       </defs>
       <use xlink:href="#DejaVuSans-4b"/>
      </g>
     </g>
    </g>
    <g id="xtick_4">
     <g id="line2d_7">
      <path d="M 213.198698 277.111219  L 213.198698 10.999219  " clip-path="url(#pf12cc8b486)" style="fill: none; stroke: #b0b0b0; stroke-width: 0.8; stroke-linecap: square"/>
     </g>
     <g id="line2d_8">
      <g>
       <use xlink:href="#m36f27ec9d1" x="213.198698" y="277.111219" style="stroke: #000000; stroke-width: 0.8"/>
      </g>
     </g>
     <g id="text_4">
      <!-- H -->
      <g transform="translate(209.438542 291.709656) scale(0.1 -0.1)">
       <defs>
        <path id="DejaVuSans-48" d="M 628 4666  L 1259 4666  L 1259 2753  L 3553 2753  L 3553 4666  L 4184 4666  L 4184 0  L 3553 0  L 3553 2222  L 1259 2222  L 1259 0  L 628 0  L 628 4666  z " transform="scale(0.015625)"/>
       </defs>
       <use xlink:href="#DejaVuSans-48"/>
      </g>
     </g>
    </g>
    <g id="xtick_5">
     <g id="line2d_9">
      <path d="M 266.49582 277.111219  L 266.49582 10.999219  " clip-path="url(#pf12cc8b486)" style="fill: none; stroke: #b0b0b0; stroke-width: 0.8; stroke-linecap: square"/>
     </g>
     <g id="line2d_10">
      <g>
       <use xlink:href="#m36f27ec9d1" x="266.49582" y="277.111219" style="stroke: #000000; stroke-width: 0.8"/>
      </g>
     </g>
     <g id="text_5">
      <!-- M -->
      <g transform="translate(262.181757 291.709656) scale(0.1 -0.1)">
       <defs>
        <path id="DejaVuSans-4d" d="M 628 4666  L 1569 4666  L 2759 1491  L 3956 4666  L 4897 4666  L 4897 0  L 4281 0  L 4281 4097  L 3078 897  L 2444 897  L 1241 4097  L 1241 0  L 628 0  L 628 4666  z " transform="scale(0.015625)"/>
       </defs>
       <use xlink:href="#DejaVuSans-4d"/>
      </g>
     </g>
    </g>
    <g id="xtick_6">
     <g id="line2d_11">
      <path d="M 311.624025 277.111219  L 311.624025 10.999219  " clip-path="url(#pf12cc8b486)" style="fill: none; stroke: #b0b0b0; stroke-width: 0.8; stroke-linecap: square"/>
     </g>
     <g id="line2d_12">
      <g>
       <use xlink:href="#m36f27ec9d1" x="311.624025" y="277.111219" style="stroke: #000000; stroke-width: 0.8"/>
      </g>
     </g>
     <g id="text_6">
      <!-- L -->
      <g transform="translate(308.838087 291.709656) scale(0.1 -0.1)">
       <defs>
        <path id="DejaVuSans-4c" d="M 628 4666  L 1259 4666  L 1259 531  L 3531 531  L 3531 0  L 628 0  L 628 4666  z " transform="scale(0.015625)"/>
       </defs>
       <use xlink:href="#DejaVuSans-4c"/>
      </g>
     </g>
    </g>
    <g id="xtick_7">
     <g id="line2d_13">
      <path d="M 378.313991 277.111219  L 378.313991 10.999219  " clip-path="url(#pf12cc8b486)" style="fill: none; stroke: #b0b0b0; stroke-width: 0.8; stroke-linecap: square"/>
     </g>
     <g id="line2d_14">
      <g>
       <use xlink:href="#m36f27ec9d1" x="378.313991" y="277.111219" style="stroke: #000000; stroke-width: 0.8"/>
      </g>
     </g>
     <g id="text_7">
      <!-- G -->
      <g transform="translate(374.439772 291.709656) scale(0.1 -0.1)">
       <use xlink:href="#DejaVuSans-47"/>
      </g>
     </g>
    </g>
   </g>
   <g id="matplotlib.axis_2">
    <g id="ytick_1">
     <g id="line2d_15">
      <defs>
       <path id="mf8f8aa5b74" d="M 0 0  L -3.5 0  " style="stroke: #000000; stroke-width: 0.8"/>
      </defs>
      <g>
       <use xlink:href="#mf8f8aa5b74" x="34.240625" y="252.919219" style="stroke: #000000; stroke-width: 0.8"/>
      </g>
     </g>
     <g id="text_8">
      <!-- 0 -->
      <g transform="translate(20.878125 256.718437) scale(0.1 -0.1)">
       <defs>
        <path id="DejaVuSans-30" d="M 2034 4250  Q 1547 4250 1301 3770  Q 1056 3291 1056 2328  Q 1056 1369 1301 889  Q 1547 409 2034 409  Q 2525 409 2770 889  Q 3016 1369 3016 2328  Q 3016 3291 2770 3770  Q 2525 4250 2034 4250  z M 2034 4750  Q 2819 4750 3233 4129  Q 3647 3509 3647 2328  Q 3647 1150 3233 529  Q 2819 -91 2034 -91  Q 1250 -91 836 529  Q 422 1150 422 2328  Q 422 3509 836 4129  Q 1250 4750 2034 4750  z " transform="scale(0.015625)"/>
       </defs>
       <use xlink:href="#DejaVuSans-30"/>
      </g>
     </g>
    </g>
    <g id="ytick_2">
     <g id="line2d_16">
      <g>
       <use xlink:href="#mf8f8aa5b74" x="34.240625" y="204.535219" style="stroke: #000000; stroke-width: 0.8"/>
      </g>
     </g>
     <g id="text_9">
      <!-- 1 -->
      <g transform="translate(20.878125 208.334437) scale(0.1 -0.1)">
       <defs>
        <path id="DejaVuSans-31" d="M 794 531  L 1825 531  L 1825 4091  L 703 3866  L 703 4441  L 1819 4666  L 2450 4666  L 2450 531  L 3481 531  L 3481 0  L 794 0  L 794 531  z " transform="scale(0.015625)"/>
       </defs>
       <use xlink:href="#DejaVuSans-31"/>
      </g>
     </g>
    </g>
    <g id="ytick_3">
     <g id="line2d_17">
      <g>
       <use xlink:href="#mf8f8aa5b74" x="34.240625" y="156.151219" style="stroke: #000000; stroke-width: 0.8"/>
      </g>
     </g>
     <g id="text_10">
      <!-- 2 -->
      <g transform="translate(20.878125 159.950437) scale(0.1 -0.1)">
       <defs>
        <path id="DejaVuSans-32" d="M 1228 531  L 3431 531  L 3431 0  L 469 0  L 469 531  Q 828 903 1448 1529  Q 2069 2156 2228 2338  Q 2531 2678 2651 2914  Q 2772 3150 2772 3378  Q 2772 3750 2511 3984  Q 2250 4219 1831 4219  Q 1534 4219 1204 4116  Q 875 4013 500 3803  L 500 4441  Q 881 4594 1212 4672  Q 1544 4750 1819 4750  Q 2544 4750 2975 4387  Q 3406 4025 3406 3419  Q 3406 3131 3298 2873  Q 3191 2616 2906 2266  Q 2828 2175 2409 1742  Q 1991 1309 1228 531  z " transform="scale(0.015625)"/>
       </defs>
       <use xlink:href="#DejaVuSans-32"/>
      </g>
     </g>
    </g>
    <g id="ytick_4">
     <g id="line2d_18">
      <g>
       <use xlink:href="#mf8f8aa5b74" x="34.240625" y="107.767219" style="stroke: #000000; stroke-width: 0.8"/>
      </g>
     </g>
     <g id="text_11">
      <!-- 3 -->
      <g transform="translate(20.878125 111.566437) scale(0.1 -0.1)">
       <defs>
        <path id="DejaVuSans-33" d="M 2597 2516  Q 3050 2419 3304 2112  Q 3559 1806 3559 1356  Q 3559 666 3084 287  Q 2609 -91 1734 -91  Q 1441 -91 1130 -33  Q 819 25 488 141  L 488 750  Q 750 597 1062 519  Q 1375 441 1716 441  Q 2309 441 2620 675  Q 2931 909 2931 1356  Q 2931 1769 2642 2001  Q 2353 2234 1838 2234  L 1294 2234  L 1294 2753  L 1863 2753  Q 2328 2753 2575 2939  Q 2822 3125 2822 3475  Q 2822 3834 2567 4026  Q 2313 4219 1838 4219  Q 1578 4219 1281 4162  Q 984 4106 628 3988  L 628 4550  Q 988 4650 1302 4700  Q 1616 4750 1894 4750  Q 2613 4750 3031 4423  Q 3450 4097 3450 3541  Q 3450 3153 3228 2886  Q 3006 2619 2597 2516  z " transform="scale(0.015625)"/>
       </defs>
       <use xlink:href="#DejaVuSans-33"/>
      </g>
     </g>
    </g>
    <g id="ytick_5">
     <g id="line2d_19">
      <g>
       <use xlink:href="#mf8f8aa5b74" x="34.240625" y="59.383219" style="stroke: #000000; stroke-width: 0.8"/>
      </g>
     </g>
     <g id="text_12">
      <!-- 4 -->
      <g transform="translate(20.878125 63.182437) scale(0.1 -0.1)">
       <defs>
        <path id="DejaVuSans-34" d="M 2419 4116  L 825 1625  L 2419 1625  L 2419 4116  z M 2253 4666  L 3047 4666  L 3047 1625  L 3713 1625  L 3713 1100  L 3047 1100  L 3047 0  L 2419 0  L 2419 1100  L 313 1100  L 313 1709  L 2253 4666  z " transform="scale(0.015625)"/>
       </defs>
       <use xlink:href="#DejaVuSans-34"/>
      </g>
     </g>
    </g>
    <g id="ytick_6">
     <g id="line2d_20">
      <g>
       <use xlink:href="#mf8f8aa5b74" x="34.240625" y="10.999219" style="stroke: #000000; stroke-width: 0.8"/>
      </g>
     </g>
     <g id="text_13">
      <!-- 5 -->
      <g transform="translate(20.878125 14.798437) scale(0.1 -0.1)">
       <defs>
        <path id="DejaVuSans-35" d="M 691 4666  L 3169 4666  L 3169 4134  L 1269 4134  L 1269 2991  Q 1406 3038 1543 3061  Q 1681 3084 1819 3084  Q 2600 3084 3056 2656  Q 3513 2228 3513 1497  Q 3513 744 3044 326  Q 2575 -91 1722 -91  Q 1428 -91 1123 -41  Q 819 9 494 109  L 494 744  Q 775 591 1075 516  Q 1375 441 1709 441  Q 2250 441 2565 725  Q 2881 1009 2881 1497  Q 2881 1984 2565 2268  Q 2250 2553 1709 2553  Q 1456 2553 1204 2497  Q 953 2441 691 2322  L 691 4666  z " transform="scale(0.015625)"/>
       </defs>
       <use xlink:href="#DejaVuSans-35"/>
      </g>
     </g>
    </g>
    <g id="text_14">
     <!-- Frequency (THz) -->
     <g transform="translate(14.798438 184.813812) rotate(-90) scale(0.1 -0.1)">
      <defs>
       <path id="DejaVuSans-46" d="M 628 4666  L 3309 4666  L 3309 4134  L 1259 4134  L 1259 2759  L 3109 2759  L 3109 2228  L 1259 2228  L 1259 0  L 628 0  L 628 4666  z " transform="scale(0.015625)"/>
       <path id="DejaVuSans-72" d="M 2631 2963  Q 2534 3019 2420 3045  Q 2306 3072 2169 3072  Q 1681 3072 1420 2755  Q 1159 2438 1159 1844  L 1159 0  L 581 0  L 581 3500  L 1159 3500  L 1159 2956  Q 1341 3275 1631 3429  Q 1922 3584 2338 3584  Q 2397 3584 2469 3576  Q 2541 3569 2628 3553  L 2631 2963  z " transform="scale(0.015625)"/>
       <path id="DejaVuSans-65" d="M 3597 1894  L 3597 1613  L 953 1613  Q 991 1019 1311 708  Q 1631 397 2203 397  Q 2534 397 2845 478  Q 3156 559 3463 722  L 3463 178  Q 3153 47 2828 -22  Q 2503 -91 2169 -91  Q 1331 -91 842 396  Q 353 884 353 1716  Q 353 2575 817 3079  Q 1281 3584 2069 3584  Q 2775 3584 3186 3129  Q 3597 2675 3597 1894  z M 3022 2063  Q 3016 2534 2758 2815  Q 2500 3097 2075 3097  Q 1594 3097 1305 2825  Q 1016 2553 972 2059  L 3022 2063  z " transform="scale(0.015625)"/>
       <path id="DejaVuSans-71" d="M 947 1747  Q 947 1113 1208 752  Q 1469 391 1925 391  Q 2381 391 2643 752  Q 2906 1113 2906 1747  Q 2906 2381 2643 2742  Q 2381 3103 1925 3103  Q 1469 3103 1208 2742  Q 947 2381 947 1747  z M 2906 525  Q 2725 213 2448 61  Q 2172 -91 1784 -91  Q 1150 -91 751 415  Q 353 922 353 1747  Q 353 2572 751 3078  Q 1150 3584 1784 3584  Q 2172 3584 2448 3432  Q 2725 3281 2906 2969  L 2906 3500  L 3481 3500  L 3481 -1331  L 2906 -1331  L 2906 525  z " transform="scale(0.015625)"/>
       <path id="DejaVuSans-75" d="M 544 1381  L 544 3500  L 1119 3500  L 1119 1403  Q 1119 906 1312 657  Q 1506 409 1894 409  Q 2359 409 2629 706  Q 2900 1003 2900 1516  L 2900 3500  L 3475 3500  L 3475 0  L 2900 0  L 2900 538  Q 2691 219 2414 64  Q 2138 -91 1772 -91  Q 1169 -91 856 284  Q 544 659 544 1381  z M 1991 3584  L 1991 3584  z " transform="scale(0.015625)"/>
       <path id="DejaVuSans-6e" d="M 3513 2113  L 3513 0  L 2938 0  L 2938 2094  Q 2938 2591 2744 2837  Q 2550 3084 2163 3084  Q 1697 3084 1428 2787  Q 1159 2491 1159 1978  L 1159 0  L 581 0  L 581 3500  L 1159 3500  L 1159 2956  Q 1366 3272 1645 3428  Q 1925 3584 2291 3584  Q 2894 3584 3203 3211  Q 3513 2838 3513 2113  z " transform="scale(0.015625)"/>
       <path id="DejaVuSans-63" d="M 3122 3366  L 3122 2828  Q 2878 2963 2633 3030  Q 2388 3097 2138 3097  Q 1578 3097 1268 2742  Q 959 2388 959 1747  Q 959 1106 1268 751  Q 1578 397 2138 397  Q 2388 397 2633 464  Q 2878 531 3122 666  L 3122 134  Q 2881 22 2623 -34  Q 2366 -91 2075 -91  Q 1284 -91 818 406  Q 353 903 353 1747  Q 353 2603 823 3093  Q 1294 3584 2113 3584  Q 2378 3584 2631 3529  Q 2884 3475 3122 3366  z " transform="scale(0.015625)"/>
       <path id="DejaVuSans-79" d="M 2059 -325  Q 1816 -950 1584 -1140  Q 1353 -1331 966 -1331  L 506 -1331  L 506 -850  L 844 -850  Q 1081 -850 1212 -737  Q 1344 -625 1503 -206  L 1606 56  L 191 3500  L 800 3500  L 1894 763  L 2988 3500  L 3597 3500  L 2059 -325  z " transform="scale(0.015625)"/>
       <path id="DejaVuSans-20" transform="scale(0.015625)"/>
       <path id="DejaVuSans-28" d="M 1984 4856  Q 1566 4138 1362 3434  Q 1159 2731 1159 2009  Q 1159 1288 1364 580  Q 1569 -128 1984 -844  L 1484 -844  Q 1016 -109 783 600  Q 550 1309 550 2009  Q 550 2706 781 3412  Q 1013 4119 1484 4856  L 1984 4856  z " transform="scale(0.015625)"/>
       <path id="DejaVuSans-54" d="M -19 4666  L 3928 4666  L 3928 4134  L 2272 4134  L 2272 0  L 1638 0  L 1638 4134  L -19 4134  L -19 4666  z " transform="scale(0.015625)"/>
       <path id="DejaVuSans-7a" d="M 353 3500  L 3084 3500  L 3084 2975  L 922 459  L 3084 459  L 3084 0  L 275 0  L 275 525  L 2438 3041  L 353 3041  L 353 3500  z " transform="scale(0.015625)"/>
       <path id="DejaVuSans-29" d="M 513 4856  L 1013 4856  Q 1481 4119 1714 3412  Q 1947 2706 1947 2009  Q 1947 1309 1714 600  Q 1481 -109 1013 -844  L 513 -844  Q 928 -128 1133 580  Q 1338 1288 1338 2009  Q 1338 2731 1133 3434  Q 928 4138 513 4856  z " transform="scale(0.015625)"/>
      </defs>
      <use xlink:href="#DejaVuSans-46"/>
      <use xlink:href="#DejaVuSans-72" x="50.269531"/>
      <use xlink:href="#DejaVuSans-65" x="89.132812"/>
      <use xlink:href="#DejaVuSans-71" x="150.65625"/>
      <use xlink:href="#DejaVuSans-75" x="214.132812"/>
      <use xlink:href="#DejaVuSans-65" x="277.511719"/>
      <use xlink:href="#DejaVuSans-6e" x="339.035156"/>
      <use xlink:href="#DejaVuSans-63" x="402.414062"/>
      <use xlink:href="#DejaVuSans-79" x="457.394531"/>
      <use xlink:href="#DejaVuSans-20" x="516.574219"/>
      <use xlink:href="#DejaVuSans-28" x="548.361328"/>
      <use xlink:href="#DejaVuSans-54" x="587.375"/>
      <use xlink:href="#DejaVuSans-48" x="648.458984"/>
      <use xlink:href="#DejaVuSans-7a" x="723.654297"/>
      <use xlink:href="#DejaVuSans-29" x="776.144531"/>
     </g>
    </g>
   </g>
   <g id="line2d_21">
    <path d="M 50.473352 254.066887  L 51.366833 255.785487  L 52.260321 256.203525  L 53.153802 255.878868  L 54.047289 254.376545  L 54.94077 249.899573  L 56.727739 246.183682  L 60.301669 239.803768  L 65.662575 230.786926  L 71.023474 222.233602  L 75.490892 215.522741  L 79.95831 209.264755  L 83.532247 204.627632  L 87.106184 200.344197  L 90.680114 196.423157  L 94.254052 192.863063  L 95.147533 192.056985  L 95.147533 192.056985  L 98.019197 193.478023  L 100.890856 194.544407  L 103.762521 195.294359  L 106.634179 195.765135  L 109.505844 195.992056  L 112.377509 196.013829  L 116.684996 195.746265  L 120.99249 195.230008  L 128.171649 194.089113  L 143.965789 191.276067  L 152.580777 189.723909  L 158.3241 188.901865  L 165.503253 187.913379  L 166.939082 187.645332  L 166.939082 187.645332  L 168.72605 187.543726  L 170.513019 187.239874  L 172.299987 186.739584  L 174.086956 186.052047  L 175.873918 185.188876  L 178.554374 183.59801  L 181.234824 181.703777  L 184.808754 178.822026  L 189.276179 174.867601  L 195.530559 169.019427  L 199.997977 164.558906  L 204.465395 159.76502  L 209.8263 153.99426  L 211.613269 152.399523  L 211.613269 152.399523  L 212.668789 153.268984  L 221.112994 161.491361  L 224.279569 164.115709  L 227.446144 166.372823  L 230.61272 168.316408  L 233.779295 169.980817  L 236.94587 171.329763  L 239.056924 172.022622  L 241.167972 172.53888  L 244.334547 173.008688  L 246.445602 173.280606  L 248.55665 173.989916  L 252.778752 175.722063  L 255.945327 176.777802  L 259.111903 177.531625  L 261.22295 177.848056  L 263.334005 178.007723  L 265.283013 178.005788  L 267.069982 177.832573  L 268.85695 177.488563  L 270.643912 176.980047  L 273.324368 175.927211  L 276.004818 174.574878  L 278.685267 173.118036  L 280.472236 172.485173  L 283.152685 171.696514  L 284.939654 170.978012  L 286.726622 170.051942  L 288.513584 168.902822  L 290.300553 167.523394  L 292.087521 165.916078  L 293.87449 164.08813  L 296.554939 160.966394  L 298.341908 158.671541  L 300.128876 157.924009  L 301.915845 157.127608  L 303.702807 156.107189  L 305.489775 154.86614  L 308.170225 152.683537  L 309.063712 151.927296  L 310.384994 152.775467  L 313.027563 154.935813  L 318.312696 159.885496  L 320.955265 162.553873  L 323.597835 165.552714  L 326.240398 168.992332  L 328.882967 172.833054  L 332.846818 179.127813  L 338.131951 188.127237  L 344.738371 199.885516  L 365.878914 237.833571  L 369.842765 245.005048  L 371.164047 247.529725  L 372.485328 250.360189  L 373.806616 254.937315  L 375.127898 254.066887  L 375.127898 254.066887  " clip-path="url(#pf12cc8b486)" style="fill: none; stroke: #008000; stroke-width: 1.5; stroke-linecap: square"/>
   </g>
   <g id="line2d_22">
    <path d="M 50.473352 253.814323  L 51.366833 249.767485  L 52.260321 247.735357  L 54.94077 242.813253  L 59.408188 235.264381  L 63.875606 228.118548  L 68.343024 221.375754  L 71.916961 216.311884  L 75.490892 211.576058  L 79.064829 207.195855  L 82.638766 203.188692  L 86.212696 199.559408  L 89.786633 196.29494  L 93.360564 193.360934  L 95.147533 192.056985  L 95.147533 192.056985  L 96.583362 192.579049  L 98.019197 192.980152  L 99.455027 193.181429  L 100.890856 193.178042  L 102.326691 192.973378  L 103.762521 192.574694  L 105.19835 191.995054  L 106.634179 191.24994  L 109.505844 189.343127  L 112.377509 187.040048  L 118.120832 182.229227  L 119.556661 181.206873  L 120.99249 180.344186  L 122.428326 179.680842  L 123.864155 179.247805  L 125.299984 179.056688  L 126.735813 179.099266  L 128.171649 179.344089  L 131.043307 180.24258  L 135.350801 181.801029  L 136.78663 182.191488  L 138.222466 182.46147  L 139.658295 182.589688  L 141.094124 182.559206  L 142.52996 182.35938  L 143.965789 181.984888  L 145.401618 181.433794  L 146.837448 180.709969  L 148.273283 179.820672  L 151.144942 177.622586  L 152.580777 176.434275  L 154.016606 175.910761  L 155.452436 177.25003  L 158.3241 180.605944  L 159.75993 182.106332  L 161.195759 183.432537  L 162.631594 184.560852  L 164.067424 185.472407  L 165.503253 186.147847  L 166.939082 186.555241  L 166.939082 186.555241  L 168.72605 186.455569  L 170.513019 186.158008  L 172.299987 185.667394  L 174.086956 184.992921  L 175.873918 184.14475  L 178.554374 182.577108  L 181.234824 180.702228  L 183.915273 178.576235  L 187.48921 175.45208  L 192.850109 170.412403  L 202.678433 160.8285  L 210.719781 152.948682  L 211.613269 152.399523  L 211.613269 152.399523  L 212.668789 152.744985  L 214.779844 154.004421  L 217.946419 156.17783  L 227.446144 162.905141  L 230.61272 164.872435  L 233.779295 166.622968  L 238.001397 168.673482  L 246.445602 172.508881  L 247.501123 172.71161  L 249.612177 172.72419  L 253.834279 172.34873  L 259.111903 171.941821  L 264.389532 171.832957  L 264.389532 171.832957  L 267.963463 171.958755  L 276.004818 172.475497  L 277.791786 172.35502  L 278.685267 172.167774  L 279.578748 171.819893  L 281.365717 170.711416  L 284.046166 168.656064  L 284.939654 167.921111  L 287.620103 166.623936  L 290.300553 164.975493  L 292.981002 162.942397  L 295.661458 160.529003  L 297.448427 158.840885  L 298.341908 158.522519  L 300.128876 156.263953  L 302.809326 152.722729  L 303.702807 151.723115  L 304.596294 150.911232  L 305.489775 150.367395  L 306.383263 150.275466  L 307.276744 150.617541  L 309.063712 151.927296  L 309.063712 151.927296  L 310.384994 151.294433  L 311.706275 150.888491  L 313.027563 150.725437  L 314.348845 150.917521  L 315.670126 151.788917  L 320.955265 157.113577  L 323.597835 159.255536  L 326.240398 161.23928  L 327.561686 162.601774  L 330.204249 165.890434  L 332.846818 169.519718  L 336.810669 175.423534  L 340.77452 181.832478  L 344.738371 188.718973  L 348.702222 196.051084  L 352.666073 203.786234  L 357.951206 214.638282  L 364.557626 228.858339  L 372.485328 246.43286  L 373.806616 249.572497  L 375.127898 253.814323  L 375.127898 253.814323  " clip-path="url(#pf12cc8b486)" style="fill: none; stroke: #008000; stroke-width: 1.5; stroke-linecap: square"/>
   </g>
   <g id="line2d_23">
    <path d="M 50.473352 253.625625  L 51.366833 249.655718  L 56.727739 230.30115  L 70.129993 181.788449  L 71.023474 179.938729  L 71.916961 179.936793  L 73.70393 180.474339  L 77.27786 181.825221  L 80.851797 183.401571  L 84.425728 185.203875  L 87.999665 187.238423  L 91.573602 189.507148  L 95.147533 191.96941  L 95.147533 191.96941  L 96.583362 191.299776  L 99.455027 189.523599  L 102.326691 187.42083  L 105.19835 185.047111  L 109.505844 181.078656  L 113.813338 176.761351  L 131.043307 159.017003  L 133.914972 156.490874  L 135.350801 155.469972  L 136.78663 154.90775  L 138.222466 155.173862  L 139.658295 155.952844  L 141.094124 157.083578  L 142.52996 158.541388  L 143.965789 160.277406  L 146.837448 164.291343  L 152.580777 172.671452  L 154.016606 173.811863  L 155.452436 173.3856  L 159.75993 176.338475  L 161.195759 177.061332  L 162.631594 177.609523  L 164.067424 177.989337  L 165.503253 178.213839  L 167.832569 178.277222  L 169.619538 178.105943  L 171.4065 177.766771  L 173.193468 177.265029  L 175.873918 176.225257  L 178.554374 174.873891  L 181.234824 173.254963  L 184.808754 170.76609  L 189.276179 167.296473  L 195.530559 162.116482  L 202.678433 156.170089  L 206.252363 153.444618  L 208.932813 151.609897  L 209.8263 151.216051  L 210.719781 151.541191  L 211.613269 151.988259  L 211.613269 151.988259  L 213.724317 151.277498  L 214.779844 151.630702  L 219.00194 153.893137  L 223.224042 156.367495  L 227.446144 159.13506  L 233.779295 163.345436  L 238.001397 165.930109  L 240.112445 167.025523  L 242.2235 167.91095  L 244.334547 168.56994  L 246.445602 169.032007  L 249.612177 169.462141  L 253.834279 169.75051  L 260.16743 169.902435  L 275.11133 169.940175  L 277.791786 169.715673  L 280.472236 169.273443  L 283.152685 168.554941  L 284.939654 167.899338  L 287.620103 165.620451  L 294.767971 159.211991  L 296.554939 158.895559  L 297.448427 158.584934  L 299.235389 156.711989  L 301.915845 153.502195  L 304.596294 150.310786  L 308.170225 147.89836  L 309.063712 147.440647  L 309.063712 147.440647  L 313.027563 148.589767  L 314.348845 149.715663  L 315.670126 150.625282  L 316.991414 151.391685  L 318.312696 152.325496  L 320.955265 154.666314  L 326.240398 159.858885  L 327.561686 160.56142  L 328.882967 160.915107  L 330.204249 161.027358  L 331.525537 160.941719  L 332.846818 160.686735  L 336.810669 159.513907  L 338.131951 159.458749  L 339.453239 159.781954  L 340.77452 160.373207  L 343.41709 161.915689  L 346.059653 163.681221  L 347.380941 165.329664  L 350.023504 173.204643  L 359.272494 202.452288  L 372.485328 244.249774  L 373.806616 248.244357  L 375.127898 253.625625  L 375.127898 253.625625  " clip-path="url(#pf12cc8b486)" style="fill: none; stroke: #008000; stroke-width: 1.5; stroke-linecap: square"/>
   </g>
   <g id="line2d_24">
    <path d="M 50.473352 175.213063  L 53.153802 175.476756  L 57.62122 176.149777  L 62.088638 177.040043  L 67.449543 178.363829  L 70.129993 178.970081  L 71.916961 177.582912  L 72.810442 177.712097  L 74.597411 178.296092  L 77.27786 179.425858  L 79.95831 180.77432  L 82.638766 182.325995  L 86.212696 184.696327  L 89.786633 187.389865  L 93.360564 190.389189  L 95.147533 191.96941  L 95.147533 191.96941  L 96.583362 191.075274  L 98.019197 189.985182  L 99.455027 188.715586  L 100.890856 187.270356  L 103.762521 183.885411  L 106.634179 179.921794  L 109.505844 175.484497  L 113.813338 168.186739  L 118.120832 160.617062  L 119.556661 158.295114  L 120.99249 156.416847  L 122.428326 155.29579  L 123.864155 154.76792  L 126.735813 154.286499  L 131.043307 153.890234  L 133.914972 153.903782  L 136.78663 154.271984  L 138.222466 154.51342  L 139.658295 155.190313  L 141.094124 156.316208  L 142.52996 157.760954  L 145.401618 161.199605  L 151.144942 168.446077  L 154.016606 171.592489  L 155.452436 172.463401  L 156.888265 171.178321  L 159.75993 167.818053  L 164.067424 162.715476  L 165.503253 161.465233  L 166.939082 161.229603  L 166.939082 161.229603  L 169.619538 161.330242  L 173.193468 161.746345  L 183.021792 163.289794  L 185.702242 163.330921  L 187.48921 163.151416  L 189.276179 162.769182  L 191.063141 162.160995  L 192.850109 161.31234  L 194.637078 160.221765  L 196.424046 158.89943  L 198.211015 157.361303  L 200.891464 154.706956  L 204.465395 150.936875  L 205.358882 150.166602  L 206.252363 149.645506  L 207.145851 149.476162  L 208.039332 149.654215  L 208.932813 150.065479  L 209.8263 150.599639  L 211.613269 151.988259  L 211.613269 151.988259  L 212.668789 151.175408  L 213.724317 150.702697  L 215.835365 150.183536  L 216.890892 150.21934  L 217.946419 150.612218  L 219.00194 151.305077  L 221.112994 153.128186  L 225.335097 156.941813  L 228.501672 159.396334  L 231.668247 161.509747  L 234.834822 163.283504  L 238.001397 164.736476  L 241.167972 165.936883  L 244.334547 166.906982  L 247.501123 167.641935  L 250.667698 168.124323  L 253.834279 168.354147  L 258.056375 168.35947  L 267.069982 168.066263  L 269.750431 167.622097  L 272.430881 166.917143  L 275.11133 165.988654  L 278.685267 164.491169  L 285.833135 161.316211  L 288.513584 160.401269  L 291.19404 159.769858  L 294.767971 159.123932  L 302.809326 151.866816  L 304.596294 150.121121  L 306.383263 148.0798  L 307.276744 147.409198  L 308.170225 147.213242  L 309.063712 147.440647  L 309.063712 147.440647  L 310.384994 147.205501  L 311.706275 147.534996  L 313.027563 148.364298  L 315.670126 149.106025  L 316.991414 149.803722  L 318.312696 150.817367  L 322.276547 154.197957  L 323.597835 155.082416  L 324.919116 155.76705  L 326.240398 156.242181  L 327.561686 156.510228  L 328.882967 156.579901  L 330.204249 156.463296  L 331.525537 156.172508  L 332.846818 155.722053  L 334.1681 155.131768  L 335.489388 154.886945  L 336.810669 155.204344  L 338.131951 155.121123  L 339.453239 154.583577  L 340.77452 153.822981  L 342.095802 153.369623  L 343.41709 154.409395  L 344.738371 157.301306  L 346.059653 160.929623  L 347.380941 164.084743  L 348.702222 165.194188  L 352.666073 167.726123  L 356.629924 169.995817  L 360.593775 171.948595  L 363.236345 173.035783  L 365.878914 173.9275  L 368.521477 174.604876  L 371.164047 175.049041  L 373.806616 175.226127  L 375.127898 175.213063  L 375.127898 175.213063  " clip-path="url(#pf12cc8b486)" style="fill: none; stroke: #008000; stroke-width: 1.5; stroke-linecap: square"/>
   </g>
   <g id="line2d_25">
    <path d="M 50.473352 175.157905  L 56.727739 174.8976  L 60.301669 175.015173  L 63.875606 175.367408  L 67.449543 175.966402  L 70.129993 176.475886  L 71.023474 176.281382  L 71.916961 174.263769  L 74.597411 164.749056  L 79.95831 145.263851  L 80.851797 144.864199  L 83.532247 148.525417  L 85.319215 150.622863  L 87.106184 152.410168  L 88.893146 153.860236  L 90.680114 154.952747  L 92.467083 155.672701  L 94.254052 156.014292  L 98.019197 156.028323  L 102.326691 155.88172  L 106.634179 155.55416  L 112.377509 154.874849  L 118.120832 153.999098  L 119.556661 153.686054  L 125.299984 151.876492  L 128.171649 151.414909  L 131.043307 151.181214  L 133.914972 151.203471  L 135.350801 151.270241  L 136.78663 151.224276  L 138.222466 150.845429  L 142.52996 148.848622  L 143.965789 148.877168  L 146.837448 150.000161  L 152.580777 152.439682  L 156.888265 154.526  L 164.067424 158.287856  L 165.503253 158.62219  L 166.939082 158.087546  L 166.939082 158.087546  L 169.619538 158.200281  L 172.299987 158.526873  L 175.873918 159.245859  L 181.234824 160.443363  L 183.915273 160.798018  L 185.702242 160.866723  L 187.48921 160.770923  L 189.276179 160.49078  L 191.063141 160.011294  L 192.850109 159.324241  L 194.637078 158.424783  L 196.424046 157.316789  L 198.211015 156.012357  L 200.891464 153.745566  L 205.358882 149.78582  L 206.252363 149.285045  L 207.145851 149.150054  L 208.039332 149.394877  L 209.8263 150.381911  L 210.719781 150.182569  L 211.613269 149.675988  L 211.613269 149.675988  L 212.668789 150.214502  L 213.724317 150.15886  L 214.779844 149.428746  L 215.835365 148.852492  L 216.890892 148.58009  L 217.946419 148.704921  L 219.00194 149.183439  L 221.112994 150.649958  L 225.335097 153.772661  L 228.501672 155.813498  L 232.723774 158.211409  L 236.94587 160.349982  L 241.167972 162.243732  L 245.390075 163.864112  L 248.55665 164.86808  L 251.723225 165.656739  L 254.8898 166.202511  L 258.056375 166.508298  L 262.278478 166.651514  L 266.176494 166.585228  L 267.963463 166.352501  L 270.643912 165.723025  L 273.324368 164.779537  L 276.004818 163.548649  L 278.685267 162.062776  L 281.365717 160.356756  L 284.939654 157.805468  L 289.407072 154.300047  L 302.809326 143.460579  L 303.702807 142.938032  L 306.383263 143.709273  L 307.276744 143.777011  L 308.170225 143.418001  L 309.063712 142.738206  L 310.384994 143.442193  L 313.027563 144.336814  L 316.991414 146.252336  L 320.955265 147.458065  L 323.597835 148.566543  L 327.561686 150.597703  L 334.1681 154.250211  L 335.489388 154.340206  L 338.131951 152.575157  L 340.77452 150.637862  L 342.095802 149.87533  L 343.41709 149.545835  L 344.738371 149.853073  L 346.059653 150.723985  L 347.380941 151.934553  L 350.023504 154.836142  L 359.272494 165.630128  L 361.915063 168.299473  L 364.557626 170.612713  L 367.200196 172.499689  L 369.842765 173.903308  L 371.164047 174.412308  L 372.485328 174.791155  L 373.806616 175.043235  L 375.127898 175.157905  L 375.127898 175.157905  " clip-path="url(#pf12cc8b486)" style="fill: none; stroke: #008000; stroke-width: 1.5; stroke-linecap: square"/>
   </g>
   <g id="line2d_26">
    <path d="M 50.473352 108.532654  L 53.153802 108.400565  L 55.834251 108.018332  L 56.727739 108.12768  L 58.514707 109.823055  L 60.301669 111.869214  L 62.088638 114.210032  L 64.769087 118.169295  L 68.343024 124.028597  L 78.171348 140.734141  L 80.851797 144.810493  L 83.532247 148.359943  L 85.319215 150.424489  L 87.106184 152.200665  L 88.893146 153.663313  L 90.680114 154.790661  L 92.467083 155.566256  L 94.254052 155.977036  L 95.147533 156.042839  L 95.147533 156.042839  L 96.583362 155.970746  L 100.890856 155.376591  L 105.19835 154.836625  L 110.941673 153.848624  L 116.684996 152.650636  L 119.556661 151.834398  L 120.99249 151.105251  L 122.428326 149.768401  L 123.864155 147.808366  L 126.735813 143.420421  L 128.171649 141.48119  L 129.607478 139.943546  L 131.043307 138.962319  L 132.479143 138.746526  L 133.914972 139.328102  L 135.350801 140.485447  L 141.094124 146.277496  L 142.52996 147.244208  L 143.965789 147.74208  L 146.837448 148.330913  L 149.709112 149.266659  L 154.016606 150.987194  L 158.3241 153.027548  L 162.631594 155.363043  L 166.939082 157.788533  L 166.939082 157.788533  L 169.619538 157.92546  L 172.299987 158.30092  L 183.021792 160.163704  L 185.702242 160.253214  L 187.48921 160.129835  L 189.276179 159.831306  L 191.063141 159.336337  L 192.850109 158.63235  L 194.637078 157.713538  L 196.424046 156.58232  L 198.211015 155.242083  L 199.997977 153.692828  L 201.784945 151.923909  L 204.465395 148.85346  L 205.358882 147.7774  L 206.252363 147.181793  L 208.039332 147.744499  L 209.8263 148.632345  L 211.613269 149.675988  L 211.613269 149.675988  L 217.946419 146.688276  L 219.00194 147.145021  L 222.168521 149.804689  L 224.279569 151.287175  L 226.390617 152.44694  L 228.501672 153.225922  L 229.557192 153.452843  L 230.61272 153.563159  L 231.668247 153.553966  L 232.723774 153.423813  L 233.779295 153.173667  L 235.890349 152.328399  L 238.001397 151.065093  L 240.112445 149.449551  L 242.2235 147.559188  L 245.390075 144.387617  L 251.723225 137.859164  L 253.834279 135.921385  L 255.945327 134.228912  L 258.056375 132.852387  L 260.16743 131.859548  L 262.278478 131.295874  L 264.389532 131.12653  L 264.389532 131.12653  L 266.176494 131.240716  L 267.963463 131.612789  L 269.750431 132.271779  L 271.5374 133.19543  L 273.324368 134.339228  L 276.004818 136.355873  L 284.046166 142.801105  L 285.833135 143.908615  L 287.620103 144.752916  L 289.407072 145.278366  L 291.19404 145.456419  L 292.981002 145.296268  L 294.767971 144.840491  L 296.554939 144.152471  L 299.235389 142.84078  L 301.022357 141.938903  L 301.915845 141.716336  L 302.809326 141.980029  L 304.596294 142.925452  L 305.489775 143.323653  L 306.383263 143.004802  L 307.276744 142.302266  L 308.170225 142.03809  L 309.063712 142.738206  L 309.063712 142.738206  L 310.384994 142.124697  L 311.706275 142.147438  L 313.027563 142.924485  L 315.670126 144.975966  L 316.991414 145.569154  L 318.312696 145.828492  L 319.633984 145.789301  L 320.955265 145.518835  L 323.597835 144.583088  L 327.561686 142.733368  L 330.204249 141.51022  L 331.525537 141.002188  L 332.846818 140.624309  L 334.1681 140.424  L 335.489388 140.438515  L 336.810669 140.680919  L 338.131951 141.135244  L 339.453239 141.768591  L 340.77452 142.883358  L 342.095802 145.628183  L 343.41709 147.049705  L 344.738371 146.504417  L 346.059653 145.062574  L 348.702222 141.294428  L 351.344792 137.036636  L 363.236345 117.193873  L 365.878914 113.449436  L 367.200196 111.816476  L 368.521477 110.378987  L 369.842765 109.354214  L 371.164047 108.919726  L 373.806616 108.572329  L 375.127898 108.532654  L 375.127898 108.532654  " clip-path="url(#pf12cc8b486)" style="fill: none; stroke: #008000; stroke-width: 1.5; stroke-linecap: square"/>
   </g>
   <g id="line2d_27">
    <path d="M 50.473352 107.423209  L 53.153802 107.271767  L 54.94077 107.003719  L 57.62122 108.105907  L 59.408188 109.966755  L 61.195157 112.192419  L 63.875606 116.022497  L 66.556056 120.288514  L 70.129993 126.376673  L 78.171348 140.68866  L 79.95831 143.448  L 80.851797 144.283107  L 84.425728 148.995709  L 86.212696 150.978969  L 87.999665 152.645314  L 89.786633 153.968133  L 91.573602 154.924201  L 93.360564 155.497551  L 95.147533 155.677539  L 95.147533 155.677539  L 98.019197 155.590448  L 99.455027 155.339819  L 100.890856 154.765017  L 102.326691 154.001518  L 103.762521 153.057546  L 105.19835 151.939875  L 106.634179 150.657216  L 109.505844 147.633216  L 112.377509 144.078443  L 116.684996 138.124308  L 118.120832 136.72601  L 119.556661 137.32065  L 120.99249 138.285911  L 122.428326 138.999575  L 123.864155 139.365841  L 125.299984 139.363906  L 126.735813 138.998123  L 128.171649 138.296555  L 129.607478 137.34339  L 132.479143 135.049021  L 133.914972 135.949931  L 136.78663 139.734528  L 138.222466 141.315233  L 139.658295 142.625472  L 141.094124 143.621214  L 142.52996 144.239562  L 143.965789 144.391004  L 145.401618 144.074572  L 148.273283 142.746432  L 151.144942 141.319587  L 154.016606 140.191756  L 155.452436 139.810007  L 156.888265 139.573893  L 158.3241 139.482447  L 161.195759 139.623244  L 165.503253 140.012252  L 181.234824 140.590924  L 185.702242 141.067991  L 190.16966 141.779235  L 193.743597 142.559669  L 197.317527 143.563153  L 200.891464 144.819686  L 205.358882 146.65102  L 206.252363 146.487966  L 208.039332 144.456322  L 209.8263 142.109214  L 211.613269 139.498414  L 211.613269 139.498414  L 213.724317 142.271785  L 214.779844 143.496867  L 215.835365 144.540026  L 217.946419 146.117345  L 219.00194 146.0588  L 224.279569 143.567024  L 240.112445 135.97122  L 244.334547 134.216332  L 247.501123 133.089469  L 250.667698 132.16098  L 253.834279 131.442478  L 257.000855 130.920414  L 261.22295 130.44867  L 264.389532 130.279326  L 264.389532 130.279326  L 267.069982 130.387706  L 272.430881 130.862353  L 276.898299 131.488442  L 280.472236 132.206461  L 284.046166 133.139788  L 287.620103 134.299553  L 291.19404 135.693012  L 294.767971 137.321617  L 299.235389 139.655178  L 301.022357 140.588989  L 301.915845 140.855585  L 302.809326 141.770042  L 303.702807 142.440645  L 304.596294 142.222917  L 305.489775 141.792299  L 306.383263 141.534412  L 307.276744 141.58957  L 308.170225 141.399905  L 309.063712 140.497543  L 310.384994 141.336038  L 311.706275 141.938419  L 313.027563 141.970836  L 319.633984 140.025799  L 320.955265 139.376002  L 322.276547 138.576215  L 324.919116 136.598277  L 327.561686 134.253104  L 328.882967 133.028989  L 330.204249 132.065664  L 332.846818 131.242652  L 335.489388 130.352386  L 336.810669 131.001699  L 339.453239 138.630889  L 340.77452 141.842135  L 342.095802 142.725143  L 343.41709 142.853844  L 344.738371 142.326942  L 346.059653 141.241689  L 347.380941 139.805168  L 350.023504 136.378129  L 353.987355 130.591403  L 361.915063 118.652651  L 365.878914 113.169776  L 368.521477 109.878213  L 369.842765 108.763445  L 371.164047 107.980592  L 372.485328 107.608519  L 375.127898 107.423209  L 375.127898 107.423209  " clip-path="url(#pf12cc8b486)" style="fill: none; stroke: #008000; stroke-width: 1.5; stroke-linecap: square"/>
   </g>
   <g id="line2d_28">
    <path d="M 50.473352 105.372695  L 51.366833 105.430755  L 52.260321 105.603002  L 54.047289 106.285701  L 54.94077 106.791313  L 55.834251 106.820828  L 57.62122 107.512719  L 58.514707 107.311925  L 59.408188 108.267025  L 61.195157 110.787832  L 63.875606 115.066913  L 67.449543 121.379089  L 72.810442 131.0496  L 77.27786 138.622663  L 80.851797 144.205693  L 82.638766 146.671342  L 84.425728 148.900876  L 86.212696 150.867202  L 87.999665 152.533547  L 89.786633 153.871365  L 91.573602 154.854044  L 93.360564 155.460779  L 95.147533 155.677539  L 95.147533 155.677539  L 96.583362 155.549322  L 98.019197 155.187409  L 99.455027 154.618414  L 100.890856 153.857817  L 102.326691 152.915781  L 103.762521 151.802465  L 105.19835 150.527063  L 108.070015 147.533061  L 110.941673 144.028124  L 113.813338 140.132728  L 116.684996 136.175401  L 118.120832 134.942092  L 119.556661 133.229299  L 123.864155 127.040017  L 125.299984 125.637849  L 126.735813 125.778647  L 128.171649 127.316774  L 131.043307 131.529085  L 132.479143 133.658465  L 133.914972 133.375902  L 135.350801 131.684881  L 138.222466 127.831096  L 142.52996 121.465697  L 143.965789 121.441505  L 148.273283 125.485923  L 151.144942 127.861578  L 152.580777 128.874255  L 154.016606 129.734039  L 155.452436 130.414318  L 156.888265 130.894771  L 158.3241 131.172495  L 159.75993 131.26636  L 162.631594 131.064115  L 166.939082 130.483023  L 166.939082 130.483023  L 170.513019 130.597209  L 174.086956 130.942187  L 177.660886 131.525698  L 181.234824 132.356935  L 184.808754 133.444608  L 188.382691 134.798392  L 191.956628 136.425062  L 195.530559 138.328005  L 199.104496 140.494156  L 204.465395 143.850071  L 205.358882 144.189726  L 206.252363 144.242465  L 207.145851 143.917324  L 208.039332 143.356554  L 208.932813 142.559669  L 211.613269 139.498414  L 211.613269 139.498414  L 212.668789 140.393034  L 214.779844 142.443548  L 215.835365 143.221562  L 216.890892 143.800719  L 217.946419 144.252142  L 219.00194 144.260367  L 220.057467 143.937162  L 222.168521 142.850457  L 225.335097 140.833812  L 235.890349 133.842808  L 240.112445 131.348613  L 244.334547 129.150528  L 247.501123 127.729006  L 250.667698 126.522793  L 253.834279 125.549306  L 257.000855 124.820643  L 260.16743 124.345513  L 263.334005 124.128752  L 267.069982 124.163589  L 270.643912 124.391961  L 274.217849 124.827901  L 277.791786 125.498987  L 281.365717 126.433766  L 284.046166 127.331773  L 286.726622 128.425735  L 289.407072 129.757747  L 292.087521 131.393126  L 293.87449 132.697075  L 295.661458 134.206172  L 297.448427 135.933964  L 300.128876 138.858293  L 301.915845 140.831877  L 302.809326 140.599633  L 305.489775 139.45632  L 306.383263 139.278266  L 307.276744 139.353262  L 308.170225 139.767913  L 309.063712 140.497543  L 309.063712 140.497543  L 310.384994 139.719045  L 314.348845 137.800135  L 318.312696 135.803328  L 322.276547 134.117629  L 326.240398 132.751265  L 328.882967 131.953413  L 330.204249 131.257651  L 332.846818 128.661849  L 334.1681 127.374835  L 335.489388 127.588692  L 336.810669 129.736942  L 339.453239 128.193492  L 342.095802 126.309903  L 347.380941 122.118397  L 352.666073 117.966082  L 356.629924 115.138521  L 359.272494 113.458145  L 361.915063 111.977111  L 364.557626 110.717675  L 368.521477 109.177612  L 369.842765 108.219125  L 371.164047 107.0971  L 372.485328 106.272637  L 373.806616 105.626227  L 375.127898 105.372695  L 375.127898 105.372695  " clip-path="url(#pf12cc8b486)" style="fill: none; stroke: #008000; stroke-width: 1.5; stroke-linecap: square"/>
   </g>
   <g id="line2d_29">
    <path d="M 50.473352 104.40695  L 51.366833 104.465978  L 52.260321 104.642096  L 54.047289 105.338826  L 55.834251 106.469076  L 56.727739 106.606003  L 57.62122 106.363599  L 59.408188 107.977689  L 61.195157 110.501882  L 63.875606 114.739353  L 67.449543 120.94702  L 77.27786 138.54912  L 79.064829 141.442483  L 79.95831 142.717885  L 80.851797 141.689241  L 91.573602 104.11084  L 93.360564 98.578129  L 95.147533 93.725214  L 95.147533 93.725214  L 96.583362 96.045227  L 99.455027 101.285214  L 103.762521 109.854988  L 109.505844 121.298772  L 112.377509 126.568757  L 113.813338 128.975377  L 115.249167 131.144916  L 116.684996 132.859161  L 118.120832 132.911416  L 119.556661 131.10137  L 122.428326 126.968409  L 123.864155 125.158364  L 125.299984 123.870865  L 126.735813 122.966569  L 128.171649 122.342415  L 129.607478 122.053079  L 131.043307 121.639395  L 132.479143 120.698327  L 133.914972 119.150522  L 136.78663 115.202388  L 138.222466 115.982822  L 141.094124 118.543787  L 142.52996 119.877734  L 143.965789 119.106977  L 145.401618 118.007692  L 148.273283 120.249807  L 151.144942 122.488051  L 154.016606 124.493568  L 156.888265 126.218457  L 159.75993 127.636108  L 162.631594 128.729587  L 165.503253 129.457766  L 167.832569 129.632916  L 171.4065 129.803228  L 174.980437 130.208202  L 178.554374 130.861386  L 182.128305 131.777295  L 185.702242 132.968025  L 189.276179 134.44035  L 192.850109 136.195238  L 196.424046 138.223979  L 200.891464 141.07041  L 203.571914 142.78272  L 205.358882 143.656535  L 206.252363 143.817169  L 207.145851 143.548154  L 208.039332 142.669985  L 209.8263 140.061603  L 210.719781 138.653145  L 211.613269 139.172305  L 211.613269 139.172305  L 212.668789 138.649274  L 215.835365 142.577571  L 216.890892 143.449935  L 217.946419 143.582991  L 219.00194 143.246722  L 221.112994 141.972288  L 231.668247 134.584051  L 235.890349 132.0047  L 240.112445 129.660979  L 244.334547 127.533534  L 248.55665 125.631075  L 251.723225 124.386155  L 254.8898 123.346383  L 258.056375 122.565465  L 261.22295 122.084044  L 264.389532 121.921958  L 264.389532 121.921958  L 268.85695 122.025016  L 273.324368 122.375316  L 276.898299 122.880929  L 280.472236 123.611527  L 284.046166 124.575337  L 287.620103 125.773808  L 291.19404 127.205491  L 294.767971 128.865062  L 298.341908 130.742361  L 302.809326 133.352678  L 305.489775 135.033054  L 306.383263 136.081052  L 307.276744 136.771491  L 308.170225 137.007605  L 309.063712 136.869711  L 309.063712 136.869711  L 310.384994 137.254848  L 311.706275 137.275653  L 313.027563 137.161466  L 314.348845 136.792297  L 315.670126 135.914611  L 316.991414 134.622274  L 318.312696 133.135434  L 319.633984 131.874547  L 323.597835 128.741683  L 327.561686 125.824128  L 331.525537 123.219133  L 332.846818 122.444989  L 334.1681 122.562078  L 335.489388 124.715166  L 336.810669 123.731036  L 342.095802 117.86496  L 343.41709 117.085493  L 350.023504 113.96908  L 355.308643 111.69358  L 359.272494 110.201418  L 363.236345 108.953111  L 367.200196 107.971399  L 369.842765 107.361277  L 371.164047 106.706158  L 372.485328 105.645097  L 373.806616 104.774668  L 375.127898 104.40695  L 375.127898 104.40695  " clip-path="url(#pf12cc8b486)" style="fill: none; stroke: #008000; stroke-width: 1.5; stroke-linecap: square"/>
   </g>
   <g id="line2d_30">
    <path d="M 50.473352 101.883241  L 51.366833 101.95243  L 52.260321 102.159997  L 53.153802 102.502556  L 54.047289 102.977203  L 55.834251 104.301957  L 58.514707 106.831472  L 59.408188 107.048233  L 62.088638 106.078617  L 64.769087 104.8845  L 68.343024 102.988815  L 71.916961 100.802342  L 76.384379 97.759472  L 82.638766 93.149929  L 89.786633 87.761402  L 90.680114 87.505935  L 91.573602 87.965099  L 92.467083 88.796336  L 93.360564 90.043192  L 94.254052 91.702763  L 95.147533 93.725214  L 95.147533 93.725214  L 96.583362 91.715343  L 98.019197 90.116252  L 99.455027 89.016967  L 100.890856 88.460551  L 102.326691 88.652152  L 105.19835 91.427458  L 108.070015 94.653219  L 110.941673 98.278149  L 113.813338 102.245153  L 118.120832 108.672  L 122.428326 115.199485  L 123.864155 117.048238  L 125.299984 118.132523  L 126.735813 117.86254  L 128.171649 116.730355  L 129.607478 115.44334  L 131.043307 114.352281  L 132.479143 113.696194  L 133.914972 113.595555  L 136.78663 114.502755  L 138.222466 112.910922  L 139.658295 113.095749  L 141.094124 114.101652  L 143.965789 116.432793  L 145.401618 116.500531  L 148.273283 111.982917  L 155.452436 99.881111  L 164.067424 85.240596  L 165.503253 82.946711  L 166.939082 80.95329  L 166.939082 80.95329  L 170.513019 80.799913  L 173.193468 80.678953  L 174.980437 80.766044  L 176.767405 81.116828  L 178.554374 81.833879  L 180.341336 82.978644  L 182.128305 84.567575  L 183.915273 86.605993  L 184.808754 87.847042  L 186.595723 90.956198  L 189.276179 96.216023  L 194.637078 107.393694  L 200.891464 120.389637  L 204.465395 127.35161  L 207.145851 132.203558  L 209.8263 136.663595  L 210.719781 138.045442  L 211.613269 139.172305  L 211.613269 139.172305  L 212.668789 138.083182  L 214.779844 135.402708  L 219.00194 129.592273  L 223.224042 123.426217  L 228.501672 115.34754  L 240.112445 97.350627  L 242.2235 94.420492  L 243.279027 93.236052  L 244.334547 92.871721  L 245.390075 93.239439  L 246.445602 94.135027  L 248.55665 96.501488  L 251.723225 100.071744  L 253.834279 102.164352  L 255.945327 103.940528  L 258.056375 105.357696  L 260.16743 106.386339  L 262.278478 107.009041  L 264.389532 107.217577  L 264.389532 107.217577  L 266.176494 107.079198  L 267.963463 106.665515  L 269.750431 105.979914  L 271.5374 105.031104  L 273.324368 103.830697  L 275.11133 102.394176  L 276.898299 100.741378  L 279.578748 97.90656  L 281.365717 95.823145  L 282.259204 95.936847  L 284.046166 98.595548  L 285.833135 101.926302  L 292.087521 114.268093  L 294.767971 119.049884  L 296.554939 121.90454  L 298.341908 124.441313  L 301.022357 127.924961  L 304.596294 133.770716  L 305.489775 134.998218  L 308.170225 136.51554  L 309.063712 136.869711  L 309.063712 136.869711  L 310.384994 136.852777  L 311.706275 137.052602  L 313.027563 136.610857  L 315.670126 134.789199  L 318.312696 132.631756  L 319.633984 131.08492  L 322.276547 127.277099  L 326.240398 121.082012  L 328.882967 116.843573  L 330.204249 115.518819  L 331.525537 115.173358  L 332.846818 118.713615  L 334.1681 121.586173  L 340.77452 118.304286  L 342.095802 117.56014  L 344.738371 114.740805  L 348.702222 110.540106  L 351.344792 107.990753  L 353.987355 105.706544  L 356.629924 103.737799  L 359.272494 102.135321  L 361.915063 100.947978  L 363.236345 100.524618  L 364.557626 100.223185  L 365.878914 100.049003  L 367.200196 100.013199  L 368.521477 100.147223  L 371.164047 100.804761  L 373.806616 101.669383  L 375.127898 101.883241  L 375.127898 101.883241  " clip-path="url(#pf12cc8b486)" style="fill: none; stroke: #008000; stroke-width: 1.5; stroke-linecap: square"/>
   </g>
   <g id="line2d_31">
    <path d="M 50.473352 101.458913  L 51.366833 101.530521  L 52.260321 101.744378  L 53.153802 102.098549  L 54.047289 102.587712  L 55.834251 103.94827  L 57.62122 105.764121  L 58.514707 106.074746  L 61.195157 105.063037  L 63.875606 103.796828  L 66.556056 102.306117  L 70.129993 100.024811  L 74.597411 96.823242  L 84.425728 89.536128  L 86.212696 88.458616  L 87.999665 87.652055  L 88.893146 87.415457  L 89.786633 87.346752  L 90.680114 87.099025  L 95.147533 83.87278  L 95.147533 83.87278  L 96.583362 84.567091  L 98.019197 85.393489  L 100.890856 87.435294  L 102.326691 88.412651  L 103.762521 88.818593  L 105.19835 89.577738  L 106.634179 90.617026  L 108.070015 91.878397  L 110.941673 94.898526  L 113.813338 98.391367  L 118.120832 104.141806  L 122.428326 109.908211  L 123.864155 111.602618  L 125.299984 112.975273  L 126.735813 113.767319  L 128.171649 113.723289  L 129.607478 112.955435  L 132.479143 111.013301  L 133.914972 110.476723  L 135.350801 110.408017  L 136.78663 110.722513  L 138.222466 110.816378  L 139.658295 108.962304  L 142.52996 103.626516  L 146.837448 95.51639  L 149.709112 90.462681  L 152.580777 85.944099  L 154.016606 83.971484  L 155.452436 82.250949  L 156.888265 80.835717  L 158.3241 79.778526  L 159.75993 79.111795  L 161.195759 78.831651  L 162.631594 78.893583  L 164.067424 79.227916  L 166.939082 80.288494  L 166.939082 80.288494  L 168.72605 80.193177  L 170.513019 79.910615  L 173.193468 79.209047  L 174.980437 78.723271  L 175.873918 78.570378  L 176.767405 78.55054  L 177.660886 78.730045  L 178.554374 79.158727  L 179.447855 79.846748  L 180.341336 80.766044  L 182.128305 83.129602  L 185.702242 88.791014  L 187.48921 91.640832  L 189.276179 94.860303  L 191.956628 100.20867  L 197.317527 111.570685  L 202.678433 122.855769  L 206.252363 129.932413  L 208.932813 134.832261  L 210.719781 137.756106  L 211.613269 136.979543  L 211.613269 136.979543  L 212.668789 137.747881  L 214.779844 134.838551  L 217.946419 129.976926  L 222.168521 123.017372  L 230.61272 108.9115  L 233.779295 104.011169  L 236.94587 99.556938  L 239.056924 96.920977  L 241.167972 94.652736  L 244.334547 91.956295  L 245.390075 91.327303  L 246.445602 91.340367  L 247.501123 91.969359  L 248.55665 92.966069  L 254.8898 99.842403  L 257.000855 101.661158  L 259.111903 103.086067  L 261.22295 104.06681  L 262.278478 104.378403  L 263.334005 104.566617  L 265.283013 104.588874  L 267.069982 104.265669  L 268.85695 103.626516  L 270.643912 102.68448  L 272.430881 101.458913  L 274.217849 99.974976  L 276.004818 98.259763  L 278.685267 95.340272  L 279.578748 94.323241  L 280.472236 93.642961  L 281.365717 94.729666  L 282.259204 94.796436  L 284.939654 99.642577  L 289.407072 106.995494  L 293.87449 114.899988  L 300.128876 126.184588  L 301.022357 127.514181  L 302.809326 129.358095  L 304.596294 130.900577  L 306.383263 132.198236  L 308.170225 133.273812  L 309.063712 133.354129  L 309.063712 133.354129  L 310.384994 132.938995  L 311.706275 131.857129  L 314.348845 128.910059  L 318.312696 124.174717  L 320.955265 121.394572  L 323.597835 119.129233  L 326.240398 117.392248  L 328.882967 116.038464  L 330.204249 114.668713  L 331.525537 114.654197  L 332.846818 114.3068  L 335.489388 113.031882  L 339.453239 110.778639  L 350.023504 104.321794  L 352.666073 102.954462  L 355.308643 101.781634  L 357.951206 100.841049  L 360.593775 100.169963  L 363.236345 99.802245  L 365.878914 99.766924  L 368.521477 100.028682  L 371.164047 100.568163  L 373.806616 101.306503  L 375.127898 101.458913  L 375.127898 101.458913  " clip-path="url(#pf12cc8b486)" style="fill: none; stroke: #008000; stroke-width: 1.5; stroke-linecap: square"/>
   </g>
   <g id="line2d_32">
    <path d="M 50.473352 67.435284  L 54.047289 67.540277  L 57.62122 67.855257  L 61.195157 68.381191  L 64.769087 69.120983  L 68.343024 70.075115  L 71.916961 71.246008  L 75.490892 72.633661  L 79.064829 74.236139  L 82.638766 76.048604  L 87.106184 78.596021  L 91.573602 81.429388  L 95.147533 83.87278  L 95.147533 83.87278  L 96.583362 83.311526  L 98.019197 82.883811  L 99.455027 82.588669  L 100.890856 82.425131  L 102.326691 82.390778  L 103.762521 82.483192  L 105.19835 82.699468  L 106.634179 83.034769  L 109.505844 84.045511  L 112.377509 85.471388  L 115.249167 87.260144  L 118.120832 89.345978  L 122.428326 92.835433  L 126.735813 96.266826  L 128.171649 97.198702  L 129.607478 97.880432  L 131.043307 98.178478  L 132.479143 97.966072  L 133.914972 97.198218  L 135.350801 95.94604  L 136.78663 94.343562  L 139.658295 90.557998  L 145.401618 82.623022  L 148.273283 79.090022  L 151.144942 76.024896  L 154.016606 73.470704  L 155.452436 72.422223  L 156.888265 72.207398  L 158.3241 72.518023  L 159.75993 73.289264  L 161.195759 74.37355  L 164.067424 76.960158  L 166.939082 79.615472  L 166.939082 79.615472  L 168.72605 79.500318  L 170.513019 79.164533  L 173.193468 78.34636  L 174.980437 77.767203  L 175.873918 77.563507  L 176.767405 77.490931  L 177.660886 77.614794  L 178.554374 77.984448  L 179.447855 78.610537  L 180.341336 79.465966  L 182.128305 81.702274  L 183.915273 84.414197  L 186.595723 88.981647  L 192.850109 100.19222  L 197.317527 108.8636  L 209.8263 133.760555  L 211.613269 136.979543  L 211.613269 136.979543  L 214.779844 131.922447  L 220.057467 122.829642  L 226.390617 111.921469  L 229.557192 106.805829  L 232.723774 102.069035  L 235.890349 97.799147  L 238.001397 95.244472  L 240.112445 92.93849  L 242.2235 90.883622  L 244.334547 89.017451  L 245.390075 88.324108  L 246.445602 88.071544  L 248.55665 87.065157  L 251.723225 85.568156  L 253.834279 84.784335  L 255.945327 84.180503  L 259.111903 83.575219  L 262.278478 83.273786  L 265.283013 83.250562  L 267.069982 83.508933  L 268.85695 84.025674  L 270.643912 84.800785  L 272.430881 85.8333  L 274.217849 87.120798  L 276.004818 88.659409  L 277.791786 90.442844  L 280.472236 93.308144  L 281.365717 93.392816  L 282.259204 94.749987  L 283.152685 93.843271  L 284.046166 94.491133  L 285.833135 96.89485  L 288.513584 100.901045  L 291.19404 105.261895  L 294.767971 111.507302  L 305.489775 130.736071  L 306.383263 131.917609  L 307.276744 132.729008  L 308.170225 133.137369  L 309.063712 133.354129  L 309.063712 133.354129  L 310.384994 132.731427  L 311.706275 131.394577  L 314.348845 128.022697  L 319.633984 120.631557  L 327.561686 109.316474  L 328.882967 107.827699  L 330.204249 110.879761  L 331.525537 112.353538  L 338.131951 101.725509  L 343.41709 93.518615  L 347.380941 87.794787  L 350.023504 84.269529  L 352.666073 81.024898  L 355.308643 78.092344  L 357.951206 75.491704  L 360.593775 73.237493  L 363.236345 71.338905  L 365.878914 69.807068  L 368.521477 68.649239  L 371.164047 67.873159  L 373.806616 67.484152  L 375.127898 67.435284  L 375.127898 67.435284  " clip-path="url(#pf12cc8b486)" style="fill: none; stroke: #008000; stroke-width: 1.5; stroke-linecap: square"/>
   </g>
   <g id="line2d_33">
    <path d="M 50.473352 56.503887  L 53.153802 56.587591  L 56.727739 56.956761  L 60.301669 57.614784  L 63.875606 58.549079  L 67.449543 59.744647  L 71.023474 61.183587  L 74.597411 62.843642  L 79.064829 65.188331  L 84.425728 68.28152  L 89.786633 71.318584  L 91.573602 72.129016  L 93.360564 72.641886  L 94.254052 72.703818  L 95.147533 72.565923  L 95.147533 72.565923  L 102.326691 73.557795  L 105.19835 74.403548  L 108.070015 75.679918  L 110.941673 77.388841  L 113.813338 79.493545  L 116.684996 81.932582  L 120.99249 86.036513  L 126.735813 91.680506  L 128.171649 92.93849  L 129.607478 94.025195  L 131.043307 94.839498  L 132.479143 95.249794  L 133.914972 95.124963  L 135.350801 94.41517  L 136.78663 93.194926  L 138.222466 91.612285  L 141.094124 87.897845  L 146.837448 80.198499  L 149.709112 76.800491  L 151.144942 75.32865  L 152.580777 74.062441  L 154.016606 73.061376  L 155.452436 72.361743  L 158.3241 70.458316  L 161.195759 68.763909  L 164.067424 67.305615  L 165.503253 66.720169  L 166.939082 66.261488  L 166.939082 66.261488  L 168.72605 66.446799  L 170.513019 66.990635  L 172.299987 67.851386  L 176.767405 70.448156  L 177.660886 70.709913  L 178.554374 70.755394  L 179.447855 70.572503  L 180.341336 70.185914  L 182.128305 68.958896  L 183.915273 67.336581  L 186.595723 64.468377  L 190.16966 60.175749  L 195.530559 53.264578  L 204.465395 41.69548  L 208.932813 36.270182  L 211.613269 33.248117  L 211.613269 33.248117  L 214.779844 38.417464  L 220.057467 47.522849  L 228.501672 62.657848  L 235.890349 75.772331  L 239.056924 81.07425  L 241.167972 84.351782  L 242.2235 85.835719  L 243.279027 87.110638  L 244.334547 87.98542  L 245.390075 88.006225  L 247.501123 86.030223  L 248.55665 85.273497  L 250.667698 84.21921  L 253.834279 82.960258  L 257.000855 82.042897  L 260.16743 81.465193  L 263.334005 81.20779  L 265.283013 81.21795  L 267.069982 81.433743  L 268.85695 81.86678  L 270.643912 82.518028  L 272.430881 83.390392  L 274.217849 84.484354  L 276.004818 85.799915  L 277.791786 87.335623  L 278.685267 88.184279  L 279.578748 89.371622  L 280.472236 90.835722  L 281.365717 91.355366  L 282.259204 92.067578  L 283.152685 92.950586  L 284.046166 92.299338  L 286.726622 88.725212  L 291.19404 82.328847  L 305.489775 61.470021  L 309.063712 56.576463  L 309.063712 56.576463  L 310.384994 58.263129  L 311.706275 60.751518  L 314.348845 66.895319  L 318.312696 77.186595  L 323.597835 91.767114  L 328.882967 106.510686  L 330.204249 105.392048  L 346.059653 83.363297  L 352.666073 74.672563  L 356.629924 69.749975  L 359.272494 66.688719  L 361.915063 63.881963  L 364.557626 61.408573  L 367.200196 59.353221  L 368.521477 58.509404  L 369.842765 57.80203  L 371.164047 57.240775  L 372.485328 56.833866  L 373.806616 56.586624  L 375.127898 56.503887  L 375.127898 56.503887  " clip-path="url(#pf12cc8b486)" style="fill: none; stroke: #008000; stroke-width: 1.5; stroke-linecap: square"/>
   </g>
   <g id="line2d_34">
    <path d="M 50.473352 29.47223  L 51.366833 29.410782  L 52.260321 29.227891  L 54.047289 28.508421  L 55.834251 27.350108  L 57.62122 25.805207  L 59.408188 23.934197  L 62.088638 20.648924  L 64.769087 16.95287  L 69.236505 10.28749  L 70.129993 9.554956  L 71.916961 13.817103  L 74.597411 20.796979  L 78.171348 30.758761  L 82.638766 43.955013  L 87.999665 59.927055  L 89.786633 64.751424  L 91.573602 68.760522  L 92.467083 70.283166  L 93.360564 71.414868  L 94.254052 72.159982  L 95.147533 72.565923  L 95.147533 72.565923  L 96.583362 72.221429  L 98.019197 71.640337  L 99.455027 70.734589  L 100.890856 69.46209  L 102.326691 67.848  L 103.762521 65.962475  L 106.634179 61.698393  L 115.249167 48.288768  L 118.120832 44.155806  L 120.99249 40.318955  L 123.864155 36.867724  L 125.299984 35.346048  L 126.735813 34.032906  L 128.171649 33.044905  L 129.607478 32.578483  L 131.043307 32.838305  L 132.479143 33.819532  L 133.914972 35.294761  L 136.78663 38.916787  L 149.709112 56.171005  L 152.580777 59.769807  L 154.016606 61.363576  L 155.452436 62.724618  L 156.888265 63.7581  L 158.3241 64.403543  L 159.75993 64.717071  L 165.503253 65.286067  L 166.939082 65.62669  L 166.939082 65.62669  L 168.72605 65.800389  L 170.513019 66.308421  L 172.299987 67.108692  L 176.767405 69.464025  L 177.660886 69.665303  L 178.554374 69.64982  L 179.447855 69.406932  L 180.341336 68.963251  L 182.128305 67.636078  L 183.915273 65.932477  L 186.595723 62.982021  L 190.16966 58.658426  L 205.358882 39.796892  L 209.8263 34.774149  L 210.719781 33.819049  L 211.613269 33.248117  L 211.613269 33.248117  L 212.668789 33.210378  L 213.724317 33.626964  L 214.779844 34.315468  L 215.835365 35.270569  L 216.890892 36.477265  L 219.00194 39.484331  L 221.112994 42.987817  L 225.335097 50.626682  L 236.94587 72.058859  L 240.112445 77.489963  L 242.2235 80.818298  L 243.279027 82.312396  L 244.334547 83.596508  L 245.390075 84.524997  L 246.445602 84.927068  L 247.501123 84.740789  L 248.55665 84.005353  L 251.723225 80.707499  L 253.834279 78.610537  L 255.945327 76.785976  L 258.056375 75.298168  L 260.16743 74.197432  L 262.278478 73.52054  L 263.334005 73.34926  L 264.389532 73.292167  L 264.389532 73.292167  L 265.283013 73.357969  L 266.176494 73.55586  L 267.069982 73.88342  L 268.85695 74.917386  L 270.643912 76.427934  L 272.430881 78.372487  L 274.217849 80.700241  L 276.004818 83.356523  L 279.578748 89.085673  L 281.365717 91.036515  L 282.259204 90.487357  L 284.046166 88.129605  L 287.620103 82.940421  L 292.087521 76.033605  L 299.235389 64.51289  L 305.489775 54.279191  L 306.383263 53.072494  L 309.063712 56.576463  L 309.063712 56.576463  L 310.384994 55.81635  L 311.706275 55.659102  L 318.312696 56.05198  L 319.633984 55.836188  L 320.955265 55.446697  L 322.276547 54.867056  L 323.597835 54.085171  L 324.919116 53.09475  L 326.240398 51.896762  L 327.561686 50.497497  L 328.882967 48.908567  L 331.525537 45.22848  L 334.1681 41.018104  L 335.489388 38.829212  L 336.810669 38.235056  L 340.77452 36.895787  L 346.059653 35.382819  L 351.344792 34.11032  L 371.164047 29.792532  L 373.806616 29.509486  L 375.127898 29.47223  L 375.127898 29.47223  " clip-path="url(#pf12cc8b486)" style="fill: none; stroke: #008000; stroke-width: 1.5; stroke-linecap: square"/>
   </g>
   <g id="line2d_35">
    <path d="M 50.473352 28.576642  L 51.366833 28.516646  L 52.260321 28.337625  L 54.047289 27.633154  L 55.834251 26.495646  L 57.62122 24.973002  L 59.408188 23.122314  L 61.195157 21.001159  L 63.875606 17.433323  L 67.449543 12.211238  L 69.236505 9.522539  L 70.129993 8.839841  L 76.609461 -1  M 111.700698 -1  L 116.684996 6.203397  L 126.735813 21.28856  L 133.914972 32.34382  L 142.52996 45.634905  L 145.401618 49.833669  L 148.273283 53.611975  L 151.144942 56.826124  L 154.016606 59.530306  L 155.452436 60.66104  L 156.888265 61.620979  L 158.3241 62.398993  L 159.75993 62.996052  L 161.195759 63.430057  L 164.067424 63.940024  L 166.939082 64.124367  L 166.939082 64.124367  L 169.619538 64.219683  L 174.980437 64.529341  L 176.767405 64.363384  L 178.554374 63.89793  L 180.341336 63.078305  L 182.128305 61.901122  L 183.915273 60.399283  L 185.702242 58.620203  L 188.382691 55.532336  L 191.063141 52.052559  L 194.637078 46.964497  L 199.104496 40.090583  L 204.465395 31.332595  L 206.252363 28.350689  L 207.145851 28.449876  L 211.613269 32.802017  L 211.613269 32.802017  L 212.668789 32.828628  L 217.946419 31.590481  L 226.390617 29.503196  L 230.61272 28.196344  L 233.779295 26.972713  L 236.94587 25.611671  L 240.112445 26.045675  L 244.334547 26.854172  L 258.056375 29.779952  L 261.22295 30.133155  L 264.389532 30.255567  L 264.389532 30.255567  L 266.176494 30.088642  L 267.963463 29.591255  L 269.750431 28.776952  L 271.5374 27.665088  L 273.324368 26.281789  L 275.11133 24.659473  L 277.791786 21.861427  L 278.685267 20.854556  L 279.578748 20.214919  L 286.726622 29.191603  L 293.87449 37.723153  L 301.915845 47.37431  L 306.383263 52.774448  L 309.063712 48.42521  L 309.063712 48.42521  L 310.384994 49.397729  L 311.706275 49.576266  L 313.027563 49.312573  L 315.670126 48.232642  L 319.633984 46.185999  L 326.240398 42.753154  L 330.204249 40.891822  L 335.489388 38.655997  L 338.131951 34.108869  L 342.095802 27.216568  L 343.41709 25.153474  L 344.738371 23.384555  L 346.059653 22.09367  L 347.380941 21.442421  L 348.702222 21.410972  L 350.023504 21.809656  L 352.666073 23.192954  L 357.951206 26.210181  L 360.593775 27.408652  L 363.236345 28.279564  L 365.878914 28.785661  L 368.521477 28.932265  L 371.164047 28.80066  L 375.127898 28.576642  L 375.127898 28.576642  " clip-path="url(#pf12cc8b486)" style="fill: none; stroke: #008000; stroke-width: 1.5; stroke-linecap: square"/>
   </g>
   <g id="line2d_36">
    <path d="M 50.473352 15.212497  L 52.260321 15.057185  L 54.047289 14.596569  L 55.834251 13.850972  L 57.62122 12.847971  L 59.408188 11.622889  L 62.088638 9.451415  L 64.769087 6.988669  L 67.449543 4.34787  L 68.343024 5.246361  L 69.236505 7.24462  L 70.129993 8.010539  L 74.597411 1.216942  L 76.074312 -1  M 112.520795 -1  L 116.684996 5.045084  L 125.299984 17.819911  L 126.735813 19.732047  L 128.171649 21.372748  L 129.607478 22.531061  L 131.043307 22.994096  L 132.479143 22.760885  L 133.914972 22.055447  L 136.78663 20.022351  L 151.144942 8.838873  L 159.75993 2.45654  L 164.067424 -0.468757  L 164.956595 -1  M 170.716067 -1  L 172.299987 -0.072008  L 174.980437 1.875448  L 183.021792 8.363742  L 200.891464 22.664601  L 205.358882 26.694505  L 209.8263 30.998745  L 211.613269 32.802017  L 211.613269 32.802017  L 213.724317 29.819143  L 215.835365 27.367042  L 217.946419 25.413296  L 219.00194 25.189762  L 221.112994 25.358622  L 224.279569 25.333946  L 230.61272 25.206213  L 234.834822 25.393943  L 235.890349 25.485388  L 236.94587 25.449584  L 239.056924 24.263692  L 242.2235 22.162859  L 245.390075 19.701081  L 248.55665 16.94658  L 255.945327 10.333939  L 258.056375 8.761459  L 260.16743 7.522345  L 261.22295 7.062697  L 262.278478 6.724976  L 263.334005 6.518377  L 264.389532 6.448704  L 264.389532 6.448704  L 265.283013 6.520796  L 266.176494 6.735621  L 267.069982 7.087372  L 268.85695 8.164884  L 270.643912 9.661401  L 272.430881 11.47435  L 275.11133 14.581086  L 278.685267 19.072089  L 279.578748 19.823493  L 283.152685 15.767462  L 284.046166 14.949772  L 284.939654 14.384647  L 285.833135 14.222561  L 286.726622 14.540928  L 287.620103 15.260398  L 289.407072 17.376714  L 292.087521 21.227113  L 296.554939 28.181829  L 305.489775 42.595906  L 309.063712 48.42521  L 309.063712 48.42521  L 310.384994 46.523235  L 311.706275 44.002429  L 314.348845 38.274247  L 320.955265 23.680665  L 324.919116 15.445708  L 327.561686 10.292329  L 330.204249 5.556503  L 331.525537 3.561146  L 332.846818 2.505408  L 334.1681 2.974732  L 336.810669 5.313131  L 340.77452 8.966607  L 342.095802 10.02041  L 343.41709 10.89229  L 344.738371 11.462737  L 346.059653 11.556602  L 347.380941 11.022443  L 348.702222 9.889774  L 350.023504 8.360839  L 353.987355 3.206008  L 355.308643 1.71191  L 356.629924 0.574886  L 357.951206 0.058145  L 359.272494 1.481602  L 363.236345 6.445317  L 365.878914 9.432061  L 368.521477 11.995445  L 369.842765 13.062313  L 371.164047 13.951127  L 372.485328 14.630438  L 373.806616 15.062991  L 375.127898 15.212497  L 375.127898 15.212497  " clip-path="url(#pf12cc8b486)" style="fill: none; stroke: #008000; stroke-width: 1.5; stroke-linecap: square"/>
   </g>
   <g id="line2d_37">
    <path d="M 50.473352 14.795911  L 52.260321 14.640115  L 54.047289 14.178531  L 55.834251 13.429063  L 57.62122 12.417838  L 59.408188 11.178723  L 62.088638 8.976284  L 64.769087 6.47725  L 67.449543 3.802099  L 68.343024 3.445025  L 72.710092 -1  M 171.605501 -1  L 173.193468 0.059596  L 175.873918 2.155107  L 186.595723 10.941642  L 197.317527 19.31788  L 201.784945 23.190051  L 206.252363 27.413007  L 207.145851 26.77579  L 211.613269 19.060961  L 211.613269 19.060961  L 213.724317 21.906908  L 214.779844 23.004741  L 215.835365 23.849041  L 216.890892 24.4461  L 217.946419 24.791078  L 219.00194 24.364331  L 223.224042 21.193244  L 230.61272 15.819717  L 234.834822 12.422676  L 239.056924 8.666142  L 244.334547 3.569372  L 249.018877 -1  M 277.738257 -1  L 280.472236 2.254778  L 283.152685 5.388126  L 284.046166 6.24791  L 284.939654 6.856097  L 285.833135 7.062697  L 286.726622 6.790778  L 287.620103 6.119209  L 289.407072 4.106434  L 292.087521 0.438443  L 293.084216 -1  M 357.390527 -1  L 357.951206 -0.263125  L 359.272494 0.347965  L 360.593775 1.398865  L 361.915063 2.887157  L 367.200196 9.590277  L 368.521477 11.052925  L 369.842765 12.331714  L 371.164047 13.382131  L 372.485328 14.160629  L 373.806616 14.636728  L 375.127898 14.795911  L 375.127898 14.795911  " clip-path="url(#pf12cc8b486)" style="fill: none; stroke: #008000; stroke-width: 1.5; stroke-linecap: square"/>
   </g>
   <g id="line2d_38">
    <path d="M 65.367068 -1  L 67.449543 3.288261  L 68.343024 2.889577  L 72.138409 -1  M 200.50044 -1  L 207.145851 11.136145  L 211.613269 19.060961  L 211.613269 19.060961  L 213.724317 15.692467  L 215.835365 11.794168  L 219.00194 5.295713  L 221.908673 -1  L 221.908673 -1  " clip-path="url(#pf12cc8b486)" style="fill: none; stroke: #008000; stroke-width: 1.5; stroke-linecap: square"/>
   </g>
   <g id="line2d_39">
    <path d="M 0 0  " clip-path="url(#pf12cc8b486)" style="fill: none; stroke: #008000; stroke-width: 1.5; stroke-linecap: square"/>
   </g>
   <g id="line2d_40">
    <path d="M 0 0  " clip-path="url(#pf12cc8b486)" style="fill: none; stroke: #008000; stroke-width: 1.5; stroke-linecap: square"/>
   </g>
   <g id="line2d_41">
    <path d="M 0 0  " clip-path="url(#pf12cc8b486)" style="fill: none; stroke: #008000; stroke-width: 1.5; stroke-linecap: square"/>
   </g>
   <g id="line2d_42">
    <path d="M 0 0  " clip-path="url(#pf12cc8b486)" style="fill: none; stroke: #008000; stroke-width: 1.5; stroke-linecap: square"/>
   </g>
   <g id="line2d_43">
    <path d="M 0 0  " clip-path="url(#pf12cc8b486)" style="fill: none; stroke: #008000; stroke-width: 1.5; stroke-linecap: square"/>
   </g>
   <g id="line2d_44">
    <path d="M 0 0  " clip-path="url(#pf12cc8b486)" style="fill: none; stroke: #008000; stroke-width: 1.5; stroke-linecap: square"/>
   </g>
   <g id="line2d_45">
    <path d="M 0 0  " clip-path="url(#pf12cc8b486)" style="fill: none; stroke: #008000; stroke-width: 1.5; stroke-linecap: square"/>
   </g>
   <g id="line2d_46">
    <path d="M 0 0  " clip-path="url(#pf12cc8b486)" style="fill: none; stroke: #008000; stroke-width: 1.5; stroke-linecap: square"/>
   </g>
   <g id="line2d_47">
    <path d="M 0 0  " clip-path="url(#pf12cc8b486)" style="fill: none; stroke: #008000; stroke-width: 1.5; stroke-linecap: square"/>
   </g>
   <g id="line2d_48">
    <path d="M 0 0  " clip-path="url(#pf12cc8b486)" style="fill: none; stroke: #008000; stroke-width: 1.5; stroke-linecap: square"/>
   </g>
   <g id="line2d_49">
    <path d="M 0 0  " clip-path="url(#pf12cc8b486)" style="fill: none; stroke: #008000; stroke-width: 1.5; stroke-linecap: square"/>
   </g>
   <g id="line2d_50">
    <path d="M 0 0  " clip-path="url(#pf12cc8b486)" style="fill: none; stroke: #008000; stroke-width: 1.5; stroke-linecap: square"/>
   </g>
   <g id="line2d_51">
    <path d="M 0 0  " clip-path="url(#pf12cc8b486)" style="fill: none; stroke: #008000; stroke-width: 1.5; stroke-linecap: square"/>
   </g>
   <g id="line2d_52">
    <path d="M 0 0  " clip-path="url(#pf12cc8b486)" style="fill: none; stroke: #008000; stroke-width: 1.5; stroke-linecap: square"/>
   </g>
   <g id="line2d_53">
    <path d="M 0 0  " clip-path="url(#pf12cc8b486)" style="fill: none; stroke: #008000; stroke-width: 1.5; stroke-linecap: square"/>
   </g>
   <g id="line2d_54">
    <path d="M 0 0  " clip-path="url(#pf12cc8b486)" style="fill: none; stroke: #008000; stroke-width: 1.5; stroke-linecap: square"/>
   </g>
   <g id="line2d_55">
    <path d="M 0 0  " clip-path="url(#pf12cc8b486)" style="fill: none; stroke: #008000; stroke-width: 1.5; stroke-linecap: square"/>
   </g>
   <g id="line2d_56">
    <path d="M 0 0  " clip-path="url(#pf12cc8b486)" style="fill: none; stroke: #008000; stroke-width: 1.5; stroke-linecap: square"/>
   </g>
   <g id="line2d_57">
    <path d="M 0 0  " clip-path="url(#pf12cc8b486)" style="fill: none; stroke: #008000; stroke-width: 1.5; stroke-linecap: square"/>
   </g>
   <g id="line2d_58">
    <path d="M 0 0  " clip-path="url(#pf12cc8b486)" style="fill: none; stroke: #008000; stroke-width: 1.5; stroke-linecap: square"/>
   </g>
   <g id="line2d_59">
    <path d="M 0 0  " clip-path="url(#pf12cc8b486)" style="fill: none; stroke: #008000; stroke-width: 1.5; stroke-linecap: square"/>
   </g>
   <g id="line2d_60">
    <path d="M 0 0  " clip-path="url(#pf12cc8b486)" style="fill: none; stroke: #008000; stroke-width: 1.5; stroke-linecap: square"/>
   </g>
   <g id="line2d_61">
    <path d="M 0 0  " clip-path="url(#pf12cc8b486)" style="fill: none; stroke: #008000; stroke-width: 1.5; stroke-linecap: square"/>
   </g>
   <g id="line2d_62">
    <path d="M 0 0  " clip-path="url(#pf12cc8b486)" style="fill: none; stroke: #008000; stroke-width: 1.5; stroke-linecap: square"/>
   </g>
   <g id="line2d_63">
    <path d="M 0 0  " clip-path="url(#pf12cc8b486)" style="fill: none; stroke: #008000; stroke-width: 1.5; stroke-linecap: square"/>
   </g>
   <g id="line2d_64">
    <path d="M 0 0  " clip-path="url(#pf12cc8b486)" style="fill: none; stroke: #008000; stroke-width: 1.5; stroke-linecap: square"/>
   </g>
   <g id="line2d_65">
    <path d="M 0 0  " clip-path="url(#pf12cc8b486)" style="fill: none; stroke: #008000; stroke-width: 1.5; stroke-linecap: square"/>
   </g>
   <g id="line2d_66">
    <path d="M 0 0  " clip-path="url(#pf12cc8b486)" style="fill: none; stroke: #008000; stroke-width: 1.5; stroke-linecap: square"/>
   </g>
   <g id="line2d_67">
    <path d="M 0 0  " clip-path="url(#pf12cc8b486)" style="fill: none; stroke: #008000; stroke-width: 1.5; stroke-linecap: square"/>
   </g>
   <g id="line2d_68">
    <path d="M 0 0  " clip-path="url(#pf12cc8b486)" style="fill: none; stroke: #008000; stroke-width: 1.5; stroke-linecap: square"/>
   </g>
   <g id="patch_3">
    <path d="M 34.240625 277.111219  L 34.240625 10.999219  " style="fill: none; stroke: #000000; stroke-width: 0.8; stroke-linejoin: miter; stroke-linecap: square"/>
   </g>
   <g id="patch_4">
    <path d="M 391.360625 277.111219  L 391.360625 10.999219  " style="fill: none; stroke: #000000; stroke-width: 0.8; stroke-linejoin: miter; stroke-linecap: square"/>
   </g>
   <g id="patch_5">
    <path d="M 34.240625 277.111219  L 391.360625 277.111219  " style="fill: none; stroke: #000000; stroke-width: 0.8; stroke-linejoin: miter; stroke-linecap: square"/>
   </g>
   <g id="patch_6">
    <path d="M 34.240625 10.999219  L 391.360625 10.999219  " style="fill: none; stroke: #000000; stroke-width: 0.8; stroke-linejoin: miter; stroke-linecap: square"/>
   </g>
  </g>
 </g>
 <defs>
  <clipPath id="pf12cc8b486">
   <rect x="34.240625" y="10.999219" width="357.12" height="266.112"/>
  </clipPath>
 </defs>
</svg>