<?xml version="1.0" encoding="utf-8" standalone="no"?>
<!DOCTYPE svg PUBLIC "-//W3C//DTD SVG 1.1//EN"
  "http://www.w3.org/Graphics/SVG/1.1/DTD/svg11.dtd">
<svg xmlns:xlink="http://www.w3.org/1999/xlink" width="460.8pt" height="345.6pt" viewBox="0 0 460.8 345.6" xmlns="http://www.w3.org/2000/svg" version="1.1">
 <metadata>
  <rdf:RDF xmlns:dc="http://purl.org/dc/elements/1.1/" xmlns:cc="http://creativecommons.org/ns#" xmlns:rdf="http://www.w3.org/1999/02/22-rdf-syntax-ns#">
   <cc:Work>
    <dc:type rdf:resource="http://purl.org/dc/dcmitype/StillImage"/>
    <dc:date>2024-04-04T12:53:19.681839</dc:date>
    <dc:format>image/svg+xml</dc:format>
    <dc:creator>
     <cc:Agent>
      <dc:title>Matplotlib v3.8.3, https://matplotlib.org/</dc:title>
     </cc:Agent>
    </dc:creator>
   </cc:Work>
  </rdf:RDF>
 </metadata>
 <defs>
  <style type="text/css">*{stroke-linejoin: round; stroke-linecap: butt}</style>
 </defs>
 <g id="figure_1">
  <g id="patch_1">
   <path d="M 0 345.6 
L 460.8 345.6 
L 460.8 0 
L 0 0 
z
" style="fill: #ffffff"/>
  </g>
  <g id="axes_1">
   <g id="patch_2">
    <path d="M 36.403365 312.24351 
L 457.79976 312.24351 
L 457.79976 46.394928 
L 36.403365 46.394928 
z
" style="fill: #ffffff"/>
   </g>
   <g id="axes_2">
    <g id="patch_3">
     <path d="M 36.403365 46.394928 
L 457.79976 46.394928 
L 457.79976 46.394928 
L 36.403365 46.394928 
z
" style="fill: #ffffff"/>
    </g>
    <g id="matplotlib.axis_1">
     <g id="xtick_1">
      <g id="line2d_1">
       <defs>
        <path id="m675672ceb9" d="M 0 0 
L 0 -3.5 
" style="stroke: #000000; stroke-width: 0.8"/>
       </defs>
       <g>
        <use xlink:href="#m675672ceb9" x="36.403365" y="46.394928" style="stroke: #000000; stroke-width: 0.8"/>
       </g>
      </g>
      <g id="text_1">
       <!-- 0 -->
       <g transform="translate(33.222115 37.31524) scale(0.1 -0.1)">
        <defs>
         <path id="DejaVuSans-30" d="M 2034 4250 
Q 1547 4250 1301 3770 
Q 1056 3291 1056 2328 
Q 1056 1369 1301 889 
Q 1547 409 2034 409 
Q 2525 409 2770 889 
Q 3016 1369 3016 2328 
Q 3016 3291 2770 3770 
Q 2525 4250 2034 4250 
z
M 2034 4750 
Q 2819 4750 3233 4129 
Q 3647 3509 3647 2328 
Q 3647 1150 3233 529 
Q 2819 -91 2034 -91 
Q 1250 -91 836 529 
Q 422 1150 422 2328 
Q 422 3509 836 4129 
Q 1250 4750 2034 4750 
z
" transform="scale(0.015625)"/>
        </defs>
        <use xlink:href="#DejaVuSans-30"/>
       </g>
      </g>
     </g>
     <g id="xtick_2">
      <g id="line2d_2">
       <g>
        <use xlink:href="#m675672ceb9" x="112.304238" y="46.394928" style="stroke: #000000; stroke-width: 0.8"/>
       </g>
      </g>
      <g id="text_2">
       <!-- 100 -->
       <g transform="translate(102.760488 37.31524) scale(0.1 -0.1)">
        <defs>
         <path id="DejaVuSans-31" d="M 794 531 
L 1825 531 
L 1825 4091 
L 703 3866 
L 703 4441 
L 1819 4666 
L 2450 4666 
L 2450 531 
L 3481 531 
L 3481 0 
L 794 0 
L 794 531 
z
" transform="scale(0.015625)"/>
        </defs>
        <use xlink:href="#DejaVuSans-31"/>
        <use xlink:href="#DejaVuSans-30" x="63.623047"/>
        <use xlink:href="#DejaVuSans-30" x="127.246094"/>
       </g>
      </g>
     </g>
     <g id="xtick_3">
      <g id="line2d_3">
       <g>
        <use xlink:href="#m675672ceb9" x="188.205111" y="46.394928" style="stroke: #000000; stroke-width: 0.8"/>
       </g>
      </g>
      <g id="text_3">
       <!-- 200 -->
       <g transform="translate(178.661361 37.31524) scale(0.1 -0.1)">
        <defs>
         <path id="DejaVuSans-32" d="M 1228 531 
L 3431 531 
L 3431 0 
L 469 0 
L 469 531 
Q 828 903 1448 1529 
Q 2069 2156 2228 2338 
Q 2531 2678 2651 2914 
Q 2772 3150 2772 3378 
Q 2772 3750 2511 3984 
Q 2250 4219 1831 4219 
Q 1534 4219 1204 4116 
Q 875 4013 500 3803 
L 500 4441 
Q 881 4594 1212 4672 
Q 1544 4750 1819 4750 
Q 2544 4750 2975 4387 
Q 3406 4025 3406 3419 
Q 3406 3131 3298 2873 
Q 3191 2616 2906 2266 
Q 2828 2175 2409 1742 
Q 1991 1309 1228 531 
z
" transform="scale(0.015625)"/>
        </defs>
        <use xlink:href="#DejaVuSans-32"/>
        <use xlink:href="#DejaVuSans-30" x="63.623047"/>
        <use xlink:href="#DejaVuSans-30" x="127.246094"/>
       </g>
      </g>
     </g>
     <g id="xtick_4">
      <g id="line2d_4">
       <g>
        <use xlink:href="#m675672ceb9" x="264.105984" y="46.394928" style="stroke: #000000; stroke-width: 0.8"/>
       </g>
      </g>
      <g id="text_4">
       <!-- 300 -->
       <g transform="translate(254.562234 37.31524) scale(0.1 -0.1)">
        <defs>
         <path id="DejaVuSans-33" d="M 2597 2516 
Q 3050 2419 3304 2112 
Q 3559 1806 3559 1356 
Q 3559 666 3084 287 
Q 2609 -91 1734 -91 
Q 1441 -91 1130 -33 
Q 819 25 488 141 
L 488 750 
Q 750 597 1062 519 
Q 1375 441 1716 441 
Q 2309 441 2620 675 
Q 2931 909 2931 1356 
Q 2931 1769 2642 2001 
Q 2353 2234 1838 2234 
L 1294 2234 
L 1294 2753 
L 1863 2753 
Q 2328 2753 2575 2939 
Q 2822 3125 2822 3475 
Q 2822 3834 2567 4026 
Q 2313 4219 1838 4219 
Q 1578 4219 1281 4162 
Q 984 4106 628 3988 
L 628 4550 
Q 988 4650 1302 4700 
Q 1616 4750 1894 4750 
Q 2613 4750 3031 4423 
Q 3450 4097 3450 3541 
Q 3450 3153 3228 2886 
Q 3006 2619 2597 2516 
z
" transform="scale(0.015625)"/>
        </defs>
        <use xlink:href="#DejaVuSans-33"/>
        <use xlink:href="#DejaVuSans-30" x="63.623047"/>
        <use xlink:href="#DejaVuSans-30" x="127.246094"/>
       </g>
      </g>
     </g>
     <g id="xtick_5">
      <g id="line2d_5">
       <g>
        <use xlink:href="#m675672ceb9" x="340.006857" y="46.394928" style="stroke: #000000; stroke-width: 0.8"/>
       </g>
      </g>
      <g id="text_5">
       <!-- 400 -->
       <g transform="translate(330.463107 37.31524) scale(0.1 -0.1)">
        <defs>
         <path id="DejaVuSans-34" d="M 2419 4116 
L 825 1625 
L 2419 1625 
L 2419 4116 
z
M 2253 4666 
L 3047 4666 
L 3047 1625 
L 3713 1625 
L 3713 1100 
L 3047 1100 
L 3047 0 
L 2419 0 
L 2419 1100 
L 313 1100 
L 313 1709 
L 2253 4666 
z
" transform="scale(0.015625)"/>
        </defs>
        <use xlink:href="#DejaVuSans-34"/>
        <use xlink:href="#DejaVuSans-30" x="63.623047"/>
        <use xlink:href="#DejaVuSans-30" x="127.246094"/>
       </g>
      </g>
     </g>
     <g id="xtick_6">
      <g id="line2d_6">
       <g>
        <use xlink:href="#m675672ceb9" x="415.90773" y="46.394928" style="stroke: #000000; stroke-width: 0.8"/>
       </g>
      </g>
      <g id="text_6">
       <!-- 500 -->
       <g transform="translate(406.36398 37.31524) scale(0.1 -0.1)">
        <defs>
         <path id="DejaVuSans-35" d="M 691 4666 
L 3169 4666 
L 3169 4134 
L 1269 4134 
L 1269 2991 
Q 1406 3038 1543 3061 
Q 1681 3084 1819 3084 
Q 2600 3084 3056 2656 
Q 3513 2228 3513 1497 
Q 3513 744 3044 326 
Q 2575 -91 1722 -91 
Q 1428 -91 1123 -41 
Q 819 9 494 109 
L 494 744 
Q 775 591 1075 516 
Q 1375 441 1709 441 
Q 2250 441 2565 725 
Q 2881 1009 2881 1497 
Q 2881 1984 2565 2268 
Q 2250 2553 1709 2553 
Q 1456 2553 1204 2497 
Q 953 2441 691 2322 
L 691 4666 
z
" transform="scale(0.015625)"/>
        </defs>
        <use xlink:href="#DejaVuSans-35"/>
        <use xlink:href="#DejaVuSans-30" x="63.623047"/>
        <use xlink:href="#DejaVuSans-30" x="127.246094"/>
       </g>
      </g>
     </g>
     <g id="text_7">
      <!-- E (K) -->
      <g transform="translate(235.172656 25.716803) scale(0.1 -0.1)">
       <defs>
        <path id="DejaVuSans-45" d="M 628 4666 
L 3578 4666 
L 3578 4134 
L 1259 4134 
L 1259 2753 
L 3481 2753 
L 3481 2222 
L 1259 2222 
L 1259 531 
L 3634 531 
L 3634 0 
L 628 0 
L 628 4666 
z
" transform="scale(0.015625)"/>
        <path id="DejaVuSans-20" transform="scale(0.015625)"/>
        <path id="DejaVuSans-28" d="M 1984 4856 
Q 1566 4138 1362 3434 
Q 1159 2731 1159 2009 
Q 1159 1288 1364 580 
Q 1569 -128 1984 -844 
L 1484 -844 
Q 1016 -109 783 600 
Q 550 1309 550 2009 
Q 550 2706 781 3412 
Q 1013 4119 1484 4856 
L 1984 4856 
z
" transform="scale(0.015625)"/>
        <path id="DejaVuSans-4b" d="M 628 4666 
L 1259 4666 
L 1259 2694 
L 3353 4666 
L 4166 4666 
L 1850 2491 
L 4331 0 
L 3500 0 
L 1259 2247 
L 1259 0 
L 628 0 
L 628 4666 
z
" transform="scale(0.015625)"/>
        <path id="DejaVuSans-29" d="M 513 4856 
L 1013 4856 
Q 1481 4119 1714 3412 
Q 1947 2706 1947 2009 
Q 1947 1309 1714 600 
Q 1481 -109 1013 -844 
L 513 -844 
Q 928 -128 1133 580 
Q 1338 1288 1338 2009 
Q 1338 2731 1133 3434 
Q 928 4138 513 4856 
z
" transform="scale(0.015625)"/>
       </defs>
       <use xlink:href="#DejaVuSans-45"/>
       <use xlink:href="#DejaVuSans-20" x="63.183594"/>
       <use xlink:href="#DejaVuSans-28" x="94.970703"/>
       <use xlink:href="#DejaVuSans-4b" x="133.984375"/>
       <use xlink:href="#DejaVuSans-29" x="199.560547"/>
      </g>
     </g>
    </g>
    <g id="matplotlib.axis_2"/>
    <g id="patch_4">
     <path d="M 36.403365 46.394928 
L 457.79976 46.394928 
" style="fill: none; stroke: #000000; stroke-width: 0.8; stroke-linejoin: miter; stroke-linecap: square"/>
    </g>
   </g>
   <g id="matplotlib.axis_3">
    <g id="xtick_7">
     <g id="line2d_7">
      <defs>
       <path id="m11881b7674" d="M 0 0 
L 0 3.5 
" style="stroke: #000000; stroke-width: 0.8"/>
      </defs>
      <g>
       <use xlink:href="#m11881b7674" x="36.403365" y="312.24351" style="stroke: #000000; stroke-width: 0.8"/>
      </g>
     </g>
     <g id="text_8">
      <!-- 0 -->
      <g transform="translate(33.222115 326.841947) scale(0.1 -0.1)">
       <use xlink:href="#DejaVuSans-30"/>
      </g>
     </g>
    </g>
    <g id="xtick_8">
     <g id="line2d_8">
      <g>
       <use xlink:href="#m11881b7674" x="109.256713" y="312.24351" style="stroke: #000000; stroke-width: 0.8"/>
      </g>
     </g>
     <g id="text_9">
      <!-- 2 -->
      <g transform="translate(106.075463 326.841947) scale(0.1 -0.1)">
       <use xlink:href="#DejaVuSans-32"/>
      </g>
     </g>
    </g>
    <g id="xtick_9">
     <g id="line2d_9">
      <g>
       <use xlink:href="#m11881b7674" x="182.110061" y="312.24351" style="stroke: #000000; stroke-width: 0.8"/>
      </g>
     </g>
     <g id="text_10">
      <!-- 4 -->
      <g transform="translate(178.928811 326.841947) scale(0.1 -0.1)">
       <use xlink:href="#DejaVuSans-34"/>
      </g>
     </g>
    </g>
    <g id="xtick_10">
     <g id="line2d_10">
      <g>
       <use xlink:href="#m11881b7674" x="254.963408" y="312.24351" style="stroke: #000000; stroke-width: 0.8"/>
      </g>
     </g>
     <g id="text_11">
      <!-- 6 -->
      <g transform="translate(251.782158 326.841947) scale(0.1 -0.1)">
       <defs>
        <path id="DejaVuSans-36" d="M 2113 2584 
Q 1688 2584 1439 2293 
Q 1191 2003 1191 1497 
Q 1191 994 1439 701 
Q 1688 409 2113 409 
Q 2538 409 2786 701 
Q 3034 994 3034 1497 
Q 3034 2003 2786 2293 
Q 2538 2584 2113 2584 
z
M 3366 4563 
L 3366 3988 
Q 3128 4100 2886 4159 
Q 2644 4219 2406 4219 
Q 1781 4219 1451 3797 
Q 1122 3375 1075 2522 
Q 1259 2794 1537 2939 
Q 1816 3084 2150 3084 
Q 2853 3084 3261 2657 
Q 3669 2231 3669 1497 
Q 3669 778 3244 343 
Q 2819 -91 2113 -91 
Q 1303 -91 875 529 
Q 447 1150 447 2328 
Q 447 3434 972 4092 
Q 1497 4750 2381 4750 
Q 2619 4750 2861 4703 
Q 3103 4656 3366 4563 
z
" transform="scale(0.015625)"/>
       </defs>
       <use xlink:href="#DejaVuSans-36"/>
      </g>
     </g>
    </g>
    <g id="xtick_11">
     <g id="line2d_11">
      <g>
       <use xlink:href="#m11881b7674" x="327.816756" y="312.24351" style="stroke: #000000; stroke-width: 0.8"/>
      </g>
     </g>
     <g id="text_12">
      <!-- 8 -->
      <g transform="translate(324.635506 326.841947) scale(0.1 -0.1)">
       <defs>
        <path id="DejaVuSans-38" d="M 2034 2216 
Q 1584 2216 1326 1975 
Q 1069 1734 1069 1313 
Q 1069 891 1326 650 
Q 1584 409 2034 409 
Q 2484 409 2743 651 
Q 3003 894 3003 1313 
Q 3003 1734 2745 1975 
Q 2488 2216 2034 2216 
z
M 1403 2484 
Q 997 2584 770 2862 
Q 544 3141 544 3541 
Q 544 4100 942 4425 
Q 1341 4750 2034 4750 
Q 2731 4750 3128 4425 
Q 3525 4100 3525 3541 
Q 3525 3141 3298 2862 
Q 3072 2584 2669 2484 
Q 3125 2378 3379 2068 
Q 3634 1759 3634 1313 
Q 3634 634 3220 271 
Q 2806 -91 2034 -91 
Q 1263 -91 848 271 
Q 434 634 434 1313 
Q 434 1759 690 2068 
Q 947 2378 1403 2484 
z
M 1172 3481 
Q 1172 3119 1398 2916 
Q 1625 2713 2034 2713 
Q 2441 2713 2670 2916 
Q 2900 3119 2900 3481 
Q 2900 3844 2670 4047 
Q 2441 4250 2034 4250 
Q 1625 4250 1398 4047 
Q 1172 3844 1172 3481 
z
" transform="scale(0.015625)"/>
       </defs>
       <use xlink:href="#DejaVuSans-38"/>
      </g>
     </g>
    </g>
    <g id="xtick_12">
     <g id="line2d_12">
      <g>
       <use xlink:href="#m11881b7674" x="400.670104" y="312.24351" style="stroke: #000000; stroke-width: 0.8"/>
      </g>
     </g>
     <g id="text_13">
      <!-- 10 -->
      <g transform="translate(394.307604 326.841947) scale(0.1 -0.1)">
       <use xlink:href="#DejaVuSans-31"/>
       <use xlink:href="#DejaVuSans-30" x="63.623047"/>
      </g>
     </g>
    </g>
    <g id="text_14">
     <!-- Frequency (THz) -->
     <g transform="translate(206.342969 340.520072) scale(0.1 -0.1)">
      <defs>
       <path id="DejaVuSans-46" d="M 628 4666 
L 3309 4666 
L 3309 4134 
L 1259 4134 
L 1259 2759 
L 3109 2759 
L 3109 2228 
L 1259 2228 
L 1259 0 
L 628 0 
L 628 4666 
z
" transform="scale(0.015625)"/>
       <path id="DejaVuSans-72" d="M 2631 2963 
Q 2534 3019 2420 3045 
Q 2306 3072 2169 3072 
Q 1681 3072 1420 2755 
Q 1159 2438 1159 1844 
L 1159 0 
L 581 0 
L 581 3500 
L 1159 3500 
L 1159 2956 
Q 1341 3275 1631 3429 
Q 1922 3584 2338 3584 
Q 2397 3584 2469 3576 
Q 2541 3569 2628 3553 
L 2631 2963 
z
" transform="scale(0.015625)"/>
       <path id="DejaVuSans-65" d="M 3597 1894 
L 3597 1613 
L 953 1613 
Q 991 1019 1311 708 
Q 1631 397 2203 397 
Q 2534 397 2845 478 
Q 3156 559 3463 722 
L 3463 178 
Q 3153 47 2828 -22 
Q 2503 -91 2169 -91 
Q 1331 -91 842 396 
Q 353 884 353 1716 
Q 353 2575 817 3079 
Q 1281 3584 2069 3584 
Q 2775 3584 3186 3129 
Q 3597 2675 3597 1894 
z
M 3022 2063 
Q 3016 2534 2758 2815 
Q 2500 3097 2075 3097 
Q 1594 3097 1305 2825 
Q 1016 2553 972 2059 
L 3022 2063 
z
" transform="scale(0.015625)"/>
       <path id="DejaVuSans-71" d="M 947 1747 
Q 947 1113 1208 752 
Q 1469 391 1925 391 
Q 2381 391 2643 752 
Q 2906 1113 2906 1747 
Q 2906 2381 2643 2742 
Q 2381 3103 1925 3103 
Q 1469 3103 1208 2742 
Q 947 2381 947 1747 
z
M 2906 525 
Q 2725 213 2448 61 
Q 2172 -91 1784 -91 
Q 1150 -91 751 415 
Q 353 922 353 1747 
Q 353 2572 751 3078 
Q 1150 3584 1784 3584 
Q 2172 3584 2448 3432 
Q 2725 3281 2906 2969 
L 2906 3500 
L 3481 3500 
L 3481 -1331 
L 2906 -1331 
L 2906 525 
z
" transform="scale(0.015625)"/>
       <path id="DejaVuSans-75" d="M 544 1381 
L 544 3500 
L 1119 3500 
L 1119 1403 
Q 1119 906 1312 657 
Q 1506 409 1894 409 
Q 2359 409 2629 706 
Q 2900 1003 2900 1516 
L 2900 3500 
L 3475 3500 
L 3475 0 
L 2900 0 
L 2900 538 
Q 2691 219 2414 64 
Q 2138 -91 1772 -91 
Q 1169 -91 856 284 
Q 544 659 544 1381 
z
M 1991 3584 
L 1991 3584 
z
" transform="scale(0.015625)"/>
       <path id="DejaVuSans-6e" d="M 3513 2113 
L 3513 0 
L 2938 0 
L 2938 2094 
Q 2938 2591 2744 2837 
Q 2550 3084 2163 3084 
Q 1697 3084 1428 2787 
Q 1159 2491 1159 1978 
L 1159 0 
L 581 0 
L 581 3500 
L 1159 3500 
L 1159 2956 
Q 1366 3272 1645 3428 
Q 1925 3584 2291 3584 
Q 2894 3584 3203 3211 
Q 3513 2838 3513 2113 
z
" transform="scale(0.015625)"/>
       <path id="DejaVuSans-63" d="M 3122 3366 
L 3122 2828 
Q 2878 2963 2633 3030 
Q 2388 3097 2138 3097 
Q 1578 3097 1268 2742 
Q 959 2388 959 1747 
Q 959 1106 1268 751 
Q 1578 397 2138 397 
Q 2388 397 2633 464 
Q 2878 531 3122 666 
L 3122 134 
Q 2881 22 2623 -34 
Q 2366 -91 2075 -91 
Q 1284 -91 818 406 
Q 353 903 353 1747 
Q 353 2603 823 3093 
Q 1294 3584 2113 3584 
Q 2378 3584 2631 3529 
Q 2884 3475 3122 3366 
z
" transform="scale(0.015625)"/>
       <path id="DejaVuSans-79" d="M 2059 -325 
Q 1816 -950 1584 -1140 
Q 1353 -1331 966 -1331 
L 506 -1331 
L 506 -850 
L 844 -850 
Q 1081 -850 1212 -737 
Q 1344 -625 1503 -206 
L 1606 56 
L 191 3500 
L 800 3500 
L 1894 763 
L 2988 3500 
L 3597 3500 
L 2059 -325 
z
" transform="scale(0.015625)"/>
       <path id="DejaVuSans-54" d="M -19 4666 
L 3928 4666 
L 3928 4134 
L 2272 4134 
L 2272 0 
L 1638 0 
L 1638 4134 
L -19 4134 
L -19 4666 
z
" transform="scale(0.015625)"/>
       <path id="DejaVuSans-48" d="M 628 4666 
L 1259 4666 
L 1259 2753 
L 3553 2753 
L 3553 4666 
L 4184 4666 
L 4184 0 
L 3553 0 
L 3553 2222 
L 1259 2222 
L 1259 0 
L 628 0 
L 628 4666 
z
" transform="scale(0.015625)"/>
       <path id="DejaVuSans-7a" d="M 353 3500 
L 3084 3500 
L 3084 2975 
L 922 459 
L 3084 459 
L 3084 0 
L 275 0 
L 275 525 
L 2438 3041 
L 353 3041 
L 353 3500 
z
" transform="scale(0.015625)"/>
      </defs>
      <use xlink:href="#DejaVuSans-46"/>
      <use xlink:href="#DejaVuSans-72" x="50.269531"/>
      <use xlink:href="#DejaVuSans-65" x="89.132812"/>
      <use xlink:href="#DejaVuSans-71" x="150.65625"/>
      <use xlink:href="#DejaVuSans-75" x="214.132812"/>
      <use xlink:href="#DejaVuSans-65" x="277.511719"/>
      <use xlink:href="#DejaVuSans-6e" x="339.035156"/>
      <use xlink:href="#DejaVuSans-63" x="402.414062"/>
      <use xlink:href="#DejaVuSans-79" x="457.394531"/>
      <use xlink:href="#DejaVuSans-20" x="516.574219"/>
      <use xlink:href="#DejaVuSans-28" x="548.361328"/>
      <use xlink:href="#DejaVuSans-54" x="587.375"/>
      <use xlink:href="#DejaVuSans-48" x="648.458984"/>
      <use xlink:href="#DejaVuSans-7a" x="723.654297"/>
      <use xlink:href="#DejaVuSans-29" x="776.144531"/>
     </g>
    </g>
   </g>
   <g id="matplotlib.axis_4">
    <g id="ytick_1">
     <g id="line2d_13">
      <defs>
       <path id="mb4dc7fe21f" d="M 0 0 
L -3.5 0 
" style="stroke: #000000; stroke-width: 0.8"/>
      </defs>
      <g>
       <use xlink:href="#mb4dc7fe21f" x="36.403365" y="312.24351" style="stroke: #000000; stroke-width: 0.8"/>
      </g>
     </g>
     <g id="text_15">
      <!-- 0 -->
      <g transform="translate(23.040865 316.042729) scale(0.1 -0.1)">
       <use xlink:href="#DejaVuSans-30"/>
      </g>
     </g>
    </g>
    <g id="ytick_2">
     <g id="line2d_14">
      <g>
       <use xlink:href="#mb4dc7fe21f" x="36.403365" y="274.021008" style="stroke: #000000; stroke-width: 0.8"/>
      </g>
     </g>
     <g id="text_16">
      <!-- 2 -->
      <g transform="translate(23.040865 277.820227) scale(0.1 -0.1)">
       <use xlink:href="#DejaVuSans-32"/>
      </g>
     </g>
    </g>
    <g id="ytick_3">
     <g id="line2d_15">
      <g>
       <use xlink:href="#mb4dc7fe21f" x="36.403365" y="235.798506" style="stroke: #000000; stroke-width: 0.8"/>
      </g>
     </g>
     <g id="text_17">
      <!-- 4 -->
      <g transform="translate(23.040865 239.597725) scale(0.1 -0.1)">
       <use xlink:href="#DejaVuSans-34"/>
      </g>
     </g>
    </g>
    <g id="ytick_4">
     <g id="line2d_16">
      <g>
       <use xlink:href="#mb4dc7fe21f" x="36.403365" y="197.576004" style="stroke: #000000; stroke-width: 0.8"/>
      </g>
     </g>
     <g id="text_18">
      <!-- 6 -->
      <g transform="translate(23.040865 201.375223) scale(0.1 -0.1)">
       <use xlink:href="#DejaVuSans-36"/>
      </g>
     </g>
    </g>
    <g id="ytick_5">
     <g id="line2d_17">
      <g>
       <use xlink:href="#mb4dc7fe21f" x="36.403365" y="159.353502" style="stroke: #000000; stroke-width: 0.8"/>
      </g>
     </g>
     <g id="text_19">
      <!-- 8 -->
      <g transform="translate(23.040865 163.152721) scale(0.1 -0.1)">
       <use xlink:href="#DejaVuSans-38"/>
      </g>
     </g>
    </g>
    <g id="ytick_6">
     <g id="line2d_18">
      <g>
       <use xlink:href="#mb4dc7fe21f" x="36.403365" y="121.131" style="stroke: #000000; stroke-width: 0.8"/>
      </g>
     </g>
     <g id="text_20">
      <!-- 10 -->
      <g transform="translate(16.678365 124.930219) scale(0.1 -0.1)">
       <use xlink:href="#DejaVuSans-31"/>
       <use xlink:href="#DejaVuSans-30" x="63.623047"/>
      </g>
     </g>
    </g>
    <g id="ytick_7">
     <g id="line2d_19">
      <g>
       <use xlink:href="#mb4dc7fe21f" x="36.403365" y="82.908498" style="stroke: #000000; stroke-width: 0.8"/>
      </g>
     </g>
     <g id="text_21">
      <!-- 12 -->
      <g transform="translate(16.678365 86.707717) scale(0.1 -0.1)">
       <use xlink:href="#DejaVuSans-31"/>
       <use xlink:href="#DejaVuSans-32" x="63.623047"/>
      </g>
     </g>
    </g>
    <g id="text_22">
     <!-- DOS (1/THz) -->
     <g transform="translate(10.598677 210.073906) rotate(-90) scale(0.1 -0.1)">
      <defs>
       <path id="DejaVuSans-44" d="M 1259 4147 
L 1259 519 
L 2022 519 
Q 2988 519 3436 956 
Q 3884 1394 3884 2338 
Q 3884 3275 3436 3711 
Q 2988 4147 2022 4147 
L 1259 4147 
z
M 628 4666 
L 1925 4666 
Q 3281 4666 3915 4102 
Q 4550 3538 4550 2338 
Q 4550 1131 3912 565 
Q 3275 0 1925 0 
L 628 0 
L 628 4666 
z
" transform="scale(0.015625)"/>
       <path id="DejaVuSans-4f" d="M 2522 4238 
Q 1834 4238 1429 3725 
Q 1025 3213 1025 2328 
Q 1025 1447 1429 934 
Q 1834 422 2522 422 
Q 3209 422 3611 934 
Q 4013 1447 4013 2328 
Q 4013 3213 3611 3725 
Q 3209 4238 2522 4238 
z
M 2522 4750 
Q 3503 4750 4090 4092 
Q 4678 3434 4678 2328 
Q 4678 1225 4090 567 
Q 3503 -91 2522 -91 
Q 1538 -91 948 565 
Q 359 1222 359 2328 
Q 359 3434 948 4092 
Q 1538 4750 2522 4750 
z
" transform="scale(0.015625)"/>
       <path id="DejaVuSans-53" d="M 3425 4513 
L 3425 3897 
Q 3066 4069 2747 4153 
Q 2428 4238 2131 4238 
Q 1616 4238 1336 4038 
Q 1056 3838 1056 3469 
Q 1056 3159 1242 3001 
Q 1428 2844 1947 2747 
L 2328 2669 
Q 3034 2534 3370 2195 
Q 3706 1856 3706 1288 
Q 3706 609 3251 259 
Q 2797 -91 1919 -91 
Q 1588 -91 1214 -16 
Q 841 59 441 206 
L 441 856 
Q 825 641 1194 531 
Q 1563 422 1919 422 
Q 2459 422 2753 634 
Q 3047 847 3047 1241 
Q 3047 1584 2836 1778 
Q 2625 1972 2144 2069 
L 1759 2144 
Q 1053 2284 737 2584 
Q 422 2884 422 3419 
Q 422 4038 858 4394 
Q 1294 4750 2059 4750 
Q 2388 4750 2728 4690 
Q 3069 4631 3425 4513 
z
" transform="scale(0.015625)"/>
       <path id="DejaVuSans-2f" d="M 1625 4666 
L 2156 4666 
L 531 -594 
L 0 -594 
L 1625 4666 
z
" transform="scale(0.015625)"/>
      </defs>
      <use xlink:href="#DejaVuSans-44"/>
      <use xlink:href="#DejaVuSans-4f" x="77.001953"/>
      <use xlink:href="#DejaVuSans-53" x="155.712891"/>
      <use xlink:href="#DejaVuSans-20" x="219.189453"/>
      <use xlink:href="#DejaVuSans-28" x="250.976562"/>
      <use xlink:href="#DejaVuSans-31" x="289.990234"/>
      <use xlink:href="#DejaVuSans-2f" x="353.613281"/>
      <use xlink:href="#DejaVuSans-54" x="387.304688"/>
      <use xlink:href="#DejaVuSans-48" x="448.388672"/>
      <use xlink:href="#DejaVuSans-7a" x="523.583984"/>
      <use xlink:href="#DejaVuSans-29" x="576.074219"/>
     </g>
    </g>
   </g>
   <g id="line2d_20">
    <path d="M 23.131131 312.24351 
L 37.619928 312.207769 
L 39.689757 312.005491 
L 43.829413 311.476944 
L 45.899241 310.810748 
L 47.969069 310.011841 
L 50.038898 309.580695 
L 52.108726 308.750674 
L 54.178554 307.748849 
L 56.248382 306.621537 
L 62.457867 302.696026 
L 66.597524 299.356525 
L 68.667352 297.471932 
L 70.73718 295.272916 
L 72.807008 292.85601 
L 74.876837 289.621396 
L 76.946665 287.039104 
L 79.016493 283.814164 
L 81.086321 279.812582 
L 83.156149 274.941171 
L 85.225978 269.143183 
L 87.295806 260.786787 
L 89.365634 249.206819 
L 91.435462 236.745633 
L 93.505291 227.306341 
L 95.575119 219.277848 
L 97.644947 209.984947 
L 99.714775 198.61161 
L 101.784604 183.179355 
L 103.854432 161.639586 
L 105.92426 141.615378 
L 107.994088 146.218333 
L 110.063917 166.33507 
L 112.133745 176.304062 
L 114.203573 172.036837 
L 116.273401 168.457638 
L 118.343229 169.463082 
L 120.413058 176.677801 
L 122.482886 185.38641 
L 124.552714 190.483543 
L 126.622542 196.275179 
L 128.692371 202.480583 
L 130.762199 202.709839 
L 132.832027 204.078564 
L 134.901855 211.897617 
L 136.971684 218.980334 
L 139.041512 220.470373 
L 141.11134 220.925915 
L 145.250997 229.83309 
L 147.320825 231.183256 
L 149.390653 234.736231 
L 151.460481 236.733186 
L 153.530309 239.57324 
L 155.600138 244.812839 
L 157.669966 247.620631 
L 159.739794 247.505407 
L 161.809622 239.731252 
L 163.879451 233.807003 
L 165.949279 240.217608 
L 168.019107 251.82787 
L 170.088935 266.638966 
L 172.158764 275.752679 
L 174.228592 276.126357 
L 178.368248 283.167747 
L 180.438077 284.502895 
L 182.507905 281.763954 
L 184.577733 274.840478 
L 186.647561 273.080062 
L 188.717389 274.267785 
L 190.787218 271.697594 
L 192.857046 263.636093 
L 194.926874 261.203593 
L 196.996702 264.070594 
L 199.066531 265.167631 
L 201.136359 267.707153 
L 203.206187 271.088767 
L 205.276015 272.42019 
L 207.345844 267.95757 
L 209.415672 262.405285 
L 211.4855 259.073083 
L 213.555328 254.322099 
L 215.625157 251.045609 
L 217.694985 250.153609 
L 219.764813 249.744486 
L 221.834641 248.263051 
L 223.904469 245.56641 
L 225.974298 243.718332 
L 228.044126 245.495119 
L 230.113954 247.804342 
L 232.183782 253.030493 
L 234.253611 258.747178 
L 236.323439 257.377517 
L 238.393267 252.452507 
L 240.463095 252.539784 
L 242.532924 264.029031 
L 244.602752 276.508326 
L 246.67258 282.518505 
L 248.742408 282.000314 
L 250.812237 277.525231 
L 252.882065 271.877475 
L 254.951893 262.538884 
L 257.021721 251.995832 
L 259.091549 249.567055 
L 261.161378 251.516951 
L 263.231206 255.97193 
L 265.301034 261.314794 
L 267.370862 264.275272 
L 269.440691 266.637279 
L 271.510519 266.986421 
L 273.580347 267.099849 
L 275.650175 267.455461 
L 277.720004 268.028578 
L 279.789832 265.251789 
L 281.85966 242.364854 
L 283.929488 185.430249 
L 285.999317 158.997023 
L 288.069145 170.166629 
L 290.138973 170.74769 
L 292.208801 176.455128 
L 294.278629 203.203081 
L 296.348458 219.039442 
L 298.418286 201.544324 
L 300.488114 198.78598 
L 302.557942 234.068398 
L 304.627771 251.53916 
L 306.697599 260.341285 
L 308.767427 256.811535 
L 310.837255 254.179494 
L 312.907084 255.793893 
L 314.976912 249.9035 
L 317.04674 237.710469 
L 319.116568 227.408019 
L 321.186397 232.316225 
L 323.256225 256.636403 
L 325.326053 277.800362 
L 327.395881 285.303762 
L 329.465709 281.770312 
L 331.535538 278.965096 
L 333.605366 277.717947 
L 335.675194 271.913016 
L 337.745022 265.694538 
L 339.814851 263.465828 
L 341.884679 264.498115 
L 343.954507 267.78095 
L 348.094164 265.980234 
L 350.163992 265.461024 
L 352.23382 253.029538 
L 354.303648 225.628982 
L 356.373477 200.394415 
L 358.443305 201.973304 
L 360.513133 208.31021 
L 362.582961 199.213176 
L 364.652789 218.107114 
L 366.722618 255.906154 
L 368.792446 255.614011 
L 370.862274 224.672286 
L 372.932102 199.164405 
L 375.001931 191.982305 
L 377.071759 186.343025 
L 379.141587 178.688405 
L 381.211415 169.62027 
L 383.281244 161.572806 
L 385.351072 128.856745 
L 387.4209 59.054384 
L 389.490728 62.31682 
L 391.560557 148.628573 
L 393.630385 228.808663 
L 395.700213 270.156462 
L 397.770041 288.859497 
L 399.839869 298.55203 
L 401.909698 305.550873 
L 403.979526 310.365011 
L 406.049354 312.021321 
L 408.119182 312.234315 
L 435.026949 312.24351 
L 437.096778 312.24351 
L 437.096778 312.24351 
" clip-path="url(#p20dfe84697)" style="fill: none; stroke: #000000; stroke-width: 1.5; stroke-linecap: square"/>
   </g>
   <g id="line2d_21">
    <path d="M 23.037132 312.24351 
L 37.52922 312.203805 
L 39.599518 311.979806 
L 41.669816 311.636821 
L 43.740114 311.41596 
L 45.810413 310.678083 
L 47.880711 309.808164 
L 49.951009 309.305684 
L 54.091605 307.385049 
L 56.161904 306.205236 
L 62.372798 301.951829 
L 64.443097 300.107652 
L 66.513395 298.050166 
L 68.583693 296.516515 
L 70.653991 293.751627 
L 74.794588 287.726148 
L 76.864886 284.181662 
L 78.935184 279.926651 
L 81.005482 275.225198 
L 83.075781 269.076727 
L 85.146079 259.900393 
L 87.216377 246.110943 
L 89.286675 233.790054 
L 93.427272 221.13334 
L 95.49757 208.501138 
L 97.567868 191.069509 
L 101.708465 150.161944 
L 103.778763 148.54934 
L 105.849061 163.53674 
L 107.919359 177.472208 
L 109.989658 183.526227 
L 112.059956 179.920248 
L 114.130254 174.434272 
L 116.200552 172.711968 
L 118.270851 179.794383 
L 120.341149 188.196847 
L 122.411447 193.160639 
L 124.481745 199.924255 
L 126.552043 209.546156 
L 128.622342 215.984452 
L 130.69264 213.240447 
L 132.762938 212.749411 
L 134.833236 220.027637 
L 136.903535 225.205905 
L 138.973833 223.991062 
L 141.044131 225.378956 
L 143.114429 231.994087 
L 145.184728 236.483264 
L 147.255026 236.76626 
L 149.325324 237.914611 
L 151.395622 242.585956 
L 153.46592 246.123852 
L 155.536219 246.885067 
L 157.606517 248.034371 
L 159.676815 248.948412 
L 161.747113 245.506814 
L 163.817412 242.421843 
L 165.88771 244.803335 
L 167.958008 253.651095 
L 170.028306 267.258745 
L 172.098604 282.275419 
L 174.168903 288.401794 
L 176.239201 289.765596 
L 178.309499 288.60119 
L 180.379797 283.740538 
L 182.450096 284.35731 
L 184.520394 286.771651 
L 186.590692 286.890679 
L 188.66099 284.67361 
L 190.731289 278.703809 
L 192.801587 274.993028 
L 194.871885 276.515572 
L 196.942183 276.508368 
L 199.012481 271.08934 
L 201.08278 263.19378 
L 203.153078 263.974227 
L 205.223376 267.944363 
L 207.293674 268.645978 
L 209.363973 271.108788 
L 211.434271 274.023176 
L 213.504569 274.405124 
L 217.645166 264.952862 
L 219.715464 264.336987 
L 221.785762 259.962764 
L 223.85606 255.240851 
L 227.996657 255.699721 
L 230.066955 256.816228 
L 232.137253 257.629721 
L 234.207551 252.179578 
L 236.27785 244.795332 
L 238.348148 245.244983 
L 242.488744 259.335877 
L 244.559042 264.010712 
L 246.629341 264.14734 
L 248.699639 261.98646 
L 250.769937 262.587086 
L 252.840235 269.29299 
L 254.910534 275.442062 
L 256.980832 279.087341 
L 259.05113 283.406876 
L 261.121428 284.516792 
L 263.191727 281.529667 
L 265.262025 276.934288 
L 267.332323 271.003484 
L 269.402621 260.2525 
L 271.472919 252.365406 
L 273.543218 251.196515 
L 275.613516 253.932668 
L 277.683814 260.891171 
L 279.754112 265.468098 
L 281.824411 268.298924 
L 283.894709 270.548782 
L 285.965007 270.425673 
L 288.035305 270.998588 
L 290.105604 271.213415 
L 294.2462 272.44555 
L 296.316498 271.130147 
L 298.386796 261.672205 
L 300.457095 218.665463 
L 302.527393 164.545049 
L 304.597691 161.146386 
L 306.667989 172.632379 
L 308.738288 177.194654 
L 310.808586 196.375732 
L 312.878884 218.500249 
L 314.949182 210.71931 
L 317.01948 194.941264 
L 319.089779 219.642866 
L 321.160077 248.257439 
L 323.230375 259.855778 
L 325.300673 262.744177 
L 327.370972 256.597473 
L 329.44127 258.048549 
L 331.511568 255.966579 
L 333.581866 247.071595 
L 335.652165 235.022264 
L 337.722463 230.353822 
L 339.792761 246.028863 
L 341.863059 267.083992 
L 343.933357 281.462197 
L 346.003656 286.432393 
L 348.073954 282.940158 
L 350.144252 280.893679 
L 352.21455 280.364931 
L 354.284849 275.506455 
L 356.355147 269.950521 
L 358.425445 267.633512 
L 360.495743 267.065206 
L 362.566041 269.768113 
L 364.63634 270.489675 
L 366.706638 267.927365 
L 368.776936 269.616929 
L 370.847234 266.042052 
L 372.917533 247.6914 
L 374.987831 217.923825 
L 377.058129 201.706764 
L 379.128427 212.155045 
L 381.198726 217.652322 
L 383.269024 205.879994 
L 385.339322 216.654849 
L 387.40962 244.808226 
L 389.479918 241.934456 
L 391.550217 215.656904 
L 393.620515 202.017568 
L 395.690813 198.751159 
L 397.761111 190.479523 
L 399.83141 183.100844 
L 401.901708 174.076148 
L 403.972006 164.041421 
L 406.042304 127.587451 
L 408.112603 64.575159 
L 410.182901 71.912038 
L 414.323497 229.47816 
L 416.393795 270.716004 
L 418.464094 288.997811 
L 420.534392 298.039614 
L 422.60469 304.450879 
L 424.674988 309.527713 
L 426.745287 311.811821 
L 428.815585 312.218393 
L 437.096778 312.24351 
L 437.096778 312.24351 
" clip-path="url(#p20dfe84697)" style="fill: none; stroke-dasharray: 5.55,2.4; stroke-dashoffset: 0; stroke: #000000; stroke-width: 1.5"/>
   </g>
   <g id="patch_5">
    <path d="M 36.403365 312.24351 
L 36.403365 46.394928 
" style="fill: none; stroke: #000000; stroke-width: 0.8; stroke-linejoin: miter; stroke-linecap: square"/>
   </g>
   <g id="patch_6">
    <path d="M 457.79976 312.24351 
L 457.79976 46.394928 
" style="fill: none; stroke: #000000; stroke-width: 0.8; stroke-linejoin: miter; stroke-linecap: square"/>
   </g>
   <g id="patch_7">
    <path d="M 36.403365 312.24351 
L 457.79976 312.24351 
" style="fill: none; stroke: #000000; stroke-width: 0.8; stroke-linejoin: miter; stroke-linecap: square"/>
   </g>
   <g id="patch_8">
    <path d="M 36.403365 46.394928 
L 457.79976 46.394928 
" style="fill: none; stroke: #000000; stroke-width: 0.8; stroke-linejoin: miter; stroke-linecap: square"/>
   </g>
   <g id="text_23">
    <!-- $\mathrm{D_2O}$ Ih -->
    <g transform="translate(227.361562 12.118365) scale(0.12 -0.12)">
     <defs>
      <path id="DejaVuSans-49" d="M 628 4666 
L 1259 4666 
L 1259 0 
L 628 0 
L 628 4666 
z
" transform="scale(0.015625)"/>
      <path id="DejaVuSans-68" d="M 3513 2113 
L 3513 0 
L 2938 0 
L 2938 2094 
Q 2938 2591 2744 2837 
Q 2550 3084 2163 3084 
Q 1697 3084 1428 2787 
Q 1159 2491 1159 1978 
L 1159 0 
L 581 0 
L 581 4863 
L 1159 4863 
L 1159 2956 
Q 1366 3272 1645 3428 
Q 1925 3584 2291 3584 
Q 2894 3584 3203 3211 
Q 3513 2838 3513 2113 
z
" transform="scale(0.015625)"/>
     </defs>
     <use xlink:href="#DejaVuSans-44" transform="translate(0 0.015625)"/>
     <use xlink:href="#DejaVuSans-32" transform="translate(77.958984 -16.390625) scale(0.7)"/>
     <use xlink:href="#DejaVuSans-4f" transform="translate(125.229492 0.015625)"/>
     <use xlink:href="#DejaVuSans-20" transform="translate(203.94043 0.015625)"/>
     <use xlink:href="#DejaVuSans-49" transform="translate(235.727539 0.015625)"/>
     <use xlink:href="#DejaVuSans-68" transform="translate(265.219727 0.015625)"/>
    </g>
   </g>
   <g id="legend_1">
    <g id="patch_9">
     <path d="M 43.403365 83.751178 
L 177.728365 83.751178 
Q 179.728365 83.751178 179.728365 81.751178 
L 179.728365 53.394928 
Q 179.728365 51.394928 177.728365 51.394928 
L 43.403365 51.394928 
Q 41.403365 51.394928 41.403365 53.394928 
L 41.403365 81.751178 
Q 41.403365 83.751178 43.403365 83.751178 
z
" style="fill: #ffffff; opacity: 0.8; stroke: #cccccc; stroke-linejoin: miter"/>
    </g>
    <g id="line2d_22">
     <path d="M 45.403365 59.493365 
L 55.403365 59.493365 
L 65.403365 59.493365 
" style="fill: none; stroke: #000000; stroke-width: 1.5; stroke-linecap: square"/>
    </g>
    <g id="text_24">
     <!-- Pressure = 0.05 GPa -->
     <g transform="translate(73.403365 62.993365) scale(0.1 -0.1)">
      <defs>
       <path id="DejaVuSans-50" d="M 1259 4147 
L 1259 2394 
L 2053 2394 
Q 2494 2394 2734 2622 
Q 2975 2850 2975 3272 
Q 2975 3691 2734 3919 
Q 2494 4147 2053 4147 
L 1259 4147 
z
M 628 4666 
L 2053 4666 
Q 2838 4666 3239 4311 
Q 3641 3956 3641 3272 
Q 3641 2581 3239 2228 
Q 2838 1875 2053 1875 
L 1259 1875 
L 1259 0 
L 628 0 
L 628 4666 
z
" transform="scale(0.015625)"/>
       <path id="DejaVuSans-73" d="M 2834 3397 
L 2834 2853 
Q 2591 2978 2328 3040 
Q 2066 3103 1784 3103 
Q 1356 3103 1142 2972 
Q 928 2841 928 2578 
Q 928 2378 1081 2264 
Q 1234 2150 1697 2047 
L 1894 2003 
Q 2506 1872 2764 1633 
Q 3022 1394 3022 966 
Q 3022 478 2636 193 
Q 2250 -91 1575 -91 
Q 1294 -91 989 -36 
Q 684 19 347 128 
L 347 722 
Q 666 556 975 473 
Q 1284 391 1588 391 
Q 1994 391 2212 530 
Q 2431 669 2431 922 
Q 2431 1156 2273 1281 
Q 2116 1406 1581 1522 
L 1381 1569 
Q 847 1681 609 1914 
Q 372 2147 372 2553 
Q 372 3047 722 3315 
Q 1072 3584 1716 3584 
Q 2034 3584 2315 3537 
Q 2597 3491 2834 3397 
z
" transform="scale(0.015625)"/>
       <path id="DejaVuSans-3d" d="M 678 2906 
L 4684 2906 
L 4684 2381 
L 678 2381 
L 678 2906 
z
M 678 1631 
L 4684 1631 
L 4684 1100 
L 678 1100 
L 678 1631 
z
" transform="scale(0.015625)"/>
       <path id="DejaVuSans-2e" d="M 684 794 
L 1344 794 
L 1344 0 
L 684 0 
L 684 794 
z
" transform="scale(0.015625)"/>
       <path id="DejaVuSans-47" d="M 3809 666 
L 3809 1919 
L 2778 1919 
L 2778 2438 
L 4434 2438 
L 4434 434 
Q 4069 175 3628 42 
Q 3188 -91 2688 -91 
Q 1594 -91 976 548 
Q 359 1188 359 2328 
Q 359 3472 976 4111 
Q 1594 4750 2688 4750 
Q 3144 4750 3555 4637 
Q 3966 4525 4313 4306 
L 4313 3634 
Q 3963 3931 3569 4081 
Q 3175 4231 2741 4231 
Q 1884 4231 1454 3753 
Q 1025 3275 1025 2328 
Q 1025 1384 1454 906 
Q 1884 428 2741 428 
Q 3075 428 3337 486 
Q 3600 544 3809 666 
z
" transform="scale(0.015625)"/>
       <path id="DejaVuSans-61" d="M 2194 1759 
Q 1497 1759 1228 1600 
Q 959 1441 959 1056 
Q 959 750 1161 570 
Q 1363 391 1709 391 
Q 2188 391 2477 730 
Q 2766 1069 2766 1631 
L 2766 1759 
L 2194 1759 
z
M 3341 1997 
L 3341 0 
L 2766 0 
L 2766 531 
Q 2569 213 2275 61 
Q 1981 -91 1556 -91 
Q 1019 -91 701 211 
Q 384 513 384 1019 
Q 384 1609 779 1909 
Q 1175 2209 1959 2209 
L 2766 2209 
L 2766 2266 
Q 2766 2663 2505 2880 
Q 2244 3097 1772 3097 
Q 1472 3097 1187 3025 
Q 903 2953 641 2809 
L 641 3341 
Q 956 3463 1253 3523 
Q 1550 3584 1831 3584 
Q 2591 3584 2966 3190 
Q 3341 2797 3341 1997 
z
" transform="scale(0.015625)"/>
      </defs>
      <use xlink:href="#DejaVuSans-50"/>
      <use xlink:href="#DejaVuSans-72" x="58.552734"/>
      <use xlink:href="#DejaVuSans-65" x="97.416016"/>
      <use xlink:href="#DejaVuSans-73" x="158.939453"/>
      <use xlink:href="#DejaVuSans-73" x="211.039062"/>
      <use xlink:href="#DejaVuSans-75" x="263.138672"/>
      <use xlink:href="#DejaVuSans-72" x="326.517578"/>
      <use xlink:href="#DejaVuSans-65" x="365.380859"/>
      <use xlink:href="#DejaVuSans-20" x="426.904297"/>
      <use xlink:href="#DejaVuSans-3d" x="458.691406"/>
      <use xlink:href="#DejaVuSans-20" x="542.480469"/>
      <use xlink:href="#DejaVuSans-30" x="574.267578"/>
      <use xlink:href="#DejaVuSans-2e" x="637.890625"/>
      <use xlink:href="#DejaVuSans-30" x="669.677734"/>
      <use xlink:href="#DejaVuSans-35" x="733.300781"/>
      <use xlink:href="#DejaVuSans-20" x="796.923828"/>
      <use xlink:href="#DejaVuSans-47" x="828.710938"/>
      <use xlink:href="#DejaVuSans-50" x="906.201172"/>
      <use xlink:href="#DejaVuSans-61" x="962.003906"/>
     </g>
    </g>
    <g id="line2d_23">
     <path d="M 45.403365 74.17149 
L 55.403365 74.17149 
L 65.403365 74.17149 
" style="fill: none; stroke-dasharray: 5.55,2.4; stroke-dashoffset: 0; stroke: #000000; stroke-width: 1.5"/>
    </g>
    <g id="text_25">
     <!-- Pressure = 0.5 GPa -->
     <g transform="translate(73.403365 77.67149) scale(0.1 -0.1)">
      <use xlink:href="#DejaVuSans-50"/>
      <use xlink:href="#DejaVuSans-72" x="58.552734"/>
      <use xlink:href="#DejaVuSans-65" x="97.416016"/>
      <use xlink:href="#DejaVuSans-73" x="158.939453"/>
      <use xlink:href="#DejaVuSans-73" x="211.039062"/>
      <use xlink:href="#DejaVuSans-75" x="263.138672"/>
      <use xlink:href="#DejaVuSans-72" x="326.517578"/>
      <use xlink:href="#DejaVuSans-65" x="365.380859"/>
      <use xlink:href="#DejaVuSans-20" x="426.904297"/>
      <use xlink:href="#DejaVuSans-3d" x="458.691406"/>
      <use xlink:href="#DejaVuSans-20" x="542.480469"/>
      <use xlink:href="#DejaVuSans-30" x="574.267578"/>
      <use xlink:href="#DejaVuSans-2e" x="637.890625"/>
      <use xlink:href="#DejaVuSans-35" x="669.677734"/>
      <use xlink:href="#DejaVuSans-20" x="733.300781"/>
      <use xlink:href="#DejaVuSans-47" x="765.087891"/>
      <use xlink:href="#DejaVuSans-50" x="842.578125"/>
      <use xlink:href="#DejaVuSans-61" x="898.380859"/>
     </g>
    </g>
   </g>
  </g>
 </g>
 <defs>
  <clipPath id="p20dfe84697">
   <rect x="36.403365" y="46.394928" width="421.396395" height="265.848582"/>
  </clipPath>
 </defs>
</svg>
