<?xml version="1.0" encoding="utf-8" standalone="no"?>
<!DOCTYPE svg PUBLIC "-//W3C//DTD SVG 1.1//EN"
  "http://www.w3.org/Graphics/SVG/1.1/DTD/svg11.dtd">
<svg xmlns:xlink="http://www.w3.org/1999/xlink" width="460.8pt" height="345.6pt" viewBox="0 0 460.8 345.6" xmlns="http://www.w3.org/2000/svg" version="1.1">
 <metadata>
  <rdf:RDF xmlns:dc="http://purl.org/dc/elements/1.1/" xmlns:cc="http://creativecommons.org/ns#" xmlns:rdf="http://www.w3.org/1999/02/22-rdf-syntax-ns#">
   <cc:Work>
    <dc:type rdf:resource="http://purl.org/dc/dcmitype/StillImage"/>
    <dc:date>2024-08-07T18:50:30.746509</dc:date>
    <dc:format>image/svg+xml</dc:format>
    <dc:creator>
     <cc:Agent>
      <dc:title>Matplotlib v3.9.1.post1, https://matplotlib.org/</dc:title>
     </cc:Agent>
    </dc:creator>
   </cc:Work>
  </rdf:RDF>
 </metadata>
 <defs>
  <style type="text/css">*{stroke-linejoin: round; stroke-linecap: butt}</style>
 </defs>
 <g id="figure_1">
  <g id="patch_1">
   <path d="M 0 345.6 
L 460.8 345.6 
L 460.8 0 
L 0 0 
z
" style="fill: #ffffff"/>
  </g>
  <g id="axes_1">
   <g id="patch_2">
    <path d="M 57.6 307.584 
L 414.72 307.584 
L 414.72 41.472 
L 57.6 41.472 
z
" style="fill: #ffffff"/>
   </g>
   <g id="matplotlib.axis_1">
    <g id="xtick_1">
     <g id="line2d_1">
      <defs>
       <path id="mf3e5b4a718" d="M 0 0 
L 0 3.5 
" style="stroke: #000000; stroke-width: 0.8"/>
      </defs>
      <g>
       <use xlink:href="#mf3e5b4a718" x="73.832727" y="307.584" style="stroke: #000000; stroke-width: 0.8"/>
      </g>
     </g>
     <g id="text_1">
      <!-- 0.0 -->
      <g transform="translate(65.881165 322.182437) scale(0.1 -0.1)">
       <defs>
        <path id="DejaVuSans-30" d="M 2034 4250 
Q 1547 4250 1301 3770 
Q 1056 3291 1056 2328 
Q 1056 1369 1301 889 
Q 1547 409 2034 409 
Q 2525 409 2770 889 
Q 3016 1369 3016 2328 
Q 3016 3291 2770 3770 
Q 2525 4250 2034 4250 
z
M 2034 4750 
Q 2819 4750 3233 4129 
Q 3647 3509 3647 2328 
Q 3647 1150 3233 529 
Q 2819 -91 2034 -91 
Q 1250 -91 836 529 
Q 422 1150 422 2328 
Q 422 3509 836 4129 
Q 1250 4750 2034 4750 
z
" transform="scale(0.015625)"/>
        <path id="DejaVuSans-2e" d="M 684 794 
L 1344 794 
L 1344 0 
L 684 0 
L 684 794 
z
" transform="scale(0.015625)"/>
       </defs>
       <use xlink:href="#DejaVuSans-30"/>
       <use xlink:href="#DejaVuSans-2e" x="63.623047"/>
       <use xlink:href="#DejaVuSans-30" x="95.410156"/>
      </g>
     </g>
    </g>
    <g id="xtick_2">
     <g id="line2d_2">
      <g>
       <use xlink:href="#mf3e5b4a718" x="140.008494" y="307.584" style="stroke: #000000; stroke-width: 0.8"/>
      </g>
     </g>
     <g id="text_2">
      <!-- 0.1 -->
      <g transform="translate(132.056931 322.182437) scale(0.1 -0.1)">
       <defs>
        <path id="DejaVuSans-31" d="M 794 531 
L 1825 531 
L 1825 4091 
L 703 3866 
L 703 4441 
L 1819 4666 
L 2450 4666 
L 2450 531 
L 3481 531 
L 3481 0 
L 794 0 
L 794 531 
z
" transform="scale(0.015625)"/>
       </defs>
       <use xlink:href="#DejaVuSans-30"/>
       <use xlink:href="#DejaVuSans-2e" x="63.623047"/>
       <use xlink:href="#DejaVuSans-31" x="95.410156"/>
      </g>
     </g>
    </g>
    <g id="xtick_3">
     <g id="line2d_3">
      <g>
       <use xlink:href="#mf3e5b4a718" x="206.18426" y="307.584" style="stroke: #000000; stroke-width: 0.8"/>
      </g>
     </g>
     <g id="text_3">
      <!-- 0.2 -->
      <g transform="translate(198.232698 322.182437) scale(0.1 -0.1)">
       <defs>
        <path id="DejaVuSans-32" d="M 1228 531 
L 3431 531 
L 3431 0 
L 469 0 
L 469 531 
Q 828 903 1448 1529 
Q 2069 2156 2228 2338 
Q 2531 2678 2651 2914 
Q 2772 3150 2772 3378 
Q 2772 3750 2511 3984 
Q 2250 4219 1831 4219 
Q 1534 4219 1204 4116 
Q 875 4013 500 3803 
L 500 4441 
Q 881 4594 1212 4672 
Q 1544 4750 1819 4750 
Q 2544 4750 2975 4387 
Q 3406 4025 3406 3419 
Q 3406 3131 3298 2873 
Q 3191 2616 2906 2266 
Q 2828 2175 2409 1742 
Q 1991 1309 1228 531 
z
" transform="scale(0.015625)"/>
       </defs>
       <use xlink:href="#DejaVuSans-30"/>
       <use xlink:href="#DejaVuSans-2e" x="63.623047"/>
       <use xlink:href="#DejaVuSans-32" x="95.410156"/>
      </g>
     </g>
    </g>
    <g id="xtick_4">
     <g id="line2d_4">
      <g>
       <use xlink:href="#mf3e5b4a718" x="272.360027" y="307.584" style="stroke: #000000; stroke-width: 0.8"/>
      </g>
     </g>
     <g id="text_4">
      <!-- 0.3 -->
      <g transform="translate(264.408465 322.182437) scale(0.1 -0.1)">
       <defs>
        <path id="DejaVuSans-33" d="M 2597 2516 
Q 3050 2419 3304 2112 
Q 3559 1806 3559 1356 
Q 3559 666 3084 287 
Q 2609 -91 1734 -91 
Q 1441 -91 1130 -33 
Q 819 25 488 141 
L 488 750 
Q 750 597 1062 519 
Q 1375 441 1716 441 
Q 2309 441 2620 675 
Q 2931 909 2931 1356 
Q 2931 1769 2642 2001 
Q 2353 2234 1838 2234 
L 1294 2234 
L 1294 2753 
L 1863 2753 
Q 2328 2753 2575 2939 
Q 2822 3125 2822 3475 
Q 2822 3834 2567 4026 
Q 2313 4219 1838 4219 
Q 1578 4219 1281 4162 
Q 984 4106 628 3988 
L 628 4550 
Q 988 4650 1302 4700 
Q 1616 4750 1894 4750 
Q 2613 4750 3031 4423 
Q 3450 4097 3450 3541 
Q 3450 3153 3228 2886 
Q 3006 2619 2597 2516 
z
" transform="scale(0.015625)"/>
       </defs>
       <use xlink:href="#DejaVuSans-30"/>
       <use xlink:href="#DejaVuSans-2e" x="63.623047"/>
       <use xlink:href="#DejaVuSans-33" x="95.410156"/>
      </g>
     </g>
    </g>
    <g id="xtick_5">
     <g id="line2d_5">
      <g>
       <use xlink:href="#mf3e5b4a718" x="338.535794" y="307.584" style="stroke: #000000; stroke-width: 0.8"/>
      </g>
     </g>
     <g id="text_5">
      <!-- 0.4 -->
      <g transform="translate(330.584231 322.182437) scale(0.1 -0.1)">
       <defs>
        <path id="DejaVuSans-34" d="M 2419 4116 
L 825 1625 
L 2419 1625 
L 2419 4116 
z
M 2253 4666 
L 3047 4666 
L 3047 1625 
L 3713 1625 
L 3713 1100 
L 3047 1100 
L 3047 0 
L 2419 0 
L 2419 1100 
L 313 1100 
L 313 1709 
L 2253 4666 
z
" transform="scale(0.015625)"/>
       </defs>
       <use xlink:href="#DejaVuSans-30"/>
       <use xlink:href="#DejaVuSans-2e" x="63.623047"/>
       <use xlink:href="#DejaVuSans-34" x="95.410156"/>
      </g>
     </g>
    </g>
    <g id="xtick_6">
     <g id="line2d_6">
      <g>
       <use xlink:href="#mf3e5b4a718" x="404.71156" y="307.584" style="stroke: #000000; stroke-width: 0.8"/>
      </g>
     </g>
     <g id="text_6">
      <!-- 0.5 -->
      <g transform="translate(396.759998 322.182437) scale(0.1 -0.1)">
       <defs>
        <path id="DejaVuSans-35" d="M 691 4666 
L 3169 4666 
L 3169 4134 
L 1269 4134 
L 1269 2991 
Q 1406 3038 1543 3061 
Q 1681 3084 1819 3084 
Q 2600 3084 3056 2656 
Q 3513 2228 3513 1497 
Q 3513 744 3044 326 
Q 2575 -91 1722 -91 
Q 1428 -91 1123 -41 
Q 819 9 494 109 
L 494 744 
Q 775 591 1075 516 
Q 1375 441 1709 441 
Q 2250 441 2565 725 
Q 2881 1009 2881 1497 
Q 2881 1984 2565 2268 
Q 2250 2553 1709 2553 
Q 1456 2553 1204 2497 
Q 953 2441 691 2322 
L 691 4666 
z
" transform="scale(0.015625)"/>
       </defs>
       <use xlink:href="#DejaVuSans-30"/>
       <use xlink:href="#DejaVuSans-2e" x="63.623047"/>
       <use xlink:href="#DejaVuSans-35" x="95.410156"/>
      </g>
     </g>
    </g>
   </g>
   <g id="matplotlib.axis_2">
    <g id="ytick_1">
     <g id="line2d_7">
      <defs>
       <path id="m1562738137" d="M 0 0 
L -3.5 0 
" style="stroke: #000000; stroke-width: 0.8"/>
      </defs>
      <g>
       <use xlink:href="#m1562738137" x="57.6" y="297.348923" style="stroke: #000000; stroke-width: 0.8"/>
      </g>
     </g>
     <g id="text_7">
      <!-- 0 -->
      <g transform="translate(44.2375 301.148142) scale(0.1 -0.1)">
       <use xlink:href="#DejaVuSans-30"/>
      </g>
     </g>
    </g>
    <g id="ytick_2">
     <g id="line2d_8">
      <g>
       <use xlink:href="#m1562738137" x="57.6" y="246.173538" style="stroke: #000000; stroke-width: 0.8"/>
      </g>
     </g>
     <g id="text_8">
      <!-- 1 -->
      <g transform="translate(44.2375 249.972757) scale(0.1 -0.1)">
       <use xlink:href="#DejaVuSans-31"/>
      </g>
     </g>
    </g>
    <g id="ytick_3">
     <g id="line2d_9">
      <g>
       <use xlink:href="#m1562738137" x="57.6" y="194.998154" style="stroke: #000000; stroke-width: 0.8"/>
      </g>
     </g>
     <g id="text_9">
      <!-- 2 -->
      <g transform="translate(44.2375 198.797373) scale(0.1 -0.1)">
       <use xlink:href="#DejaVuSans-32"/>
      </g>
     </g>
    </g>
    <g id="ytick_4">
     <g id="line2d_10">
      <g>
       <use xlink:href="#m1562738137" x="57.6" y="143.822769" style="stroke: #000000; stroke-width: 0.8"/>
      </g>
     </g>
     <g id="text_10">
      <!-- 3 -->
      <g transform="translate(44.2375 147.621988) scale(0.1 -0.1)">
       <use xlink:href="#DejaVuSans-33"/>
      </g>
     </g>
    </g>
    <g id="ytick_5">
     <g id="line2d_11">
      <g>
       <use xlink:href="#m1562738137" x="57.6" y="92.647385" style="stroke: #000000; stroke-width: 0.8"/>
      </g>
     </g>
     <g id="text_11">
      <!-- 4 -->
      <g transform="translate(44.2375 96.446603) scale(0.1 -0.1)">
       <use xlink:href="#DejaVuSans-34"/>
      </g>
     </g>
    </g>
    <g id="ytick_6">
     <g id="line2d_12">
      <g>
       <use xlink:href="#m1562738137" x="57.6" y="41.472" style="stroke: #000000; stroke-width: 0.8"/>
      </g>
     </g>
     <g id="text_12">
      <!-- 5 -->
      <g transform="translate(44.2375 45.271219) scale(0.1 -0.1)">
       <use xlink:href="#DejaVuSans-35"/>
      </g>
     </g>
    </g>
   </g>
   <g id="line2d_13">
    <path d="M 73.832727 298.551033 
L 74.747442 298.90312 
L 75.662163 295.26762 
L 77.491592 291.33428 
L 81.150457 284.507484 
L 86.638757 274.816401 
L 91.212336 267.128323 
L 95.785922 259.866024 
L 99.444787 254.428128 
L 103.103652 249.381723 
L 106.762517 244.761098 
L 110.421381 240.581092 
L 113.165532 237.738812 
L 115.909682 235.145755 
L 117.739111 233.622264 
L 118.653825 233.162197 
L 119.568547 232.990248 
L 119.568547 232.990248 
L 120.698154 233.141215 
L 121.827767 233.524519 
L 125.216602 235.616057 
L 137.64234 243.528795 
L 141.031174 245.432519 
L 144.420009 247.081902 
L 146.679236 247.999476 
L 148.938457 248.752266 
L 154.586519 250.283434 
L 157.975353 251.696898 
L 159.104967 251.963521 
L 160.234581 252.044379 
L 161.364188 251.926675 
L 162.493802 251.611947 
L 163.623415 251.110428 
L 164.753029 250.442077 
L 167.01225 248.703138 
L 170.401091 245.518494 
L 173.789926 242.302121 
L 176.049146 240.371785 
L 176.049146 240.371785 
L 177.878582 239.998205 
L 179.708011 239.819091 
L 185.196312 239.568843 
L 187.025747 239.169675 
L 188.855176 238.433773 
L 190.684612 237.291539 
L 192.514041 235.710731 
L 194.343477 233.697491 
L 196.172906 231.296854 
L 198.917056 227.191565 
L 201.661206 223.123122 
L 203.490635 220.952774 
L 205.320071 219.247098 
L 207.149507 217.833634 
L 209.89365 216.039937 
L 214.467236 213.201238 
L 217.211387 211.221263 
L 219.95553 209.242822 
L 220.870251 208.824208 
L 221.784966 208.726974 
L 221.784966 208.726974 
L 223.052576 209.114884 
L 224.320186 209.803193 
L 226.855399 211.652159 
L 231.925833 215.849564 
L 238.263877 221.084294 
L 240.799097 222.967549 
L 243.33431 224.607208 
L 245.86953 225.936233 
L 248.40475 226.916241 
L 250.939964 227.555422 
L 254.742794 228.101463 
L 257.278007 228.548224 
L 259.813227 229.107571 
L 261.080837 229.291291 
L 262.348441 229.345025 
L 263.616051 229.244721 
L 264.883661 228.978609 
L 266.151271 228.546177 
L 267.418881 227.953566 
L 268.686484 227.212035 
L 271.221705 225.344645 
L 273.756925 223.089346 
L 280.094968 217.008175 
L 281.362572 216.806544 
L 283.897792 217.25484 
L 286.080116 217.298339 
L 287.909552 217.121273 
L 289.738981 216.775327 
L 292.483131 216.007696 
L 294.31256 215.511807 
L 295.227282 215.462678 
L 296.141996 215.732884 
L 299.800861 217.201618 
L 301.630297 217.665779 
L 303.459726 217.848475 
L 305.289161 217.701601 
L 307.11859 217.191383 
L 308.948026 216.299908 
L 310.777455 215.025129 
L 312.606891 213.377281 
L 314.436326 211.382977 
L 316.265756 209.089808 
L 319.009906 205.50446 
L 319.92462 204.66416 
L 321.754056 203.618136 
L 325.412921 201.797315 
L 328.157071 200.37464 
L 329.071785 200.006177 
L 329.9865 199.759512 
L 330.901215 199.672513 
L 330.901215 199.672513 
L 332.252941 199.781517 
L 333.60466 200.099828 
L 334.956379 200.604417 
L 337.659825 202.020952 
L 343.066709 205.458402 
L 345.770148 207.220371 
L 347.121874 208.264861 
L 348.473594 209.634826 
L 349.825313 211.369159 
L 352.528759 215.490313 
L 356.583917 222.415366 
L 361.990801 232.237969 
L 372.80457 252.513145 
L 386.321785 277.764615 
L 391.728669 287.133805 
L 394.432108 291.801 
L 395.783834 294.39815 
L 397.135553 299.145179 
L 398.487273 298.551033 
L 398.487273 298.551033 
" clip-path="url(#p298528772c)" style="fill: none; stroke: #008000; stroke-width: 1.5; stroke-linecap: square"/>
   </g>
   <g id="line2d_14">
    <path d="M 73.832727 298.273151 
L 74.747442 296.030133 
L 76.576877 292.485726 
L 82.979892 280.965635 
L 88.468186 271.493072 
L 93.041772 264.002019 
L 97.615351 256.97308 
L 101.274216 251.726068 
L 104.933081 246.84496 
L 108.591946 242.376325 
L 111.336096 239.326784 
L 114.080246 236.572525 
L 115.909682 234.943612 
L 118.653825 232.885338 
L 119.568547 232.525063 
L 119.568547 232.525063 
L 120.698154 232.867427 
L 121.827767 233.485625 
L 126.346216 235.320775 
L 129.73505 236.348376 
L 133.123891 237.101678 
L 138.771947 238.252612 
L 141.031174 238.918404 
L 143.290395 239.854914 
L 145.549622 241.150674 
L 147.808843 242.831274 
L 153.456905 247.657625 
L 154.586519 248.279406 
L 155.716133 248.61051 
L 156.84574 248.703649 
L 157.975353 248.636098 
L 160.234581 248.173472 
L 162.493802 247.368484 
L 164.753029 246.263095 
L 167.01225 244.879825 
L 169.271477 243.228395 
L 171.530698 241.302154 
L 173.789926 239.082677 
L 176.049146 236.587365 
L 176.049146 236.587365 
L 177.878582 236.487573 
L 179.708011 236.128322 
L 181.537447 235.527523 
L 183.366876 234.725605 
L 186.111026 233.216443 
L 188.855176 231.403299 
L 191.599327 229.34349 
L 195.258191 226.294972 
L 198.917056 222.90972 
L 200.746492 220.953797 
L 202.575921 218.591541 
L 207.149507 212.013457 
L 208.978936 210.054464 
L 212.637801 206.80278 
L 215.381951 204.413401 
L 216.296665 203.760403 
L 217.211387 203.387335 
L 218.126101 203.433392 
L 220.870251 204.52394 
L 221.784966 204.531104 
L 221.784966 204.531104 
L 223.052576 204.797216 
L 224.320186 204.802334 
L 229.390619 204.307468 
L 230.658229 204.454341 
L 231.925833 204.895473 
L 235.728663 206.705035 
L 238.263877 207.62568 
L 240.799097 208.588289 
L 242.066707 209.378437 
L 243.33431 210.477172 
L 245.86953 213.314848 
L 250.939964 219.520886 
L 253.475184 222.098591 
L 254.742794 223.087299 
L 256.010397 223.799149 
L 257.278007 224.195758 
L 258.545617 224.28685 
L 259.813227 224.127695 
L 261.080837 223.77919 
L 263.616051 222.692225 
L 266.151271 221.253173 
L 268.686484 219.58025 
L 272.489315 216.798356 
L 275.024528 214.889002 
L 276.292138 214.198135 
L 277.559748 214.69863 
L 278.827358 215.378751 
L 280.094968 215.806577 
L 281.362572 215.254395 
L 283.897792 213.036965 
L 285.165402 212.142419 
L 285.165402 212.142419 
L 286.994831 212.229929 
L 288.824267 212.492971 
L 290.653696 213.01803 
L 293.397846 214.236004 
L 295.227282 215.026664 
L 298.886146 215.603411 
L 300.715575 215.78406 
L 302.545011 215.758472 
L 304.374447 215.465749 
L 306.203876 214.868532 
L 308.033311 213.947375 
L 309.862741 212.705349 
L 311.692176 211.167528 
L 314.436326 208.458304 
L 317.18047 205.733726 
L 319.009906 204.064385 
L 319.92462 202.964114 
L 321.754056 200.127974 
L 327.24235 190.978327 
L 328.157071 189.947143 
L 329.071785 189.398032 
L 329.9865 189.247576 
L 330.901215 189.234782 
L 330.901215 189.234782 
L 332.252941 189.385749 
L 333.60466 189.863216 
L 334.956379 190.732686 
L 336.308099 192.026399 
L 339.011544 195.426492 
L 343.066709 200.835218 
L 345.770148 204.166736 
L 347.121874 205.623699 
L 348.473594 206.786404 
L 349.825313 207.750548 
L 351.177033 208.964428 
L 352.528759 210.722814 
L 355.232198 215.141809 
L 357.935643 220.088421 
L 361.990801 228.059499 
L 367.397686 239.288914 
L 376.859735 259.033401 
L 380.9149 266.897522 
L 386.321785 276.706308 
L 393.080388 288.377878 
L 397.135553 295.347966 
L 398.487273 298.273151 
L 398.487273 298.273151 
" clip-path="url(#p298528772c)" style="fill: none; stroke: #008000; stroke-width: 1.5; stroke-linecap: square"/>
   </g>
   <g id="line2d_15">
    <path d="M 73.832727 298.100689 
L 74.747442 293.781487 
L 78.406307 281.691302 
L 82.979892 265.667778 
L 86.638757 252.096577 
L 91.212336 234.258885 
L 94.871201 220.049528 
L 95.785922 217.89658 
L 96.700637 217.525558 
L 97.615351 217.707231 
L 99.444787 218.394516 
L 102.188931 219.691812 
L 104.933081 221.200463 
L 108.591946 223.501308 
L 112.25081 226.081571 
L 118.653825 230.880798 
L 119.568547 231.227767 
L 119.568547 231.227767 
L 120.698154 230.858793 
L 122.957381 229.361401 
L 127.475829 225.925998 
L 136.512726 218.691845 
L 150.068071 207.843175 
L 153.456905 205.38778 
L 155.716133 204.005533 
L 162.493802 200.40688 
L 164.753029 198.859848 
L 168.141864 196.150624 
L 169.271477 195.264266 
L 170.401091 194.639414 
L 171.530698 194.73153 
L 172.660312 195.602535 
L 174.919539 198.156699 
L 176.049146 199.520011 
L 176.049146 199.520011 
L 178.793297 199.548669 
L 181.537447 199.286139 
L 187.940462 198.255467 
L 188.855176 198.287708 
L 189.769891 198.471939 
L 190.684612 198.837843 
L 192.514041 200.029718 
L 198.002342 204.367343 
L 199.831771 205.459426 
L 201.661206 206.204028 
L 202.575921 206.413335 
L 203.490635 206.491633 
L 204.405357 206.415382 
L 205.320071 206.158993 
L 206.234786 205.694321 
L 207.149507 205.009083 
L 208.978936 203.112523 
L 210.808372 201.168882 
L 211.723086 200.466244 
L 212.637801 200.002083 
L 213.552515 199.774864 
L 214.467236 199.77947 
L 216.296665 200.172497 
L 217.211387 200.192967 
L 218.126101 199.830645 
L 219.040816 199.151548 
L 221.784966 196.777522 
L 221.784966 196.777522 
L 223.052576 197.459178 
L 225.587789 199.328103 
L 229.390619 202.223606 
L 230.658229 202.934944 
L 231.925833 203.346906 
L 235.728663 204.028562 
L 238.263877 204.769582 
L 240.799097 205.675898 
L 242.066707 205.951733 
L 243.33431 205.989603 
L 244.60192 205.81356 
L 245.86953 205.476314 
L 248.40475 204.499888 
L 250.939964 203.464609 
L 253.475184 202.787047 
L 256.010397 202.45236 
L 259.813227 202.267105 
L 262.348441 202.313163 
L 263.616051 202.40835 
L 264.883661 202.631474 
L 266.151271 203.43851 
L 272.489315 210.373798 
L 275.024528 212.642915 
L 276.292138 213.345553 
L 277.559748 212.743218 
L 280.094968 210.996603 
L 281.362572 210.387104 
L 282.630182 210.390686 
L 283.897792 211.023726 
L 285.165402 211.789821 
L 285.165402 211.789821 
L 286.994831 211.928506 
L 288.824267 212.319486 
L 292.483131 213.241155 
L 294.31256 213.536437 
L 295.227282 213.506243 
L 296.141996 213.290283 
L 297.971432 212.435143 
L 299.800861 211.277044 
L 302.545011 209.229517 
L 306.203876 206.113447 
L 310.777455 201.824438 
L 311.692176 200.963157 
L 312.606891 200.490296 
L 315.351041 200.372593 
L 316.265756 200.15868 
L 317.18047 199.77077 
L 318.095191 199.168436 
L 319.009906 198.34093 
L 320.839335 196.126059 
L 323.583485 192.068363 
L 325.412921 189.367326 
L 326.327635 188.209739 
L 327.24235 187.360228 
L 329.9865 185.920152 
L 330.901215 185.70061 
L 330.901215 185.70061 
L 332.252941 185.849019 
L 333.60466 186.282474 
L 334.956379 187.020935 
L 336.308099 187.99122 
L 337.659825 189.132943 
L 339.011544 190.494208 
L 341.714983 193.796044 
L 349.825313 204.726083 
L 351.177033 205.887252 
L 352.528759 206.325825 
L 353.880478 206.261856 
L 355.232198 205.875994 
L 356.583917 205.248583 
L 357.935643 204.430289 
L 361.990801 201.650954 
L 363.342527 201.296308 
L 364.694247 201.529156 
L 366.045966 202.120232 
L 368.749412 203.752215 
L 370.101131 204.760882 
L 371.452851 206.110889 
L 372.80457 208.388193 
L 374.156296 211.893195 
L 376.859735 220.453814 
L 380.9149 234.302384 
L 389.025223 263.021499 
L 397.135553 291.883904 
L 398.487273 298.100689 
L 398.487273 298.100689 
" clip-path="url(#p298528772c)" style="fill: none; stroke: #008000; stroke-width: 1.5; stroke-linecap: square"/>
   </g>
   <g id="line2d_16">
    <path d="M 73.832727 213.097352 
L 77.491592 213.203797 
L 81.150457 213.507267 
L 84.809322 213.997527 
L 88.468186 214.682254 
L 92.127051 215.581405 
L 96.700637 216.962629 
L 99.444787 217.965666 
L 102.188931 219.186199 
L 104.933081 220.601199 
L 108.591946 222.775641 
L 112.25081 225.219777 
L 116.824396 228.353758 
L 117.739111 228.882911 
L 118.653825 229.277473 
L 119.568547 229.430488 
L 119.568547 229.430488 
L 120.698154 229.22681 
L 121.827767 228.692027 
L 122.957381 227.943331 
L 125.216602 226.046771 
L 127.475829 223.765373 
L 129.73505 221.18818 
L 133.123891 216.899683 
L 136.512726 212.241188 
L 142.160788 203.993763 
L 146.679236 197.387021 
L 147.808843 196.966871 
L 150.068071 198.98881 
L 151.197684 199.726248 
L 152.327291 200.232372 
L 153.456905 200.502066 
L 154.586519 200.533795 
L 155.716133 200.332676 
L 156.84574 199.919691 
L 157.975353 199.334756 
L 160.234581 197.828664 
L 163.623415 195.168568 
L 169.271477 190.610376 
L 171.530698 190.758785 
L 172.660312 190.076617 
L 176.049146 187.199025 
L 176.049146 187.199025 
L 179.708011 187.815689 
L 181.537447 188.412905 
L 183.366876 189.369885 
L 185.196312 190.630847 
L 188.855176 193.302202 
L 189.769891 193.765339 
L 190.684612 194.06625 
L 192.514041 194.263787 
L 195.258191 194.307798 
L 197.087627 194.592333 
L 198.917056 195.186479 
L 201.661206 196.438229 
L 204.405357 197.612192 
L 206.234786 198.089659 
L 207.149507 198.18331 
L 208.064221 198.152093 
L 208.978936 197.963767 
L 209.89365 197.573811 
L 210.808372 196.94026 
L 211.723086 196.134247 
L 212.637801 195.67111 
L 214.467236 195.574389 
L 215.381951 195.299065 
L 217.211387 194.346691 
L 218.126101 193.834426 
L 219.040816 193.46801 
L 219.95553 193.412229 
L 221.784966 194.074438 
L 221.784966 194.074438 
L 224.320186 194.17116 
L 225.587789 194.527852 
L 226.855399 195.138886 
L 230.658229 197.318446 
L 233.193443 198.40797 
L 234.461053 198.768756 
L 235.728663 199.001092 
L 239.531487 199.258505 
L 240.799097 199.675584 
L 243.33431 200.695509 
L 244.60192 201.011773 
L 245.86953 201.198052 
L 247.13714 201.267138 
L 248.40475 201.221081 
L 249.672354 201.044014 
L 250.939964 200.704721 
L 252.207574 200.183756 
L 254.742794 198.747774 
L 257.278007 197.363992 
L 258.545617 197.001158 
L 259.813227 197.087645 
L 261.080837 197.718637 
L 262.348441 198.79025 
L 264.883661 201.451882 
L 266.151271 202.300881 
L 272.489315 203.87043 
L 275.024528 204.807452 
L 277.559748 205.979368 
L 280.094968 207.286899 
L 281.362572 207.777671 
L 282.630182 207.741848 
L 285.165402 206.702988 
L 285.165402 206.702988 
L 287.909552 206.571979 
L 290.653696 206.170252 
L 293.397846 205.498831 
L 296.141996 204.593027 
L 300.715575 202.771695 
L 304.374447 201.36693 
L 306.203876 200.82703 
L 308.033311 200.471361 
L 309.862741 200.323976 
L 311.692176 200.311694 
L 312.606891 199.924808 
L 315.351041 197.230936 
L 329.9865 182.332758 
L 330.901215 182.263671 
L 330.901215 182.263671 
L 332.252941 182.729367 
L 333.60466 183.855226 
L 334.956379 184.783547 
L 336.308099 185.365411 
L 337.659825 185.796308 
L 339.011544 186.857174 
L 344.418429 192.887169 
L 345.770148 194.214147 
L 347.121874 195.352799 
L 348.473594 196.248368 
L 349.825313 196.86452 
L 351.177033 197.192043 
L 352.528759 197.243218 
L 353.880478 197.045169 
L 357.935643 195.855853 
L 359.287363 196.179793 
L 360.639082 196.702806 
L 361.990801 197.017535 
L 363.342527 196.792363 
L 364.694247 195.984304 
L 366.045966 195.000201 
L 367.397686 194.483841 
L 368.749412 195.361499 
L 370.101131 197.849646 
L 371.452851 200.977998 
L 372.80457 203.602271 
L 374.156296 205.194337 
L 375.508016 206.241386 
L 378.211455 207.814517 
L 380.9149 209.095949 
L 383.618339 210.182914 
L 386.321785 211.093324 
L 389.025223 211.828203 
L 391.728669 212.384991 
L 394.432108 212.761642 
L 398.487273 213.097352 
L 398.487273 213.097352 
" clip-path="url(#p298528772c)" style="fill: none; stroke: #008000; stroke-width: 1.5; stroke-linecap: square"/>
   </g>
   <g id="line2d_17">
    <path d="M 73.832727 212.939732 
L 78.406307 213.0559 
L 82.065171 213.342994 
L 85.724043 213.828648 
L 89.382907 214.522075 
L 93.956487 215.507201 
L 94.871201 215.423273 
L 95.785922 214.174594 
L 96.700637 211.173669 
L 101.274216 193.766362 
L 102.188931 191.384148 
L 103.103652 190.615494 
L 104.018366 191.292032 
L 104.933081 192.58984 
L 111.336096 203.052136 
L 113.165532 205.387269 
L 114.994961 207.224465 
L 115.909682 207.933244 
L 116.824396 208.492591 
L 117.739111 208.896365 
L 118.653825 209.140471 
L 119.568547 209.222352 
L 119.568547 209.222352 
L 121.827767 209.00281 
L 124.086995 208.363629 
L 126.346216 207.349333 
L 128.605443 206.008538 
L 130.864664 204.390884 
L 134.253498 201.558326 
L 138.771947 197.34301 
L 142.160788 194.271463 
L 143.290395 193.499227 
L 144.420009 193.318066 
L 145.549622 194.128684 
L 146.679236 195.370711 
L 147.808843 195.482273 
L 152.327291 189.649814 
L 154.586519 187.270159 
L 155.716133 186.289639 
L 156.84574 185.460597 
L 157.975353 184.792247 
L 159.104967 184.299428 
L 160.234581 184.007216 
L 161.364188 183.947341 
L 162.493802 184.147437 
L 163.623415 184.617227 
L 164.753029 185.337776 
L 167.01225 187.332593 
L 168.141864 188.458451 
L 169.271477 189.421572 
L 170.401091 189.228129 
L 173.789926 186.730259 
L 176.049146 185.486185 
L 176.049146 185.486185 
L 186.111026 186.134577 
L 188.855176 186.492293 
L 192.514041 187.240989 
L 197.087627 188.481992 
L 200.746492 189.668749 
L 203.490635 190.762879 
L 207.149507 192.508983 
L 210.808372 194.363067 
L 211.723086 194.62355 
L 212.637801 194.210565 
L 213.552515 193.039672 
L 216.296665 188.916471 
L 217.211387 187.965121 
L 218.126101 187.964609 
L 219.040816 188.347913 
L 219.95553 188.425187 
L 220.870251 188.030113 
L 221.784966 187.297794 
L 221.784966 187.297794 
L 223.052576 188.274732 
L 224.320186 188.908795 
L 225.587789 189.060274 
L 228.123009 188.529585 
L 229.390619 188.798768 
L 230.658229 189.687172 
L 233.193443 192.092927 
L 236.996266 195.957692 
L 238.263877 197.10095 
L 239.531487 197.94995 
L 240.799097 198.201733 
L 242.066707 198.013408 
L 244.60192 197.166967 
L 247.13714 195.961275 
L 249.672354 194.480259 
L 254.742794 191.156929 
L 256.010397 190.561248 
L 257.278007 190.452756 
L 258.545617 190.927664 
L 259.813227 191.576056 
L 261.080837 192.083204 
L 264.883661 193.285825 
L 267.418881 194.442901 
L 269.954095 195.867112 
L 273.756925 198.287708 
L 280.094968 202.641198 
L 283.897792 205.257795 
L 285.165402 205.800254 
L 285.165402 205.800254 
L 286.994831 205.719909 
L 288.824267 205.479384 
L 290.653696 205.083287 
L 293.397846 204.2087 
L 296.141996 203.01836 
L 298.886146 201.544509 
L 301.630297 199.822457 
L 305.289161 197.211489 
L 309.862741 193.58469 
L 323.583485 182.345552 
L 324.498206 181.838915 
L 325.412921 181.856827 
L 326.327635 182.182302 
L 327.24235 182.209425 
L 328.157071 181.930008 
L 329.071785 181.844033 
L 329.9865 182.006259 
L 330.901215 181.703812 
L 330.901215 181.703812 
L 333.60466 182.007282 
L 334.956379 182.69815 
L 336.308099 183.823497 
L 337.659825 185.096229 
L 339.011544 185.662228 
L 343.066709 185.714427 
L 344.418429 186.076749 
L 345.770148 186.700065 
L 348.473594 188.341772 
L 355.232198 192.87284 
L 356.583917 193.601066 
L 357.935643 193.86206 
L 359.287363 193.27252 
L 360.639082 192.188113 
L 363.342527 189.442554 
L 364.694247 187.978426 
L 366.045966 186.695971 
L 367.397686 186.122295 
L 368.749412 186.235904 
L 370.101131 186.106943 
L 371.452851 186.632002 
L 372.80457 188.022437 
L 375.508016 191.584756 
L 382.26662 200.902258 
L 384.970065 204.27011 
L 387.673504 207.240329 
L 390.376949 209.69726 
L 391.728669 210.700297 
L 393.080388 211.537526 
L 394.432108 212.197689 
L 395.783834 212.666455 
L 397.135553 212.897256 
L 398.487273 212.939732 
L 398.487273 212.939732 
" clip-path="url(#p298528772c)" style="fill: none; stroke: #008000; stroke-width: 1.5; stroke-linecap: square"/>
   </g>
   <g id="line2d_18">
    <path d="M 73.832727 149.425962 
L 75.662163 149.551342 
L 77.491592 149.949486 
L 79.321028 150.679759 
L 81.150457 151.805617 
L 82.979892 153.361861 
L 84.809322 155.338766 
L 86.638757 157.692322 
L 88.468186 160.362654 
L 91.212336 164.818494 
L 94.871201 171.293204 
L 100.359502 181.156748 
L 101.274216 182.413615 
L 103.103652 183.729334 
L 105.847802 188.775227 
L 108.591946 193.696764 
L 110.421381 196.649584 
L 112.25081 199.220635 
L 114.080246 201.321384 
L 115.909682 202.878651 
L 116.824396 203.434928 
L 117.739111 203.836143 
L 118.653825 204.078714 
L 119.568547 204.159571 
L 119.568547 204.159571 
L 120.698154 204.052615 
L 121.827767 203.732768 
L 122.957381 203.203103 
L 124.086995 202.471807 
L 125.216602 201.55065 
L 127.475829 199.224729 
L 131.994278 193.993581 
L 133.123891 192.97212 
L 135.383112 191.409736 
L 137.64234 190.218885 
L 139.90156 189.265999 
L 141.031174 188.967647 
L 142.160788 188.978393 
L 144.420009 189.988084 
L 145.549622 189.752677 
L 146.679236 189.012169 
L 150.068071 186.189847 
L 155.716133 181.31488 
L 157.975353 179.800088 
L 159.104967 179.263258 
L 160.234581 178.877396 
L 162.493802 178.447011 
L 165.882643 178.205975 
L 168.141864 178.237192 
L 171.530698 178.597467 
L 173.789926 178.811891 
L 174.919539 178.880466 
L 176.049146 179.315969 
L 176.049146 179.315969 
L 181.537447 179.326204 
L 186.111026 179.324669 
L 187.940462 179.516576 
L 189.769891 179.935703 
L 192.514041 180.94437 
L 195.258191 181.964807 
L 197.087627 182.331223 
L 198.917056 182.309217 
L 200.746492 181.914655 
L 202.575921 181.249375 
L 207.149507 179.299593 
L 208.064221 179.029387 
L 208.978936 178.875349 
L 209.89365 178.893772 
L 210.808372 179.149649 
L 211.723086 179.694667 
L 212.637801 180.523708 
L 214.467236 182.714015 
L 216.296665 184.922744 
L 217.211387 185.532755 
L 218.126101 185.09674 
L 219.040816 184.178654 
L 219.95553 183.849596 
L 220.870251 184.650491 
L 221.784966 185.794261 
L 221.784966 185.794261 
L 223.052576 184.668402 
L 224.320186 183.896678 
L 225.587789 184.112638 
L 226.855399 184.885898 
L 228.123009 185.518426 
L 229.390619 185.40891 
L 230.658229 184.540464 
L 233.193443 181.953037 
L 235.728663 179.249953 
L 236.996266 178.147123 
L 238.263877 177.359534 
L 239.531487 176.92659 
L 240.799097 176.808887 
L 242.066707 176.934267 
L 243.33431 177.240295 
L 245.86953 178.23668 
L 248.40475 179.636839 
L 250.939964 181.462776 
L 253.475184 183.744687 
L 254.742794 184.941167 
L 256.010397 185.955975 
L 257.278007 186.437536 
L 258.545617 186.189847 
L 259.813227 185.488232 
L 262.348441 183.525656 
L 264.883661 181.086126 
L 268.686484 176.892303 
L 272.489315 172.708715 
L 275.024528 170.270208 
L 277.559748 168.299444 
L 278.827358 167.515437 
L 280.094968 166.872162 
L 281.362572 166.371155 
L 282.630182 166.013951 
L 283.897792 165.800038 
L 286.080116 165.777009 
L 287.909552 166.160825 
L 289.738981 166.91515 
L 291.568417 168.012862 
L 293.397846 169.410462 
L 295.227282 171.05268 
L 297.971432 173.834574 
L 303.459726 179.586687 
L 305.289161 181.224811 
L 307.11859 182.549742 
L 308.948026 183.467828 
L 310.777455 183.925848 
L 312.606891 183.936083 
L 314.436326 183.571202 
L 316.265756 182.933557 
L 321.754056 180.627594 
L 322.66877 180.482768 
L 323.583485 180.574372 
L 324.498206 180.867607 
L 325.412921 180.850719 
L 326.327635 180.526267 
L 327.24235 180.361482 
L 328.157071 180.374276 
L 329.071785 180.120958 
L 329.9865 179.587199 
L 330.901215 179.277587 
L 332.252941 179.597945 
L 336.308099 181.30925 
L 337.659825 181.681295 
L 343.066709 182.64851 
L 344.418429 182.486284 
L 345.770148 182.017006 
L 347.121874 181.343538 
L 349.825313 179.672661 
L 355.232198 176.164077 
L 356.583917 175.483956 
L 357.935643 174.990625 
L 359.287363 174.749589 
L 360.639082 174.816629 
L 361.990801 175.225009 
L 363.342527 175.98394 
L 364.694247 177.191679 
L 366.045966 179.375332 
L 367.397686 181.310274 
L 368.749412 182.023147 
L 370.101131 182.516478 
L 371.452851 182.004212 
L 372.80457 180.431081 
L 375.508016 176.241864 
L 384.970065 160.497757 
L 387.673504 156.640156 
L 389.025223 154.946763 
L 390.376949 153.451418 
L 391.728669 152.18278 
L 393.080388 151.158249 
L 394.432108 150.381918 
L 395.783834 149.843553 
L 397.135553 149.529336 
L 398.487273 149.425962 
L 398.487273 149.425962 
" clip-path="url(#p298528772c)" style="fill: none; stroke: #008000; stroke-width: 1.5; stroke-linecap: square"/>
   </g>
   <g id="line2d_19">
    <path d="M 73.832727 143.386755 
L 76.576877 143.507017 
L 78.406307 143.898509 
L 79.321028 144.297677 
L 80.235742 144.875959 
L 81.150457 145.633866 
L 82.979892 147.606677 
L 84.809322 150.034949 
L 87.553472 154.251801 
L 90.297622 158.930255 
L 93.956487 165.636277 
L 102.188931 181.368614 
L 103.103652 181.306691 
L 104.018366 179.998137 
L 108.591946 186.018409 
L 110.421381 187.990708 
L 112.25081 189.632415 
L 114.080246 190.928176 
L 115.909682 191.864685 
L 117.739111 192.431197 
L 119.568547 192.620545 
L 119.568547 192.620545 
L 120.698154 192.546853 
L 121.827767 192.329358 
L 124.086995 191.559168 
L 128.605443 189.781335 
L 129.73505 189.116055 
L 130.864664 188.22765 
L 131.994278 187.046011 
L 133.123891 185.535825 
L 134.253498 183.721658 
L 136.512726 179.448513 
L 137.64234 177.182979 
L 138.771947 176.472153 
L 141.031174 181.243234 
L 142.160788 183.08043 
L 143.290395 184.056857 
L 144.420009 184.19196 
L 145.549622 183.847038 
L 147.808843 182.581982 
L 151.197684 180.17418 
L 154.586519 177.519201 
L 160.234581 172.764496 
L 161.364188 172.098193 
L 162.493802 171.725636 
L 163.623415 171.669343 
L 164.753029 171.879674 
L 165.882643 172.283448 
L 168.141864 173.462528 
L 171.530698 175.720386 
L 173.789926 177.28533 
L 174.919539 177.849282 
L 176.049146 177.694221 
L 176.049146 177.694221 
L 177.878582 177.701897 
L 179.708011 177.518689 
L 181.537447 177.018194 
L 183.366876 176.108808 
L 185.196312 174.760848 
L 187.025747 173.006556 
L 189.769891 169.86234 
L 190.684612 169.591111 
L 192.514041 169.507183 
L 194.343477 169.143838 
L 196.172906 168.558903 
L 199.831771 167.054859 
L 202.575921 165.967893 
L 204.405357 165.499639 
L 205.320071 165.512432 
L 206.234786 166.112208 
L 208.064221 168.719082 
L 209.89365 171.40016 
L 210.808372 172.550583 
L 211.723086 173.503981 
L 213.552515 174.940474 
L 215.381951 176.360591 
L 216.296665 177.27663 
L 219.040816 180.75758 
L 219.95553 181.215088 
L 220.870251 180.920317 
L 221.784966 181.996024 
L 221.784966 181.996024 
L 223.052576 180.920317 
L 224.320186 181.06105 
L 225.587789 180.588189 
L 228.123009 178.181411 
L 230.658229 175.746998 
L 233.193443 173.778281 
L 239.531487 169.631539 
L 240.799097 169.052746 
L 242.066707 169.024087 
L 243.33431 169.537376 
L 244.60192 170.423734 
L 247.13714 172.780361 
L 250.939964 176.584739 
L 252.207574 177.678868 
L 253.475184 178.613331 
L 254.742794 179.372262 
L 256.010397 179.943891 
L 257.278007 180.308771 
L 258.545617 180.435686 
L 259.813227 180.291884 
L 261.080837 179.866104 
L 262.348441 179.181889 
L 263.616051 178.289903 
L 266.151271 176.108296 
L 269.954095 172.404222 
L 277.559748 164.939268 
L 278.827358 163.87482 
L 280.094968 163.067784 
L 281.362572 162.661964 
L 283.897792 162.493597 
L 287.909552 162.562172 
L 291.568417 162.879971 
L 295.227282 163.427547 
L 298.886146 164.204901 
L 302.545011 165.224827 
L 306.203876 166.499094 
L 309.862741 168.038961 
L 313.521605 169.851593 
L 317.18047 171.937502 
L 319.92462 173.712264 
L 320.839335 174.404156 
L 324.498206 177.645604 
L 326.327635 178.51968 
L 327.24235 178.718752 
L 329.071785 178.58672 
L 329.9865 178.72387 
L 330.901215 178.982817 
L 330.901215 178.982817 
L 334.956379 177.95368 
L 336.308099 177.911205 
L 339.011544 178.448034 
L 340.363264 178.436776 
L 341.714983 178.083666 
L 343.066709 177.438856 
L 344.418429 176.578086 
L 347.121874 174.415414 
L 349.825313 171.856645 
L 353.880478 167.601923 
L 356.583917 164.723308 
L 357.935643 163.40503 
L 359.287363 162.431674 
L 360.639082 163.965401 
L 364.694247 175.103723 
L 366.045966 177.366699 
L 367.397686 178.535033 
L 368.749412 178.719264 
L 370.101131 177.587264 
L 371.452851 175.791008 
L 374.156296 171.556245 
L 382.26662 158.184117 
L 384.970065 154.150474 
L 387.673504 150.595831 
L 390.376949 147.660923 
L 391.728669 146.442949 
L 393.080388 145.392318 
L 394.432108 144.529501 
L 395.783834 143.892368 
L 397.135553 143.511623 
L 398.487273 143.386755 
L 398.487273 143.386755 
" clip-path="url(#p298528772c)" style="fill: none; stroke: #008000; stroke-width: 1.5; stroke-linecap: square"/>
   </g>
   <g id="line2d_20">
    <path d="M 73.832727 140.701583 
L 76.576877 140.800351 
L 79.321028 141.006588 
L 80.235742 141.184678 
L 81.150457 141.624786 
L 82.065171 142.317701 
L 82.979892 143.25984 
L 84.809322 145.669689 
L 86.638757 148.521693 
L 89.382907 153.320409 
L 93.956487 162.027901 
L 98.530066 170.655047 
L 101.274216 175.423057 
L 103.103652 178.33596 
L 104.018366 179.135832 
L 106.762517 183.021579 
L 108.591946 185.197044 
L 110.421381 187.027588 
L 112.25081 188.522421 
L 114.080246 189.684614 
L 115.909682 190.514678 
L 117.739111 191.013127 
L 119.568547 191.178935 
L 119.568547 191.178935 
L 121.827767 191.061743 
L 122.957381 190.893888 
L 124.086995 190.601165 
L 125.216602 190.101693 
L 126.346216 189.356579 
L 127.475829 188.402159 
L 129.73505 186.005104 
L 131.994278 183.068148 
L 134.253498 179.675732 
L 137.64234 174.17796 
L 138.771947 174.17489 
L 141.031174 169.483131 
L 145.549622 159.812006 
L 147.808843 155.403759 
L 148.938457 153.867985 
L 150.068071 153.598803 
L 151.197684 154.236448 
L 152.327291 155.329554 
L 157.975353 161.853392 
L 159.104967 162.871783 
L 160.234581 163.65016 
L 161.364188 164.124044 
L 162.493802 164.271429 
L 164.753029 163.957213 
L 167.01225 163.678818 
L 169.271477 163.660907 
L 172.660312 163.910131 
L 174.919539 164.277059 
L 176.049146 164.53703 
L 176.049146 164.53703 
L 177.878582 164.761178 
L 179.708011 165.247344 
L 181.537447 165.954076 
L 185.196312 167.732421 
L 187.025747 168.577326 
L 188.855176 169.19399 
L 189.769891 169.297364 
L 190.684612 168.461158 
L 193.428756 164.562617 
L 198.002342 157.858642 
L 198.917056 157.218438 
L 199.831771 157.41444 
L 200.746492 158.130895 
L 202.575921 160.190192 
L 205.320071 163.841044 
L 206.234786 164.591787 
L 208.978936 165.463816 
L 209.89365 166.024698 
L 210.808372 166.830199 
L 211.723086 167.898229 
L 213.552515 170.628436 
L 216.296665 175.028495 
L 218.126101 177.467514 
L 219.95553 179.691596 
L 220.870251 180.406516 
L 221.784966 179.362027 
L 221.784966 179.362027 
L 223.052576 180.369158 
L 224.320186 179.635815 
L 228.123009 175.865213 
L 231.925833 171.729218 
L 235.728663 167.54256 
L 236.996266 166.385996 
L 238.263877 165.471492 
L 240.799097 164.025276 
L 242.066707 162.998186 
L 244.60192 160.211174 
L 247.13714 157.358147 
L 248.40475 156.126867 
L 249.672354 155.105918 
L 250.939964 154.360804 
L 252.207574 153.951401 
L 253.475184 153.858774 
L 254.742794 153.99183 
L 257.278007 154.633057 
L 261.080837 156.015816 
L 268.686484 158.97273 
L 272.489315 160.181493 
L 275.024528 160.79918 
L 277.559748 161.187601 
L 278.827358 161.215235 
L 280.094968 160.980852 
L 281.362572 160.352418 
L 285.165402 157.695904 
L 285.165402 157.695904 
L 288.824267 157.804396 
L 292.483131 158.131407 
L 296.141996 158.68103 
L 299.800861 159.455314 
L 303.459726 160.456816 
L 307.11859 161.688096 
L 310.777455 163.157853 
L 312.606891 164.111762 
L 314.436326 165.535461 
L 316.265756 167.337858 
L 318.095191 169.534818 
L 320.839335 173.155476 
L 321.754056 174.123203 
L 322.66877 174.823282 
L 323.583485 175.322754 
L 324.498206 175.637994 
L 325.412921 175.765933 
L 328.157071 175.710663 
L 329.071785 175.87596 
L 329.9865 176.548916 
L 330.901215 176.825263 
L 330.901215 176.825263 
L 332.252941 176.683507 
L 334.956379 175.928159 
L 336.308099 175.128799 
L 337.659825 173.781863 
L 340.363264 170.508174 
L 341.714983 169.28457 
L 344.418429 167.53079 
L 348.473594 165.193098 
L 352.528759 163.114866 
L 355.232198 161.985425 
L 357.935643 161.224447 
L 360.639082 161.180948 
L 363.342527 159.987026 
L 366.045966 158.424642 
L 370.101131 155.621254 
L 375.508016 151.892104 
L 379.563181 149.421356 
L 391.728669 142.550549 
L 395.783834 141.230224 
L 397.135553 140.863808 
L 398.487273 140.701583 
L 398.487273 140.701583 
" clip-path="url(#p298528772c)" style="fill: none; stroke: #008000; stroke-width: 1.5; stroke-linecap: square"/>
   </g>
   <g id="line2d_21">
    <path d="M 73.832727 139.390981 
L 75.662163 139.589541 
L 77.491592 140.10846 
L 80.235742 140.962577 
L 81.150457 141.079769 
L 82.065171 141.311081 
L 82.979892 141.844841 
L 83.894607 142.695887 
L 85.724043 144.962957 
L 87.553472 147.683952 
L 89.382907 150.732981 
L 92.127051 155.784504 
L 95.785922 163.117936 
L 101.274216 174.195872 
L 103.103652 177.496172 
L 104.018366 178.456734 
L 104.933081 175.460416 
L 108.591946 161.235194 
L 113.165532 143.53414 
L 115.909682 133.59281 
L 117.739111 127.639066 
L 118.653825 125.088996 
L 119.568547 123.508189 
L 120.698154 125.070573 
L 121.827767 127.594031 
L 124.086995 133.471012 
L 127.475829 143.208665 
L 136.512726 169.763572 
L 137.64234 172.466144 
L 138.771947 171.567504 
L 141.031174 167.214014 
L 146.679236 155.883272 
L 151.197684 148.860474 
L 152.327291 149.248384 
L 159.104967 155.531697 
L 160.234581 156.338733 
L 161.364188 156.980984 
L 162.493802 157.400111 
L 163.623415 157.52549 
L 164.753029 157.293154 
L 165.882643 156.689284 
L 167.01225 155.766592 
L 169.271477 153.311197 
L 172.660312 149.135286 
L 173.789926 147.948017 
L 174.919539 147.428587 
L 176.049146 147.865625 
L 176.049146 147.865625 
L 179.708011 147.902983 
L 182.452161 148.135319 
L 185.196312 148.568774 
L 187.940462 149.233543 
L 190.684612 150.16647 
L 193.428756 151.412079 
L 196.172906 152.979581 
L 197.087627 153.517946 
L 198.002342 153.923767 
L 198.917056 153.847515 
L 199.831771 153.00261 
L 200.746492 151.851675 
L 201.661206 152.0748 
L 204.405357 153.747723 
L 206.234786 155.237439 
L 207.149507 156.218983 
L 210.808372 160.90153 
L 211.723086 161.753089 
L 212.637801 162.363611 
L 213.552515 162.761244 
L 214.467236 162.982833 
L 215.381951 163.063179 
L 217.211387 162.919376 
L 219.95553 162.46545 
L 220.870251 162.419904 
L 221.784966 162.487967 
L 221.784966 162.487967 
L 223.052576 162.17375 
L 224.320186 162.012548 
L 226.855399 162.022271 
L 230.658229 162.212644 
L 233.193443 162.062188 
L 234.461053 161.830875 
L 235.728663 161.467018 
L 236.996266 160.938888 
L 238.263877 160.205545 
L 239.531487 159.25573 
L 244.60192 154.809101 
L 245.86953 153.941166 
L 247.13714 153.258487 
L 248.40475 152.75185 
L 257.278007 150.164935 
L 259.813227 149.77549 
L 262.348441 149.657275 
L 264.883661 149.755532 
L 267.418881 150.022667 
L 269.954095 150.446911 
L 272.489315 151.04771 
L 275.024528 151.860375 
L 277.559748 152.911518 
L 280.094968 154.214443 
L 282.630182 155.764545 
L 285.165402 157.402158 
L 285.165402 157.402158 
L 289.738981 157.506044 
L 293.397846 157.771132 
L 297.056711 158.254228 
L 300.715575 159.000365 
L 303.459726 159.758272 
L 306.203876 160.713717 
L 308.948026 161.912756 
L 311.692176 163.421918 
L 314.436326 164.82003 
L 318.095191 166.743712 
L 321.754056 168.912525 
L 324.498206 170.794756 
L 326.327635 172.369934 
L 328.157071 174.486548 
L 329.071785 175.581701 
L 329.9865 175.971658 
L 330.901215 176.096014 
L 330.901215 176.096014 
L 332.252941 175.784356 
L 333.60466 174.90158 
L 336.308099 172.629905 
L 340.363264 169.667362 
L 341.714983 168.173041 
L 344.418429 164.75606 
L 345.770148 163.265321 
L 347.121874 161.970584 
L 348.473594 160.859055 
L 349.825313 159.928686 
L 351.177033 159.18562 
L 352.528759 158.632414 
L 355.232198 157.963552 
L 357.935643 157.371452 
L 359.287363 157.944105 
L 360.639082 158.795152 
L 361.990801 158.09149 
L 366.045966 155.463634 
L 374.156296 150.809744 
L 382.26662 146.220848 
L 386.321785 144.280789 
L 390.376949 142.597631 
L 393.080388 141.025011 
L 394.432108 140.249192 
L 395.783834 139.687286 
L 397.135553 139.432945 
L 398.487273 139.390981 
L 398.487273 139.390981 
" clip-path="url(#p298528772c)" style="fill: none; stroke: #008000; stroke-width: 1.5; stroke-linecap: square"/>
   </g>
   <g id="line2d_22">
    <path d="M 73.832727 135.893655 
L 74.747442 135.955577 
L 75.662163 136.141344 
L 77.491592 136.874687 
L 79.321028 138.011804 
L 81.150457 139.206238 
L 82.065171 139.596706 
L 82.979892 139.754326 
L 83.894607 139.70571 
L 85.724043 139.274301 
L 87.553472 138.596739 
L 90.297622 137.259526 
L 93.041772 135.618843 
L 95.785922 133.742754 
L 99.444787 130.968536 
L 113.165532 120.113214 
L 114.080246 119.592248 
L 114.994961 119.236067 
L 115.909682 119.077936 
L 116.824396 119.212527 
L 117.739111 119.762662 
L 119.568547 121.87467 
L 119.568547 121.87467 
L 121.827767 119.81742 
L 122.957381 119.335859 
L 124.086995 119.313342 
L 125.216602 119.636771 
L 126.346216 120.254969 
L 128.605443 122.184793 
L 130.864664 124.405805 
L 134.253498 128.118067 
L 137.64234 132.227962 
L 142.160788 138.145884 
L 145.549622 142.607866 
L 147.808843 145.178405 
L 150.068071 147.017648 
L 151.197684 147.634824 
L 152.327291 146.32064 
L 154.586519 142.775721 
L 155.716133 141.208731 
L 156.84574 139.844907 
L 157.975353 138.724677 
L 159.104967 137.881307 
L 160.234581 137.335266 
L 161.364188 137.086042 
L 162.493802 137.113676 
L 163.623415 137.381835 
L 164.753029 137.848555 
L 167.01225 139.218008 
L 169.271477 140.950295 
L 172.660312 143.732701 
L 173.789926 144.451203 
L 174.919539 144.513125 
L 176.049146 143.635979 
L 176.049146 143.635979 
L 178.793297 143.821746 
L 181.537447 144.189185 
L 184.281597 144.733179 
L 187.025747 145.453729 
L 190.684612 146.687567 
L 194.343477 148.221294 
L 198.002342 150.018061 
L 199.831771 150.981182 
L 200.746492 151.327639 
L 201.661206 150.148047 
L 203.490635 147.235144 
L 204.405357 146.714178 
L 207.149507 149.886541 
L 208.064221 150.549774 
L 208.978936 150.928471 
L 210.808372 151.301028 
L 214.467236 154.214443 
L 217.211387 156.097697 
L 219.040816 157.075147 
L 219.95553 157.409834 
L 220.870251 157.594577 
L 221.784966 157.605836 
L 221.784966 157.605836 
L 223.052576 157.365823 
L 224.320186 156.952838 
L 226.855399 155.724628 
L 230.658229 153.41406 
L 233.193443 151.873169 
L 234.461053 151.56714 
L 238.263877 152.631588 
L 239.531487 152.646941 
L 240.799097 152.409487 
L 242.066707 151.93765 
L 243.33431 151.264694 
L 244.60192 150.424906 
L 247.13714 148.374308 
L 250.939964 144.946581 
L 252.207574 144.017236 
L 253.475184 143.587362 
L 254.742794 143.646214 
L 262.348441 144.946069 
L 266.151271 145.196317 
L 268.686484 145.183011 
L 271.221705 144.96961 
L 273.756925 144.47372 
L 276.292138 143.617556 
L 278.827358 142.365806 
L 283.897792 139.398657 
L 285.165402 139.15148 
L 285.165402 139.15148 
L 286.080116 139.092117 
L 286.994831 138.91505 
L 288.824267 138.216506 
L 290.653696 137.085018 
L 292.483131 135.565621 
L 294.31256 133.713584 
L 296.141996 131.590829 
L 298.886146 128.086338 
L 299.800861 127.819203 
L 301.630297 130.428124 
L 303.459726 133.429049 
L 306.203876 138.387432 
L 315.351041 155.621766 
L 317.18047 158.37756 
L 319.009906 160.659471 
L 320.839335 162.524302 
L 322.66877 164.089757 
L 325.412921 166.230423 
L 327.24235 168.889496 
L 328.157071 169.896628 
L 329.071785 170.59466 
L 329.9865 171.003551 
L 332.252941 171.403743 
L 333.60466 171.711307 
L 334.956379 171.494835 
L 336.308099 170.653 
L 337.659825 169.420185 
L 340.363264 166.578416 
L 343.066709 163.468999 
L 345.770148 159.785395 
L 349.825313 153.429412 
L 351.177033 151.722713 
L 352.528759 150.669012 
L 355.232198 149.090763 
L 356.583917 150.534421 
L 357.935643 154.332658 
L 359.287363 156.67035 
L 360.639082 156.07518 
L 361.990801 155.203151 
L 363.342527 154.137168 
L 366.045966 151.609616 
L 371.452851 146.267929 
L 374.156296 143.833516 
L 376.859735 141.671356 
L 379.563181 139.830577 
L 382.26662 138.34905 
L 384.970065 137.255432 
L 387.673504 136.571217 
L 390.376949 136.297941 
L 393.080388 136.362422 
L 395.783834 136.395686 
L 398.487273 135.893655 
L 398.487273 135.893655 
" clip-path="url(#p298528772c)" style="fill: none; stroke: #008000; stroke-width: 1.5; stroke-linecap: square"/>
   </g>
   <g id="line2d_23">
    <path d="M 73.832727 135.356825 
L 74.747442 135.414654 
L 76.576877 135.868067 
L 78.406307 136.728326 
L 82.065171 138.984137 
L 82.979892 139.222614 
L 83.894607 139.232337 
L 85.724043 138.853128 
L 87.553472 138.181707 
L 90.297622 136.860358 
L 93.041772 135.278015 
L 96.700637 132.86919 
L 100.359502 130.201929 
L 104.018366 127.216357 
L 110.421381 121.966274 
L 112.25081 120.647996 
L 114.080246 119.399317 
L 116.824396 117.441858 
L 117.739111 116.898888 
L 118.653825 116.495626 
L 119.568547 116.338517 
L 119.568547 116.338517 
L 120.698154 116.51456 
L 121.827767 116.977186 
L 124.086995 118.376833 
L 129.73505 122.640254 
L 131.994278 124.72821 
L 135.383112 128.201995 
L 139.90156 133.19313 
L 145.549622 139.432945 
L 146.679236 140.503022 
L 147.808843 141.33974 
L 148.938457 141.700014 
L 150.068071 141.287029 
L 151.197684 140.08799 
L 152.327291 138.38692 
L 155.716133 132.347201 
L 159.104967 126.466126 
L 161.364188 123.000529 
L 162.493802 121.484202 
L 163.623415 120.285675 
L 164.753029 119.965317 
L 165.882643 120.453018 
L 168.141864 122.021032 
L 171.530698 124.772221 
L 176.049146 128.750595 
L 176.049146 128.750595 
L 179.708011 128.834523 
L 183.366876 129.157439 
L 186.111026 129.583218 
L 188.855176 130.211652 
L 190.684612 130.78584 
L 192.514041 131.557053 
L 194.343477 132.671653 
L 195.258191 133.430584 
L 197.087627 135.435635 
L 199.831771 139.214938 
L 203.490635 144.460415 
L 204.405357 145.350866 
L 205.320071 146.042246 
L 208.978936 149.675186 
L 209.89365 150.499622 
L 210.808372 151.033381 
L 212.637801 150.585085 
L 214.467236 149.801078 
L 217.211387 148.297033 
L 219.95553 146.715202 
L 220.870251 146.328828 
L 221.784966 146.261788 
L 221.784966 146.261788 
L 223.052576 146.012052 
L 224.320186 146.177349 
L 225.587789 146.549905 
L 228.123009 147.626124 
L 233.193443 150.308737 
L 234.461053 150.463287 
L 235.728663 149.826665 
L 239.531487 147.240261 
L 243.33431 144.346805 
L 247.13714 141.197472 
L 248.40475 140.720006 
L 252.207574 141.49736 
L 253.475184 141.101262 
L 254.742794 140.177035 
L 258.545617 136.629557 
L 264.883661 130.683489 
L 269.954095 126.285477 
L 273.756925 123.327028 
L 275.024528 122.459093 
L 276.292138 121.815307 
L 277.559748 122.663795 
L 280.094968 126.633981 
L 281.362572 128.421025 
L 282.630182 129.917905 
L 283.897792 130.970071 
L 285.165402 131.362075 
L 285.165402 131.362075 
L 286.994831 131.178355 
L 288.824267 130.632826 
L 290.653696 129.744421 
L 292.483131 128.543335 
L 295.227282 126.301853 
L 296.141996 125.566463 
L 297.056711 125.17753 
L 297.971432 125.606379 
L 298.886146 126.530607 
L 299.800861 126.741449 
L 300.715575 125.630944 
L 301.630297 124.747145 
L 302.545011 124.725139 
L 303.459726 125.524499 
L 305.289161 127.836603 
L 307.11859 130.519216 
L 309.862741 135.015486 
L 312.606891 139.98308 
L 316.265756 147.178339 
L 325.412921 165.793897 
L 326.327635 166.557946 
L 328.157071 167.570195 
L 329.9865 168.248269 
L 330.901215 168.355225 
L 330.901215 168.355225 
L 332.252941 168.040496 
L 333.60466 167.17205 
L 334.956379 165.913136 
L 337.659825 162.774038 
L 341.714983 157.850966 
L 344.418429 155.122294 
L 345.770148 154.006159 
L 348.473594 152.175104 
L 349.825313 151.283629 
L 351.177033 149.978144 
L 353.880478 145.826797 
L 355.232198 146.193725 
L 356.583917 147.746386 
L 357.935643 146.928603 
L 363.342527 142.957393 
L 367.397686 140.056261 
L 371.452851 137.454504 
L 374.156296 135.953019 
L 376.859735 134.678752 
L 379.563181 133.664967 
L 382.26662 132.945441 
L 384.970065 132.548832 
L 387.673504 132.500215 
L 390.376949 132.812897 
L 393.080388 133.480224 
L 395.783834 134.451533 
L 397.135553 134.993992 
L 398.487273 135.356825 
L 398.487273 135.356825 
" clip-path="url(#p298528772c)" style="fill: none; stroke: #008000; stroke-width: 1.5; stroke-linecap: square"/>
   </g>
   <g id="line2d_24">
    <path d="M 73.832727 96.734763 
L 77.491592 96.848884 
L 81.150457 97.191759 
L 84.809322 97.764923 
L 88.468186 98.569912 
L 92.127051 99.609284 
L 95.785922 100.885086 
L 99.444787 102.397831 
L 103.103652 104.144447 
L 106.762517 106.116746 
L 111.336096 108.868446 
L 117.739111 112.845797 
L 118.653825 113.21733 
L 119.568547 113.362669 
L 119.568547 113.362669 
L 120.698154 113.239848 
L 122.957381 112.548468 
L 126.346216 111.390881 
L 128.605443 110.791617 
L 130.864664 110.380167 
L 133.123891 110.169325 
L 135.383112 110.165742 
L 137.64234 110.370956 
L 139.90156 110.785476 
L 142.160788 111.402651 
L 144.420009 112.211734 
L 147.808843 113.727037 
L 154.586519 117.067255 
L 156.84574 117.80111 
L 157.975353 117.991994 
L 160.234581 118.016046 
L 161.364188 117.982782 
L 163.623415 118.222283 
L 164.753029 117.789851 
L 169.271477 113.797148 
L 171.530698 112.346837 
L 172.660312 111.808984 
L 173.789926 111.400604 
L 174.919539 111.122722 
L 176.963868 110.918532 
L 177.878582 110.972266 
L 178.793297 111.137563 
L 180.622732 111.807449 
L 182.452161 112.926654 
L 184.281597 114.469592 
L 186.111026 116.392251 
L 187.940462 118.63578 
L 190.684612 122.437088 
L 195.258191 128.902074 
L 197.087627 131.446002 
L 198.917056 134.679775 
L 202.575921 141.556723 
L 203.490635 142.954323 
L 204.405357 143.691248 
L 205.320071 142.846343 
L 208.064221 138.265634 
L 208.978936 137.676094 
L 209.89365 137.907918 
L 211.723086 138.877692 
L 215.381951 141.158579 
L 219.95553 144.052035 
L 220.870251 144.463485 
L 221.784966 144.54946 
L 221.784966 144.54946 
L 223.052576 144.135963 
L 228.123009 141.507595 
L 230.658229 140.540892 
L 233.193443 139.867936 
L 235.728663 139.442156 
L 243.33431 138.486712 
L 244.60192 138.173007 
L 247.13714 139.198561 
L 248.40475 139.063458 
L 249.672354 138.031763 
L 252.207574 135.387531 
L 261.080837 125.743018 
L 264.883661 122.034337 
L 267.418881 119.840449 
L 269.954095 117.939795 
L 271.221705 117.136853 
L 272.489315 116.50279 
L 273.756925 116.370246 
L 275.024528 117.718206 
L 276.292138 119.708928 
L 277.559748 120.31945 
L 281.362572 118.598934 
L 282.630182 118.178784 
L 283.897792 117.909601 
L 286.080116 117.849215 
L 287.909552 118.112256 
L 289.738981 118.646527 
L 291.568417 119.46431 
L 293.397846 120.575327 
L 296.141996 122.641278 
L 297.056711 123.022534 
L 297.971432 122.625925 
L 299.800861 120.814828 
L 302.545011 122.699617 
L 304.374447 124.989716 
L 307.11859 128.937385 
L 309.862741 133.220765 
L 313.521605 139.403263 
L 317.18047 146.045828 
L 326.327635 163.080578 
L 327.24235 164.49046 
L 328.157071 165.695129 
L 329.071785 166.609121 
L 329.9865 167.161815 
L 330.901215 167.342464 
L 330.901215 167.342464 
L 332.252941 166.750877 
L 333.60466 165.399847 
L 336.308099 161.921968 
L 341.714983 154.292741 
L 348.473594 144.367275 
L 352.528759 138.514347 
L 353.880478 141.756819 
L 355.232198 142.996287 
L 357.935643 138.425301 
L 364.694247 126.777784 
L 368.749412 120.259575 
L 371.452851 116.242819 
L 374.156296 112.566891 
L 376.859735 109.274267 
L 379.563181 106.37467 
L 382.26662 103.857353 
L 384.970065 101.712592 
L 387.673504 99.9409 
L 390.376949 98.547906 
L 393.080388 97.544357 
L 395.783834 96.937929 
L 398.487273 96.734763 
L 398.487273 96.734763 
" clip-path="url(#p298528772c)" style="fill: none; stroke: #008000; stroke-width: 1.5; stroke-linecap: square"/>
   </g>
   <g id="line2d_25">
    <path d="M 73.832727 88.244766 
L 77.491592 88.378846 
L 81.150457 88.786714 
L 84.809322 89.48014 
L 87.553472 90.196084 
L 90.297622 91.085512 
L 93.956487 92.545546 
L 97.615351 94.314167 
L 101.274216 96.373464 
L 104.933081 98.683009 
L 111.336096 103.081534 
L 114.994961 105.451978 
L 116.824396 106.379787 
L 118.653825 106.933505 
L 119.568547 107.010268 
L 119.568547 107.010268 
L 121.827767 106.816825 
L 125.216602 106.090135 
L 128.605443 105.326598 
L 130.864664 104.962741 
L 133.123891 104.768274 
L 135.383112 104.761622 
L 137.64234 104.9479 
L 139.90156 105.323016 
L 142.160788 105.874686 
L 145.549622 107.001056 
L 148.938457 108.438061 
L 152.327291 110.131967 
L 160.234581 114.432746 
L 161.364188 114.755151 
L 162.493802 114.744916 
L 163.623415 114.371847 
L 164.753029 113.74546 
L 170.401091 109.953364 
L 172.660312 108.859746 
L 174.919539 108.192931 
L 176.963868 108.009212 
L 178.793297 108.289141 
L 180.622732 108.988708 
L 182.452161 110.085909 
L 184.281597 111.560783 
L 186.111026 113.393374 
L 187.940462 115.564234 
L 189.769891 118.047263 
L 192.514041 122.282538 
L 196.172906 128.344774 
L 197.087627 129.557119 
L 198.002342 130.472135 
L 199.831771 131.791436 
L 202.575921 133.355356 
L 206.234786 135.270851 
L 207.149507 135.677183 
L 208.064221 135.848109 
L 208.978936 135.131142 
L 209.89365 133.564663 
L 212.637801 127.910295 
L 216.296665 119.790297 
L 220.870251 109.436493 
L 221.784966 108.944698 
L 221.784966 108.944698 
L 223.052576 109.623283 
L 225.587789 113.938903 
L 229.390619 120.37779 
L 231.925833 124.29936 
L 234.461053 127.847349 
L 236.996266 130.982865 
L 239.531487 133.690043 
L 242.066707 135.969906 
L 243.33431 136.949403 
L 244.60192 137.756439 
L 245.86953 137.494421 
L 247.13714 136.767219 
L 248.40475 135.821498 
L 249.672354 134.666469 
L 252.207574 131.811395 
L 254.742794 128.472201 
L 259.813227 121.544077 
L 262.348441 118.394744 
L 264.883661 115.646114 
L 267.418881 113.385697 
L 268.686484 112.460447 
L 269.954095 111.693839 
L 271.221705 111.191297 
L 272.489315 111.917987 
L 273.756925 113.759278 
L 275.024528 114.309413 
L 280.094968 113.322752 
L 282.630182 113.179461 
L 286.080116 113.198396 
L 287.909552 113.431244 
L 289.738981 113.897963 
L 291.568417 114.599066 
L 293.397846 115.536087 
L 295.227282 116.709027 
L 297.056711 118.112256 
L 299.800861 120.552298 
L 300.715575 120.302051 
L 301.630297 121.136721 
L 302.545011 121.466291 
L 303.459726 120.567651 
L 305.289161 117.964359 
L 310.777455 109.403741 
L 317.18047 99.498745 
L 321.754056 92.756388 
L 326.327635 86.397847 
L 329.071785 82.927644 
L 329.9865 82.005463 
L 330.901215 81.582243 
L 330.901215 81.582243 
L 332.252941 82.489583 
L 333.60466 84.810898 
L 334.956379 87.847134 
L 337.659825 94.767069 
L 341.714983 105.975502 
L 347.121874 121.637216 
L 352.528759 137.573743 
L 353.880478 136.28617 
L 361.990801 124.628929 
L 367.397686 117.231016 
L 374.156296 108.346457 
L 379.563181 101.551902 
L 382.26662 98.410756 
L 384.970065 95.554146 
L 387.673504 93.065488 
L 390.376949 91.024101 
L 391.728669 90.194548 
L 393.080388 89.503169 
L 394.432108 88.957128 
L 395.783834 88.563077 
L 397.135553 88.3246 
L 398.487273 88.244766 
L 398.487273 88.244766 
" clip-path="url(#p298528772c)" style="fill: none; stroke: #008000; stroke-width: 1.5; stroke-linecap: square"/>
   </g>
   <g id="line2d_26">
    <path d="M 73.832727 53.505892 
L 74.747442 53.446528 
L 75.662163 53.267926 
L 77.491592 52.563753 
L 79.321028 51.423565 
L 81.150457 49.891374 
L 82.979892 48.021426 
L 84.809322 45.871036 
L 87.553472 42.256007 
L 91.212336 37.193738 
L 92.127051 36.121614 
L 93.041772 35.484992 
L 93.956487 35.837078 
L 94.871201 37.252078 
L 96.700637 41.423383 
L 99.444787 48.745046 
L 103.103652 59.426884 
L 106.762517 70.809313 
L 115.909682 99.707029 
L 116.824396 101.992522 
L 117.739111 103.821018 
L 118.653825 105.009311 
L 119.568547 105.420761 
L 119.568547 105.420761 
L 120.698154 105.032339 
L 121.827767 103.902387 
L 122.957381 102.151677 
L 124.086995 99.954206 
L 126.346216 94.812615 
L 137.64234 67.512083 
L 141.031174 60.226755 
L 143.290395 55.764773 
L 145.549622 51.717824 
L 146.679236 49.919009 
L 147.808843 48.395006 
L 148.938457 47.625328 
L 150.068071 48.689264 
L 152.327291 53.107747 
L 162.493802 74.418713 
L 165.882643 80.972744 
L 169.271477 86.97357 
L 171.530698 90.583481 
L 173.789926 93.828512 
L 176.049146 96.676934 
L 176.049146 96.676934 
L 177.878582 96.450227 
L 179.708011 95.806441 
L 181.537447 94.765534 
L 183.366876 93.360258 
L 185.196312 91.634112 
L 187.025747 89.63469 
L 189.769891 86.224362 
L 192.514041 82.44813 
L 197.087627 75.670463 
L 202.575921 67.361627 
L 203.490635 66.270568 
L 204.405357 66.904631 
L 206.234786 70.896823 
L 210.808372 81.758798 
L 219.95553 103.677215 
L 220.870251 105.586057 
L 221.784966 106.018489 
L 221.784966 106.018489 
L 223.052576 105.738048 
L 224.320186 103.920298 
L 226.855399 99.685535 
L 231.925833 90.542029 
L 240.799097 74.293845 
L 244.60192 67.836023 
L 247.13714 63.980981 
L 248.40475 62.320852 
L 249.672354 61.052726 
L 250.939964 60.778426 
L 252.207574 62.322387 
L 253.475184 65.005001 
L 256.010397 71.228951 
L 266.151271 96.8888 
L 269.954095 105.806111 
L 271.221705 108.441132 
L 272.489315 109.795232 
L 273.756925 109.63096 
L 276.292138 109.0885 
L 278.827358 108.757396 
L 282.630182 108.532224 
L 286.080116 108.542459 
L 287.909552 108.932416 
L 289.738981 109.697999 
L 291.568417 110.81004 
L 293.397846 112.226575 
L 295.227282 113.898475 
L 297.971432 116.767367 
L 299.800861 118.794424 
L 300.715575 119.227368 
L 301.630297 118.258106 
L 304.374447 114.526909 
L 308.033311 109.097712 
L 312.606891 101.900406 
L 319.009906 91.390005 
L 327.24235 77.694449 
L 328.157071 76.562961 
L 329.071785 77.287605 
L 329.9865 78.155027 
L 330.901215 78.563919 
L 330.901215 78.563919 
L 332.252941 78.76862 
L 336.308099 79.761935 
L 339.011544 80.12835 
L 340.363264 80.119139 
L 341.714983 79.944631 
L 343.066709 79.582821 
L 344.418429 79.017844 
L 345.770148 78.239979 
L 347.121874 77.245129 
L 348.473594 76.035855 
L 349.825313 74.621879 
L 352.528759 71.240209 
L 355.232198 67.26337 
L 360.639082 58.74881 
L 361.990801 57.735025 
L 364.694247 56.793398 
L 368.749412 55.784732 
L 374.156296 54.754571 
L 384.970065 52.980832 
L 387.673504 53.294026 
L 390.376949 53.551438 
L 394.432108 53.576002 
L 398.487273 53.505892 
L 398.487273 53.505892 
" clip-path="url(#p298528772c)" style="fill: none; stroke: #008000; stroke-width: 1.5; stroke-linecap: square"/>
   </g>
   <g id="line2d_27">
    <path d="M 73.832727 49.959438 
L 74.747442 49.898539 
L 75.662163 49.715843 
L 77.491592 48.995805 
L 79.321028 47.829006 
L 81.150457 46.258945 
L 82.979892 44.337822 
L 84.809322 42.121927 
L 87.553472 38.361048 
L 91.212336 32.783443 
L 93.041772 29.935021 
L 93.956487 30.109018 
L 94.871201 29.502589 
L 95.785922 28.419718 
L 98.530066 24.463861 
L 103.103652 17.819249 
L 105.847802 14.248742 
L 107.677231 12.13827 
L 109.506667 10.284697 
L 111.336096 8.713613 
L 113.165532 7.441393 
L 114.994961 6.479807 
L 116.824396 5.834486 
L 118.653825 5.511057 
L 120.698154 5.505428 
L 122.957381 5.801733 
L 124.086995 6.08678 
L 125.216602 6.490554 
L 126.346216 7.040689 
L 127.475829 7.766356 
L 128.605443 8.693654 
L 129.73505 9.834354 
L 130.864664 11.183849 
L 133.123891 14.409945 
L 135.383112 18.151889 
L 138.771947 24.382492 
L 143.290395 33.384754 
L 147.808843 42.526213 
L 148.938457 44.164849 
L 150.068071 44.242124 
L 151.197684 43.669983 
L 152.327291 43.38033 
L 153.456905 43.567632 
L 154.586519 44.159731 
L 156.84574 45.978504 
L 162.493802 50.983457 
L 164.753029 52.662521 
L 167.01225 54.04221 
L 169.271477 55.080047 
L 171.530698 55.744303 
L 173.789926 56.017068 
L 176.049146 55.891688 
L 176.049146 55.891688 
L 177.878582 55.716668 
L 179.708011 55.166021 
L 181.537447 54.26124 
L 183.366876 53.038149 
L 185.196312 51.546386 
L 190.684612 46.583397 
L 191.599327 46.084437 
L 192.514041 45.927329 
L 193.428756 46.223123 
L 194.343477 46.98103 
L 195.258191 48.110983 
L 197.087627 51.074549 
L 198.917056 54.561128 
L 203.490635 63.96614 
L 204.405357 64.017827 
L 206.234786 61.496928 
L 212.637801 52.217807 
L 216.296665 47.255842 
L 219.040816 43.822997 
L 220.870251 41.926437 
L 221.784966 41.432083 
L 221.784966 41.432083 
L 223.052576 41.594309 
L 225.587789 42.565106 
L 229.390619 44.039469 
L 231.925833 44.835758 
L 235.728663 45.753333 
L 239.531487 46.409913 
L 244.60192 47.11511 
L 245.86953 47.459008 
L 247.13714 48.462558 
L 248.40475 50.674358 
L 249.672354 53.229545 
L 250.939964 55.125593 
L 252.207574 55.474097 
L 256.010397 53.888684 
L 257.278007 53.590843 
L 258.545617 53.443969 
L 261.080837 53.480304 
L 263.616051 53.79708 
L 267.418881 54.542193 
L 277.559748 56.731476 
L 281.362572 57.236065 
L 283.897792 57.394197 
L 286.080116 57.367074 
L 287.909552 56.9894 
L 289.738981 56.243263 
L 291.568417 55.148622 
L 293.397846 53.73311 
L 295.227282 52.031017 
L 297.056711 50.084817 
L 299.800861 46.812151 
L 302.545011 43.307661 
L 303.459726 43.988805 
L 309.862741 52.91891 
L 315.351041 60.170462 
L 322.66877 69.400966 
L 327.24235 75.020535 
L 328.157071 75.79226 
L 329.9865 73.631635 
L 330.901215 73.129605 
L 330.901215 73.129605 
L 332.252941 72.927462 
L 333.60466 72.462278 
L 336.308099 71.121994 
L 340.363264 68.615936 
L 347.121874 64.329997 
L 351.177033 62.028128 
L 355.232198 60.021542 
L 359.287363 58.245756 
L 360.639082 57.437185 
L 361.990801 55.744815 
L 364.694247 51.674325 
L 366.045966 49.89291 
L 367.397686 48.458975 
L 368.749412 47.492272 
L 370.101131 47.041417 
L 371.452851 47.045511 
L 372.80457 47.376616 
L 375.508016 48.546485 
L 380.9149 51.170759 
L 383.618339 52.158956 
L 384.970065 52.43172 
L 386.321785 52.340628 
L 389.025223 51.73727 
L 394.432108 50.410293 
L 397.135553 50.014195 
L 398.487273 49.959438 
L 398.487273 49.959438 
" clip-path="url(#p298528772c)" style="fill: none; stroke: #008000; stroke-width: 1.5; stroke-linecap: square"/>
   </g>
   <g id="line2d_28">
    <path d="M 73.832727 32.788561 
L 75.662163 32.636058 
L 77.491592 32.183668 
L 79.321028 31.445719 
L 81.150457 30.444728 
L 82.979892 29.211401 
L 85.724043 27.007278 
L 88.468186 24.620458 
L 89.382907 24.20389 
L 90.297622 25.121465 
L 92.127051 28.392083 
L 93.041772 29.612616 
L 93.956487 28.339885 
L 102.188931 15.077272 
L 104.933081 11.092756 
L 106.762517 8.69519 
L 108.591946 6.5622 
L 110.421381 4.731656 
L 112.25081 3.224029 
L 114.080246 2.045972 
L 115.909682 1.200555 
L 117.739111 0.690336 
L 119.568547 0.519922 
L 119.568547 0.519922 
L 120.698154 0.60385 
L 121.827767 0.858703 
L 122.957381 1.291647 
L 124.086995 1.908822 
L 125.216602 2.705623 
L 127.475829 4.768502 
L 129.73505 7.274561 
L 133.123891 11.484248 
L 137.64234 17.619153 
L 145.549622 28.565568 
L 147.808843 31.355138 
L 148.938457 32.573624 
L 150.068071 33.583826 
L 151.197684 34.267529 
L 152.327291 34.493725 
L 153.456905 34.221983 
L 154.586519 33.55875 
L 156.84574 31.664749 
L 161.364188 27.636735 
L 163.623415 25.866578 
L 165.882643 24.322105 
L 168.141864 23.026856 
L 170.401091 22.014607 
L 172.660312 21.340115 
L 173.789926 21.152814 
L 174.919539 21.080656 
L 176.049146 21.135414 
L 176.049146 21.135414 
L 176.963868 21.339604 
L 178.793297 22.102629 
L 180.622732 23.305762 
L 182.452161 24.901922 
L 184.281597 26.833281 
L 187.025747 30.195504 
L 190.684612 34.78696 
L 191.599327 35.641077 
L 192.514041 36.167671 
L 193.428756 36.256205 
L 194.343477 35.900536 
L 195.258191 35.192269 
L 197.087627 33.134506 
L 199.831771 29.332175 
L 203.490635 24.07851 
L 204.405357 23.016109 
L 205.320071 22.403028 
L 206.234786 22.465462 
L 207.149507 23.005362 
L 208.978936 24.608176 
L 211.723086 27.406957 
L 216.296665 32.455409 
L 219.95553 36.557116 
L 220.870251 37.423004 
L 221.784966 37.947551 
L 223.052576 37.08934 
L 224.320186 35.838102 
L 226.855399 32.886306 
L 234.461053 23.377919 
L 235.728663 22.517149 
L 236.996266 23.40146 
L 238.263877 25.723799 
L 240.799097 31.377144 
L 245.86953 43.181258 
L 247.13714 45.293266 
L 248.40475 46.071644 
L 249.672354 46.192417 
L 250.939964 46.056291 
L 252.207574 45.728768 
L 253.475184 45.20678 
L 254.742794 44.485207 
L 256.010397 43.580938 
L 258.545617 41.39319 
L 264.883661 35.554079 
L 267.418881 33.481475 
L 269.954095 31.61255 
L 272.489315 29.940651 
L 275.024528 28.470382 
L 277.559748 27.22989 
L 280.094968 26.273934 
L 282.630182 25.665459 
L 285.165402 25.456663 
L 285.165402 25.456663 
L 286.080116 25.527285 
L 286.994831 25.73864 
L 287.909552 26.086121 
L 289.738981 27.161315 
L 291.568417 28.681224 
L 293.397846 30.559873 
L 296.141996 33.865803 
L 299.800861 38.809856 
L 302.545011 42.684345 
L 303.459726 42.134209 
L 305.289161 39.920362 
L 306.203876 38.949565 
L 307.11859 38.150206 
L 308.033311 37.609794 
L 308.948026 37.420957 
L 309.862741 37.633846 
L 310.777455 38.224922 
L 311.692176 39.11435 
L 313.521605 41.461253 
L 316.265756 45.676058 
L 320.839335 53.328825 
L 328.157071 65.676422 
L 329.071785 67.058157 
L 329.9865 68.203462 
L 330.901215 68.712657 
L 330.901215 68.712657 
L 332.252941 67.787918 
L 333.60466 65.539783 
L 336.308099 59.620327 
L 344.418429 40.814908 
L 347.121874 34.965562 
L 349.825313 29.59317 
L 351.177033 27.271854 
L 352.528759 25.524215 
L 353.880478 24.830788 
L 355.232198 25.212557 
L 356.583917 26.152649 
L 363.342527 31.924208 
L 364.694247 32.795214 
L 366.045966 33.407783 
L 367.397686 33.649331 
L 368.749412 33.411365 
L 370.101131 32.652434 
L 371.452851 31.440089 
L 372.80457 29.90841 
L 376.859735 24.57747 
L 379.563181 21.168678 
L 380.9149 19.75419 
L 382.26662 19.461979 
L 390.376949 28.454006 
L 391.728669 29.657139 
L 393.080388 30.709305 
L 394.432108 31.58031 
L 395.783834 32.237402 
L 397.135553 32.64834 
L 398.487273 32.788561 
L 398.487273 32.788561 
" clip-path="url(#p298528772c)" style="fill: none; stroke: #008000; stroke-width: 1.5; stroke-linecap: square"/>
   </g>
   <g id="line2d_29">
    <path d="M 73.832727 30.337772 
L 75.662163 30.179128 
L 77.491592 29.708314 
L 79.321028 28.941195 
L 81.150457 27.901823 
L 82.979892 26.621415 
L 85.724043 24.326199 
L 88.468186 21.696296 
L 89.382907 22.132822 
L 90.297622 22.082159 
L 92.127051 20.401047 
L 96.700637 15.482069 
L 103.103652 8.61075 
L 106.762517 4.95734 
L 109.506667 2.474822 
L 111.336096 1.011717 
L 113.165532 -0.239009 
L 114.541207 -1 
M 124.710074 -1 
L 130.864664 1.629916 
L 134.253498 2.576149 
L 139.90156 3.777235 
L 150.068071 5.927625 
L 161.364188 8.342591 
L 164.753029 8.825687 
L 168.141864 9.055976 
L 171.530698 8.992519 
L 173.789926 8.778094 
L 179.708011 7.869219 
L 181.537447 7.281726 
L 184.281597 6.076033 
L 186.111026 5.265927 
L 187.025747 5.036661 
L 187.940462 5.074019 
L 188.855176 5.403077 
L 190.684612 6.586764 
L 193.428756 8.853833 
L 198.002342 13.005692 
L 202.575921 17.162669 
L 203.490635 17.879636 
L 204.405357 18.410836 
L 205.320071 18.497835 
L 206.234786 17.918529 
L 207.149507 16.875063 
L 209.89365 12.968846 
L 215.381951 5.014656 
L 218.126101 1.411909 
L 219.95553 -0.65353 
L 220.357927 -1 
M 223.499017 -1 
L 224.320186 -0.338289 
L 225.587789 1.043446 
L 226.855399 2.694364 
L 229.390619 6.622075 
L 231.925833 11.170031 
L 234.461053 15.959536 
L 235.728663 17.888848 
L 236.996266 18.206647 
L 238.263877 17.232267 
L 240.799097 14.783525 
L 242.066707 13.694513 
L 243.33431 12.773868 
L 244.60192 12.044107 
L 245.86953 11.509836 
L 247.13714 11.160308 
L 248.40475 10.971983 
L 250.939964 10.958165 
L 254.742794 11.401856 
L 258.545617 11.833776 
L 261.080837 11.894675 
L 263.616051 11.682297 
L 266.151271 11.174125 
L 268.686484 10.403424 
L 272.489315 8.935714 
L 277.559748 6.981838 
L 280.094968 6.24133 
L 282.630182 5.761817 
L 285.165402 5.594985 
L 285.165402 5.594985 
L 286.994831 5.721388 
L 288.824267 6.157914 
L 290.653696 6.984397 
L 292.483131 8.204418 
L 294.31256 9.77499 
L 296.141996 11.641357 
L 298.886146 14.877688 
L 302.545011 19.684592 
L 305.289161 23.231558 
L 307.11859 25.132211 
L 308.033311 25.744781 
L 308.948026 26.012428 
L 309.862741 25.883978 
L 310.777455 25.385018 
L 311.692176 24.595382 
L 313.521605 22.474162 
L 316.265756 18.681042 
L 323.583485 8.247917 
L 325.412921 5.92916 
L 327.24235 3.914385 
L 328.157071 3.087903 
L 329.071785 2.437464 
L 329.9865 2.015267 
L 330.901215 1.867882 
L 330.901215 1.867882 
L 332.252941 2.02192 
L 333.60466 2.465098 
L 334.956379 3.149313 
L 336.308099 4.021854 
L 339.011544 6.159961 
L 341.714983 8.630709 
L 349.825313 16.565964 
L 351.177033 17.601242 
L 352.528759 18.138072 
L 353.880478 17.694381 
L 355.232198 16.247141 
L 357.935643 12.230385 
L 360.639082 8.140448 
L 363.342527 4.525419 
L 364.694247 3.053615 
L 366.045966 2.023967 
L 367.397686 1.87914 
L 368.749412 2.743492 
L 370.101131 4.080705 
L 372.80457 7.206498 
L 378.211455 14.016918 
L 380.9149 17.414452 
L 382.26662 18.317185 
L 383.618339 18.124254 
L 384.970065 18.846339 
L 386.321785 20.265432 
L 390.376949 25.221768 
L 391.728669 26.677708 
L 393.080388 27.937646 
L 394.432108 28.961665 
L 395.783834 29.718038 
L 397.135553 30.181687 
L 398.487273 30.337772 
L 398.487273 30.337772 
" clip-path="url(#p298528772c)" style="fill: none; stroke: #008000; stroke-width: 1.5; stroke-linecap: square"/>
   </g>
   <g id="line2d_30">
    <path d="M 73.832727 5.957307 
L 74.747442 6.021788 
L 75.662163 6.214207 
L 76.576877 6.534053 
L 77.491592 6.979791 
L 79.321028 8.240752 
L 81.150457 9.976621 
L 82.979892 12.160275 
L 84.809322 14.754355 
L 86.638757 17.707175 
L 88.468186 20.86009 
L 89.382907 20.752622 
L 93.956487 15.848485 
L 103.103652 5.942977 
L 107.677231 1.334634 
L 110.208483 -1 
M 181.48535 -1 
L 182.452161 -0.523544 
L 186.111026 1.412932 
L 187.025747 1.682115 
L 187.940462 1.670856 
L 188.855176 1.355104 
L 190.684612 0.166812 
L 192.112137 -1 
M 273.356115 -1 
L 275.024528 -0.056825 
L 277.559748 1.133003 
L 280.094968 2.013731 
L 282.630182 2.558749 
L 285.165402 2.745028 
L 285.165402 2.745028 
L 286.994831 2.68157 
L 288.824267 2.433881 
L 290.653696 1.918545 
L 292.483131 1.127374 
L 294.31256 0.09926 
L 295.967536 -1 
M 372.508824 -1 
L 372.80457 -0.85209 
L 374.156296 0.270698 
L 375.508016 1.759902 
L 378.211455 5.416383 
L 380.9149 9.285242 
L 382.26662 10.924901 
L 383.618339 11.904398 
L 384.970065 11.892628 
L 386.321785 11.213019 
L 390.376949 8.522217 
L 393.080388 7.123594 
L 394.432108 6.617981 
L 395.783834 6.252589 
L 397.135553 6.031511 
L 398.487273 5.957307 
L 398.487273 5.957307 
" clip-path="url(#p298528772c)" style="fill: none; stroke: #008000; stroke-width: 1.5; stroke-linecap: square"/>
   </g>
   <g id="line2d_31">
    <path d="M 0 0 
" clip-path="url(#p298528772c)" style="fill: none; stroke: #008000; stroke-width: 1.5; stroke-linecap: square"/>
   </g>
   <g id="line2d_32">
    <path d="M 0 0 
" clip-path="url(#p298528772c)" style="fill: none; stroke: #008000; stroke-width: 1.5; stroke-linecap: square"/>
   </g>
   <g id="line2d_33">
    <path d="M 0 0 
" clip-path="url(#p298528772c)" style="fill: none; stroke: #008000; stroke-width: 1.5; stroke-linecap: square"/>
   </g>
   <g id="line2d_34">
    <path d="M 0 0 
" clip-path="url(#p298528772c)" style="fill: none; stroke: #008000; stroke-width: 1.5; stroke-linecap: square"/>
   </g>
   <g id="line2d_35">
    <path d="M 0 0 
" clip-path="url(#p298528772c)" style="fill: none; stroke: #008000; stroke-width: 1.5; stroke-linecap: square"/>
   </g>
   <g id="line2d_36">
    <path d="M 0 0 
" clip-path="url(#p298528772c)" style="fill: none; stroke: #008000; stroke-width: 1.5; stroke-linecap: square"/>
   </g>
   <g id="line2d_37">
    <path d="M 0 0 
" clip-path="url(#p298528772c)" style="fill: none; stroke: #008000; stroke-width: 1.5; stroke-linecap: square"/>
   </g>
   <g id="line2d_38">
    <path d="M 0 0 
" clip-path="url(#p298528772c)" style="fill: none; stroke: #008000; stroke-width: 1.5; stroke-linecap: square"/>
   </g>
   <g id="line2d_39">
    <path d="M 0 0 
" clip-path="url(#p298528772c)" style="fill: none; stroke: #008000; stroke-width: 1.5; stroke-linecap: square"/>
   </g>
   <g id="line2d_40">
    <path d="M 0 0 
" clip-path="url(#p298528772c)" style="fill: none; stroke: #008000; stroke-width: 1.5; stroke-linecap: square"/>
   </g>
   <g id="line2d_41">
    <path d="M 0 0 
" clip-path="url(#p298528772c)" style="fill: none; stroke: #008000; stroke-width: 1.5; stroke-linecap: square"/>
   </g>
   <g id="line2d_42">
    <path d="M 0 0 
" clip-path="url(#p298528772c)" style="fill: none; stroke: #008000; stroke-width: 1.5; stroke-linecap: square"/>
   </g>
   <g id="line2d_43">
    <path d="M 0 0 
" clip-path="url(#p298528772c)" style="fill: none; stroke: #008000; stroke-width: 1.5; stroke-linecap: square"/>
   </g>
   <g id="line2d_44">
    <path d="M 0 0 
" clip-path="url(#p298528772c)" style="fill: none; stroke: #008000; stroke-width: 1.5; stroke-linecap: square"/>
   </g>
   <g id="line2d_45">
    <path d="M 0 0 
" clip-path="url(#p298528772c)" style="fill: none; stroke: #008000; stroke-width: 1.5; stroke-linecap: square"/>
   </g>
   <g id="line2d_46">
    <path d="M 0 0 
" clip-path="url(#p298528772c)" style="fill: none; stroke: #008000; stroke-width: 1.5; stroke-linecap: square"/>
   </g>
   <g id="line2d_47">
    <path d="M 0 0 
" clip-path="url(#p298528772c)" style="fill: none; stroke: #008000; stroke-width: 1.5; stroke-linecap: square"/>
   </g>
   <g id="line2d_48">
    <path d="M 0 0 
" clip-path="url(#p298528772c)" style="fill: none; stroke: #008000; stroke-width: 1.5; stroke-linecap: square"/>
   </g>
   <g id="line2d_49">
    <path d="M 0 0 
" clip-path="url(#p298528772c)" style="fill: none; stroke: #008000; stroke-width: 1.5; stroke-linecap: square"/>
   </g>
   <g id="line2d_50">
    <path d="M 0 0 
" clip-path="url(#p298528772c)" style="fill: none; stroke: #008000; stroke-width: 1.5; stroke-linecap: square"/>
   </g>
   <g id="line2d_51">
    <path d="M 0 0 
" clip-path="url(#p298528772c)" style="fill: none; stroke: #008000; stroke-width: 1.5; stroke-linecap: square"/>
   </g>
   <g id="line2d_52">
    <path d="M 0 0 
" clip-path="url(#p298528772c)" style="fill: none; stroke: #008000; stroke-width: 1.5; stroke-linecap: square"/>
   </g>
   <g id="line2d_53">
    <path d="M 0 0 
" clip-path="url(#p298528772c)" style="fill: none; stroke: #008000; stroke-width: 1.5; stroke-linecap: square"/>
   </g>
   <g id="line2d_54">
    <path d="M 0 0 
" clip-path="url(#p298528772c)" style="fill: none; stroke: #008000; stroke-width: 1.5; stroke-linecap: square"/>
   </g>
   <g id="line2d_55">
    <path d="M 0 0 
" clip-path="url(#p298528772c)" style="fill: none; stroke: #008000; stroke-width: 1.5; stroke-linecap: square"/>
   </g>
   <g id="line2d_56">
    <path d="M 0 0 
" clip-path="url(#p298528772c)" style="fill: none; stroke: #008000; stroke-width: 1.5; stroke-linecap: square"/>
   </g>
   <g id="line2d_57">
    <path d="M 0 0 
" clip-path="url(#p298528772c)" style="fill: none; stroke: #008000; stroke-width: 1.5; stroke-linecap: square"/>
   </g>
   <g id="line2d_58">
    <path d="M 0 0 
" clip-path="url(#p298528772c)" style="fill: none; stroke: #008000; stroke-width: 1.5; stroke-linecap: square"/>
   </g>
   <g id="line2d_59">
    <path d="M 0 0 
" clip-path="url(#p298528772c)" style="fill: none; stroke: #008000; stroke-width: 1.5; stroke-linecap: square"/>
   </g>
   <g id="line2d_60">
    <path d="M 0 0 
" clip-path="url(#p298528772c)" style="fill: none; stroke: #008000; stroke-width: 1.5; stroke-linecap: square"/>
   </g>
   <g id="patch_3">
    <path d="M 57.6 307.584 
L 57.6 41.472 
" style="fill: none; stroke: #000000; stroke-width: 0.8; stroke-linejoin: miter; stroke-linecap: square"/>
   </g>
   <g id="patch_4">
    <path d="M 414.72 307.584 
L 414.72 41.472 
" style="fill: none; stroke: #000000; stroke-width: 0.8; stroke-linejoin: miter; stroke-linecap: square"/>
   </g>
   <g id="patch_5">
    <path d="M 57.6 307.584 
L 414.72 307.584 
" style="fill: none; stroke: #000000; stroke-width: 0.8; stroke-linejoin: miter; stroke-linecap: square"/>
   </g>
   <g id="patch_6">
    <path d="M 57.6 41.472 
L 414.72 41.472 
" style="fill: none; stroke: #000000; stroke-width: 0.8; stroke-linejoin: miter; stroke-linecap: square"/>
   </g>
  </g>
 </g>
 <defs>
  <clipPath id="p298528772c">
   <rect x="57.6" y="41.472" width="357.12" height="266.112"/>
  </clipPath>
 </defs>
</svg>
