<?xml version="1.0" encoding="UTF-8" standalone="no"?>
<!DOCTYPE svg PUBLIC "-//W3C//DTD SVG 1.1//EN" "http://www.w3.org/Graphics/SVG/1.1/DTD/svg11.dtd">
<svg xmlns:xlink="http://www.w3.org/1999/xlink" width="280.512pt" height="280.512pt" viewBox="0 0 280.512 280.512" xmlns="http://www.w3.org/2000/svg" version="1.1">
 <metadata>
  <rdf:RDF xmlns:dc="http://purl.org/dc/elements/1.1/" xmlns:cc="http://creativecommons.org/ns#" xmlns:rdf="http://www.w3.org/1999/02/22-rdf-syntax-ns#">
   <cc:Work>
    <dc:type rdf:resource="http://purl.org/dc/dcmitype/StillImage"/>
    <dc:date>2024-06-18T16:10:45.042067</dc:date>
    <dc:format>image/svg+xml</dc:format>
    <dc:creator>
     <cc:Agent>
      <dc:title>Matplotlib v3.9.0, https://matplotlib.org/</dc:title>
     </cc:Agent>
    </dc:creator>
   </cc:Work>
  </rdf:RDF>
 </metadata>
 <defs>
  <style type="text/css">*{stroke-linejoin: round; stroke-linecap: butt}</style>
 </defs>
 <g id="figure_1">
  <g id="patch_1">
   <path d="M 0 280.512  L 280.512 280.512  L 280.512 0  L 0 0  z " style="fill: #ffffff"/>
  </g>
  <g id="patch_2">
   <path d="M 7.2 273.312  L 273.312 273.312  L 273.312 7.2  L 7.2 7.2  z " style="fill: #ffffff"/>
  </g>
  <g id="axes_1">
   <g id="line2d_1">
    <path d="M 56.408796 71.454465  L 92.171105 111.616195  L 92.171105 232.836387  L 56.408796 192.674656  L 56.408796 71.454465  " clip-path="url(#pe3d97024f6)" style="fill: none; stroke: #000000; stroke-width: 1.5; stroke-linecap: square"/>
   </g>
   <g id="line2d_2">
    <path d="M 92.171105 111.616195  L 179.614417 116.211527  L 179.614417 237.431718  L 92.171105 232.836387  L 92.171105 111.616195  " clip-path="url(#pe3d97024f6)" style="fill: none; stroke: #000000; stroke-width: 1.5; stroke-linecap: square"/>
   </g>
   <g id="line2d_3">
    <path d="M 231.29542 201.865319  L 179.614417 237.431718  L 179.614417 116.211527  L 231.29542 80.645127  L 231.29542 201.865319  " clip-path="url(#pe3d97024f6)" style="fill: none; stroke: #000000; stroke-width: 1.5; stroke-linecap: square"/>
   </g>
   <g id="line2d_4">
    <path d="M 108.089799 35.888066  L 56.408796 71.454465  L 92.171105 111.616195  L 179.614417 116.211527  L 231.29542 80.645127  L 195.533111 40.483397  L 108.089799 35.888066  " clip-path="url(#pe3d97024f6)" style="fill: none; stroke: #000000; stroke-width: 1.5; stroke-linecap: square"/>
   </g>
   <g id="line2d_5">
    <path d="M 231.29542 201.865319  L 179.614417 237.431718  L 92.171105 232.836387  L 56.408796 192.674656  L 108.089799 157.108257  L 195.533111 161.703588  L 231.29542 201.865319  " clip-path="url(#pe3d97024f6)" style="fill: none; stroke-dasharray: 1.5,2.475; stroke-dashoffset: 0; stroke: #000000; stroke-width: 1.5"/>
   </g>
   <g id="line2d_6">
    <path d="M 108.089799 35.888066  L 195.533111 40.483397  L 195.533111 161.703588  L 108.089799 157.108257  L 108.089799 35.888066  " clip-path="url(#pe3d97024f6)" style="fill: none; stroke-dasharray: 1.5,2.475; stroke-dashoffset: 0; stroke: #000000; stroke-width: 1.5"/>
   </g>
   <g id="line2d_7">
    <path d="M 108.089799 35.888066  L 56.408796 71.454465  L 56.408796 192.674656  L 108.089799 157.108257  L 108.089799 35.888066  " clip-path="url(#pe3d97024f6)" style="fill: none; stroke-dasharray: 1.5,2.475; stroke-dashoffset: 0; stroke: #000000; stroke-width: 1.5"/>
   </g>
   <g id="line2d_8">
    <path d="M 231.29542 80.645127  L 195.533111 40.483397  L 195.533111 161.703588  L 231.29542 201.865319  L 231.29542 80.645127  " clip-path="url(#pe3d97024f6)" style="fill: none; stroke-dasharray: 1.5,2.475; stroke-dashoffset: 0; stroke: #000000; stroke-width: 1.5"/>
   </g>
   <g id="line2d_9">
    <path d="M 143.852108 136.659892  L 74.28995 152.145426  L 92.171105 172.226291  L 143.852108 136.659892  L 143.852108 76.049796  L 74.28995 91.53533  L 92.171105 111.616195  L 143.852108 76.049796  " clip-path="url(#pe3d97024f6)" style="fill: none; stroke: #ff0000; stroke-width: 1.5; stroke-linecap: square"/>
   </g>
   <g id="line2d_10">
    <path d="M 74.28995 91.53533  L 74.28995 152.145426  " clip-path="url(#pe3d97024f6)" style="fill: none; stroke: #ff0000; stroke-width: 1.5; stroke-linecap: square"/>
   </g>
   <g id="line2d_11">
    <path d="M 92.171105 172.226291  L 92.171105 111.616195  " clip-path="url(#pe3d97024f6)" style="fill: none; stroke: #ff0000; stroke-width: 1.5; stroke-linecap: square"/>
   </g>
   <g id="patch_3">
    <path d="M 141.903315 137.093721  Q 74.293047 152.144737 7.774098 166.952809  " clip-path="url(#pe3d97024f6)" style="fill: none; stroke: #000000; stroke-linecap: round"/>
    <path d="M 16.452126 169.118871  L 7.774098 166.952809  L 14.713765 161.310023  z " clip-path="url(#pe3d97024f6)" style="stroke: #000000; stroke-linecap: round"/>
   </g>
   <g id="Path3DCollection_1">
    <defs>
     <path id="C0_0_69889fb52f" d="M 0 1.118034  C 0.296506 1.118034 0.580908 1.000231 0.790569 0.790569  C 1.000231 0.580908 1.118034 0.296506 1.118034 -0  C 1.118034 -0.296506 1.000231 -0.580908 0.790569 -0.790569  C 0.580908 -1.000231 0.296506 -1.118034 0 -1.118034  C -0.296506 -1.118034 -0.580908 -1.000231 -0.790569 -0.790569  C -1.000231 -0.580908 -1.118034 -0.296506 -1.118034 0  C -1.118034 0.296506 -1.000231 0.580908 -0.790569 0.790569  C -0.580908 1.000231 -0.296506 1.118034 0 1.118034  z "/>
    </defs>
    <g clip-path="url(#pe3d97024f6)">
     <use xlink:href="#C0_0_69889fb52f" x="143.852108" y="136.659892" style="fill: #0000ff; fill-opacity: 0.3; stroke: #0000ff; stroke-opacity: 0.3"/>
    </g>
    <g clip-path="url(#pe3d97024f6)">
     <use xlink:href="#C0_0_69889fb52f" x="143.852108" y="136.659892" style="fill: #0000ff; fill-opacity: 0.3; stroke: #0000ff; stroke-opacity: 0.3"/>
    </g>
    <g clip-path="url(#pe3d97024f6)">
     <use xlink:href="#C0_0_69889fb52f" x="143.852108" y="106.354844" style="fill: #0000ff; fill-opacity: 0.426792; stroke: #0000ff; stroke-opacity: 0.426792"/>
    </g>
    <g clip-path="url(#pe3d97024f6)">
     <use xlink:href="#C0_0_69889fb52f" x="74.28995" y="152.145426" style="fill: #0000ff; fill-opacity: 0.494368; stroke: #0000ff; stroke-opacity: 0.494368"/>
    </g>
    <g clip-path="url(#pe3d97024f6)">
     <use xlink:href="#C0_0_69889fb52f" x="74.28995" y="152.145426" style="fill: #0000ff; fill-opacity: 0.494368; stroke: #0000ff; stroke-opacity: 0.494368"/>
    </g>
    <g clip-path="url(#pe3d97024f6)">
     <use xlink:href="#C0_0_69889fb52f" x="118.011607" y="154.443092" style="fill: #0000ff; fill-opacity: 0.523208; stroke: #0000ff; stroke-opacity: 0.523208"/>
    </g>
    <g clip-path="url(#pe3d97024f6)">
     <use xlink:href="#C0_0_69889fb52f" x="143.852108" y="76.049796" style="fill: #0000ff; fill-opacity: 0.553585; stroke: #0000ff; stroke-opacity: 0.553585"/>
    </g>
    <g clip-path="url(#pe3d97024f6)">
     <use xlink:href="#C0_0_69889fb52f" x="143.852108" y="76.049796" style="fill: #0000ff; fill-opacity: 0.553585; stroke: #0000ff; stroke-opacity: 0.553585"/>
    </g>
    <g clip-path="url(#pe3d97024f6)">
     <use xlink:href="#C0_0_69889fb52f" x="74.28995" y="121.840378" style="fill: #0000ff; fill-opacity: 0.621161; stroke: #0000ff; stroke-opacity: 0.621161"/>
    </g>
    <g clip-path="url(#pe3d97024f6)">
     <use xlink:href="#C0_0_69889fb52f" x="109.071029" y="83.792563" style="fill: #0000ff; fill-opacity: 0.650769; stroke: #0000ff; stroke-opacity: 0.650769"/>
    </g>
    <g clip-path="url(#pe3d97024f6)">
     <use xlink:href="#C0_0_69889fb52f" x="126.625107" y="87.905263" style="fill: #0000ff; fill-opacity: 0.70239; stroke: #0000ff; stroke-opacity: 0.70239"/>
    </g>
    <g clip-path="url(#pe3d97024f6)">
     <use xlink:href="#C0_0_69889fb52f" x="92.171105" y="172.226291" style="fill: #0000ff; fill-opacity: 0.746415; stroke: #0000ff; stroke-opacity: 0.746415"/>
    </g>
    <g clip-path="url(#pe3d97024f6)">
     <use xlink:href="#C0_0_69889fb52f" x="92.171105" y="172.226291" style="fill: #0000ff; fill-opacity: 0.746415; stroke: #0000ff; stroke-opacity: 0.746415"/>
    </g>
    <g clip-path="url(#pe3d97024f6)">
     <use xlink:href="#C0_0_69889fb52f" x="74.28995" y="91.53533" style="fill: #0000ff; fill-opacity: 0.747953; stroke: #0000ff; stroke-opacity: 0.747953"/>
    </g>
    <g clip-path="url(#pe3d97024f6)">
     <use xlink:href="#C0_0_69889fb52f" x="74.28995" y="91.53533" style="fill: #0000ff; fill-opacity: 0.747953; stroke: #0000ff; stroke-opacity: 0.747953"/>
    </g>
    <g clip-path="url(#pe3d97024f6)">
     <use xlink:href="#C0_0_69889fb52f" x="109.398106" y="99.760729" style="fill: #0000ff; fill-opacity: 0.851195; stroke: #0000ff; stroke-opacity: 0.851195"/>
    </g>
    <g clip-path="url(#pe3d97024f6)">
     <use xlink:href="#C0_0_69889fb52f" x="92.171105" y="141.921243" style="fill: #0000ff; fill-opacity: 0.873208; stroke: #0000ff; stroke-opacity: 0.873208"/>
    </g>
    <g clip-path="url(#pe3d97024f6)">
     <use xlink:href="#C0_0_69889fb52f" x="92.171105" y="111.616195" style="fill: #0000ff; stroke: #0000ff"/>
    </g>
    <g clip-path="url(#pe3d97024f6)">
     <use xlink:href="#C0_0_69889fb52f" x="92.171105" y="111.616195" style="fill: #0000ff; stroke: #0000ff"/>
    </g>
   </g>
   <g id="text_1">
    <!-- $\mathrm{\Gamma}$ -->
    <g style="fill: #008000" transform="translate(141.052108 134.580204) scale(0.1 -0.1)">
     <defs>
      <path id="DejaVuSans-393" d="M 628 0  L 628 4666  L 3531 4666  L 3531 4134  L 1259 4134  L 1259 0  L 628 0  z " transform="scale(0.015625)"/>
     </defs>
     <use xlink:href="#DejaVuSans-393" transform="translate(0 0.09375)"/>
    </g>
   </g>
   <g id="text_2">
    <!-- $\mathrm{M}$ -->
    <g style="fill: #008000" transform="translate(69.93995 150.065738) scale(0.1 -0.1)">
     <defs>
      <path id="DejaVuSans-4d" d="M 628 4666  L 1569 4666  L 2759 1491  L 3956 4666  L 4897 4666  L 4897 0  L 4281 0  L 4281 4097  L 3078 897  L 2444 897  L 1241 4097  L 1241 0  L 628 0  L 628 4666  z " transform="scale(0.015625)"/>
     </defs>
     <use xlink:href="#DejaVuSans-4d" transform="translate(0 0.09375)"/>
    </g>
   </g>
   <g id="text_3">
    <!-- $\mathrm{K}$ -->
    <g style="fill: #008000" transform="translate(88.871105 170.146604) scale(0.1 -0.1)">
     <defs>
      <path id="DejaVuSans-4b" d="M 628 4666  L 1259 4666  L 1259 2694  L 3353 4666  L 4166 4666  L 1850 2491  L 4331 0  L 3500 0  L 1259 2247  L 1259 0  L 628 0  L 628 4666  z " transform="scale(0.015625)"/>
     </defs>
     <use xlink:href="#DejaVuSans-4b" transform="translate(0 0.09375)"/>
    </g>
   </g>
   <g id="text_4">
    <!-- $\mathrm{\Gamma}$ -->
    <g style="fill: #008000" transform="translate(141.052108 134.580204) scale(0.1 -0.1)">
     <use xlink:href="#DejaVuSans-393" transform="translate(0 0.09375)"/>
    </g>
   </g>
   <g id="text_5">
    <!-- $\mathrm{A}$ -->
    <g style="fill: #008000" transform="translate(140.402108 73.970109) scale(0.1 -0.1)">
     <defs>
      <path id="DejaVuSans-41" d="M 2188 4044  L 1331 1722  L 3047 1722  L 2188 4044  z M 1831 4666  L 2547 4666  L 4325 0  L 3669 0  L 3244 1197  L 1141 1197  L 716 0  L 50 0  L 1831 4666  z " transform="scale(0.015625)"/>
     </defs>
     <use xlink:href="#DejaVuSans-41" transform="translate(0 0.09375)"/>
    </g>
   </g>
   <g id="text_6">
    <!-- $\mathrm{L}$ -->
    <g style="fill: #008000" transform="translate(71.48995 89.455643) scale(0.1 -0.1)">
     <defs>
      <path id="DejaVuSans-4c" d="M 628 4666  L 1259 4666  L 1259 531  L 3531 531  L 3531 0  L 628 0  L 628 4666  z " transform="scale(0.015625)"/>
     </defs>
     <use xlink:href="#DejaVuSans-4c" transform="translate(0 0.09375)"/>
    </g>
   </g>
   <g id="text_7">
    <!-- $\mathrm{H}$ -->
    <g style="fill: #008000" transform="translate(88.371105 109.536508) scale(0.1 -0.1)">
     <defs>
      <path id="DejaVuSans-48" d="M 628 4666  L 1259 4666  L 1259 2753  L 3553 2753  L 3553 4666  L 4184 4666  L 4184 0  L 3553 0  L 3553 2222  L 1259 2222  L 1259 0  L 628 0  L 628 4666  z " transform="scale(0.015625)"/>
     </defs>
     <use xlink:href="#DejaVuSans-48" transform="translate(0 0.09375)"/>
    </g>
   </g>
   <g id="text_8">
    <!-- $\mathrm{A}$ -->
    <g style="fill: #008000" transform="translate(140.402108 73.970109) scale(0.1 -0.1)">
     <use xlink:href="#DejaVuSans-41" transform="translate(0 0.09375)"/>
    </g>
   </g>
   <g id="text_9">
    <!-- $\mathrm{L}$ -->
    <g style="fill: #008000" transform="translate(71.48995 89.455643) scale(0.1 -0.1)">
     <use xlink:href="#DejaVuSans-4c" transform="translate(0 0.09375)"/>
    </g>
   </g>
   <g id="text_10">
    <!-- $\mathrm{M}$ -->
    <g style="fill: #008000" transform="translate(69.93995 150.065738) scale(0.1 -0.1)">
     <use xlink:href="#DejaVuSans-4d" transform="translate(0 0.09375)"/>
    </g>
   </g>
   <g id="text_11">
    <!-- $\mathrm{K}$ -->
    <g style="fill: #008000" transform="translate(88.871105 170.146604) scale(0.1 -0.1)">
     <use xlink:href="#DejaVuSans-4b" transform="translate(0 0.09375)"/>
    </g>
   </g>
   <g id="text_12">
    <!-- $\mathrm{H}$ -->
    <g style="fill: #008000" transform="translate(88.371105 109.536508) scale(0.1 -0.1)">
     <use xlink:href="#DejaVuSans-48" transform="translate(0 0.09375)"/>
    </g>
   </g>
   <g id="patch_4">
    <path d="M 144.263095 134.704753  Q 151.811082 98.797605 159.129075 63.984579  " clip-path="url(#pe3d97024f6)" style="fill: none; stroke: #000000; stroke-linecap: round"/>
    <path d="M 153.568924 70.990628  L 159.129075 63.984579  L 161.397823 72.636329  z " clip-path="url(#pe3d97024f6)" style="stroke: #000000; stroke-linecap: round"/>
   </g>
   <g id="patch_5">
    <path d="M 143.852108 138.661238  Q 143.852108 197.271956 143.852108 254.764639  " clip-path="url(#pe3d97024f6)" style="fill: none; stroke: #000000; stroke-linecap: round"/>
    <path d="M 147.852108 246.764639  L 143.852108 254.764639  L 139.852108 246.764639  z " clip-path="url(#pe3d97024f6)" style="stroke: #000000; stroke-linecap: round"/>
   </g>
  </g>
 </g>
 <defs>
  <clipPath id="pe3d97024f6">
   <rect x="7.2" y="7.2" width="266.112" height="266.112"/>
  </clipPath>
 </defs>
</svg>