<?xml version="1.0" encoding="utf-8" standalone="no"?>
<!DOCTYPE svg PUBLIC "-//W3C//DTD SVG 1.1//EN"
  "http://www.w3.org/Graphics/SVG/1.1/DTD/svg11.dtd">
<svg xmlns:xlink="http://www.w3.org/1999/xlink" width="504pt" height="288pt" viewBox="0 0 504 288" xmlns="http://www.w3.org/2000/svg" version="1.1">
 <metadata>
  <rdf:RDF xmlns:dc="http://purl.org/dc/elements/1.1/" xmlns:cc="http://creativecommons.org/ns#" xmlns:rdf="http://www.w3.org/1999/02/22-rdf-syntax-ns#">
   <cc:Work>
    <dc:type rdf:resource="http://purl.org/dc/dcmitype/StillImage"/>
    <dc:date>2024-01-21T02:19:08.857952</dc:date>
    <dc:format>image/svg+xml</dc:format>
    <dc:creator>
     <cc:Agent>
      <dc:title>Matplotlib v3.8.2, https://matplotlib.org/</dc:title>
     </cc:Agent>
    </dc:creator>
   </cc:Work>
  </rdf:RDF>
 </metadata>
 <defs>
  <style type="text/css">*{stroke-linejoin: round; stroke-linecap: butt}</style>
 </defs>
 <g id="figure_1">
  <g id="patch_1">
   <path d="M 0 288 
L 504 288 
L 504 0 
L 0 0 
z
" style="fill: #ffffff"/>
  </g>
  <g id="axes_1">
   <g id="patch_2">
    <path d="M 60.48 267.84 
L 398.16 267.84 
L 398.16 23.04 
L 60.48 23.04 
z
" style="fill: #ffffff"/>
   </g>
   <g id="matplotlib.axis_1">
    <g id="xtick_1">
     <g id="line2d_1">
      <defs>
       <path id="m48315007fd" d="M 0 0 
L 0 3.5 
" style="stroke: #000000; stroke-width: 0.8"/>
      </defs>
      <g>
       <use xlink:href="#m48315007fd" x="60.48" y="267.84" style="stroke: #000000; stroke-width: 0.8"/>
      </g>
     </g>
     <g id="text_1">
      <!-- $\Gamma$ -->
      <g transform="translate(57.68 282.438438) scale(0.1 -0.1)">
       <defs>
        <path id="DejaVuSans-393" d="M 628 0 
L 628 4666 
L 3531 4666 
L 3531 4134 
L 1259 4134 
L 1259 0 
L 628 0 
z
" transform="scale(0.015625)"/>
       </defs>
       <use xlink:href="#DejaVuSans-393" transform="translate(0 0.09375)"/>
      </g>
     </g>
    </g>
    <g id="xtick_2">
     <g id="line2d_2">
      <g>
       <use xlink:href="#m48315007fd" x="101.553013" y="267.84" style="stroke: #000000; stroke-width: 0.8"/>
      </g>
     </g>
     <g id="text_2">
      <!-- M -->
      <g transform="translate(97.23895 282.438438) scale(0.1 -0.1)">
       <defs>
        <path id="DejaVuSans-4d" d="M 628 4666 
L 1569 4666 
L 2759 1491 
L 3956 4666 
L 4897 4666 
L 4897 0 
L 4281 0 
L 4281 4097 
L 3078 897 
L 2444 897 
L 1241 4097 
L 1241 0 
L 628 0 
L 628 4666 
z
" transform="scale(0.015625)"/>
       </defs>
       <use xlink:href="#DejaVuSans-4d"/>
      </g>
     </g>
    </g>
    <g id="xtick_3">
     <g id="line2d_3">
      <g>
       <use xlink:href="#m48315007fd" x="125.266528" y="267.84" style="stroke: #000000; stroke-width: 0.8"/>
      </g>
     </g>
     <g id="text_3">
      <!-- K -->
      <g transform="translate(121.987622 282.438438) scale(0.1 -0.1)">
       <defs>
        <path id="DejaVuSans-4b" d="M 628 4666 
L 1259 4666 
L 1259 2694 
L 3353 4666 
L 4166 4666 
L 1850 2491 
L 4331 0 
L 3500 0 
L 1259 2247 
L 1259 0 
L 628 0 
L 628 4666 
z
" transform="scale(0.015625)"/>
       </defs>
       <use xlink:href="#DejaVuSans-4b"/>
      </g>
     </g>
    </g>
    <g id="xtick_4">
     <g id="line2d_4">
      <g>
       <use xlink:href="#m48315007fd" x="172.693558" y="267.84" style="stroke: #000000; stroke-width: 0.8"/>
      </g>
     </g>
     <g id="text_4">
      <!-- $\Gamma$ -->
      <g transform="translate(169.893558 282.438438) scale(0.1 -0.1)">
       <use xlink:href="#DejaVuSans-393" transform="translate(0 0.09375)"/>
      </g>
     </g>
    </g>
    <g id="xtick_5">
     <g id="line2d_5">
      <g>
       <use xlink:href="#m48315007fd" x="210.444519" y="267.84" style="stroke: #000000; stroke-width: 0.8"/>
      </g>
     </g>
     <g id="text_5">
      <!-- A -->
      <g transform="translate(207.024207 282.438438) scale(0.1 -0.1)">
       <defs>
        <path id="DejaVuSans-41" d="M 2188 4044 
L 1331 1722 
L 3047 1722 
L 2188 4044 
z
M 1831 4666 
L 2547 4666 
L 4325 0 
L 3669 0 
L 3244 1197 
L 1141 1197 
L 716 0 
L 50 0 
L 1831 4666 
z
" transform="scale(0.015625)"/>
       </defs>
       <use xlink:href="#DejaVuSans-41"/>
      </g>
     </g>
    </g>
    <g id="xtick_6">
     <g id="line2d_6">
      <g>
       <use xlink:href="#m48315007fd" x="251.517532" y="267.84" style="stroke: #000000; stroke-width: 0.8"/>
      </g>
     </g>
     <g id="text_6">
      <!-- L -->
      <g transform="translate(248.731595 282.438438) scale(0.1 -0.1)">
       <defs>
        <path id="DejaVuSans-4c" d="M 628 4666 
L 1259 4666 
L 1259 531 
L 3531 531 
L 3531 0 
L 628 0 
L 628 4666 
z
" transform="scale(0.015625)"/>
       </defs>
       <use xlink:href="#DejaVuSans-4c"/>
      </g>
     </g>
    </g>
    <g id="xtick_7">
     <g id="line2d_7">
      <g>
       <use xlink:href="#m48315007fd" x="275.231047" y="267.84" style="stroke: #000000; stroke-width: 0.8"/>
      </g>
     </g>
     <g id="text_7">
      <!-- H -->
      <g transform="translate(271.470891 282.438438) scale(0.1 -0.1)">
       <defs>
        <path id="DejaVuSans-48" d="M 628 4666 
L 1259 4666 
L 1259 2753 
L 3553 2753 
L 3553 4666 
L 4184 4666 
L 4184 0 
L 3553 0 
L 3553 2222 
L 1259 2222 
L 1259 0 
L 628 0 
L 628 4666 
z
" transform="scale(0.015625)"/>
       </defs>
       <use xlink:href="#DejaVuSans-48"/>
      </g>
     </g>
    </g>
    <g id="xtick_8">
     <g id="line2d_8">
      <g>
       <use xlink:href="#m48315007fd" x="322.658077" y="267.84" style="stroke: #000000; stroke-width: 0.8"/>
      </g>
     </g>
     <g id="text_8">
      <!-- A,L -->
      <g transform="translate(314.862765 282.438438) scale(0.1 -0.1)">
       <defs>
        <path id="DejaVuSans-2c" d="M 750 794 
L 1409 794 
L 1409 256 
L 897 -744 
L 494 -744 
L 750 256 
L 750 794 
z
" transform="scale(0.015625)"/>
       </defs>
       <use xlink:href="#DejaVuSans-41"/>
       <use xlink:href="#DejaVuSans-2c" x="68.408203"/>
       <use xlink:href="#DejaVuSans-4c" x="100.195312"/>
      </g>
     </g>
    </g>
    <g id="xtick_9">
     <g id="line2d_9">
      <g>
       <use xlink:href="#m48315007fd" x="360.409039" y="267.84" style="stroke: #000000; stroke-width: 0.8"/>
      </g>
     </g>
     <g id="text_9">
      <!-- M,K -->
      <g transform="translate(351.227007 282.438438) scale(0.1 -0.1)">
       <use xlink:href="#DejaVuSans-4d"/>
       <use xlink:href="#DejaVuSans-2c" x="86.279297"/>
       <use xlink:href="#DejaVuSans-4b" x="118.066406"/>
      </g>
     </g>
    </g>
    <g id="xtick_10">
     <g id="line2d_10">
      <g>
       <use xlink:href="#m48315007fd" x="398.16" y="267.84" style="stroke: #000000; stroke-width: 0.8"/>
      </g>
     </g>
     <g id="text_10">
      <!-- H -->
      <g transform="translate(394.399844 282.438438) scale(0.1 -0.1)">
       <use xlink:href="#DejaVuSans-48"/>
      </g>
     </g>
    </g>
   </g>
   <g id="matplotlib.axis_2">
    <g id="ytick_1">
     <g id="line2d_11">
      <defs>
       <path id="m6fb3f73af4" d="M 0 0 
L -3.5 0 
" style="stroke: #000000; stroke-width: 0.8"/>
      </defs>
      <g>
       <use xlink:href="#m6fb3f73af4" x="60.48" y="267.84" style="stroke: #000000; stroke-width: 0.8"/>
      </g>
     </g>
     <g id="text_11">
      <!-- 0.000 -->
      <g transform="translate(24.851875 271.639219) scale(0.1 -0.1)">
       <defs>
        <path id="DejaVuSans-30" d="M 2034 4250 
Q 1547 4250 1301 3770 
Q 1056 3291 1056 2328 
Q 1056 1369 1301 889 
Q 1547 409 2034 409 
Q 2525 409 2770 889 
Q 3016 1369 3016 2328 
Q 3016 3291 2770 3770 
Q 2525 4250 2034 4250 
z
M 2034 4750 
Q 2819 4750 3233 4129 
Q 3647 3509 3647 2328 
Q 3647 1150 3233 529 
Q 2819 -91 2034 -91 
Q 1250 -91 836 529 
Q 422 1150 422 2328 
Q 422 3509 836 4129 
Q 1250 4750 2034 4750 
z
" transform="scale(0.015625)"/>
        <path id="DejaVuSans-2e" d="M 684 794 
L 1344 794 
L 1344 0 
L 684 0 
L 684 794 
z
" transform="scale(0.015625)"/>
       </defs>
       <use xlink:href="#DejaVuSans-30"/>
       <use xlink:href="#DejaVuSans-2e" x="63.623047"/>
       <use xlink:href="#DejaVuSans-30" x="95.410156"/>
       <use xlink:href="#DejaVuSans-30" x="159.033203"/>
       <use xlink:href="#DejaVuSans-30" x="222.65625"/>
      </g>
     </g>
    </g>
    <g id="ytick_2">
     <g id="line2d_12">
      <g>
       <use xlink:href="#m6fb3f73af4" x="60.48" y="232.868571" style="stroke: #000000; stroke-width: 0.8"/>
      </g>
     </g>
     <g id="text_12">
      <!-- 0.005 -->
      <g transform="translate(24.851875 236.66779) scale(0.1 -0.1)">
       <defs>
        <path id="DejaVuSans-35" d="M 691 4666 
L 3169 4666 
L 3169 4134 
L 1269 4134 
L 1269 2991 
Q 1406 3038 1543 3061 
Q 1681 3084 1819 3084 
Q 2600 3084 3056 2656 
Q 3513 2228 3513 1497 
Q 3513 744 3044 326 
Q 2575 -91 1722 -91 
Q 1428 -91 1123 -41 
Q 819 9 494 109 
L 494 744 
Q 775 591 1075 516 
Q 1375 441 1709 441 
Q 2250 441 2565 725 
Q 2881 1009 2881 1497 
Q 2881 1984 2565 2268 
Q 2250 2553 1709 2553 
Q 1456 2553 1204 2497 
Q 953 2441 691 2322 
L 691 4666 
z
" transform="scale(0.015625)"/>
       </defs>
       <use xlink:href="#DejaVuSans-30"/>
       <use xlink:href="#DejaVuSans-2e" x="63.623047"/>
       <use xlink:href="#DejaVuSans-30" x="95.410156"/>
       <use xlink:href="#DejaVuSans-30" x="159.033203"/>
       <use xlink:href="#DejaVuSans-35" x="222.65625"/>
      </g>
     </g>
    </g>
    <g id="ytick_3">
     <g id="line2d_13">
      <g>
       <use xlink:href="#m6fb3f73af4" x="60.48" y="197.897143" style="stroke: #000000; stroke-width: 0.8"/>
      </g>
     </g>
     <g id="text_13">
      <!-- 0.010 -->
      <g transform="translate(24.851875 201.696362) scale(0.1 -0.1)">
       <defs>
        <path id="DejaVuSans-31" d="M 794 531 
L 1825 531 
L 1825 4091 
L 703 3866 
L 703 4441 
L 1819 4666 
L 2450 4666 
L 2450 531 
L 3481 531 
L 3481 0 
L 794 0 
L 794 531 
z
" transform="scale(0.015625)"/>
       </defs>
       <use xlink:href="#DejaVuSans-30"/>
       <use xlink:href="#DejaVuSans-2e" x="63.623047"/>
       <use xlink:href="#DejaVuSans-30" x="95.410156"/>
       <use xlink:href="#DejaVuSans-31" x="159.033203"/>
       <use xlink:href="#DejaVuSans-30" x="222.65625"/>
      </g>
     </g>
    </g>
    <g id="ytick_4">
     <g id="line2d_14">
      <g>
       <use xlink:href="#m6fb3f73af4" x="60.48" y="162.925714" style="stroke: #000000; stroke-width: 0.8"/>
      </g>
     </g>
     <g id="text_14">
      <!-- 0.015 -->
      <g transform="translate(24.851875 166.724933) scale(0.1 -0.1)">
       <use xlink:href="#DejaVuSans-30"/>
       <use xlink:href="#DejaVuSans-2e" x="63.623047"/>
       <use xlink:href="#DejaVuSans-30" x="95.410156"/>
       <use xlink:href="#DejaVuSans-31" x="159.033203"/>
       <use xlink:href="#DejaVuSans-35" x="222.65625"/>
      </g>
     </g>
    </g>
    <g id="ytick_5">
     <g id="line2d_15">
      <g>
       <use xlink:href="#m6fb3f73af4" x="60.48" y="127.954286" style="stroke: #000000; stroke-width: 0.8"/>
      </g>
     </g>
     <g id="text_15">
      <!-- 0.020 -->
      <g transform="translate(24.851875 131.753504) scale(0.1 -0.1)">
       <defs>
        <path id="DejaVuSans-32" d="M 1228 531 
L 3431 531 
L 3431 0 
L 469 0 
L 469 531 
Q 828 903 1448 1529 
Q 2069 2156 2228 2338 
Q 2531 2678 2651 2914 
Q 2772 3150 2772 3378 
Q 2772 3750 2511 3984 
Q 2250 4219 1831 4219 
Q 1534 4219 1204 4116 
Q 875 4013 500 3803 
L 500 4441 
Q 881 4594 1212 4672 
Q 1544 4750 1819 4750 
Q 2544 4750 2975 4387 
Q 3406 4025 3406 3419 
Q 3406 3131 3298 2873 
Q 3191 2616 2906 2266 
Q 2828 2175 2409 1742 
Q 1991 1309 1228 531 
z
" transform="scale(0.015625)"/>
       </defs>
       <use xlink:href="#DejaVuSans-30"/>
       <use xlink:href="#DejaVuSans-2e" x="63.623047"/>
       <use xlink:href="#DejaVuSans-30" x="95.410156"/>
       <use xlink:href="#DejaVuSans-32" x="159.033203"/>
       <use xlink:href="#DejaVuSans-30" x="222.65625"/>
      </g>
     </g>
    </g>
    <g id="ytick_6">
     <g id="line2d_16">
      <g>
       <use xlink:href="#m6fb3f73af4" x="60.48" y="92.982857" style="stroke: #000000; stroke-width: 0.8"/>
      </g>
     </g>
     <g id="text_16">
      <!-- 0.025 -->
      <g transform="translate(24.851875 96.782076) scale(0.1 -0.1)">
       <use xlink:href="#DejaVuSans-30"/>
       <use xlink:href="#DejaVuSans-2e" x="63.623047"/>
       <use xlink:href="#DejaVuSans-30" x="95.410156"/>
       <use xlink:href="#DejaVuSans-32" x="159.033203"/>
       <use xlink:href="#DejaVuSans-35" x="222.65625"/>
      </g>
     </g>
    </g>
    <g id="ytick_7">
     <g id="line2d_17">
      <g>
       <use xlink:href="#m6fb3f73af4" x="60.48" y="58.011429" style="stroke: #000000; stroke-width: 0.8"/>
      </g>
     </g>
     <g id="text_17">
      <!-- 0.030 -->
      <g transform="translate(24.851875 61.810647) scale(0.1 -0.1)">
       <defs>
        <path id="DejaVuSans-33" d="M 2597 2516 
Q 3050 2419 3304 2112 
Q 3559 1806 3559 1356 
Q 3559 666 3084 287 
Q 2609 -91 1734 -91 
Q 1441 -91 1130 -33 
Q 819 25 488 141 
L 488 750 
Q 750 597 1062 519 
Q 1375 441 1716 441 
Q 2309 441 2620 675 
Q 2931 909 2931 1356 
Q 2931 1769 2642 2001 
Q 2353 2234 1838 2234 
L 1294 2234 
L 1294 2753 
L 1863 2753 
Q 2328 2753 2575 2939 
Q 2822 3125 2822 3475 
Q 2822 3834 2567 4026 
Q 2313 4219 1838 4219 
Q 1578 4219 1281 4162 
Q 984 4106 628 3988 
L 628 4550 
Q 988 4650 1302 4700 
Q 1616 4750 1894 4750 
Q 2613 4750 3031 4423 
Q 3450 4097 3450 3541 
Q 3450 3153 3228 2886 
Q 3006 2619 2597 2516 
z
" transform="scale(0.015625)"/>
       </defs>
       <use xlink:href="#DejaVuSans-30"/>
       <use xlink:href="#DejaVuSans-2e" x="63.623047"/>
       <use xlink:href="#DejaVuSans-30" x="95.410156"/>
       <use xlink:href="#DejaVuSans-33" x="159.033203"/>
       <use xlink:href="#DejaVuSans-30" x="222.65625"/>
      </g>
     </g>
    </g>
    <g id="ytick_8">
     <g id="line2d_18">
      <g>
       <use xlink:href="#m6fb3f73af4" x="60.48" y="23.04" style="stroke: #000000; stroke-width: 0.8"/>
      </g>
     </g>
     <g id="text_18">
      <!-- 0.035 -->
      <g transform="translate(24.851875 26.839219) scale(0.1 -0.1)">
       <use xlink:href="#DejaVuSans-30"/>
       <use xlink:href="#DejaVuSans-2e" x="63.623047"/>
       <use xlink:href="#DejaVuSans-30" x="95.410156"/>
       <use xlink:href="#DejaVuSans-33" x="159.033203"/>
       <use xlink:href="#DejaVuSans-35" x="222.65625"/>
      </g>
     </g>
    </g>
    <g id="text_19">
     <!-- energies [eV] -->
     <g transform="translate(18.772187 178.961875) rotate(-90) scale(0.1 -0.1)">
      <defs>
       <path id="DejaVuSans-65" d="M 3597 1894 
L 3597 1613 
L 953 1613 
Q 991 1019 1311 708 
Q 1631 397 2203 397 
Q 2534 397 2845 478 
Q 3156 559 3463 722 
L 3463 178 
Q 3153 47 2828 -22 
Q 2503 -91 2169 -91 
Q 1331 -91 842 396 
Q 353 884 353 1716 
Q 353 2575 817 3079 
Q 1281 3584 2069 3584 
Q 2775 3584 3186 3129 
Q 3597 2675 3597 1894 
z
M 3022 2063 
Q 3016 2534 2758 2815 
Q 2500 3097 2075 3097 
Q 1594 3097 1305 2825 
Q 1016 2553 972 2059 
L 3022 2063 
z
" transform="scale(0.015625)"/>
       <path id="DejaVuSans-6e" d="M 3513 2113 
L 3513 0 
L 2938 0 
L 2938 2094 
Q 2938 2591 2744 2837 
Q 2550 3084 2163 3084 
Q 1697 3084 1428 2787 
Q 1159 2491 1159 1978 
L 1159 0 
L 581 0 
L 581 3500 
L 1159 3500 
L 1159 2956 
Q 1366 3272 1645 3428 
Q 1925 3584 2291 3584 
Q 2894 3584 3203 3211 
Q 3513 2838 3513 2113 
z
" transform="scale(0.015625)"/>
       <path id="DejaVuSans-72" d="M 2631 2963 
Q 2534 3019 2420 3045 
Q 2306 3072 2169 3072 
Q 1681 3072 1420 2755 
Q 1159 2438 1159 1844 
L 1159 0 
L 581 0 
L 581 3500 
L 1159 3500 
L 1159 2956 
Q 1341 3275 1631 3429 
Q 1922 3584 2338 3584 
Q 2397 3584 2469 3576 
Q 2541 3569 2628 3553 
L 2631 2963 
z
" transform="scale(0.015625)"/>
       <path id="DejaVuSans-67" d="M 2906 1791 
Q 2906 2416 2648 2759 
Q 2391 3103 1925 3103 
Q 1463 3103 1205 2759 
Q 947 2416 947 1791 
Q 947 1169 1205 825 
Q 1463 481 1925 481 
Q 2391 481 2648 825 
Q 2906 1169 2906 1791 
z
M 3481 434 
Q 3481 -459 3084 -895 
Q 2688 -1331 1869 -1331 
Q 1566 -1331 1297 -1286 
Q 1028 -1241 775 -1147 
L 775 -588 
Q 1028 -725 1275 -790 
Q 1522 -856 1778 -856 
Q 2344 -856 2625 -561 
Q 2906 -266 2906 331 
L 2906 616 
Q 2728 306 2450 153 
Q 2172 0 1784 0 
Q 1141 0 747 490 
Q 353 981 353 1791 
Q 353 2603 747 3093 
Q 1141 3584 1784 3584 
Q 2172 3584 2450 3431 
Q 2728 3278 2906 2969 
L 2906 3500 
L 3481 3500 
L 3481 434 
z
" transform="scale(0.015625)"/>
       <path id="DejaVuSans-69" d="M 603 3500 
L 1178 3500 
L 1178 0 
L 603 0 
L 603 3500 
z
M 603 4863 
L 1178 4863 
L 1178 4134 
L 603 4134 
L 603 4863 
z
" transform="scale(0.015625)"/>
       <path id="DejaVuSans-73" d="M 2834 3397 
L 2834 2853 
Q 2591 2978 2328 3040 
Q 2066 3103 1784 3103 
Q 1356 3103 1142 2972 
Q 928 2841 928 2578 
Q 928 2378 1081 2264 
Q 1234 2150 1697 2047 
L 1894 2003 
Q 2506 1872 2764 1633 
Q 3022 1394 3022 966 
Q 3022 478 2636 193 
Q 2250 -91 1575 -91 
Q 1294 -91 989 -36 
Q 684 19 347 128 
L 347 722 
Q 666 556 975 473 
Q 1284 391 1588 391 
Q 1994 391 2212 530 
Q 2431 669 2431 922 
Q 2431 1156 2273 1281 
Q 2116 1406 1581 1522 
L 1381 1569 
Q 847 1681 609 1914 
Q 372 2147 372 2553 
Q 372 3047 722 3315 
Q 1072 3584 1716 3584 
Q 2034 3584 2315 3537 
Q 2597 3491 2834 3397 
z
" transform="scale(0.015625)"/>
       <path id="DejaVuSans-20" transform="scale(0.015625)"/>
       <path id="DejaVuSans-5b" d="M 550 4863 
L 1875 4863 
L 1875 4416 
L 1125 4416 
L 1125 -397 
L 1875 -397 
L 1875 -844 
L 550 -844 
L 550 4863 
z
" transform="scale(0.015625)"/>
       <path id="DejaVuSans-56" d="M 1831 0 
L 50 4666 
L 709 4666 
L 2188 738 
L 3669 4666 
L 4325 4666 
L 2547 0 
L 1831 0 
z
" transform="scale(0.015625)"/>
       <path id="DejaVuSans-5d" d="M 1947 4863 
L 1947 -844 
L 622 -844 
L 622 -397 
L 1369 -397 
L 1369 4416 
L 622 4416 
L 622 4863 
L 1947 4863 
z
" transform="scale(0.015625)"/>
      </defs>
      <use xlink:href="#DejaVuSans-65"/>
      <use xlink:href="#DejaVuSans-6e" x="61.523438"/>
      <use xlink:href="#DejaVuSans-65" x="124.902344"/>
      <use xlink:href="#DejaVuSans-72" x="186.425781"/>
      <use xlink:href="#DejaVuSans-67" x="225.789062"/>
      <use xlink:href="#DejaVuSans-69" x="289.265625"/>
      <use xlink:href="#DejaVuSans-65" x="317.048828"/>
      <use xlink:href="#DejaVuSans-73" x="378.572266"/>
      <use xlink:href="#DejaVuSans-20" x="430.671875"/>
      <use xlink:href="#DejaVuSans-5b" x="462.458984"/>
      <use xlink:href="#DejaVuSans-65" x="501.472656"/>
      <use xlink:href="#DejaVuSans-56" x="562.996094"/>
      <use xlink:href="#DejaVuSans-5d" x="631.404297"/>
     </g>
    </g>
   </g>
   <g id="line2d_19">
    <path d="M 101.553013 267.84 
L 101.553013 23.04 
" clip-path="url(#pce2f6aa782)" style="fill: none; stroke: #808080; stroke-width: 1.5; stroke-linecap: square"/>
   </g>
   <g id="line2d_20">
    <path d="M 125.266528 267.84 
L 125.266528 23.04 
" clip-path="url(#pce2f6aa782)" style="fill: none; stroke: #808080; stroke-width: 1.5; stroke-linecap: square"/>
   </g>
   <g id="line2d_21">
    <path d="M 172.693558 267.84 
L 172.693558 23.04 
" clip-path="url(#pce2f6aa782)" style="fill: none; stroke: #808080; stroke-width: 1.5; stroke-linecap: square"/>
   </g>
   <g id="line2d_22">
    <path d="M 210.444519 267.84 
L 210.444519 23.04 
" clip-path="url(#pce2f6aa782)" style="fill: none; stroke: #808080; stroke-width: 1.5; stroke-linecap: square"/>
   </g>
   <g id="line2d_23">
    <path d="M 251.517532 267.84 
L 251.517532 23.04 
" clip-path="url(#pce2f6aa782)" style="fill: none; stroke: #808080; stroke-width: 1.5; stroke-linecap: square"/>
   </g>
   <g id="line2d_24">
    <path d="M 275.231047 267.84 
L 275.231047 23.04 
" clip-path="url(#pce2f6aa782)" style="fill: none; stroke: #808080; stroke-width: 1.5; stroke-linecap: square"/>
   </g>
   <g id="line2d_25">
    <path d="M 322.658077 267.84 
L 322.658077 23.04 
" clip-path="url(#pce2f6aa782)" style="fill: none; stroke: #808080; stroke-width: 1.5; stroke-linecap: square"/>
   </g>
   <g id="line2d_26">
    <path d="M 360.409039 267.84 
L 360.409039 23.04 
" clip-path="url(#pce2f6aa782)" style="fill: none; stroke: #808080; stroke-width: 1.5; stroke-linecap: square"/>
   </g>
   <g id="line2d_27">
    <path d="M 60.48 267.84 
L 398.16 267.84 
" clip-path="url(#pce2f6aa782)" style="fill: none; stroke-dasharray: 1.5,2.475; stroke-dashoffset: 0; stroke: #000000; stroke-width: 1.5"/>
   </g>
   <g id="line2d_28">
    <path d="M 60.48 274.300266 
L 61.276152 289 
M 99.168154 289 
L 101.553013 212.524455 
L 103.541012 289 
M 171.523536 289 
L 172.693558 274.300266 
L 173.402017 289 
M 208.553765 289 
L 210.444519 221.810367 
L 212.554061 289 
M 248.906499 289 
L 251.517532 191.884787 
L 253.646949 289 
M 319.925698 289 
L 322.658077 221.810367 
L 322.658077 191.884787 
L 324.770496 289 
M 358.564515 289 
L 360.409039 212.524455 
L 360.409039 289 
" clip-path="url(#pce2f6aa782)" style="fill: none; stroke: #008000; stroke-width: 1.5; stroke-linecap: square"/>
   </g>
   <g id="line2d_29">
    <path d="M 60.48 271.445614 
L 61.68753 289 
M 98.937246 289 
L 101.553013 210.341411 
L 103.720037 289 
M 171.151075 289 
L 172.693558 271.445614 
L 173.530736 289 
M 208.524562 289 
L 210.444519 221.605409 
L 212.943164 289 
M 248.343994 289 
L 251.517532 190.433757 
L 254.078924 289 
M 319.516089 289 
L 322.658077 221.605409 
L 322.658077 190.433757 
L 324.968149 289 
M 358.355049 289 
L 360.409039 210.341411 
L 360.409039 289 
" clip-path="url(#pce2f6aa782)" style="fill: none; stroke: #008000; stroke-width: 1.5; stroke-linecap: square"/>
   </g>
   <g id="line2d_30">
    <path d="M 60.48 265.973117 
L 62.344311 289 
M 98.472738 289 
L 101.553013 209.620056 
L 104.021564 289 
M 169.769327 289 
L 172.693558 265.973117 
L 174.045029 289 
M 207.592774 289 
L 210.444519 221.006341 
L 213.401658 289 
M 247.268108 289 
L 248.094781 262.562588 
L 251.517532 190.318773 
L 254.221997 289 
M 317.742719 289 
L 319.270432 243.992439 
L 322.658077 221.006341 
L 322.658077 190.318773 
L 325.018807 289 
M 358.322414 289 
L 360.409039 209.620056 
L 360.409039 289 
" clip-path="url(#pce2f6aa782)" style="fill: none; stroke: #008000; stroke-width: 1.5; stroke-linecap: square"/>
   </g>
   <g id="line2d_31">
    <path d="M 60.48 202.581331 
L 64.21391 238.172737 
L 65.803153 289 
M 95.614717 289 
L 97.819103 218.24871 
L 101.553013 206.863588 
L 104.553481 289 
M 166.394433 289 
L 169.045325 220.630506 
L 172.693558 202.581331 
L 175.481838 289 
M 205.500737 289 
L 207.012614 221.951745 
L 210.444519 220.863834 
L 213.86727 261.659582 
L 214.807475 289 
M 246.351776 289 
L 248.094781 220.503056 
L 251.517532 189.649306 
L 254.636836 289 
M 317.506245 289 
L 319.270432 240.61541 
L 322.658077 220.863834 
L 322.658077 189.649306 
L 326.089983 228.627677 
L 327.766068 289 
M 356.956312 289 
L 356.977133 288.530931 
L 360.409039 206.863588 
L 360.409039 289 
" clip-path="url(#pce2f6aa782)" style="fill: none; stroke: #008000; stroke-width: 1.5; stroke-linecap: square"/>
   </g>
   <g id="line2d_32">
    <path d="M 60.48 202.527755 
L 64.21391 219.681395 
L 67.868557 289 
M 92.499696 289 
L 94.085192 259.722306 
L 97.819103 215.56652 
L 101.553013 202.722267 
L 105.505265 240.464557 
L 107.053688 289 
M 165.553633 289 
L 169.045325 213.850337 
L 172.693558 202.527755 
L 176.125463 219.456982 
L 179.557369 243.943976 
L 181.138326 289 
M 203.85638 289 
L 207.012614 220.89823 
L 210.444519 188.767242 
L 213.86727 223.954411 
L 216.361809 289 
M 245.362558 289 
L 248.094781 210.541828 
L 251.517532 185.704209 
L 254.905177 255.689521 
L 255.925491 289 
M 316.48808 289 
L 319.270432 213.407545 
L 322.658077 188.767242 
L 322.658077 185.704209 
L 326.089983 212.715516 
L 328.217971 289 
M 355.25451 289 
L 356.977133 231.012367 
L 360.409039 202.722267 
L 360.409039 289 
" clip-path="url(#pce2f6aa782)" style="fill: none; stroke: #008000; stroke-width: 1.5; stroke-linecap: square"/>
   </g>
   <g id="line2d_33">
    <path d="M 60.48 167.115026 
L 64.21391 194.803406 
L 67.947821 212.610986 
L 71.681731 234.407702 
L 74.857685 289 
M 87.7469 289 
L 90.351282 250.980771 
L 94.085192 222.438578 
L 97.819103 205.829631 
L 101.553013 182.627079 
L 105.505265 230.159519 
L 107.535806 289 
M 163.359439 289 
L 165.397092 233.436375 
L 169.045325 185.578472 
L 172.693558 167.115026 
L 176.125463 217.95428 
L 179.557369 224.598855 
L 182.192012 289 
M 201.589117 289 
L 203.580708 241.58117 
L 207.012614 219.995263 
L 210.444519 187.322369 
L 213.86727 202.087871 
L 217.290021 230.776419 
L 219.674775 289 
M 242.24304 289 
L 244.67203 229.158611 
L 248.094781 199.636313 
L 251.517532 185.276779 
L 254.905177 228.078767 
L 256.715893 289 
M 313.771757 289 
L 315.882787 237.809923 
L 319.270432 204.397282 
L 322.658077 187.322369 
L 322.658077 185.276779 
L 326.089983 195.597298 
L 329.521888 245.115387 
L 331.136864 289 
M 351.782281 289 
L 353.545227 240.125144 
L 356.977133 199.341089 
L 360.409039 182.627079 
L 360.409039 289 
" clip-path="url(#pce2f6aa782)" style="fill: none; stroke: #008000; stroke-width: 1.5; stroke-linecap: square"/>
   </g>
   <g id="line2d_34">
    <path d="M 60.48 166.198453 
L 64.21391 181.585467 
L 67.947821 189.875038 
L 71.681731 207.123086 
L 75.415641 229.463893 
L 79.149551 258.715373 
L 82.883462 285.728493 
L 86.617372 250.624135 
L 90.351282 224.800714 
L 94.085192 204.438671 
L 97.819103 188.83182 
L 101.553013 174.878556 
L 105.505265 207.984738 
L 108.723159 289 
M 162.687876 289 
L 165.397092 219.39751 
L 169.045325 184.212813 
L 172.693558 166.198453 
L 176.125463 183.910677 
L 179.557369 223.588893 
L 182.989275 233.81892 
L 185.290577 289 
M 198.303739 289 
L 200.148802 249.95805 
L 203.580708 222.223488 
L 207.012614 204.333277 
L 210.444519 186.153239 
L 213.86727 185.54059 
L 217.290021 198.670163 
L 220.712772 206.899491 
L 224.135524 219.950414 
L 227.558275 260.245743 
L 229.660221 289 
M 238.551002 289 
L 241.249279 240.851236 
L 244.67203 210.811534 
L 248.094781 193.211364 
L 251.517532 184.254442 
L 254.905177 210.624445 
L 257.048029 289 
M 312.659503 289 
L 315.882787 214.320128 
L 319.270432 191.77318 
L 322.658077 186.153239 
L 322.658077 184.254442 
L 326.089983 189.956842 
L 329.521888 195.589719 
L 332.953794 250.896176 
L 334.467354 289 
M 347.449309 289 
L 350.113322 204.917367 
L 353.545227 191.081147 
L 356.977133 185.853296 
L 360.409039 174.878556 
L 360.409039 289 
" clip-path="url(#pce2f6aa782)" style="fill: none; stroke: #008000; stroke-width: 1.5; stroke-linecap: square"/>
   </g>
   <g id="line2d_35">
    <path d="M 60.48 165.561266 
L 64.21391 174.425657 
L 67.947821 187.508765 
L 71.681731 196.781634 
L 75.415641 202.336772 
L 79.149551 204.059739 
L 82.883462 202.238862 
L 86.617372 200.089225 
L 90.351282 196.65029 
L 94.085192 191.254795 
L 97.819103 183.031487 
L 101.553013 173.532781 
L 105.505265 198.365081 
L 109.457518 237.727358 
L 111.772915 289 
M 155.793596 289 
L 158.100625 241.235539 
L 161.748859 206.671081 
L 165.397092 186.772005 
L 169.045325 173.826302 
L 172.693558 165.561266 
L 176.125463 179.412131 
L 179.557369 211.934572 
L 182.989275 225.652039 
L 186.42118 228.15495 
L 189.853086 228.028307 
L 193.284991 226.78667 
L 196.716897 225.089979 
L 200.148802 223.317438 
L 203.580708 220.000834 
L 207.012614 199.620729 
L 210.444519 185.491758 
L 213.86727 180.80479 
L 217.290021 185.535148 
L 220.712772 192.900587 
L 224.135524 203.732608 
L 227.558275 206.775011 
L 230.981026 205.661067 
L 234.403777 202.738071 
L 237.826528 198.133133 
L 241.249279 193.248219 
L 244.67203 189.458604 
L 248.094781 186.952801 
L 251.517532 183.325766 
L 254.905177 202.801926 
L 258.292822 288.356524 
L 258.336254 289 
M 310.072874 289 
L 312.495142 216.592597 
L 315.882787 184.699968 
L 319.270432 176.299731 
L 322.658077 185.491758 
L 322.658077 183.325766 
L 326.089983 188.931275 
L 329.521888 192.755349 
L 332.953794 205.024797 
L 336.385699 219.571642 
L 339.817605 231.222944 
L 343.249511 228.403435 
L 346.681416 215.033202 
L 350.113322 201.859379 
L 353.545227 188.500587 
L 356.977133 182.368161 
L 360.409039 173.532781 
L 360.409039 289 
" clip-path="url(#pce2f6aa782)" style="fill: none; stroke: #008000; stroke-width: 1.5; stroke-linecap: square"/>
   </g>
   <g id="line2d_36">
    <path d="M 60.48 164.57756 
L 64.21391 170.750596 
L 67.947821 180.116445 
L 71.681731 186.06826 
L 75.415641 188.614897 
L 79.149551 191.806518 
L 82.883462 192.112814 
L 86.617372 187.591963 
L 90.351282 183.366146 
L 94.085192 180.74983 
L 97.819103 176.24144 
L 101.553013 172.805998 
L 105.505265 172.779649 
L 109.457518 195.018174 
L 113.40977 236.227976 
L 115.917501 289 
M 154.840744 289 
L 158.100625 223.467119 
L 161.748859 199.757808 
L 165.397092 183.184635 
L 169.045325 169.042928 
L 172.693558 164.57756 
L 176.125463 176.099965 
L 179.557369 195.599918 
L 182.989275 223.145512 
L 186.42118 223.726975 
L 189.853086 223.067689 
L 193.284991 222.142828 
L 196.716897 221.335933 
L 200.148802 220.61347 
L 203.580708 200.427113 
L 207.012614 186.407366 
L 210.444519 164.097276 
L 213.86727 173.659322 
L 217.290021 181.525784 
L 220.712772 185.600727 
L 224.135524 189.746433 
L 227.558275 196.147987 
L 230.981026 199.583758 
L 234.403777 197.195275 
L 237.826528 191.424997 
L 241.249279 186.310009 
L 244.67203 184.304207 
L 248.094781 183.292645 
L 251.517532 183.270644 
L 254.905177 187.776126 
L 258.292822 209.622756 
L 261.680467 286.433271 
L 261.887755 289 
M 303.352019 289 
L 305.719852 234.726991 
L 309.107497 204.385834 
L 312.495142 189.684291 
L 315.882787 178.722106 
L 319.270432 170.384504 
L 322.658077 164.097276 
L 322.658077 183.270644 
L 326.089983 184.526195 
L 329.521888 184.955309 
L 332.953794 187.285443 
L 336.385699 189.666233 
L 339.817605 191.226364 
L 343.249511 190.632751 
L 346.681416 188.465242 
L 350.113322 187.824587 
L 353.545227 181.713642 
L 356.977133 179.28682 
L 360.409039 172.805998 
L 360.409039 289 
" clip-path="url(#pce2f6aa782)" style="fill: none; stroke: #008000; stroke-width: 1.5; stroke-linecap: square"/>
   </g>
   <g id="line2d_37">
    <path d="M 60.48 163.055905 
L 64.21391 163.290366 
L 67.947821 173.199496 
L 71.681731 180.736435 
L 75.415641 183.840333 
L 79.149551 182.734476 
L 82.883462 182.171261 
L 86.617372 178.867445 
L 90.351282 172.720344 
L 94.085192 167.808653 
L 97.819103 165.126395 
L 101.553013 169.278699 
L 105.505265 170.310577 
L 109.457518 179.071469 
L 113.40977 203.582702 
L 117.362023 281.010727 
L 118.463537 289 
M 124.811846 289 
L 125.266528 286.312085 
L 125.847447 289 
M 140.924259 289 
L 143.507693 262.019207 
L 147.155926 229.466622 
L 150.804159 212.02055 
L 154.452392 198.107057 
L 158.100625 185.650508 
L 161.748859 175.520259 
L 165.397092 167.968142 
L 169.045325 162.450439 
L 172.693558 163.055905 
L 176.125463 167.776594 
L 179.557369 172.616722 
L 182.989275 176.44643 
L 186.42118 179.096535 
L 189.853086 181.137403 
L 193.284991 182.93235 
L 196.716897 184.518599 
L 200.148802 185.669868 
L 203.580708 185.937779 
L 207.012614 180.210314 
L 210.444519 163.146755 
L 213.86727 165.020596 
L 217.290021 169.064628 
L 220.712772 177.930241 
L 224.135524 185.56852 
L 227.558275 187.734989 
L 230.981026 187.622655 
L 234.403777 186.062018 
L 237.826528 184.043495 
L 241.249279 181.501361 
L 244.67203 178.713862 
L 248.094781 178.532975 
L 251.517532 182.518005 
L 254.905177 175.627352 
L 258.292822 177.507004 
L 261.680467 184.820359 
L 265.068112 199.678251 
L 268.455757 223.648476 
L 271.843402 287.529783 
L 275.231047 281.945243 
L 276.192915 289 
M 298.594672 289 
L 298.944562 286.639878 
L 302.332207 230.621259 
L 305.719852 210.275692 
L 309.107497 195.077065 
L 312.495142 181.40847 
L 315.882787 170.001668 
L 319.270432 162.031792 
L 322.658077 163.146755 
L 322.658077 182.518005 
L 326.089983 181.360865 
L 329.521888 181.933787 
L 332.953794 186.583416 
L 336.385699 187.892701 
L 339.817605 188.241334 
L 343.249511 188.434797 
L 346.681416 187.359413 
L 350.113322 182.670626 
L 353.545227 177.0716 
L 356.977133 163.840406 
L 360.409039 169.278699 
L 360.409039 286.312085 
L 361.154563 289 
M 363.974786 289 
L 366.700865 232.805204 
L 369.846779 217.247812 
L 372.992692 234.028933 
L 376.138606 278.217723 
L 378.037813 289 
M 385.186606 289 
L 385.576346 286.455632 
L 388.72226 288.452341 
L 389.141134 289 
M 395.262155 289 
L 398.16 281.945243 
" clip-path="url(#pce2f6aa782)" style="fill: none; stroke: #008000; stroke-width: 1.5; stroke-linecap: square"/>
   </g>
   <g id="line2d_38">
    <path d="M 60.48 162.300281 
L 64.21391 158.888252 
L 67.947821 161.962467 
L 71.681731 169.009249 
L 75.415641 175.016059 
L 79.149551 176.487263 
L 82.883462 173.08768 
L 86.617372 170.86192 
L 90.351282 168.883211 
L 94.085192 165.044959 
L 97.819103 162.134074 
L 101.553013 167.228537 
L 105.505265 158.358225 
L 109.457518 164.991653 
L 113.40977 175.684626 
L 117.362023 183.378547 
L 121.314275 192.250841 
L 125.266528 198.684234 
L 128.914761 205.350411 
L 132.562994 210.750255 
L 136.211227 214.125037 
L 139.85946 214.821103 
L 143.507693 212.466341 
L 147.155926 207.148546 
L 150.804159 199.383627 
L 154.452392 190.089245 
L 158.100625 180.088328 
L 161.748859 168.150845 
L 165.397092 157.605316 
L 169.045325 155.742652 
L 172.693558 162.300281 
L 176.125463 166.323238 
L 179.557369 166.628805 
L 182.989275 165.817142 
L 186.42118 164.570303 
L 189.853086 163.698572 
L 193.284991 164.313555 
L 196.716897 166.866565 
L 200.148802 170.682366 
L 203.580708 174.973657 
L 207.012614 173.923087 
L 210.444519 148.992473 
L 213.86727 156.913986 
L 217.290021 163.274034 
L 220.712772 168.798561 
L 224.135524 172.194543 
L 227.558275 175.956721 
L 230.981026 178.22849 
L 234.403777 177.865009 
L 237.826528 175.495673 
L 241.249279 172.163146 
L 244.67203 169.643258 
L 248.094781 171.56732 
L 251.517532 180.781821 
L 254.905177 172.135848 
L 258.292822 168.940203 
L 261.680467 171.63172 
L 265.068112 180.489953 
L 268.455757 197.905089 
L 271.843402 211.555063 
L 275.231047 209.715128 
L 278.618692 220.654137 
L 282.006337 227.81923 
L 285.393982 228.109735 
L 288.781627 221.661164 
L 292.169272 211.77821 
L 295.556917 201.454497 
L 298.944562 192.329209 
L 302.332207 184.630669 
L 305.719852 177.569206 
L 309.107497 170.110227 
L 312.495142 162.053094 
L 315.882787 155.746115 
L 319.270432 151.734756 
L 322.658077 148.992473 
L 322.658077 180.781821 
L 326.089983 175.114118 
L 329.521888 179.727483 
L 332.953794 181.691127 
L 336.385699 182.002982 
L 339.817605 182.234262 
L 343.249511 182.336804 
L 346.681416 182.246863 
L 350.113322 181.728174 
L 353.545227 169.543474 
L 356.977133 161.331085 
L 360.409039 167.228537 
L 360.409039 198.684234 
L 363.554952 202.890619 
L 366.700865 198.501548 
L 369.846779 199.851614 
L 372.992692 194.830023 
L 376.138606 194.417614 
L 379.284519 205.30821 
L 382.430433 207.577905 
L 385.576346 221.282075 
L 388.72226 201.996338 
L 391.868173 189.525464 
L 395.014087 201.108288 
L 398.16 209.715128 
" clip-path="url(#pce2f6aa782)" style="fill: none; stroke: #008000; stroke-width: 1.5; stroke-linecap: square"/>
   </g>
   <g id="line2d_39">
    <path d="M 60.48 135.172146 
L 64.21391 141.923546 
L 67.947821 149.425299 
L 71.681731 154.404898 
L 75.415641 159.505915 
L 79.149551 163.319689 
L 82.883462 166.097546 
L 86.617372 166.166573 
L 90.351282 162.987962 
L 94.085192 157.647524 
L 97.819103 153.185371 
L 101.553013 151.901067 
L 105.505265 152.048202 
L 109.457518 160.189909 
L 113.40977 163.408193 
L 117.362023 166.866481 
L 121.314275 169.181437 
L 125.266528 167.719569 
L 128.914761 169.926265 
L 132.562994 171.293205 
L 136.211227 171.165369 
L 139.85946 169.394417 
L 143.507693 166.517793 
L 147.155926 163.298153 
L 150.804159 160.08464 
L 154.452392 156.931359 
L 158.100625 154.046103 
L 161.748859 151.554039 
L 165.397092 148.073018 
L 169.045325 141.003018 
L 172.693558 135.172146 
L 176.125463 143.42916 
L 179.557369 146.521656 
L 182.989275 147.94979 
L 186.42118 148.362001 
L 189.853086 148.374514 
L 193.284991 148.195041 
L 196.716897 147.963742 
L 200.148802 147.794193 
L 203.580708 147.811777 
L 207.012614 148.366821 
L 210.444519 147.685377 
L 213.86727 149.251941 
L 217.290021 155.011769 
L 220.712772 162.145319 
L 224.135524 166.98888 
L 227.558275 168.565602 
L 230.981026 168.098071 
L 234.403777 166.756832 
L 237.826528 165.157111 
L 241.249279 163.721553 
L 244.67203 163.168103 
L 248.094781 166.690648 
L 251.517532 179.743733 
L 254.905177 161.621627 
L 258.292822 153.886541 
L 261.680467 152.966129 
L 265.068112 162.753895 
L 268.455757 165.842991 
L 271.843402 166.316996 
L 275.231047 169.441866 
L 278.618692 173.380538 
L 282.006337 177.386332 
L 285.393982 180.366507 
L 288.781627 181.471557 
L 292.169272 180.323429 
L 295.556917 177.044123 
L 298.944562 172.23784 
L 302.332207 166.71158 
L 305.719852 161.017532 
L 309.107497 155.633126 
L 312.495142 151.384248 
L 315.882787 149.104049 
L 319.270432 148.166343 
L 322.658077 147.685377 
L 322.658077 179.743733 
L 326.089983 162.120428 
L 329.521888 178.60341 
L 332.953794 180.644737 
L 336.385699 178.748151 
L 339.817605 175.111235 
L 343.249511 170.88882 
L 346.681416 166.473622 
L 350.113322 161.019448 
L 353.545227 156.971412 
L 356.977133 157.023862 
L 360.409039 151.901067 
L 360.409039 167.719569 
L 363.554952 171.299653 
L 366.700865 176.820902 
L 369.846779 172.002434 
L 372.992692 166.654326 
L 376.138606 171.187827 
L 379.284519 180.136728 
L 382.430433 190.039664 
L 385.576346 194.135605 
L 388.72226 194.791046 
L 391.868173 181.947313 
L 395.014087 172.663318 
L 398.16 169.441866 
" clip-path="url(#pce2f6aa782)" style="fill: none; stroke: #008000; stroke-width: 1.5; stroke-linecap: square"/>
   </g>
   <g id="line2d_40">
    <path d="M 60.48 131.89665 
L 64.21391 137.661419 
L 67.947821 145.420961 
L 71.681731 150.678818 
L 75.415641 154.226656 
L 79.149551 157.225489 
L 82.883462 155.907063 
L 86.617372 150.081518 
L 90.351282 144.346491 
L 94.085192 144.57857 
L 97.819103 149.086951 
L 101.553013 148.579096 
L 105.505265 142.650851 
L 109.457518 143.131684 
L 113.40977 152.934183 
L 117.362023 159.502025 
L 121.314275 156.730155 
L 125.266528 150.491814 
L 128.914761 151.672511 
L 132.562994 153.158899 
L 136.211227 154.322672 
L 139.85946 154.567572 
L 143.507693 153.680158 
L 147.155926 151.939453 
L 150.804159 149.887934 
L 154.452392 147.791951 
L 158.100625 145.614209 
L 161.748859 143.224777 
L 165.397092 139.90668 
L 169.045325 134.109242 
L 172.693558 131.89665 
L 176.125463 141.611616 
L 179.557369 145.144714 
L 182.989275 145.566358 
L 186.42118 145.849316 
L 189.853086 146.049371 
L 193.284991 145.999993 
L 196.716897 145.717996 
L 200.148802 145.433914 
L 203.580708 145.256648 
L 207.012614 145.172336 
L 210.444519 147.027225 
L 213.86727 147.493639 
L 217.290021 143.763505 
L 220.712772 145.890988 
L 224.135524 152.527217 
L 227.558275 157.509511 
L 230.981026 159.071485 
L 234.403777 156.833979 
L 237.826528 151.702085 
L 241.249279 148.087229 
L 244.67203 148.039569 
L 248.094781 148.138123 
L 251.517532 139.34726 
L 254.905177 137.071474 
L 258.292822 139.709175 
L 261.680467 150.230828 
L 265.068112 154.565154 
L 268.455757 159.712844 
L 271.843402 162.702058 
L 275.231047 160.725595 
L 278.618692 163.56095 
L 282.006337 165.919026 
L 285.393982 167.490366 
L 288.781627 167.983237 
L 292.169272 167.071862 
L 295.556917 164.406212 
L 298.944562 159.851699 
L 302.332207 154.145871 
L 305.719852 148.824658 
L 309.107497 144.652958 
L 312.495142 140.748189 
L 315.882787 139.880667 
L 319.270432 147.094614 
L 322.658077 147.027225 
L 322.658077 139.34726 
L 326.089983 140.769362 
L 329.521888 143.080767 
L 332.953794 145.041861 
L 336.385699 145.445146 
L 339.817605 145.454708 
L 343.249511 145.799086 
L 346.681416 146.29894 
L 350.113322 145.643094 
L 353.545227 143.069427 
L 356.977133 143.652331 
L 360.409039 148.579096 
L 360.409039 150.491814 
L 363.554952 150.665495 
L 366.700865 155.517778 
L 369.846779 160.639907 
L 372.992692 157.351536 
L 376.138606 149.755309 
L 379.284519 146.509684 
L 382.430433 148.330359 
L 385.576346 156.759535 
L 388.72226 161.562294 
L 391.868173 160.419158 
L 395.014087 159.408782 
L 398.16 160.725595 
" clip-path="url(#pce2f6aa782)" style="fill: none; stroke: #008000; stroke-width: 1.5; stroke-linecap: square"/>
   </g>
   <g id="line2d_41">
    <path d="M 60.48 120.33139 
L 64.21391 125.249144 
L 67.947821 129.826873 
L 71.681731 132.196589 
L 75.415641 134.46755 
L 79.149551 136.167547 
L 82.883462 137.290141 
L 86.617372 138.456208 
L 90.351282 140.22917 
L 94.085192 141.057184 
L 97.819103 142.835067 
L 101.553013 145.481186 
L 105.505265 137.652255 
L 109.457518 127.840461 
L 113.40977 131.757261 
L 117.362023 136.45058 
L 121.314275 140.561018 
L 125.266528 144.196911 
L 128.914761 144.234848 
L 132.562994 143.933399 
L 136.211227 143.454334 
L 139.85946 142.841436 
L 143.507693 141.331311 
L 147.155926 138.569934 
L 150.804159 135.137593 
L 154.452392 131.915699 
L 158.100625 129.000574 
L 161.748859 126.554907 
L 165.397092 125.227783 
L 169.045325 124.43781 
L 172.693558 120.33139 
L 176.125463 117.208535 
L 179.557369 114.529927 
L 182.989275 123.090964 
L 186.42118 130.403666 
L 189.853086 133.975106 
L 193.284991 134.398532 
L 196.716897 132.67341 
L 200.148802 130.371507 
L 203.580708 130.03227 
L 207.012614 135.369496 
L 210.444519 146.088944 
L 213.86727 138.637793 
L 217.290021 138.41394 
L 220.712772 138.264427 
L 224.135524 138.182314 
L 227.558275 138.499686 
L 230.981026 138.578995 
L 234.403777 138.382746 
L 237.826528 137.446579 
L 241.249279 134.911261 
L 244.67203 134.207417 
L 248.094781 138.812613 
L 251.517532 137.818409 
L 254.905177 133.061453 
L 258.292822 127.217726 
L 261.680467 129.889618 
L 265.068112 137.555224 
L 268.455757 144.554032 
L 271.843402 146.323886 
L 275.231047 142.016061 
L 278.618692 145.129677 
L 282.006337 146.552562 
L 285.393982 146.625144 
L 288.781627 145.713049 
L 292.169272 144.082043 
L 295.556917 141.875316 
L 298.944562 139.123322 
L 302.332207 136.099727 
L 305.719852 134.197495 
L 309.107497 133.424444 
L 312.495142 133.730918 
L 315.882787 134.719398 
L 319.270432 137.463031 
L 322.658077 146.088944 
L 322.658077 137.818409 
L 326.089983 139.446888 
L 329.521888 140.396935 
L 332.953794 141.622753 
L 336.385699 142.592173 
L 339.817605 142.780947 
L 343.249511 142.39477 
L 346.681416 140.392026 
L 350.113322 135.740426 
L 353.545227 126.761333 
L 356.977133 130.458792 
L 360.409039 145.481186 
L 360.409039 144.196911 
L 363.554952 140.311269 
L 366.700865 142.071075 
L 369.846779 146.389356 
L 372.992692 146.941453 
L 376.138606 141.74308 
L 379.284519 140.935407 
L 382.430433 146.492039 
L 385.576346 146.163849 
L 388.72226 147.605063 
L 391.868173 152.123671 
L 395.014087 147.346269 
L 398.16 142.016061 
" clip-path="url(#pce2f6aa782)" style="fill: none; stroke: #008000; stroke-width: 1.5; stroke-linecap: square"/>
   </g>
   <g id="line2d_42">
    <path d="M 60.48 118.227172 
L 64.21391 116.510491 
L 67.947821 116.979099 
L 71.681731 119.701657 
L 75.415641 123.406224 
L 79.149551 126.399456 
L 82.883462 127.936538 
L 86.617372 127.748352 
L 90.351282 125.486374 
L 94.085192 121.630052 
L 97.819103 118.588886 
L 101.553013 118.372889 
L 105.505265 119.605689 
L 109.457518 122.579861 
L 113.40977 118.629127 
L 117.362023 122.314779 
L 121.314275 129.68163 
L 125.266528 133.83154 
L 128.914761 138.201024 
L 132.562994 140.585565 
L 136.211227 140.997782 
L 139.85946 139.687029 
L 143.507693 137.430306 
L 147.155926 134.490308 
L 150.804159 130.653801 
L 154.452392 126.065713 
L 158.100625 121.796524 
L 161.748859 118.776049 
L 165.397092 117.376691 
L 169.045325 117.374646 
L 172.693558 118.227172 
L 176.125463 114.514352 
L 179.557369 109.880224 
L 182.989275 108.729619 
L 186.42118 108.703515 
L 189.853086 108.911842 
L 193.284991 108.220632 
L 196.716897 106.058105 
L 200.148802 102.833884 
L 203.580708 99.365451 
L 207.012614 96.010471 
L 210.444519 92.090864 
L 213.86727 105.76969 
L 217.290021 115.035937 
L 220.712772 120.209713 
L 224.135524 121.881752 
L 227.558275 122.215346 
L 230.981026 121.923095 
L 234.403777 121.00147 
L 237.826528 119.394728 
L 241.249279 116.526741 
L 244.67203 114.239632 
L 248.094781 121.07619 
L 251.517532 137.329155 
L 254.905177 122.155844 
L 258.292822 118.997923 
L 261.680467 121.018628 
L 265.068112 123.236827 
L 268.455757 122.973353 
L 271.843402 121.075338 
L 275.231047 120.295609 
L 278.618692 122.694606 
L 282.006337 125.299513 
L 285.393982 127.727167 
L 288.781627 129.683793 
L 292.169272 131.03339 
L 295.556917 131.784717 
L 298.944562 131.958529 
L 302.332207 131.144872 
L 305.719852 128.040554 
L 309.107497 124.404689 
L 312.495142 123.68281 
L 315.882787 121.296903 
L 319.270432 108.054785 
L 322.658077 92.090864 
L 322.658077 137.329155 
L 326.089983 123.805026 
L 329.521888 109.090546 
L 332.953794 110.897327 
L 336.385699 115.580245 
L 339.817605 120.877906 
L 343.249511 121.900453 
L 346.681416 118.815275 
L 350.113322 116.045518 
L 353.545227 116.463114 
L 356.977133 118.61917 
L 360.409039 118.372889 
L 360.409039 133.83154 
L 363.554952 136.128732 
L 366.700865 132.745258 
L 369.846779 128.499688 
L 372.992692 125.259971 
L 376.138606 123.276075 
L 379.284519 124.313359 
L 382.430433 125.892813 
L 385.576346 126.029608 
L 388.72226 125.851728 
L 391.868173 126.33328 
L 395.014087 123.965864 
L 398.16 120.295609 
" clip-path="url(#pce2f6aa782)" style="fill: none; stroke: #008000; stroke-width: 1.5; stroke-linecap: square"/>
   </g>
   <g id="line2d_43">
    <path d="M 60.48 111.634467 
L 64.21391 107.506654 
L 67.947821 104.800516 
L 71.681731 105.587829 
L 75.415641 108.179375 
L 79.149551 110.519994 
L 82.883462 111.627046 
L 86.617372 111.10659 
L 90.351282 108.598164 
L 94.085192 104.850633 
L 97.819103 103.490681 
L 101.553013 104.254893 
L 105.505265 102.938677 
L 109.457518 103.837835 
L 113.40977 107.793389 
L 117.362023 109.206681 
L 121.314275 113.506023 
L 125.266528 114.120466 
L 128.914761 115.39977 
L 132.562994 115.879295 
L 136.211227 115.581011 
L 139.85946 114.497825 
L 143.507693 112.675294 
L 147.155926 110.313028 
L 150.804159 107.806825 
L 154.452392 105.551307 
L 158.100625 103.822396 
L 161.748859 103.27224 
L 165.397092 105.036632 
L 169.045325 109.729328 
L 172.693558 111.634467 
L 176.125463 106.047177 
L 179.557369 105.84365 
L 182.989275 105.40138 
L 186.42118 104.355134 
L 189.853086 103.423503 
L 193.284991 102.369868 
L 196.716897 101.146334 
L 200.148802 99.759768 
L 203.580708 97.899787 
L 207.012614 94.41956 
L 210.444519 89.411392 
L 213.86727 97.129001 
L 217.290021 99.114675 
L 220.712772 100.890742 
L 224.135524 104.44644 
L 227.558275 108.092441 
L 230.981026 109.911112 
L 234.403777 109.403894 
L 237.826528 107.596165 
L 241.249279 106.639791 
L 244.67203 108.641524 
L 248.094781 117.40864 
L 251.517532 135.146771 
L 254.905177 117.96965 
L 258.292822 107.232081 
L 261.680467 108.352378 
L 265.068112 109.842259 
L 268.455757 108.304686 
L 271.843402 110.276848 
L 275.231047 116.067986 
L 278.618692 115.152989 
L 282.006337 114.062408 
L 285.393982 112.755576 
L 288.781627 111.350227 
L 292.169272 110.780375 
L 295.556917 111.110466 
L 298.944562 111.249219 
L 302.332207 111.115832 
L 305.719852 110.766562 
L 309.107497 109.34043 
L 312.495142 104.845786 
L 315.882787 98.913431 
L 319.270432 95.675017 
L 322.658077 89.411392 
L 322.658077 135.146771 
L 326.089983 116.885273 
L 329.521888 105.078548 
L 332.953794 99.85991 
L 336.385699 103.484538 
L 339.817605 105.399853 
L 343.249511 105.617922 
L 346.681416 104.407021 
L 350.113322 101.616586 
L 353.545227 100.656007 
L 356.977133 105.966537 
L 360.409039 104.254893 
L 360.409039 114.120466 
L 363.554952 114.771196 
L 366.700865 110.22426 
L 369.846779 104.920899 
L 372.992692 105.920608 
L 376.138606 111.839394 
L 379.284519 111.618621 
L 382.430433 114.894394 
L 385.576346 117.973936 
L 388.72226 119.447502 
L 391.868173 119.22077 
L 395.014087 117.866493 
L 398.16 116.067986 
" clip-path="url(#pce2f6aa782)" style="fill: none; stroke: #008000; stroke-width: 1.5; stroke-linecap: square"/>
   </g>
   <g id="line2d_44">
    <path d="M 60.48 110.344136 
L 64.21391 99.842863 
L 67.947821 90.801507 
L 71.681731 93.804387 
L 75.415641 94.470858 
L 79.149551 92.72697 
L 82.883462 91.055598 
L 86.617372 90.819547 
L 90.351282 91.979329 
L 94.085192 94.443005 
L 97.819103 97.50606 
L 101.553013 99.375988 
L 105.505265 96.051447 
L 109.457518 93.672419 
L 113.40977 97.984182 
L 117.362023 100.553046 
L 121.314275 94.169051 
L 125.266528 94.108782 
L 128.914761 97.135263 
L 132.562994 99.516119 
L 136.211227 101.157386 
L 139.85946 102.076355 
L 143.507693 102.268343 
L 147.155926 101.632156 
L 150.804159 100.061435 
L 154.452392 97.900178 
L 158.100625 96.25185 
L 161.748859 96.034232 
L 165.397092 97.56393 
L 169.045325 102.520107 
L 172.693558 110.344136 
L 176.125463 104.216361 
L 179.557369 100.796467 
L 182.989275 96.418211 
L 186.42118 93.056213 
L 189.853086 90.88998 
L 193.284991 89.550468 
L 196.716897 88.619031 
L 200.148802 87.881058 
L 203.580708 87.317104 
L 207.012614 87.076473 
L 210.444519 88.277622 
L 213.86727 87.843924 
L 217.290021 91.683822 
L 220.712772 94.105733 
L 224.135524 95.80727 
L 227.558275 96.361177 
L 230.981026 96.150656 
L 234.403777 95.62537 
L 237.826528 95.415079 
L 241.249279 96.347755 
L 244.67203 96.977781 
L 248.094781 92.780215 
L 251.517532 90.280529 
L 254.905177 94.450806 
L 258.292822 94.697095 
L 261.680467 97.170082 
L 265.068112 97.261899 
L 268.455757 99.198313 
L 271.843402 100.21576 
L 275.231047 101.184468 
L 278.618692 101.981987 
L 282.006337 103.746155 
L 285.393982 105.912216 
L 288.781627 107.547756 
L 292.169272 107.382876 
L 295.556917 105.364127 
L 298.944562 102.881959 
L 302.332207 100.466908 
L 305.719852 98.357898 
L 309.107497 96.805288 
L 312.495142 96.115534 
L 315.882787 95.216321 
L 319.270432 89.784995 
L 322.658077 88.277622 
L 322.658077 90.280529 
L 326.089983 98.267802 
L 329.521888 98.935163 
L 332.953794 93.115984 
L 336.385699 88.365987 
L 339.817605 87.894475 
L 343.249511 85.897799 
L 346.681416 85.240114 
L 350.113322 90.116874 
L 353.545227 98.348738 
L 356.977133 97.207006 
L 360.409039 99.375988 
L 360.409039 94.108782 
L 363.554952 91.916234 
L 366.700865 92.740601 
L 369.846779 98.148193 
L 372.992692 100.608739 
L 376.138606 101.131957 
L 379.284519 108.291404 
L 382.430433 107.827987 
L 385.576346 105.223624 
L 388.72226 100.996391 
L 391.868173 98.807364 
L 395.014087 100.689194 
L 398.16 101.184468 
" clip-path="url(#pce2f6aa782)" style="fill: none; stroke: #008000; stroke-width: 1.5; stroke-linecap: square"/>
   </g>
   <g id="line2d_45">
    <path d="M 60.48 90.667145 
L 64.21391 89.254805 
L 67.947821 89.121494 
L 71.681731 87.023329 
L 75.415641 87.0953 
L 79.149551 87.155465 
L 82.883462 85.776475 
L 86.617372 82.710169 
L 90.351282 79.406234 
L 94.085192 78.117137 
L 97.819103 83.833183 
L 101.553013 93.784436 
L 105.505265 84.384664 
L 109.457518 81.58825 
L 113.40977 83.176057 
L 117.362023 81.294188 
L 121.314275 81.932519 
L 125.266528 81.072228 
L 128.914761 84.196189 
L 132.562994 86.990249 
L 136.211227 89.026591 
L 139.85946 90.186952 
L 143.507693 90.552959 
L 147.155926 90.353999 
L 150.804159 89.878202 
L 154.452392 89.341092 
L 158.100625 88.776721 
L 161.748859 88.127912 
L 165.397092 87.775453 
L 169.045325 89.262747 
L 172.693558 90.667145 
L 176.125463 96.221096 
L 179.557369 99.323377 
L 182.989275 95.086315 
L 186.42118 91.737347 
L 189.853086 89.531514 
L 193.284991 88.0519 
L 196.716897 86.97107 
L 200.148802 86.160365 
L 203.580708 85.523035 
L 207.012614 84.878202 
L 210.444519 86.123853 
L 213.86727 81.070095 
L 217.290021 81.026204 
L 220.712772 82.870155 
L 224.135524 85.681654 
L 227.558275 88.249424 
L 230.981026 89.773861 
L 234.403777 89.993664 
L 237.826528 89.070926 
L 241.249279 87.205096 
L 244.67203 85.083917 
L 248.094781 85.092739 
L 251.517532 85.843031 
L 254.905177 87.550763 
L 258.292822 90.67254 
L 261.680467 84.347171 
L 265.068112 84.27208 
L 268.455757 88.567591 
L 271.843402 93.825931 
L 275.231047 94.711622 
L 278.618692 97.014031 
L 282.006337 97.893007 
L 285.393982 97.541389 
L 288.781627 96.451067 
L 292.169272 94.781324 
L 295.556917 92.564122 
L 298.944562 89.860009 
L 302.332207 86.981942 
L 305.719852 84.703865 
L 309.107497 83.826788 
L 312.495142 83.966484 
L 315.882787 84.11356 
L 319.270432 83.377817 
L 322.658077 86.123853 
L 322.658077 85.843031 
L 326.089983 87.340355 
L 329.521888 86.736171 
L 332.953794 87.341626 
L 336.385699 86.79998 
L 339.817605 84.149679 
L 343.249511 83.522738 
L 346.681416 81.400667 
L 350.113322 76.124682 
L 353.545227 78.22136 
L 356.977133 86.876801 
L 360.409039 93.784436 
L 360.409039 81.072228 
L 363.554952 83.01218 
L 366.700865 84.398914 
L 369.846779 82.78527 
L 372.992692 86.007923 
L 376.138606 87.940673 
L 379.284519 79.643706 
L 382.430433 74.433611 
L 385.576346 74.435268 
L 388.72226 81.684777 
L 391.868173 89.331751 
L 395.014087 92.031548 
L 398.16 94.711622 
" clip-path="url(#pce2f6aa782)" style="fill: none; stroke: #008000; stroke-width: 1.5; stroke-linecap: square"/>
   </g>
   <g id="line2d_46">
    <path d="M 60.48 75.375853 
L 64.21391 73.951116 
L 67.947821 71.106931 
L 71.681731 69.348472 
L 75.415641 68.614678 
L 79.149551 68.485214 
L 82.883462 68.005049 
L 86.617372 66.553526 
L 90.351282 64.388617 
L 94.085192 63.478021 
L 97.819103 69.893969 
L 101.553013 78.554061 
L 105.505265 73.751692 
L 109.457518 75.715801 
L 113.40977 73.12033 
L 117.362023 72.785556 
L 121.314275 71.718489 
L 125.266528 71.361846 
L 128.914761 71.211882 
L 132.562994 71.116431 
L 136.211227 71.174777 
L 139.85946 71.351392 
L 143.507693 71.61408 
L 147.155926 71.962659 
L 150.804159 72.407881 
L 154.452392 72.916362 
L 158.100625 73.48083 
L 161.748859 74.624496 
L 165.397092 77.012629 
L 169.045325 78.116319 
L 172.693558 75.375853 
L 176.125463 67.825441 
L 179.557369 57.924675 
L 182.989275 54.396889 
L 186.42118 55.981156 
L 189.853086 59.120077 
L 193.284991 61.83966 
L 196.716897 64.651936 
L 200.148802 69.201078 
L 203.580708 75.08765 
L 207.012614 80.43982 
L 210.444519 80.716908 
L 213.86727 78.480003 
L 217.290021 77.452528 
L 220.712772 77.453734 
L 224.135524 75.894161 
L 227.558275 73.828496 
L 230.981026 72.007341 
L 234.403777 70.253076 
L 237.826528 68.075696 
L 241.249279 66.248628 
L 244.67203 66.381149 
L 248.094781 67.530032 
L 251.517532 69.165442 
L 254.905177 72.121604 
L 258.292822 76.014155 
L 261.680467 78.696526 
L 265.068112 78.354184 
L 268.455757 76.626957 
L 271.843402 73.851129 
L 275.231047 72.750518 
L 278.618692 73.573067 
L 282.006337 74.036036 
L 285.393982 74.126534 
L 288.781627 73.928873 
L 292.169272 73.58908 
L 295.556917 73.294274 
L 298.944562 73.242953 
L 302.332207 73.534351 
L 305.719852 73.956223 
L 309.107497 74.132245 
L 312.495142 74.410625 
L 315.882787 75.547441 
L 319.270432 78.304615 
L 322.658077 80.716908 
L 322.658077 69.165442 
L 326.089983 70.863695 
L 329.521888 71.720917 
L 332.953794 68.483242 
L 336.385699 64.816416 
L 339.817605 63.628562 
L 343.249511 64.836215 
L 346.681416 66.923032 
L 350.113322 67.891431 
L 353.545227 69.964737 
L 356.977133 75.53396 
L 360.409039 78.554061 
L 360.409039 71.361846 
L 363.554952 71.682785 
L 366.700865 65.643181 
L 369.846779 62.234123 
L 372.992692 61.46557 
L 376.138606 64.083951 
L 379.284519 64.862113 
L 382.430433 64.195091 
L 385.576346 70.19938 
L 388.72226 73.764382 
L 391.868173 71.347812 
L 395.014087 69.389139 
L 398.16 72.750518 
" clip-path="url(#pce2f6aa782)" style="fill: none; stroke: #008000; stroke-width: 1.5; stroke-linecap: square"/>
   </g>
   <g id="line2d_47">
    <path d="M 60.48 75.044828 
L 64.21391 64.312173 
L 67.947821 61.312741 
L 71.681731 60.440762 
L 75.415641 59.508855 
L 79.149551 58.594533 
L 82.883462 57.702848 
L 86.617372 57.031402 
L 90.351282 56.719746 
L 94.085192 56.282678 
L 97.819103 54.74036 
L 101.553013 54.171501 
L 105.505265 59.288619 
L 109.457518 56.587309 
L 113.40977 58.859978 
L 117.362023 62.751613 
L 121.314275 65.628925 
L 125.266528 64.275901 
L 128.914761 63.267613 
L 132.562994 62.55721 
L 136.211227 62.131518 
L 139.85946 61.953846 
L 143.507693 61.956207 
L 147.155926 62.042392 
L 150.804159 62.063199 
L 154.452392 61.748691 
L 158.100625 60.678986 
L 161.748859 58.60719 
L 165.397092 57.902985 
L 169.045325 66.566813 
L 172.693558 75.044828 
L 176.125463 66.729386 
L 179.557369 55.477511 
L 182.989275 52.850621 
L 186.42118 54.453013 
L 189.853086 56.432318 
L 193.284991 59.491516 
L 196.716897 63.45228 
L 200.148802 67.653145 
L 203.580708 72.972706 
L 207.012614 79.172491 
L 210.444519 79.910222 
L 213.86727 70.768426 
L 217.290021 64.17922 
L 220.712772 62.305473 
L 224.135524 62.415311 
L 227.558275 62.549915 
L 230.981026 62.316407 
L 234.403777 61.913931 
L 237.826528 61.364589 
L 241.249279 59.860792 
L 244.67203 58.826444 
L 248.094781 64.75224 
L 251.517532 67.820925 
L 254.905177 63.401368 
L 258.292822 62.905835 
L 261.680467 64.619027 
L 265.068112 65.078807 
L 268.455757 63.769911 
L 271.843402 61.705852 
L 275.231047 57.643864 
L 278.618692 58.356307 
L 282.006337 58.301049 
L 285.393982 57.618375 
L 288.781627 56.505411 
L 292.169272 55.170594 
L 295.556917 53.826775 
L 298.944562 52.657611 
L 302.332207 51.81093 
L 305.719852 51.686755 
L 309.107497 53.776322 
L 312.495142 59.387938 
L 315.882787 66.539112 
L 319.270432 73.244573 
L 322.658077 79.910222 
L 322.658077 67.820925 
L 326.089983 54.648813 
L 329.521888 58.569802 
L 332.953794 59.72182 
L 336.385699 59.924429 
L 339.817605 60.331062 
L 343.249511 61.381715 
L 346.681416 63.249606 
L 350.113322 66.008578 
L 353.545227 62.179807 
L 356.977133 56.320049 
L 360.409039 54.171501 
L 360.409039 64.275901 
L 363.554952 58.865918 
L 366.700865 58.316984 
L 369.846779 58.348545 
L 372.992692 59.979587 
L 376.138606 58.631368 
L 379.284519 55.384653 
L 382.430433 55.206844 
L 385.576346 55.952984 
L 388.72226 55.064 
L 391.868173 53.873205 
L 395.014087 55.794975 
L 398.16 57.643864 
" clip-path="url(#pce2f6aa782)" style="fill: none; stroke: #008000; stroke-width: 1.5; stroke-linecap: square"/>
   </g>
   <g id="line2d_48">
    <path d="M 60.48 50.406923 
L 64.21391 47.746015 
L 67.947821 48.238127 
L 71.681731 47.122294 
L 75.415641 45.228523 
L 79.149551 43.808607 
L 82.883462 43.283461 
L 86.617372 43.361478 
L 90.351282 43.919797 
L 94.085192 46.053108 
L 97.819103 51.098827 
L 101.553013 50.794591 
L 105.505265 52.839135 
L 109.457518 50.712347 
L 113.40977 48.452526 
L 117.362023 47.026432 
L 121.314275 48.409286 
L 125.266528 50.581761 
L 128.914761 51.08142 
L 132.562994 51.246362 
L 136.211227 51.118107 
L 139.85946 50.811123 
L 143.507693 50.433826 
L 147.155926 50.000839 
L 150.804159 49.415205 
L 154.452392 48.562888 
L 158.100625 47.484882 
L 161.748859 47.491221 
L 165.397092 51.133912 
L 169.045325 49.953929 
L 172.693558 50.406923 
L 176.125463 48.847646 
L 179.557369 48.306821 
L 182.989275 46.172415 
L 186.42118 45.474056 
L 189.853086 45.492218 
L 193.284991 45.539248 
L 196.716897 45.568407 
L 200.148802 45.604547 
L 203.580708 48.231155 
L 207.012614 62.603352 
L 210.444519 78.055047 
L 213.86727 68.897884 
L 217.290021 58.621644 
L 220.712772 54.302491 
L 224.135524 51.515306 
L 227.558275 49.072115 
L 230.981026 46.870179 
L 234.403777 45.195001 
L 237.826528 44.850082 
L 241.249279 46.6799 
L 244.67203 50.280568 
L 248.094781 51.542913 
L 251.517532 48.420015 
L 254.905177 52.833075 
L 258.292822 46.475253 
L 261.680467 41.616951 
L 265.068112 41.432689 
L 268.455757 44.297659 
L 271.843402 47.314788 
L 275.231047 49.225233 
L 278.618692 48.624478 
L 282.006337 48.096234 
L 285.393982 47.62442 
L 288.781627 47.151907 
L 292.169272 46.592725 
L 295.556917 45.853726 
L 298.944562 44.949585 
L 302.332207 44.319134 
L 305.719852 45.584231 
L 309.107497 49.253927 
L 312.495142 53.881761 
L 315.882787 61.381407 
L 319.270432 72.27348 
L 322.658077 78.055047 
L 322.658077 48.420015 
L 326.089983 53.174065 
L 329.521888 41.933013 
L 332.953794 46.615647 
L 336.385699 51.299391 
L 339.817605 53.809302 
L 343.249511 53.996736 
L 346.681416 53.039557 
L 350.113322 51.814489 
L 353.545227 52.292016 
L 356.977133 52.841419 
L 360.409039 50.794591 
L 360.409039 50.581761 
L 363.554952 50.494508 
L 366.700865 51.325962 
L 369.846779 50.913054 
L 372.992692 47.281612 
L 376.138606 47.641399 
L 379.284519 49.067213 
L 382.430433 44.501914 
L 385.576346 39.319877 
L 388.72226 41.15665 
L 391.868173 45.966043 
L 395.014087 50.05194 
L 398.16 49.225233 
" clip-path="url(#pce2f6aa782)" style="fill: none; stroke: #008000; stroke-width: 1.5; stroke-linecap: square"/>
   </g>
   <g id="line2d_49">
    <path d="M 60.48 48.619306 
L 64.21391 46.538826 
L 67.947821 43.230111 
L 71.681731 41.998568 
L 75.415641 40.906218 
L 79.149551 39.855439 
L 82.883462 39.54565 
L 86.617372 40.141515 
L 90.351282 40.785627 
L 94.085192 41.580506 
L 97.819103 43.161164 
L 101.553013 46.178407 
L 105.505265 42.262049 
L 109.457518 40.231139 
L 113.40977 36.591192 
L 117.362023 36.60426 
L 121.314275 37.24713 
L 125.266528 38.002996 
L 128.914761 37.317351 
L 132.562994 37.058393 
L 136.211227 37.104171 
L 139.85946 37.372963 
L 143.507693 37.83408 
L 147.155926 38.532866 
L 150.804159 39.594374 
L 154.452392 41.192058 
L 158.100625 43.476777 
L 161.748859 45.657454 
L 165.397092 46.082878 
L 169.045325 46.923639 
L 172.693558 48.619306 
L 176.125463 45.815399 
L 179.557369 46.450901 
L 182.989275 44.94561 
L 186.42118 41.00923 
L 189.853086 37.884806 
L 193.284991 37.803003 
L 196.716897 38.543427 
L 200.148802 40.996243 
L 203.580708 47.578259 
L 207.012614 62.173211 
L 210.444519 76.578256 
L 213.86727 67.504934 
L 217.290021 54.25194 
L 220.712772 44.974864 
L 224.135524 39.224835 
L 227.558275 36.197374 
L 230.981026 35.41725 
L 234.403777 36.299123 
L 237.826528 38.022487 
L 241.249279 40.224189 
L 244.67203 42.418498 
L 248.094781 42.822464 
L 251.517532 47.538638 
L 254.905177 38.128371 
L 258.292822 35.479929 
L 261.680467 36.317494 
L 265.068112 35.858219 
L 268.455757 34.500025 
L 271.843402 33.790283 
L 275.231047 32.962943 
L 278.618692 32.088325 
L 282.006337 31.696794 
L 285.393982 31.773592 
L 288.781627 32.270632 
L 292.169272 33.166464 
L 295.556917 34.515965 
L 298.944562 36.48209 
L 302.332207 39.140009 
L 305.719852 41.501629 
L 309.107497 43.147478 
L 312.495142 46.677446 
L 315.882787 54.512702 
L 319.270432 67.033816 
L 322.658077 76.578256 
L 322.658077 47.538638 
L 326.089983 41.62382 
L 329.521888 41.013855 
L 332.953794 40.965429 
L 336.385699 40.935841 
L 339.817605 40.914383 
L 343.249511 40.89778 
L 346.681416 41.327239 
L 350.113322 46.25656 
L 353.545227 47.275919 
L 356.977133 42.546768 
L 360.409039 46.178407 
L 360.409039 38.002996 
L 363.554952 39.691971 
L 366.700865 41.805006 
L 369.846779 44.868701 
L 372.992692 45.511761 
L 376.138606 40.700751 
L 379.284519 38.911643 
L 382.430433 38.602921 
L 385.576346 34.572438 
L 388.72226 31.254987 
L 391.868173 34.151694 
L 395.014087 33.833193 
L 398.16 32.962943 
" clip-path="url(#pce2f6aa782)" style="fill: none; stroke: #008000; stroke-width: 1.5; stroke-linecap: square"/>
   </g>
   <g id="line2d_50">
    <path d="M 60.48 42.959086 
L 64.21391 44.309782 
L 67.947821 36.674959 
L 71.681731 33.787708 
L 75.415641 32.992533 
L 79.149551 32.830113 
L 82.883462 32.640268 
L 86.617372 32.74289 
L 90.351282 34.450408 
L 94.085192 38.205515 
L 97.819103 40.227545 
L 101.553013 41.379731 
L 105.505265 38.692026 
L 109.457518 35.22277 
L 113.40977 31.005946 
L 117.362023 29.491084 
L 121.314275 30.409364 
L 125.266528 32.047265 
L 128.914761 30.076814 
L 132.562994 28.074941 
L 136.211227 26.185733 
L 139.85946 24.472679 
L 143.507693 22.982469 
L 147.155926 21.808582 
L 150.804159 21.218614 
L 154.452392 22.557878 
L 158.100625 28.02242 
L 161.748859 35.436318 
L 165.397092 40.028751 
L 169.045325 42.833055 
L 172.693558 42.959086 
L 176.125463 44.613282 
L 179.557369 45.006786 
L 182.989275 42.678603 
L 186.42118 38.563249 
L 189.853086 36.213729 
L 193.284991 34.081893 
L 196.716897 34.969749 
L 200.148802 38.843178 
L 203.580708 44.901204 
L 207.012614 45.218992 
L 210.444519 44.573923 
L 213.86727 41.560992 
L 217.290021 36.379345 
L 220.712772 32.919465 
L 224.135524 31.111412 
L 227.558275 30.2728 
L 230.981026 30.088176 
L 234.403777 30.472311 
L 237.826528 31.448658 
L 241.249279 32.780015 
L 244.67203 34.232587 
L 248.094781 37.265921 
L 251.517532 40.429917 
L 254.905177 31.721637 
L 258.292822 28.142595 
L 261.680467 29.511744 
L 265.068112 28.752823 
L 268.455757 26.447966 
L 271.843402 24.152526 
L 275.231047 23.11337 
L 278.618692 22.387349 
L 282.006337 22.19392 
L 285.393982 22.716333 
L 288.781627 23.925192 
L 292.169272 25.676953 
L 295.556917 27.817945 
L 298.944562 30.060918 
L 302.332207 31.958583 
L 305.719852 33.11747 
L 309.107497 33.80416 
L 312.495142 35.288117 
L 315.882787 38.061438 
L 319.270432 42.195005 
L 322.658077 44.573923 
L 322.658077 40.429917 
L 326.089983 40.116095 
L 329.521888 39.595349 
L 332.953794 35.66697 
L 336.385699 33.830189 
L 339.817605 34.509397 
L 343.249511 37.095096 
L 346.681416 40.873595 
L 350.113322 41.140837 
L 353.545227 43.448296 
L 356.977133 42.26037 
L 360.409039 41.379731 
L 360.409039 32.047265 
L 363.554952 29.528675 
L 366.700865 25.666756 
L 369.846779 25.132965 
L 372.992692 27.163142 
L 376.138606 26.273695 
L 379.284519 22.42839 
L 382.430433 20.133675 
L 385.576346 23.25333 
L 388.72226 25.090967 
L 391.868173 25.050123 
L 395.014087 25.493354 
L 398.16 23.11337 
" clip-path="url(#pce2f6aa782)" style="fill: none; stroke: #008000; stroke-width: 1.5; stroke-linecap: square"/>
   </g>
   <g id="line2d_51">
    <path d="M 60.48 36.716206 
L 64.21391 39.479579 
L 67.947821 33.629621 
L 71.681731 28.178107 
L 75.415641 25.349896 
L 79.149551 24.573735 
L 82.883462 25.184657 
L 86.617372 26.625505 
L 90.351282 29.356427 
L 94.085192 34.257237 
L 97.819103 37.857142 
L 101.553013 38.036409 
L 105.505265 34.52934 
L 109.457518 28.772812 
L 113.40977 23.565276 
L 117.362023 16.332448 
L 121.314275 9.968354 
L 125.266528 11.817332 
L 128.914761 9.141738 
L 132.562994 7.696327 
L 136.211227 7.494232 
L 139.85946 8.424504 
L 143.507693 10.328955 
L 147.155926 13.083214 
L 150.804159 16.586482 
L 154.452392 20.030303 
L 158.100625 22.472033 
L 161.748859 27.524199 
L 165.397092 33.904899 
L 169.045325 38.179791 
L 172.693558 36.716206 
L 176.125463 41.348743 
L 179.557369 41.304089 
L 182.989275 39.030057 
L 186.42118 36.725602 
L 189.853086 33.748888 
L 193.284991 31.620293 
L 196.716897 31.600548 
L 200.148802 32.987353 
L 203.580708 33.086768 
L 207.012614 30.712115 
L 210.444519 41.229197 
L 213.86727 35.367292 
L 217.290021 26.900009 
L 220.712772 21.121805 
L 224.135524 16.592651 
L 227.558275 14.499667 
L 230.981026 14.677966 
L 234.403777 16.079083 
L 237.826528 18.015873 
L 241.249279 20.709726 
L 244.67203 25.072257 
L 248.094781 31.766674 
L 251.517532 36.572061 
L 254.905177 27.493125 
L 258.292822 23.045388 
L 261.680467 19.535299 
L 265.068112 18.724389 
L 268.455757 18.814277 
L 271.843402 19.086245 
L 275.231047 19.326817 
L 278.618692 19.788154 
L 282.006337 20.245483 
L 285.393982 20.596207 
L 288.781627 20.980684 
L 292.169272 21.620206 
L 295.556917 22.642917 
L 298.944562 24.107404 
L 302.332207 25.981913 
L 305.719852 28.050892 
L 309.107497 29.575025 
L 312.495142 29.371951 
L 315.882787 29.266333 
L 319.270432 37.733225 
L 322.658077 41.229197 
L 322.658077 36.572061 
L 326.089983 34.76894 
L 329.521888 34.805505 
L 332.953794 29.574394 
L 336.385699 25.808293 
L 339.817605 24.685901 
L 343.249511 26.638456 
L 346.681416 31.442147 
L 350.113322 37.726424 
L 353.545227 40.49909 
L 356.977133 41.285754 
L 360.409039 38.036409 
L 360.409039 11.817332 
L 363.554952 11.661142 
L 366.700865 15.247058 
L 369.846779 18.650592 
L 372.992692 18.005302 
L 376.138606 16.085136 
L 379.284519 14.971797 
L 382.430433 16.742133 
L 385.576346 15.867429 
L 388.72226 16.151224 
L 391.868173 16.904526 
L 395.014087 17.518624 
L 398.16 19.326817 
" clip-path="url(#pce2f6aa782)" style="fill: none; stroke: #008000; stroke-width: 1.5; stroke-linecap: square"/>
   </g>
   <g id="line2d_52">
    <path d="M 60.48 34.952012 
L 64.21391 34.662156 
L 67.947821 29.911894 
L 71.681731 23.082836 
L 75.415641 18.642834 
L 79.149551 16.924214 
L 82.883462 17.295773 
L 86.617372 19.558327 
L 90.351282 23.495641 
L 94.085192 28.026165 
L 97.819103 35.43034 
L 101.553013 37.276602 
L 105.505265 30.726315 
L 109.457518 20.603269 
L 113.40977 13.632755 
L 117.362023 9.377079 
L 121.314275 7.74448 
L 125.266528 3.545413 
L 128.914761 0.983407 
L 132.562994 -0.503323 
L 135.110687 -1 
M 140.257918 -1 
L 143.507693 0.023834 
L 147.155926 2.615865 
L 150.804159 6.97623 
L 154.452392 13.020511 
L 158.100625 19.798498 
L 161.748859 25.400059 
L 165.397092 32.314477 
L 169.045325 37.079707 
L 172.693558 34.952012 
L 176.125463 29.378668 
L 179.557369 25.200068 
L 182.989275 22.62449 
L 186.42118 20.9272 
L 189.853086 19.557477 
L 193.284991 16.844679 
L 196.716897 11.436927 
L 200.148802 5.221919 
L 203.580708 3.764591 
L 207.012614 12.681908 
L 210.444519 26.512966 
L 213.86727 27.412653 
L 217.290021 20.942799 
L 220.712772 12.716563 
L 224.135524 10.30103 
L 227.558275 9.756474 
L 230.981026 9.231512 
L 234.403777 8.806517 
L 237.826528 9.056387 
L 241.249279 11.459281 
L 244.67203 18.454215 
L 248.094781 29.413348 
L 251.517532 32.739287 
L 254.905177 22.977578 
L 258.292822 14.37715 
L 261.680467 5.932368 
L 264.93741 -1 
M 300.168342 -1 
L 302.332207 1.214592 
L 305.719852 6.276785 
L 309.107497 12.777684 
L 312.495142 19.680792 
L 315.882787 26.81935 
L 319.270432 26.682894 
L 322.658077 26.512966 
L 322.658077 32.739287 
L 326.089983 23.619065 
L 329.521888 24.344046 
L 332.953794 24.043039 
L 336.385699 22.706077 
L 339.817605 21.065599 
L 343.249511 20.743367 
L 346.681416 22.470728 
L 350.113322 25.913247 
L 353.545227 30.713878 
L 356.977133 36.06815 
L 360.409039 37.276602 
L 360.409039 3.545413 
L 363.554952 3.744148 
L 366.700865 7.566559 
L 369.846779 7.559669 
L 372.992692 5.553538 
L 376.138606 3.304828 
L 379.284519 1.01422 
L 380.77923 -1 
" clip-path="url(#pce2f6aa782)" style="fill: none; stroke: #008000; stroke-width: 1.5; stroke-linecap: square"/>
   </g>
   <g id="line2d_53">
    <path d="M 60.48 31.701461 
L 64.21391 29.783443 
L 67.947821 21.636685 
L 71.681731 11.603583 
L 75.415641 5.194373 
L 79.149551 2.91615 
L 82.883462 4.319279 
L 86.617372 8.395509 
L 90.351282 14.298724 
L 94.085192 22.614034 
L 97.819103 30.998261 
L 101.553013 35.055347 
L 105.505265 24.794686 
L 109.457518 3.87194 
L 111.121186 -1 
M 152.736998 -1 
L 154.452392 1.294377 
L 158.100625 7.895456 
L 161.748859 17.053866 
L 165.397092 26.140119 
L 169.045325 30.604544 
L 172.693558 31.701461 
L 176.125463 28.562417 
L 179.557369 24.359597 
L 182.989275 20.493394 
L 186.42118 17.286903 
L 189.853086 14.289542 
L 193.284991 10.911667 
L 196.716897 6.624227 
L 200.148802 1.760548 
L 202.519274 -1 
M 203.880293 -1 
L 207.012614 11.92409 
L 210.444519 20.60176 
L 213.86727 17.137066 
L 217.290021 11.121916 
L 220.712772 4.889671 
L 224.135524 0.625091 
L 227.558275 -0.793266 
L 230.981026 -0.356214 
L 234.403777 1.504075 
L 237.826528 4.321425 
L 241.249279 7.653341 
L 244.67203 13.898567 
L 248.094781 20.574609 
L 251.517532 22.75748 
L 254.905177 20.285499 
L 258.292822 0.075096 
L 258.782615 -1 
M 308.355769 -1 
L 309.107497 0.865611 
L 312.495142 10.858818 
L 315.882787 18.494777 
L 319.270432 20.483895 
L 322.658077 20.60176 
L 322.658077 22.75748 
L 326.089983 12.61694 
L 329.521888 3.480593 
L 332.953794 1.519647 
L 336.385699 -0.706197 
L 339.817605 0.413343 
L 343.249511 0.61837 
L 346.544251 -1 
M 350.143472 -1 
L 353.545227 9.001184 
L 356.977133 25.168076 
L 360.409039 35.055347 
L 360.409039 -1 
" clip-path="url(#pce2f6aa782)" style="fill: none; stroke: #008000; stroke-width: 1.5; stroke-linecap: square"/>
   </g>
   <g id="line2d_54">
    <path d="M 60.48 30.888082 
L 64.21391 26.085534 
L 67.947821 16.215967 
L 71.681731 4.972802 
L 74.858605 -1 
M 87.791611 -1 
L 90.351282 4.005204 
L 94.085192 15.688658 
L 97.819103 26.642241 
L 101.553013 32.022261 
L 105.505265 10.934915 
L 108.491582 -1 
M 155.855357 -1 
L 158.100625 4.067343 
L 161.748859 12.230588 
L 165.397092 19.804105 
L 169.045325 26.539184 
L 172.693558 30.888082 
L 176.125463 16.761991 
L 179.557369 3.61752 
L 181.415479 -1 
M 207.97371 -1 
L 210.444519 -0.319461 
L 212.730999 -1 
M 244.001845 -1 
L 244.67203 -0.342101 
L 248.094781 -0.31177 
L 249.939592 -1 
M 320.03477 -1 
L 322.658077 -0.319461 
L 322.658077 -1 
M 323.599925 -1 
L 326.089983 0.556327 
L 326.745055 -1 
M 353.817419 -1 
L 356.977133 11.926605 
L 360.409039 32.022261 
L 360.409039 -1 
" clip-path="url(#pce2f6aa782)" style="fill: none; stroke: #008000; stroke-width: 1.5; stroke-linecap: square"/>
   </g>
   <g id="line2d_55">
    <path d="M 60.48 29.995588 
L 64.21391 14.743718 
L 67.576875 -1 
M 97.247593 -1 
L 97.819103 0.517226 
L 101.553013 5.911261 
L 104.554662 -1 
M 163.35083 -1 
L 165.397092 6.202387 
L 169.045325 20.293301 
L 172.693558 29.995588 
L 176.125463 11.634707 
L 177.511026 -1 
M 356.707467 -1 
L 356.977133 -0.016813 
L 360.409039 5.911261 
L 360.409039 -1 
" clip-path="url(#pce2f6aa782)" style="fill: none; stroke: #008000; stroke-width: 1.5; stroke-linecap: square"/>
   </g>
   <g id="line2d_56">
    <path clip-path="url(#pce2f6aa782)" style="fill: none; stroke: #008000; stroke-width: 1.5; stroke-linecap: square"/>
   </g>
   <g id="line2d_57">
    <path clip-path="url(#pce2f6aa782)" style="fill: none; stroke: #008000; stroke-width: 1.5; stroke-linecap: square"/>
   </g>
   <g id="line2d_58">
    <path clip-path="url(#pce2f6aa782)" style="fill: none; stroke: #008000; stroke-width: 1.5; stroke-linecap: square"/>
   </g>
   <g id="line2d_59">
    <path clip-path="url(#pce2f6aa782)" style="fill: none; stroke: #008000; stroke-width: 1.5; stroke-linecap: square"/>
   </g>
   <g id="line2d_60">
    <path clip-path="url(#pce2f6aa782)" style="fill: none; stroke: #008000; stroke-width: 1.5; stroke-linecap: square"/>
   </g>
   <g id="line2d_61">
    <path clip-path="url(#pce2f6aa782)" style="fill: none; stroke: #008000; stroke-width: 1.5; stroke-linecap: square"/>
   </g>
   <g id="line2d_62">
    <path clip-path="url(#pce2f6aa782)" style="fill: none; stroke: #008000; stroke-width: 1.5; stroke-linecap: square"/>
   </g>
   <g id="line2d_63">
    <path clip-path="url(#pce2f6aa782)" style="fill: none; stroke: #008000; stroke-width: 1.5; stroke-linecap: square"/>
   </g>
   <g id="line2d_64">
    <path clip-path="url(#pce2f6aa782)" style="fill: none; stroke: #008000; stroke-width: 1.5; stroke-linecap: square"/>
   </g>
   <g id="line2d_65">
    <path clip-path="url(#pce2f6aa782)" style="fill: none; stroke: #008000; stroke-width: 1.5; stroke-linecap: square"/>
   </g>
   <g id="line2d_66">
    <path clip-path="url(#pce2f6aa782)" style="fill: none; stroke: #008000; stroke-width: 1.5; stroke-linecap: square"/>
   </g>
   <g id="line2d_67">
    <path clip-path="url(#pce2f6aa782)" style="fill: none; stroke: #008000; stroke-width: 1.5; stroke-linecap: square"/>
   </g>
   <g id="line2d_68">
    <path clip-path="url(#pce2f6aa782)" style="fill: none; stroke: #008000; stroke-width: 1.5; stroke-linecap: square"/>
   </g>
   <g id="line2d_69">
    <path clip-path="url(#pce2f6aa782)" style="fill: none; stroke: #008000; stroke-width: 1.5; stroke-linecap: square"/>
   </g>
   <g id="line2d_70">
    <path clip-path="url(#pce2f6aa782)" style="fill: none; stroke: #008000; stroke-width: 1.5; stroke-linecap: square"/>
   </g>
   <g id="line2d_71">
    <path clip-path="url(#pce2f6aa782)" style="fill: none; stroke: #008000; stroke-width: 1.5; stroke-linecap: square"/>
   </g>
   <g id="line2d_72">
    <path clip-path="url(#pce2f6aa782)" style="fill: none; stroke: #008000; stroke-width: 1.5; stroke-linecap: square"/>
   </g>
   <g id="line2d_73">
    <path clip-path="url(#pce2f6aa782)" style="fill: none; stroke: #008000; stroke-width: 1.5; stroke-linecap: square"/>
   </g>
   <g id="line2d_74">
    <path clip-path="url(#pce2f6aa782)" style="fill: none; stroke: #008000; stroke-width: 1.5; stroke-linecap: square"/>
   </g>
   <g id="line2d_75">
    <path clip-path="url(#pce2f6aa782)" style="fill: none; stroke: #008000; stroke-width: 1.5; stroke-linecap: square"/>
   </g>
   <g id="line2d_76">
    <path clip-path="url(#pce2f6aa782)" style="fill: none; stroke: #008000; stroke-width: 1.5; stroke-linecap: square"/>
   </g>
   <g id="line2d_77">
    <path clip-path="url(#pce2f6aa782)" style="fill: none; stroke: #008000; stroke-width: 1.5; stroke-linecap: square"/>
   </g>
   <g id="line2d_78">
    <path clip-path="url(#pce2f6aa782)" style="fill: none; stroke: #008000; stroke-width: 1.5; stroke-linecap: square"/>
   </g>
   <g id="line2d_79">
    <path clip-path="url(#pce2f6aa782)" style="fill: none; stroke: #008000; stroke-width: 1.5; stroke-linecap: square"/>
   </g>
   <g id="line2d_80">
    <path clip-path="url(#pce2f6aa782)" style="fill: none; stroke: #008000; stroke-width: 1.5; stroke-linecap: square"/>
   </g>
   <g id="line2d_81">
    <path clip-path="url(#pce2f6aa782)" style="fill: none; stroke: #008000; stroke-width: 1.5; stroke-linecap: square"/>
   </g>
   <g id="line2d_82">
    <path clip-path="url(#pce2f6aa782)" style="fill: none; stroke: #008000; stroke-width: 1.5; stroke-linecap: square"/>
   </g>
   <g id="line2d_83">
    <path clip-path="url(#pce2f6aa782)" style="fill: none; stroke: #008000; stroke-width: 1.5; stroke-linecap: square"/>
   </g>
   <g id="line2d_84">
    <path clip-path="url(#pce2f6aa782)" style="fill: none; stroke: #008000; stroke-width: 1.5; stroke-linecap: square"/>
   </g>
   <g id="line2d_85">
    <path clip-path="url(#pce2f6aa782)" style="fill: none; stroke: #008000; stroke-width: 1.5; stroke-linecap: square"/>
   </g>
   <g id="line2d_86">
    <path clip-path="url(#pce2f6aa782)" style="fill: none; stroke: #008000; stroke-width: 1.5; stroke-linecap: square"/>
   </g>
   <g id="line2d_87">
    <path clip-path="url(#pce2f6aa782)" style="fill: none; stroke: #008000; stroke-width: 1.5; stroke-linecap: square"/>
   </g>
   <g id="line2d_88">
    <path clip-path="url(#pce2f6aa782)" style="fill: none; stroke: #008000; stroke-width: 1.5; stroke-linecap: square"/>
   </g>
   <g id="line2d_89">
    <path clip-path="url(#pce2f6aa782)" style="fill: none; stroke: #008000; stroke-width: 1.5; stroke-linecap: square"/>
   </g>
   <g id="line2d_90">
    <path clip-path="url(#pce2f6aa782)" style="fill: none; stroke: #008000; stroke-width: 1.5; stroke-linecap: square"/>
   </g>
   <g id="line2d_91">
    <path clip-path="url(#pce2f6aa782)" style="fill: none; stroke: #008000; stroke-width: 1.5; stroke-linecap: square"/>
   </g>
   <g id="line2d_92">
    <path clip-path="url(#pce2f6aa782)" style="fill: none; stroke: #008000; stroke-width: 1.5; stroke-linecap: square"/>
   </g>
   <g id="line2d_93">
    <path clip-path="url(#pce2f6aa782)" style="fill: none; stroke: #008000; stroke-width: 1.5; stroke-linecap: square"/>
   </g>
   <g id="line2d_94">
    <path clip-path="url(#pce2f6aa782)" style="fill: none; stroke: #008000; stroke-width: 1.5; stroke-linecap: square"/>
   </g>
   <g id="line2d_95">
    <path clip-path="url(#pce2f6aa782)" style="fill: none; stroke: #008000; stroke-width: 1.5; stroke-linecap: square"/>
   </g>
   <g id="line2d_96">
    <path clip-path="url(#pce2f6aa782)" style="fill: none; stroke: #008000; stroke-width: 1.5; stroke-linecap: square"/>
   </g>
   <g id="line2d_97">
    <path clip-path="url(#pce2f6aa782)" style="fill: none; stroke: #008000; stroke-width: 1.5; stroke-linecap: square"/>
   </g>
   <g id="line2d_98">
    <path clip-path="url(#pce2f6aa782)" style="fill: none; stroke: #008000; stroke-width: 1.5; stroke-linecap: square"/>
   </g>
   <g id="line2d_99">
    <path clip-path="url(#pce2f6aa782)" style="fill: none; stroke: #008000; stroke-width: 1.5; stroke-linecap: square"/>
   </g>
   <g id="line2d_100">
    <path clip-path="url(#pce2f6aa782)" style="fill: none; stroke: #008000; stroke-width: 1.5; stroke-linecap: square"/>
   </g>
   <g id="line2d_101">
    <path clip-path="url(#pce2f6aa782)" style="fill: none; stroke: #008000; stroke-width: 1.5; stroke-linecap: square"/>
   </g>
   <g id="line2d_102">
    <path clip-path="url(#pce2f6aa782)" style="fill: none; stroke: #008000; stroke-width: 1.5; stroke-linecap: square"/>
   </g>
   <g id="line2d_103">
    <path clip-path="url(#pce2f6aa782)" style="fill: none; stroke: #008000; stroke-width: 1.5; stroke-linecap: square"/>
   </g>
   <g id="line2d_104">
    <path clip-path="url(#pce2f6aa782)" style="fill: none; stroke: #008000; stroke-width: 1.5; stroke-linecap: square"/>
   </g>
   <g id="line2d_105">
    <path clip-path="url(#pce2f6aa782)" style="fill: none; stroke: #008000; stroke-width: 1.5; stroke-linecap: square"/>
   </g>
   <g id="line2d_106">
    <path clip-path="url(#pce2f6aa782)" style="fill: none; stroke: #008000; stroke-width: 1.5; stroke-linecap: square"/>
   </g>
   <g id="line2d_107">
    <path clip-path="url(#pce2f6aa782)" style="fill: none; stroke: #008000; stroke-width: 1.5; stroke-linecap: square"/>
   </g>
   <g id="line2d_108">
    <path clip-path="url(#pce2f6aa782)" style="fill: none; stroke: #008000; stroke-width: 1.5; stroke-linecap: square"/>
   </g>
   <g id="line2d_109">
    <path clip-path="url(#pce2f6aa782)" style="fill: none; stroke: #008000; stroke-width: 1.5; stroke-linecap: square"/>
   </g>
   <g id="line2d_110">
    <path clip-path="url(#pce2f6aa782)" style="fill: none; stroke: #008000; stroke-width: 1.5; stroke-linecap: square"/>
   </g>
   <g id="line2d_111">
    <path clip-path="url(#pce2f6aa782)" style="fill: none; stroke: #008000; stroke-width: 1.5; stroke-linecap: square"/>
   </g>
   <g id="line2d_112">
    <path clip-path="url(#pce2f6aa782)" style="fill: none; stroke: #008000; stroke-width: 1.5; stroke-linecap: square"/>
   </g>
   <g id="line2d_113">
    <path clip-path="url(#pce2f6aa782)" style="fill: none; stroke: #008000; stroke-width: 1.5; stroke-linecap: square"/>
   </g>
   <g id="line2d_114">
    <path clip-path="url(#pce2f6aa782)" style="fill: none; stroke: #008000; stroke-width: 1.5; stroke-linecap: square"/>
   </g>
   <g id="line2d_115">
    <path clip-path="url(#pce2f6aa782)" style="fill: none; stroke: #008000; stroke-width: 1.5; stroke-linecap: square"/>
   </g>
   <g id="line2d_116">
    <path clip-path="url(#pce2f6aa782)" style="fill: none; stroke: #008000; stroke-width: 1.5; stroke-linecap: square"/>
   </g>
   <g id="line2d_117">
    <path clip-path="url(#pce2f6aa782)" style="fill: none; stroke: #008000; stroke-width: 1.5; stroke-linecap: square"/>
   </g>
   <g id="line2d_118">
    <path clip-path="url(#pce2f6aa782)" style="fill: none; stroke: #008000; stroke-width: 1.5; stroke-linecap: square"/>
   </g>
   <g id="line2d_119">
    <path clip-path="url(#pce2f6aa782)" style="fill: none; stroke: #008000; stroke-width: 1.5; stroke-linecap: square"/>
   </g>
   <g id="line2d_120">
    <path clip-path="url(#pce2f6aa782)" style="fill: none; stroke: #008000; stroke-width: 1.5; stroke-linecap: square"/>
   </g>
   <g id="line2d_121">
    <path clip-path="url(#pce2f6aa782)" style="fill: none; stroke: #008000; stroke-width: 1.5; stroke-linecap: square"/>
   </g>
   <g id="line2d_122">
    <path clip-path="url(#pce2f6aa782)" style="fill: none; stroke: #008000; stroke-width: 1.5; stroke-linecap: square"/>
   </g>
   <g id="line2d_123">
    <path clip-path="url(#pce2f6aa782)" style="fill: none; stroke: #008000; stroke-width: 1.5; stroke-linecap: square"/>
   </g>
   <g id="line2d_124">
    <path clip-path="url(#pce2f6aa782)" style="fill: none; stroke: #008000; stroke-width: 1.5; stroke-linecap: square"/>
   </g>
   <g id="line2d_125">
    <path clip-path="url(#pce2f6aa782)" style="fill: none; stroke: #008000; stroke-width: 1.5; stroke-linecap: square"/>
   </g>
   <g id="line2d_126">
    <path clip-path="url(#pce2f6aa782)" style="fill: none; stroke: #008000; stroke-width: 1.5; stroke-linecap: square"/>
   </g>
   <g id="line2d_127">
    <path clip-path="url(#pce2f6aa782)" style="fill: none; stroke: #008000; stroke-width: 1.5; stroke-linecap: square"/>
   </g>
   <g id="line2d_128">
    <path clip-path="url(#pce2f6aa782)" style="fill: none; stroke: #008000; stroke-width: 1.5; stroke-linecap: square"/>
   </g>
   <g id="line2d_129">
    <path clip-path="url(#pce2f6aa782)" style="fill: none; stroke: #008000; stroke-width: 1.5; stroke-linecap: square"/>
   </g>
   <g id="line2d_130">
    <path clip-path="url(#pce2f6aa782)" style="fill: none; stroke: #008000; stroke-width: 1.5; stroke-linecap: square"/>
   </g>
   <g id="line2d_131">
    <path clip-path="url(#pce2f6aa782)" style="fill: none; stroke: #008000; stroke-width: 1.5; stroke-linecap: square"/>
   </g>
   <g id="line2d_132">
    <path clip-path="url(#pce2f6aa782)" style="fill: none; stroke: #008000; stroke-width: 1.5; stroke-linecap: square"/>
   </g>
   <g id="line2d_133">
    <path clip-path="url(#pce2f6aa782)" style="fill: none; stroke: #008000; stroke-width: 1.5; stroke-linecap: square"/>
   </g>
   <g id="line2d_134">
    <path clip-path="url(#pce2f6aa782)" style="fill: none; stroke: #008000; stroke-width: 1.5; stroke-linecap: square"/>
   </g>
   <g id="line2d_135">
    <path clip-path="url(#pce2f6aa782)" style="fill: none; stroke: #008000; stroke-width: 1.5; stroke-linecap: square"/>
   </g>
   <g id="patch_3">
    <path d="M 60.48 267.84 
L 60.48 23.04 
" style="fill: none; stroke: #000000; stroke-width: 0.8; stroke-linejoin: miter; stroke-linecap: square"/>
   </g>
   <g id="patch_4">
    <path d="M 398.16 267.84 
L 398.16 23.04 
" style="fill: none; stroke: #000000; stroke-width: 0.8; stroke-linejoin: miter; stroke-linecap: square"/>
   </g>
   <g id="patch_5">
    <path d="M 60.48 267.84 
L 398.16 267.84 
" style="fill: none; stroke: #000000; stroke-width: 0.8; stroke-linejoin: miter; stroke-linecap: square"/>
   </g>
   <g id="patch_6">
    <path d="M 60.48 23.04 
L 398.16 23.04 
" style="fill: none; stroke: #000000; stroke-width: 0.8; stroke-linejoin: miter; stroke-linecap: square"/>
   </g>
  </g>
  <g id="axes_2">
   <g id="patch_7">
    <path d="M 403.2 267.84 
L 488.88 267.84 
L 488.88 23.04 
L 403.2 23.04 
z
" style="fill: #ffffff"/>
   </g>
   <g id="PolyCollection_1">
    <path d="M 407.094899 267.84 
L 407.094899 563.144841 
L 409.166588 530.053719 
L 421.771212 496.962598 
L 424.900332 463.871476 
L 422.439331 430.780355 
L 421.319574 397.689233 
L 420.447659 364.598112 
L 416.673192 331.50699 
L 412.084863 298.415869 
L 408.091057 265.324747 
L 413.455251 232.233626 
L 420.853916 199.142504 
L 428.246001 166.051383 
L 429.841625 132.960261 
L 432.087986 99.86914 
L 436.920947 66.778018 
L 444.931013 33.686897 
L 441.81274 0.595775 
L 451.395554 -32.495346 
L 446.763541 -65.586468 
L 417.142361 -98.677589 
L 407.09458 -131.768711 
L 407.094545 -164.859832 
L 407.094545 -197.950954 
L 407.094545 -231.042075 
L 407.094545 -264.133197 
L 407.094545 -297.224318 
L 407.094545 -330.31544 
L 407.167462 -363.406561 
L 420.296768 -396.497683 
L 451.177743 -429.588804 
L 437.963116 -462.679926 
L 460.94865 -495.771047 
L 441.262326 -528.862169 
L 428.057497 -561.95329 
L 428.274183 -595.044412 
L 431.941473 -628.135533 
L 448.738669 -661.226655 
L 441.661433 -694.317776 
L 435.684647 -727.408898 
L 440.895542 -760.500019 
L 408.082779 -793.591141 
L 407.094545 -826.682262 
L 407.094545 -859.773384 
L 407.094545 -892.864505 
L 407.094545 -925.955627 
L 407.094545 -959.046748 
L 407.094545 -992.13787 
L 407.094545 -1025.228991 
L 407.094545 -1058.320113 
L 407.094545 -1091.411234 
L 407.094545 -1124.502356 
L 407.094545 -1157.593477 
L 407.48278 -1190.684599 
L 468.127178 -1223.77572 
L 484.985455 -1256.866842 
L 407.123129 -1289.957963 
L 407.094545 -1323.049085 
L 407.094545 -1356.140206 
L 407.094545 -1389.231328 
L 407.094545 -1422.322449 
L 407.094545 -1455.413571 
L 407.094545 -1488.504692 
L 407.094545 -1521.595814 
L 407.094545 -1554.686935 
L 407.094545 -1587.778057 
L 407.094545 -1620.869178 
L 407.094545 -1653.9603 
L 407.094545 -1687.051421 
L 407.094545 -1720.142543 
L 407.094545 -1753.233664 
L 407.094545 -1786.324786 
L 407.094545 -1819.415907 
L 407.094545 -1852.507029 
L 407.094545 -1885.59815 
L 407.094545 -1918.689272 
L 407.094545 -1951.780393 
L 407.094545 -1984.871515 
L 407.094545 -2017.962636 
L 407.094545 -2051.053758 
L 407.094545 -2084.144879 
L 407.094545 -2117.236001 
L 407.094545 -2150.327122 
L 407.094545 -2183.418244 
L 407.094545 -2216.509365 
L 407.094545 -2249.600487 
L 407.094545 -2282.691608 
L 407.094545 -2315.78273 
L 409.11367 -2348.873851 
L 437.397347 -2381.964973 
L 433.67979 -2415.056094 
L 432.473402 -2448.147216 
L 439.599462 -2481.238337 
L 431.85547 -2514.329459 
L 431.779675 -2547.42058 
L 434.720077 -2580.511702 
L 448.636393 -2613.602823 
L 407.117298 -2646.693945 
L 432.048469 -2679.785066 
L 407.14649 -2712.876188 
L 407.14649 267.84 
L 407.14649 267.84 
L 432.048469 267.84 
L 407.117298 267.84 
L 448.636393 267.84 
L 434.720077 267.84 
L 431.779675 267.84 
L 431.85547 267.84 
L 439.599462 267.84 
L 432.473402 267.84 
L 433.67979 267.84 
L 437.397347 267.84 
L 409.11367 267.84 
L 407.094545 267.84 
L 407.094545 267.84 
L 407.094545 267.84 
L 407.094545 267.84 
L 407.094545 267.84 
L 407.094545 267.84 
L 407.094545 267.84 
L 407.094545 267.84 
L 407.094545 267.84 
L 407.094545 267.84 
L 407.094545 267.84 
L 407.094545 267.84 
L 407.094545 267.84 
L 407.094545 267.84 
L 407.094545 267.84 
L 407.094545 267.84 
L 407.094545 267.84 
L 407.094545 267.84 
L 407.094545 267.84 
L 407.094545 267.84 
L 407.094545 267.84 
L 407.094545 267.84 
L 407.094545 267.84 
L 407.094545 267.84 
L 407.094545 267.84 
L 407.094545 267.84 
L 407.094545 267.84 
L 407.094545 267.84 
L 407.094545 267.84 
L 407.094545 267.84 
L 407.094545 267.84 
L 407.123129 267.84 
L 484.985455 267.84 
L 468.127178 267.84 
L 407.48278 267.84 
L 407.094545 267.84 
L 407.094545 267.84 
L 407.094545 267.84 
L 407.094545 267.84 
L 407.094545 267.84 
L 407.094545 267.84 
L 407.094545 267.84 
L 407.094545 267.84 
L 407.094545 267.84 
L 407.094545 267.84 
L 407.094545 267.84 
L 408.082779 267.84 
L 440.895542 267.84 
L 435.684647 267.84 
L 441.661433 267.84 
L 448.738669 267.84 
L 431.941473 267.84 
L 428.274183 267.84 
L 428.057497 267.84 
L 441.262326 267.84 
L 460.94865 267.84 
L 437.963116 267.84 
L 451.177743 267.84 
L 420.296768 267.84 
L 407.167462 267.84 
L 407.094545 267.84 
L 407.094545 267.84 
L 407.094545 267.84 
L 407.094545 267.84 
L 407.094545 267.84 
L 407.094545 267.84 
L 407.09458 267.84 
L 417.142361 267.84 
L 446.763541 267.84 
L 451.395554 267.84 
L 441.81274 267.84 
L 444.931013 267.84 
L 436.920947 267.84 
L 432.087986 267.84 
L 429.841625 267.84 
L 428.246001 267.84 
L 420.853916 267.84 
L 413.455251 267.84 
L 408.091057 267.84 
L 412.084863 267.84 
L 416.673192 267.84 
L 420.447659 267.84 
L 421.319574 267.84 
L 422.439331 267.84 
L 424.900332 267.84 
L 421.771212 267.84 
L 409.166588 267.84 
L 407.094899 267.84 
z
" clip-path="url(#p3e50c1903b)" style="fill: #808080; stroke: #000000"/>
   </g>
   <g id="matplotlib.axis_3">
    <g id="text_20">
     <!-- DOS -->
     <g transform="translate(426.311719 285.517187) scale(0.18 -0.18)">
      <defs>
       <path id="DejaVuSans-44" d="M 1259 4147 
L 1259 519 
L 2022 519 
Q 2988 519 3436 956 
Q 3884 1394 3884 2338 
Q 3884 3275 3436 3711 
Q 2988 4147 2022 4147 
L 1259 4147 
z
M 628 4666 
L 1925 4666 
Q 3281 4666 3915 4102 
Q 4550 3538 4550 2338 
Q 4550 1131 3912 565 
Q 3275 0 1925 0 
L 628 0 
L 628 4666 
z
" transform="scale(0.015625)"/>
       <path id="DejaVuSans-4f" d="M 2522 4238 
Q 1834 4238 1429 3725 
Q 1025 3213 1025 2328 
Q 1025 1447 1429 934 
Q 1834 422 2522 422 
Q 3209 422 3611 934 
Q 4013 1447 4013 2328 
Q 4013 3213 3611 3725 
Q 3209 4238 2522 4238 
z
M 2522 4750 
Q 3503 4750 4090 4092 
Q 4678 3434 4678 2328 
Q 4678 1225 4090 567 
Q 3503 -91 2522 -91 
Q 1538 -91 948 565 
Q 359 1222 359 2328 
Q 359 3434 948 4092 
Q 1538 4750 2522 4750 
z
" transform="scale(0.015625)"/>
       <path id="DejaVuSans-53" d="M 3425 4513 
L 3425 3897 
Q 3066 4069 2747 4153 
Q 2428 4238 2131 4238 
Q 1616 4238 1336 4038 
Q 1056 3838 1056 3469 
Q 1056 3159 1242 3001 
Q 1428 2844 1947 2747 
L 2328 2669 
Q 3034 2534 3370 2195 
Q 3706 1856 3706 1288 
Q 3706 609 3251 259 
Q 2797 -91 1919 -91 
Q 1588 -91 1214 -16 
Q 841 59 441 206 
L 441 856 
Q 825 641 1194 531 
Q 1563 422 1919 422 
Q 2459 422 2753 634 
Q 3047 847 3047 1241 
Q 3047 1584 2836 1778 
Q 2625 1972 2144 2069 
L 1759 2144 
Q 1053 2284 737 2584 
Q 422 2884 422 3419 
Q 422 4038 858 4394 
Q 1294 4750 2059 4750 
Q 2388 4750 2728 4690 
Q 3069 4631 3425 4513 
z
" transform="scale(0.015625)"/>
      </defs>
      <use xlink:href="#DejaVuSans-44"/>
      <use xlink:href="#DejaVuSans-4f" x="77.001953"/>
      <use xlink:href="#DejaVuSans-53" x="155.712891"/>
     </g>
    </g>
   </g>
   <g id="matplotlib.axis_4"/>
   <g id="patch_8">
    <path d="M 403.2 267.84 
L 403.2 23.04 
" style="fill: none; stroke: #000000; stroke-width: 0.8; stroke-linejoin: miter; stroke-linecap: square"/>
   </g>
   <g id="patch_9">
    <path d="M 488.88 267.84 
L 488.88 23.04 
" style="fill: none; stroke: #000000; stroke-width: 0.8; stroke-linejoin: miter; stroke-linecap: square"/>
   </g>
   <g id="patch_10">
    <path d="M 403.2 267.84 
L 488.88 267.84 
" style="fill: none; stroke: #000000; stroke-width: 0.8; stroke-linejoin: miter; stroke-linecap: square"/>
   </g>
   <g id="patch_11">
    <path d="M 403.2 23.04 
L 488.88 23.04 
" style="fill: none; stroke: #000000; stroke-width: 0.8; stroke-linejoin: miter; stroke-linecap: square"/>
   </g>
  </g>
 </g>
 <defs>
  <clipPath id="pce2f6aa782">
   <rect x="60.48" y="23.04" width="337.68" height="244.8"/>
  </clipPath>
  <clipPath id="p3e50c1903b">
   <rect x="403.2" y="23.04" width="85.68" height="244.8"/>
  </clipPath>
 </defs>
</svg>
