<?xml version="1.0" encoding="utf-8" standalone="no"?>
<!DOCTYPE svg PUBLIC "-//W3C//DTD SVG 1.1//EN"
  "http://www.w3.org/Graphics/SVG/1.1/DTD/svg11.dtd">
<svg xmlns:xlink="http://www.w3.org/1999/xlink" width="460.8pt" height="345.6pt" viewBox="0 0 460.8 345.6" xmlns="http://www.w3.org/2000/svg" version="1.1">
 <metadata>
  <rdf:RDF xmlns:dc="http://purl.org/dc/elements/1.1/" xmlns:cc="http://creativecommons.org/ns#" xmlns:rdf="http://www.w3.org/1999/02/22-rdf-syntax-ns#">
   <cc:Work>
    <dc:type rdf:resource="http://purl.org/dc/dcmitype/StillImage"/>
    <dc:date>2024-08-07T17:36:07.913159</dc:date>
    <dc:format>image/svg+xml</dc:format>
    <dc:creator>
     <cc:Agent>
      <dc:title>Matplotlib v3.9.1.post1, https://matplotlib.org/</dc:title>
     </cc:Agent>
    </dc:creator>
   </cc:Work>
  </rdf:RDF>
 </metadata>
 <defs>
  <style type="text/css">*{stroke-linejoin: round; stroke-linecap: butt}</style>
 </defs>
 <g id="figure_1">
  <g id="patch_1">
   <path d="M 0 345.6 
L 460.8 345.6 
L 460.8 0 
L 0 0 
z
" style="fill: #ffffff"/>
  </g>
  <g id="axes_1">
   <g id="patch_2">
    <path d="M 57.6 307.584 
L 414.72 307.584 
L 414.72 41.472 
L 57.6 41.472 
z
" style="fill: #ffffff"/>
   </g>
   <g id="matplotlib.axis_1">
    <g id="xtick_1">
     <g id="line2d_1">
      <defs>
       <path id="mae02ecb7aa" d="M 0 0 
L 0 3.5 
" style="stroke: #000000; stroke-width: 0.8"/>
      </defs>
      <g>
       <use xlink:href="#mae02ecb7aa" x="73.832727" y="307.584" style="stroke: #000000; stroke-width: 0.8"/>
      </g>
     </g>
     <g id="text_1">
      <!-- 0.0 -->
      <g transform="translate(65.881165 322.182437) scale(0.1 -0.1)">
       <defs>
        <path id="DejaVuSans-30" d="M 2034 4250 
Q 1547 4250 1301 3770 
Q 1056 3291 1056 2328 
Q 1056 1369 1301 889 
Q 1547 409 2034 409 
Q 2525 409 2770 889 
Q 3016 1369 3016 2328 
Q 3016 3291 2770 3770 
Q 2525 4250 2034 4250 
z
M 2034 4750 
Q 2819 4750 3233 4129 
Q 3647 3509 3647 2328 
Q 3647 1150 3233 529 
Q 2819 -91 2034 -91 
Q 1250 -91 836 529 
Q 422 1150 422 2328 
Q 422 3509 836 4129 
Q 1250 4750 2034 4750 
z
" transform="scale(0.015625)"/>
        <path id="DejaVuSans-2e" d="M 684 794 
L 1344 794 
L 1344 0 
L 684 0 
L 684 794 
z
" transform="scale(0.015625)"/>
       </defs>
       <use xlink:href="#DejaVuSans-30"/>
       <use xlink:href="#DejaVuSans-2e" x="63.623047"/>
       <use xlink:href="#DejaVuSans-30" x="95.410156"/>
      </g>
     </g>
    </g>
    <g id="xtick_2">
     <g id="line2d_2">
      <g>
       <use xlink:href="#mae02ecb7aa" x="140.008494" y="307.584" style="stroke: #000000; stroke-width: 0.8"/>
      </g>
     </g>
     <g id="text_2">
      <!-- 0.1 -->
      <g transform="translate(132.056931 322.182437) scale(0.1 -0.1)">
       <defs>
        <path id="DejaVuSans-31" d="M 794 531 
L 1825 531 
L 1825 4091 
L 703 3866 
L 703 4441 
L 1819 4666 
L 2450 4666 
L 2450 531 
L 3481 531 
L 3481 0 
L 794 0 
L 794 531 
z
" transform="scale(0.015625)"/>
       </defs>
       <use xlink:href="#DejaVuSans-30"/>
       <use xlink:href="#DejaVuSans-2e" x="63.623047"/>
       <use xlink:href="#DejaVuSans-31" x="95.410156"/>
      </g>
     </g>
    </g>
    <g id="xtick_3">
     <g id="line2d_3">
      <g>
       <use xlink:href="#mae02ecb7aa" x="206.18426" y="307.584" style="stroke: #000000; stroke-width: 0.8"/>
      </g>
     </g>
     <g id="text_3">
      <!-- 0.2 -->
      <g transform="translate(198.232698 322.182437) scale(0.1 -0.1)">
       <defs>
        <path id="DejaVuSans-32" d="M 1228 531 
L 3431 531 
L 3431 0 
L 469 0 
L 469 531 
Q 828 903 1448 1529 
Q 2069 2156 2228 2338 
Q 2531 2678 2651 2914 
Q 2772 3150 2772 3378 
Q 2772 3750 2511 3984 
Q 2250 4219 1831 4219 
Q 1534 4219 1204 4116 
Q 875 4013 500 3803 
L 500 4441 
Q 881 4594 1212 4672 
Q 1544 4750 1819 4750 
Q 2544 4750 2975 4387 
Q 3406 4025 3406 3419 
Q 3406 3131 3298 2873 
Q 3191 2616 2906 2266 
Q 2828 2175 2409 1742 
Q 1991 1309 1228 531 
z
" transform="scale(0.015625)"/>
       </defs>
       <use xlink:href="#DejaVuSans-30"/>
       <use xlink:href="#DejaVuSans-2e" x="63.623047"/>
       <use xlink:href="#DejaVuSans-32" x="95.410156"/>
      </g>
     </g>
    </g>
    <g id="xtick_4">
     <g id="line2d_4">
      <g>
       <use xlink:href="#mae02ecb7aa" x="272.360027" y="307.584" style="stroke: #000000; stroke-width: 0.8"/>
      </g>
     </g>
     <g id="text_4">
      <!-- 0.3 -->
      <g transform="translate(264.408465 322.182437) scale(0.1 -0.1)">
       <defs>
        <path id="DejaVuSans-33" d="M 2597 2516 
Q 3050 2419 3304 2112 
Q 3559 1806 3559 1356 
Q 3559 666 3084 287 
Q 2609 -91 1734 -91 
Q 1441 -91 1130 -33 
Q 819 25 488 141 
L 488 750 
Q 750 597 1062 519 
Q 1375 441 1716 441 
Q 2309 441 2620 675 
Q 2931 909 2931 1356 
Q 2931 1769 2642 2001 
Q 2353 2234 1838 2234 
L 1294 2234 
L 1294 2753 
L 1863 2753 
Q 2328 2753 2575 2939 
Q 2822 3125 2822 3475 
Q 2822 3834 2567 4026 
Q 2313 4219 1838 4219 
Q 1578 4219 1281 4162 
Q 984 4106 628 3988 
L 628 4550 
Q 988 4650 1302 4700 
Q 1616 4750 1894 4750 
Q 2613 4750 3031 4423 
Q 3450 4097 3450 3541 
Q 3450 3153 3228 2886 
Q 3006 2619 2597 2516 
z
" transform="scale(0.015625)"/>
       </defs>
       <use xlink:href="#DejaVuSans-30"/>
       <use xlink:href="#DejaVuSans-2e" x="63.623047"/>
       <use xlink:href="#DejaVuSans-33" x="95.410156"/>
      </g>
     </g>
    </g>
    <g id="xtick_5">
     <g id="line2d_5">
      <g>
       <use xlink:href="#mae02ecb7aa" x="338.535794" y="307.584" style="stroke: #000000; stroke-width: 0.8"/>
      </g>
     </g>
     <g id="text_5">
      <!-- 0.4 -->
      <g transform="translate(330.584231 322.182437) scale(0.1 -0.1)">
       <defs>
        <path id="DejaVuSans-34" d="M 2419 4116 
L 825 1625 
L 2419 1625 
L 2419 4116 
z
M 2253 4666 
L 3047 4666 
L 3047 1625 
L 3713 1625 
L 3713 1100 
L 3047 1100 
L 3047 0 
L 2419 0 
L 2419 1100 
L 313 1100 
L 313 1709 
L 2253 4666 
z
" transform="scale(0.015625)"/>
       </defs>
       <use xlink:href="#DejaVuSans-30"/>
       <use xlink:href="#DejaVuSans-2e" x="63.623047"/>
       <use xlink:href="#DejaVuSans-34" x="95.410156"/>
      </g>
     </g>
    </g>
    <g id="xtick_6">
     <g id="line2d_6">
      <g>
       <use xlink:href="#mae02ecb7aa" x="404.71156" y="307.584" style="stroke: #000000; stroke-width: 0.8"/>
      </g>
     </g>
     <g id="text_6">
      <!-- 0.5 -->
      <g transform="translate(396.759998 322.182437) scale(0.1 -0.1)">
       <defs>
        <path id="DejaVuSans-35" d="M 691 4666 
L 3169 4666 
L 3169 4134 
L 1269 4134 
L 1269 2991 
Q 1406 3038 1543 3061 
Q 1681 3084 1819 3084 
Q 2600 3084 3056 2656 
Q 3513 2228 3513 1497 
Q 3513 744 3044 326 
Q 2575 -91 1722 -91 
Q 1428 -91 1123 -41 
Q 819 9 494 109 
L 494 744 
Q 775 591 1075 516 
Q 1375 441 1709 441 
Q 2250 441 2565 725 
Q 2881 1009 2881 1497 
Q 2881 1984 2565 2268 
Q 2250 2553 1709 2553 
Q 1456 2553 1204 2497 
Q 953 2441 691 2322 
L 691 4666 
z
" transform="scale(0.015625)"/>
       </defs>
       <use xlink:href="#DejaVuSans-30"/>
       <use xlink:href="#DejaVuSans-2e" x="63.623047"/>
       <use xlink:href="#DejaVuSans-35" x="95.410156"/>
      </g>
     </g>
    </g>
   </g>
   <g id="matplotlib.axis_2">
    <g id="ytick_1">
     <g id="line2d_7">
      <defs>
       <path id="mbb3823475a" d="M 0 0 
L -3.5 0 
" style="stroke: #000000; stroke-width: 0.8"/>
      </defs>
      <g>
       <use xlink:href="#mbb3823475a" x="57.6" y="294.702495" style="stroke: #000000; stroke-width: 0.8"/>
      </g>
     </g>
     <g id="text_7">
      <!-- 0 -->
      <g transform="translate(44.2375 298.501714) scale(0.1 -0.1)">
       <use xlink:href="#DejaVuSans-30"/>
      </g>
     </g>
    </g>
    <g id="ytick_2">
     <g id="line2d_8">
      <g>
       <use xlink:href="#mbb3823475a" x="57.6" y="242.293574" style="stroke: #000000; stroke-width: 0.8"/>
      </g>
     </g>
     <g id="text_8">
      <!-- 5 -->
      <g transform="translate(44.2375 246.092793) scale(0.1 -0.1)">
       <use xlink:href="#DejaVuSans-35"/>
      </g>
     </g>
    </g>
    <g id="ytick_3">
     <g id="line2d_9">
      <g>
       <use xlink:href="#mbb3823475a" x="57.6" y="189.884652" style="stroke: #000000; stroke-width: 0.8"/>
      </g>
     </g>
     <g id="text_9">
      <!-- 10 -->
      <g transform="translate(37.875 193.683871) scale(0.1 -0.1)">
       <use xlink:href="#DejaVuSans-31"/>
       <use xlink:href="#DejaVuSans-30" x="63.623047"/>
      </g>
     </g>
    </g>
    <g id="ytick_4">
     <g id="line2d_10">
      <g>
       <use xlink:href="#mbb3823475a" x="57.6" y="137.475731" style="stroke: #000000; stroke-width: 0.8"/>
      </g>
     </g>
     <g id="text_10">
      <!-- 15 -->
      <g transform="translate(37.875 141.27495) scale(0.1 -0.1)">
       <use xlink:href="#DejaVuSans-31"/>
       <use xlink:href="#DejaVuSans-35" x="63.623047"/>
      </g>
     </g>
    </g>
    <g id="ytick_5">
     <g id="line2d_11">
      <g>
       <use xlink:href="#mbb3823475a" x="57.6" y="85.06681" style="stroke: #000000; stroke-width: 0.8"/>
      </g>
     </g>
     <g id="text_11">
      <!-- 20 -->
      <g transform="translate(37.875 88.866029) scale(0.1 -0.1)">
       <use xlink:href="#DejaVuSans-32"/>
       <use xlink:href="#DejaVuSans-30" x="63.623047"/>
      </g>
     </g>
    </g>
   </g>
   <g id="line2d_12">
    <path d="M 73.832727 295.304464 
L 74.747442 295.471439 
L 75.662163 295.488 
L 76.576877 295.32396 
L 77.491592 294.384897 
L 78.406307 293.783976 
L 81.150457 292.559075 
L 87.553472 290.02437 
L 95.785922 286.999327 
L 102.188931 284.858108 
L 108.591946 282.950843 
L 114.080246 281.532448 
L 117.739111 280.733526 
L 119.568547 280.51257 
L 119.568547 280.51257 
L 121.827767 280.709837 
L 133.123891 282.174038 
L 138.771947 282.695297 
L 144.420009 283.002308 
L 150.068071 283.05891 
L 160.234581 282.882501 
L 167.01225 283.420007 
L 170.401091 283.297056 
L 173.789926 282.859127 
L 176.049146 282.421093 
L 176.049146 282.421093 
L 178.793297 282.289232 
L 181.537447 281.95696 
L 185.196312 281.245352 
L 189.769891 280.058289 
L 196.172906 278.359402 
L 200.746492 277.432707 
L 208.064221 276.20288 
L 219.040816 274.588894 
L 220.870251 274.445189 
L 223.052576 274.494558 
L 226.855399 274.912677 
L 242.066707 277.047711 
L 247.13714 277.462685 
L 253.475184 277.728189 
L 259.813227 277.978284 
L 266.151271 278.316951 
L 269.954095 278.295358 
L 273.756925 278.065912 
L 278.827358 277.498428 
L 283.897792 276.907884 
L 287.909552 276.862918 
L 296.141996 276.747513 
L 301.630297 276.452136 
L 306.203876 275.991986 
L 310.777455 275.309412 
L 316.265756 274.225386 
L 319.92462 273.520905 
L 323.583485 273.129411 
L 329.071785 272.731208 
L 332.252941 272.710035 
L 336.308099 272.95426 
L 340.363264 273.422377 
L 344.418429 274.052961 
L 347.121874 274.619396 
L 351.177033 275.729417 
L 356.583917 277.468555 
L 363.342527 279.860079 
L 371.452851 282.982602 
L 379.563181 286.357947 
L 387.673504 289.956553 
L 394.432108 293.16597 
L 395.783834 293.904831 
L 397.135553 295.218618 
L 398.487273 295.304464 
L 398.487273 295.304464 
" clip-path="url(#p913c754b4d)" style="fill: none; stroke: #008000; stroke-width: 1.5; stroke-linecap: square"/>
   </g>
   <g id="line2d_13">
    <path d="M 73.832727 295.269769 
L 75.662163 293.743097 
L 78.406307 292.515471 
L 84.809322 290.031288 
L 92.127051 287.419751 
L 98.530066 285.34593 
L 104.933081 283.505748 
L 110.421381 282.136408 
L 115.909682 280.976389 
L 118.653825 280.537726 
L 119.568547 280.481439 
L 119.568547 280.481439 
L 121.827767 280.642125 
L 128.605443 281.313274 
L 134.253498 281.613681 
L 139.90156 281.6402 
L 145.549622 281.405828 
L 152.327291 281.054478 
L 154.586519 281.197555 
L 160.234581 281.954864 
L 162.493802 281.879814 
L 165.882643 281.502889 
L 171.530698 280.597997 
L 176.049146 279.723501 
L 176.049146 279.723501 
L 180.622732 279.592479 
L 185.196312 279.237985 
L 189.769891 278.661382 
L 193.428756 278.005642 
L 197.087627 277.108611 
L 204.405357 275.133633 
L 207.149507 274.7065 
L 217.211387 273.621635 
L 219.95553 273.633375 
L 236.996266 273.958834 
L 240.799097 274.301589 
L 245.86953 275.18405 
L 254.742794 276.791641 
L 257.278007 277.099806 
L 259.813227 277.242463 
L 263.616051 277.191417 
L 268.686484 276.88713 
L 276.292138 276.195542 
L 281.362572 275.747446 
L 285.165402 275.76254 
L 285.165402 275.76254 
L 292.483131 275.656045 
L 298.886146 275.39725 
L 304.374447 274.958901 
L 309.862741 274.276432 
L 316.265756 273.434955 
L 319.92462 272.984762 
L 322.66877 272.369796 
L 329.071785 270.795013 
L 330.901215 270.633908 
L 330.901215 270.633908 
L 333.60466 270.815242 
L 336.308099 271.272143 
L 341.714983 272.519371 
L 345.770148 273.428351 
L 353.880478 275.005441 
L 357.935643 276.185375 
L 363.342527 278.058679 
L 368.749412 280.189521 
L 375.508016 283.147795 
L 382.26662 286.359833 
L 391.728669 291.12653 
L 395.783834 293.303596 
L 397.135553 294.192766 
L 398.487273 295.269769 
L 398.487273 295.269769 
" clip-path="url(#p913c754b4d)" style="fill: none; stroke: #008000; stroke-width: 1.5; stroke-linecap: square"/>
   </g>
   <g id="line2d_14">
    <path d="M 73.832727 295.199227 
L 74.747442 294.159539 
L 92.127051 281.438112 
L 95.785922 278.851836 
L 96.700637 278.292214 
L 97.615351 277.872209 
L 98.530066 277.678715 
L 100.359502 277.686367 
L 104.933081 278.126811 
L 112.25081 279.086104 
L 119.568547 280.128622 
L 119.568547 280.128622 
L 121.827767 279.910077 
L 128.605443 278.792719 
L 144.420009 275.960541 
L 145.549622 276.193341 
L 151.197684 278.34871 
L 153.456905 278.89303 
L 155.716133 279.03663 
L 157.975353 278.844394 
L 161.364188 278.233516 
L 165.882643 277.118044 
L 171.530698 275.454899 
L 174.919539 274.460493 
L 176.049146 274.211236 
L 176.049146 274.211236 
L 181.537447 274.083568 
L 191.599327 273.716915 
L 196.172906 273.931896 
L 201.661206 274.175807 
L 204.405357 274.059564 
L 207.149507 273.629811 
L 211.723086 272.756574 
L 213.552515 272.650288 
L 219.040816 272.728797 
L 221.784966 272.428913 
L 221.784966 272.428913 
L 236.996266 273.545223 
L 240.799097 273.898879 
L 244.60192 273.95003 
L 250.939964 273.76293 
L 258.545617 273.522792 
L 263.616051 273.589771 
L 267.418881 273.826345 
L 271.221705 274.319093 
L 277.559748 275.181325 
L 281.362572 275.495254 
L 285.165402 275.614223 
L 285.165402 275.614223 
L 289.738981 275.504478 
L 294.31256 275.150823 
L 299.800861 274.454623 
L 308.948026 273.128782 
L 315.351041 272.614231 
L 318.095191 272.130182 
L 322.66877 271.035779 
L 326.327635 270.20384 
L 328.157071 269.998711 
L 330.901215 269.957204 
L 330.901215 269.957204 
L 333.60466 270.145247 
L 337.659825 270.812308 
L 351.177033 273.428246 
L 353.880478 273.618072 
L 357.935643 273.607171 
L 361.990801 273.572266 
L 363.342527 273.639979 
L 364.694247 273.893952 
L 366.045966 274.618034 
L 372.80457 279.043024 
L 380.9149 284.276579 
L 389.025223 289.226916 
L 397.135553 293.959232 
L 398.487273 295.199227 
L 398.487273 295.199227 
" clip-path="url(#p913c754b4d)" style="fill: none; stroke: #008000; stroke-width: 1.5; stroke-linecap: square"/>
   </g>
   <g id="line2d_15">
    <path d="M 73.832727 276.095546 
L 80.235742 276.19701 
L 88.468186 276.55339 
L 102.188931 277.420968 
L 108.591946 278.25668 
L 116.824396 279.591745 
L 118.653825 279.848025 
L 119.568547 279.895927 
L 119.568547 279.895927 
L 121.827767 279.699603 
L 125.216602 279.098682 
L 130.864664 277.834789 
L 137.64234 276.044185 
L 141.031174 275.176398 
L 142.160788 275.07504 
L 143.290395 275.270735 
L 144.420009 275.594726 
L 145.549622 275.598081 
L 151.197684 274.55703 
L 167.01225 271.557982 
L 168.141864 271.453269 
L 169.271477 271.543098 
L 176.049146 272.792107 
L 176.049146 272.792107 
L 180.622732 272.726281 
L 186.111026 272.391598 
L 193.428756 271.847908 
L 198.002342 271.779252 
L 212.637801 271.895076 
L 215.381951 271.661751 
L 219.95553 271.206737 
L 224.320186 271.289019 
L 228.123009 271.635442 
L 233.193443 272.103768 
L 236.996266 272.122216 
L 244.60192 271.920232 
L 252.207574 271.991089 
L 258.545617 272.062994 
L 261.080837 272.308477 
L 264.883661 272.931305 
L 269.954095 273.741861 
L 282.630182 275.251448 
L 288.824267 275.178704 
L 293.397846 274.907017 
L 298.886146 274.33534 
L 308.033311 273.040106 
L 316.265756 271.553265 
L 325.412921 269.977748 
L 328.157071 269.67168 
L 330.901215 269.578602 
L 330.901215 269.578602 
L 336.308099 269.635937 
L 339.011544 270.008564 
L 345.770148 271.176445 
L 349.825313 271.633031 
L 353.880478 271.792354 
L 360.639082 271.812479 
L 361.990801 272.143913 
L 364.694247 273.450049 
L 367.397686 273.842801 
L 383.618339 275.496827 
L 390.376949 275.912115 
L 397.135553 276.090096 
L 398.487273 276.095546 
L 398.487273 276.095546 
" clip-path="url(#p913c754b4d)" style="fill: none; stroke: #008000; stroke-width: 1.5; stroke-linecap: square"/>
   </g>
   <g id="line2d_16">
    <path d="M 73.832727 275.993454 
L 83.894607 276.108753 
L 91.212336 276.421949 
L 96.700637 276.737031 
L 97.615351 276.65171 
L 98.530066 276.328032 
L 101.274216 274.73522 
L 103.103652 273.730122 
L 104.933081 273.025536 
L 105.847802 272.853635 
L 107.677231 272.834034 
L 116.824396 273.517027 
L 124.086995 273.559793 
L 130.864664 273.432544 
L 136.512726 273.31085 
L 138.771947 273.529396 
L 142.160788 274.166688 
L 143.290395 274.056944 
L 145.549622 273.462732 
L 155.716133 270.484647 
L 157.975353 270.144408 
L 160.234581 270.00238 
L 162.493802 270.068625 
L 164.753029 270.358132 
L 168.141864 270.92614 
L 169.271477 270.893122 
L 176.049146 270.009508 
L 176.049146 270.009508 
L 179.708011 270.203421 
L 190.684612 271.148563 
L 193.428756 271.007374 
L 198.002342 270.624684 
L 200.746492 270.660636 
L 205.320071 270.995634 
L 209.89365 271.332099 
L 211.723086 271.303903 
L 214.467236 270.9579 
L 219.95553 270.028165 
L 220.870251 269.995462 
L 221.784966 270.083614 
L 221.784966 270.083614 
L 223.052576 270.048186 
L 226.855399 270.331613 
L 235.728663 271.3147 
L 240.799097 271.630096 
L 243.33431 271.587016 
L 248.40475 271.119529 
L 254.742794 270.479092 
L 257.278007 270.524478 
L 261.080837 271.090389 
L 280.094968 274.110925 
L 283.897792 274.488793 
L 287.909552 274.496026 
L 293.397846 274.276537 
L 300.715575 273.721108 
L 306.203876 273.191358 
L 310.777455 272.352291 
L 327.24235 269.208071 
L 329.9865 268.935963 
L 332.252941 268.95242 
L 336.308099 269.308276 
L 351.177033 270.779814 
L 356.583917 271.344153 
L 361.990801 271.637748 
L 364.694247 271.400021 
L 370.101131 270.62112 
L 371.452851 270.751094 
L 374.156296 271.38912 
L 384.970065 274.290688 
L 389.025223 275.123885 
L 393.080388 275.702479 
L 397.135553 275.97532 
L 398.487273 275.993454 
L 398.487273 275.993454 
" clip-path="url(#p913c754b4d)" style="fill: none; stroke: #008000; stroke-width: 1.5; stroke-linecap: square"/>
   </g>
   <g id="line2d_17">
    <path d="M 73.832727 263.113751 
L 76.576877 263.21511 
L 79.321028 263.529878 
L 82.065171 264.067804 
L 84.809322 264.807817 
L 88.468186 266.022551 
L 101.274216 270.545861 
L 104.018366 271.163133 
L 105.847802 271.327068 
L 109.506667 271.426226 
L 113.165532 271.847489 
L 116.824396 272.245692 
L 119.568547 272.352815 
L 119.568547 272.352815 
L 122.957381 272.228501 
L 133.123891 271.548234 
L 136.512726 271.634289 
L 139.90156 271.731141 
L 143.290395 271.508088 
L 148.938457 270.794908 
L 154.586519 269.91339 
L 160.234581 268.791944 
L 162.493802 268.795612 
L 171.530698 269.243394 
L 174.919539 269.505334 
L 182.452161 269.597574 
L 198.917056 269.673986 
L 208.978936 268.740478 
L 211.723086 268.759136 
L 214.467236 269.056923 
L 219.040816 269.774925 
L 223.052576 269.924815 
L 225.587789 269.812031 
L 228.123009 269.66885 
L 231.925833 269.138262 
L 236.996266 268.361038 
L 239.531487 268.182847 
L 242.066707 268.194692 
L 245.86953 268.453172 
L 252.207574 269.166563 
L 257.278007 269.775974 
L 259.813227 269.763395 
L 262.348441 269.578287 
L 266.151271 269.045079 
L 277.559748 267.146094 
L 281.362572 266.807113 
L 285.165402 266.692862 
L 285.165402 266.692862 
L 288.824267 266.832374 
L 292.483131 267.223345 
L 297.971432 268.10937 
L 304.374447 269.162894 
L 308.033311 269.541601 
L 310.777455 269.64275 
L 314.436326 269.529966 
L 319.009906 269.119604 
L 323.583485 268.70222 
L 328.157071 268.573294 
L 329.9865 268.343009 
L 332.252941 268.412818 
L 336.308099 268.852319 
L 343.066709 269.0499 
L 347.121874 268.873073 
L 356.583917 268.228862 
L 357.935643 268.784816 
L 359.287363 269.503342 
L 360.639082 270.084348 
L 361.990801 270.334233 
L 363.342527 270.29566 
L 368.749412 269.629124 
L 370.101131 269.658578 
L 371.452851 269.501036 
L 374.156296 268.807876 
L 380.9149 266.627979 
L 386.321785 264.954038 
L 390.376949 263.959946 
L 393.080388 263.493192 
L 395.783834 263.208926 
L 398.487273 263.113751 
L 398.487273 263.113751 
" clip-path="url(#p913c754b4d)" style="fill: none; stroke: #008000; stroke-width: 1.5; stroke-linecap: square"/>
   </g>
   <g id="line2d_18">
    <path d="M 73.832727 261.741371 
L 77.491592 261.824702 
L 80.235742 262.072177 
L 82.979892 262.554548 
L 85.724043 263.265737 
L 89.382907 264.479738 
L 97.615351 267.352795 
L 101.274216 268.399191 
L 109.506667 270.300377 
L 112.25081 270.699104 
L 114.994961 270.881068 
L 118.653825 270.864297 
L 127.475829 270.628143 
L 130.864664 270.095563 
L 135.383112 269.25461 
L 145.549622 269.049271 
L 155.716133 268.326552 
L 160.234581 268.080231 
L 163.623415 267.513376 
L 165.882643 267.563269 
L 169.271477 268.027298 
L 176.049146 269.159959 
L 176.049146 269.159959 
L 184.281597 268.968142 
L 192.514041 268.791 
L 196.172906 268.688698 
L 198.917056 268.38001 
L 201.661206 267.808123 
L 204.405357 267.173661 
L 206.234786 267.091484 
L 208.064221 267.333403 
L 212.637801 268.341332 
L 216.296665 269.009546 
L 219.040816 269.431542 
L 219.95553 269.470954 
L 221.784966 269.332175 
L 221.784966 269.332175 
L 224.320186 269.504181 
L 226.855399 269.256182 
L 236.996266 267.622281 
L 239.531487 267.217789 
L 242.066707 267.089807 
L 244.60192 267.310343 
L 248.40475 267.994175 
L 253.475184 269.019084 
L 256.010397 269.264358 
L 258.545617 269.210586 
L 262.348441 268.7453 
L 271.221705 267.265586 
L 282.630182 265.388299 
L 285.165402 265.238409 
L 285.165402 265.238409 
L 297.971432 265.313773 
L 304.374447 265.634725 
L 311.692176 266.220133 
L 319.009906 267.032786 
L 322.66877 267.649115 
L 324.498206 267.883068 
L 328.157071 268.189241 
L 329.9865 268.297832 
L 330.901215 268.225718 
L 330.901215 268.225718 
L 334.956379 268.271942 
L 337.659825 268.456212 
L 340.363264 268.383993 
L 344.418429 267.932437 
L 352.528759 266.820739 
L 353.880478 266.848726 
L 355.232198 267.246405 
L 356.583917 267.829087 
L 357.935643 267.980654 
L 360.639082 268.050567 
L 363.342527 268.345944 
L 367.397686 269.014053 
L 368.749412 268.997596 
L 371.452851 268.38525 
L 376.859735 266.735627 
L 386.321785 263.724735 
L 390.376949 262.6775 
L 393.080388 262.16211 
L 395.783834 261.845246 
L 398.487273 261.741371 
L 398.487273 261.741371 
" clip-path="url(#p913c754b4d)" style="fill: none; stroke: #008000; stroke-width: 1.5; stroke-linecap: square"/>
   </g>
   <g id="line2d_19">
    <path d="M 73.832727 260.798745 
L 78.406307 260.922115 
L 80.235742 261.124099 
L 82.979892 261.854994 
L 90.297622 264.215387 
L 104.018366 268.789428 
L 105.847802 269.129562 
L 114.080246 270.195979 
L 117.739111 270.624998 
L 119.568547 270.725518 
L 119.568547 270.725518 
L 122.957381 270.519866 
L 127.475829 269.958252 
L 136.512726 268.508202 
L 139.90156 267.432561 
L 147.808843 264.698073 
L 148.938457 264.445777 
L 150.068071 264.366325 
L 152.327291 264.677424 
L 160.234581 266.417191 
L 162.493802 266.62169 
L 164.753029 266.460585 
L 167.01225 266.132086 
L 169.271477 266.079572 
L 174.919539 266.350002 
L 177.878582 266.443081 
L 182.452161 266.667496 
L 190.684612 267.194939 
L 194.343477 267.126807 
L 208.064221 266.392558 
L 210.808372 266.745061 
L 213.552515 267.318519 
L 220.870251 269.088369 
L 223.052576 269.105873 
L 226.855399 268.534825 
L 236.996266 266.823674 
L 244.60192 265.940479 
L 248.40475 266.252417 
L 253.475184 266.592027 
L 257.278007 266.653031 
L 262.348441 266.470648 
L 267.418881 266.003999 
L 272.489315 265.284843 
L 276.292138 264.752788 
L 280.094968 264.793877 
L 286.994831 264.850374 
L 300.715575 264.946387 
L 307.11859 265.287464 
L 313.521605 265.857149 
L 317.18047 266.331135 
L 322.66877 267.431408 
L 326.327635 267.834537 
L 329.071785 267.889776 
L 330.901215 267.956336 
L 330.901215 267.956336 
L 334.956379 267.761899 
L 347.121874 266.721896 
L 353.880478 266.202419 
L 356.583917 266.059867 
L 361.990801 265.71816 
L 366.045966 265.366916 
L 371.452851 264.627321 
L 382.26662 262.849296 
L 391.728669 261.338452 
L 395.783834 260.919495 
L 398.487273 260.798745 
L 398.487273 260.798745 
" clip-path="url(#p913c754b4d)" style="fill: none; stroke: #008000; stroke-width: 1.5; stroke-linecap: square"/>
   </g>
   <g id="line2d_20">
    <path d="M 73.832727 260.55106 
L 77.491592 260.627577 
L 81.150457 260.874109 
L 82.979892 260.863627 
L 84.809322 261.206381 
L 89.382907 262.515346 
L 101.274216 266.077371 
L 104.018366 266.605129 
L 105.847802 266.7024 
L 107.677231 266.437001 
L 109.506667 265.773085 
L 111.336096 264.834546 
L 115.909682 262.076789 
L 118.653825 260.512277 
L 119.568547 260.232414 
L 119.568547 260.232414 
L 120.698154 260.506303 
L 124.086995 262.053309 
L 130.864664 265.276458 
L 133.123891 266.059343 
L 134.253498 266.301262 
L 135.383112 266.41195 
L 137.64234 266.262165 
L 139.90156 265.79017 
L 148.938457 263.483758 
L 151.197684 263.089539 
L 152.327291 263.06302 
L 154.586519 263.438792 
L 162.493802 265.03936 
L 164.753029 265.299937 
L 167.01225 265.271217 
L 169.271477 264.804987 
L 176.049146 262.823721 
L 176.049146 262.823721 
L 183.366876 262.999081 
L 190.684612 263.420239 
L 199.831771 264.181426 
L 201.661206 264.433303 
L 205.320071 265.160844 
L 207.149507 265.244174 
L 209.89365 265.129923 
L 215.381951 265.339978 
L 226.855399 265.06829 
L 235.728663 265.169229 
L 240.799097 264.997433 
L 243.33431 265.141767 
L 244.60192 265.046068 
L 247.13714 264.528163 
L 252.207574 263.451579 
L 254.742794 263.170982 
L 257.278007 263.162806 
L 262.348441 263.466149 
L 275.024528 264.407518 
L 276.292138 264.36622 
L 278.827358 263.956382 
L 280.094968 263.7044 
L 281.362572 263.711108 
L 283.897792 263.932693 
L 289.738981 263.999567 
L 297.971432 264.230586 
L 305.289161 264.673546 
L 310.777455 265.212519 
L 314.436326 265.745413 
L 319.009906 266.486266 
L 329.9865 267.845439 
L 330.901215 267.886737 
L 330.901215 267.886737 
L 333.60466 267.778565 
L 337.659825 267.098507 
L 344.418429 265.928739 
L 348.473594 265.39637 
L 351.177033 265.216712 
L 352.528759 265.218913 
L 355.232198 265.416704 
L 360.639082 265.342179 
L 364.694247 264.898904 
L 372.80457 263.711737 
L 384.970065 261.914006 
L 395.783834 260.636277 
L 398.487273 260.55106 
L 398.487273 260.55106 
" clip-path="url(#p913c754b4d)" style="fill: none; stroke: #008000; stroke-width: 1.5; stroke-linecap: square"/>
   </g>
   <g id="line2d_21">
    <path d="M 73.832727 259.87488 
L 75.662163 259.960936 
L 83.894607 260.757866 
L 87.553472 260.513745 
L 93.041772 259.926555 
L 100.359502 258.905315 
L 110.421381 257.422247 
L 112.25081 257.489645 
L 114.080246 257.749384 
L 115.909682 258.241189 
L 119.568547 259.589776 
L 119.568547 259.589776 
L 120.698154 259.347332 
L 124.086995 258.287204 
L 126.346216 257.847598 
L 128.605443 257.69425 
L 130.864664 257.894033 
L 134.253498 258.636981 
L 139.90156 260.126024 
L 146.679236 261.932874 
L 148.938457 262.293762 
L 151.197684 262.463986 
L 152.327291 262.340301 
L 155.716133 261.35973 
L 159.104967 260.48471 
L 161.364188 260.146778 
L 163.623415 260.064915 
L 165.882643 260.201388 
L 169.271477 260.649694 
L 176.963868 261.831829 
L 184.281597 261.962537 
L 189.769891 262.285481 
L 194.343477 262.806845 
L 198.002342 263.454934 
L 201.661206 264.142224 
L 204.405357 264.283414 
L 208.064221 264.23677 
L 209.89365 263.941917 
L 211.723086 263.518558 
L 213.552515 263.427366 
L 216.296665 263.658804 
L 220.870251 264.051662 
L 223.052576 264.001873 
L 228.123009 263.521388 
L 231.925833 263.153373 
L 233.193443 263.113018 
L 234.461053 263.196662 
L 239.531487 264.157528 
L 240.799097 264.209203 
L 243.33431 263.945691 
L 248.40475 263.203371 
L 252.207574 262.917742 
L 258.545617 262.488828 
L 262.348441 262.348057 
L 267.418881 262.423212 
L 272.489315 262.741334 
L 278.827358 263.397598 
L 280.094968 263.534805 
L 281.362572 263.398122 
L 283.897792 262.884305 
L 286.080116 262.76345 
L 290.653696 262.615762 
L 294.31256 262.310218 
L 297.971432 261.803004 
L 302.545011 260.912577 
L 304.374447 260.548544 
L 305.289161 260.696862 
L 309.862741 262.318079 
L 314.436326 263.894854 
L 317.18047 264.664427 
L 320.839335 265.432008 
L 324.498206 266.124854 
L 327.24235 266.880066 
L 329.071785 267.210557 
L 330.901215 267.334661 
L 330.901215 267.334661 
L 333.60466 267.340217 
L 336.308099 266.94956 
L 339.011544 266.357654 
L 344.418429 264.851002 
L 347.121874 264.102603 
L 348.473594 263.850306 
L 349.825313 263.719703 
L 351.177033 264.115181 
L 352.528759 264.693566 
L 353.880478 265.020074 
L 355.232198 265.073845 
L 357.935643 264.830458 
L 363.342527 263.817394 
L 372.80457 262.003102 
L 379.563181 260.95094 
L 384.970065 260.341005 
L 390.376949 259.997936 
L 397.135553 259.886934 
L 398.487273 259.87488 
L 398.487273 259.87488 
" clip-path="url(#p913c754b4d)" style="fill: none; stroke: #008000; stroke-width: 1.5; stroke-linecap: square"/>
   </g>
   <g id="line2d_22">
    <path d="M 73.832727 259.578979 
L 76.576877 259.656125 
L 79.321028 259.927918 
L 82.065171 260.215538 
L 84.809322 260.169733 
L 89.382907 259.824253 
L 95.785922 259.065162 
L 107.677231 257.546352 
L 110.421381 257.289338 
L 117.739111 256.213174 
L 119.568547 256.107832 
L 119.568547 256.107832 
L 121.827767 256.233403 
L 125.216602 256.69565 
L 131.994278 257.750537 
L 135.383112 258.257122 
L 139.90156 259.176164 
L 146.679236 260.646654 
L 148.938457 260.883647 
L 150.068071 260.83606 
L 152.327291 260.388383 
L 155.716133 259.306139 
L 161.364188 257.445098 
L 163.623415 256.893337 
L 165.882643 256.59534 
L 168.141864 256.666301 
L 171.530698 257.200767 
L 176.049146 258.079141 
L 176.049146 258.079141 
L 183.366876 258.052727 
L 187.940462 258.264459 
L 190.684612 258.608681 
L 193.428756 259.225534 
L 202.575921 261.83445 
L 206.234786 262.831058 
L 208.064221 263.14048 
L 209.89365 263.221924 
L 211.723086 263.091635 
L 220.870251 261.777429 
L 223.052576 261.724391 
L 226.855399 262.056664 
L 233.193443 262.895521 
L 236.996266 263.415208 
L 239.531487 263.639623 
L 242.066707 263.691298 
L 244.60192 263.545496 
L 247.13714 263.23534 
L 252.207574 262.271121 
L 271.221705 258.328712 
L 272.489315 258.264144 
L 282.630182 261.51507 
L 283.897792 261.800489 
L 286.080116 261.924174 
L 289.738981 261.755836 
L 293.397846 261.372098 
L 297.971432 260.630512 
L 301.630297 259.978335 
L 302.545011 259.956638 
L 304.374447 260.319937 
L 305.289161 260.263754 
L 307.11859 260.007789 
L 308.033311 260.134304 
L 310.777455 261.01729 
L 317.18047 263.441098 
L 323.583485 265.810924 
L 325.412921 266.159339 
L 329.9865 266.711834 
L 332.252941 266.656699 
L 334.956379 266.309438 
L 339.011544 265.450141 
L 344.418429 264.330163 
L 348.473594 263.650943 
L 351.177033 263.488685 
L 356.583917 262.758209 
L 374.156296 260.099086 
L 379.563181 259.571013 
L 384.970065 259.282135 
L 390.376949 259.264526 
L 398.487273 259.578979 
L 398.487273 259.578979 
" clip-path="url(#p913c754b4d)" style="fill: none; stroke: #008000; stroke-width: 1.5; stroke-linecap: square"/>
   </g>
   <g id="line2d_23">
    <path d="M 73.832727 251.972139 
L 82.065171 252.090269 
L 90.297622 252.454091 
L 97.615351 252.988872 
L 105.847802 253.822908 
L 119.568547 255.404818 
L 119.568547 255.404818 
L 122.957381 255.250736 
L 129.73505 254.881358 
L 135.383112 254.842366 
L 141.031174 255.066991 
L 146.679236 255.52452 
L 159.104967 256.699843 
L 161.364188 256.643451 
L 163.623415 256.352791 
L 168.141864 255.574623 
L 170.401091 255.412785 
L 172.660312 255.670112 
L 176.049146 256.337592 
L 176.049146 256.337592 
L 180.622732 256.110138 
L 183.366876 255.898301 
L 184.281597 255.924505 
L 186.111026 256.30426 
L 191.599327 257.638172 
L 194.343477 258.246849 
L 203.490635 261.190239 
L 207.149507 261.927947 
L 209.89365 262.313048 
L 211.723086 262.397112 
L 212.637801 262.295229 
L 214.467236 261.725544 
L 216.296665 260.984796 
L 217.211387 260.91918 
L 221.784966 261.492848 
L 221.784966 261.492848 
L 224.320186 261.217282 
L 228.123009 260.811532 
L 229.390619 261.09171 
L 231.925833 261.876272 
L 233.193443 262.177833 
L 234.461053 262.330238 
L 236.996266 262.24848 
L 244.60192 261.502596 
L 249.672354 260.800631 
L 256.010397 259.584535 
L 264.883661 257.899378 
L 267.418881 257.53283 
L 268.686484 257.438285 
L 269.954095 257.508722 
L 272.489315 258.038996 
L 281.362572 256.860214 
L 285.165402 256.693659 
L 285.165402 256.693659 
L 288.824267 256.814723 
L 292.483131 257.187665 
L 296.141996 257.828102 
L 300.715575 258.947662 
L 302.545011 259.253206 
L 305.289161 259.081724 
L 307.11859 259.462212 
L 308.948026 259.561265 
L 311.692176 260.446661 
L 319.009906 263.170248 
L 326.327635 265.837548 
L 328.157071 266.348954 
L 329.9865 266.636679 
L 330.901215 266.680074 
L 330.901215 266.680074 
L 332.252941 266.565298 
L 334.956379 265.909977 
L 343.066709 263.503045 
L 347.121874 262.355814 
L 348.473594 262.273741 
L 349.825313 262.481805 
L 351.177033 262.321224 
L 353.880478 261.54379 
L 370.101131 256.412328 
L 375.508016 254.975275 
L 380.9149 253.780561 
L 386.321785 252.864977 
L 390.376949 252.378308 
L 394.432108 252.075804 
L 398.487273 251.972139 
L 398.487273 251.972139 
" clip-path="url(#p913c754b4d)" style="fill: none; stroke: #008000; stroke-width: 1.5; stroke-linecap: square"/>
   </g>
   <g id="line2d_24">
    <path d="M 73.832727 249.938778 
L 76.576877 249.823268 
L 82.979892 249.323811 
L 86.638757 249.424856 
L 92.127051 249.83071 
L 99.444787 250.605314 
L 109.506667 251.907466 
L 114.080246 252.623582 
L 116.824396 253.049771 
L 119.568547 253.185825 
L 119.568547 253.185825 
L 122.957381 253.093585 
L 130.864664 252.596329 
L 136.512726 252.659744 
L 142.160788 252.924514 
L 148.938457 253.478162 
L 155.716133 254.258845 
L 165.882643 255.571688 
L 167.01225 255.543492 
L 171.530698 255.06133 
L 174.919539 254.848341 
L 177.878582 254.851275 
L 180.622732 255.101056 
L 185.196312 255.705331 
L 187.025747 255.967271 
L 189.769891 256.679718 
L 194.343477 257.963527 
L 198.917056 258.492123 
L 208.064221 259.553089 
L 216.296665 260.670028 
L 217.211387 260.452007 
L 220.870251 258.791378 
L 221.784966 258.890117 
L 221.784966 258.890117 
L 223.052576 258.821146 
L 228.123009 260.56521 
L 229.390619 260.601163 
L 235.728663 260.200864 
L 249.672354 259.593339 
L 253.475184 259.056253 
L 257.278007 258.207962 
L 264.883661 256.285603 
L 266.151271 256.080369 
L 267.418881 256.07733 
L 269.954095 256.528046 
L 272.489315 256.481193 
L 278.827358 256.051859 
L 283.897792 255.951653 
L 288.824267 256.046408 
L 292.483131 256.342729 
L 296.141996 256.849837 
L 299.800861 257.574443 
L 305.289161 258.771043 
L 306.203876 258.700187 
L 308.948026 259.068097 
L 311.692176 258.41917 
L 328.157071 254.015668 
L 329.9865 253.685072 
L 330.901215 253.625116 
L 330.901215 253.625116 
L 332.252941 253.756243 
L 333.60466 254.110737 
L 336.308099 255.216146 
L 340.363264 257.313342 
L 347.121874 261.079132 
L 348.473594 261.444527 
L 349.825313 261.225563 
L 355.232198 259.597742 
L 370.101131 255.064999 
L 379.563181 252.395917 
L 384.970065 251.058651 
L 389.025223 250.286249 
L 391.728669 250.019697 
L 395.783834 249.942341 
L 398.487273 249.938778 
L 398.487273 249.938778 
" clip-path="url(#p913c754b4d)" style="fill: none; stroke: #008000; stroke-width: 1.5; stroke-linecap: square"/>
   </g>
   <g id="line2d_25">
    <path d="M 73.832727 248.693542 
L 79.321028 248.590506 
L 82.065171 248.284438 
L 84.809322 247.683412 
L 89.382907 246.373189 
L 94.871201 244.749141 
L 95.785922 244.581014 
L 96.700637 244.589294 
L 97.615351 244.81591 
L 99.444787 245.555086 
L 103.103652 247.31938 
L 110.421381 250.952681 
L 112.25081 251.68085 
L 114.080246 252.182718 
L 116.824396 252.54392 
L 119.568547 252.65618 
L 119.568547 252.65618 
L 125.216602 252.524739 
L 127.475829 252.287117 
L 129.73505 251.778855 
L 133.123891 250.751221 
L 142.160788 247.88026 
L 145.549622 247.003668 
L 146.679236 246.869502 
L 148.938457 247.627859 
L 162.493802 252.567714 
L 167.01225 253.929507 
L 169.271477 254.437455 
L 170.401091 254.559358 
L 172.660312 254.476028 
L 176.049146 254.271528 
L 176.049146 254.271528 
L 178.793297 254.372887 
L 182.452161 254.776435 
L 185.196312 255.086591 
L 187.025747 254.959238 
L 189.769891 254.446679 
L 194.343477 253.339383 
L 203.490635 250.887798 
L 204.405357 250.952471 
L 207.149507 252.063121 
L 213.552515 254.944039 
L 220.870251 258.30408 
L 221.784966 258.184588 
L 221.784966 258.184588 
L 223.052576 258.326406 
L 225.587789 257.541006 
L 243.33431 251.494903 
L 247.13714 250.482153 
L 250.939964 249.728199 
L 252.207574 249.59225 
L 253.475184 249.650214 
L 254.742794 250.022003 
L 258.545617 251.699193 
L 264.883661 254.532524 
L 266.151271 254.985757 
L 267.418881 255.224951 
L 269.954095 255.011332 
L 275.024528 254.435987 
L 280.094968 254.176668 
L 286.080116 254.130548 
L 288.824267 254.302135 
L 291.568417 254.664385 
L 295.227282 255.387838 
L 299.800861 256.551002 
L 306.203876 258.274731 
L 307.11859 258.169808 
L 309.862741 257.433149 
L 316.265756 255.425677 
L 325.412921 252.550314 
L 326.327635 252.425476 
L 328.157071 252.59004 
L 330.901215 252.910888 
L 330.901215 252.910888 
L 336.308099 253.068953 
L 340.363264 253.180584 
L 343.066709 253.119265 
L 345.770148 252.892964 
L 348.473594 252.480505 
L 351.177033 251.890276 
L 355.232198 250.749648 
L 361.990801 248.658428 
L 363.342527 248.395859 
L 366.045966 248.225844 
L 372.80457 248.107924 
L 376.859735 248.213581 
L 380.9149 248.593126 
L 386.321785 249.129269 
L 389.025223 249.254946 
L 391.728669 249.171825 
L 398.487273 248.693542 
L 398.487273 248.693542 
" clip-path="url(#p913c754b4d)" style="fill: none; stroke: #008000; stroke-width: 1.5; stroke-linecap: square"/>
   </g>
   <g id="line2d_26">
    <path d="M 73.832727 247.775757 
L 76.576877 247.656369 
L 79.321028 247.307745 
L 82.979892 246.558926 
L 94.871201 243.640378 
L 97.615351 243.477596 
L 100.359502 242.743347 
L 103.103652 241.989497 
L 106.762517 241.354301 
L 112.25081 240.620681 
L 116.824396 240.2273 
L 119.568547 240.149944 
L 119.568547 240.149944 
L 122.957381 240.278136 
L 126.346216 240.688184 
L 129.73505 241.363944 
L 134.253498 242.558973 
L 139.90156 244.353664 
L 146.679236 246.62601 
L 153.456905 245.694179 
L 155.716133 245.636634 
L 159.104967 245.801617 
L 170.401091 246.694875 
L 174.919539 246.755355 
L 180.622732 246.534609 
L 187.940462 246.006117 
L 189.769891 246.140074 
L 191.599327 246.457253 
L 194.343477 247.170434 
L 198.002342 248.373952 
L 203.490635 250.425552 
L 204.405357 250.484459 
L 208.064221 249.541728 
L 216.296665 247.456167 
L 220.870251 246.498237 
L 221.784966 246.376543 
L 221.784966 246.376543 
L 236.996266 247.241919 
L 248.40475 247.494111 
L 249.672354 247.744206 
L 253.475184 248.848777 
L 254.742794 248.898251 
L 264.883661 248.481914 
L 272.489315 248.502878 
L 286.994831 248.697734 
L 290.653696 248.451936 
L 294.31256 247.975435 
L 298.886146 247.125991 
L 299.800861 246.934489 
L 300.715575 246.881451 
L 308.033311 248.539774 
L 317.18047 250.316122 
L 325.412921 251.796674 
L 326.327635 251.822145 
L 328.157071 251.493541 
L 329.9865 251.14282 
L 339.011544 250.486032 
L 352.528759 249.001601 
L 360.639082 248.395544 
L 363.342527 248.11348 
L 366.045966 247.570733 
L 368.749412 247.274518 
L 371.452851 247.291813 
L 380.9149 247.862965 
L 390.376949 247.845565 
L 398.487273 247.775757 
L 398.487273 247.775757 
" clip-path="url(#p913c754b4d)" style="fill: none; stroke: #008000; stroke-width: 1.5; stroke-linecap: square"/>
   </g>
   <g id="line2d_27">
    <path d="M 73.832727 246.480313 
L 76.576877 246.393 
L 80.235742 246.021735 
L 83.894607 245.409284 
L 88.468186 244.377457 
L 93.956487 243.056228 
L 95.785922 243.29144 
L 98.530066 242.797328 
L 104.018366 241.647372 
L 109.506667 240.246796 
L 113.165532 239.575437 
L 115.909682 239.30375 
L 119.568547 239.231425 
L 119.568547 239.231425 
L 122.957381 239.345048 
L 131.994278 239.934648 
L 135.383112 240.349937 
L 141.031174 241.347278 
L 150.068071 242.970802 
L 153.456905 243.362821 
L 156.84574 243.500971 
L 162.493802 243.376447 
L 176.049146 243.06671 
L 176.049146 243.06671 
L 183.366876 243.457786 
L 187.940462 243.828002 
L 189.769891 243.772658 
L 192.514041 243.396782 
L 198.917056 242.241584 
L 201.661206 242.455727 
L 208.064221 243.294165 
L 214.467236 244.335111 
L 221.784966 245.651833 
L 221.784966 245.651833 
L 224.320186 245.263587 
L 230.658229 243.966571 
L 235.728663 242.985372 
L 238.263877 242.7706 
L 239.531487 242.872902 
L 240.799097 243.153604 
L 243.33431 244.036904 
L 247.13714 245.51819 
L 248.40475 245.913458 
L 249.672354 246.174035 
L 252.207574 246.296462 
L 256.010397 246.047415 
L 266.151271 245.177846 
L 285.165402 244.017618 
L 285.165402 244.017618 
L 287.909552 244.156082 
L 290.653696 244.539715 
L 294.31256 245.304152 
L 300.715575 246.733448 
L 307.11859 245.462112 
L 308.948026 245.26212 
L 310.777455 245.226167 
L 312.606891 245.368615 
L 315.351041 245.835054 
L 319.009906 246.711331 
L 326.327635 248.769325 
L 329.071785 249.472653 
L 330.901215 249.68732 
L 330.901215 249.68732 
L 332.252941 249.574326 
L 333.60466 249.270773 
L 336.308099 248.353932 
L 348.473594 243.741318 
L 351.177033 242.975414 
L 352.528759 242.733389 
L 353.880478 242.650898 
L 356.583917 242.860219 
L 363.342527 243.738697 
L 366.045966 243.880411 
L 368.749412 243.735029 
L 371.452851 243.303284 
L 378.211455 242.006268 
L 379.563181 241.997359 
L 380.9149 242.231522 
L 384.970065 243.413343 
L 391.728669 245.423749 
L 394.432108 246.048254 
L 397.135553 246.427589 
L 398.487273 246.480313 
L 398.487273 246.480313 
" clip-path="url(#p913c754b4d)" style="fill: none; stroke: #008000; stroke-width: 1.5; stroke-linecap: square"/>
   </g>
   <g id="line2d_28">
    <path d="M 73.832727 244.132812 
L 77.491592 243.995291 
L 81.150457 243.60778 
L 85.724043 242.872063 
L 90.297622 242.091485 
L 91.212336 242.063918 
L 93.956487 242.561593 
L 95.785922 242.173872 
L 104.933081 239.558247 
L 107.677231 239.075561 
L 110.421381 238.895694 
L 119.568547 238.840769 
L 119.568547 238.840769 
L 127.475829 238.884793 
L 131.994278 239.231845 
L 138.771947 239.77826 
L 162.493802 241.266673 
L 168.141864 241.295708 
L 173.789926 241.287218 
L 177.878582 241.368452 
L 182.452161 241.285331 
L 187.940462 241.006096 
L 192.514041 241.355244 
L 198.002342 241.750932 
L 199.831771 241.477462 
L 204.405357 240.277717 
L 214.467236 237.621528 
L 218.126101 236.828057 
L 220.870251 236.424508 
L 221.784966 236.366649 
L 221.784966 236.366649 
L 224.320186 236.536035 
L 226.855399 237.034548 
L 229.390619 237.77603 
L 234.461053 239.58529 
L 236.996266 240.469429 
L 238.263877 240.817739 
L 239.531487 241.031043 
L 242.066707 241.053055 
L 248.40475 240.707365 
L 253.475184 240.706736 
L 262.348441 240.76208 
L 267.418881 240.525402 
L 281.362572 239.640425 
L 289.738981 239.594619 
L 292.483131 239.739477 
L 296.141996 240.184115 
L 301.630297 241.137119 
L 307.11859 242.051025 
L 309.862741 242.228482 
L 311.692176 242.14316 
L 314.436326 241.744328 
L 319.009906 240.740278 
L 325.412921 239.309829 
L 328.157071 238.872424 
L 330.901215 238.69958 
L 330.901215 238.69958 
L 333.60466 238.783224 
L 337.659825 239.170841 
L 343.066709 239.967247 
L 349.825313 241.043097 
L 352.528759 241.24005 
L 353.880478 241.146447 
L 356.583917 240.624664 
L 363.342527 239.109837 
L 366.045966 238.741087 
L 367.397686 238.712682 
L 368.749412 238.833956 
L 371.452851 239.364125 
L 379.563181 241.376732 
L 383.618339 241.918116 
L 391.728669 243.572456 
L 394.432108 243.925483 
L 397.135553 244.109438 
L 398.487273 244.132812 
L 398.487273 244.132812 
" clip-path="url(#p913c754b4d)" style="fill: none; stroke: #008000; stroke-width: 1.5; stroke-linecap: square"/>
   </g>
   <g id="line2d_29">
    <path d="M 73.832727 238.283138 
L 76.576877 238.36584 
L 79.321028 238.6217 
L 82.065171 239.057637 
L 85.724043 239.900268 
L 91.212336 241.361638 
L 93.041772 241.237115 
L 99.444787 240.02846 
L 107.677231 238.600841 
L 113.165532 237.774143 
L 116.824396 237.395331 
L 119.568547 237.294811 
L 119.568547 237.294811 
L 125.216602 237.436734 
L 141.031174 238.326114 
L 170.401091 240.032863 
L 176.963868 240.389662 
L 187.025747 240.566385 
L 189.769891 240.134221 
L 196.172906 238.765929 
L 205.320071 236.834241 
L 210.808372 235.89413 
L 214.467236 235.468046 
L 217.211387 235.341426 
L 219.95553 235.421087 
L 223.052576 235.524333 
L 240.799097 235.871385 
L 245.86953 235.522865 
L 249.672354 235.293838 
L 252.207574 235.392891 
L 256.010397 235.81059 
L 266.151271 237.296278 
L 272.489315 238.132515 
L 277.559748 238.598011 
L 282.630182 238.806179 
L 289.738981 238.791714 
L 292.483131 238.596753 
L 296.141996 238.087129 
L 303.459726 236.738123 
L 309.862741 235.639318 
L 313.521605 235.200236 
L 317.18047 235.011564 
L 319.92462 235.075712 
L 323.583485 235.394568 
L 329.071785 235.962366 
L 332.252941 236.007543 
L 337.659825 235.762269 
L 344.418429 235.421716 
L 348.473594 235.402115 
L 352.528759 235.600326 
L 356.583917 236.024838 
L 361.990801 236.873758 
L 366.045966 237.556751 
L 368.749412 237.743012 
L 371.452851 237.823302 
L 374.156296 238.217627 
L 379.563181 239.393893 
L 380.9149 239.534559 
L 383.618339 239.464435 
L 394.432108 238.372967 
L 398.487273 238.283138 
L 398.487273 238.283138 
" clip-path="url(#p913c754b4d)" style="fill: none; stroke: #008000; stroke-width: 1.5; stroke-linecap: square"/>
   </g>
   <g id="line2d_30">
    <path d="M 73.832727 237.335899 
L 82.979892 237.464616 
L 104.933081 237.770369 
L 107.677231 237.542181 
L 110.421381 237.054464 
L 118.653825 235.260087 
L 120.698154 235.267319 
L 124.086995 235.693404 
L 127.475829 236.121165 
L 130.864664 236.347677 
L 135.383112 236.393902 
L 156.84574 236.204181 
L 164.753029 236.482997 
L 172.660312 236.757619 
L 176.963868 236.668105 
L 179.708011 236.459832 
L 183.366876 235.926414 
L 188.855176 234.836728 
L 198.002342 232.970551 
L 202.575921 232.267223 
L 206.234786 231.947005 
L 208.978936 231.938724 
L 211.723086 232.255903 
L 217.211387 233.020339 
L 220.870251 233.284899 
L 224.320186 233.298421 
L 229.390619 233.236474 
L 235.728663 233.422735 
L 243.33431 233.87733 
L 248.40475 234.126692 
L 250.939964 234.009925 
L 257.278007 233.397264 
L 259.813227 233.377244 
L 263.616051 233.599248 
L 269.954095 234.290836 
L 278.827358 235.302224 
L 282.630182 235.548965 
L 286.080116 235.584288 
L 288.824267 235.365848 
L 291.568417 234.931064 
L 296.141996 233.9202 
L 308.033311 231.108881 
L 310.777455 230.717911 
L 312.606891 230.736673 
L 319.009906 231.156154 
L 322.66877 231.101439 
L 332.252941 230.705961 
L 337.659825 230.929328 
L 356.583917 232.143224 
L 359.287363 232.674021 
L 363.342527 233.761506 
L 368.749412 235.287549 
L 371.452851 235.840358 
L 374.156296 236.040875 
L 383.618339 236.066555 
L 387.673504 236.464025 
L 394.432108 237.195444 
L 398.487273 237.335899 
L 398.487273 237.335899 
" clip-path="url(#p913c754b4d)" style="fill: none; stroke: #008000; stroke-width: 1.5; stroke-linecap: square"/>
   </g>
   <g id="line2d_31">
    <path d="M 73.832727 234.169877 
L 88.468186 234.278153 
L 100.359502 234.593026 
L 115.909682 235.03976 
L 118.653825 234.908109 
L 119.568547 234.848048 
L 119.568547 234.848048 
L 124.086995 234.963662 
L 128.605443 234.811886 
L 133.123891 234.475421 
L 137.64234 233.951646 
L 143.290395 233.041932 
L 148.938457 231.888097 
L 156.84574 230.011648 
L 162.493802 228.748383 
L 164.753029 228.435712 
L 168.141864 228.267793 
L 176.963868 228.238025 
L 187.940462 228.354687 
L 190.684612 228.560969 
L 194.343477 229.070069 
L 203.490635 230.679652 
L 208.978936 231.60142 
L 211.723086 231.829923 
L 218.126101 232.139345 
L 223.052576 232.100877 
L 225.587789 231.976144 
L 229.390619 231.450797 
L 234.461053 230.688457 
L 236.996266 230.463727 
L 240.799097 230.403143 
L 247.13714 230.686465 
L 252.207574 230.861616 
L 254.742794 230.796314 
L 257.278007 230.539406 
L 259.813227 230.078417 
L 264.883661 228.821022 
L 267.418881 228.314961 
L 271.221705 228.221359 
L 298.886146 228.238235 
L 300.715575 228.382779 
L 304.374447 229.015354 
L 308.948026 229.798972 
L 310.777455 229.959868 
L 312.606891 229.865741 
L 320.839335 228.844606 
L 329.071785 229.648769 
L 332.252941 229.688809 
L 339.011544 229.452969 
L 344.418429 229.275617 
L 347.121874 229.497097 
L 351.177033 230.231346 
L 356.583917 231.240113 
L 359.287363 231.50635 
L 370.101131 232.218797 
L 375.508016 232.867829 
L 383.618339 233.890956 
L 387.673504 234.110235 
L 394.432108 234.17082 
L 398.487273 234.169877 
L 398.487273 234.169877 
" clip-path="url(#p913c754b4d)" style="fill: none; stroke: #008000; stroke-width: 1.5; stroke-linecap: square"/>
   </g>
   <g id="line2d_32">
    <path d="M 73.832727 227.424639 
L 84.809322 227.501785 
L 90.297622 228.383198 
L 98.530066 229.966262 
L 111.336096 232.672763 
L 119.568547 234.396807 
L 119.568547 234.396807 
L 121.827767 234.116419 
L 129.73505 232.434512 
L 146.679236 228.958753 
L 152.327291 227.986882 
L 154.586519 227.839193 
L 163.623415 227.65398 
L 167.01225 227.234185 
L 170.401091 226.804641 
L 173.789926 226.613139 
L 178.793297 226.627709 
L 182.452161 226.90013 
L 192.514041 227.898625 
L 199.831771 228.226495 
L 207.149507 228.849428 
L 210.808372 228.887057 
L 226.855399 228.595454 
L 233.193443 228.748488 
L 238.263877 228.754358 
L 257.278007 228.137086 
L 266.151271 228.09128 
L 267.418881 227.960677 
L 273.756925 226.77089 
L 277.559748 226.604334 
L 287.909552 226.561883 
L 292.483131 226.701081 
L 295.227282 227.100856 
L 299.800861 227.879024 
L 302.545011 228.01927 
L 314.436326 228.120315 
L 320.839335 228.659917 
L 328.157071 227.906067 
L 330.901215 227.801669 
L 330.901215 227.801669 
L 334.956379 227.920637 
L 340.363264 228.375022 
L 345.770148 228.938313 
L 349.825313 228.882865 
L 380.9149 227.778818 
L 390.376949 227.491932 
L 398.487273 227.424639 
L 398.487273 227.424639 
" clip-path="url(#p913c754b4d)" style="fill: none; stroke: #008000; stroke-width: 1.5; stroke-linecap: square"/>
   </g>
   <g id="line2d_33">
    <path d="M 73.832727 226.669217 
L 77.491592 226.768374 
L 82.065171 227.15337 
L 84.809322 227.417616 
L 88.468186 227.50734 
L 91.212336 227.823575 
L 95.785922 228.671133 
L 104.018366 230.46509 
L 113.165532 232.480842 
L 115.909682 232.912901 
L 118.653825 233.135849 
L 120.698154 233.132809 
L 124.086995 232.8672 
L 127.475829 232.349505 
L 133.123891 231.182673 
L 144.420009 228.784545 
L 148.938457 228.050401 
L 165.882643 226.243132 
L 176.963868 225.442219 
L 187.940462 226.007187 
L 191.599327 226.477295 
L 198.002342 227.382083 
L 200.746492 227.555766 
L 206.234786 227.590356 
L 216.296665 227.618761 
L 225.587789 227.683644 
L 230.658229 227.575262 
L 235.728663 227.442667 
L 252.207574 227.369505 
L 269.954095 226.670055 
L 273.756925 226.470692 
L 281.362572 225.791891 
L 285.165402 225.695354 
L 285.165402 225.695354 
L 287.909552 225.832456 
L 295.227282 226.503185 
L 303.459726 226.807262 
L 309.862741 227.337116 
L 313.521605 227.605974 
L 317.18047 227.633646 
L 334.956379 227.476104 
L 359.287363 227.822422 
L 370.101131 227.595701 
L 384.970065 227.054422 
L 394.432108 226.710934 
L 398.487273 226.669217 
L 398.487273 226.669217 
" clip-path="url(#p913c754b4d)" style="fill: none; stroke: #008000; stroke-width: 1.5; stroke-linecap: square"/>
   </g>
   <g id="line2d_34">
    <path d="M 73.832727 225.567162 
L 77.491592 225.699651 
L 82.065171 226.163785 
L 90.297622 227.150959 
L 94.871201 227.189113 
L 129.73505 227.005577 
L 148.938457 227.255463 
L 152.327291 226.991636 
L 159.104967 226.036955 
L 167.01225 224.984794 
L 171.530698 224.590888 
L 176.049146 224.375278 
L 176.049146 224.375278 
L 180.622732 224.619713 
L 186.111026 225.184577 
L 190.684612 225.626593 
L 204.405357 226.479601 
L 214.467236 227.029371 
L 219.95553 227.0583 
L 223.052576 227.064694 
L 231.925833 227.22255 
L 235.728663 227.111338 
L 242.066707 226.619323 
L 253.475184 225.730887 
L 276.292138 224.4258 
L 293.397846 224.388695 
L 297.056711 224.648853 
L 309.862741 225.875745 
L 329.071785 227.144985 
L 332.252941 227.179679 
L 343.066709 226.922142 
L 357.935643 226.669217 
L 378.211455 226.382435 
L 387.673504 225.957608 
L 395.783834 225.599655 
L 398.487273 225.567162 
L 398.487273 225.567162 
" clip-path="url(#p913c754b4d)" style="fill: none; stroke: #008000; stroke-width: 1.5; stroke-linecap: square"/>
   </g>
   <g id="line2d_35">
    <path d="M 73.832727 223.961038 
L 87.553472 224.058204 
L 101.274216 224.415947 
L 115.909682 224.751889 
L 126.346216 224.741302 
L 142.160788 224.502946 
L 181.537447 223.826033 
L 208.064221 224.791195 
L 219.040816 225.051668 
L 225.587789 225.017811 
L 236.996266 224.718976 
L 254.742794 224.208198 
L 266.151271 224.19279 
L 273.756925 224.150129 
L 283.897792 223.783477 
L 288.824267 223.849617 
L 300.715575 224.234717 
L 330.901215 224.3627 
L 330.901215 224.3627 
L 367.397686 224.297818 
L 393.080388 223.957055 
L 398.487273 223.961038 
L 398.487273 223.961038 
" clip-path="url(#p913c754b4d)" style="fill: none; stroke: #008000; stroke-width: 1.5; stroke-linecap: square"/>
   </g>
   <g id="line2d_36">
    <path d="M 73.832727 222.872924 
L 77.491592 222.757729 
L 81.150457 222.433213 
L 85.724043 221.788583 
L 90.297622 220.928448 
L 95.785922 219.680697 
L 114.080246 215.24816 
L 116.824396 214.852158 
L 119.568547 214.700486 
L 119.568547 214.700486 
L 122.957381 214.85394 
L 126.346216 215.248264 
L 131.994278 216.174016 
L 153.456905 219.955739 
L 160.234581 220.854237 
L 165.882643 221.362604 
L 169.271477 221.484087 
L 172.660312 221.40516 
L 181.537447 220.720594 
L 185.196312 220.166527 
L 190.684612 219.091515 
L 212.637801 214.5028 
L 217.211387 213.891607 
L 220.870251 213.635852 
L 223.052576 213.687003 
L 226.855399 214.018017 
L 230.658229 214.527642 
L 235.728663 215.427922 
L 244.60192 217.283827 
L 254.742794 219.3566 
L 261.080837 220.45813 
L 267.418881 221.343736 
L 272.489315 221.829357 
L 276.292138 221.957759 
L 280.094968 221.817618 
L 285.165402 221.610183 
L 285.165402 221.610183 
L 287.909552 221.524023 
L 291.568417 221.16932 
L 296.141996 220.480142 
L 317.18047 217.033836 
L 322.66877 216.416983 
L 327.24235 216.110706 
L 330.901215 216.032302 
L 330.901215 216.032302 
L 337.659825 216.160075 
L 344.418429 216.532807 
L 349.825313 217.021887 
L 355.232198 217.725424 
L 361.990801 218.892362 
L 374.156296 221.084941 
L 379.563181 221.806612 
L 384.970065 222.326508 
L 391.728669 222.731525 
L 398.487273 222.872924 
L 398.487273 222.872924 
" clip-path="url(#p913c754b4d)" style="fill: none; stroke: #008000; stroke-width: 1.5; stroke-linecap: square"/>
   </g>
   <g id="line2d_37">
    <path d="M 73.832727 217.231104 
L 76.576877 217.143057 
L 80.235742 216.768123 
L 83.894607 216.15106 
L 88.468186 215.144495 
L 100.359502 212.346802 
L 103.103652 212.010651 
L 105.847802 211.879733 
L 109.506667 211.934868 
L 115.909682 212.335796 
L 119.568547 212.467761 
L 119.568547 212.467761 
L 124.086995 212.337054 
L 130.864664 212.062955 
L 134.253498 212.10635 
L 137.64234 212.360533 
L 141.031174 212.837349 
L 145.549622 213.718029 
L 159.104967 216.570017 
L 163.623415 217.284875 
L 168.141864 217.797225 
L 172.660312 218.097109 
L 176.963868 218.192702 
L 181.537447 218.032855 
L 186.111026 217.638845 
L 191.599327 216.901976 
L 198.002342 215.797091 
L 209.89365 213.705136 
L 214.467236 213.155891 
L 218.126101 212.914705 
L 221.784966 212.864602 
L 221.784966 212.864602 
L 228.123009 212.991956 
L 244.60192 213.57338 
L 249.672354 213.944435 
L 254.742794 214.515797 
L 262.348441 215.663029 
L 271.221705 216.991175 
L 276.292138 217.497341 
L 280.094968 217.660228 
L 288.824267 217.815253 
L 292.483131 217.944808 
L 296.141996 217.819761 
L 299.800861 217.454575 
L 304.374447 216.753344 
L 312.606891 215.185793 
L 319.92462 213.870643 
L 324.498206 213.264587 
L 328.157071 212.981369 
L 332.252941 212.922566 
L 337.659825 213.103796 
L 344.418429 213.611115 
L 357.935643 214.77019 
L 364.694247 215.038105 
L 378.211455 215.37478 
L 382.26662 215.759356 
L 393.080388 217.016751 
L 397.135553 217.217372 
L 398.487273 217.231104 
L 398.487273 217.231104 
" clip-path="url(#p913c754b4d)" style="fill: none; stroke: #008000; stroke-width: 1.5; stroke-linecap: square"/>
   </g>
   <g id="line2d_38">
    <path d="M 73.832727 215.16137 
L 77.491592 215.054875 
L 81.150457 214.74451 
L 85.724043 214.107113 
L 91.212336 213.06428 
L 100.359502 211.0044 
L 105.847802 209.621852 
L 115.909682 206.962204 
L 117.739111 206.626053 
L 119.568547 206.488952 
L 119.568547 206.488952 
L 121.827767 206.631818 
L 125.216602 207.194061 
L 139.90156 210.076342 
L 146.679236 210.968971 
L 155.716133 212.141149 
L 161.364188 213.198761 
L 170.401091 214.961378 
L 173.789926 215.411361 
L 176.049146 215.582738 
L 176.049146 215.582738 
L 178.793297 215.480121 
L 181.537447 215.145124 
L 185.196312 214.426702 
L 190.684612 213.037551 
L 200.746492 210.444463 
L 206.234786 209.305931 
L 210.808372 208.564659 
L 215.381951 208.013737 
L 219.95553 207.693833 
L 225.587789 207.603061 
L 229.390619 207.718046 
L 234.461053 208.094971 
L 249.672354 209.447016 
L 254.742794 209.834528 
L 257.278007 210.228643 
L 261.080837 211.038465 
L 267.418881 212.637462 
L 278.827358 215.631898 
L 281.362572 216.150851 
L 283.897792 216.476415 
L 286.080116 216.488679 
L 287.909552 216.249275 
L 290.653696 215.639654 
L 295.227282 214.320626 
L 304.374447 211.325666 
L 310.777455 209.334547 
L 315.351041 208.105662 
L 319.92462 207.108425 
L 323.583485 206.513479 
L 327.24235 206.130789 
L 330.901215 205.995469 
L 330.901215 205.995469 
L 336.308099 206.128588 
L 340.363264 206.429834 
L 345.770148 207.096371 
L 351.177033 207.996232 
L 359.287363 209.618603 
L 376.859735 213.283349 
L 382.26662 214.050825 
L 389.025223 214.733085 
L 394.432108 215.077516 
L 398.487273 215.16137 
L 398.487273 215.16137 
" clip-path="url(#p913c754b4d)" style="fill: none; stroke: #008000; stroke-width: 1.5; stroke-linecap: square"/>
   </g>
   <g id="line2d_39">
    <path d="M 73.832727 212.099327 
L 79.321028 211.981616 
L 85.724043 211.602595 
L 94.871201 210.834175 
L 99.444787 210.262394 
L 103.103652 209.541562 
L 107.677231 208.372109 
L 119.568547 205.055568 
L 119.568547 205.055568 
L 121.827767 205.461003 
L 134.253498 208.153983 
L 139.90156 209.111913 
L 147.808843 210.168058 
L 153.456905 210.77663 
L 156.84574 210.972745 
L 161.364188 210.979977 
L 165.882643 210.748749 
L 171.530698 210.219209 
L 176.963868 209.662207 
L 183.366876 209.445234 
L 189.769891 209.008353 
L 196.172906 208.359321 
L 203.490635 207.393215 
L 215.381951 205.766966 
L 218.126101 205.725668 
L 223.052576 205.844636 
L 230.658229 205.620536 
L 234.461053 205.93153 
L 240.799097 206.750577 
L 249.672354 208.162473 
L 253.475184 208.72 
L 256.010397 208.90668 
L 259.813227 208.866325 
L 266.151271 208.442756 
L 277.559748 207.636497 
L 283.897792 207.452752 
L 297.056711 207.297726 
L 305.289161 206.959793 
L 312.606891 206.430044 
L 319.92462 205.679758 
L 328.157071 204.828637 
L 332.252941 204.869097 
L 336.308099 204.922764 
L 341.714983 205.497899 
L 348.473594 206.445452 
L 356.583917 207.825065 
L 378.211455 211.744833 
L 382.26662 212.105406 
L 386.321785 212.227519 
L 394.432108 212.130353 
L 398.487273 212.099327 
L 398.487273 212.099327 
" clip-path="url(#p913c754b4d)" style="fill: none; stroke: #008000; stroke-width: 1.5; stroke-linecap: square"/>
   </g>
   <g id="line2d_40">
    <path d="M 73.832727 200.803632 
L 81.150457 200.687494 
L 89.382907 200.316229 
L 94.871201 200.109109 
L 97.615351 200.247049 
L 100.359502 200.632255 
L 104.933081 201.556434 
L 113.165532 203.529106 
L 118.653825 204.743735 
L 119.568547 204.889117 
L 119.568547 204.889117 
L 122.957381 204.385782 
L 138.771947 201.777495 
L 142.160788 201.519852 
L 146.679236 201.445327 
L 152.327291 201.634523 
L 176.963868 202.781545 
L 194.343477 202.83888 
L 199.831771 203.088871 
L 205.320071 203.566525 
L 215.381951 204.625186 
L 218.126101 204.567536 
L 221.784966 204.328551 
L 221.784966 204.328551 
L 225.587789 204.508628 
L 229.390619 204.660509 
L 231.925833 204.520787 
L 235.728663 204.034642 
L 248.40475 202.150436 
L 252.207574 201.91533 
L 257.278007 201.911032 
L 290.653696 202.36154 
L 300.715575 202.509333 
L 307.11859 202.841815 
L 313.521605 203.420724 
L 326.327635 204.706629 
L 328.157071 204.725392 
L 330.901215 204.602021 
L 330.901215 204.602021 
L 337.659825 204.621517 
L 341.714983 204.269853 
L 348.473594 203.401123 
L 360.639082 201.702864 
L 366.045966 201.184121 
L 371.452851 200.897339 
L 378.211455 200.773025 
L 394.432108 200.798181 
L 398.487273 200.803632 
L 398.487273 200.803632 
" clip-path="url(#p913c754b4d)" style="fill: none; stroke: #008000; stroke-width: 1.5; stroke-linecap: square"/>
   </g>
   <g id="line2d_41">
    <path d="M 73.832727 200.09412 
L 81.150457 199.968129 
L 88.468186 199.600218 
L 97.615351 199.029066 
L 99.444787 199.157887 
L 103.103652 200.014668 
L 110.421381 202.040483 
L 117.739111 204.083802 
L 119.568547 204.299936 
L 119.568547 204.299936 
L 121.827767 204.077722 
L 126.346216 203.104174 
L 133.123891 201.632636 
L 137.64234 200.854678 
L 141.031174 200.457943 
L 145.549622 200.191496 
L 152.327291 200.097789 
L 168.141864 199.926726 
L 179.708011 199.825472 
L 188.855176 200.040348 
L 196.172906 200.431424 
L 202.575921 201.009599 
L 208.978936 201.823405 
L 219.95553 203.361607 
L 221.784966 203.429948 
L 221.784966 203.429948 
L 224.320186 203.373975 
L 229.390619 202.961412 
L 239.531487 202.080837 
L 253.475184 201.108862 
L 263.616051 199.988883 
L 271.221705 199.389115 
L 278.827358 199.037975 
L 286.080116 198.947518 
L 292.483131 199.090384 
L 298.886146 199.457876 
L 305.289161 200.048 
L 312.606891 200.966938 
L 323.583485 202.632284 
L 328.157071 203.242848 
L 330.901215 203.396092 
L 330.901215 203.396092 
L 334.956379 203.254378 
L 341.714983 202.69811 
L 368.749412 200.253548 
L 375.508016 199.926307 
L 382.26662 199.847588 
L 394.432108 200.065295 
L 398.487273 200.09412 
L 398.487273 200.09412 
" clip-path="url(#p913c754b4d)" style="fill: none; stroke: #008000; stroke-width: 1.5; stroke-linecap: square"/>
   </g>
   <g id="line2d_42">
    <path d="M 73.832727 197.240245 
L 79.321028 197.373154 
L 84.809322 197.761923 
L 91.212336 198.470806 
L 95.785922 198.904123 
L 100.359502 198.86251 
L 104.933081 198.422275 
L 118.653825 196.933967 
L 121.827767 196.981135 
L 127.475829 197.436568 
L 135.383112 198.06275 
L 139.90156 198.171866 
L 144.420009 197.995248 
L 150.068071 197.480487 
L 164.753029 195.981906 
L 170.401091 195.655294 
L 176.049146 195.573222 
L 176.049146 195.573222 
L 182.452161 195.751622 
L 192.514041 196.301391 
L 208.064221 197.116979 
L 213.552515 197.065933 
L 224.320186 196.804517 
L 235.728663 196.947803 
L 249.672354 197.158591 
L 259.813227 196.991721 
L 271.221705 196.860804 
L 291.568417 196.992141 
L 308.948026 197.25754 
L 319.92462 196.998325 
L 333.60466 196.672551 
L 345.770148 197.025368 
L 360.639082 197.473045 
L 367.397686 197.393174 
L 376.859735 197.208799 
L 398.487273 197.240245 
L 398.487273 197.240245 
" clip-path="url(#p913c754b4d)" style="fill: none; stroke: #008000; stroke-width: 1.5; stroke-linecap: square"/>
   </g>
   <g id="line2d_43">
    <path d="M 73.832727 195.388952 
L 77.491592 195.479724 
L 82.065171 195.834218 
L 86.638757 196.42015 
L 92.127051 197.370848 
L 97.615351 198.426049 
L 99.444787 198.480764 
L 103.103652 198.1465 
L 119.568547 196.353486 
L 119.568547 196.353486 
L 122.957381 196.488281 
L 136.512726 197.382378 
L 141.031174 197.358584 
L 145.549622 197.034487 
L 152.327291 196.208732 
L 160.234581 195.266629 
L 165.882643 194.813921 
L 171.530698 194.617073 
L 178.793297 194.652816 
L 184.281597 194.888656 
L 191.599327 195.477418 
L 198.002342 195.956855 
L 202.575921 196.067752 
L 208.064221 195.934529 
L 214.467236 195.763152 
L 225.587789 196.031066 
L 234.461053 196.105591 
L 242.066707 196.126345 
L 250.939964 195.863672 
L 283.897792 194.657952 
L 291.568417 194.740549 
L 298.886146 195.037393 
L 317.18047 195.937883 
L 327.24235 196.033057 
L 330.901215 196.163032 
L 330.901215 196.163032 
L 336.308099 196.022052 
L 343.066709 195.836 
L 355.232198 196.040395 
L 374.156296 196.288079 
L 380.9149 195.995323 
L 391.728669 195.491359 
L 398.487273 195.388952 
L 398.487273 195.388952 
" clip-path="url(#p913c754b4d)" style="fill: none; stroke: #008000; stroke-width: 1.5; stroke-linecap: square"/>
   </g>
   <g id="line2d_44">
    <path d="M 73.832727 193.007176 
L 85.724043 193.099835 
L 92.127051 193.373305 
L 99.444787 193.924332 
L 108.591946 194.861823 
L 117.739111 195.797846 
L 120.698154 195.837048 
L 125.216602 195.55121 
L 143.290395 194.074746 
L 151.197684 193.686291 
L 159.104967 193.509568 
L 171.530698 193.51135 
L 188.855176 193.609355 
L 197.087627 193.947602 
L 205.320071 194.53542 
L 213.552515 195.11978 
L 216.296665 195.055107 
L 221.784966 194.683423 
L 221.784966 194.683423 
L 231.925833 195.191999 
L 236.996266 195.092108 
L 245.86953 194.621371 
L 261.080837 193.542271 
L 272.489315 192.801733 
L 278.827358 192.652368 
L 297.056711 192.628679 
L 302.545011 193.085894 
L 312.606891 194.149166 
L 322.66877 195.199756 
L 326.327635 195.311806 
L 336.308099 195.335809 
L 341.714983 195.376793 
L 347.121874 195.1224 
L 375.508016 193.391648 
L 383.618339 193.117549 
L 394.432108 193.012731 
L 398.487273 193.007176 
L 398.487273 193.007176 
" clip-path="url(#p913c754b4d)" style="fill: none; stroke: #008000; stroke-width: 1.5; stroke-linecap: square"/>
   </g>
   <g id="line2d_45">
    <path d="M 73.832727 192.649433 
L 82.979892 192.761378 
L 92.127051 193.106858 
L 99.444787 193.604952 
L 107.677231 194.413622 
L 118.653825 195.579301 
L 120.698154 195.58014 
L 124.086995 195.36149 
L 135.383112 194.249163 
L 145.549622 193.372257 
L 154.586519 192.835799 
L 174.919539 192.00061 
L 178.793297 191.948411 
L 189.769891 192.019897 
L 197.087627 192.270621 
L 204.405357 192.743245 
L 213.552515 193.586609 
L 221.784966 194.375678 
L 221.784966 194.375678 
L 225.587789 194.135016 
L 242.066707 192.88957 
L 249.672354 192.551428 
L 257.278007 192.454052 
L 275.024528 192.371456 
L 286.994831 192.041699 
L 292.483131 192.283828 
L 298.886146 192.568828 
L 311.692176 192.563272 
L 320.839335 193.321105 
L 328.157071 193.852322 
L 332.252941 193.909029 
L 340.363264 193.735136 
L 363.342527 193.140609 
L 394.432108 192.664946 
L 398.487273 192.649433 
L 398.487273 192.649433 
" clip-path="url(#p913c754b4d)" style="fill: none; stroke: #008000; stroke-width: 1.5; stroke-linecap: square"/>
   </g>
   <g id="line2d_46">
    <path d="M 73.832727 191.085026 
L 98.530066 191.009767 
L 107.677231 190.651814 
L 119.568547 190.162839 
L 119.568547 190.162839 
L 124.086995 190.264932 
L 151.197684 191.322544 
L 163.623415 191.31898 
L 181.537447 191.332187 
L 194.343477 191.622008 
L 206.234786 191.83699 
L 216.296665 191.773994 
L 226.855399 191.686052 
L 257.278007 191.799779 
L 272.489315 191.59507 
L 281.362572 191.714562 
L 287.909552 191.759634 
L 297.056711 191.7937 
L 304.374447 192.054277 
L 310.777455 192.310452 
L 319.009906 192.088028 
L 330.901215 191.777663 
L 330.901215 191.777663 
L 355.232198 191.69318 
L 398.487273 191.085026 
L 398.487273 191.085026 
" clip-path="url(#p913c754b4d)" style="fill: none; stroke: #008000; stroke-width: 1.5; stroke-linecap: square"/>
   </g>
   <g id="line2d_47">
    <path d="M 73.832727 187.385795 
L 82.979892 187.49512 
L 92.127051 187.818483 
L 103.103652 188.45043 
L 117.739111 189.356371 
L 121.827767 189.357209 
L 130.864664 189.018752 
L 141.031174 188.71499 
L 150.068071 188.683964 
L 159.104967 188.885948 
L 169.271477 189.335302 
L 177.878582 189.730046 
L 190.684612 189.902576 
L 215.381951 190.513664 
L 224.320186 190.610411 
L 259.813227 190.304029 
L 317.18047 191.10578 
L 332.252941 191.42233 
L 339.011544 191.246131 
L 347.121874 190.790069 
L 356.583917 190.029091 
L 379.563181 188.053904 
L 387.673504 187.611049 
L 395.783834 187.40005 
L 398.487273 187.385795 
L 398.487273 187.385795 
" clip-path="url(#p913c754b4d)" style="fill: none; stroke: #008000; stroke-width: 1.5; stroke-linecap: square"/>
   </g>
   <g id="line2d_48">
    <path d="M 73.832727 114.913586 
L 82.979892 114.797448 
L 95.785922 114.37304 
L 110.421381 113.931967 
L 120.698154 113.840775 
L 129.73505 113.706294 
L 139.90156 113.329893 
L 153.456905 112.584638 
L 169.271477 111.492751 
L 176.963868 110.939627 
L 184.281597 110.811225 
L 192.514041 110.416691 
L 214.467236 109.190007 
L 221.784966 109.055002 
L 221.784966 109.055002 
L 238.263877 109.142001 
L 254.742794 109.264847 
L 267.418881 109.630452 
L 280.094968 109.972997 
L 287.909552 109.984422 
L 293.397846 109.780866 
L 299.800861 109.324594 
L 309.862741 108.343499 
L 319.009906 107.513865 
L 325.412921 107.151196 
L 330.901215 107.047636 
L 330.901215 107.047636 
L 336.308099 107.18044 
L 341.714983 107.56575 
L 347.121874 108.168453 
L 353.880478 109.154579 
L 364.694247 111.028827 
L 376.859735 113.09835 
L 383.618339 114.012047 
L 389.025223 114.538548 
L 394.432108 114.843567 
L 398.487273 114.913586 
L 398.487273 114.913586 
" clip-path="url(#p913c754b4d)" style="fill: none; stroke: #008000; stroke-width: 1.5; stroke-linecap: square"/>
   </g>
   <g id="line2d_49">
    <path d="M 73.832727 99.668355 
L 83.894607 99.556828 
L 115.909682 99.023306 
L 126.346216 98.897524 
L 133.123891 98.553827 
L 141.031174 97.921146 
L 156.84574 96.533672 
L 161.364188 96.398143 
L 165.882643 96.513757 
L 176.049146 96.907138 
L 176.049146 96.907138 
L 179.708011 96.793096 
L 183.366876 96.488601 
L 187.940462 95.859903 
L 192.514041 95.004904 
L 203.490635 92.825112 
L 208.064221 92.221571 
L 213.552515 91.746851 
L 219.040816 91.50839 
L 223.052576 91.538683 
L 233.193443 92.195471 
L 238.263877 92.705096 
L 243.33431 93.408423 
L 259.813227 95.919859 
L 266.151271 96.565642 
L 272.489315 96.991726 
L 280.094968 97.256601 
L 286.994831 97.277774 
L 290.653696 97.061535 
L 294.31256 96.634507 
L 297.971432 96.007906 
L 302.545011 94.970629 
L 307.11859 93.696568 
L 313.521605 91.648427 
L 321.754056 89.006493 
L 325.412921 88.060827 
L 328.157071 87.552041 
L 329.9865 87.364312 
L 332.252941 87.386953 
L 334.956379 87.720169 
L 339.011544 88.541207 
L 344.418429 89.902896 
L 363.342527 94.917381 
L 370.101131 96.429903 
L 376.859735 97.702286 
L 382.26662 98.522905 
L 387.673504 99.143427 
L 393.080388 99.534293 
L 398.487273 99.668355 
L 398.487273 99.668355 
" clip-path="url(#p913c754b4d)" style="fill: none; stroke: #008000; stroke-width: 1.5; stroke-linecap: square"/>
   </g>
   <g id="line2d_50">
    <path d="M 73.832727 97.536045 
L 77.491592 97.434057 
L 81.150457 97.132077 
L 84.809322 96.641949 
L 89.382907 95.791772 
L 93.956487 94.715083 
L 99.444787 93.193547 
L 111.336096 89.763278 
L 114.994961 89.023683 
L 117.739111 88.712794 
L 120.698154 88.664473 
L 124.086995 88.860168 
L 127.475829 89.256694 
L 131.994278 89.997756 
L 141.031174 91.77882 
L 152.327291 93.999911 
L 156.84574 94.687411 
L 160.234581 95.019159 
L 163.623415 95.131629 
L 168.141864 95.004275 
L 174.919539 94.553349 
L 176.963868 94.452304 
L 181.537447 94.275477 
L 187.025747 93.824026 
L 192.514041 93.145121 
L 197.087627 92.384877 
L 200.746492 91.590568 
L 205.320071 90.335164 
L 214.467236 87.656125 
L 217.211387 87.143566 
L 219.040816 86.970826 
L 221.784966 86.990112 
L 221.784966 86.990112 
L 225.587789 87.31683 
L 230.658229 88.077493 
L 239.531487 89.544314 
L 245.86953 90.310008 
L 259.813227 91.686371 
L 266.151271 92.091178 
L 272.489315 92.282575 
L 283.897792 92.334669 
L 288.824267 92.244421 
L 293.397846 91.884582 
L 297.971432 91.276429 
L 303.459726 90.291665 
L 319.009906 87.287481 
L 322.66877 86.882569 
L 326.327635 86.719997 
L 332.252941 86.77272 
L 334.956379 86.932777 
L 339.011544 87.461269 
L 348.473594 89.105756 
L 361.990801 91.591721 
L 374.156296 94.193195 
L 379.563181 95.475536 
L 383.618339 96.25863 
L 387.673504 96.860389 
L 391.728669 97.272533 
L 395.783834 97.493908 
L 398.487273 97.536045 
L 398.487273 97.536045 
" clip-path="url(#p913c754b4d)" style="fill: none; stroke: #008000; stroke-width: 1.5; stroke-linecap: square"/>
   </g>
   <g id="line2d_51">
    <path d="M 73.832727 96.804312 
L 77.491592 96.697083 
L 81.150457 96.371938 
L 84.809322 95.821959 
L 88.468186 95.042953 
L 92.127051 94.040789 
L 95.785922 92.831506 
L 100.359502 91.064906 
L 105.847802 88.648226 
L 118.653825 82.782515 
L 119.568547 82.660611 
L 119.568547 82.660611 
L 120.698154 82.776645 
L 122.957381 83.416663 
L 128.605443 85.4952 
L 135.383112 87.938085 
L 139.90156 89.352078 
L 144.420009 90.492181 
L 147.808843 91.131151 
L 152.327291 91.706391 
L 159.104967 92.223982 
L 164.753029 92.734445 
L 172.660312 93.491125 
L 176.049146 93.626445 
L 176.049146 93.626445 
L 180.622732 93.48515 
L 184.281597 93.170487 
L 188.855176 92.525857 
L 193.428756 91.623061 
L 198.917056 90.26305 
L 207.149507 87.918379 
L 213.552515 86.174001 
L 219.040816 84.9143 
L 220.870251 84.617875 
L 221.784966 84.536222 
L 224.320186 84.644289 
L 228.123009 85.104125 
L 234.461053 86.163624 
L 243.33431 87.642289 
L 248.40475 88.246354 
L 253.475184 88.611749 
L 268.686484 89.294218 
L 273.756925 89.389812 
L 278.827358 89.28489 
L 286.080116 89.087098 
L 291.568417 88.953455 
L 297.971432 88.565629 
L 306.203876 87.802241 
L 327.24235 85.707352 
L 330.901215 85.586077 
L 330.901215 85.586077 
L 334.956379 85.476543 
L 340.363264 85.30569 
L 344.418429 85.439123 
L 345.770148 85.590165 
L 348.473594 86.21184 
L 353.880478 87.899407 
L 368.749412 92.650695 
L 374.156296 94.135545 
L 379.563181 95.147561 
L 384.970065 95.941556 
L 390.376949 96.489649 
L 395.783834 96.769093 
L 398.487273 96.804312 
L 398.487273 96.804312 
" clip-path="url(#p913c754b4d)" style="fill: none; stroke: #008000; stroke-width: 1.5; stroke-linecap: square"/>
   </g>
   <g id="line2d_52">
    <path d="M 73.832727 86.52273 
L 77.491592 86.42179 
L 81.150457 86.121173 
L 84.809322 85.627481 
L 89.382907 84.756549 
L 93.956487 83.634369 
L 99.444787 82.023529 
L 104.933081 80.318562 
L 105.847802 80.23041 
L 109.506667 80.522642 
L 116.824396 81.150082 
L 120.698154 81.293787 
L 126.346216 81.007424 
L 130.864664 80.852504 
L 133.123891 81.001135 
L 135.383112 81.461915 
L 138.771947 82.471939 
L 153.456905 87.250585 
L 156.84574 88.055062 
L 160.234581 88.57978 
L 162.493802 88.735225 
L 165.882643 88.676527 
L 169.271477 88.338594 
L 173.789926 87.626042 
L 176.049146 87.219139 
L 176.049146 87.219139 
L 180.622732 87.12973 
L 185.196312 86.81863 
L 189.769891 86.299677 
L 195.258191 85.447403 
L 208.064221 83.270232 
L 211.723086 82.942362 
L 215.381951 82.847292 
L 219.040816 83.001584 
L 221.784966 83.194134 
L 221.784966 83.194134 
L 230.658229 82.689541 
L 233.193443 82.824756 
L 236.996266 83.312683 
L 242.066707 84.256673 
L 253.475184 86.519376 
L 258.545617 87.277313 
L 263.616051 87.757798 
L 268.686484 87.982109 
L 277.559748 88.079379 
L 289.738981 88.022254 
L 295.227282 87.728973 
L 300.715575 87.217148 
L 306.203876 86.480174 
L 319.92462 84.395871 
L 324.498206 84.14588 
L 330.901215 84.082256 
L 330.901215 84.082256 
L 339.011544 84.075338 
L 341.714983 84.396081 
L 349.825313 85.785965 
L 366.045966 87.842596 
L 370.101131 87.980956 
L 375.508016 87.881903 
L 382.26662 87.452778 
L 393.080388 86.662766 
L 398.487273 86.52273 
L 398.487273 86.52273 
" clip-path="url(#p913c754b4d)" style="fill: none; stroke: #008000; stroke-width: 1.5; stroke-linecap: square"/>
   </g>
   <g id="line2d_53">
    <path d="M 73.832727 81.151235 
L 77.491592 81.055536 
L 82.065171 80.679554 
L 92.127051 79.595528 
L 95.785922 79.567961 
L 101.274216 79.790489 
L 104.933081 79.985136 
L 105.847802 79.854114 
L 109.506667 78.847338 
L 110.421381 78.716316 
L 111.336096 78.746189 
L 113.165532 79.18852 
L 118.653825 81.008577 
L 119.568547 81.069686 
L 119.568547 81.069686 
L 120.698154 81.01602 
L 122.957381 80.577252 
L 126.346216 79.888599 
L 128.605443 79.743531 
L 130.864664 79.878222 
L 134.253498 80.115215 
L 141.031174 80.050123 
L 146.679236 80.144459 
L 151.197684 80.414994 
L 155.716133 80.927239 
L 167.01225 82.53787 
L 172.660312 83.055565 
L 176.963868 83.252937 
L 184.281597 83.061749 
L 193.428756 82.561559 
L 207.149507 81.799533 
L 212.637801 81.670293 
L 219.040816 81.820496 
L 226.855399 81.84733 
L 239.531487 81.972273 
L 244.60192 82.314084 
L 264.883661 84.115064 
L 269.954095 84.892707 
L 281.362572 86.933092 
L 283.897792 87.143671 
L 287.909552 87.140316 
L 293.397846 86.89064 
L 298.886146 86.406801 
L 305.289161 85.611863 
L 314.436326 84.243885 
L 327.24235 82.139143 
L 329.9865 81.979924 
L 333.60466 82.00529 
L 340.363264 82.174781 
L 344.418429 81.930765 
L 351.177033 81.144317 
L 363.342527 79.635044 
L 366.045966 79.470166 
L 368.749412 79.577499 
L 383.618339 80.781018 
L 391.728669 81.079958 
L 398.487273 81.151235 
L 398.487273 81.151235 
" clip-path="url(#p913c754b4d)" style="fill: none; stroke: #008000; stroke-width: 1.5; stroke-linecap: square"/>
   </g>
   <g id="line2d_54">
    <path d="M 73.832727 78.752164 
L 84.809322 78.658352 
L 88.468186 78.441589 
L 91.212336 78.047054 
L 93.956487 77.406093 
L 98.530066 76.00971 
L 100.359502 76.097442 
L 104.018366 76.555496 
L 107.677231 77.244359 
L 110.421381 77.731238 
L 111.336096 77.711218 
L 114.080246 77.174026 
L 116.824396 76.666184 
L 118.653825 76.491767 
L 121.827767 76.518181 
L 127.475829 76.703813 
L 129.73505 76.517762 
L 133.123891 75.954471 
L 136.512726 75.37378 
L 137.64234 75.259004 
L 138.771947 75.273574 
L 139.90156 75.481847 
L 143.290395 76.618282 
L 148.938457 78.533514 
L 152.327291 79.484212 
L 155.716133 80.196973 
L 159.104967 80.666766 
L 164.753029 81.184881 
L 169.271477 81.382043 
L 172.660312 81.351961 
L 179.708011 81.155951 
L 185.196312 80.980381 
L 190.684612 80.567609 
L 195.258191 80.00327 
L 199.831771 79.205711 
L 204.405357 78.169167 
L 209.89365 76.667127 
L 217.211387 74.589428 
L 219.040816 74.239336 
L 221.784966 73.982637 
L 221.784966 73.982637 
L 226.855399 74.511863 
L 235.728663 75.131755 
L 240.799097 75.236678 
L 248.40475 75.246531 
L 250.939964 75.501867 
L 254.742794 76.209912 
L 262.348441 77.844546 
L 266.151271 78.36025 
L 268.686484 78.512026 
L 272.489315 78.46381 
L 277.559748 78.059737 
L 282.630182 77.633443 
L 286.080116 77.562901 
L 297.971432 77.683546 
L 308.033311 77.986469 
L 317.18047 78.48666 
L 329.071785 79.216821 
L 333.60466 79.196067 
L 337.659825 78.937272 
L 343.066709 78.277339 
L 347.121874 77.802409 
L 349.825313 77.625686 
L 352.528759 77.607238 
L 356.583917 77.847062 
L 366.045966 78.730047 
L 368.749412 78.627326 
L 379.563181 77.777567 
L 383.618339 77.814883 
L 389.025223 78.237089 
L 394.432108 78.644725 
L 398.487273 78.752164 
L 398.487273 78.752164 
" clip-path="url(#p913c754b4d)" style="fill: none; stroke: #008000; stroke-width: 1.5; stroke-linecap: square"/>
   </g>
   <g id="line2d_55">
    <path d="M 73.832727 75.570209 
L 93.041772 75.662239 
L 98.530066 75.847976 
L 100.359502 75.222737 
L 104.933081 73.304361 
L 111.336096 70.435916 
L 112.25081 70.327744 
L 115.909682 71.045956 
L 118.653825 71.317644 
L 121.827767 71.292278 
L 125.216602 71.070903 
L 128.605443 70.701525 
L 129.73505 70.809801 
L 137.64234 73.944379 
L 138.771947 74.198143 
L 139.90156 74.260719 
L 142.160788 74.074248 
L 154.586519 72.706166 
L 173.789926 70.893446 
L 176.963868 70.777308 
L 194.343477 70.826467 
L 198.002342 71.159054 
L 201.661206 71.744043 
L 212.637801 73.782959 
L 215.381951 74.004649 
L 218.126101 73.993748 
L 220.870251 73.649526 
L 223.052576 73.458339 
L 226.855399 73.425216 
L 231.925833 73.441149 
L 243.33431 73.063699 
L 250.939964 73.332243 
L 254.742794 73.159084 
L 264.883661 72.535942 
L 268.686484 72.501876 
L 272.489315 72.655539 
L 277.559748 73.137491 
L 282.630182 73.63003 
L 286.080116 73.71074 
L 296.141996 73.586216 
L 304.374447 73.276375 
L 310.777455 72.833205 
L 317.18047 72.166144 
L 327.24235 71.008746 
L 330.901215 70.864831 
L 330.901215 70.864831 
L 334.956379 70.933382 
L 339.011544 71.226033 
L 348.473594 72.123379 
L 352.528759 72.170756 
L 357.935643 72.171595 
L 361.990801 72.486572 
L 366.045966 73.067892 
L 380.9149 75.545786 
L 383.618339 75.726387 
L 387.673504 75.755946 
L 398.487273 75.570209 
L 398.487273 75.570209 
" clip-path="url(#p913c754b4d)" style="fill: none; stroke: #008000; stroke-width: 1.5; stroke-linecap: square"/>
   </g>
   <g id="line2d_56">
    <path d="M 73.832727 61.5003 
L 81.150457 61.611931 
L 87.553472 61.886134 
L 89.382907 62.385172 
L 93.956487 63.969494 
L 108.591946 69.292878 
L 111.336096 70.05679 
L 112.25081 70.005534 
L 114.994961 68.987648 
L 116.824396 68.485675 
L 118.653825 68.211053 
L 120.698154 68.218809 
L 122.957381 68.550138 
L 125.216602 69.146028 
L 129.73505 70.532139 
L 134.253498 69.80051 
L 141.031174 68.426977 
L 148.938457 66.852299 
L 153.456905 66.208403 
L 156.84574 65.94814 
L 160.234581 65.93378 
L 163.623415 66.161969 
L 168.141864 66.717818 
L 176.049146 67.794087 
L 176.049146 67.794087 
L 188.855176 67.838844 
L 193.428756 68.087787 
L 199.831771 68.50601 
L 206.234786 68.624769 
L 214.467236 68.806732 
L 223.052576 69.218981 
L 226.855399 68.971506 
L 233.193443 68.52907 
L 238.263877 68.453811 
L 247.13714 68.365869 
L 257.278007 68.177301 
L 261.080837 68.338616 
L 264.883661 68.719524 
L 277.559748 70.275754 
L 282.630182 70.492937 
L 288.824267 70.491889 
L 296.141996 70.284245 
L 304.374447 69.811097 
L 318.095191 68.913542 
L 321.754056 68.955679 
L 332.252941 69.335643 
L 336.308099 69.183343 
L 343.066709 68.814174 
L 347.121874 68.96941 
L 352.528759 69.269084 
L 355.232198 69.257135 
L 357.935643 69.044669 
L 360.639082 68.617222 
L 364.694247 67.67449 
L 371.452851 65.735046 
L 378.211455 63.811638 
L 382.26662 62.867649 
L 386.321785 62.192412 
L 390.376949 61.780268 
L 395.783834 61.52923 
L 398.487273 61.5003 
L 398.487273 61.5003 
" clip-path="url(#p913c754b4d)" style="fill: none; stroke: #008000; stroke-width: 1.5; stroke-linecap: square"/>
   </g>
   <g id="line2d_57">
    <path d="M 73.832727 59.533393 
L 76.576877 59.635486 
L 79.321028 59.934636 
L 82.979892 60.607042 
L 86.638757 61.536043 
L 87.553472 61.784356 
L 89.382907 61.94305 
L 103.103652 62.543447 
L 106.762517 62.720275 
L 114.080246 64.310676 
L 116.824396 64.643158 
L 119.568547 64.758038 
L 119.568547 64.758038 
L 122.957381 64.596933 
L 126.346216 64.147684 
L 133.123891 62.991858 
L 136.512726 63.040493 
L 153.456905 63.699064 
L 168.141864 64.692632 
L 172.660312 65.226784 
L 176.963868 65.77582 
L 182.452161 66.154736 
L 193.428756 67.033215 
L 198.002342 67.029546 
L 203.490635 66.804188 
L 215.381951 66.160711 
L 218.126101 66.354309 
L 221.784966 66.789723 
L 221.784966 66.789723 
L 234.461053 66.126645 
L 243.33431 65.991116 
L 249.672354 65.548365 
L 254.742794 65.272904 
L 268.686484 64.852165 
L 280.094968 64.15586 
L 286.080116 64.065507 
L 292.483131 63.93721 
L 299.800861 63.576008 
L 308.948026 63.110197 
L 310.777455 63.199607 
L 313.521605 63.636592 
L 318.095191 64.470313 
L 320.839335 64.74001 
L 323.583485 64.773551 
L 327.24235 64.54421 
L 330.901215 64.355433 
L 330.901215 64.355433 
L 333.60466 64.395893 
L 336.308099 64.678691 
L 340.363264 65.12836 
L 343.066709 65.163055 
L 347.121874 64.809399 
L 349.825313 64.669363 
L 359.287363 64.518949 
L 363.342527 64.188773 
L 368.749412 63.491 
L 378.211455 61.957725 
L 389.025223 60.207477 
L 393.080388 59.75938 
L 397.135553 59.547648 
L 398.487273 59.533393 
L 398.487273 59.533393 
" clip-path="url(#p913c754b4d)" style="fill: none; stroke: #008000; stroke-width: 1.5; stroke-linecap: square"/>
   </g>
   <g id="line2d_58">
    <path d="M 73.832727 56.635704 
L 77.491592 56.731193 
L 81.150457 57.014306 
L 85.724043 57.611977 
L 90.297622 58.43899 
L 95.785922 59.67343 
L 102.188931 61.364875 
L 105.847802 62.347542 
L 106.762517 62.49303 
L 109.506667 62.500052 
L 113.165532 62.290312 
L 116.824396 61.830266 
L 119.568547 61.451874 
L 119.568547 61.451874 
L 121.827767 61.60973 
L 129.73505 62.45561 
L 131.994278 62.519234 
L 134.253498 62.220294 
L 143.290395 60.374661 
L 146.679236 59.952245 
L 151.197684 59.626052 
L 156.84574 59.471655 
L 163.623415 59.533079 
L 169.271477 59.787472 
L 173.789926 60.167017 
L 176.963868 60.407364 
L 182.452161 60.425707 
L 187.940462 60.652638 
L 193.428756 61.073167 
L 198.917056 61.709411 
L 204.405357 62.59093 
L 214.467236 64.387298 
L 218.126101 64.671249 
L 223.052576 64.827009 
L 229.390619 64.601336 
L 233.193443 64.215187 
L 238.263877 63.343626 
L 243.33431 62.501625 
L 247.13714 62.089481 
L 258.545617 61.072329 
L 264.883661 60.37812 
L 268.686484 60.173725 
L 276.292138 60.097103 
L 289.738981 60.084106 
L 295.227282 60.346255 
L 300.715575 60.814477 
L 306.203876 61.495793 
L 316.265756 62.984416 
L 322.66877 63.753988 
L 327.24235 64.08668 
L 333.60466 64.202609 
L 340.363264 64.184685 
L 347.121874 64.108587 
L 349.825313 63.730509 
L 355.232198 62.466196 
L 360.639082 61.251357 
L 366.045966 60.312399 
L 372.80457 59.433502 
L 391.728669 57.148473 
L 395.783834 56.734128 
L 398.487273 56.635704 
L 398.487273 56.635704 
" clip-path="url(#p913c754b4d)" style="fill: none; stroke: #008000; stroke-width: 1.5; stroke-linecap: square"/>
   </g>
   <g id="line2d_59">
    <path d="M 73.832727 54.326252 
L 86.638757 54.425305 
L 92.127051 54.631377 
L 95.785922 54.965222 
L 98.530066 55.415205 
L 101.274216 56.078911 
L 104.933081 57.212936 
L 111.336096 59.228164 
L 115.909682 60.359462 
L 118.653825 60.923487 
L 119.568547 61.007761 
L 119.568547 61.007761 
L 121.827767 60.828732 
L 125.216602 60.239341 
L 129.73505 59.158984 
L 135.383112 57.764592 
L 152.327291 54.706636 
L 157.975353 54.104143 
L 162.493802 53.840526 
L 165.882643 53.900482 
L 168.141864 54.120914 
L 171.530698 54.695421 
L 176.049146 55.565094 
L 176.049146 55.565094 
L 180.622732 55.434072 
L 185.196312 55.50168 
L 189.769891 55.774835 
L 194.343477 56.28666 
L 198.002342 56.921332 
L 201.661206 57.807358 
L 205.320071 58.945994 
L 216.296665 62.665665 
L 218.126101 63.018167 
L 220.870251 63.255684 
L 223.052576 63.200865 
L 226.855399 62.834212 
L 231.925833 62.111073 
L 243.33431 60.222885 
L 254.742794 58.096969 
L 257.278007 57.930519 
L 261.080837 58.011019 
L 266.151271 58.141727 
L 271.221705 58.017517 
L 277.559748 57.896138 
L 288.824267 58.09959 
L 292.483131 58.412471 
L 296.141996 58.930795 
L 300.715575 59.839566 
L 309.862741 61.857414 
L 312.606891 62.145873 
L 317.18047 62.269663 
L 320.839335 62.454352 
L 325.412921 62.950664 
L 329.9865 63.475907 
L 332.252941 63.494564 
L 336.308099 63.329057 
L 340.363264 62.854546 
L 344.418429 62.092101 
L 349.825313 60.804938 
L 367.397686 56.260875 
L 372.80457 54.769003 
L 375.508016 54.20393 
L 378.211455 53.83822 
L 382.26662 53.583932 
L 386.321785 53.624497 
L 391.728669 53.973121 
L 397.135553 54.30749 
L 398.487273 54.326252 
L 398.487273 54.326252 
" clip-path="url(#p913c754b4d)" style="fill: none; stroke: #008000; stroke-width: 1.5; stroke-linecap: square"/>
   </g>
   <g id="patch_3">
    <path d="M 57.6 307.584 
L 57.6 41.472 
" style="fill: none; stroke: #000000; stroke-width: 0.8; stroke-linejoin: miter; stroke-linecap: square"/>
   </g>
   <g id="patch_4">
    <path d="M 414.72 307.584 
L 414.72 41.472 
" style="fill: none; stroke: #000000; stroke-width: 0.8; stroke-linejoin: miter; stroke-linecap: square"/>
   </g>
   <g id="patch_5">
    <path d="M 57.6 307.584 
L 414.72 307.584 
" style="fill: none; stroke: #000000; stroke-width: 0.8; stroke-linejoin: miter; stroke-linecap: square"/>
   </g>
   <g id="patch_6">
    <path d="M 57.6 41.472 
L 414.72 41.472 
" style="fill: none; stroke: #000000; stroke-width: 0.8; stroke-linejoin: miter; stroke-linecap: square"/>
   </g>
  </g>
 </g>
 <defs>
  <clipPath id="p913c754b4d">
   <rect x="57.6" y="41.472" width="357.12" height="266.112"/>
  </clipPath>
 </defs>
</svg>
