<?xml version="1.0" encoding="utf-8" standalone="no"?>
<!DOCTYPE svg PUBLIC "-//W3C//DTD SVG 1.1//EN"
  "http://www.w3.org/Graphics/SVG/1.1/DTD/svg11.dtd">
<svg xmlns:xlink="http://www.w3.org/1999/xlink" width="504pt" height="504pt" viewBox="0 0 504 504" xmlns="http://www.w3.org/2000/svg" version="1.1">
 <metadata>
  <rdf:RDF xmlns:dc="http://purl.org/dc/elements/1.1/" xmlns:cc="http://creativecommons.org/ns#" xmlns:rdf="http://www.w3.org/1999/02/22-rdf-syntax-ns#">
   <cc:Work>
    <dc:type rdf:resource="http://purl.org/dc/dcmitype/StillImage"/>
    <dc:date>2024-06-13T00:54:49.311842</dc:date>
    <dc:format>image/svg+xml</dc:format>
    <dc:creator>
     <cc:Agent>
      <dc:title>Matplotlib v3.9.0, https://matplotlib.org/</dc:title>
     </cc:Agent>
    </dc:creator>
   </cc:Work>
  </rdf:RDF>
 </metadata>
 <defs>
  <style type="text/css">*{stroke-linejoin: round; stroke-linecap: butt}</style>
 </defs>
 <g id="figure_1">
  <g id="patch_1">
   <path d="M 0 504 
L 504 504 
L 504 0 
L 0 0 
z
" style="fill: #ffffff"/>
  </g>
  <g id="axes_1">
   <g id="patch_2">
    <path d="M 63 448.56 
L 453.6 448.56 
L 453.6 60.48 
L 63 60.48 
z
" style="fill: #ffffff"/>
   </g>
   <g id="matplotlib.axis_1">
    <g id="xtick_1">
     <g id="line2d_1">
      <defs>
       <path id="mf27f8fa3ab" d="M 0 0 
L 0 3.5 
" style="stroke: #000000; stroke-width: 0.8"/>
      </defs>
      <g>
       <use xlink:href="#mf27f8fa3ab" x="80.754545" y="448.56" style="stroke: #000000; stroke-width: 0.8"/>
      </g>
     </g>
     <g id="text_1">
      <!-- 0 -->
      <g transform="translate(77.573295 463.158437) scale(0.1 -0.1)">
       <defs>
        <path id="DejaVuSans-30" d="M 2034 4250 
Q 1547 4250 1301 3770 
Q 1056 3291 1056 2328 
Q 1056 1369 1301 889 
Q 1547 409 2034 409 
Q 2525 409 2770 889 
Q 3016 1369 3016 2328 
Q 3016 3291 2770 3770 
Q 2525 4250 2034 4250 
z
M 2034 4750 
Q 2819 4750 3233 4129 
Q 3647 3509 3647 2328 
Q 3647 1150 3233 529 
Q 2819 -91 2034 -91 
Q 1250 -91 836 529 
Q 422 1150 422 2328 
Q 422 3509 836 4129 
Q 1250 4750 2034 4750 
z
" transform="scale(0.015625)"/>
       </defs>
       <use xlink:href="#DejaVuSans-30"/>
      </g>
     </g>
    </g>
    <g id="xtick_2">
     <g id="line2d_2">
      <g>
       <use xlink:href="#mf27f8fa3ab" x="125.18534" y="448.56" style="stroke: #000000; stroke-width: 0.8"/>
      </g>
     </g>
     <g id="text_2">
      <!-- 250 -->
      <g transform="translate(115.64159 463.158437) scale(0.1 -0.1)">
       <defs>
        <path id="DejaVuSans-32" d="M 1228 531 
L 3431 531 
L 3431 0 
L 469 0 
L 469 531 
Q 828 903 1448 1529 
Q 2069 2156 2228 2338 
Q 2531 2678 2651 2914 
Q 2772 3150 2772 3378 
Q 2772 3750 2511 3984 
Q 2250 4219 1831 4219 
Q 1534 4219 1204 4116 
Q 875 4013 500 3803 
L 500 4441 
Q 881 4594 1212 4672 
Q 1544 4750 1819 4750 
Q 2544 4750 2975 4387 
Q 3406 4025 3406 3419 
Q 3406 3131 3298 2873 
Q 3191 2616 2906 2266 
Q 2828 2175 2409 1742 
Q 1991 1309 1228 531 
z
" transform="scale(0.015625)"/>
        <path id="DejaVuSans-35" d="M 691 4666 
L 3169 4666 
L 3169 4134 
L 1269 4134 
L 1269 2991 
Q 1406 3038 1543 3061 
Q 1681 3084 1819 3084 
Q 2600 3084 3056 2656 
Q 3513 2228 3513 1497 
Q 3513 744 3044 326 
Q 2575 -91 1722 -91 
Q 1428 -91 1123 -41 
Q 819 9 494 109 
L 494 744 
Q 775 591 1075 516 
Q 1375 441 1709 441 
Q 2250 441 2565 725 
Q 2881 1009 2881 1497 
Q 2881 1984 2565 2268 
Q 2250 2553 1709 2553 
Q 1456 2553 1204 2497 
Q 953 2441 691 2322 
L 691 4666 
z
" transform="scale(0.015625)"/>
       </defs>
       <use xlink:href="#DejaVuSans-32"/>
       <use xlink:href="#DejaVuSans-35" x="63.623047"/>
       <use xlink:href="#DejaVuSans-30" x="127.246094"/>
      </g>
     </g>
    </g>
    <g id="xtick_3">
     <g id="line2d_3">
      <g>
       <use xlink:href="#mf27f8fa3ab" x="169.616134" y="448.56" style="stroke: #000000; stroke-width: 0.8"/>
      </g>
     </g>
     <g id="text_3">
      <!-- 500 -->
      <g transform="translate(160.072384 463.158437) scale(0.1 -0.1)">
       <use xlink:href="#DejaVuSans-35"/>
       <use xlink:href="#DejaVuSans-30" x="63.623047"/>
       <use xlink:href="#DejaVuSans-30" x="127.246094"/>
      </g>
     </g>
    </g>
    <g id="xtick_4">
     <g id="line2d_4">
      <g>
       <use xlink:href="#mf27f8fa3ab" x="214.046929" y="448.56" style="stroke: #000000; stroke-width: 0.8"/>
      </g>
     </g>
     <g id="text_4">
      <!-- 750 -->
      <g transform="translate(204.503179 463.158437) scale(0.1 -0.1)">
       <defs>
        <path id="DejaVuSans-37" d="M 525 4666 
L 3525 4666 
L 3525 4397 
L 1831 0 
L 1172 0 
L 2766 4134 
L 525 4134 
L 525 4666 
z
" transform="scale(0.015625)"/>
       </defs>
       <use xlink:href="#DejaVuSans-37"/>
       <use xlink:href="#DejaVuSans-35" x="63.623047"/>
       <use xlink:href="#DejaVuSans-30" x="127.246094"/>
      </g>
     </g>
    </g>
    <g id="xtick_5">
     <g id="line2d_5">
      <g>
       <use xlink:href="#mf27f8fa3ab" x="258.477723" y="448.56" style="stroke: #000000; stroke-width: 0.8"/>
      </g>
     </g>
     <g id="text_5">
      <!-- 1000 -->
      <g transform="translate(245.752723 463.158437) scale(0.1 -0.1)">
       <defs>
        <path id="DejaVuSans-31" d="M 794 531 
L 1825 531 
L 1825 4091 
L 703 3866 
L 703 4441 
L 1819 4666 
L 2450 4666 
L 2450 531 
L 3481 531 
L 3481 0 
L 794 0 
L 794 531 
z
" transform="scale(0.015625)"/>
       </defs>
       <use xlink:href="#DejaVuSans-31"/>
       <use xlink:href="#DejaVuSans-30" x="63.623047"/>
       <use xlink:href="#DejaVuSans-30" x="127.246094"/>
       <use xlink:href="#DejaVuSans-30" x="190.869141"/>
      </g>
     </g>
    </g>
    <g id="xtick_6">
     <g id="line2d_6">
      <g>
       <use xlink:href="#mf27f8fa3ab" x="302.908518" y="448.56" style="stroke: #000000; stroke-width: 0.8"/>
      </g>
     </g>
     <g id="text_6">
      <!-- 1250 -->
      <g transform="translate(290.183518 463.158437) scale(0.1 -0.1)">
       <use xlink:href="#DejaVuSans-31"/>
       <use xlink:href="#DejaVuSans-32" x="63.623047"/>
       <use xlink:href="#DejaVuSans-35" x="127.246094"/>
       <use xlink:href="#DejaVuSans-30" x="190.869141"/>
      </g>
     </g>
    </g>
    <g id="xtick_7">
     <g id="line2d_7">
      <g>
       <use xlink:href="#mf27f8fa3ab" x="347.339312" y="448.56" style="stroke: #000000; stroke-width: 0.8"/>
      </g>
     </g>
     <g id="text_7">
      <!-- 1500 -->
      <g transform="translate(334.614312 463.158437) scale(0.1 -0.1)">
       <use xlink:href="#DejaVuSans-31"/>
       <use xlink:href="#DejaVuSans-35" x="63.623047"/>
       <use xlink:href="#DejaVuSans-30" x="127.246094"/>
       <use xlink:href="#DejaVuSans-30" x="190.869141"/>
      </g>
     </g>
    </g>
    <g id="xtick_8">
     <g id="line2d_8">
      <g>
       <use xlink:href="#mf27f8fa3ab" x="391.770106" y="448.56" style="stroke: #000000; stroke-width: 0.8"/>
      </g>
     </g>
     <g id="text_8">
      <!-- 1750 -->
      <g transform="translate(379.045106 463.158437) scale(0.1 -0.1)">
       <use xlink:href="#DejaVuSans-31"/>
       <use xlink:href="#DejaVuSans-37" x="63.623047"/>
       <use xlink:href="#DejaVuSans-35" x="127.246094"/>
       <use xlink:href="#DejaVuSans-30" x="190.869141"/>
      </g>
     </g>
    </g>
    <g id="xtick_9">
     <g id="line2d_9">
      <g>
       <use xlink:href="#mf27f8fa3ab" x="436.200901" y="448.56" style="stroke: #000000; stroke-width: 0.8"/>
      </g>
     </g>
     <g id="text_9">
      <!-- 2000 -->
      <g transform="translate(423.475901 463.158437) scale(0.1 -0.1)">
       <use xlink:href="#DejaVuSans-32"/>
       <use xlink:href="#DejaVuSans-30" x="63.623047"/>
       <use xlink:href="#DejaVuSans-30" x="127.246094"/>
       <use xlink:href="#DejaVuSans-30" x="190.869141"/>
      </g>
     </g>
    </g>
    <g id="text_10">
     <!-- Epoch -->
     <g transform="translate(242.989063 476.836563) scale(0.1 -0.1)">
      <defs>
       <path id="DejaVuSans-45" d="M 628 4666 
L 3578 4666 
L 3578 4134 
L 1259 4134 
L 1259 2753 
L 3481 2753 
L 3481 2222 
L 1259 2222 
L 1259 531 
L 3634 531 
L 3634 0 
L 628 0 
L 628 4666 
z
" transform="scale(0.015625)"/>
       <path id="DejaVuSans-70" d="M 1159 525 
L 1159 -1331 
L 581 -1331 
L 581 3500 
L 1159 3500 
L 1159 2969 
Q 1341 3281 1617 3432 
Q 1894 3584 2278 3584 
Q 2916 3584 3314 3078 
Q 3713 2572 3713 1747 
Q 3713 922 3314 415 
Q 2916 -91 2278 -91 
Q 1894 -91 1617 61 
Q 1341 213 1159 525 
z
M 3116 1747 
Q 3116 2381 2855 2742 
Q 2594 3103 2138 3103 
Q 1681 3103 1420 2742 
Q 1159 2381 1159 1747 
Q 1159 1113 1420 752 
Q 1681 391 2138 391 
Q 2594 391 2855 752 
Q 3116 1113 3116 1747 
z
" transform="scale(0.015625)"/>
       <path id="DejaVuSans-6f" d="M 1959 3097 
Q 1497 3097 1228 2736 
Q 959 2375 959 1747 
Q 959 1119 1226 758 
Q 1494 397 1959 397 
Q 2419 397 2687 759 
Q 2956 1122 2956 1747 
Q 2956 2369 2687 2733 
Q 2419 3097 1959 3097 
z
M 1959 3584 
Q 2709 3584 3137 3096 
Q 3566 2609 3566 1747 
Q 3566 888 3137 398 
Q 2709 -91 1959 -91 
Q 1206 -91 779 398 
Q 353 888 353 1747 
Q 353 2609 779 3096 
Q 1206 3584 1959 3584 
z
" transform="scale(0.015625)"/>
       <path id="DejaVuSans-63" d="M 3122 3366 
L 3122 2828 
Q 2878 2963 2633 3030 
Q 2388 3097 2138 3097 
Q 1578 3097 1268 2742 
Q 959 2388 959 1747 
Q 959 1106 1268 751 
Q 1578 397 2138 397 
Q 2388 397 2633 464 
Q 2878 531 3122 666 
L 3122 134 
Q 2881 22 2623 -34 
Q 2366 -91 2075 -91 
Q 1284 -91 818 406 
Q 353 903 353 1747 
Q 353 2603 823 3093 
Q 1294 3584 2113 3584 
Q 2378 3584 2631 3529 
Q 2884 3475 3122 3366 
z
" transform="scale(0.015625)"/>
       <path id="DejaVuSans-68" d="M 3513 2113 
L 3513 0 
L 2938 0 
L 2938 2094 
Q 2938 2591 2744 2837 
Q 2550 3084 2163 3084 
Q 1697 3084 1428 2787 
Q 1159 2491 1159 1978 
L 1159 0 
L 581 0 
L 581 4863 
L 1159 4863 
L 1159 2956 
Q 1366 3272 1645 3428 
Q 1925 3584 2291 3584 
Q 2894 3584 3203 3211 
Q 3513 2838 3513 2113 
z
" transform="scale(0.015625)"/>
      </defs>
      <use xlink:href="#DejaVuSans-45"/>
      <use xlink:href="#DejaVuSans-70" x="63.183594"/>
      <use xlink:href="#DejaVuSans-6f" x="126.660156"/>
      <use xlink:href="#DejaVuSans-63" x="187.841797"/>
      <use xlink:href="#DejaVuSans-68" x="242.822266"/>
     </g>
    </g>
   </g>
   <g id="matplotlib.axis_2">
    <g id="ytick_1">
     <g id="line2d_10">
      <defs>
       <path id="mcace42ddad" d="M 0 0 
L -3.5 0 
" style="stroke: #000000; stroke-width: 0.8"/>
      </defs>
      <g>
       <use xlink:href="#mcace42ddad" x="63" y="400.185978" style="stroke: #000000; stroke-width: 0.8"/>
      </g>
     </g>
     <g id="text_11">
      <!-- $\mathdefault{10^{-2}}$ -->
      <g transform="translate(32.5 403.985196) scale(0.1 -0.1)">
       <defs>
        <path id="DejaVuSans-2212" d="M 678 2272 
L 4684 2272 
L 4684 1741 
L 678 1741 
L 678 2272 
z
" transform="scale(0.015625)"/>
       </defs>
       <use xlink:href="#DejaVuSans-31" transform="translate(0 0.765625)"/>
       <use xlink:href="#DejaVuSans-30" transform="translate(63.623047 0.765625)"/>
       <use xlink:href="#DejaVuSans-2212" transform="translate(128.203125 39.046875) scale(0.7)"/>
       <use xlink:href="#DejaVuSans-32" transform="translate(186.855469 39.046875) scale(0.7)"/>
      </g>
     </g>
    </g>
    <g id="ytick_2">
     <g id="line2d_11">
      <g>
       <use xlink:href="#mcace42ddad" x="63" y="334.095794" style="stroke: #000000; stroke-width: 0.8"/>
      </g>
     </g>
     <g id="text_12">
      <!-- $\mathdefault{10^{-1}}$ -->
      <g transform="translate(32.5 337.895013) scale(0.1 -0.1)">
       <use xlink:href="#DejaVuSans-31" transform="translate(0 0.684375)"/>
       <use xlink:href="#DejaVuSans-30" transform="translate(63.623047 0.684375)"/>
       <use xlink:href="#DejaVuSans-2212" transform="translate(128.203125 38.965625) scale(0.7)"/>
       <use xlink:href="#DejaVuSans-31" transform="translate(186.855469 38.965625) scale(0.7)"/>
      </g>
     </g>
    </g>
    <g id="ytick_3">
     <g id="line2d_12">
      <g>
       <use xlink:href="#mcace42ddad" x="63" y="268.00561" style="stroke: #000000; stroke-width: 0.8"/>
      </g>
     </g>
     <g id="text_13">
      <!-- $\mathdefault{10^{0}}$ -->
      <g transform="translate(38.4 271.804829) scale(0.1 -0.1)">
       <use xlink:href="#DejaVuSans-31" transform="translate(0 0.765625)"/>
       <use xlink:href="#DejaVuSans-30" transform="translate(63.623047 0.765625)"/>
       <use xlink:href="#DejaVuSans-30" transform="translate(128.203125 39.046875) scale(0.7)"/>
      </g>
     </g>
    </g>
    <g id="ytick_4">
     <g id="line2d_13">
      <g>
       <use xlink:href="#mcace42ddad" x="63" y="201.915426" style="stroke: #000000; stroke-width: 0.8"/>
      </g>
     </g>
     <g id="text_14">
      <!-- $\mathdefault{10^{1}}$ -->
      <g transform="translate(38.4 205.714645) scale(0.1 -0.1)">
       <use xlink:href="#DejaVuSans-31" transform="translate(0 0.684375)"/>
       <use xlink:href="#DejaVuSans-30" transform="translate(63.623047 0.684375)"/>
       <use xlink:href="#DejaVuSans-31" transform="translate(128.203125 38.965625) scale(0.7)"/>
      </g>
     </g>
    </g>
    <g id="ytick_5">
     <g id="line2d_14">
      <g>
       <use xlink:href="#mcace42ddad" x="63" y="135.825243" style="stroke: #000000; stroke-width: 0.8"/>
      </g>
     </g>
     <g id="text_15">
      <!-- $\mathdefault{10^{2}}$ -->
      <g transform="translate(38.4 139.624461) scale(0.1 -0.1)">
       <use xlink:href="#DejaVuSans-31" transform="translate(0 0.765625)"/>
       <use xlink:href="#DejaVuSans-30" transform="translate(63.623047 0.765625)"/>
       <use xlink:href="#DejaVuSans-32" transform="translate(128.203125 39.046875) scale(0.7)"/>
      </g>
     </g>
    </g>
    <g id="ytick_6">
     <g id="line2d_15">
      <g>
       <use xlink:href="#mcace42ddad" x="63" y="69.735059" style="stroke: #000000; stroke-width: 0.8"/>
      </g>
     </g>
     <g id="text_16">
      <!-- $\mathdefault{10^{3}}$ -->
      <g transform="translate(38.4 73.534278) scale(0.1 -0.1)">
       <defs>
        <path id="DejaVuSans-33" d="M 2597 2516 
Q 3050 2419 3304 2112 
Q 3559 1806 3559 1356 
Q 3559 666 3084 287 
Q 2609 -91 1734 -91 
Q 1441 -91 1130 -33 
Q 819 25 488 141 
L 488 750 
Q 750 597 1062 519 
Q 1375 441 1716 441 
Q 2309 441 2620 675 
Q 2931 909 2931 1356 
Q 2931 1769 2642 2001 
Q 2353 2234 1838 2234 
L 1294 2234 
L 1294 2753 
L 1863 2753 
Q 2328 2753 2575 2939 
Q 2822 3125 2822 3475 
Q 2822 3834 2567 4026 
Q 2313 4219 1838 4219 
Q 1578 4219 1281 4162 
Q 984 4106 628 3988 
L 628 4550 
Q 988 4650 1302 4700 
Q 1616 4750 1894 4750 
Q 2613 4750 3031 4423 
Q 3450 4097 3450 3541 
Q 3450 3153 3228 2886 
Q 3006 2619 2597 2516 
z
" transform="scale(0.015625)"/>
       </defs>
       <use xlink:href="#DejaVuSans-31" transform="translate(0 0.765625)"/>
       <use xlink:href="#DejaVuSans-30" transform="translate(63.623047 0.765625)"/>
       <use xlink:href="#DejaVuSans-33" transform="translate(128.203125 39.046875) scale(0.7)"/>
      </g>
     </g>
    </g>
    <g id="ytick_7">
     <g id="line2d_16">
      <defs>
       <path id="m5ec7acf271" d="M 0 0 
L -2 0 
" style="stroke: #000000; stroke-width: 0.6"/>
      </defs>
      <g>
       <use xlink:href="#m5ec7acf271" x="63" y="446.381034" style="stroke: #000000; stroke-width: 0.6"/>
      </g>
     </g>
    </g>
    <g id="ytick_8">
     <g id="line2d_17">
      <g>
       <use xlink:href="#m5ec7acf271" x="63" y="434.74313" style="stroke: #000000; stroke-width: 0.6"/>
      </g>
     </g>
    </g>
    <g id="ytick_9">
     <g id="line2d_18">
      <g>
       <use xlink:href="#m5ec7acf271" x="63" y="426.485906" style="stroke: #000000; stroke-width: 0.6"/>
      </g>
     </g>
    </g>
    <g id="ytick_10">
     <g id="line2d_19">
      <g>
       <use xlink:href="#m5ec7acf271" x="63" y="420.081105" style="stroke: #000000; stroke-width: 0.6"/>
      </g>
     </g>
    </g>
    <g id="ytick_11">
     <g id="line2d_20">
      <g>
       <use xlink:href="#m5ec7acf271" x="63" y="414.848002" style="stroke: #000000; stroke-width: 0.6"/>
      </g>
     </g>
    </g>
    <g id="ytick_12">
     <g id="line2d_21">
      <g>
       <use xlink:href="#m5ec7acf271" x="63" y="410.423477" style="stroke: #000000; stroke-width: 0.6"/>
      </g>
     </g>
    </g>
    <g id="ytick_13">
     <g id="line2d_22">
      <g>
       <use xlink:href="#m5ec7acf271" x="63" y="406.590778" style="stroke: #000000; stroke-width: 0.6"/>
      </g>
     </g>
    </g>
    <g id="ytick_14">
     <g id="line2d_23">
      <g>
       <use xlink:href="#m5ec7acf271" x="63" y="403.210099" style="stroke: #000000; stroke-width: 0.6"/>
      </g>
     </g>
    </g>
    <g id="ytick_15">
     <g id="line2d_24">
      <g>
       <use xlink:href="#m5ec7acf271" x="63" y="380.29085" style="stroke: #000000; stroke-width: 0.6"/>
      </g>
     </g>
    </g>
    <g id="ytick_16">
     <g id="line2d_25">
      <g>
       <use xlink:href="#m5ec7acf271" x="63" y="368.652946" style="stroke: #000000; stroke-width: 0.6"/>
      </g>
     </g>
    </g>
    <g id="ytick_17">
     <g id="line2d_26">
      <g>
       <use xlink:href="#m5ec7acf271" x="63" y="360.395722" style="stroke: #000000; stroke-width: 0.6"/>
      </g>
     </g>
    </g>
    <g id="ytick_18">
     <g id="line2d_27">
      <g>
       <use xlink:href="#m5ec7acf271" x="63" y="353.990922" style="stroke: #000000; stroke-width: 0.6"/>
      </g>
     </g>
    </g>
    <g id="ytick_19">
     <g id="line2d_28">
      <g>
       <use xlink:href="#m5ec7acf271" x="63" y="348.757819" style="stroke: #000000; stroke-width: 0.6"/>
      </g>
     </g>
    </g>
    <g id="ytick_20">
     <g id="line2d_29">
      <g>
       <use xlink:href="#m5ec7acf271" x="63" y="344.333293" style="stroke: #000000; stroke-width: 0.6"/>
      </g>
     </g>
    </g>
    <g id="ytick_21">
     <g id="line2d_30">
      <g>
       <use xlink:href="#m5ec7acf271" x="63" y="340.500595" style="stroke: #000000; stroke-width: 0.6"/>
      </g>
     </g>
    </g>
    <g id="ytick_22">
     <g id="line2d_31">
      <g>
       <use xlink:href="#m5ec7acf271" x="63" y="337.119915" style="stroke: #000000; stroke-width: 0.6"/>
      </g>
     </g>
    </g>
    <g id="ytick_23">
     <g id="line2d_32">
      <g>
       <use xlink:href="#m5ec7acf271" x="63" y="314.200666" style="stroke: #000000; stroke-width: 0.6"/>
      </g>
     </g>
    </g>
    <g id="ytick_24">
     <g id="line2d_33">
      <g>
       <use xlink:href="#m5ec7acf271" x="63" y="302.562763" style="stroke: #000000; stroke-width: 0.6"/>
      </g>
     </g>
    </g>
    <g id="ytick_25">
     <g id="line2d_34">
      <g>
       <use xlink:href="#m5ec7acf271" x="63" y="294.305539" style="stroke: #000000; stroke-width: 0.6"/>
      </g>
     </g>
    </g>
    <g id="ytick_26">
     <g id="line2d_35">
      <g>
       <use xlink:href="#m5ec7acf271" x="63" y="287.900738" style="stroke: #000000; stroke-width: 0.6"/>
      </g>
     </g>
    </g>
    <g id="ytick_27">
     <g id="line2d_36">
      <g>
       <use xlink:href="#m5ec7acf271" x="63" y="282.667635" style="stroke: #000000; stroke-width: 0.6"/>
      </g>
     </g>
    </g>
    <g id="ytick_28">
     <g id="line2d_37">
      <g>
       <use xlink:href="#m5ec7acf271" x="63" y="278.243109" style="stroke: #000000; stroke-width: 0.6"/>
      </g>
     </g>
    </g>
    <g id="ytick_29">
     <g id="line2d_38">
      <g>
       <use xlink:href="#m5ec7acf271" x="63" y="274.410411" style="stroke: #000000; stroke-width: 0.6"/>
      </g>
     </g>
    </g>
    <g id="ytick_30">
     <g id="line2d_39">
      <g>
       <use xlink:href="#m5ec7acf271" x="63" y="271.029731" style="stroke: #000000; stroke-width: 0.6"/>
      </g>
     </g>
    </g>
    <g id="ytick_31">
     <g id="line2d_40">
      <g>
       <use xlink:href="#m5ec7acf271" x="63" y="248.110482" style="stroke: #000000; stroke-width: 0.6"/>
      </g>
     </g>
    </g>
    <g id="ytick_32">
     <g id="line2d_41">
      <g>
       <use xlink:href="#m5ec7acf271" x="63" y="236.472579" style="stroke: #000000; stroke-width: 0.6"/>
      </g>
     </g>
    </g>
    <g id="ytick_33">
     <g id="line2d_42">
      <g>
       <use xlink:href="#m5ec7acf271" x="63" y="228.215355" style="stroke: #000000; stroke-width: 0.6"/>
      </g>
     </g>
    </g>
    <g id="ytick_34">
     <g id="line2d_43">
      <g>
       <use xlink:href="#m5ec7acf271" x="63" y="221.810554" style="stroke: #000000; stroke-width: 0.6"/>
      </g>
     </g>
    </g>
    <g id="ytick_35">
     <g id="line2d_44">
      <g>
       <use xlink:href="#m5ec7acf271" x="63" y="216.577451" style="stroke: #000000; stroke-width: 0.6"/>
      </g>
     </g>
    </g>
    <g id="ytick_36">
     <g id="line2d_45">
      <g>
       <use xlink:href="#m5ec7acf271" x="63" y="212.152925" style="stroke: #000000; stroke-width: 0.6"/>
      </g>
     </g>
    </g>
    <g id="ytick_37">
     <g id="line2d_46">
      <g>
       <use xlink:href="#m5ec7acf271" x="63" y="208.320227" style="stroke: #000000; stroke-width: 0.6"/>
      </g>
     </g>
    </g>
    <g id="ytick_38">
     <g id="line2d_47">
      <g>
       <use xlink:href="#m5ec7acf271" x="63" y="204.939547" style="stroke: #000000; stroke-width: 0.6"/>
      </g>
     </g>
    </g>
    <g id="ytick_39">
     <g id="line2d_48">
      <g>
       <use xlink:href="#m5ec7acf271" x="63" y="182.020299" style="stroke: #000000; stroke-width: 0.6"/>
      </g>
     </g>
    </g>
    <g id="ytick_40">
     <g id="line2d_49">
      <g>
       <use xlink:href="#m5ec7acf271" x="63" y="170.382395" style="stroke: #000000; stroke-width: 0.6"/>
      </g>
     </g>
    </g>
    <g id="ytick_41">
     <g id="line2d_50">
      <g>
       <use xlink:href="#m5ec7acf271" x="63" y="162.125171" style="stroke: #000000; stroke-width: 0.6"/>
      </g>
     </g>
    </g>
    <g id="ytick_42">
     <g id="line2d_51">
      <g>
       <use xlink:href="#m5ec7acf271" x="63" y="155.72037" style="stroke: #000000; stroke-width: 0.6"/>
      </g>
     </g>
    </g>
    <g id="ytick_43">
     <g id="line2d_52">
      <g>
       <use xlink:href="#m5ec7acf271" x="63" y="150.487267" style="stroke: #000000; stroke-width: 0.6"/>
      </g>
     </g>
    </g>
    <g id="ytick_44">
     <g id="line2d_53">
      <g>
       <use xlink:href="#m5ec7acf271" x="63" y="146.062742" style="stroke: #000000; stroke-width: 0.6"/>
      </g>
     </g>
    </g>
    <g id="ytick_45">
     <g id="line2d_54">
      <g>
       <use xlink:href="#m5ec7acf271" x="63" y="142.230043" style="stroke: #000000; stroke-width: 0.6"/>
      </g>
     </g>
    </g>
    <g id="ytick_46">
     <g id="line2d_55">
      <g>
       <use xlink:href="#m5ec7acf271" x="63" y="138.849364" style="stroke: #000000; stroke-width: 0.6"/>
      </g>
     </g>
    </g>
    <g id="ytick_47">
     <g id="line2d_56">
      <g>
       <use xlink:href="#m5ec7acf271" x="63" y="115.930115" style="stroke: #000000; stroke-width: 0.6"/>
      </g>
     </g>
    </g>
    <g id="ytick_48">
     <g id="line2d_57">
      <g>
       <use xlink:href="#m5ec7acf271" x="63" y="104.292211" style="stroke: #000000; stroke-width: 0.6"/>
      </g>
     </g>
    </g>
    <g id="ytick_49">
     <g id="line2d_58">
      <g>
       <use xlink:href="#m5ec7acf271" x="63" y="96.034987" style="stroke: #000000; stroke-width: 0.6"/>
      </g>
     </g>
    </g>
    <g id="ytick_50">
     <g id="line2d_59">
      <g>
       <use xlink:href="#m5ec7acf271" x="63" y="89.630187" style="stroke: #000000; stroke-width: 0.6"/>
      </g>
     </g>
    </g>
    <g id="ytick_51">
     <g id="line2d_60">
      <g>
       <use xlink:href="#m5ec7acf271" x="63" y="84.397084" style="stroke: #000000; stroke-width: 0.6"/>
      </g>
     </g>
    </g>
    <g id="ytick_52">
     <g id="line2d_61">
      <g>
       <use xlink:href="#m5ec7acf271" x="63" y="79.972558" style="stroke: #000000; stroke-width: 0.6"/>
      </g>
     </g>
    </g>
    <g id="ytick_53">
     <g id="line2d_62">
      <g>
       <use xlink:href="#m5ec7acf271" x="63" y="76.13986" style="stroke: #000000; stroke-width: 0.6"/>
      </g>
     </g>
    </g>
    <g id="ytick_54">
     <g id="line2d_63">
      <g>
       <use xlink:href="#m5ec7acf271" x="63" y="72.75918" style="stroke: #000000; stroke-width: 0.6"/>
      </g>
     </g>
    </g>
    <g id="text_17">
     <!-- Loss -->
     <g transform="translate(26.420313 265.487188) rotate(-90) scale(0.1 -0.1)">
      <defs>
       <path id="DejaVuSans-4c" d="M 628 4666 
L 1259 4666 
L 1259 531 
L 3531 531 
L 3531 0 
L 628 0 
L 628 4666 
z
" transform="scale(0.015625)"/>
       <path id="DejaVuSans-73" d="M 2834 3397 
L 2834 2853 
Q 2591 2978 2328 3040 
Q 2066 3103 1784 3103 
Q 1356 3103 1142 2972 
Q 928 2841 928 2578 
Q 928 2378 1081 2264 
Q 1234 2150 1697 2047 
L 1894 2003 
Q 2506 1872 2764 1633 
Q 3022 1394 3022 966 
Q 3022 478 2636 193 
Q 2250 -91 1575 -91 
Q 1294 -91 989 -36 
Q 684 19 347 128 
L 347 722 
Q 666 556 975 473 
Q 1284 391 1588 391 
Q 1994 391 2212 530 
Q 2431 669 2431 922 
Q 2431 1156 2273 1281 
Q 2116 1406 1581 1522 
L 1381 1569 
Q 847 1681 609 1914 
Q 372 2147 372 2553 
Q 372 3047 722 3315 
Q 1072 3584 1716 3584 
Q 2034 3584 2315 3537 
Q 2597 3491 2834 3397 
z
" transform="scale(0.015625)"/>
      </defs>
      <use xlink:href="#DejaVuSans-4c"/>
      <use xlink:href="#DejaVuSans-6f" x="53.962891"/>
      <use xlink:href="#DejaVuSans-73" x="115.144531"/>
      <use xlink:href="#DejaVuSans-73" x="167.244141"/>
     </g>
    </g>
   </g>
   <g id="line2d_64">
    <path d="M 80.754545 78.12 
L 81.109992 241.234373 
L 81.465438 228.024962 
L 81.820885 261.858709 
L 82.531777 286.531335 
L 82.887224 289.896091 
L 83.24267 307.340811 
L 83.598116 296.622448 
L 83.953563 309.265293 
L 84.309009 316.543812 
L 85.375348 324.12273 
L 85.730794 323.560317 
L 86.086241 325.773499 
L 86.441687 330.964211 
L 86.797133 332.775829 
L 87.15258 332.035229 
L 87.863473 299.468443 
L 88.218919 301.156078 
L 88.574365 301.772221 
L 88.929812 308.357088 
L 89.285258 300.280881 
L 89.640704 288.307855 
L 89.996151 282.606364 
L 90.351597 275.015879 
L 90.707043 270.890412 
L 91.06249 269.804413 
L 91.417936 276.857421 
L 91.773382 277.409511 
L 92.128829 288.193126 
L 92.484275 289.544419 
L 92.839722 286.520418 
L 93.195168 287.124728 
L 93.550614 297.288339 
L 93.906061 296.491003 
L 94.261507 298.373997 
L 94.616953 298.084863 
L 94.9724 303.787411 
L 95.327846 307.650647 
L 95.683292 305.578105 
L 96.394185 317.37415 
L 96.749631 323.533961 
L 97.105078 319.577301 
L 97.460524 320.188399 
L 97.815971 320.460647 
L 98.526863 329.312766 
L 98.88231 332.325512 
L 99.237756 336.447425 
L 99.593202 337.448887 
L 99.948649 335.017617 
L 100.304095 341.899373 
L 100.659541 346.160233 
L 101.014988 342.554632 
L 101.370434 346.639403 
L 101.72588 347.173528 
L 102.081327 348.426028 
L 102.436773 348.32801 
L 102.792219 344.898073 
L 103.503112 353.679124 
L 103.858559 353.247917 
L 104.214005 353.4216 
L 104.569451 352.931522 
L 104.924898 354.666246 
L 105.280344 351.187237 
L 105.63579 354.286466 
L 106.346683 356.291434 
L 106.702129 356.676702 
L 107.057576 358.392173 
L 107.413022 358.1045 
L 107.768468 351.884553 
L 108.123915 352.843409 
L 108.479361 354.849821 
L 109.190254 357.296164 
L 109.5457 355.338672 
L 109.901147 355.731944 
L 110.256593 357.977121 
L 110.612039 363.551928 
L 110.967486 361.214083 
L 111.322932 360.667071 
L 112.033825 358.073565 
L 112.389271 355.525846 
L 112.744717 359.066364 
L 113.100164 353.22598 
L 113.45561 350.249514 
L 113.811057 351.808746 
L 114.166503 348.294738 
L 114.521949 349.414204 
L 114.877396 346.787973 
L 116.299181 357.565405 
L 117.010074 355.662715 
L 117.720966 330.76237 
L 118.076413 331.508676 
L 118.431859 331.625873 
L 118.787305 329.229948 
L 119.498198 339.728064 
L 119.853645 350.427628 
L 120.209091 354.593426 
L 120.919984 359.127561 
L 121.27543 360.291912 
L 121.630876 358.928732 
L 121.986323 360.717849 
L 122.341769 363.187405 
L 122.697215 363.00056 
L 123.052662 361.994792 
L 123.408108 362.01363 
L 123.763554 363.946866 
L 124.119001 364.628535 
L 124.474447 363.696546 
L 124.829894 361.749913 
L 125.18534 354.916538 
L 125.540786 355.86427 
L 125.896233 361.10133 
L 126.251679 362.346679 
L 126.607125 361.473778 
L 126.962572 359.016556 
L 127.318018 359.085784 
L 127.673464 354.987941 
L 128.028911 354.785436 
L 128.384357 353.358452 
L 128.739803 353.501408 
L 129.09525 359.007548 
L 129.806143 367.285615 
L 130.161589 368.255753 
L 130.517035 372.328446 
L 130.872482 372.950508 
L 131.227928 371.738986 
L 131.583374 371.451515 
L 132.294267 365.343257 
L 132.649713 364.906153 
L 133.00516 369.8453 
L 133.360606 369.011373 
L 133.716052 366.747515 
L 134.071499 363.730291 
L 134.426945 363.519935 
L 134.782391 359.25065 
L 135.493284 366.849077 
L 136.204177 368.345846 
L 136.559623 366.455886 
L 136.91507 363.395215 
L 137.270516 367.063186 
L 137.625962 369.579088 
L 138.336855 364.840765 
L 138.692301 366.152538 
L 139.047748 368.644526 
L 139.403194 373.284225 
L 139.75864 374.773392 
L 140.82498 372.388591 
L 141.180426 371.217826 
L 141.535872 373.416864 
L 141.891319 369.157661 
L 142.246765 367.002366 
L 142.602211 369.04836 
L 142.957658 374.26675 
L 143.313104 373.388649 
L 143.66855 374.121521 
L 144.023997 372.718711 
L 144.379443 374.597051 
L 144.734889 374.93025 
L 145.090336 376.944441 
L 145.445782 376.042812 
L 145.801229 374.136118 
L 146.156675 371.20682 
L 146.512121 371.185564 
L 147.223014 377.758016 
L 147.57846 378.27246 
L 147.933907 379.310651 
L 148.289353 379.433332 
L 148.644799 377.462977 
L 149.000246 377.1505 
L 149.355692 380.582394 
L 149.711138 380.227978 
L 150.422031 382.277035 
L 150.777477 381.814796 
L 151.132924 379.151882 
L 151.48837 378.62339 
L 151.843817 377.819388 
L 152.199263 378.360281 
L 152.910156 373.424062 
L 153.265602 376.492989 
L 153.621048 377.661286 
L 153.976495 377.675058 
L 154.331941 378.786616 
L 155.042834 374.435609 
L 155.39828 374.215951 
L 155.753726 379.598714 
L 156.109173 379.143736 
L 156.464619 373.476751 
L 156.820066 371.371167 
L 157.175512 377.647306 
L 157.530958 377.116211 
L 157.886405 379.213229 
L 158.241851 379.132997 
L 158.597297 376.47844 
L 158.952744 375.720996 
L 159.663636 382.80208 
L 160.019083 381.535956 
L 160.374529 382.58606 
L 161.085422 377.222159 
L 161.796314 384.80135 
L 162.151761 386.016165 
L 162.507207 386.347861 
L 163.573546 386.228511 
L 164.284439 384.91384 
L 164.995332 386.186787 
L 165.350778 386.692562 
L 165.706224 386.823788 
L 166.061671 387.184315 
L 166.417117 387.034162 
L 166.772563 387.4283 
L 167.12801 387.411634 
L 167.483456 386.519805 
L 167.838903 386.672816 
L 168.194349 387.80832 
L 168.549795 388.213675 
L 168.905242 387.777163 
L 169.260688 388.235239 
L 169.971581 387.648283 
L 170.327027 387.781346 
L 170.682473 388.203763 
L 171.03792 388.866986 
L 171.393366 388.539971 
L 171.748812 389.117681 
L 172.104259 389.294561 
L 172.459705 389.280523 
L 172.815152 389.981073 
L 173.526044 386.67881 
L 173.881491 387.532293 
L 174.236937 390.579253 
L 174.592383 389.237855 
L 174.94783 388.576948 
L 175.303276 389.089987 
L 175.658722 389.963257 
L 176.014169 388.972654 
L 176.369615 388.340391 
L 176.725061 390.170165 
L 177.080508 390.570037 
L 177.435954 391.362605 
L 177.7914 391.372262 
L 178.502293 392.620708 
L 178.85774 392.700987 
L 179.213186 392.296111 
L 179.568632 392.490378 
L 179.924079 392.459548 
L 180.279525 391.577759 
L 180.634971 391.592428 
L 180.990418 392.702827 
L 181.345864 391.864399 
L 181.70131 392.625245 
L 182.056757 390.670999 
L 182.767649 389.368512 
L 183.123096 390.663942 
L 183.478542 390.895147 
L 183.833989 389.681084 
L 184.189435 392.130495 
L 184.900328 391.657723 
L 185.255774 392.783619 
L 185.61122 391.526194 
L 185.966667 392.044055 
L 186.322113 393.012917 
L 186.677559 393.514702 
L 187.033006 392.918737 
L 187.388452 393.961316 
L 187.743898 393.886411 
L 188.099345 394.690066 
L 188.454791 393.118518 
L 189.165684 391.558121 
L 189.52113 389.758685 
L 189.876577 392.328938 
L 190.232023 393.514577 
L 190.942916 394.830519 
L 191.298362 394.63122 
L 191.653808 394.807023 
L 192.009255 395.141732 
L 192.364701 395.17846 
L 192.720147 393.539073 
L 193.075594 393.020959 
L 193.43104 391.284104 
L 193.786486 394.110925 
L 194.141933 392.69147 
L 194.497379 392.347269 
L 194.852826 395.179197 
L 195.208272 394.705952 
L 195.563718 394.56447 
L 195.919165 395.13969 
L 196.274611 395.00709 
L 196.985504 397.159955 
L 197.34095 397.331602 
L 197.696396 396.97281 
L 198.051843 397.31679 
L 198.407289 396.552675 
L 198.762735 397.490363 
L 199.118182 396.168819 
L 199.473628 396.794628 
L 199.829075 395.990033 
L 200.539967 396.98876 
L 200.895414 395.65924 
L 201.25086 396.941367 
L 201.606306 396.80285 
L 201.961753 397.681067 
L 202.317199 397.631019 
L 202.672645 398.085322 
L 203.028092 397.964189 
L 203.383538 396.918171 
L 203.738984 397.461965 
L 204.094431 396.703154 
L 204.805324 397.68363 
L 205.16077 397.878683 
L 205.516216 398.519035 
L 205.871663 398.562856 
L 206.227109 398.083817 
L 206.582555 397.947462 
L 206.938002 397.357358 
L 207.293448 397.576102 
L 207.648894 395.534654 
L 208.004341 396.644755 
L 208.359787 396.316037 
L 208.715233 397.731787 
L 209.07068 396.437865 
L 209.426126 397.889847 
L 209.781572 398.455676 
L 210.137019 398.666101 
L 210.492465 398.010894 
L 210.847912 398.366591 
L 211.558804 400.144326 
L 211.914251 399.050645 
L 212.269697 399.170584 
L 212.625143 398.432069 
L 212.98059 399.4025 
L 213.336036 399.437218 
L 213.691482 398.357836 
L 214.046929 399.466278 
L 214.402375 397.649268 
L 215.113268 398.232073 
L 215.468714 400.545442 
L 215.824161 400.599085 
L 216.179607 400.296318 
L 216.535053 401.700615 
L 216.8905 401.370781 
L 217.601392 398.348951 
L 217.956839 398.61454 
L 218.312285 400.330751 
L 218.667731 397.619234 
L 219.023178 400.322386 
L 219.73407 401.781944 
L 220.089517 401.776188 
L 220.444963 401.919571 
L 220.80041 401.285229 
L 221.155856 402.719994 
L 221.511302 402.303116 
L 221.866749 402.457094 
L 222.222195 402.391853 
L 222.577641 402.88053 
L 222.933088 402.722126 
L 223.288534 402.428234 
L 223.64398 401.555459 
L 223.999427 402.798714 
L 224.354873 402.992089 
L 224.710319 402.884409 
L 225.065766 401.194343 
L 225.421212 402.512385 
L 225.776658 402.572945 
L 226.132105 402.853644 
L 226.487551 402.917063 
L 226.842998 403.530511 
L 227.198444 403.433757 
L 227.55389 402.480748 
L 227.909337 403.506142 
L 228.264783 401.49765 
L 228.620229 401.331489 
L 228.975676 401.945156 
L 229.331122 403.856046 
L 229.686568 402.897386 
L 230.042015 403.76877 
L 230.397461 403.994109 
L 230.752907 400.878085 
L 231.108354 402.775953 
L 231.4638 403.87398 
L 232.174693 402.874999 
L 232.530139 402.924205 
L 232.885586 402.122009 
L 233.241032 402.160615 
L 233.596478 401.989291 
L 233.951925 401.323959 
L 234.662817 404.125541 
L 235.018264 404.320569 
L 235.37371 403.392111 
L 235.729156 403.897471 
L 236.084603 404.636735 
L 236.440049 404.366994 
L 236.795495 404.751978 
L 237.150942 403.10261 
L 237.506388 404.235889 
L 237.861835 404.784836 
L 238.217281 404.279435 
L 238.572727 404.500912 
L 238.928174 403.560207 
L 239.28362 403.862988 
L 239.639066 403.390006 
L 239.994513 404.438968 
L 240.705405 405.131524 
L 241.060852 404.545915 
L 241.416298 404.968489 
L 241.771744 404.665395 
L 242.127191 404.009851 
L 242.482637 405.077349 
L 242.838084 405.240731 
L 243.19353 404.931762 
L 243.548976 404.09089 
L 243.904423 402.449975 
L 244.259869 402.546899 
L 244.615315 404.667626 
L 244.970762 404.213153 
L 245.326208 404.116324 
L 245.681654 403.516956 
L 246.037101 405.66129 
L 246.392547 403.864203 
L 246.747993 403.428591 
L 247.10344 404.409829 
L 247.458886 404.000801 
L 247.814333 404.566658 
L 248.169779 403.824124 
L 248.525225 402.382869 
L 248.880672 403.647178 
L 249.236118 402.850124 
L 249.591564 403.798623 
L 249.947011 401.913288 
L 250.302457 402.856704 
L 250.657903 403.09284 
L 251.368796 406.991637 
L 251.724242 407.134144 
L 252.079689 406.301889 
L 252.435135 406.993046 
L 252.790581 407.288588 
L 253.146028 407.232644 
L 253.501474 407.587975 
L 253.856921 407.428391 
L 254.212367 407.919067 
L 254.567813 406.769836 
L 255.278706 408.506695 
L 255.634152 408.032729 
L 255.989599 408.044973 
L 256.345045 408.170652 
L 257.055938 407.355367 
L 257.411384 406.277927 
L 257.76683 403.784426 
L 258.122277 404.7642 
L 258.477723 406.539078 
L 258.83317 407.635817 
L 259.188616 408.28627 
L 259.899509 408.937597 
L 260.965848 409.189001 
L 261.321294 409.377776 
L 263.098526 409.586725 
L 263.809419 410.029497 
L 264.164865 410.166044 
L 264.520311 410.156448 
L 265.231204 410.339919 
L 265.942097 410.364757 
L 267.719328 410.995917 
L 271.984685 411.664772 
L 272.695577 412.055992 
L 274.117363 412.120885 
L 274.472809 412.249957 
L 275.183702 412.297035 
L 276.250041 412.613585 
L 276.605487 412.798402 
L 276.960934 412.855438 
L 277.31638 413.072797 
L 277.671826 413.048205 
L 278.382719 413.236409 
L 278.738165 413.270956 
L 279.093612 413.476811 
L 280.159951 413.537294 
L 280.870844 413.693901 
L 282.292629 413.961678 
L 283.003522 413.985529 
L 283.358968 414.148029 
L 283.714414 414.106259 
L 284.780753 414.414918 
L 285.1362 414.329776 
L 286.202539 414.495814 
L 286.913432 414.69874 
L 288.335217 414.848931 
L 293.666912 415.946844 
L 294.377805 415.941059 
L 295.088698 416.077564 
L 296.155037 416.328276 
L 298.287715 416.548345 
L 298.643161 416.626772 
L 298.998608 416.560466 
L 299.7095 416.75075 
L 301.486732 416.948544 
L 303.263964 417.39101 
L 303.61941 417.351816 
L 303.974857 417.537725 
L 304.685749 417.68937 
L 305.041196 417.504446 
L 305.752088 417.765179 
L 309.661998 418.478134 
L 311.083784 418.563912 
L 314.282801 419.132343 
L 314.638247 419.046743 
L 319.969943 419.838555 
L 320.325389 419.802584 
L 321.747174 420.01403 
L 323.524406 420.187359 
L 323.879853 420.337196 
L 324.590745 420.28159 
L 324.946192 420.460258 
L 327.07887 420.637066 
L 327.789762 420.755326 
L 328.145209 420.677352 
L 328.856102 420.903243 
L 329.566994 420.974652 
L 330.277887 421.111629 
L 330.98878 421.17245 
L 331.699672 421.324894 
L 333.121458 421.33055 
L 334.543243 421.596486 
L 334.89869 421.524752 
L 335.254136 421.705173 
L 337.031368 421.989083 
L 337.386814 421.901872 
L 338.8086 422.277947 
L 339.519492 422.287818 
L 340.230385 422.330803 
L 340.585831 422.322671 
L 340.941278 422.468735 
L 341.296724 422.391568 
L 342.007617 422.579627 
L 344.851188 422.927947 
L 345.206634 422.894908 
L 345.56208 423.110102 
L 346.628419 423.299825 
L 350.538329 423.642518 
L 350.893776 423.782382 
L 353.026454 423.897162 
L 353.3819 424.100792 
L 353.737346 424.162136 
L 354.448239 424.036201 
L 356.936364 424.303622 
L 357.29181 424.476344 
L 357.647256 424.433977 
L 358.358149 424.640773 
L 360.135381 424.645376 
L 360.490827 424.731056 
L 360.846274 424.676406 
L 361.20172 424.85012 
L 361.912613 424.90464 
L 362.268059 424.987058 
L 362.978952 425.009536 
L 365.11163 425.169437 
L 365.822523 425.347571 
L 366.888862 425.345285 
L 367.955201 425.481972 
L 372.220557 426.096941 
L 373.286896 426.088127 
L 374.353235 426.12997 
L 376.130467 426.333769 
L 376.485913 426.512518 
L 377.907699 426.590327 
L 378.618591 426.421341 
L 380.040377 426.713928 
L 380.395823 426.863722 
L 380.751269 426.795943 
L 381.106716 426.956396 
L 382.173055 426.794484 
L 382.883948 426.984939 
L 383.59484 426.959127 
L 383.950287 427.129743 
L 384.305733 427.087022 
L 385.727518 427.296605 
L 386.438411 427.194895 
L 386.793857 427.237249 
L 387.149304 427.163111 
L 387.860197 427.426534 
L 389.281982 427.47603 
L 390.703767 427.690473 
L 391.41466 427.714081 
L 392.125553 427.546236 
L 393.191892 427.833508 
L 393.547338 427.751277 
L 394.258231 427.830935 
L 395.32457 428.048877 
L 395.680016 428.153633 
L 396.390909 428.139104 
L 398.879034 428.274291 
L 399.589926 428.445493 
L 400.656265 428.348388 
L 401.011712 428.468608 
L 401.722604 428.556939 
L 403.14439 428.677157 
L 405.987961 428.901625 
L 407.409746 429.156999 
L 408.476085 429.109122 
L 408.831532 429.203353 
L 409.186978 429.077794 
L 409.542424 429.118703 
L 409.897871 429.041627 
L 410.253317 429.185084 
L 411.675102 429.189319 
L 412.385995 429.309046 
L 412.741441 429.175391 
L 413.807781 429.330117 
L 414.163227 429.277166 
L 414.87412 429.53564 
L 417.006798 429.621429 
L 418.073137 429.708151 
L 419.139476 429.772566 
L 421.983047 429.982843 
L 422.338493 430.064824 
L 423.049386 429.972556 
L 429.44742 430.58345 
L 429.802867 430.505531 
L 430.158313 430.652036 
L 430.869206 430.565313 
L 431.580098 430.67614 
L 432.646437 430.632467 
L 433.001884 430.742735 
L 434.423669 430.643341 
L 435.845455 430.843317 
L 435.845455 430.843317 
" clip-path="url(#p45f7dd6c93)" style="fill: none; stroke: #1f77b4; stroke-width: 1.5; stroke-linecap: square"/>
   </g>
   <g id="text_18">
    <!-- Loss over Epochs -->
    <g transform="translate(206.445938 54.48) scale(0.12 -0.12)">
     <defs>
      <path id="DejaVuSans-20" transform="scale(0.015625)"/>
      <path id="DejaVuSans-76" d="M 191 3500 
L 800 3500 
L 1894 563 
L 2988 3500 
L 3597 3500 
L 2284 0 
L 1503 0 
L 191 3500 
z
" transform="scale(0.015625)"/>
      <path id="DejaVuSans-65" d="M 3597 1894 
L 3597 1613 
L 953 1613 
Q 991 1019 1311 708 
Q 1631 397 2203 397 
Q 2534 397 2845 478 
Q 3156 559 3463 722 
L 3463 178 
Q 3153 47 2828 -22 
Q 2503 -91 2169 -91 
Q 1331 -91 842 396 
Q 353 884 353 1716 
Q 353 2575 817 3079 
Q 1281 3584 2069 3584 
Q 2775 3584 3186 3129 
Q 3597 2675 3597 1894 
z
M 3022 2063 
Q 3016 2534 2758 2815 
Q 2500 3097 2075 3097 
Q 1594 3097 1305 2825 
Q 1016 2553 972 2059 
L 3022 2063 
z
" transform="scale(0.015625)"/>
      <path id="DejaVuSans-72" d="M 2631 2963 
Q 2534 3019 2420 3045 
Q 2306 3072 2169 3072 
Q 1681 3072 1420 2755 
Q 1159 2438 1159 1844 
L 1159 0 
L 581 0 
L 581 3500 
L 1159 3500 
L 1159 2956 
Q 1341 3275 1631 3429 
Q 1922 3584 2338 3584 
Q 2397 3584 2469 3576 
Q 2541 3569 2628 3553 
L 2631 2963 
z
" transform="scale(0.015625)"/>
     </defs>
     <use xlink:href="#DejaVuSans-4c"/>
     <use xlink:href="#DejaVuSans-6f" x="53.962891"/>
     <use xlink:href="#DejaVuSans-73" x="115.144531"/>
     <use xlink:href="#DejaVuSans-73" x="167.244141"/>
     <use xlink:href="#DejaVuSans-20" x="219.34375"/>
     <use xlink:href="#DejaVuSans-6f" x="251.130859"/>
     <use xlink:href="#DejaVuSans-76" x="312.3125"/>
     <use xlink:href="#DejaVuSans-65" x="371.492188"/>
     <use xlink:href="#DejaVuSans-72" x="433.015625"/>
     <use xlink:href="#DejaVuSans-20" x="474.128906"/>
     <use xlink:href="#DejaVuSans-45" x="505.916016"/>
     <use xlink:href="#DejaVuSans-70" x="569.099609"/>
     <use xlink:href="#DejaVuSans-6f" x="632.576172"/>
     <use xlink:href="#DejaVuSans-63" x="693.757812"/>
     <use xlink:href="#DejaVuSans-68" x="748.738281"/>
     <use xlink:href="#DejaVuSans-73" x="812.117188"/>
    </g>
   </g>
   <g id="legend_1">
    <g id="patch_3">
     <path d="M 392.665625 83.158125 
L 446.6 83.158125 
Q 448.6 83.158125 448.6 81.158125 
L 448.6 67.48 
Q 448.6 65.48 446.6 65.48 
L 392.665625 65.48 
Q 390.665625 65.48 390.665625 67.48 
L 390.665625 81.158125 
Q 390.665625 83.158125 392.665625 83.158125 
z
" style="fill: #ffffff; opacity: 0.8; stroke: #cccccc; stroke-linejoin: miter"/>
    </g>
    <g id="line2d_65">
     <path d="M 394.665625 73.578438 
L 404.665625 73.578438 
L 414.665625 73.578438 
" style="fill: none; stroke: #1f77b4; stroke-width: 1.5; stroke-linecap: square"/>
    </g>
    <g id="text_19">
     <!-- Loss -->
     <g transform="translate(422.665625 77.078438) scale(0.1 -0.1)">
      <use xlink:href="#DejaVuSans-4c"/>
      <use xlink:href="#DejaVuSans-6f" x="53.962891"/>
      <use xlink:href="#DejaVuSans-73" x="115.144531"/>
      <use xlink:href="#DejaVuSans-73" x="167.244141"/>
     </g>
    </g>
   </g>
  </g>
 </g>
 <defs>
  <clipPath id="p45f7dd6c93">
   <rect x="63" y="60.48" width="390.6" height="388.08"/>
  </clipPath>
 </defs>
</svg>
