<?xml version="1.0" encoding="utf-8" standalone="no"?>
<!DOCTYPE svg PUBLIC "-//W3C//DTD SVG 1.1//EN"
  "http://www.w3.org/Graphics/SVG/1.1/DTD/svg11.dtd">
<svg xmlns:xlink="http://www.w3.org/1999/xlink" width="504pt" height="504pt" viewBox="0 0 504 504" xmlns="http://www.w3.org/2000/svg" version="1.1">
 <metadata>
  <rdf:RDF xmlns:dc="http://purl.org/dc/elements/1.1/" xmlns:cc="http://creativecommons.org/ns#" xmlns:rdf="http://www.w3.org/1999/02/22-rdf-syntax-ns#">
   <cc:Work>
    <dc:type rdf:resource="http://purl.org/dc/dcmitype/StillImage"/>
    <dc:date>2024-06-13T00:54:50.602642</dc:date>
    <dc:format>image/svg+xml</dc:format>
    <dc:creator>
     <cc:Agent>
      <dc:title>Matplotlib v3.9.0, https://matplotlib.org/</dc:title>
     </cc:Agent>
    </dc:creator>
   </cc:Work>
  </rdf:RDF>
 </metadata>
 <defs>
  <style type="text/css">*{stroke-linejoin: round; stroke-linecap: butt}</style>
 </defs>
 <g id="figure_1">
  <g id="patch_1">
   <path d="M 0 504 
L 504 504 
L 504 0 
L 0 0 
z
" style="fill: #ffffff"/>
  </g>
  <g id="axes_1">
   <g id="patch_2">
    <path d="M 63 448.56 
L 453.6 448.56 
L 453.6 60.48 
L 63 60.48 
z
" style="fill: #ffffff"/>
   </g>
   <g id="matplotlib.axis_1">
    <g id="xtick_1">
     <g id="line2d_1">
      <defs>
       <path id="m4780431b70" d="M 0 0 
L 0 3.5 
" style="stroke: #000000; stroke-width: 0.8"/>
      </defs>
      <g>
       <use xlink:href="#m4780431b70" x="80.754545" y="448.56" style="stroke: #000000; stroke-width: 0.8"/>
      </g>
     </g>
     <g id="text_1">
      <!-- 0 -->
      <g transform="translate(77.573295 463.158437) scale(0.1 -0.1)">
       <defs>
        <path id="DejaVuSans-30" d="M 2034 4250 
Q 1547 4250 1301 3770 
Q 1056 3291 1056 2328 
Q 1056 1369 1301 889 
Q 1547 409 2034 409 
Q 2525 409 2770 889 
Q 3016 1369 3016 2328 
Q 3016 3291 2770 3770 
Q 2525 4250 2034 4250 
z
M 2034 4750 
Q 2819 4750 3233 4129 
Q 3647 3509 3647 2328 
Q 3647 1150 3233 529 
Q 2819 -91 2034 -91 
Q 1250 -91 836 529 
Q 422 1150 422 2328 
Q 422 3509 836 4129 
Q 1250 4750 2034 4750 
z
" transform="scale(0.015625)"/>
       </defs>
       <use xlink:href="#DejaVuSans-30"/>
      </g>
     </g>
    </g>
    <g id="xtick_2">
     <g id="line2d_2">
      <g>
       <use xlink:href="#m4780431b70" x="125.18534" y="448.56" style="stroke: #000000; stroke-width: 0.8"/>
      </g>
     </g>
     <g id="text_2">
      <!-- 250 -->
      <g transform="translate(115.64159 463.158437) scale(0.1 -0.1)">
       <defs>
        <path id="DejaVuSans-32" d="M 1228 531 
L 3431 531 
L 3431 0 
L 469 0 
L 469 531 
Q 828 903 1448 1529 
Q 2069 2156 2228 2338 
Q 2531 2678 2651 2914 
Q 2772 3150 2772 3378 
Q 2772 3750 2511 3984 
Q 2250 4219 1831 4219 
Q 1534 4219 1204 4116 
Q 875 4013 500 3803 
L 500 4441 
Q 881 4594 1212 4672 
Q 1544 4750 1819 4750 
Q 2544 4750 2975 4387 
Q 3406 4025 3406 3419 
Q 3406 3131 3298 2873 
Q 3191 2616 2906 2266 
Q 2828 2175 2409 1742 
Q 1991 1309 1228 531 
z
" transform="scale(0.015625)"/>
        <path id="DejaVuSans-35" d="M 691 4666 
L 3169 4666 
L 3169 4134 
L 1269 4134 
L 1269 2991 
Q 1406 3038 1543 3061 
Q 1681 3084 1819 3084 
Q 2600 3084 3056 2656 
Q 3513 2228 3513 1497 
Q 3513 744 3044 326 
Q 2575 -91 1722 -91 
Q 1428 -91 1123 -41 
Q 819 9 494 109 
L 494 744 
Q 775 591 1075 516 
Q 1375 441 1709 441 
Q 2250 441 2565 725 
Q 2881 1009 2881 1497 
Q 2881 1984 2565 2268 
Q 2250 2553 1709 2553 
Q 1456 2553 1204 2497 
Q 953 2441 691 2322 
L 691 4666 
z
" transform="scale(0.015625)"/>
       </defs>
       <use xlink:href="#DejaVuSans-32"/>
       <use xlink:href="#DejaVuSans-35" x="63.623047"/>
       <use xlink:href="#DejaVuSans-30" x="127.246094"/>
      </g>
     </g>
    </g>
    <g id="xtick_3">
     <g id="line2d_3">
      <g>
       <use xlink:href="#m4780431b70" x="169.616134" y="448.56" style="stroke: #000000; stroke-width: 0.8"/>
      </g>
     </g>
     <g id="text_3">
      <!-- 500 -->
      <g transform="translate(160.072384 463.158437) scale(0.1 -0.1)">
       <use xlink:href="#DejaVuSans-35"/>
       <use xlink:href="#DejaVuSans-30" x="63.623047"/>
       <use xlink:href="#DejaVuSans-30" x="127.246094"/>
      </g>
     </g>
    </g>
    <g id="xtick_4">
     <g id="line2d_4">
      <g>
       <use xlink:href="#m4780431b70" x="214.046929" y="448.56" style="stroke: #000000; stroke-width: 0.8"/>
      </g>
     </g>
     <g id="text_4">
      <!-- 750 -->
      <g transform="translate(204.503179 463.158437) scale(0.1 -0.1)">
       <defs>
        <path id="DejaVuSans-37" d="M 525 4666 
L 3525 4666 
L 3525 4397 
L 1831 0 
L 1172 0 
L 2766 4134 
L 525 4134 
L 525 4666 
z
" transform="scale(0.015625)"/>
       </defs>
       <use xlink:href="#DejaVuSans-37"/>
       <use xlink:href="#DejaVuSans-35" x="63.623047"/>
       <use xlink:href="#DejaVuSans-30" x="127.246094"/>
      </g>
     </g>
    </g>
    <g id="xtick_5">
     <g id="line2d_5">
      <g>
       <use xlink:href="#m4780431b70" x="258.477723" y="448.56" style="stroke: #000000; stroke-width: 0.8"/>
      </g>
     </g>
     <g id="text_5">
      <!-- 1000 -->
      <g transform="translate(245.752723 463.158437) scale(0.1 -0.1)">
       <defs>
        <path id="DejaVuSans-31" d="M 794 531 
L 1825 531 
L 1825 4091 
L 703 3866 
L 703 4441 
L 1819 4666 
L 2450 4666 
L 2450 531 
L 3481 531 
L 3481 0 
L 794 0 
L 794 531 
z
" transform="scale(0.015625)"/>
       </defs>
       <use xlink:href="#DejaVuSans-31"/>
       <use xlink:href="#DejaVuSans-30" x="63.623047"/>
       <use xlink:href="#DejaVuSans-30" x="127.246094"/>
       <use xlink:href="#DejaVuSans-30" x="190.869141"/>
      </g>
     </g>
    </g>
    <g id="xtick_6">
     <g id="line2d_6">
      <g>
       <use xlink:href="#m4780431b70" x="302.908518" y="448.56" style="stroke: #000000; stroke-width: 0.8"/>
      </g>
     </g>
     <g id="text_6">
      <!-- 1250 -->
      <g transform="translate(290.183518 463.158437) scale(0.1 -0.1)">
       <use xlink:href="#DejaVuSans-31"/>
       <use xlink:href="#DejaVuSans-32" x="63.623047"/>
       <use xlink:href="#DejaVuSans-35" x="127.246094"/>
       <use xlink:href="#DejaVuSans-30" x="190.869141"/>
      </g>
     </g>
    </g>
    <g id="xtick_7">
     <g id="line2d_7">
      <g>
       <use xlink:href="#m4780431b70" x="347.339312" y="448.56" style="stroke: #000000; stroke-width: 0.8"/>
      </g>
     </g>
     <g id="text_7">
      <!-- 1500 -->
      <g transform="translate(334.614312 463.158437) scale(0.1 -0.1)">
       <use xlink:href="#DejaVuSans-31"/>
       <use xlink:href="#DejaVuSans-35" x="63.623047"/>
       <use xlink:href="#DejaVuSans-30" x="127.246094"/>
       <use xlink:href="#DejaVuSans-30" x="190.869141"/>
      </g>
     </g>
    </g>
    <g id="xtick_8">
     <g id="line2d_8">
      <g>
       <use xlink:href="#m4780431b70" x="391.770106" y="448.56" style="stroke: #000000; stroke-width: 0.8"/>
      </g>
     </g>
     <g id="text_8">
      <!-- 1750 -->
      <g transform="translate(379.045106 463.158437) scale(0.1 -0.1)">
       <use xlink:href="#DejaVuSans-31"/>
       <use xlink:href="#DejaVuSans-37" x="63.623047"/>
       <use xlink:href="#DejaVuSans-35" x="127.246094"/>
       <use xlink:href="#DejaVuSans-30" x="190.869141"/>
      </g>
     </g>
    </g>
    <g id="xtick_9">
     <g id="line2d_9">
      <g>
       <use xlink:href="#m4780431b70" x="436.200901" y="448.56" style="stroke: #000000; stroke-width: 0.8"/>
      </g>
     </g>
     <g id="text_9">
      <!-- 2000 -->
      <g transform="translate(423.475901 463.158437) scale(0.1 -0.1)">
       <use xlink:href="#DejaVuSans-32"/>
       <use xlink:href="#DejaVuSans-30" x="63.623047"/>
       <use xlink:href="#DejaVuSans-30" x="127.246094"/>
       <use xlink:href="#DejaVuSans-30" x="190.869141"/>
      </g>
     </g>
    </g>
    <g id="text_10">
     <!-- Epoch -->
     <g transform="translate(242.989063 476.836563) scale(0.1 -0.1)">
      <defs>
       <path id="DejaVuSans-45" d="M 628 4666 
L 3578 4666 
L 3578 4134 
L 1259 4134 
L 1259 2753 
L 3481 2753 
L 3481 2222 
L 1259 2222 
L 1259 531 
L 3634 531 
L 3634 0 
L 628 0 
L 628 4666 
z
" transform="scale(0.015625)"/>
       <path id="DejaVuSans-70" d="M 1159 525 
L 1159 -1331 
L 581 -1331 
L 581 3500 
L 1159 3500 
L 1159 2969 
Q 1341 3281 1617 3432 
Q 1894 3584 2278 3584 
Q 2916 3584 3314 3078 
Q 3713 2572 3713 1747 
Q 3713 922 3314 415 
Q 2916 -91 2278 -91 
Q 1894 -91 1617 61 
Q 1341 213 1159 525 
z
M 3116 1747 
Q 3116 2381 2855 2742 
Q 2594 3103 2138 3103 
Q 1681 3103 1420 2742 
Q 1159 2381 1159 1747 
Q 1159 1113 1420 752 
Q 1681 391 2138 391 
Q 2594 391 2855 752 
Q 3116 1113 3116 1747 
z
" transform="scale(0.015625)"/>
       <path id="DejaVuSans-6f" d="M 1959 3097 
Q 1497 3097 1228 2736 
Q 959 2375 959 1747 
Q 959 1119 1226 758 
Q 1494 397 1959 397 
Q 2419 397 2687 759 
Q 2956 1122 2956 1747 
Q 2956 2369 2687 2733 
Q 2419 3097 1959 3097 
z
M 1959 3584 
Q 2709 3584 3137 3096 
Q 3566 2609 3566 1747 
Q 3566 888 3137 398 
Q 2709 -91 1959 -91 
Q 1206 -91 779 398 
Q 353 888 353 1747 
Q 353 2609 779 3096 
Q 1206 3584 1959 3584 
z
" transform="scale(0.015625)"/>
       <path id="DejaVuSans-63" d="M 3122 3366 
L 3122 2828 
Q 2878 2963 2633 3030 
Q 2388 3097 2138 3097 
Q 1578 3097 1268 2742 
Q 959 2388 959 1747 
Q 959 1106 1268 751 
Q 1578 397 2138 397 
Q 2388 397 2633 464 
Q 2878 531 3122 666 
L 3122 134 
Q 2881 22 2623 -34 
Q 2366 -91 2075 -91 
Q 1284 -91 818 406 
Q 353 903 353 1747 
Q 353 2603 823 3093 
Q 1294 3584 2113 3584 
Q 2378 3584 2631 3529 
Q 2884 3475 3122 3366 
z
" transform="scale(0.015625)"/>
       <path id="DejaVuSans-68" d="M 3513 2113 
L 3513 0 
L 2938 0 
L 2938 2094 
Q 2938 2591 2744 2837 
Q 2550 3084 2163 3084 
Q 1697 3084 1428 2787 
Q 1159 2491 1159 1978 
L 1159 0 
L 581 0 
L 581 4863 
L 1159 4863 
L 1159 2956 
Q 1366 3272 1645 3428 
Q 1925 3584 2291 3584 
Q 2894 3584 3203 3211 
Q 3513 2838 3513 2113 
z
" transform="scale(0.015625)"/>
      </defs>
      <use xlink:href="#DejaVuSans-45"/>
      <use xlink:href="#DejaVuSans-70" x="63.183594"/>
      <use xlink:href="#DejaVuSans-6f" x="126.660156"/>
      <use xlink:href="#DejaVuSans-63" x="187.841797"/>
      <use xlink:href="#DejaVuSans-68" x="242.822266"/>
     </g>
    </g>
   </g>
   <g id="matplotlib.axis_2">
    <g id="ytick_1">
     <g id="line2d_10">
      <defs>
       <path id="mb9a5d30721" d="M 0 0 
L -3.5 0 
" style="stroke: #000000; stroke-width: 0.8"/>
      </defs>
      <g>
       <use xlink:href="#mb9a5d30721" x="63" y="417.676666" style="stroke: #000000; stroke-width: 0.8"/>
      </g>
     </g>
     <g id="text_11">
      <!-- $\mathdefault{10^{-4}}$ -->
      <g transform="translate(32.5 421.475885) scale(0.1 -0.1)">
       <defs>
        <path id="DejaVuSans-2212" d="M 678 2272 
L 4684 2272 
L 4684 1741 
L 678 1741 
L 678 2272 
z
" transform="scale(0.015625)"/>
        <path id="DejaVuSans-34" d="M 2419 4116 
L 825 1625 
L 2419 1625 
L 2419 4116 
z
M 2253 4666 
L 3047 4666 
L 3047 1625 
L 3713 1625 
L 3713 1100 
L 3047 1100 
L 3047 0 
L 2419 0 
L 2419 1100 
L 313 1100 
L 313 1709 
L 2253 4666 
z
" transform="scale(0.015625)"/>
       </defs>
       <use xlink:href="#DejaVuSans-31" transform="translate(0 0.684375)"/>
       <use xlink:href="#DejaVuSans-30" transform="translate(63.623047 0.684375)"/>
       <use xlink:href="#DejaVuSans-2212" transform="translate(128.203125 38.965625) scale(0.7)"/>
       <use xlink:href="#DejaVuSans-34" transform="translate(186.855469 38.965625) scale(0.7)"/>
      </g>
     </g>
    </g>
    <g id="ytick_2">
     <g id="line2d_11">
      <g>
       <use xlink:href="#mb9a5d30721" x="63" y="320.294415" style="stroke: #000000; stroke-width: 0.8"/>
      </g>
     </g>
     <g id="text_12">
      <!-- $\mathdefault{10^{-3}}$ -->
      <g transform="translate(32.5 324.093634) scale(0.1 -0.1)">
       <defs>
        <path id="DejaVuSans-33" d="M 2597 2516 
Q 3050 2419 3304 2112 
Q 3559 1806 3559 1356 
Q 3559 666 3084 287 
Q 2609 -91 1734 -91 
Q 1441 -91 1130 -33 
Q 819 25 488 141 
L 488 750 
Q 750 597 1062 519 
Q 1375 441 1716 441 
Q 2309 441 2620 675 
Q 2931 909 2931 1356 
Q 2931 1769 2642 2001 
Q 2353 2234 1838 2234 
L 1294 2234 
L 1294 2753 
L 1863 2753 
Q 2328 2753 2575 2939 
Q 2822 3125 2822 3475 
Q 2822 3834 2567 4026 
Q 2313 4219 1838 4219 
Q 1578 4219 1281 4162 
Q 984 4106 628 3988 
L 628 4550 
Q 988 4650 1302 4700 
Q 1616 4750 1894 4750 
Q 2613 4750 3031 4423 
Q 3450 4097 3450 3541 
Q 3450 3153 3228 2886 
Q 3006 2619 2597 2516 
z
" transform="scale(0.015625)"/>
       </defs>
       <use xlink:href="#DejaVuSans-31" transform="translate(0 0.765625)"/>
       <use xlink:href="#DejaVuSans-30" transform="translate(63.623047 0.765625)"/>
       <use xlink:href="#DejaVuSans-2212" transform="translate(128.203125 39.046875) scale(0.7)"/>
       <use xlink:href="#DejaVuSans-33" transform="translate(186.855469 39.046875) scale(0.7)"/>
      </g>
     </g>
    </g>
    <g id="ytick_3">
     <g id="line2d_12">
      <g>
       <use xlink:href="#mb9a5d30721" x="63" y="222.912164" style="stroke: #000000; stroke-width: 0.8"/>
      </g>
     </g>
     <g id="text_13">
      <!-- $\mathdefault{10^{-2}}$ -->
      <g transform="translate(32.5 226.711383) scale(0.1 -0.1)">
       <use xlink:href="#DejaVuSans-31" transform="translate(0 0.765625)"/>
       <use xlink:href="#DejaVuSans-30" transform="translate(63.623047 0.765625)"/>
       <use xlink:href="#DejaVuSans-2212" transform="translate(128.203125 39.046875) scale(0.7)"/>
       <use xlink:href="#DejaVuSans-32" transform="translate(186.855469 39.046875) scale(0.7)"/>
      </g>
     </g>
    </g>
    <g id="ytick_4">
     <g id="line2d_13">
      <g>
       <use xlink:href="#mb9a5d30721" x="63" y="125.529913" style="stroke: #000000; stroke-width: 0.8"/>
      </g>
     </g>
     <g id="text_14">
      <!-- $\mathdefault{10^{-1}}$ -->
      <g transform="translate(32.5 129.329132) scale(0.1 -0.1)">
       <use xlink:href="#DejaVuSans-31" transform="translate(0 0.684375)"/>
       <use xlink:href="#DejaVuSans-30" transform="translate(63.623047 0.684375)"/>
       <use xlink:href="#DejaVuSans-2212" transform="translate(128.203125 38.965625) scale(0.7)"/>
       <use xlink:href="#DejaVuSans-31" transform="translate(186.855469 38.965625) scale(0.7)"/>
      </g>
     </g>
    </g>
    <g id="ytick_5">
     <g id="line2d_14">
      <defs>
       <path id="m48703fdfbc" d="M 0 0 
L -2 0 
" style="stroke: #000000; stroke-width: 0.6"/>
      </defs>
      <g>
       <use xlink:href="#m48703fdfbc" x="63" y="446.991645" style="stroke: #000000; stroke-width: 0.6"/>
      </g>
     </g>
    </g>
    <g id="ytick_6">
     <g id="line2d_15">
      <g>
       <use xlink:href="#m48703fdfbc" x="63" y="439.280797" style="stroke: #000000; stroke-width: 0.6"/>
      </g>
     </g>
    </g>
    <g id="ytick_7">
     <g id="line2d_16">
      <g>
       <use xlink:href="#m48703fdfbc" x="63" y="432.761368" style="stroke: #000000; stroke-width: 0.6"/>
      </g>
     </g>
    </g>
    <g id="ytick_8">
     <g id="line2d_17">
      <g>
       <use xlink:href="#m48703fdfbc" x="63" y="427.113981" style="stroke: #000000; stroke-width: 0.6"/>
      </g>
     </g>
    </g>
    <g id="ytick_9">
     <g id="line2d_18">
      <g>
       <use xlink:href="#m48703fdfbc" x="63" y="422.132633" style="stroke: #000000; stroke-width: 0.6"/>
      </g>
     </g>
    </g>
    <g id="ytick_10">
     <g id="line2d_19">
      <g>
       <use xlink:href="#m48703fdfbc" x="63" y="388.361687" style="stroke: #000000; stroke-width: 0.6"/>
      </g>
     </g>
    </g>
    <g id="ytick_11">
     <g id="line2d_20">
      <g>
       <use xlink:href="#m48703fdfbc" x="63" y="371.213524" style="stroke: #000000; stroke-width: 0.6"/>
      </g>
     </g>
    </g>
    <g id="ytick_12">
     <g id="line2d_21">
      <g>
       <use xlink:href="#m48703fdfbc" x="63" y="359.046709" style="stroke: #000000; stroke-width: 0.6"/>
      </g>
     </g>
    </g>
    <g id="ytick_13">
     <g id="line2d_22">
      <g>
       <use xlink:href="#m48703fdfbc" x="63" y="349.609394" style="stroke: #000000; stroke-width: 0.6"/>
      </g>
     </g>
    </g>
    <g id="ytick_14">
     <g id="line2d_23">
      <g>
       <use xlink:href="#m48703fdfbc" x="63" y="341.898546" style="stroke: #000000; stroke-width: 0.6"/>
      </g>
     </g>
    </g>
    <g id="ytick_15">
     <g id="line2d_24">
      <g>
       <use xlink:href="#m48703fdfbc" x="63" y="335.379117" style="stroke: #000000; stroke-width: 0.6"/>
      </g>
     </g>
    </g>
    <g id="ytick_16">
     <g id="line2d_25">
      <g>
       <use xlink:href="#m48703fdfbc" x="63" y="329.73173" style="stroke: #000000; stroke-width: 0.6"/>
      </g>
     </g>
    </g>
    <g id="ytick_17">
     <g id="line2d_26">
      <g>
       <use xlink:href="#m48703fdfbc" x="63" y="324.750382" style="stroke: #000000; stroke-width: 0.6"/>
      </g>
     </g>
    </g>
    <g id="ytick_18">
     <g id="line2d_27">
      <g>
       <use xlink:href="#m48703fdfbc" x="63" y="290.979436" style="stroke: #000000; stroke-width: 0.6"/>
      </g>
     </g>
    </g>
    <g id="ytick_19">
     <g id="line2d_28">
      <g>
       <use xlink:href="#m48703fdfbc" x="63" y="273.831273" style="stroke: #000000; stroke-width: 0.6"/>
      </g>
     </g>
    </g>
    <g id="ytick_20">
     <g id="line2d_29">
      <g>
       <use xlink:href="#m48703fdfbc" x="63" y="261.664458" style="stroke: #000000; stroke-width: 0.6"/>
      </g>
     </g>
    </g>
    <g id="ytick_21">
     <g id="line2d_30">
      <g>
       <use xlink:href="#m48703fdfbc" x="63" y="252.227143" style="stroke: #000000; stroke-width: 0.6"/>
      </g>
     </g>
    </g>
    <g id="ytick_22">
     <g id="line2d_31">
      <g>
       <use xlink:href="#m48703fdfbc" x="63" y="244.516295" style="stroke: #000000; stroke-width: 0.6"/>
      </g>
     </g>
    </g>
    <g id="ytick_23">
     <g id="line2d_32">
      <g>
       <use xlink:href="#m48703fdfbc" x="63" y="237.996866" style="stroke: #000000; stroke-width: 0.6"/>
      </g>
     </g>
    </g>
    <g id="ytick_24">
     <g id="line2d_33">
      <g>
       <use xlink:href="#m48703fdfbc" x="63" y="232.349479" style="stroke: #000000; stroke-width: 0.6"/>
      </g>
     </g>
    </g>
    <g id="ytick_25">
     <g id="line2d_34">
      <g>
       <use xlink:href="#m48703fdfbc" x="63" y="227.368131" style="stroke: #000000; stroke-width: 0.6"/>
      </g>
     </g>
    </g>
    <g id="ytick_26">
     <g id="line2d_35">
      <g>
       <use xlink:href="#m48703fdfbc" x="63" y="193.597185" style="stroke: #000000; stroke-width: 0.6"/>
      </g>
     </g>
    </g>
    <g id="ytick_27">
     <g id="line2d_36">
      <g>
       <use xlink:href="#m48703fdfbc" x="63" y="176.449022" style="stroke: #000000; stroke-width: 0.6"/>
      </g>
     </g>
    </g>
    <g id="ytick_28">
     <g id="line2d_37">
      <g>
       <use xlink:href="#m48703fdfbc" x="63" y="164.282207" style="stroke: #000000; stroke-width: 0.6"/>
      </g>
     </g>
    </g>
    <g id="ytick_29">
     <g id="line2d_38">
      <g>
       <use xlink:href="#m48703fdfbc" x="63" y="154.844892" style="stroke: #000000; stroke-width: 0.6"/>
      </g>
     </g>
    </g>
    <g id="ytick_30">
     <g id="line2d_39">
      <g>
       <use xlink:href="#m48703fdfbc" x="63" y="147.134044" style="stroke: #000000; stroke-width: 0.6"/>
      </g>
     </g>
    </g>
    <g id="ytick_31">
     <g id="line2d_40">
      <g>
       <use xlink:href="#m48703fdfbc" x="63" y="140.614615" style="stroke: #000000; stroke-width: 0.6"/>
      </g>
     </g>
    </g>
    <g id="ytick_32">
     <g id="line2d_41">
      <g>
       <use xlink:href="#m48703fdfbc" x="63" y="134.967228" style="stroke: #000000; stroke-width: 0.6"/>
      </g>
     </g>
    </g>
    <g id="ytick_33">
     <g id="line2d_42">
      <g>
       <use xlink:href="#m48703fdfbc" x="63" y="129.98588" style="stroke: #000000; stroke-width: 0.6"/>
      </g>
     </g>
    </g>
    <g id="ytick_34">
     <g id="line2d_43">
      <g>
       <use xlink:href="#m48703fdfbc" x="63" y="96.214934" style="stroke: #000000; stroke-width: 0.6"/>
      </g>
     </g>
    </g>
    <g id="ytick_35">
     <g id="line2d_44">
      <g>
       <use xlink:href="#m48703fdfbc" x="63" y="79.066771" style="stroke: #000000; stroke-width: 0.6"/>
      </g>
     </g>
    </g>
    <g id="ytick_36">
     <g id="line2d_45">
      <g>
       <use xlink:href="#m48703fdfbc" x="63" y="66.899956" style="stroke: #000000; stroke-width: 0.6"/>
      </g>
     </g>
    </g>
    <g id="text_15">
     <!-- MAE of energy per atom -->
     <g transform="translate(26.420312 315.273125) rotate(-90) scale(0.1 -0.1)">
      <defs>
       <path id="DejaVuSans-4d" d="M 628 4666 
L 1569 4666 
L 2759 1491 
L 3956 4666 
L 4897 4666 
L 4897 0 
L 4281 0 
L 4281 4097 
L 3078 897 
L 2444 897 
L 1241 4097 
L 1241 0 
L 628 0 
L 628 4666 
z
" transform="scale(0.015625)"/>
       <path id="DejaVuSans-41" d="M 2188 4044 
L 1331 1722 
L 3047 1722 
L 2188 4044 
z
M 1831 4666 
L 2547 4666 
L 4325 0 
L 3669 0 
L 3244 1197 
L 1141 1197 
L 716 0 
L 50 0 
L 1831 4666 
z
" transform="scale(0.015625)"/>
       <path id="DejaVuSans-20" transform="scale(0.015625)"/>
       <path id="DejaVuSans-66" d="M 2375 4863 
L 2375 4384 
L 1825 4384 
Q 1516 4384 1395 4259 
Q 1275 4134 1275 3809 
L 1275 3500 
L 2222 3500 
L 2222 3053 
L 1275 3053 
L 1275 0 
L 697 0 
L 697 3053 
L 147 3053 
L 147 3500 
L 697 3500 
L 697 3744 
Q 697 4328 969 4595 
Q 1241 4863 1831 4863 
L 2375 4863 
z
" transform="scale(0.015625)"/>
       <path id="DejaVuSans-65" d="M 3597 1894 
L 3597 1613 
L 953 1613 
Q 991 1019 1311 708 
Q 1631 397 2203 397 
Q 2534 397 2845 478 
Q 3156 559 3463 722 
L 3463 178 
Q 3153 47 2828 -22 
Q 2503 -91 2169 -91 
Q 1331 -91 842 396 
Q 353 884 353 1716 
Q 353 2575 817 3079 
Q 1281 3584 2069 3584 
Q 2775 3584 3186 3129 
Q 3597 2675 3597 1894 
z
M 3022 2063 
Q 3016 2534 2758 2815 
Q 2500 3097 2075 3097 
Q 1594 3097 1305 2825 
Q 1016 2553 972 2059 
L 3022 2063 
z
" transform="scale(0.015625)"/>
       <path id="DejaVuSans-6e" d="M 3513 2113 
L 3513 0 
L 2938 0 
L 2938 2094 
Q 2938 2591 2744 2837 
Q 2550 3084 2163 3084 
Q 1697 3084 1428 2787 
Q 1159 2491 1159 1978 
L 1159 0 
L 581 0 
L 581 3500 
L 1159 3500 
L 1159 2956 
Q 1366 3272 1645 3428 
Q 1925 3584 2291 3584 
Q 2894 3584 3203 3211 
Q 3513 2838 3513 2113 
z
" transform="scale(0.015625)"/>
       <path id="DejaVuSans-72" d="M 2631 2963 
Q 2534 3019 2420 3045 
Q 2306 3072 2169 3072 
Q 1681 3072 1420 2755 
Q 1159 2438 1159 1844 
L 1159 0 
L 581 0 
L 581 3500 
L 1159 3500 
L 1159 2956 
Q 1341 3275 1631 3429 
Q 1922 3584 2338 3584 
Q 2397 3584 2469 3576 
Q 2541 3569 2628 3553 
L 2631 2963 
z
" transform="scale(0.015625)"/>
       <path id="DejaVuSans-67" d="M 2906 1791 
Q 2906 2416 2648 2759 
Q 2391 3103 1925 3103 
Q 1463 3103 1205 2759 
Q 947 2416 947 1791 
Q 947 1169 1205 825 
Q 1463 481 1925 481 
Q 2391 481 2648 825 
Q 2906 1169 2906 1791 
z
M 3481 434 
Q 3481 -459 3084 -895 
Q 2688 -1331 1869 -1331 
Q 1566 -1331 1297 -1286 
Q 1028 -1241 775 -1147 
L 775 -588 
Q 1028 -725 1275 -790 
Q 1522 -856 1778 -856 
Q 2344 -856 2625 -561 
Q 2906 -266 2906 331 
L 2906 616 
Q 2728 306 2450 153 
Q 2172 0 1784 0 
Q 1141 0 747 490 
Q 353 981 353 1791 
Q 353 2603 747 3093 
Q 1141 3584 1784 3584 
Q 2172 3584 2450 3431 
Q 2728 3278 2906 2969 
L 2906 3500 
L 3481 3500 
L 3481 434 
z
" transform="scale(0.015625)"/>
       <path id="DejaVuSans-79" d="M 2059 -325 
Q 1816 -950 1584 -1140 
Q 1353 -1331 966 -1331 
L 506 -1331 
L 506 -850 
L 844 -850 
Q 1081 -850 1212 -737 
Q 1344 -625 1503 -206 
L 1606 56 
L 191 3500 
L 800 3500 
L 1894 763 
L 2988 3500 
L 3597 3500 
L 2059 -325 
z
" transform="scale(0.015625)"/>
       <path id="DejaVuSans-61" d="M 2194 1759 
Q 1497 1759 1228 1600 
Q 959 1441 959 1056 
Q 959 750 1161 570 
Q 1363 391 1709 391 
Q 2188 391 2477 730 
Q 2766 1069 2766 1631 
L 2766 1759 
L 2194 1759 
z
M 3341 1997 
L 3341 0 
L 2766 0 
L 2766 531 
Q 2569 213 2275 61 
Q 1981 -91 1556 -91 
Q 1019 -91 701 211 
Q 384 513 384 1019 
Q 384 1609 779 1909 
Q 1175 2209 1959 2209 
L 2766 2209 
L 2766 2266 
Q 2766 2663 2505 2880 
Q 2244 3097 1772 3097 
Q 1472 3097 1187 3025 
Q 903 2953 641 2809 
L 641 3341 
Q 956 3463 1253 3523 
Q 1550 3584 1831 3584 
Q 2591 3584 2966 3190 
Q 3341 2797 3341 1997 
z
" transform="scale(0.015625)"/>
       <path id="DejaVuSans-74" d="M 1172 4494 
L 1172 3500 
L 2356 3500 
L 2356 3053 
L 1172 3053 
L 1172 1153 
Q 1172 725 1289 603 
Q 1406 481 1766 481 
L 2356 481 
L 2356 0 
L 1766 0 
Q 1100 0 847 248 
Q 594 497 594 1153 
L 594 3053 
L 172 3053 
L 172 3500 
L 594 3500 
L 594 4494 
L 1172 4494 
z
" transform="scale(0.015625)"/>
       <path id="DejaVuSans-6d" d="M 3328 2828 
Q 3544 3216 3844 3400 
Q 4144 3584 4550 3584 
Q 5097 3584 5394 3201 
Q 5691 2819 5691 2113 
L 5691 0 
L 5113 0 
L 5113 2094 
Q 5113 2597 4934 2840 
Q 4756 3084 4391 3084 
Q 3944 3084 3684 2787 
Q 3425 2491 3425 1978 
L 3425 0 
L 2847 0 
L 2847 2094 
Q 2847 2600 2669 2842 
Q 2491 3084 2119 3084 
Q 1678 3084 1418 2786 
Q 1159 2488 1159 1978 
L 1159 0 
L 581 0 
L 581 3500 
L 1159 3500 
L 1159 2956 
Q 1356 3278 1631 3431 
Q 1906 3584 2284 3584 
Q 2666 3584 2933 3390 
Q 3200 3197 3328 2828 
z
" transform="scale(0.015625)"/>
      </defs>
      <use xlink:href="#DejaVuSans-4d"/>
      <use xlink:href="#DejaVuSans-41" x="86.279297"/>
      <use xlink:href="#DejaVuSans-45" x="154.6875"/>
      <use xlink:href="#DejaVuSans-20" x="217.871094"/>
      <use xlink:href="#DejaVuSans-6f" x="249.658203"/>
      <use xlink:href="#DejaVuSans-66" x="310.839844"/>
      <use xlink:href="#DejaVuSans-20" x="346.044922"/>
      <use xlink:href="#DejaVuSans-65" x="377.832031"/>
      <use xlink:href="#DejaVuSans-6e" x="439.355469"/>
      <use xlink:href="#DejaVuSans-65" x="502.734375"/>
      <use xlink:href="#DejaVuSans-72" x="564.257812"/>
      <use xlink:href="#DejaVuSans-67" x="603.621094"/>
      <use xlink:href="#DejaVuSans-79" x="667.097656"/>
      <use xlink:href="#DejaVuSans-20" x="726.277344"/>
      <use xlink:href="#DejaVuSans-70" x="758.064453"/>
      <use xlink:href="#DejaVuSans-65" x="821.541016"/>
      <use xlink:href="#DejaVuSans-72" x="883.064453"/>
      <use xlink:href="#DejaVuSans-20" x="924.177734"/>
      <use xlink:href="#DejaVuSans-61" x="955.964844"/>
      <use xlink:href="#DejaVuSans-74" x="1017.244141"/>
      <use xlink:href="#DejaVuSans-6f" x="1056.453125"/>
      <use xlink:href="#DejaVuSans-6d" x="1117.634766"/>
     </g>
    </g>
   </g>
   <g id="line2d_46">
    <path d="M 80.754545 78.12 
L 81.109992 187.838983 
L 81.465438 211.40184 
L 81.820885 209.466848 
L 82.176331 252.848262 
L 82.887224 230.331039 
L 83.24267 347.235684 
L 83.598116 234.100795 
L 83.953563 261.387218 
L 84.309009 318.889251 
L 84.664455 328.157839 
L 85.019902 301.952586 
L 85.375348 341.908334 
L 85.730794 287.421315 
L 86.086241 280.026126 
L 86.441687 309.234008 
L 86.797133 299.836738 
L 87.15258 282.345544 
L 87.508026 275.751276 
L 87.863473 234.989373 
L 88.218919 234.185545 
L 88.574365 232.667438 
L 88.929812 240.610786 
L 89.640704 214.815509 
L 90.707043 198.398969 
L 91.06249 197.342446 
L 91.417936 203.085492 
L 91.773382 203.437774 
L 92.128829 212.724639 
L 92.484275 213.792538 
L 92.839722 210.952265 
L 93.195168 211.423697 
L 93.550614 220.473258 
L 93.906061 219.575857 
L 94.261507 221.129804 
L 94.616953 220.671704 
L 95.327846 229.741803 
L 95.683292 227.518609 
L 96.749631 247.057521 
L 97.105078 241.683273 
L 97.460524 242.064279 
L 97.815971 242.075558 
L 98.526863 252.622384 
L 98.88231 255.956742 
L 99.237756 261.572393 
L 99.593202 262.875656 
L 99.948649 258.502667 
L 100.659541 279.382494 
L 101.014988 269.86792 
L 101.370434 278.735088 
L 101.72588 279.03981 
L 102.081327 281.078527 
L 102.436773 279.530951 
L 102.792219 270.907542 
L 103.147666 277.899627 
L 103.503112 290.913093 
L 104.214005 288.064764 
L 104.569451 285.392299 
L 104.924898 290.357451 
L 105.280344 280.45897 
L 105.63579 289.817731 
L 106.346683 300.230884 
L 106.702129 299.822926 
L 107.057576 308.295693 
L 107.413022 303.115717 
L 107.768468 281.581505 
L 108.123915 283.874626 
L 108.479361 290.064797 
L 108.834808 292.481012 
L 109.190254 296.524696 
L 109.5457 288.544342 
L 109.901147 288.826622 
L 110.256593 296.275079 
L 110.612039 349.848408 
L 110.967486 313.675416 
L 111.678378 297.384074 
L 112.033825 293.337048 
L 112.389271 285.327553 
L 112.744717 296.409895 
L 113.100164 278.460877 
L 113.45561 272.618734 
L 113.811057 274.959926 
L 114.166503 268.540999 
L 114.521949 270.305437 
L 114.877396 265.987264 
L 115.943735 281.156613 
L 116.299181 287.262995 
L 116.654627 283.804597 
L 117.010074 286.20907 
L 117.36552 314.19208 
L 117.720966 264.841405 
L 118.076413 264.95509 
L 118.431859 273.838071 
L 118.787305 263.650557 
L 119.498198 276.479714 
L 120.209091 351.203941 
L 120.564537 353.117356 
L 120.919984 387.199984 
L 121.27543 400.18861 
L 121.630876 313.093111 
L 121.986323 315.813285 
L 122.341769 337.472544 
L 123.052662 308.839087 
L 123.408108 305.735893 
L 123.763554 314.656258 
L 124.119001 316.446834 
L 124.829894 296.511925 
L 125.18534 278.080931 
L 125.540786 279.358652 
L 125.896233 290.799146 
L 126.251679 294.273701 
L 126.607125 290.538897 
L 126.962572 283.766789 
L 127.318018 283.557588 
L 127.673464 275.779423 
L 128.028911 274.811369 
L 128.384357 272.145265 
L 128.739803 272.169675 
L 129.806143 302.028172 
L 130.161589 304.61688 
L 130.517035 333.311572 
L 130.872482 340.512168 
L 131.227928 322.131648 
L 131.583374 320.19229 
L 132.294267 292.31649 
L 132.649713 290.78576 
L 133.00516 306.573144 
L 133.360606 301.221203 
L 134.071499 287.068483 
L 134.426945 285.925775 
L 134.782391 277.683085 
L 135.493284 292.917418 
L 136.204177 298.549728 
L 136.559623 292.622876 
L 136.91507 284.253268 
L 137.625962 300.127827 
L 137.981409 294.584893 
L 138.336855 287.213773 
L 138.692301 289.095799 
L 139.047748 294.155176 
L 139.403194 309.196079 
L 139.75864 314.908023 
L 140.114087 310.15834 
L 140.82498 303.020289 
L 141.180426 298.322541 
L 141.535872 305.685101 
L 141.891319 293.084299 
L 142.246765 288.407067 
L 142.602211 292.24024 
L 142.957658 307.779185 
L 143.313104 304.28718 
L 143.66855 306.706181 
L 144.023997 302.519848 
L 144.379443 308.627691 
L 144.734889 311.933623 
L 145.090336 322.939676 
L 145.445782 318.453665 
L 146.156675 296.68082 
L 146.512121 295.320861 
L 146.867568 304.641638 
L 147.223014 319.272462 
L 147.57846 321.996132 
L 147.933907 328.821478 
L 148.289353 329.30117 
L 148.644799 317.785347 
L 149.000246 315.849579 
L 149.355692 346.671722 
L 149.711138 332.085787 
L 150.066585 345.966897 
L 150.422031 379.23556 
L 150.777477 366.459181 
L 151.132924 325.913827 
L 151.48837 317.772677 
L 151.843817 313.164988 
L 152.199263 319.421459 
L 152.554709 306.035522 
L 152.910156 299.064723 
L 153.265602 308.464755 
L 153.621048 312.660651 
L 153.976495 311.110541 
L 154.331941 316.414112 
L 155.042834 299.693318 
L 155.39828 298.229347 
L 155.753726 315.624256 
L 156.109173 315.356234 
L 156.464619 296.257304 
L 156.820066 291.310945 
L 157.175512 308.150837 
L 157.530958 308.886971 
L 157.886405 318.772362 
L 158.241851 313.744453 
L 158.597297 304.03319 
L 158.952744 299.903095 
L 159.663636 329.534709 
L 160.019083 318.359376 
L 160.374529 325.173076 
L 160.729975 311.403704 
L 161.085422 303.517675 
L 161.440868 316.218315 
L 161.796314 342.860297 
L 162.151761 359.974086 
L 162.507207 383.347814 
L 162.862654 395.561095 
L 163.2181 388.483687 
L 163.573546 390.721669 
L 163.928993 361.217565 
L 164.284439 343.623597 
L 164.639885 351.643662 
L 164.995332 354.948233 
L 166.061671 393.185065 
L 166.417117 369.288477 
L 166.772563 377.519213 
L 167.12801 367.636869 
L 167.483456 344.22695 
L 167.838903 342.548175 
L 168.549795 386.701529 
L 168.905242 351.399849 
L 169.260688 351.07384 
L 169.616134 351.455991 
L 169.971581 349.794363 
L 170.327027 339.448643 
L 170.682473 341.625385 
L 171.03792 351.784966 
L 171.393366 345.419496 
L 171.748812 357.321966 
L 172.104259 356.34381 
L 172.459705 362.718097 
L 172.815152 386.636938 
L 173.170598 342.268468 
L 173.526044 326.016315 
L 173.881491 330.197826 
L 174.236937 374.234154 
L 174.592383 344.4485 
L 174.94783 336.937778 
L 175.303276 349.302117 
L 175.658722 376.882445 
L 176.014169 339.589854 
L 176.369615 334.099235 
L 176.725061 358.8999 
L 177.080508 356.840692 
L 177.435954 365.994489 
L 177.7914 366.392478 
L 178.146847 393.970865 
L 178.502293 405.688067 
L 179.213186 381.765686 
L 179.568632 392.487645 
L 179.924079 387.330986 
L 180.279525 352.297613 
L 180.634971 349.364444 
L 180.990418 383.56731 
L 181.345864 355.162319 
L 181.70131 379.580068 
L 182.056757 338.791195 
L 182.412203 336.161144 
L 182.767649 328.964264 
L 183.123096 340.86785 
L 183.478542 339.873699 
L 183.833989 327.11826 
L 184.189435 353.508684 
L 184.900328 340.002053 
L 185.255774 361.276577 
L 185.61122 339.378216 
L 185.966667 350.38359 
L 186.322113 383.62737 
L 186.677559 399.077125 
L 187.033006 362.620452 
L 187.388452 406.300028 
L 187.743898 354.958403 
L 188.099345 382.578659 
L 188.454791 344.077268 
L 189.52113 320.187821 
L 190.942916 380.817807 
L 191.298362 365.170716 
L 191.653808 382.951627 
L 192.009255 413.123043 
L 192.364701 391.414416 
L 192.720147 349.142249 
L 193.075594 343.779486 
L 193.43104 330.470571 
L 193.786486 360.994077 
L 194.141933 335.296154 
L 194.497379 330.716409 
L 194.852826 372.015121 
L 195.208272 352.14507 
L 195.563718 348.456412 
L 195.919165 346.521482 
L 196.274611 345.614765 
L 196.630057 358.070715 
L 196.985504 407.2349 
L 197.696396 371.59098 
L 198.051843 381.308051 
L 198.407289 353.088151 
L 198.762735 389.392266 
L 199.118182 349.659548 
L 199.473628 359.101347 
L 199.829075 348.965334 
L 200.184521 360.019921 
L 200.539967 361.170418 
L 200.895414 342.510269 
L 201.25086 363.197374 
L 201.606306 357.268218 
L 201.961753 371.156129 
L 202.317199 364.084095 
L 202.672645 384.497744 
L 203.028092 380.705475 
L 203.383538 351.643662 
L 203.738984 359.0565 
L 204.094431 342.867941 
L 205.16077 374.475503 
L 205.516216 398.703484 
L 205.871663 411.815535 
L 206.227109 364.121976 
L 206.582555 358.005075 
L 206.938002 346.1482 
L 207.293448 348.395398 
L 207.648894 330.791015 
L 208.004341 341.211839 
L 208.359787 335.04134 
L 208.715233 347.884649 
L 209.07068 335.765182 
L 209.426126 348.95651 
L 210.137019 362.779242 
L 210.492465 352.43154 
L 210.847912 355.863088 
L 211.203358 357.765276 
L 211.558804 373.676297 
L 211.914251 356.196925 
L 212.269697 355.666113 
L 212.625143 357.300456 
L 212.98059 362.681459 
L 213.336036 361.775539 
L 213.691482 344.17962 
L 214.046929 361.572868 
L 214.402375 337.519659 
L 214.757821 339.083687 
L 215.113268 341.440269 
L 215.468714 383.387636 
L 215.824161 373.016446 
L 216.179607 349.731395 
L 216.535053 381.938586 
L 216.8905 376.255118 
L 217.245946 347.490667 
L 217.601392 335.047693 
L 217.956839 334.323434 
L 218.312285 348.482584 
L 218.667731 329.356656 
L 219.023178 353.039524 
L 219.378624 365.888988 
L 219.73407 386.123779 
L 220.089517 363.794808 
L 220.444963 362.37732 
L 220.80041 352.826217 
L 221.155856 394.098982 
L 221.511302 385.637773 
L 221.866749 388.349068 
L 222.222195 399.279688 
L 222.577641 418.753188 
L 222.933088 384.334453 
L 223.288534 372.62851 
L 223.64398 349.462587 
L 224.354873 387.748535 
L 224.710319 385.012133 
L 225.065766 355.459756 
L 225.421212 405.051576 
L 225.776658 416.210854 
L 226.132105 382.073551 
L 226.487551 372.798765 
L 226.842998 406.920974 
L 227.198444 414.306414 
L 227.55389 365.718111 
L 227.909337 381.823239 
L 228.264783 345.884746 
L 228.620229 343.545869 
L 228.975676 349.489389 
L 229.331122 392.984627 
L 229.686568 357.950456 
L 230.397461 393.134861 
L 230.752907 343.615815 
L 231.4638 378.537084 
L 231.819247 355.203222 
L 232.174693 356.207401 
L 232.530139 363.844982 
L 232.885586 350.274196 
L 233.241032 360.457835 
L 233.596478 349.938649 
L 233.951925 347.618737 
L 234.307371 371.455547 
L 234.662817 403.007118 
L 235.018264 400.040681 
L 235.37371 412.168138 
L 235.729156 413.2036 
L 236.440049 372.474326 
L 236.795495 403.549132 
L 237.150942 360.376824 
L 237.861835 396.610057 
L 238.217281 363.732182 
L 238.572727 371.651309 
L 238.928174 354.553491 
L 239.28362 361.335668 
L 239.639066 360.423097 
L 239.994513 374.637173 
L 240.349959 370.710938 
L 240.705405 387.22179 
L 241.060852 373.898559 
L 241.416298 382.208948 
L 242.127191 358.743881 
L 242.482637 372.55135 
L 242.838084 380.333183 
L 243.19353 383.188894 
L 243.548976 354.78584 
L 243.904423 341.447657 
L 244.259869 346.338576 
L 244.615315 380.556167 
L 244.970762 360.550607 
L 245.681654 344.345492 
L 246.037101 367.431463 
L 246.392547 345.468226 
L 246.747993 342.975064 
L 247.10344 355.34669 
L 247.458886 363.358349 
L 247.814333 377.867441 
L 248.169779 360.550607 
L 248.525225 336.725753 
L 248.880672 342.103022 
L 249.236118 336.69272 
L 249.591564 340.281495 
L 249.947011 329.40666 
L 250.302457 334.342173 
L 250.657903 335.998418 
L 251.01335 350.001922 
L 251.368796 421.067931 
L 251.724242 411.737579 
L 252.079689 398.904266 
L 253.501474 429.414771 
L 253.856921 398.73211 
L 254.212367 402.284687 
L 254.567813 364.134611 
L 254.92326 375.919859 
L 255.278706 420.202829 
L 255.634152 392.192237 
L 255.989599 411.195852 
L 256.345045 397.62987 
L 256.700491 405.251538 
L 257.055938 384.518198 
L 257.76683 336.344142 
L 258.122277 343.097833 
L 258.83317 365.836342 
L 259.544062 391.850177 
L 260.254955 403.871241 
L 260.965848 413.002496 
L 261.67674 418.478263 
L 262.032187 418.845228 
L 262.743079 422.954532 
L 263.098526 424.086517 
L 263.453972 424.505776 
L 263.809419 424.611247 
L 264.164865 426.445652 
L 264.520311 427.224748 
L 264.875758 430.010449 
L 265.231204 430.070478 
L 265.58665 430.614636 
L 265.942097 430.190802 
L 266.297543 430.251093 
L 266.652989 430.49311 
L 267.008436 430.371929 
L 267.363882 430.614645 
L 267.719328 430.614636 
L 268.074775 430.92 
L 268.430221 430.251093 
L 268.785667 430.432474 
L 269.141114 430.190802 
L 270.562899 430.251093 
L 271.273792 429.533237 
L 271.984685 429.950504 
L 272.340131 429.296632 
L 273.761916 430.070483 
L 274.472809 429.23769 
L 274.828256 429.711563 
L 275.183702 429.533237 
L 275.539148 429.533233 
L 276.250041 429.06135 
L 276.605487 429.120047 
L 276.960934 429.533233 
L 277.31638 429.592593 
L 277.671826 429.23769 
L 278.027273 429.473965 
L 278.382719 429.414771 
L 278.738165 429.592597 
L 279.093612 428.363244 
L 279.449058 428.133081 
L 279.804505 427.450012 
L 280.159951 428.652723 
L 280.515397 428.88574 
L 280.870844 427.337228 
L 281.22629 427.733279 
L 281.581736 428.53669 
L 281.937183 427.847125 
L 282.292629 427.847125 
L 282.648075 426.666789 
L 283.003522 426.445652 
L 283.358968 426.722253 
L 283.714414 426.06142 
L 284.069861 425.142569 
L 284.425307 425.626533 
L 284.780753 425.089134 
L 285.1362 425.196072 
L 286.557985 424.664081 
L 286.913432 423.413961 
L 287.268878 424.982466 
L 287.979771 423.362668 
L 288.335217 424.295631 
L 288.690663 424.190946 
L 289.04611 424.243254 
L 289.401556 424.929237 
L 289.757002 424.190946 
L 290.112449 423.982352 
L 290.467895 424.086517 
L 290.823342 423.930362 
L 291.178788 424.190946 
L 291.534234 423.671373 
L 291.889681 423.516741 
L 292.245127 423.826573 
L 292.600573 423.671373 
L 292.95602 424.034399 
L 293.311466 423.413961 
L 293.666912 423.826573 
L 294.022359 423.671373 
L 294.377805 423.0562 
L 294.733251 423.260265 
L 295.088698 423.107122 
L 295.444144 422.802494 
L 295.79959 422.751933 
L 296.155037 422.100109 
L 296.510483 422.349624 
L 296.86593 422.349624 
L 297.221376 422.600617 
L 297.576822 422.449843 
L 297.932269 422.050381 
L 298.287715 422.600617 
L 298.643161 421.901553 
L 299.354054 421.262607 
L 299.7095 421.165155 
L 300.064947 421.80262 
L 300.420393 420.729395 
L 300.775839 421.311413 
L 301.131286 420.585136 
L 301.486732 420.874155 
L 301.842179 420.681252 
L 302.197625 420.633166 
L 302.553071 420.922511 
L 303.263964 421.165155 
L 303.61941 420.633166 
L 303.974857 420.729395 
L 304.330303 419.871117 
L 304.685749 420.155281 
L 305.041196 420.633166 
L 305.396642 420.250424 
L 305.752088 420.489231 
L 306.107535 420.107787 
L 306.462981 420.345788 
L 306.818428 419.635765 
L 307.52932 420.107787 
L 307.884767 419.58885 
L 308.240213 419.682732 
L 308.595659 420.155281 
L 308.951106 419.635765 
L 309.306552 419.635765 
L 309.661998 420.012957 
L 310.372891 419.355059 
L 310.728337 419.495182 
L 311.083784 420.012957 
L 311.43923 419.495182 
L 311.794676 419.729751 
L 312.150123 419.168953 
L 312.505569 419.261907 
L 312.861016 419.215405 
L 313.216462 418.983666 
L 314.282801 419.168956 
L 314.993694 420.060345 
L 315.34914 419.261907 
L 315.704586 419.029911 
L 316.060033 419.07621 
L 316.415479 418.937469 
L 316.770925 419.168956 
L 317.126372 419.54199 
L 317.481818 419.30846 
L 317.837265 418.799181 
L 318.192711 419.355062 
L 318.548157 418.753191 
L 318.903604 419.495182 
L 319.25905 419.168956 
L 319.614496 419.495182 
L 319.969943 418.341467 
L 320.325389 418.753188 
L 320.680835 419.355062 
L 321.036282 419.261907 
L 321.391728 419.355062 
L 322.102621 419.029911 
L 322.458067 419.495182 
L 322.813514 418.799181 
L 323.16896 418.891325 
L 323.524406 419.261907 
L 323.879853 419.122556 
L 324.235299 419.77682 
L 324.590745 419.07621 
L 324.946192 419.029911 
L 325.301638 418.799181 
L 326.367977 418.845228 
L 326.723423 419.355062 
L 327.07887 418.799184 
L 327.434316 419.07621 
L 327.789762 418.845228 
L 328.145209 418.799181 
L 328.500655 419.029911 
L 328.856102 418.891325 
L 329.211548 419.448423 
L 329.566994 418.753188 
L 329.922441 418.6155 
L 330.277887 419.168956 
L 330.633333 418.6155 
L 330.98878 419.07621 
L 331.344226 419.261907 
L 331.699672 418.983669 
L 332.055119 419.541993 
L 332.410565 418.432614 
L 332.766011 419.07621 
L 333.121458 418.753188 
L 333.476904 418.6155 
L 333.832351 418.707241 
L 334.187797 418.069197 
L 334.543243 418.387014 
L 334.89869 418.478263 
L 335.254136 419.07621 
L 335.609582 419.07621 
L 335.965029 418.799181 
L 336.320475 419.215405 
L 336.675921 418.478263 
L 337.386814 418.523958 
L 337.74226 418.341463 
L 338.097707 419.07621 
L 338.8086 418.341463 
L 339.519492 418.387014 
L 340.230385 418.937472 
L 340.585831 418.159756 
L 340.941278 418.523958 
L 341.296724 418.387014 
L 342.007617 419.122556 
L 342.718509 418.523955 
L 343.073956 418.845228 
L 343.429402 418.661348 
L 344.140295 418.983666 
L 344.495741 418.845228 
L 344.851188 419.682732 
L 345.206634 419.682732 
L 345.56208 418.983663 
L 345.917527 419.495182 
L 346.272973 419.541993 
L 346.628419 419.823944 
L 346.983866 419.635765 
L 347.339312 419.122556 
L 348.405651 419.355065 
L 348.761097 418.753188 
L 349.116544 419.029911 
L 349.47199 418.891325 
L 350.182883 418.845228 
L 350.538329 418.6155 
L 350.893776 417.978825 
L 351.249222 418.387014 
L 351.604668 419.871117 
L 351.960115 418.6155 
L 352.315561 419.07621 
L 352.671007 418.523958 
L 353.026454 418.661348 
L 353.3819 418.341467 
L 353.737346 418.295968 
L 354.092793 418.845228 
L 354.448239 418.6155 
L 354.803686 418.023987 
L 355.159132 418.250515 
L 355.514578 418.6155 
L 355.870025 418.387014 
L 356.225471 417.843635 
L 356.580917 418.387014 
L 356.936364 418.6155 
L 357.29181 418.983663 
L 357.647256 418.205111 
L 358.002703 419.029911 
L 358.358149 418.069197 
L 358.713595 418.295965 
L 359.069042 418.937469 
L 359.779934 419.07621 
L 360.135381 418.6155 
L 360.490827 418.845228 
L 361.557166 419.215405 
L 361.912613 418.6155 
L 362.268059 419.07621 
L 362.623505 419.168953 
L 364.045291 419.07621 
L 364.400737 418.661348 
L 364.756183 419.448423 
L 365.11163 419.215405 
L 365.467076 419.77682 
L 365.822523 419.215405 
L 366.177969 419.448423 
L 366.533415 418.891325 
L 366.888862 419.635765 
L 367.244308 418.432614 
L 367.599754 418.891325 
L 367.955201 418.387014 
L 368.310647 419.168956 
L 368.666093 418.983663 
L 369.02154 418.983663 
L 369.376986 418.6155 
L 369.732432 418.478263 
L 370.087879 418.753188 
L 370.443325 418.6155 
L 370.798771 418.891325 
L 371.509664 418.341467 
L 371.865111 418.569706 
L 372.220557 419.168953 
L 372.576003 419.122556 
L 372.93145 418.295968 
L 373.286896 418.661348 
L 373.642342 418.707244 
L 373.997789 419.261907 
L 374.353235 419.215405 
L 374.708681 418.891325 
L 375.064128 418.295968 
L 375.77502 418.295965 
L 376.130467 418.523958 
L 376.485913 418.523958 
L 377.196806 419.401718 
L 377.552252 419.30846 
L 378.618591 419.588853 
L 378.974038 418.983666 
L 380.040377 418.432614 
L 380.395823 419.07621 
L 380.751269 418.387014 
L 381.106716 418.205111 
L 381.462162 418.523958 
L 381.817609 418.661348 
L 382.173055 419.07621 
L 382.528501 418.891325 
L 382.883948 418.983663 
L 383.239394 418.845228 
L 383.59484 418.891325 
L 383.950287 419.16896 
L 384.305733 418.937469 
L 384.661179 418.937472 
L 385.372072 419.261907 
L 385.727518 419.355062 
L 386.438411 419.965625 
L 386.793857 419.729751 
L 387.149304 418.937469 
L 387.50475 419.965625 
L 387.860197 419.029911 
L 388.215643 419.635765 
L 388.571089 419.215405 
L 388.926536 419.355062 
L 389.637428 418.983663 
L 389.992875 419.635765 
L 390.348321 419.871117 
L 391.059214 419.965625 
L 391.41466 420.489231 
L 391.770106 420.681255 
L 392.125553 420.298079 
L 392.480999 420.633166 
L 392.836446 420.393547 
L 393.191892 419.541993 
L 393.547338 420.060345 
L 393.902785 420.060345 
L 394.258231 419.215405 
L 394.613677 419.682732 
L 394.969124 420.441361 
L 395.32457 419.918346 
L 395.680016 420.107787 
L 396.035463 419.965629 
L 396.390909 420.250424 
L 396.746355 420.250424 
L 397.101802 420.01296 
L 397.457248 419.448423 
L 397.812695 420.012957 
L 398.168141 419.682732 
L 398.523587 420.155281 
L 398.879034 420.01296 
L 399.23448 420.39355 
L 399.589926 420.39355 
L 399.945373 421.213853 
L 400.300819 420.537156 
L 400.656265 419.401715 
L 401.011712 419.635765 
L 401.367158 420.250424 
L 401.722604 420.537156 
L 402.078051 420.250427 
L 402.433497 420.729398 
L 402.788943 420.298079 
L 403.14439 420.825846 
L 403.499836 420.155281 
L 403.855283 420.585136 
L 404.210729 420.060349 
L 404.921622 421.165155 
L 405.277068 421.360276 
L 405.632514 421.262603 
L 406.343407 421.360276 
L 406.698853 420.874151 
L 407.0543 420.63317 
L 407.409746 420.681252 
L 407.765192 420.922511 
L 408.120639 420.681255 
L 408.476085 421.067928 
L 408.831532 421.019405 
L 409.186978 421.31141 
L 409.542424 420.874148 
L 409.897871 421.65466 
L 410.253317 421.901553 
L 410.608763 421.703924 
L 410.96421 421.703924 
L 411.319656 420.489231 
L 411.675102 421.409199 
L 412.030549 420.441361 
L 412.385995 421.165155 
L 412.741441 421.36028 
L 413.096888 421.019405 
L 413.452334 421.019405 
L 413.807781 420.874151 
L 414.163227 420.874151 
L 414.518673 421.067931 
L 414.87412 420.441364 
L 415.229566 420.874148 
L 415.585012 420.060345 
L 416.651351 421.019405 
L 417.006798 420.874155 
L 417.362244 420.874151 
L 417.71769 420.729398 
L 418.428583 420.825846 
L 418.784029 421.116514 
L 419.139476 421.165155 
L 419.494922 421.067931 
L 419.850369 421.556302 
L 420.561261 421.605452 
L 420.916708 421.213853 
L 421.272154 421.067935 
L 421.6276 421.116514 
L 422.338493 422.149896 
L 423.760278 420.729395 
L 424.471171 421.067935 
L 424.826618 420.874155 
L 425.53751 421.458179 
L 425.892957 421.262607 
L 426.248403 421.409199 
L 426.603849 421.116514 
L 426.959296 421.262607 
L 427.314742 420.155281 
L 427.670188 421.067931 
L 428.025635 421.409199 
L 428.736527 421.556302 
L 429.091974 421.213853 
L 429.44742 420.681252 
L 429.802867 421.116517 
L 430.513759 421.262607 
L 430.869206 421.116514 
L 431.224652 420.729395 
L 431.935545 421.311413 
L 432.290991 421.067928 
L 434.068223 421.654656 
L 434.423669 421.951103 
L 434.779115 421.703921 
L 435.134562 421.753243 
L 435.490008 422.050381 
L 435.845455 422.100109 
L 435.845455 422.100109 
" clip-path="url(#pe0abf677ff)" style="fill: none; stroke: #1f77b4; stroke-width: 1.5; stroke-linecap: square"/>
   </g>
   <g id="text_16">
    <!-- MAE of energy per atom over Epochs -->
    <g transform="translate(146.702813 54.48) scale(0.12 -0.12)">
     <defs>
      <path id="DejaVuSans-76" d="M 191 3500 
L 800 3500 
L 1894 563 
L 2988 3500 
L 3597 3500 
L 2284 0 
L 1503 0 
L 191 3500 
z
" transform="scale(0.015625)"/>
      <path id="DejaVuSans-73" d="M 2834 3397 
L 2834 2853 
Q 2591 2978 2328 3040 
Q 2066 3103 1784 3103 
Q 1356 3103 1142 2972 
Q 928 2841 928 2578 
Q 928 2378 1081 2264 
Q 1234 2150 1697 2047 
L 1894 2003 
Q 2506 1872 2764 1633 
Q 3022 1394 3022 966 
Q 3022 478 2636 193 
Q 2250 -91 1575 -91 
Q 1294 -91 989 -36 
Q 684 19 347 128 
L 347 722 
Q 666 556 975 473 
Q 1284 391 1588 391 
Q 1994 391 2212 530 
Q 2431 669 2431 922 
Q 2431 1156 2273 1281 
Q 2116 1406 1581 1522 
L 1381 1569 
Q 847 1681 609 1914 
Q 372 2147 372 2553 
Q 372 3047 722 3315 
Q 1072 3584 1716 3584 
Q 2034 3584 2315 3537 
Q 2597 3491 2834 3397 
z
" transform="scale(0.015625)"/>
     </defs>
     <use xlink:href="#DejaVuSans-4d"/>
     <use xlink:href="#DejaVuSans-41" x="86.279297"/>
     <use xlink:href="#DejaVuSans-45" x="154.6875"/>
     <use xlink:href="#DejaVuSans-20" x="217.871094"/>
     <use xlink:href="#DejaVuSans-6f" x="249.658203"/>
     <use xlink:href="#DejaVuSans-66" x="310.839844"/>
     <use xlink:href="#DejaVuSans-20" x="346.044922"/>
     <use xlink:href="#DejaVuSans-65" x="377.832031"/>
     <use xlink:href="#DejaVuSans-6e" x="439.355469"/>
     <use xlink:href="#DejaVuSans-65" x="502.734375"/>
     <use xlink:href="#DejaVuSans-72" x="564.257812"/>
     <use xlink:href="#DejaVuSans-67" x="603.621094"/>
     <use xlink:href="#DejaVuSans-79" x="667.097656"/>
     <use xlink:href="#DejaVuSans-20" x="726.277344"/>
     <use xlink:href="#DejaVuSans-70" x="758.064453"/>
     <use xlink:href="#DejaVuSans-65" x="821.541016"/>
     <use xlink:href="#DejaVuSans-72" x="883.064453"/>
     <use xlink:href="#DejaVuSans-20" x="924.177734"/>
     <use xlink:href="#DejaVuSans-61" x="955.964844"/>
     <use xlink:href="#DejaVuSans-74" x="1017.244141"/>
     <use xlink:href="#DejaVuSans-6f" x="1056.453125"/>
     <use xlink:href="#DejaVuSans-6d" x="1117.634766"/>
     <use xlink:href="#DejaVuSans-20" x="1215.046875"/>
     <use xlink:href="#DejaVuSans-6f" x="1246.833984"/>
     <use xlink:href="#DejaVuSans-76" x="1308.015625"/>
     <use xlink:href="#DejaVuSans-65" x="1367.195312"/>
     <use xlink:href="#DejaVuSans-72" x="1428.71875"/>
     <use xlink:href="#DejaVuSans-20" x="1469.832031"/>
     <use xlink:href="#DejaVuSans-45" x="1501.619141"/>
     <use xlink:href="#DejaVuSans-70" x="1564.802734"/>
     <use xlink:href="#DejaVuSans-6f" x="1628.279297"/>
     <use xlink:href="#DejaVuSans-63" x="1689.460938"/>
     <use xlink:href="#DejaVuSans-68" x="1744.441406"/>
     <use xlink:href="#DejaVuSans-73" x="1807.820312"/>
    </g>
   </g>
   <g id="legend_1">
    <g id="patch_3">
     <path d="M 293.09375 83.158125 
L 446.6 83.158125 
Q 448.6 83.158125 448.6 81.158125 
L 448.6 67.48 
Q 448.6 65.48 446.6 65.48 
L 293.09375 65.48 
Q 291.09375 65.48 291.09375 67.48 
L 291.09375 81.158125 
Q 291.09375 83.158125 293.09375 83.158125 
z
" style="fill: #ffffff; opacity: 0.8; stroke: #cccccc; stroke-linejoin: miter"/>
    </g>
    <g id="line2d_47">
     <path d="M 295.09375 73.578438 
L 305.09375 73.578438 
L 315.09375 73.578438 
" style="fill: none; stroke: #1f77b4; stroke-width: 1.5; stroke-linecap: square"/>
    </g>
    <g id="text_17">
     <!-- MAE of energy per atom -->
     <g transform="translate(323.09375 77.078438) scale(0.1 -0.1)">
      <use xlink:href="#DejaVuSans-4d"/>
      <use xlink:href="#DejaVuSans-41" x="86.279297"/>
      <use xlink:href="#DejaVuSans-45" x="154.6875"/>
      <use xlink:href="#DejaVuSans-20" x="217.871094"/>
      <use xlink:href="#DejaVuSans-6f" x="249.658203"/>
      <use xlink:href="#DejaVuSans-66" x="310.839844"/>
      <use xlink:href="#DejaVuSans-20" x="346.044922"/>
      <use xlink:href="#DejaVuSans-65" x="377.832031"/>
      <use xlink:href="#DejaVuSans-6e" x="439.355469"/>
      <use xlink:href="#DejaVuSans-65" x="502.734375"/>
      <use xlink:href="#DejaVuSans-72" x="564.257812"/>
      <use xlink:href="#DejaVuSans-67" x="603.621094"/>
      <use xlink:href="#DejaVuSans-79" x="667.097656"/>
      <use xlink:href="#DejaVuSans-20" x="726.277344"/>
      <use xlink:href="#DejaVuSans-70" x="758.064453"/>
      <use xlink:href="#DejaVuSans-65" x="821.541016"/>
      <use xlink:href="#DejaVuSans-72" x="883.064453"/>
      <use xlink:href="#DejaVuSans-20" x="924.177734"/>
      <use xlink:href="#DejaVuSans-61" x="955.964844"/>
      <use xlink:href="#DejaVuSans-74" x="1017.244141"/>
      <use xlink:href="#DejaVuSans-6f" x="1056.453125"/>
      <use xlink:href="#DejaVuSans-6d" x="1117.634766"/>
     </g>
    </g>
   </g>
  </g>
 </g>
 <defs>
  <clipPath id="pe0abf677ff">
   <rect x="63" y="60.48" width="390.6" height="388.08"/>
  </clipPath>
 </defs>
</svg>
